<?xml version="1.0" encoding="utf-8" standalone="no"?>
<!DOCTYPE svg PUBLIC "-//W3C//DTD SVG 1.1//EN"
  "http://www.w3.org/Graphics/SVG/1.1/DTD/svg11.dtd">
<!-- Created with matplotlib (https://matplotlib.org/) -->
<svg height="304.21075pt" version="1.1" viewBox="0 0 395.21875 304.21075" width="395.21875pt" xmlns="http://www.w3.org/2000/svg" xmlns:xlink="http://www.w3.org/1999/xlink">
 <metadata>
  <rdf:RDF xmlns:cc="http://creativecommons.org/ns#" xmlns:dc="http://purl.org/dc/elements/1.1/" xmlns:rdf="http://www.w3.org/1999/02/22-rdf-syntax-ns#">
   <cc:Work>
    <dc:type rdf:resource="http://purl.org/dc/dcmitype/StillImage"/>
    <dc:date>2022-02-01T21:50:19.319745</dc:date>
    <dc:format>image/svg+xml</dc:format>
    <dc:creator>
     <cc:Agent>
      <dc:title>Matplotlib v3.3.4, https://matplotlib.org/</dc:title>
     </cc:Agent>
    </dc:creator>
   </cc:Work>
  </rdf:RDF>
 </metadata>
 <defs>
  <style type="text/css">*{stroke-linecap:butt;stroke-linejoin:round;}</style>
 </defs>
 <g id="figure_1">
  <g id="patch_1">
   <path d="M 0 304.21075 
L 395.21875 304.21075 
L 395.21875 0 
L 0 0 
z
" style="fill:#ffffff;"/>
  </g>
  <g id="axes_1">
   <g id="patch_2">
    <path d="M 38.09875 266.112 
L 395.21875 266.112 
L 395.21875 -0 
L 38.09875 -0 
z
" style="fill:#ffffff;"/>
   </g>
   <g id="QuadMesh_1">
    <path clip-path="url(#pbde0430f26)" d="M 38.09875 -0 
L 73.81075 -0 
L 73.81075 26.6112 
L 38.09875 26.6112 
L 38.09875 -0 
" style="fill:#1f6eb3;"/>
    <path clip-path="url(#pbde0430f26)" d="M 73.81075 -0 
L 109.52275 -0 
L 109.52275 26.6112 
L 73.81075 26.6112 
L 73.81075 -0 
" style="fill:#d3e4f3;"/>
    <path clip-path="url(#pbde0430f26)" d="M 109.52275 -0 
L 145.23475 -0 
L 145.23475 26.6112 
L 109.52275 26.6112 
L 109.52275 -0 
" style="fill:#ebf3fb;"/>
    <path clip-path="url(#pbde0430f26)" d="M 145.23475 -0 
L 180.94675 -0 
L 180.94675 26.6112 
L 145.23475 26.6112 
L 145.23475 -0 
" style="fill:#f7fbff;"/>
    <path clip-path="url(#pbde0430f26)" d="M 180.94675 -0 
L 216.65875 -0 
L 216.65875 26.6112 
L 180.94675 26.6112 
L 180.94675 -0 
" style="fill:#f7fbff;"/>
    <path clip-path="url(#pbde0430f26)" d="M 216.65875 -0 
L 252.37075 -0 
L 252.37075 26.6112 
L 216.65875 26.6112 
L 216.65875 -0 
" style="fill:#f7fbff;"/>
    <path clip-path="url(#pbde0430f26)" d="M 252.37075 -0 
L 288.08275 -0 
L 288.08275 26.6112 
L 252.37075 26.6112 
L 252.37075 -0 
" style="fill:#f7fbff;"/>
    <path clip-path="url(#pbde0430f26)" d="M 288.08275 -0 
L 323.79475 -0 
L 323.79475 26.6112 
L 288.08275 26.6112 
L 288.08275 -0 
" style="fill:#f7fbff;"/>
    <path clip-path="url(#pbde0430f26)" d="M 323.79475 -0 
L 359.50675 -0 
L 359.50675 26.6112 
L 323.79475 26.6112 
L 323.79475 -0 
" style="fill:#f7fbff;"/>
    <path clip-path="url(#pbde0430f26)" d="M 359.50675 -0 
L 395.21875 -0 
L 395.21875 26.6112 
L 359.50675 26.6112 
L 359.50675 -0 
" style="fill:#f7fbff;"/>
    <path clip-path="url(#pbde0430f26)" d="M 38.09875 26.6112 
L 73.81075 26.6112 
L 73.81075 53.2224 
L 38.09875 53.2224 
L 38.09875 26.6112 
" style="fill:#f7fbff;"/>
    <path clip-path="url(#pbde0430f26)" d="M 73.81075 26.6112 
L 109.52275 26.6112 
L 109.52275 53.2224 
L 73.81075 53.2224 
L 73.81075 26.6112 
" style="fill:#08306b;"/>
    <path clip-path="url(#pbde0430f26)" d="M 109.52275 26.6112 
L 145.23475 26.6112 
L 145.23475 53.2224 
L 109.52275 53.2224 
L 109.52275 26.6112 
" style="fill:#f7fbff;"/>
    <path clip-path="url(#pbde0430f26)" d="M 145.23475 26.6112 
L 180.94675 26.6112 
L 180.94675 53.2224 
L 145.23475 53.2224 
L 145.23475 26.6112 
" style="fill:#f7fbff;"/>
    <path clip-path="url(#pbde0430f26)" d="M 180.94675 26.6112 
L 216.65875 26.6112 
L 216.65875 53.2224 
L 180.94675 53.2224 
L 180.94675 26.6112 
" style="fill:#f7fbff;"/>
    <path clip-path="url(#pbde0430f26)" d="M 216.65875 26.6112 
L 252.37075 26.6112 
L 252.37075 53.2224 
L 216.65875 53.2224 
L 216.65875 26.6112 
" style="fill:#f7fbff;"/>
    <path clip-path="url(#pbde0430f26)" d="M 252.37075 26.6112 
L 288.08275 26.6112 
L 288.08275 53.2224 
L 252.37075 53.2224 
L 252.37075 26.6112 
" style="fill:#f7fbff;"/>
    <path clip-path="url(#pbde0430f26)" d="M 288.08275 26.6112 
L 323.79475 26.6112 
L 323.79475 53.2224 
L 288.08275 53.2224 
L 288.08275 26.6112 
" style="fill:#f7fbff;"/>
    <path clip-path="url(#pbde0430f26)" d="M 323.79475 26.6112 
L 359.50675 26.6112 
L 359.50675 53.2224 
L 323.79475 53.2224 
L 323.79475 26.6112 
" style="fill:#f7fbff;"/>
    <path clip-path="url(#pbde0430f26)" d="M 359.50675 26.6112 
L 395.21875 26.6112 
L 395.21875 53.2224 
L 359.50675 53.2224 
L 359.50675 26.6112 
" style="fill:#f7fbff;"/>
    <path clip-path="url(#pbde0430f26)" d="M 38.09875 53.2224 
L 73.81075 53.2224 
L 73.81075 79.8336 
L 38.09875 79.8336 
L 38.09875 53.2224 
" style="fill:#f7fbff;"/>
    <path clip-path="url(#pbde0430f26)" d="M 73.81075 53.2224 
L 109.52275 53.2224 
L 109.52275 79.8336 
L 73.81075 79.8336 
L 73.81075 53.2224 
" style="fill:#084a91;"/>
    <path clip-path="url(#pbde0430f26)" d="M 109.52275 53.2224 
L 145.23475 53.2224 
L 145.23475 79.8336 
L 109.52275 79.8336 
L 109.52275 53.2224 
" style="fill:#e7f1fa;"/>
    <path clip-path="url(#pbde0430f26)" d="M 145.23475 53.2224 
L 180.94675 53.2224 
L 180.94675 79.8336 
L 145.23475 79.8336 
L 145.23475 53.2224 
" style="fill:#f7fbff;"/>
    <path clip-path="url(#pbde0430f26)" d="M 180.94675 53.2224 
L 216.65875 53.2224 
L 216.65875 79.8336 
L 180.94675 79.8336 
L 180.94675 53.2224 
" style="fill:#f7fbff;"/>
    <path clip-path="url(#pbde0430f26)" d="M 216.65875 53.2224 
L 252.37075 53.2224 
L 252.37075 79.8336 
L 216.65875 79.8336 
L 216.65875 53.2224 
" style="fill:#f7fbff;"/>
    <path clip-path="url(#pbde0430f26)" d="M 252.37075 53.2224 
L 288.08275 53.2224 
L 288.08275 79.8336 
L 252.37075 79.8336 
L 252.37075 53.2224 
" style="fill:#f7fbff;"/>
    <path clip-path="url(#pbde0430f26)" d="M 288.08275 53.2224 
L 323.79475 53.2224 
L 323.79475 79.8336 
L 288.08275 79.8336 
L 288.08275 53.2224 
" style="fill:#f7fbff;"/>
    <path clip-path="url(#pbde0430f26)" d="M 323.79475 53.2224 
L 359.50675 53.2224 
L 359.50675 79.8336 
L 323.79475 79.8336 
L 323.79475 53.2224 
" style="fill:#f7fbff;"/>
    <path clip-path="url(#pbde0430f26)" d="M 359.50675 53.2224 
L 395.21875 53.2224 
L 395.21875 79.8336 
L 359.50675 79.8336 
L 359.50675 53.2224 
" style="fill:#f3f8fe;"/>
    <path clip-path="url(#pbde0430f26)" d="M 38.09875 79.8336 
L 73.81075 79.8336 
L 73.81075 106.4448 
L 38.09875 106.4448 
L 38.09875 79.8336 
" style="fill:#f7fbff;"/>
    <path clip-path="url(#pbde0430f26)" d="M 73.81075 79.8336 
L 109.52275 79.8336 
L 109.52275 106.4448 
L 73.81075 106.4448 
L 73.81075 79.8336 
" style="fill:#6aaed6;"/>
    <path clip-path="url(#pbde0430f26)" d="M 109.52275 79.8336 
L 145.23475 79.8336 
L 145.23475 106.4448 
L 109.52275 106.4448 
L 109.52275 79.8336 
" style="fill:#ccdff1;"/>
    <path clip-path="url(#pbde0430f26)" d="M 145.23475 79.8336 
L 180.94675 79.8336 
L 180.94675 106.4448 
L 145.23475 106.4448 
L 145.23475 79.8336 
" style="fill:#e7f1fa;"/>
    <path clip-path="url(#pbde0430f26)" d="M 180.94675 79.8336 
L 216.65875 79.8336 
L 216.65875 106.4448 
L 180.94675 106.4448 
L 180.94675 79.8336 
" style="fill:#f7fbff;"/>
    <path clip-path="url(#pbde0430f26)" d="M 216.65875 79.8336 
L 252.37075 79.8336 
L 252.37075 106.4448 
L 216.65875 106.4448 
L 216.65875 79.8336 
" style="fill:#f7fbff;"/>
    <path clip-path="url(#pbde0430f26)" d="M 252.37075 79.8336 
L 288.08275 79.8336 
L 288.08275 106.4448 
L 252.37075 106.4448 
L 252.37075 79.8336 
" style="fill:#f7fbff;"/>
    <path clip-path="url(#pbde0430f26)" d="M 288.08275 79.8336 
L 323.79475 79.8336 
L 323.79475 106.4448 
L 288.08275 106.4448 
L 288.08275 79.8336 
" style="fill:#f7fbff;"/>
    <path clip-path="url(#pbde0430f26)" d="M 323.79475 79.8336 
L 359.50675 79.8336 
L 359.50675 106.4448 
L 323.79475 106.4448 
L 323.79475 79.8336 
" style="fill:#f7fbff;"/>
    <path clip-path="url(#pbde0430f26)" d="M 359.50675 79.8336 
L 395.21875 79.8336 
L 395.21875 106.4448 
L 359.50675 106.4448 
L 359.50675 79.8336 
" style="fill:#d0e1f2;"/>
    <path clip-path="url(#pbde0430f26)" d="M 38.09875 106.4448 
L 73.81075 106.4448 
L 73.81075 133.056 
L 38.09875 133.056 
L 38.09875 106.4448 
" style="fill:#f7fbff;"/>
    <path clip-path="url(#pbde0430f26)" d="M 73.81075 106.4448 
L 109.52275 106.4448 
L 109.52275 133.056 
L 73.81075 133.056 
L 73.81075 106.4448 
" style="fill:#f7fbff;"/>
    <path clip-path="url(#pbde0430f26)" d="M 109.52275 106.4448 
L 145.23475 106.4448 
L 145.23475 133.056 
L 109.52275 133.056 
L 109.52275 106.4448 
" style="fill:#b7d4ea;"/>
    <path clip-path="url(#pbde0430f26)" d="M 145.23475 106.4448 
L 180.94675 106.4448 
L 180.94675 133.056 
L 145.23475 133.056 
L 145.23475 106.4448 
" style="fill:#f3f8fe;"/>
    <path clip-path="url(#pbde0430f26)" d="M 180.94675 106.4448 
L 216.65875 106.4448 
L 216.65875 133.056 
L 180.94675 133.056 
L 180.94675 106.4448 
" style="fill:#e3eef9;"/>
    <path clip-path="url(#pbde0430f26)" d="M 216.65875 106.4448 
L 252.37075 106.4448 
L 252.37075 133.056 
L 216.65875 133.056 
L 216.65875 106.4448 
" style="fill:#d0e1f2;"/>
    <path clip-path="url(#pbde0430f26)" d="M 252.37075 106.4448 
L 288.08275 106.4448 
L 288.08275 133.056 
L 252.37075 133.056 
L 252.37075 106.4448 
" style="fill:#f7fbff;"/>
    <path clip-path="url(#pbde0430f26)" d="M 288.08275 106.4448 
L 323.79475 106.4448 
L 323.79475 133.056 
L 288.08275 133.056 
L 288.08275 106.4448 
" style="fill:#f7fbff;"/>
    <path clip-path="url(#pbde0430f26)" d="M 323.79475 106.4448 
L 359.50675 106.4448 
L 359.50675 133.056 
L 323.79475 133.056 
L 323.79475 106.4448 
" style="fill:#f7fbff;"/>
    <path clip-path="url(#pbde0430f26)" d="M 359.50675 106.4448 
L 395.21875 106.4448 
L 395.21875 133.056 
L 359.50675 133.056 
L 359.50675 106.4448 
" style="fill:#9cc9e1;"/>
    <path clip-path="url(#pbde0430f26)" d="M 38.09875 133.056 
L 73.81075 133.056 
L 73.81075 159.6672 
L 38.09875 159.6672 
L 38.09875 133.056 
" style="fill:#f7fbff;"/>
    <path clip-path="url(#pbde0430f26)" d="M 73.81075 133.056 
L 109.52275 133.056 
L 109.52275 159.6672 
L 73.81075 159.6672 
L 73.81075 133.056 
" style="fill:#f7fbff;"/>
    <path clip-path="url(#pbde0430f26)" d="M 109.52275 133.056 
L 145.23475 133.056 
L 145.23475 159.6672 
L 109.52275 159.6672 
L 109.52275 133.056 
" style="fill:#e3eef9;"/>
    <path clip-path="url(#pbde0430f26)" d="M 145.23475 133.056 
L 180.94675 133.056 
L 180.94675 159.6672 
L 145.23475 159.6672 
L 145.23475 133.056 
" style="fill:#f3f8fe;"/>
    <path clip-path="url(#pbde0430f26)" d="M 180.94675 133.056 
L 216.65875 133.056 
L 216.65875 159.6672 
L 180.94675 159.6672 
L 180.94675 133.056 
" style="fill:#dce9f6;"/>
    <path clip-path="url(#pbde0430f26)" d="M 216.65875 133.056 
L 252.37075 133.056 
L 252.37075 159.6672 
L 216.65875 159.6672 
L 216.65875 133.056 
" style="fill:#c3daee;"/>
    <path clip-path="url(#pbde0430f26)" d="M 252.37075 133.056 
L 288.08275 133.056 
L 288.08275 159.6672 
L 252.37075 159.6672 
L 252.37075 133.056 
" style="fill:#eff6fc;"/>
    <path clip-path="url(#pbde0430f26)" d="M 288.08275 133.056 
L 323.79475 133.056 
L 323.79475 159.6672 
L 288.08275 159.6672 
L 288.08275 133.056 
" style="fill:#eff6fc;"/>
    <path clip-path="url(#pbde0430f26)" d="M 323.79475 133.056 
L 359.50675 133.056 
L 359.50675 159.6672 
L 323.79475 159.6672 
L 323.79475 133.056 
" style="fill:#f7fbff;"/>
    <path clip-path="url(#pbde0430f26)" d="M 359.50675 133.056 
L 395.21875 133.056 
L 395.21875 159.6672 
L 359.50675 159.6672 
L 359.50675 133.056 
" style="fill:#94c4df;"/>
    <path clip-path="url(#pbde0430f26)" d="M 38.09875 159.6672 
L 73.81075 159.6672 
L 73.81075 186.2784 
L 38.09875 186.2784 
L 38.09875 159.6672 
" style="fill:#f7fbff;"/>
    <path clip-path="url(#pbde0430f26)" d="M 73.81075 159.6672 
L 109.52275 159.6672 
L 109.52275 186.2784 
L 73.81075 186.2784 
L 73.81075 159.6672 
" style="fill:#f7fbff;"/>
    <path clip-path="url(#pbde0430f26)" d="M 109.52275 159.6672 
L 145.23475 159.6672 
L 145.23475 186.2784 
L 109.52275 186.2784 
L 109.52275 159.6672 
" style="fill:#f7fbff;"/>
    <path clip-path="url(#pbde0430f26)" d="M 145.23475 159.6672 
L 180.94675 159.6672 
L 180.94675 186.2784 
L 145.23475 186.2784 
L 145.23475 159.6672 
" style="fill:#f7fbff;"/>
    <path clip-path="url(#pbde0430f26)" d="M 180.94675 159.6672 
L 216.65875 159.6672 
L 216.65875 186.2784 
L 180.94675 186.2784 
L 180.94675 159.6672 
" style="fill:#e3eef9;"/>
    <path clip-path="url(#pbde0430f26)" d="M 216.65875 159.6672 
L 252.37075 159.6672 
L 252.37075 186.2784 
L 216.65875 186.2784 
L 216.65875 159.6672 
" style="fill:#c8dcf0;"/>
    <path clip-path="url(#pbde0430f26)" d="M 252.37075 159.6672 
L 288.08275 159.6672 
L 288.08275 186.2784 
L 252.37075 186.2784 
L 252.37075 159.6672 
" style="fill:#c3daee;"/>
    <path clip-path="url(#pbde0430f26)" d="M 288.08275 159.6672 
L 323.79475 159.6672 
L 323.79475 186.2784 
L 288.08275 186.2784 
L 288.08275 159.6672 
" style="fill:#e7f1fa;"/>
    <path clip-path="url(#pbde0430f26)" d="M 323.79475 159.6672 
L 359.50675 159.6672 
L 359.50675 186.2784 
L 323.79475 186.2784 
L 323.79475 159.6672 
" style="fill:#f3f8fe;"/>
    <path clip-path="url(#pbde0430f26)" d="M 359.50675 159.6672 
L 395.21875 159.6672 
L 395.21875 186.2784 
L 359.50675 186.2784 
L 359.50675 159.6672 
" style="fill:#b7d4ea;"/>
    <path clip-path="url(#pbde0430f26)" d="M 38.09875 186.2784 
L 73.81075 186.2784 
L 73.81075 212.8896 
L 38.09875 212.8896 
L 38.09875 186.2784 
" style="fill:#f7fbff;"/>
    <path clip-path="url(#pbde0430f26)" d="M 73.81075 186.2784 
L 109.52275 186.2784 
L 109.52275 212.8896 
L 73.81075 212.8896 
L 73.81075 186.2784 
" style="fill:#f7fbff;"/>
    <path clip-path="url(#pbde0430f26)" d="M 109.52275 186.2784 
L 145.23475 186.2784 
L 145.23475 212.8896 
L 109.52275 212.8896 
L 109.52275 186.2784 
" style="fill:#f7fbff;"/>
    <path clip-path="url(#pbde0430f26)" d="M 145.23475 186.2784 
L 180.94675 186.2784 
L 180.94675 212.8896 
L 145.23475 212.8896 
L 145.23475 186.2784 
" style="fill:#f7fbff;"/>
    <path clip-path="url(#pbde0430f26)" d="M 180.94675 186.2784 
L 216.65875 186.2784 
L 216.65875 212.8896 
L 180.94675 212.8896 
L 180.94675 186.2784 
" style="fill:#f3f8fe;"/>
    <path clip-path="url(#pbde0430f26)" d="M 216.65875 186.2784 
L 252.37075 186.2784 
L 252.37075 212.8896 
L 216.65875 212.8896 
L 216.65875 186.2784 
" style="fill:#eff6fc;"/>
    <path clip-path="url(#pbde0430f26)" d="M 252.37075 186.2784 
L 288.08275 186.2784 
L 288.08275 212.8896 
L 252.37075 212.8896 
L 252.37075 186.2784 
" style="fill:#d0e1f2;"/>
    <path clip-path="url(#pbde0430f26)" d="M 288.08275 186.2784 
L 323.79475 186.2784 
L 323.79475 212.8896 
L 288.08275 212.8896 
L 288.08275 186.2784 
" style="fill:#64a9d3;"/>
    <path clip-path="url(#pbde0430f26)" d="M 323.79475 186.2784 
L 359.50675 186.2784 
L 359.50675 212.8896 
L 323.79475 212.8896 
L 323.79475 186.2784 
" style="fill:#d3e4f3;"/>
    <path clip-path="url(#pbde0430f26)" d="M 359.50675 186.2784 
L 395.21875 186.2784 
L 395.21875 212.8896 
L 359.50675 212.8896 
L 359.50675 186.2784 
" style="fill:#eff6fc;"/>
    <path clip-path="url(#pbde0430f26)" d="M 38.09875 212.8896 
L 73.81075 212.8896 
L 73.81075 239.5008 
L 38.09875 239.5008 
L 38.09875 212.8896 
" style="fill:#f7fbff;"/>
    <path clip-path="url(#pbde0430f26)" d="M 73.81075 212.8896 
L 109.52275 212.8896 
L 109.52275 239.5008 
L 73.81075 239.5008 
L 73.81075 212.8896 
" style="fill:#f7fbff;"/>
    <path clip-path="url(#pbde0430f26)" d="M 109.52275 212.8896 
L 145.23475 212.8896 
L 145.23475 239.5008 
L 109.52275 239.5008 
L 109.52275 212.8896 
" style="fill:#f7fbff;"/>
    <path clip-path="url(#pbde0430f26)" d="M 145.23475 212.8896 
L 180.94675 212.8896 
L 180.94675 239.5008 
L 145.23475 239.5008 
L 145.23475 212.8896 
" style="fill:#f7fbff;"/>
    <path clip-path="url(#pbde0430f26)" d="M 180.94675 212.8896 
L 216.65875 212.8896 
L 216.65875 239.5008 
L 180.94675 239.5008 
L 180.94675 212.8896 
" style="fill:#f3f8fe;"/>
    <path clip-path="url(#pbde0430f26)" d="M 216.65875 212.8896 
L 252.37075 212.8896 
L 252.37075 239.5008 
L 216.65875 239.5008 
L 216.65875 212.8896 
" style="fill:#f3f8fe;"/>
    <path clip-path="url(#pbde0430f26)" d="M 252.37075 212.8896 
L 288.08275 212.8896 
L 288.08275 239.5008 
L 252.37075 239.5008 
L 252.37075 212.8896 
" style="fill:#dfecf7;"/>
    <path clip-path="url(#pbde0430f26)" d="M 288.08275 212.8896 
L 323.79475 212.8896 
L 323.79475 239.5008 
L 288.08275 239.5008 
L 288.08275 212.8896 
" style="fill:#d8e7f5;"/>
    <path clip-path="url(#pbde0430f26)" d="M 323.79475 212.8896 
L 359.50675 212.8896 
L 359.50675 239.5008 
L 323.79475 239.5008 
L 323.79475 212.8896 
" style="fill:#7cb7da;"/>
    <path clip-path="url(#pbde0430f26)" d="M 359.50675 212.8896 
L 395.21875 212.8896 
L 395.21875 239.5008 
L 359.50675 239.5008 
L 359.50675 212.8896 
" style="fill:#ccdff1;"/>
    <path clip-path="url(#pbde0430f26)" d="M 38.09875 239.5008 
L 73.81075 239.5008 
L 73.81075 266.112 
L 38.09875 266.112 
L 38.09875 239.5008 
" style="fill:#f7fbff;"/>
    <path clip-path="url(#pbde0430f26)" d="M 73.81075 239.5008 
L 109.52275 239.5008 
L 109.52275 266.112 
L 73.81075 266.112 
L 73.81075 239.5008 
" style="fill:#f7fbff;"/>
    <path clip-path="url(#pbde0430f26)" d="M 109.52275 239.5008 
L 145.23475 239.5008 
L 145.23475 266.112 
L 109.52275 266.112 
L 109.52275 239.5008 
" style="fill:#f7fbff;"/>
    <path clip-path="url(#pbde0430f26)" d="M 145.23475 239.5008 
L 180.94675 239.5008 
L 180.94675 266.112 
L 145.23475 266.112 
L 145.23475 239.5008 
" style="fill:#f7fbff;"/>
    <path clip-path="url(#pbde0430f26)" d="M 180.94675 239.5008 
L 216.65875 239.5008 
L 216.65875 266.112 
L 180.94675 266.112 
L 180.94675 239.5008 
" style="fill:#f7fbff;"/>
    <path clip-path="url(#pbde0430f26)" d="M 216.65875 239.5008 
L 252.37075 239.5008 
L 252.37075 266.112 
L 216.65875 266.112 
L 216.65875 239.5008 
" style="fill:#f3f8fe;"/>
    <path clip-path="url(#pbde0430f26)" d="M 252.37075 239.5008 
L 288.08275 239.5008 
L 288.08275 266.112 
L 252.37075 266.112 
L 252.37075 239.5008 
" style="fill:#e3eef9;"/>
    <path clip-path="url(#pbde0430f26)" d="M 288.08275 239.5008 
L 323.79475 239.5008 
L 323.79475 266.112 
L 288.08275 266.112 
L 288.08275 239.5008 
" style="fill:#f3f8fe;"/>
    <path clip-path="url(#pbde0430f26)" d="M 323.79475 239.5008 
L 359.50675 239.5008 
L 359.50675 266.112 
L 323.79475 266.112 
L 323.79475 239.5008 
" style="fill:#f3f8fe;"/>
    <path clip-path="url(#pbde0430f26)" d="M 359.50675 239.5008 
L 395.21875 239.5008 
L 395.21875 266.112 
L 359.50675 266.112 
L 359.50675 239.5008 
" style="fill:#0e59a2;"/>
   </g>
   <g id="matplotlib.axis_1">
    <g id="xtick_1">
     <g id="line2d_1">
      <defs>
       <path d="M 0 0 
L 0 3.5 
" id="m05e55a8514" style="stroke:#000000;stroke-width:0.8;"/>
      </defs>
      <g>
       <use style="stroke:#000000;stroke-width:0.8;" x="55.95475" xlink:href="#m05e55a8514" y="266.112"/>
      </g>
     </g>
     <g id="text_1">
      <!-- 10% -->
      <g transform="translate(44.841469 280.710437)scale(0.1 -0.1)">
       <defs>
        <path d="M 12.40625 8.296875 
L 28.515625 8.296875 
L 28.515625 63.921875 
L 10.984375 60.40625 
L 10.984375 69.390625 
L 28.421875 72.90625 
L 38.28125 72.90625 
L 38.28125 8.296875 
L 54.390625 8.296875 
L 54.390625 0 
L 12.40625 0 
z
" id="DejaVuSans-49"/>
        <path d="M 31.78125 66.40625 
Q 24.171875 66.40625 20.328125 58.90625 
Q 16.5 51.421875 16.5 36.375 
Q 16.5 21.390625 20.328125 13.890625 
Q 24.171875 6.390625 31.78125 6.390625 
Q 39.453125 6.390625 43.28125 13.890625 
Q 47.125 21.390625 47.125 36.375 
Q 47.125 51.421875 43.28125 58.90625 
Q 39.453125 66.40625 31.78125 66.40625 
z
M 31.78125 74.21875 
Q 44.046875 74.21875 50.515625 64.515625 
Q 56.984375 54.828125 56.984375 36.375 
Q 56.984375 17.96875 50.515625 8.265625 
Q 44.046875 -1.421875 31.78125 -1.421875 
Q 19.53125 -1.421875 13.0625 8.265625 
Q 6.59375 17.96875 6.59375 36.375 
Q 6.59375 54.828125 13.0625 64.515625 
Q 19.53125 74.21875 31.78125 74.21875 
z
" id="DejaVuSans-48"/>
        <path d="M 72.703125 32.078125 
Q 68.453125 32.078125 66.03125 28.46875 
Q 63.625 24.859375 63.625 18.40625 
Q 63.625 12.0625 66.03125 8.421875 
Q 68.453125 4.78125 72.703125 4.78125 
Q 76.859375 4.78125 79.265625 8.421875 
Q 81.6875 12.0625 81.6875 18.40625 
Q 81.6875 24.8125 79.265625 28.4375 
Q 76.859375 32.078125 72.703125 32.078125 
z
M 72.703125 38.28125 
Q 80.421875 38.28125 84.953125 32.90625 
Q 89.5 27.546875 89.5 18.40625 
Q 89.5 9.28125 84.9375 3.921875 
Q 80.375 -1.421875 72.703125 -1.421875 
Q 64.890625 -1.421875 60.34375 3.921875 
Q 55.8125 9.28125 55.8125 18.40625 
Q 55.8125 27.59375 60.375 32.9375 
Q 64.9375 38.28125 72.703125 38.28125 
z
M 22.3125 68.015625 
Q 18.109375 68.015625 15.6875 64.375 
Q 13.28125 60.75 13.28125 54.390625 
Q 13.28125 47.953125 15.671875 44.328125 
Q 18.0625 40.71875 22.3125 40.71875 
Q 26.5625 40.71875 28.96875 44.328125 
Q 31.390625 47.953125 31.390625 54.390625 
Q 31.390625 60.6875 28.953125 64.34375 
Q 26.515625 68.015625 22.3125 68.015625 
z
M 66.40625 74.21875 
L 74.21875 74.21875 
L 28.609375 -1.421875 
L 20.796875 -1.421875 
z
M 22.3125 74.21875 
Q 30.03125 74.21875 34.609375 68.875 
Q 39.203125 63.53125 39.203125 54.390625 
Q 39.203125 45.171875 34.640625 39.84375 
Q 30.078125 34.515625 22.3125 34.515625 
Q 14.546875 34.515625 10.03125 39.859375 
Q 5.515625 45.21875 5.515625 54.390625 
Q 5.515625 63.484375 10.046875 68.84375 
Q 14.59375 74.21875 22.3125 74.21875 
z
" id="DejaVuSans-37"/>
       </defs>
       <use xlink:href="#DejaVuSans-49"/>
       <use x="63.623047" xlink:href="#DejaVuSans-48"/>
       <use x="127.246094" xlink:href="#DejaVuSans-37"/>
      </g>
     </g>
    </g>
    <g id="xtick_2">
     <g id="line2d_2">
      <g>
       <use style="stroke:#000000;stroke-width:0.8;" x="91.66675" xlink:href="#m05e55a8514" y="266.112"/>
      </g>
     </g>
     <g id="text_2">
      <!-- 20% -->
      <g transform="translate(80.553469 280.710437)scale(0.1 -0.1)">
       <defs>
        <path d="M 19.1875 8.296875 
L 53.609375 8.296875 
L 53.609375 0 
L 7.328125 0 
L 7.328125 8.296875 
Q 12.9375 14.109375 22.625 23.890625 
Q 32.328125 33.6875 34.8125 36.53125 
Q 39.546875 41.84375 41.421875 45.53125 
Q 43.3125 49.21875 43.3125 52.78125 
Q 43.3125 58.59375 39.234375 62.25 
Q 35.15625 65.921875 28.609375 65.921875 
Q 23.96875 65.921875 18.8125 64.3125 
Q 13.671875 62.703125 7.8125 59.421875 
L 7.8125 69.390625 
Q 13.765625 71.78125 18.9375 73 
Q 24.125 74.21875 28.421875 74.21875 
Q 39.75 74.21875 46.484375 68.546875 
Q 53.21875 62.890625 53.21875 53.421875 
Q 53.21875 48.921875 51.53125 44.890625 
Q 49.859375 40.875 45.40625 35.40625 
Q 44.1875 33.984375 37.640625 27.21875 
Q 31.109375 20.453125 19.1875 8.296875 
z
" id="DejaVuSans-50"/>
       </defs>
       <use xlink:href="#DejaVuSans-50"/>
       <use x="63.623047" xlink:href="#DejaVuSans-48"/>
       <use x="127.246094" xlink:href="#DejaVuSans-37"/>
      </g>
     </g>
    </g>
    <g id="xtick_3">
     <g id="line2d_3">
      <g>
       <use style="stroke:#000000;stroke-width:0.8;" x="127.37875" xlink:href="#m05e55a8514" y="266.112"/>
      </g>
     </g>
     <g id="text_3">
      <!-- 30% -->
      <g transform="translate(116.265469 280.710437)scale(0.1 -0.1)">
       <defs>
        <path d="M 40.578125 39.3125 
Q 47.65625 37.796875 51.625 33 
Q 55.609375 28.21875 55.609375 21.1875 
Q 55.609375 10.40625 48.1875 4.484375 
Q 40.765625 -1.421875 27.09375 -1.421875 
Q 22.515625 -1.421875 17.65625 -0.515625 
Q 12.796875 0.390625 7.625 2.203125 
L 7.625 11.71875 
Q 11.71875 9.328125 16.59375 8.109375 
Q 21.484375 6.890625 26.8125 6.890625 
Q 36.078125 6.890625 40.9375 10.546875 
Q 45.796875 14.203125 45.796875 21.1875 
Q 45.796875 27.640625 41.28125 31.265625 
Q 36.765625 34.90625 28.71875 34.90625 
L 20.21875 34.90625 
L 20.21875 43.015625 
L 29.109375 43.015625 
Q 36.375 43.015625 40.234375 45.921875 
Q 44.09375 48.828125 44.09375 54.296875 
Q 44.09375 59.90625 40.109375 62.90625 
Q 36.140625 65.921875 28.71875 65.921875 
Q 24.65625 65.921875 20.015625 65.03125 
Q 15.375 64.15625 9.8125 62.3125 
L 9.8125 71.09375 
Q 15.4375 72.65625 20.34375 73.4375 
Q 25.25 74.21875 29.59375 74.21875 
Q 40.828125 74.21875 47.359375 69.109375 
Q 53.90625 64.015625 53.90625 55.328125 
Q 53.90625 49.265625 50.4375 45.09375 
Q 46.96875 40.921875 40.578125 39.3125 
z
" id="DejaVuSans-51"/>
       </defs>
       <use xlink:href="#DejaVuSans-51"/>
       <use x="63.623047" xlink:href="#DejaVuSans-48"/>
       <use x="127.246094" xlink:href="#DejaVuSans-37"/>
      </g>
     </g>
    </g>
    <g id="xtick_4">
     <g id="line2d_4">
      <g>
       <use style="stroke:#000000;stroke-width:0.8;" x="163.09075" xlink:href="#m05e55a8514" y="266.112"/>
      </g>
     </g>
     <g id="text_4">
      <!-- 40% -->
      <g transform="translate(151.977469 280.710437)scale(0.1 -0.1)">
       <defs>
        <path d="M 37.796875 64.3125 
L 12.890625 25.390625 
L 37.796875 25.390625 
z
M 35.203125 72.90625 
L 47.609375 72.90625 
L 47.609375 25.390625 
L 58.015625 25.390625 
L 58.015625 17.1875 
L 47.609375 17.1875 
L 47.609375 0 
L 37.796875 0 
L 37.796875 17.1875 
L 4.890625 17.1875 
L 4.890625 26.703125 
z
" id="DejaVuSans-52"/>
       </defs>
       <use xlink:href="#DejaVuSans-52"/>
       <use x="63.623047" xlink:href="#DejaVuSans-48"/>
       <use x="127.246094" xlink:href="#DejaVuSans-37"/>
      </g>
     </g>
    </g>
    <g id="xtick_5">
     <g id="line2d_5">
      <g>
       <use style="stroke:#000000;stroke-width:0.8;" x="198.80275" xlink:href="#m05e55a8514" y="266.112"/>
      </g>
     </g>
     <g id="text_5">
      <!-- 50% -->
      <g transform="translate(187.689469 280.710437)scale(0.1 -0.1)">
       <defs>
        <path d="M 10.796875 72.90625 
L 49.515625 72.90625 
L 49.515625 64.59375 
L 19.828125 64.59375 
L 19.828125 46.734375 
Q 21.96875 47.46875 24.109375 47.828125 
Q 26.265625 48.1875 28.421875 48.1875 
Q 40.625 48.1875 47.75 41.5 
Q 54.890625 34.8125 54.890625 23.390625 
Q 54.890625 11.625 47.5625 5.09375 
Q 40.234375 -1.421875 26.90625 -1.421875 
Q 22.3125 -1.421875 17.546875 -0.640625 
Q 12.796875 0.140625 7.71875 1.703125 
L 7.71875 11.625 
Q 12.109375 9.234375 16.796875 8.0625 
Q 21.484375 6.890625 26.703125 6.890625 
Q 35.15625 6.890625 40.078125 11.328125 
Q 45.015625 15.765625 45.015625 23.390625 
Q 45.015625 31 40.078125 35.4375 
Q 35.15625 39.890625 26.703125 39.890625 
Q 22.75 39.890625 18.8125 39.015625 
Q 14.890625 38.140625 10.796875 36.28125 
z
" id="DejaVuSans-53"/>
       </defs>
       <use xlink:href="#DejaVuSans-53"/>
       <use x="63.623047" xlink:href="#DejaVuSans-48"/>
       <use x="127.246094" xlink:href="#DejaVuSans-37"/>
      </g>
     </g>
    </g>
    <g id="xtick_6">
     <g id="line2d_6">
      <g>
       <use style="stroke:#000000;stroke-width:0.8;" x="234.51475" xlink:href="#m05e55a8514" y="266.112"/>
      </g>
     </g>
     <g id="text_6">
      <!-- 60% -->
      <g transform="translate(223.401469 280.710437)scale(0.1 -0.1)">
       <defs>
        <path d="M 33.015625 40.375 
Q 26.375 40.375 22.484375 35.828125 
Q 18.609375 31.296875 18.609375 23.390625 
Q 18.609375 15.53125 22.484375 10.953125 
Q 26.375 6.390625 33.015625 6.390625 
Q 39.65625 6.390625 43.53125 10.953125 
Q 47.40625 15.53125 47.40625 23.390625 
Q 47.40625 31.296875 43.53125 35.828125 
Q 39.65625 40.375 33.015625 40.375 
z
M 52.59375 71.296875 
L 52.59375 62.3125 
Q 48.875 64.0625 45.09375 64.984375 
Q 41.3125 65.921875 37.59375 65.921875 
Q 27.828125 65.921875 22.671875 59.328125 
Q 17.53125 52.734375 16.796875 39.40625 
Q 19.671875 43.65625 24.015625 45.921875 
Q 28.375 48.1875 33.59375 48.1875 
Q 44.578125 48.1875 50.953125 41.515625 
Q 57.328125 34.859375 57.328125 23.390625 
Q 57.328125 12.15625 50.6875 5.359375 
Q 44.046875 -1.421875 33.015625 -1.421875 
Q 20.359375 -1.421875 13.671875 8.265625 
Q 6.984375 17.96875 6.984375 36.375 
Q 6.984375 53.65625 15.1875 63.9375 
Q 23.390625 74.21875 37.203125 74.21875 
Q 40.921875 74.21875 44.703125 73.484375 
Q 48.484375 72.75 52.59375 71.296875 
z
" id="DejaVuSans-54"/>
       </defs>
       <use xlink:href="#DejaVuSans-54"/>
       <use x="63.623047" xlink:href="#DejaVuSans-48"/>
       <use x="127.246094" xlink:href="#DejaVuSans-37"/>
      </g>
     </g>
    </g>
    <g id="xtick_7">
     <g id="line2d_7">
      <g>
       <use style="stroke:#000000;stroke-width:0.8;" x="270.22675" xlink:href="#m05e55a8514" y="266.112"/>
      </g>
     </g>
     <g id="text_7">
      <!-- 70% -->
      <g transform="translate(259.113469 280.710437)scale(0.1 -0.1)">
       <defs>
        <path d="M 8.203125 72.90625 
L 55.078125 72.90625 
L 55.078125 68.703125 
L 28.609375 0 
L 18.3125 0 
L 43.21875 64.59375 
L 8.203125 64.59375 
z
" id="DejaVuSans-55"/>
       </defs>
       <use xlink:href="#DejaVuSans-55"/>
       <use x="63.623047" xlink:href="#DejaVuSans-48"/>
       <use x="127.246094" xlink:href="#DejaVuSans-37"/>
      </g>
     </g>
    </g>
    <g id="xtick_8">
     <g id="line2d_8">
      <g>
       <use style="stroke:#000000;stroke-width:0.8;" x="305.93875" xlink:href="#m05e55a8514" y="266.112"/>
      </g>
     </g>
     <g id="text_8">
      <!-- 80% -->
      <g transform="translate(294.825469 280.710437)scale(0.1 -0.1)">
       <defs>
        <path d="M 31.78125 34.625 
Q 24.75 34.625 20.71875 30.859375 
Q 16.703125 27.09375 16.703125 20.515625 
Q 16.703125 13.921875 20.71875 10.15625 
Q 24.75 6.390625 31.78125 6.390625 
Q 38.8125 6.390625 42.859375 10.171875 
Q 46.921875 13.96875 46.921875 20.515625 
Q 46.921875 27.09375 42.890625 30.859375 
Q 38.875 34.625 31.78125 34.625 
z
M 21.921875 38.8125 
Q 15.578125 40.375 12.03125 44.71875 
Q 8.5 49.078125 8.5 55.328125 
Q 8.5 64.0625 14.71875 69.140625 
Q 20.953125 74.21875 31.78125 74.21875 
Q 42.671875 74.21875 48.875 69.140625 
Q 55.078125 64.0625 55.078125 55.328125 
Q 55.078125 49.078125 51.53125 44.71875 
Q 48 40.375 41.703125 38.8125 
Q 48.828125 37.15625 52.796875 32.3125 
Q 56.78125 27.484375 56.78125 20.515625 
Q 56.78125 9.90625 50.3125 4.234375 
Q 43.84375 -1.421875 31.78125 -1.421875 
Q 19.734375 -1.421875 13.25 4.234375 
Q 6.78125 9.90625 6.78125 20.515625 
Q 6.78125 27.484375 10.78125 32.3125 
Q 14.796875 37.15625 21.921875 38.8125 
z
M 18.3125 54.390625 
Q 18.3125 48.734375 21.84375 45.5625 
Q 25.390625 42.390625 31.78125 42.390625 
Q 38.140625 42.390625 41.71875 45.5625 
Q 45.3125 48.734375 45.3125 54.390625 
Q 45.3125 60.0625 41.71875 63.234375 
Q 38.140625 66.40625 31.78125 66.40625 
Q 25.390625 66.40625 21.84375 63.234375 
Q 18.3125 60.0625 18.3125 54.390625 
z
" id="DejaVuSans-56"/>
       </defs>
       <use xlink:href="#DejaVuSans-56"/>
       <use x="63.623047" xlink:href="#DejaVuSans-48"/>
       <use x="127.246094" xlink:href="#DejaVuSans-37"/>
      </g>
     </g>
    </g>
    <g id="xtick_9">
     <g id="line2d_9">
      <g>
       <use style="stroke:#000000;stroke-width:0.8;" x="341.65075" xlink:href="#m05e55a8514" y="266.112"/>
      </g>
     </g>
     <g id="text_9">
      <!-- 90% -->
      <g transform="translate(330.537469 280.710437)scale(0.1 -0.1)">
       <defs>
        <path d="M 10.984375 1.515625 
L 10.984375 10.5 
Q 14.703125 8.734375 18.5 7.8125 
Q 22.3125 6.890625 25.984375 6.890625 
Q 35.75 6.890625 40.890625 13.453125 
Q 46.046875 20.015625 46.78125 33.40625 
Q 43.953125 29.203125 39.59375 26.953125 
Q 35.25 24.703125 29.984375 24.703125 
Q 19.046875 24.703125 12.671875 31.3125 
Q 6.296875 37.9375 6.296875 49.421875 
Q 6.296875 60.640625 12.9375 67.421875 
Q 19.578125 74.21875 30.609375 74.21875 
Q 43.265625 74.21875 49.921875 64.515625 
Q 56.59375 54.828125 56.59375 36.375 
Q 56.59375 19.140625 48.40625 8.859375 
Q 40.234375 -1.421875 26.421875 -1.421875 
Q 22.703125 -1.421875 18.890625 -0.6875 
Q 15.09375 0.046875 10.984375 1.515625 
z
M 30.609375 32.421875 
Q 37.25 32.421875 41.125 36.953125 
Q 45.015625 41.5 45.015625 49.421875 
Q 45.015625 57.28125 41.125 61.84375 
Q 37.25 66.40625 30.609375 66.40625 
Q 23.96875 66.40625 20.09375 61.84375 
Q 16.21875 57.28125 16.21875 49.421875 
Q 16.21875 41.5 20.09375 36.953125 
Q 23.96875 32.421875 30.609375 32.421875 
z
" id="DejaVuSans-57"/>
       </defs>
       <use xlink:href="#DejaVuSans-57"/>
       <use x="63.623047" xlink:href="#DejaVuSans-48"/>
       <use x="127.246094" xlink:href="#DejaVuSans-37"/>
      </g>
     </g>
    </g>
    <g id="xtick_10">
     <g id="line2d_10">
      <g>
       <use style="stroke:#000000;stroke-width:0.8;" x="377.36275" xlink:href="#m05e55a8514" y="266.112"/>
      </g>
     </g>
     <g id="text_10">
      <!-- 100% -->
      <g transform="translate(363.068219 280.710437)scale(0.1 -0.1)">
       <use xlink:href="#DejaVuSans-49"/>
       <use x="63.623047" xlink:href="#DejaVuSans-48"/>
       <use x="127.246094" xlink:href="#DejaVuSans-48"/>
       <use x="190.869141" xlink:href="#DejaVuSans-37"/>
      </g>
     </g>
    </g>
    <g id="text_11">
     <!-- Output -->
     <g transform="translate(185.396406 300.467312)scale(0.18 -0.18)">
      <defs>
       <path d="M 39.40625 66.21875 
Q 28.65625 66.21875 22.328125 58.203125 
Q 16.015625 50.203125 16.015625 36.375 
Q 16.015625 22.609375 22.328125 14.59375 
Q 28.65625 6.59375 39.40625 6.59375 
Q 50.140625 6.59375 56.421875 14.59375 
Q 62.703125 22.609375 62.703125 36.375 
Q 62.703125 50.203125 56.421875 58.203125 
Q 50.140625 66.21875 39.40625 66.21875 
z
M 39.40625 74.21875 
Q 54.734375 74.21875 63.90625 63.9375 
Q 73.09375 53.65625 73.09375 36.375 
Q 73.09375 19.140625 63.90625 8.859375 
Q 54.734375 -1.421875 39.40625 -1.421875 
Q 24.03125 -1.421875 14.8125 8.828125 
Q 5.609375 19.09375 5.609375 36.375 
Q 5.609375 53.65625 14.8125 63.9375 
Q 24.03125 74.21875 39.40625 74.21875 
z
" id="DejaVuSans-79"/>
       <path d="M 8.5 21.578125 
L 8.5 54.6875 
L 17.484375 54.6875 
L 17.484375 21.921875 
Q 17.484375 14.15625 20.5 10.265625 
Q 23.53125 6.390625 29.59375 6.390625 
Q 36.859375 6.390625 41.078125 11.03125 
Q 45.3125 15.671875 45.3125 23.6875 
L 45.3125 54.6875 
L 54.296875 54.6875 
L 54.296875 0 
L 45.3125 0 
L 45.3125 8.40625 
Q 42.046875 3.421875 37.71875 1 
Q 33.40625 -1.421875 27.6875 -1.421875 
Q 18.265625 -1.421875 13.375 4.4375 
Q 8.5 10.296875 8.5 21.578125 
z
M 31.109375 56 
z
" id="DejaVuSans-117"/>
       <path d="M 18.3125 70.21875 
L 18.3125 54.6875 
L 36.8125 54.6875 
L 36.8125 47.703125 
L 18.3125 47.703125 
L 18.3125 18.015625 
Q 18.3125 11.328125 20.140625 9.421875 
Q 21.96875 7.515625 27.59375 7.515625 
L 36.8125 7.515625 
L 36.8125 0 
L 27.59375 0 
Q 17.1875 0 13.234375 3.875 
Q 9.28125 7.765625 9.28125 18.015625 
L 9.28125 47.703125 
L 2.6875 47.703125 
L 2.6875 54.6875 
L 9.28125 54.6875 
L 9.28125 70.21875 
z
" id="DejaVuSans-116"/>
       <path d="M 18.109375 8.203125 
L 18.109375 -20.796875 
L 9.078125 -20.796875 
L 9.078125 54.6875 
L 18.109375 54.6875 
L 18.109375 46.390625 
Q 20.953125 51.265625 25.265625 53.625 
Q 29.59375 56 35.59375 56 
Q 45.5625 56 51.78125 48.09375 
Q 58.015625 40.1875 58.015625 27.296875 
Q 58.015625 14.40625 51.78125 6.484375 
Q 45.5625 -1.421875 35.59375 -1.421875 
Q 29.59375 -1.421875 25.265625 0.953125 
Q 20.953125 3.328125 18.109375 8.203125 
z
M 48.6875 27.296875 
Q 48.6875 37.203125 44.609375 42.84375 
Q 40.53125 48.484375 33.40625 48.484375 
Q 26.265625 48.484375 22.1875 42.84375 
Q 18.109375 37.203125 18.109375 27.296875 
Q 18.109375 17.390625 22.1875 11.75 
Q 26.265625 6.109375 33.40625 6.109375 
Q 40.53125 6.109375 44.609375 11.75 
Q 48.6875 17.390625 48.6875 27.296875 
z
" id="DejaVuSans-112"/>
      </defs>
      <use xlink:href="#DejaVuSans-79"/>
      <use x="78.710938" xlink:href="#DejaVuSans-117"/>
      <use x="142.089844" xlink:href="#DejaVuSans-116"/>
      <use x="181.298828" xlink:href="#DejaVuSans-112"/>
      <use x="244.775391" xlink:href="#DejaVuSans-117"/>
      <use x="308.154297" xlink:href="#DejaVuSans-116"/>
     </g>
    </g>
   </g>
   <g id="matplotlib.axis_2">
    <g id="ytick_1">
     <g id="line2d_11">
      <defs>
       <path d="M 0 0 
L -3.5 0 
" id="m75b8361880" style="stroke:#000000;stroke-width:0.8;"/>
      </defs>
      <g>
       <use style="stroke:#000000;stroke-width:0.8;" x="38.09875" xlink:href="#m75b8361880" y="13.3056"/>
      </g>
     </g>
     <g id="text_12">
      <!-- 10% -->
      <g transform="translate(29.019062 31.732944)rotate(-90)scale(0.1 -0.1)">
       <use xlink:href="#DejaVuSans-49"/>
       <use x="63.623047" xlink:href="#DejaVuSans-48"/>
       <use x="127.246094" xlink:href="#DejaVuSans-37"/>
      </g>
     </g>
    </g>
    <g id="ytick_2">
     <g id="line2d_12">
      <g>
       <use style="stroke:#000000;stroke-width:0.8;" x="38.09875" xlink:href="#m75b8361880" y="39.9168"/>
      </g>
     </g>
     <g id="text_13">
      <!-- 20% -->
      <g transform="translate(29.019062 58.344144)rotate(-90)scale(0.1 -0.1)">
       <use xlink:href="#DejaVuSans-50"/>
       <use x="63.623047" xlink:href="#DejaVuSans-48"/>
       <use x="127.246094" xlink:href="#DejaVuSans-37"/>
      </g>
     </g>
    </g>
    <g id="ytick_3">
     <g id="line2d_13">
      <g>
       <use style="stroke:#000000;stroke-width:0.8;" x="38.09875" xlink:href="#m75b8361880" y="66.528"/>
      </g>
     </g>
     <g id="text_14">
      <!-- 30% -->
      <g transform="translate(29.019062 84.955344)rotate(-90)scale(0.1 -0.1)">
       <use xlink:href="#DejaVuSans-51"/>
       <use x="63.623047" xlink:href="#DejaVuSans-48"/>
       <use x="127.246094" xlink:href="#DejaVuSans-37"/>
      </g>
     </g>
    </g>
    <g id="ytick_4">
     <g id="line2d_14">
      <g>
       <use style="stroke:#000000;stroke-width:0.8;" x="38.09875" xlink:href="#m75b8361880" y="93.1392"/>
      </g>
     </g>
     <g id="text_15">
      <!-- 40% -->
      <g transform="translate(29.019062 111.566544)rotate(-90)scale(0.1 -0.1)">
       <use xlink:href="#DejaVuSans-52"/>
       <use x="63.623047" xlink:href="#DejaVuSans-48"/>
       <use x="127.246094" xlink:href="#DejaVuSans-37"/>
      </g>
     </g>
    </g>
    <g id="ytick_5">
     <g id="line2d_15">
      <g>
       <use style="stroke:#000000;stroke-width:0.8;" x="38.09875" xlink:href="#m75b8361880" y="119.7504"/>
      </g>
     </g>
     <g id="text_16">
      <!-- 50% -->
      <g transform="translate(29.019062 138.177744)rotate(-90)scale(0.1 -0.1)">
       <use xlink:href="#DejaVuSans-53"/>
       <use x="63.623047" xlink:href="#DejaVuSans-48"/>
       <use x="127.246094" xlink:href="#DejaVuSans-37"/>
      </g>
     </g>
    </g>
    <g id="ytick_6">
     <g id="line2d_16">
      <g>
       <use style="stroke:#000000;stroke-width:0.8;" x="38.09875" xlink:href="#m75b8361880" y="146.3616"/>
      </g>
     </g>
     <g id="text_17">
      <!-- 60% -->
      <g transform="translate(29.019062 164.788944)rotate(-90)scale(0.1 -0.1)">
       <use xlink:href="#DejaVuSans-54"/>
       <use x="63.623047" xlink:href="#DejaVuSans-48"/>
       <use x="127.246094" xlink:href="#DejaVuSans-37"/>
      </g>
     </g>
    </g>
    <g id="ytick_7">
     <g id="line2d_17">
      <g>
       <use style="stroke:#000000;stroke-width:0.8;" x="38.09875" xlink:href="#m75b8361880" y="172.9728"/>
      </g>
     </g>
     <g id="text_18">
      <!-- 70% -->
      <g transform="translate(29.019062 191.400144)rotate(-90)scale(0.1 -0.1)">
       <use xlink:href="#DejaVuSans-55"/>
       <use x="63.623047" xlink:href="#DejaVuSans-48"/>
       <use x="127.246094" xlink:href="#DejaVuSans-37"/>
      </g>
     </g>
    </g>
    <g id="ytick_8">
     <g id="line2d_18">
      <g>
       <use style="stroke:#000000;stroke-width:0.8;" x="38.09875" xlink:href="#m75b8361880" y="199.584"/>
      </g>
     </g>
     <g id="text_19">
      <!-- 80% -->
      <g transform="translate(29.019062 218.011344)rotate(-90)scale(0.1 -0.1)">
       <use xlink:href="#DejaVuSans-56"/>
       <use x="63.623047" xlink:href="#DejaVuSans-48"/>
       <use x="127.246094" xlink:href="#DejaVuSans-37"/>
      </g>
     </g>
    </g>
    <g id="ytick_9">
     <g id="line2d_19">
      <g>
       <use style="stroke:#000000;stroke-width:0.8;" x="38.09875" xlink:href="#m75b8361880" y="226.1952"/>
      </g>
     </g>
     <g id="text_20">
      <!-- 90% -->
      <g transform="translate(29.019062 244.622544)rotate(-90)scale(0.1 -0.1)">
       <use xlink:href="#DejaVuSans-57"/>
       <use x="63.623047" xlink:href="#DejaVuSans-48"/>
       <use x="127.246094" xlink:href="#DejaVuSans-37"/>
      </g>
     </g>
    </g>
    <g id="ytick_10">
     <g id="line2d_20">
      <g>
       <use style="stroke:#000000;stroke-width:0.8;" x="38.09875" xlink:href="#m75b8361880" y="252.8064"/>
      </g>
     </g>
     <g id="text_21">
      <!-- 100% -->
      <g transform="translate(29.019062 277.596244)rotate(-90)scale(0.1 -0.1)">
       <use xlink:href="#DejaVuSans-49"/>
       <use x="63.623047" xlink:href="#DejaVuSans-48"/>
       <use x="127.246094" xlink:href="#DejaVuSans-48"/>
       <use x="190.869141" xlink:href="#DejaVuSans-37"/>
      </g>
     </g>
    </g>
    <g id="text_22">
     <!-- Input -->
     <g transform="translate(13.677187 156.360375)rotate(-90)scale(0.18 -0.18)">
      <defs>
       <path d="M 9.8125 72.90625 
L 19.671875 72.90625 
L 19.671875 0 
L 9.8125 0 
z
" id="DejaVuSans-73"/>
       <path d="M 54.890625 33.015625 
L 54.890625 0 
L 45.90625 0 
L 45.90625 32.71875 
Q 45.90625 40.484375 42.875 44.328125 
Q 39.84375 48.1875 33.796875 48.1875 
Q 26.515625 48.1875 22.3125 43.546875 
Q 18.109375 38.921875 18.109375 30.90625 
L 18.109375 0 
L 9.078125 0 
L 9.078125 54.6875 
L 18.109375 54.6875 
L 18.109375 46.1875 
Q 21.34375 51.125 25.703125 53.5625 
Q 30.078125 56 35.796875 56 
Q 45.21875 56 50.046875 50.171875 
Q 54.890625 44.34375 54.890625 33.015625 
z
" id="DejaVuSans-110"/>
      </defs>
      <use xlink:href="#DejaVuSans-73"/>
      <use x="29.492188" xlink:href="#DejaVuSans-110"/>
      <use x="92.871094" xlink:href="#DejaVuSans-112"/>
      <use x="156.347656" xlink:href="#DejaVuSans-117"/>
      <use x="219.726562" xlink:href="#DejaVuSans-116"/>
     </g>
    </g>
   </g>
   <g id="text_23">
    <!-- 38 -->
    <g style="fill:#ffffff;" transform="translate(49.59225 16.064975)scale(0.1 -0.1)">
     <use xlink:href="#DejaVuSans-51"/>
     <use x="63.623047" xlink:href="#DejaVuSans-56"/>
    </g>
   </g>
   <g id="text_24">
    <!-- 9 -->
    <g style="fill:#262626;" transform="translate(88.4855 16.064975)scale(0.1 -0.1)">
     <use xlink:href="#DejaVuSans-57"/>
    </g>
   </g>
   <g id="text_25">
    <!-- 3 -->
    <g style="fill:#262626;" transform="translate(124.1975 16.064975)scale(0.1 -0.1)">
     <use xlink:href="#DejaVuSans-51"/>
    </g>
   </g>
   <g id="text_26">
    <!-- 0 -->
    <g style="fill:#262626;" transform="translate(159.9095 16.064975)scale(0.1 -0.1)">
     <use xlink:href="#DejaVuSans-48"/>
    </g>
   </g>
   <g id="text_27">
    <!-- 0 -->
    <g style="fill:#262626;" transform="translate(195.6215 16.064975)scale(0.1 -0.1)">
     <use xlink:href="#DejaVuSans-48"/>
    </g>
   </g>
   <g id="text_28">
    <!-- 0 -->
    <g style="fill:#262626;" transform="translate(231.3335 16.064975)scale(0.1 -0.1)">
     <use xlink:href="#DejaVuSans-48"/>
    </g>
   </g>
   <g id="text_29">
    <!-- 0 -->
    <g style="fill:#262626;" transform="translate(267.0455 16.064975)scale(0.1 -0.1)">
     <use xlink:href="#DejaVuSans-48"/>
    </g>
   </g>
   <g id="text_30">
    <!-- 0 -->
    <g style="fill:#262626;" transform="translate(302.7575 16.064975)scale(0.1 -0.1)">
     <use xlink:href="#DejaVuSans-48"/>
    </g>
   </g>
   <g id="text_31">
    <!-- 0 -->
    <g style="fill:#262626;" transform="translate(338.4695 16.064975)scale(0.1 -0.1)">
     <use xlink:href="#DejaVuSans-48"/>
    </g>
   </g>
   <g id="text_32">
    <!-- 0 -->
    <g style="fill:#262626;" transform="translate(374.1815 16.064975)scale(0.1 -0.1)">
     <use xlink:href="#DejaVuSans-48"/>
    </g>
   </g>
   <g id="text_33">
    <!-- 0 -->
    <g style="fill:#262626;" transform="translate(52.7735 42.676175)scale(0.1 -0.1)">
     <use xlink:href="#DejaVuSans-48"/>
    </g>
   </g>
   <g id="text_34">
    <!-- 50 -->
    <g style="fill:#ffffff;" transform="translate(85.30425 42.676175)scale(0.1 -0.1)">
     <use xlink:href="#DejaVuSans-53"/>
     <use x="63.623047" xlink:href="#DejaVuSans-48"/>
    </g>
   </g>
   <g id="text_35">
    <!-- 0 -->
    <g style="fill:#262626;" transform="translate(124.1975 42.676175)scale(0.1 -0.1)">
     <use xlink:href="#DejaVuSans-48"/>
    </g>
   </g>
   <g id="text_36">
    <!-- 0 -->
    <g style="fill:#262626;" transform="translate(159.9095 42.676175)scale(0.1 -0.1)">
     <use xlink:href="#DejaVuSans-48"/>
    </g>
   </g>
   <g id="text_37">
    <!-- 0 -->
    <g style="fill:#262626;" transform="translate(195.6215 42.676175)scale(0.1 -0.1)">
     <use xlink:href="#DejaVuSans-48"/>
    </g>
   </g>
   <g id="text_38">
    <!-- 0 -->
    <g style="fill:#262626;" transform="translate(231.3335 42.676175)scale(0.1 -0.1)">
     <use xlink:href="#DejaVuSans-48"/>
    </g>
   </g>
   <g id="text_39">
    <!-- 0 -->
    <g style="fill:#262626;" transform="translate(267.0455 42.676175)scale(0.1 -0.1)">
     <use xlink:href="#DejaVuSans-48"/>
    </g>
   </g>
   <g id="text_40">
    <!-- 0 -->
    <g style="fill:#262626;" transform="translate(302.7575 42.676175)scale(0.1 -0.1)">
     <use xlink:href="#DejaVuSans-48"/>
    </g>
   </g>
   <g id="text_41">
    <!-- 0 -->
    <g style="fill:#262626;" transform="translate(338.4695 42.676175)scale(0.1 -0.1)">
     <use xlink:href="#DejaVuSans-48"/>
    </g>
   </g>
   <g id="text_42">
    <!-- 0 -->
    <g style="fill:#262626;" transform="translate(374.1815 42.676175)scale(0.1 -0.1)">
     <use xlink:href="#DejaVuSans-48"/>
    </g>
   </g>
   <g id="text_43">
    <!-- 0 -->
    <g style="fill:#262626;" transform="translate(52.7735 69.287375)scale(0.1 -0.1)">
     <use xlink:href="#DejaVuSans-48"/>
    </g>
   </g>
   <g id="text_44">
    <!-- 45 -->
    <g style="fill:#ffffff;" transform="translate(85.30425 69.287375)scale(0.1 -0.1)">
     <use xlink:href="#DejaVuSans-52"/>
     <use x="63.623047" xlink:href="#DejaVuSans-53"/>
    </g>
   </g>
   <g id="text_45">
    <!-- 4 -->
    <g style="fill:#262626;" transform="translate(124.1975 69.287375)scale(0.1 -0.1)">
     <use xlink:href="#DejaVuSans-52"/>
    </g>
   </g>
   <g id="text_46">
    <!-- 0 -->
    <g style="fill:#262626;" transform="translate(159.9095 69.287375)scale(0.1 -0.1)">
     <use xlink:href="#DejaVuSans-48"/>
    </g>
   </g>
   <g id="text_47">
    <!-- 0 -->
    <g style="fill:#262626;" transform="translate(195.6215 69.287375)scale(0.1 -0.1)">
     <use xlink:href="#DejaVuSans-48"/>
    </g>
   </g>
   <g id="text_48">
    <!-- 0 -->
    <g style="fill:#262626;" transform="translate(231.3335 69.287375)scale(0.1 -0.1)">
     <use xlink:href="#DejaVuSans-48"/>
    </g>
   </g>
   <g id="text_49">
    <!-- 0 -->
    <g style="fill:#262626;" transform="translate(267.0455 69.287375)scale(0.1 -0.1)">
     <use xlink:href="#DejaVuSans-48"/>
    </g>
   </g>
   <g id="text_50">
    <!-- 0 -->
    <g style="fill:#262626;" transform="translate(302.7575 69.287375)scale(0.1 -0.1)">
     <use xlink:href="#DejaVuSans-48"/>
    </g>
   </g>
   <g id="text_51">
    <!-- 0 -->
    <g style="fill:#262626;" transform="translate(338.4695 69.287375)scale(0.1 -0.1)">
     <use xlink:href="#DejaVuSans-48"/>
    </g>
   </g>
   <g id="text_52">
    <!-- 1 -->
    <g style="fill:#262626;" transform="translate(374.1815 69.287375)scale(0.1 -0.1)">
     <use xlink:href="#DejaVuSans-49"/>
    </g>
   </g>
   <g id="text_53">
    <!-- 0 -->
    <g style="fill:#262626;" transform="translate(52.7735 95.898575)scale(0.1 -0.1)">
     <use xlink:href="#DejaVuSans-48"/>
    </g>
   </g>
   <g id="text_54">
    <!-- 25 -->
    <g style="fill:#ffffff;" transform="translate(85.30425 95.898575)scale(0.1 -0.1)">
     <use xlink:href="#DejaVuSans-50"/>
     <use x="63.623047" xlink:href="#DejaVuSans-53"/>
    </g>
   </g>
   <g id="text_55">
    <!-- 11 -->
    <g style="fill:#262626;" transform="translate(121.01625 95.898575)scale(0.1 -0.1)">
     <use xlink:href="#DejaVuSans-49"/>
     <use x="63.623047" xlink:href="#DejaVuSans-49"/>
    </g>
   </g>
   <g id="text_56">
    <!-- 4 -->
    <g style="fill:#262626;" transform="translate(159.9095 95.898575)scale(0.1 -0.1)">
     <use xlink:href="#DejaVuSans-52"/>
    </g>
   </g>
   <g id="text_57">
    <!-- 0 -->
    <g style="fill:#262626;" transform="translate(195.6215 95.898575)scale(0.1 -0.1)">
     <use xlink:href="#DejaVuSans-48"/>
    </g>
   </g>
   <g id="text_58">
    <!-- 0 -->
    <g style="fill:#262626;" transform="translate(231.3335 95.898575)scale(0.1 -0.1)">
     <use xlink:href="#DejaVuSans-48"/>
    </g>
   </g>
   <g id="text_59">
    <!-- 0 -->
    <g style="fill:#262626;" transform="translate(267.0455 95.898575)scale(0.1 -0.1)">
     <use xlink:href="#DejaVuSans-48"/>
    </g>
   </g>
   <g id="text_60">
    <!-- 0 -->
    <g style="fill:#262626;" transform="translate(302.7575 95.898575)scale(0.1 -0.1)">
     <use xlink:href="#DejaVuSans-48"/>
    </g>
   </g>
   <g id="text_61">
    <!-- 0 -->
    <g style="fill:#262626;" transform="translate(338.4695 95.898575)scale(0.1 -0.1)">
     <use xlink:href="#DejaVuSans-48"/>
    </g>
   </g>
   <g id="text_62">
    <!-- 10 -->
    <g style="fill:#262626;" transform="translate(371.00025 95.898575)scale(0.1 -0.1)">
     <use xlink:href="#DejaVuSans-49"/>
     <use x="63.623047" xlink:href="#DejaVuSans-48"/>
    </g>
   </g>
   <g id="text_63">
    <!-- 0 -->
    <g style="fill:#262626;" transform="translate(52.7735 122.509775)scale(0.1 -0.1)">
     <use xlink:href="#DejaVuSans-48"/>
    </g>
   </g>
   <g id="text_64">
    <!-- 0 -->
    <g style="fill:#262626;" transform="translate(88.4855 122.509775)scale(0.1 -0.1)">
     <use xlink:href="#DejaVuSans-48"/>
    </g>
   </g>
   <g id="text_65">
    <!-- 15 -->
    <g style="fill:#262626;" transform="translate(121.01625 122.509775)scale(0.1 -0.1)">
     <use xlink:href="#DejaVuSans-49"/>
     <use x="63.623047" xlink:href="#DejaVuSans-53"/>
    </g>
   </g>
   <g id="text_66">
    <!-- 1 -->
    <g style="fill:#262626;" transform="translate(159.9095 122.509775)scale(0.1 -0.1)">
     <use xlink:href="#DejaVuSans-49"/>
    </g>
   </g>
   <g id="text_67">
    <!-- 5 -->
    <g style="fill:#262626;" transform="translate(195.6215 122.509775)scale(0.1 -0.1)">
     <use xlink:href="#DejaVuSans-53"/>
    </g>
   </g>
   <g id="text_68">
    <!-- 10 -->
    <g style="fill:#262626;" transform="translate(228.15225 122.509775)scale(0.1 -0.1)">
     <use xlink:href="#DejaVuSans-49"/>
     <use x="63.623047" xlink:href="#DejaVuSans-48"/>
    </g>
   </g>
   <g id="text_69">
    <!-- 0 -->
    <g style="fill:#262626;" transform="translate(267.0455 122.509775)scale(0.1 -0.1)">
     <use xlink:href="#DejaVuSans-48"/>
    </g>
   </g>
   <g id="text_70">
    <!-- 0 -->
    <g style="fill:#262626;" transform="translate(302.7575 122.509775)scale(0.1 -0.1)">
     <use xlink:href="#DejaVuSans-48"/>
    </g>
   </g>
   <g id="text_71">
    <!-- 0 -->
    <g style="fill:#262626;" transform="translate(338.4695 122.509775)scale(0.1 -0.1)">
     <use xlink:href="#DejaVuSans-48"/>
    </g>
   </g>
   <g id="text_72">
    <!-- 19 -->
    <g style="fill:#262626;" transform="translate(371.00025 122.509775)scale(0.1 -0.1)">
     <use xlink:href="#DejaVuSans-49"/>
     <use x="63.623047" xlink:href="#DejaVuSans-57"/>
    </g>
   </g>
   <g id="text_73">
    <!-- 0 -->
    <g style="fill:#262626;" transform="translate(52.7735 149.120975)scale(0.1 -0.1)">
     <use xlink:href="#DejaVuSans-48"/>
    </g>
   </g>
   <g id="text_74">
    <!-- 0 -->
    <g style="fill:#262626;" transform="translate(88.4855 149.120975)scale(0.1 -0.1)">
     <use xlink:href="#DejaVuSans-48"/>
    </g>
   </g>
   <g id="text_75">
    <!-- 5 -->
    <g style="fill:#262626;" transform="translate(124.1975 149.120975)scale(0.1 -0.1)">
     <use xlink:href="#DejaVuSans-53"/>
    </g>
   </g>
   <g id="text_76">
    <!-- 1 -->
    <g style="fill:#262626;" transform="translate(159.9095 149.120975)scale(0.1 -0.1)">
     <use xlink:href="#DejaVuSans-49"/>
    </g>
   </g>
   <g id="text_77">
    <!-- 7 -->
    <g style="fill:#262626;" transform="translate(195.6215 149.120975)scale(0.1 -0.1)">
     <use xlink:href="#DejaVuSans-55"/>
    </g>
   </g>
   <g id="text_78">
    <!-- 13 -->
    <g style="fill:#262626;" transform="translate(228.15225 149.120975)scale(0.1 -0.1)">
     <use xlink:href="#DejaVuSans-49"/>
     <use x="63.623047" xlink:href="#DejaVuSans-51"/>
    </g>
   </g>
   <g id="text_79">
    <!-- 2 -->
    <g style="fill:#262626;" transform="translate(267.0455 149.120975)scale(0.1 -0.1)">
     <use xlink:href="#DejaVuSans-50"/>
    </g>
   </g>
   <g id="text_80">
    <!-- 2 -->
    <g style="fill:#262626;" transform="translate(302.7575 149.120975)scale(0.1 -0.1)">
     <use xlink:href="#DejaVuSans-50"/>
    </g>
   </g>
   <g id="text_81">
    <!-- 0 -->
    <g style="fill:#262626;" transform="translate(338.4695 149.120975)scale(0.1 -0.1)">
     <use xlink:href="#DejaVuSans-48"/>
    </g>
   </g>
   <g id="text_82">
    <!-- 20 -->
    <g style="fill:#262626;" transform="translate(371.00025 149.120975)scale(0.1 -0.1)">
     <use xlink:href="#DejaVuSans-50"/>
     <use x="63.623047" xlink:href="#DejaVuSans-48"/>
    </g>
   </g>
   <g id="text_83">
    <!-- 0 -->
    <g style="fill:#262626;" transform="translate(52.7735 175.732175)scale(0.1 -0.1)">
     <use xlink:href="#DejaVuSans-48"/>
    </g>
   </g>
   <g id="text_84">
    <!-- 0 -->
    <g style="fill:#262626;" transform="translate(88.4855 175.732175)scale(0.1 -0.1)">
     <use xlink:href="#DejaVuSans-48"/>
    </g>
   </g>
   <g id="text_85">
    <!-- 0 -->
    <g style="fill:#262626;" transform="translate(124.1975 175.732175)scale(0.1 -0.1)">
     <use xlink:href="#DejaVuSans-48"/>
    </g>
   </g>
   <g id="text_86">
    <!-- 0 -->
    <g style="fill:#262626;" transform="translate(159.9095 175.732175)scale(0.1 -0.1)">
     <use xlink:href="#DejaVuSans-48"/>
    </g>
   </g>
   <g id="text_87">
    <!-- 5 -->
    <g style="fill:#262626;" transform="translate(195.6215 175.732175)scale(0.1 -0.1)">
     <use xlink:href="#DejaVuSans-53"/>
    </g>
   </g>
   <g id="text_88">
    <!-- 12 -->
    <g style="fill:#262626;" transform="translate(228.15225 175.732175)scale(0.1 -0.1)">
     <use xlink:href="#DejaVuSans-49"/>
     <use x="63.623047" xlink:href="#DejaVuSans-50"/>
    </g>
   </g>
   <g id="text_89">
    <!-- 13 -->
    <g style="fill:#262626;" transform="translate(263.86425 175.732175)scale(0.1 -0.1)">
     <use xlink:href="#DejaVuSans-49"/>
     <use x="63.623047" xlink:href="#DejaVuSans-51"/>
    </g>
   </g>
   <g id="text_90">
    <!-- 4 -->
    <g style="fill:#262626;" transform="translate(302.7575 175.732175)scale(0.1 -0.1)">
     <use xlink:href="#DejaVuSans-52"/>
    </g>
   </g>
   <g id="text_91">
    <!-- 1 -->
    <g style="fill:#262626;" transform="translate(338.4695 175.732175)scale(0.1 -0.1)">
     <use xlink:href="#DejaVuSans-49"/>
    </g>
   </g>
   <g id="text_92">
    <!-- 15 -->
    <g style="fill:#262626;" transform="translate(371.00025 175.732175)scale(0.1 -0.1)">
     <use xlink:href="#DejaVuSans-49"/>
     <use x="63.623047" xlink:href="#DejaVuSans-53"/>
    </g>
   </g>
   <g id="text_93">
    <!-- 0 -->
    <g style="fill:#262626;" transform="translate(52.7735 202.343375)scale(0.1 -0.1)">
     <use xlink:href="#DejaVuSans-48"/>
    </g>
   </g>
   <g id="text_94">
    <!-- 0 -->
    <g style="fill:#262626;" transform="translate(88.4855 202.343375)scale(0.1 -0.1)">
     <use xlink:href="#DejaVuSans-48"/>
    </g>
   </g>
   <g id="text_95">
    <!-- 0 -->
    <g style="fill:#262626;" transform="translate(124.1975 202.343375)scale(0.1 -0.1)">
     <use xlink:href="#DejaVuSans-48"/>
    </g>
   </g>
   <g id="text_96">
    <!-- 0 -->
    <g style="fill:#262626;" transform="translate(159.9095 202.343375)scale(0.1 -0.1)">
     <use xlink:href="#DejaVuSans-48"/>
    </g>
   </g>
   <g id="text_97">
    <!-- 1 -->
    <g style="fill:#262626;" transform="translate(195.6215 202.343375)scale(0.1 -0.1)">
     <use xlink:href="#DejaVuSans-49"/>
    </g>
   </g>
   <g id="text_98">
    <!-- 2 -->
    <g style="fill:#262626;" transform="translate(231.3335 202.343375)scale(0.1 -0.1)">
     <use xlink:href="#DejaVuSans-50"/>
    </g>
   </g>
   <g id="text_99">
    <!-- 10 -->
    <g style="fill:#262626;" transform="translate(263.86425 202.343375)scale(0.1 -0.1)">
     <use xlink:href="#DejaVuSans-49"/>
     <use x="63.623047" xlink:href="#DejaVuSans-48"/>
    </g>
   </g>
   <g id="text_100">
    <!-- 26 -->
    <g style="fill:#ffffff;" transform="translate(299.57625 202.343375)scale(0.1 -0.1)">
     <use xlink:href="#DejaVuSans-50"/>
     <use x="63.623047" xlink:href="#DejaVuSans-54"/>
    </g>
   </g>
   <g id="text_101">
    <!-- 9 -->
    <g style="fill:#262626;" transform="translate(338.4695 202.343375)scale(0.1 -0.1)">
     <use xlink:href="#DejaVuSans-57"/>
    </g>
   </g>
   <g id="text_102">
    <!-- 2 -->
    <g style="fill:#262626;" transform="translate(374.1815 202.343375)scale(0.1 -0.1)">
     <use xlink:href="#DejaVuSans-50"/>
    </g>
   </g>
   <g id="text_103">
    <!-- 0 -->
    <g style="fill:#262626;" transform="translate(52.7735 228.954575)scale(0.1 -0.1)">
     <use xlink:href="#DejaVuSans-48"/>
    </g>
   </g>
   <g id="text_104">
    <!-- 0 -->
    <g style="fill:#262626;" transform="translate(88.4855 228.954575)scale(0.1 -0.1)">
     <use xlink:href="#DejaVuSans-48"/>
    </g>
   </g>
   <g id="text_105">
    <!-- 0 -->
    <g style="fill:#262626;" transform="translate(124.1975 228.954575)scale(0.1 -0.1)">
     <use xlink:href="#DejaVuSans-48"/>
    </g>
   </g>
   <g id="text_106">
    <!-- 0 -->
    <g style="fill:#262626;" transform="translate(159.9095 228.954575)scale(0.1 -0.1)">
     <use xlink:href="#DejaVuSans-48"/>
    </g>
   </g>
   <g id="text_107">
    <!-- 1 -->
    <g style="fill:#262626;" transform="translate(195.6215 228.954575)scale(0.1 -0.1)">
     <use xlink:href="#DejaVuSans-49"/>
    </g>
   </g>
   <g id="text_108">
    <!-- 1 -->
    <g style="fill:#262626;" transform="translate(231.3335 228.954575)scale(0.1 -0.1)">
     <use xlink:href="#DejaVuSans-49"/>
    </g>
   </g>
   <g id="text_109">
    <!-- 6 -->
    <g style="fill:#262626;" transform="translate(267.0455 228.954575)scale(0.1 -0.1)">
     <use xlink:href="#DejaVuSans-54"/>
    </g>
   </g>
   <g id="text_110">
    <!-- 8 -->
    <g style="fill:#262626;" transform="translate(302.7575 228.954575)scale(0.1 -0.1)">
     <use xlink:href="#DejaVuSans-56"/>
    </g>
   </g>
   <g id="text_111">
    <!-- 23 -->
    <g style="fill:#262626;" transform="translate(335.28825 228.954575)scale(0.1 -0.1)">
     <use xlink:href="#DejaVuSans-50"/>
     <use x="63.623047" xlink:href="#DejaVuSans-51"/>
    </g>
   </g>
   <g id="text_112">
    <!-- 11 -->
    <g style="fill:#262626;" transform="translate(371.00025 228.954575)scale(0.1 -0.1)">
     <use xlink:href="#DejaVuSans-49"/>
     <use x="63.623047" xlink:href="#DejaVuSans-49"/>
    </g>
   </g>
   <g id="text_113">
    <!-- 0 -->
    <g style="fill:#262626;" transform="translate(52.7735 255.565775)scale(0.1 -0.1)">
     <use xlink:href="#DejaVuSans-48"/>
    </g>
   </g>
   <g id="text_114">
    <!-- 0 -->
    <g style="fill:#262626;" transform="translate(88.4855 255.565775)scale(0.1 -0.1)">
     <use xlink:href="#DejaVuSans-48"/>
    </g>
   </g>
   <g id="text_115">
    <!-- 0 -->
    <g style="fill:#262626;" transform="translate(124.1975 255.565775)scale(0.1 -0.1)">
     <use xlink:href="#DejaVuSans-48"/>
    </g>
   </g>
   <g id="text_116">
    <!-- 0 -->
    <g style="fill:#262626;" transform="translate(159.9095 255.565775)scale(0.1 -0.1)">
     <use xlink:href="#DejaVuSans-48"/>
    </g>
   </g>
   <g id="text_117">
    <!-- 0 -->
    <g style="fill:#262626;" transform="translate(195.6215 255.565775)scale(0.1 -0.1)">
     <use xlink:href="#DejaVuSans-48"/>
    </g>
   </g>
   <g id="text_118">
    <!-- 1 -->
    <g style="fill:#262626;" transform="translate(231.3335 255.565775)scale(0.1 -0.1)">
     <use xlink:href="#DejaVuSans-49"/>
    </g>
   </g>
   <g id="text_119">
    <!-- 5 -->
    <g style="fill:#262626;" transform="translate(267.0455 255.565775)scale(0.1 -0.1)">
     <use xlink:href="#DejaVuSans-53"/>
    </g>
   </g>
   <g id="text_120">
    <!-- 1 -->
    <g style="fill:#262626;" transform="translate(302.7575 255.565775)scale(0.1 -0.1)">
     <use xlink:href="#DejaVuSans-49"/>
    </g>
   </g>
   <g id="text_121">
    <!-- 1 -->
    <g style="fill:#262626;" transform="translate(338.4695 255.565775)scale(0.1 -0.1)">
     <use xlink:href="#DejaVuSans-49"/>
    </g>
   </g>
   <g id="text_122">
    <!-- 42 -->
    <g style="fill:#ffffff;" transform="translate(371.00025 255.565775)scale(0.1 -0.1)">
     <use xlink:href="#DejaVuSans-52"/>
     <use x="63.623047" xlink:href="#DejaVuSans-50"/>
    </g>
   </g>
  </g>
 </g>
 <defs>
  <clipPath id="pbde0430f26">
   <rect height="266.112" width="357.12" x="38.09875" y="-0"/>
  </clipPath>
 </defs>
</svg>
