<svg id="contents" xmlns="http://www.w3.org/2000/svg" viewBox="0 0 259.75 233.79"><title>34256 [更新済み]</title><path d="M400.11,483.59c-1.43-.55-2.8-1.17-4.26-1.84a54.53,54.53,0,0,0-47.2,0c-4.75,2.18-8.5,3.9-16.84,3.9s-12.09-1.72-16.84-3.9a54.52,54.52,0,0,0-47.2,0c-4.75,2.18-8.5,3.9-16.84,3.9s-12.09-1.72-16.84-3.9A53.47,53.47,0,0,0,222,477.47l-4.7-26.26H181.72L224.92,685H398.27l43.2-233.79H405.91ZM370.25,650.25H252.94L225.23,495.54l2.11,1a54.52,54.52,0,0,0,47.19,0c4.75-2.18,8.5-3.9,16.84-3.9s12.09,1.72,16.84,3.9a54.52,54.52,0,0,0,47.2,0c4.75-2.18,8.5-3.9,16.84-3.9s12.09,1.72,16.84,3.9a64.3,64.3,0,0,0,8.12,3.25Z" transform="translate(-181.72 -451.21)"/></svg>