<?xml version="1.0" encoding="utf-8" standalone="no"?>
<!DOCTYPE svg PUBLIC "-//W3C//DTD SVG 1.1//EN"
  "http://www.w3.org/Graphics/SVG/1.1/DTD/svg11.dtd">
<!-- Created with matplotlib (https://matplotlib.org/) -->
<svg height="498.96pt" version="1.1" viewBox="0 0 892.8 498.96" width="892.8pt" xmlns="http://www.w3.org/2000/svg" xmlns:xlink="http://www.w3.org/1999/xlink">
 <metadata>
  <rdf:RDF xmlns:cc="http://creativecommons.org/ns#" xmlns:dc="http://purl.org/dc/elements/1.1/" xmlns:rdf="http://www.w3.org/1999/02/22-rdf-syntax-ns#">
   <cc:Work>
    <dc:type rdf:resource="http://purl.org/dc/dcmitype/StillImage"/>
    <dc:date>2022-01-31T17:58:05.822694</dc:date>
    <dc:format>image/svg+xml</dc:format>
    <dc:creator>
     <cc:Agent>
      <dc:title>Matplotlib v3.3.4, https://matplotlib.org/</dc:title>
     </cc:Agent>
    </dc:creator>
   </cc:Work>
  </rdf:RDF>
 </metadata>
 <defs>
  <style type="text/css">*{stroke-linecap:butt;stroke-linejoin:round;}</style>
 </defs>
 <g id="figure_1">
  <g id="patch_1">
   <path d="M 0 498.96 
L 892.8 498.96 
L 892.8 0 
L 0 0 
z
" style="fill:#ffffff;"/>
  </g>
  <g id="axes_1">
   <g id="patch_2">
    <path d="M 0 498.96 
L 892.8 498.96 
L 892.8 0 
L 0 0 
z
" style="fill:#ffffff;"/>
   </g>
   <g id="matplotlib.axis_1">
    <g id="xtick_1"/>
    <g id="xtick_2"/>
    <g id="xtick_3"/>
    <g id="xtick_4"/>
    <g id="xtick_5"/>
    <g id="xtick_6"/>
    <g id="xtick_7"/>
   </g>
   <g id="matplotlib.axis_2">
    <g id="ytick_1"/>
    <g id="ytick_2"/>
    <g id="ytick_3"/>
    <g id="ytick_4"/>
    <g id="ytick_5"/>
    <g id="ytick_6"/>
   </g>
   <g id="line2d_1">
    <path clip-path="url(#p4c2b09f767)" d="M 40.581818 22.68 
L 54.338367 476.28 
L 68.094915 136.63828 
L 81.851464 350.535765 
L 95.608012 236.690718 
L 109.364561 232.075139 
L 123.121109 262.610525 
L 136.877658 205.920734 
L 150.634206 283.518579 
L 164.390755 224.535601 
L 178.147304 274.303045 
L 191.903852 253.635986 
L 205.660401 230.705786 
L 219.416949 265.543751 
L 233.173498 236.640513 
L 246.930046 291.931944 
L 260.686595 269.746845 
L 274.443143 273.931496 
L 288.199692 269.943521 
L 301.95624 248.484716 
L 315.712789 282.492791 
L 329.469337 254.887813 
L 343.225886 276.297572 
L 356.982435 259.022704 
L 370.738983 258.319142 
L 384.495532 278.335881 
L 398.25208 242.905601 
L 412.008629 276.252722 
L 425.765177 269.024364 
L 439.521726 267.957052 
L 453.278274 275.992263 
L 467.034823 255.442893 
L 480.791371 262.858478 
L 494.54792 259.698788 
L 508.304468 279.445436 
L 522.061017 270.636828 
L 535.817565 270.115324 
L 549.574114 268.315524 
L 563.330663 252.864955 
L 577.087211 276.217484 
L 590.84376 259.467493 
L 604.600308 267.606589 
L 618.356857 267.712608 
L 632.113405 260.982312 
L 645.869954 277.936599 
L 659.626502 251.874253 
L 673.383051 265.52174 
L 687.139599 266.584356 
L 700.896148 262.402495 
L 714.652696 273.183556 
L 728.409245 256.106863 
L 742.165794 266.018084 
L 755.922342 261.29976 
L 769.678891 267.32345 
L 783.435439 271.18327 
L 797.191988 261.475672 
L 810.948536 269.889652 
L 824.705085 262.427328 
L 838.461633 268.057863 
L 852.218182 261.039986 
" style="fill:none;stroke:#ff0000;stroke-linecap:square;stroke-width:1.5;"/>
   </g>
   <g id="patch_3">
    <path d="M 0 498.96 
L 0 -0 
" style="fill:none;stroke:#000000;stroke-linecap:square;stroke-linejoin:miter;stroke-width:0.8;"/>
   </g>
   <g id="patch_4">
    <path d="M 892.8 498.96 
L 892.8 -0 
" style="fill:none;stroke:#000000;stroke-linecap:square;stroke-linejoin:miter;stroke-width:0.8;"/>
   </g>
   <g id="patch_5">
    <path d="M 0 498.96 
L 892.8 498.96 
" style="fill:none;stroke:#000000;stroke-linecap:square;stroke-linejoin:miter;stroke-width:0.8;"/>
   </g>
   <g id="patch_6">
    <path d="M 0 0 
L 892.8 0 
" style="fill:none;stroke:#000000;stroke-linecap:square;stroke-linejoin:miter;stroke-width:0.8;"/>
   </g>
  </g>
 </g>
 <defs>
  <clipPath id="p4c2b09f767">
   <rect height="498.96" width="892.8" x="0" y="0"/>
  </clipPath>
 </defs>
</svg>
