<?xml version="1.0" encoding="utf-8" standalone="no"?>
<!DOCTYPE svg PUBLIC "-//W3C//DTD SVG 1.1//EN"
  "http://www.w3.org/Graphics/SVG/1.1/DTD/svg11.dtd">
<svg xmlns:xlink="http://www.w3.org/1999/xlink" width="986.85375pt" height="560.28625pt" viewBox="0 0 986.85375 560.28625" xmlns="http://www.w3.org/2000/svg" version="1.1">
 <metadata>
  <rdf:RDF xmlns:dc="http://purl.org/dc/elements/1.1/" xmlns:cc="http://creativecommons.org/ns#" xmlns:rdf="http://www.w3.org/1999/02/22-rdf-syntax-ns#">
   <cc:Work>
    <dc:type rdf:resource="http://purl.org/dc/dcmitype/StillImage"/>
    <dc:date>2024-06-22T13:41:37.391101</dc:date>
    <dc:format>image/svg+xml</dc:format>
    <dc:creator>
     <cc:Agent>
      <dc:title>Matplotlib v3.8.0, https://matplotlib.org/</dc:title>
     </cc:Agent>
    </dc:creator>
   </cc:Work>
  </rdf:RDF>
 </metadata>
 <defs>
  <style type="text/css">*{stroke-linejoin: round; stroke-linecap: butt}</style>
 </defs>
 <g id="figure_1">
  <g id="patch_1">
   <path d="M 0 560.28625 
L 986.85375 560.28625 
L 986.85375 0 
L 0 0 
z
" style="fill: #ffffff"/>
  </g>
  <g id="axes_1">
   <g id="patch_2">
    <path d="M 94.05375 498.96 
L 986.85375 498.96 
L 986.85375 0 
L 94.05375 0 
z
" style="fill: #ffffff"/>
   </g>
   <g id="matplotlib.axis_1">
    <g id="xtick_1">
     <g id="line2d_1">
      <defs>
       <path id="m5cbe835939" d="M 0 0 
L 0 3.5 
" style="stroke: #000000; stroke-width: 0.8"/>
      </defs>
      <g>
       <use xlink:href="#m5cbe835939" x="134.635568" y="498.96" style="stroke: #000000; stroke-width: 0.8"/>
      </g>
     </g>
     <g id="text_1">
      <!-- 0 -->
      <g transform="translate(126.364318 525.715937) scale(0.26 -0.26)">
       <defs>
        <path id="DejaVuSans-30" d="M 2034 4250 
Q 1547 4250 1301 3770 
Q 1056 3291 1056 2328 
Q 1056 1369 1301 889 
Q 1547 409 2034 409 
Q 2525 409 2770 889 
Q 3016 1369 3016 2328 
Q 3016 3291 2770 3770 
Q 2525 4250 2034 4250 
z
M 2034 4750 
Q 2819 4750 3233 4129 
Q 3647 3509 3647 2328 
Q 3647 1150 3233 529 
Q 2819 -91 2034 -91 
Q 1250 -91 836 529 
Q 422 1150 422 2328 
Q 422 3509 836 4129 
Q 1250 4750 2034 4750 
z
" transform="scale(0.015625)"/>
       </defs>
       <use xlink:href="#DejaVuSans-30"/>
      </g>
     </g>
    </g>
    <g id="xtick_2">
     <g id="line2d_2">
      <g>
       <use xlink:href="#m5cbe835939" x="297.288146" y="498.96" style="stroke: #000000; stroke-width: 0.8"/>
      </g>
     </g>
     <g id="text_2">
      <!-- 100 -->
      <g transform="translate(272.474396 525.715937) scale(0.26 -0.26)">
       <defs>
        <path id="DejaVuSans-31" d="M 794 531 
L 1825 531 
L 1825 4091 
L 703 3866 
L 703 4441 
L 1819 4666 
L 2450 4666 
L 2450 531 
L 3481 531 
L 3481 0 
L 794 0 
L 794 531 
z
" transform="scale(0.015625)"/>
       </defs>
       <use xlink:href="#DejaVuSans-31"/>
       <use xlink:href="#DejaVuSans-30" x="63.623047"/>
       <use xlink:href="#DejaVuSans-30" x="127.246094"/>
      </g>
     </g>
    </g>
    <g id="xtick_3">
     <g id="line2d_3">
      <g>
       <use xlink:href="#m5cbe835939" x="459.940724" y="498.96" style="stroke: #000000; stroke-width: 0.8"/>
      </g>
     </g>
     <g id="text_3">
      <!-- 200 -->
      <g transform="translate(435.126974 525.715937) scale(0.26 -0.26)">
       <defs>
        <path id="DejaVuSans-32" d="M 1228 531 
L 3431 531 
L 3431 0 
L 469 0 
L 469 531 
Q 828 903 1448 1529 
Q 2069 2156 2228 2338 
Q 2531 2678 2651 2914 
Q 2772 3150 2772 3378 
Q 2772 3750 2511 3984 
Q 2250 4219 1831 4219 
Q 1534 4219 1204 4116 
Q 875 4013 500 3803 
L 500 4441 
Q 881 4594 1212 4672 
Q 1544 4750 1819 4750 
Q 2544 4750 2975 4387 
Q 3406 4025 3406 3419 
Q 3406 3131 3298 2873 
Q 3191 2616 2906 2266 
Q 2828 2175 2409 1742 
Q 1991 1309 1228 531 
z
" transform="scale(0.015625)"/>
       </defs>
       <use xlink:href="#DejaVuSans-32"/>
       <use xlink:href="#DejaVuSans-30" x="63.623047"/>
       <use xlink:href="#DejaVuSans-30" x="127.246094"/>
      </g>
     </g>
    </g>
    <g id="xtick_4">
     <g id="line2d_4">
      <g>
       <use xlink:href="#m5cbe835939" x="622.593302" y="498.96" style="stroke: #000000; stroke-width: 0.8"/>
      </g>
     </g>
     <g id="text_4">
      <!-- 300 -->
      <g transform="translate(597.779552 525.715937) scale(0.26 -0.26)">
       <defs>
        <path id="DejaVuSans-33" d="M 2597 2516 
Q 3050 2419 3304 2112 
Q 3559 1806 3559 1356 
Q 3559 666 3084 287 
Q 2609 -91 1734 -91 
Q 1441 -91 1130 -33 
Q 819 25 488 141 
L 488 750 
Q 750 597 1062 519 
Q 1375 441 1716 441 
Q 2309 441 2620 675 
Q 2931 909 2931 1356 
Q 2931 1769 2642 2001 
Q 2353 2234 1838 2234 
L 1294 2234 
L 1294 2753 
L 1863 2753 
Q 2328 2753 2575 2939 
Q 2822 3125 2822 3475 
Q 2822 3834 2567 4026 
Q 2313 4219 1838 4219 
Q 1578 4219 1281 4162 
Q 984 4106 628 3988 
L 628 4550 
Q 988 4650 1302 4700 
Q 1616 4750 1894 4750 
Q 2613 4750 3031 4423 
Q 3450 4097 3450 3541 
Q 3450 3153 3228 2886 
Q 3006 2619 2597 2516 
z
" transform="scale(0.015625)"/>
       </defs>
       <use xlink:href="#DejaVuSans-33"/>
       <use xlink:href="#DejaVuSans-30" x="63.623047"/>
       <use xlink:href="#DejaVuSans-30" x="127.246094"/>
      </g>
     </g>
    </g>
    <g id="xtick_5">
     <g id="line2d_5">
      <g>
       <use xlink:href="#m5cbe835939" x="785.24588" y="498.96" style="stroke: #000000; stroke-width: 0.8"/>
      </g>
     </g>
     <g id="text_5">
      <!-- 400 -->
      <g transform="translate(760.43213 525.715937) scale(0.26 -0.26)">
       <defs>
        <path id="DejaVuSans-34" d="M 2419 4116 
L 825 1625 
L 2419 1625 
L 2419 4116 
z
M 2253 4666 
L 3047 4666 
L 3047 1625 
L 3713 1625 
L 3713 1100 
L 3047 1100 
L 3047 0 
L 2419 0 
L 2419 1100 
L 313 1100 
L 313 1709 
L 2253 4666 
z
" transform="scale(0.015625)"/>
       </defs>
       <use xlink:href="#DejaVuSans-34"/>
       <use xlink:href="#DejaVuSans-30" x="63.623047"/>
       <use xlink:href="#DejaVuSans-30" x="127.246094"/>
      </g>
     </g>
    </g>
    <g id="xtick_6">
     <g id="line2d_6">
      <g>
       <use xlink:href="#m5cbe835939" x="947.898458" y="498.96" style="stroke: #000000; stroke-width: 0.8"/>
      </g>
     </g>
     <g id="text_6">
      <!-- 500 -->
      <g transform="translate(923.084708 525.715937) scale(0.26 -0.26)">
       <defs>
        <path id="DejaVuSans-35" d="M 691 4666 
L 3169 4666 
L 3169 4134 
L 1269 4134 
L 1269 2991 
Q 1406 3038 1543 3061 
Q 1681 3084 1819 3084 
Q 2600 3084 3056 2656 
Q 3513 2228 3513 1497 
Q 3513 744 3044 326 
Q 2575 -91 1722 -91 
Q 1428 -91 1123 -41 
Q 819 9 494 109 
L 494 744 
Q 775 591 1075 516 
Q 1375 441 1709 441 
Q 2250 441 2565 725 
Q 2881 1009 2881 1497 
Q 2881 1984 2565 2268 
Q 2250 2553 1709 2553 
Q 1456 2553 1204 2497 
Q 953 2441 691 2322 
L 691 4666 
z
" transform="scale(0.015625)"/>
       </defs>
       <use xlink:href="#DejaVuSans-35"/>
       <use xlink:href="#DejaVuSans-30" x="63.623047"/>
       <use xlink:href="#DejaVuSans-30" x="127.246094"/>
      </g>
     </g>
    </g>
    <g id="text_7">
     <!-- Epoch -->
     <g transform="translate(500.645312 554.879063) scale(0.26 -0.26)">
      <defs>
       <path id="DejaVuSans-45" d="M 628 4666 
L 3578 4666 
L 3578 4134 
L 1259 4134 
L 1259 2753 
L 3481 2753 
L 3481 2222 
L 1259 2222 
L 1259 531 
L 3634 531 
L 3634 0 
L 628 0 
L 628 4666 
z
" transform="scale(0.015625)"/>
       <path id="DejaVuSans-70" d="M 1159 525 
L 1159 -1331 
L 581 -1331 
L 581 3500 
L 1159 3500 
L 1159 2969 
Q 1341 3281 1617 3432 
Q 1894 3584 2278 3584 
Q 2916 3584 3314 3078 
Q 3713 2572 3713 1747 
Q 3713 922 3314 415 
Q 2916 -91 2278 -91 
Q 1894 -91 1617 61 
Q 1341 213 1159 525 
z
M 3116 1747 
Q 3116 2381 2855 2742 
Q 2594 3103 2138 3103 
Q 1681 3103 1420 2742 
Q 1159 2381 1159 1747 
Q 1159 1113 1420 752 
Q 1681 391 2138 391 
Q 2594 391 2855 752 
Q 3116 1113 3116 1747 
z
" transform="scale(0.015625)"/>
       <path id="DejaVuSans-6f" d="M 1959 3097 
Q 1497 3097 1228 2736 
Q 959 2375 959 1747 
Q 959 1119 1226 758 
Q 1494 397 1959 397 
Q 2419 397 2687 759 
Q 2956 1122 2956 1747 
Q 2956 2369 2687 2733 
Q 2419 3097 1959 3097 
z
M 1959 3584 
Q 2709 3584 3137 3096 
Q 3566 2609 3566 1747 
Q 3566 888 3137 398 
Q 2709 -91 1959 -91 
Q 1206 -91 779 398 
Q 353 888 353 1747 
Q 353 2609 779 3096 
Q 1206 3584 1959 3584 
z
" transform="scale(0.015625)"/>
       <path id="DejaVuSans-63" d="M 3122 3366 
L 3122 2828 
Q 2878 2963 2633 3030 
Q 2388 3097 2138 3097 
Q 1578 3097 1268 2742 
Q 959 2388 959 1747 
Q 959 1106 1268 751 
Q 1578 397 2138 397 
Q 2388 397 2633 464 
Q 2878 531 3122 666 
L 3122 134 
Q 2881 22 2623 -34 
Q 2366 -91 2075 -91 
Q 1284 -91 818 406 
Q 353 903 353 1747 
Q 353 2603 823 3093 
Q 1294 3584 2113 3584 
Q 2378 3584 2631 3529 
Q 2884 3475 3122 3366 
z
" transform="scale(0.015625)"/>
       <path id="DejaVuSans-68" d="M 3513 2113 
L 3513 0 
L 2938 0 
L 2938 2094 
Q 2938 2591 2744 2837 
Q 2550 3084 2163 3084 
Q 1697 3084 1428 2787 
Q 1159 2491 1159 1978 
L 1159 0 
L 581 0 
L 581 4863 
L 1159 4863 
L 1159 2956 
Q 1366 3272 1645 3428 
Q 1925 3584 2291 3584 
Q 2894 3584 3203 3211 
Q 3513 2838 3513 2113 
z
" transform="scale(0.015625)"/>
      </defs>
      <use xlink:href="#DejaVuSans-45"/>
      <use xlink:href="#DejaVuSans-70" x="63.183594"/>
      <use xlink:href="#DejaVuSans-6f" x="126.660156"/>
      <use xlink:href="#DejaVuSans-63" x="187.841797"/>
      <use xlink:href="#DejaVuSans-68" x="242.822266"/>
     </g>
    </g>
   </g>
   <g id="matplotlib.axis_2">
    <g id="ytick_1">
     <g id="line2d_7">
      <defs>
       <path id="m3fa01aaf70" d="M 0 0 
L -3.5 0 
" style="stroke: #000000; stroke-width: 0.8"/>
      </defs>
      <g>
       <use xlink:href="#m3fa01aaf70" x="94.05375" y="438.062971" style="stroke: #000000; stroke-width: 0.8"/>
      </g>
     </g>
     <g id="text_8">
      <!-- 0.40 -->
      <g transform="translate(29.163125 447.940939) scale(0.26 -0.26)">
       <defs>
        <path id="DejaVuSans-2e" d="M 684 794 
L 1344 794 
L 1344 0 
L 684 0 
L 684 794 
z
" transform="scale(0.015625)"/>
       </defs>
       <use xlink:href="#DejaVuSans-30"/>
       <use xlink:href="#DejaVuSans-2e" x="63.623047"/>
       <use xlink:href="#DejaVuSans-34" x="95.410156"/>
       <use xlink:href="#DejaVuSans-30" x="159.033203"/>
      </g>
     </g>
    </g>
    <g id="ytick_2">
     <g id="line2d_8">
      <g>
       <use xlink:href="#m3fa01aaf70" x="94.05375" y="368.523347" style="stroke: #000000; stroke-width: 0.8"/>
      </g>
     </g>
     <g id="text_9">
      <!-- 0.45 -->
      <g transform="translate(29.163125 378.401316) scale(0.26 -0.26)">
       <use xlink:href="#DejaVuSans-30"/>
       <use xlink:href="#DejaVuSans-2e" x="63.623047"/>
       <use xlink:href="#DejaVuSans-34" x="95.410156"/>
       <use xlink:href="#DejaVuSans-35" x="159.033203"/>
      </g>
     </g>
    </g>
    <g id="ytick_3">
     <g id="line2d_9">
      <g>
       <use xlink:href="#m3fa01aaf70" x="94.05375" y="298.983724" style="stroke: #000000; stroke-width: 0.8"/>
      </g>
     </g>
     <g id="text_10">
      <!-- 0.50 -->
      <g transform="translate(29.163125 308.861693) scale(0.26 -0.26)">
       <use xlink:href="#DejaVuSans-30"/>
       <use xlink:href="#DejaVuSans-2e" x="63.623047"/>
       <use xlink:href="#DejaVuSans-35" x="95.410156"/>
       <use xlink:href="#DejaVuSans-30" x="159.033203"/>
      </g>
     </g>
    </g>
    <g id="ytick_4">
     <g id="line2d_10">
      <g>
       <use xlink:href="#m3fa01aaf70" x="94.05375" y="229.444101" style="stroke: #000000; stroke-width: 0.8"/>
      </g>
     </g>
     <g id="text_11">
      <!-- 0.55 -->
      <g transform="translate(29.163125 239.322069) scale(0.26 -0.26)">
       <use xlink:href="#DejaVuSans-30"/>
       <use xlink:href="#DejaVuSans-2e" x="63.623047"/>
       <use xlink:href="#DejaVuSans-35" x="95.410156"/>
       <use xlink:href="#DejaVuSans-35" x="159.033203"/>
      </g>
     </g>
    </g>
    <g id="ytick_5">
     <g id="line2d_11">
      <g>
       <use xlink:href="#m3fa01aaf70" x="94.05375" y="159.904477" style="stroke: #000000; stroke-width: 0.8"/>
      </g>
     </g>
     <g id="text_12">
      <!-- 0.60 -->
      <g transform="translate(29.163125 169.782446) scale(0.26 -0.26)">
       <defs>
        <path id="DejaVuSans-36" d="M 2113 2584 
Q 1688 2584 1439 2293 
Q 1191 2003 1191 1497 
Q 1191 994 1439 701 
Q 1688 409 2113 409 
Q 2538 409 2786 701 
Q 3034 994 3034 1497 
Q 3034 2003 2786 2293 
Q 2538 2584 2113 2584 
z
M 3366 4563 
L 3366 3988 
Q 3128 4100 2886 4159 
Q 2644 4219 2406 4219 
Q 1781 4219 1451 3797 
Q 1122 3375 1075 2522 
Q 1259 2794 1537 2939 
Q 1816 3084 2150 3084 
Q 2853 3084 3261 2657 
Q 3669 2231 3669 1497 
Q 3669 778 3244 343 
Q 2819 -91 2113 -91 
Q 1303 -91 875 529 
Q 447 1150 447 2328 
Q 447 3434 972 4092 
Q 1497 4750 2381 4750 
Q 2619 4750 2861 4703 
Q 3103 4656 3366 4563 
z
" transform="scale(0.015625)"/>
       </defs>
       <use xlink:href="#DejaVuSans-30"/>
       <use xlink:href="#DejaVuSans-2e" x="63.623047"/>
       <use xlink:href="#DejaVuSans-36" x="95.410156"/>
       <use xlink:href="#DejaVuSans-30" x="159.033203"/>
      </g>
     </g>
    </g>
    <g id="ytick_6">
     <g id="line2d_12">
      <g>
       <use xlink:href="#m3fa01aaf70" x="94.05375" y="90.364854" style="stroke: #000000; stroke-width: 0.8"/>
      </g>
     </g>
     <g id="text_13">
      <!-- 0.65 -->
      <g transform="translate(29.163125 100.242823) scale(0.26 -0.26)">
       <use xlink:href="#DejaVuSans-30"/>
       <use xlink:href="#DejaVuSans-2e" x="63.623047"/>
       <use xlink:href="#DejaVuSans-36" x="95.410156"/>
       <use xlink:href="#DejaVuSans-35" x="159.033203"/>
      </g>
     </g>
    </g>
    <g id="ytick_7">
     <g id="line2d_13">
      <g>
       <use xlink:href="#m3fa01aaf70" x="94.05375" y="20.82523" style="stroke: #000000; stroke-width: 0.8"/>
      </g>
     </g>
     <g id="text_14">
      <!-- 0.70 -->
      <g transform="translate(29.163125 30.703199) scale(0.26 -0.26)">
       <defs>
        <path id="DejaVuSans-37" d="M 525 4666 
L 3525 4666 
L 3525 4397 
L 1831 0 
L 1172 0 
L 2766 4134 
L 525 4134 
L 525 4666 
z
" transform="scale(0.015625)"/>
       </defs>
       <use xlink:href="#DejaVuSans-30"/>
       <use xlink:href="#DejaVuSans-2e" x="63.623047"/>
       <use xlink:href="#DejaVuSans-37" x="95.410156"/>
       <use xlink:href="#DejaVuSans-30" x="159.033203"/>
      </g>
     </g>
    </g>
    <g id="text_15">
     <!-- Loss -->
     <g transform="translate(19.755938 277.994687) rotate(-90) scale(0.26 -0.26)">
      <defs>
       <path id="DejaVuSans-4c" d="M 628 4666 
L 1259 4666 
L 1259 531 
L 3531 531 
L 3531 0 
L 628 0 
L 628 4666 
z
" transform="scale(0.015625)"/>
       <path id="DejaVuSans-73" d="M 2834 3397 
L 2834 2853 
Q 2591 2978 2328 3040 
Q 2066 3103 1784 3103 
Q 1356 3103 1142 2972 
Q 928 2841 928 2578 
Q 928 2378 1081 2264 
Q 1234 2150 1697 2047 
L 1894 2003 
Q 2506 1872 2764 1633 
Q 3022 1394 3022 966 
Q 3022 478 2636 193 
Q 2250 -91 1575 -91 
Q 1294 -91 989 -36 
Q 684 19 347 128 
L 347 722 
Q 666 556 975 473 
Q 1284 391 1588 391 
Q 1994 391 2212 530 
Q 2431 669 2431 922 
Q 2431 1156 2273 1281 
Q 2116 1406 1581 1522 
L 1381 1569 
Q 847 1681 609 1914 
Q 372 2147 372 2553 
Q 372 3047 722 3315 
Q 1072 3584 1716 3584 
Q 2034 3584 2315 3537 
Q 2597 3491 2834 3397 
z
" transform="scale(0.015625)"/>
      </defs>
      <use xlink:href="#DejaVuSans-4c"/>
      <use xlink:href="#DejaVuSans-6f" x="53.962891"/>
      <use xlink:href="#DejaVuSans-73" x="115.144531"/>
      <use xlink:href="#DejaVuSans-73" x="167.244141"/>
     </g>
    </g>
   </g>
   <g id="line2d_14">
    <path d="M 134.635568 22.68 
L 136.262094 31.047444 
L 137.88862 35.012026 
L 139.515146 34.627796 
L 141.141671 28.032289 
L 142.768197 30.812512 
L 144.394723 36.888333 
L 146.021249 39.314748 
L 147.647774 43.288532 
L 149.2743 43.437582 
L 150.900826 44.484663 
L 152.527352 45.149005 
L 154.153878 43.834247 
L 155.780403 47.193842 
L 157.406929 48.286268 
L 159.033455 49.087142 
L 160.659981 50.36642 
L 162.286506 49.903602 
L 163.913032 55.090179 
L 165.539558 54.571073 
L 167.166084 54.614595 
L 168.79261 56.686457 
L 170.419135 57.957112 
L 172.045661 64.320919 
L 173.672187 66.767396 
L 175.298713 68.799882 
L 176.925238 70.648583 
L 181.804816 80.053824 
L 183.431342 83.921084 
L 185.057867 83.071051 
L 188.310919 91.847264 
L 189.937445 95.007324 
L 191.56397 97.62888 
L 193.190496 99.737217 
L 194.817022 106.710322 
L 196.443548 115.311538 
L 198.070074 120.548765 
L 199.696599 119.324201 
L 201.323125 127.147173 
L 202.949651 132.731078 
L 204.576177 141.556449 
L 206.202702 147.153453 
L 207.829228 155.441813 
L 209.455754 160.961887 
L 211.08228 167.131962 
L 212.708806 182.448388 
L 214.335331 187.588377 
L 215.961857 194.160506 
L 217.588383 195.786295 
L 219.214909 198.631178 
L 220.841434 209.463502 
L 222.46796 216.922719 
L 224.094486 215.805259 
L 225.721012 221.55297 
L 227.347538 222.97566 
L 228.974063 221.480766 
L 230.600589 225.580223 
L 232.227115 233.260196 
L 233.853641 236.818663 
L 235.480166 237.772318 
L 237.106692 250.017053 
L 240.359744 255.790379 
L 241.98627 254.584715 
L 243.612795 256.952108 
L 245.239321 259.876241 
L 246.865847 267.484425 
L 248.492373 262.763319 
L 250.118898 264.299745 
L 251.745424 264.069621 
L 253.37195 263.594865 
L 254.998476 264.823492 
L 256.625002 260.869521 
L 258.251527 263.405361 
L 259.878053 265.329251 
L 261.504579 265.50259 
L 263.131105 270.109381 
L 264.75763 269.723409 
L 266.384156 272.122136 
L 268.010682 268.728968 
L 269.637208 269.857123 
L 271.263734 269.489472 
L 274.516785 273.721813 
L 276.143311 276.741196 
L 277.769837 276.86919 
L 279.396362 277.648511 
L 281.022888 279.761822 
L 282.649414 279.762485 
L 284.27594 282.179782 
L 285.902466 276.241571 
L 287.528991 283.547677 
L 289.155517 283.489482 
L 290.782043 283.964237 
L 292.408569 286.126126 
L 294.035095 287.264809 
L 295.66162 288.03211 
L 297.288146 289.030861 
L 298.914672 290.936099 
L 300.541198 291.932363 
L 302.167723 296.385627 
L 307.047301 299.380099 
L 308.673827 305.272301 
L 310.300352 309.132764 
L 311.926878 310.178767 
L 313.553404 317.90479 
L 315.17993 319.074643 
L 316.806455 319.082518 
L 318.432981 320.224226 
L 320.059507 322.309849 
L 321.686033 318.841949 
L 324.939084 328.477769 
L 326.56561 324.236226 
L 328.192136 324.955446 
L 329.818662 324.934805 
L 331.445187 325.887175 
L 333.071713 322.505571 
L 334.698239 323.222926 
L 336.324765 324.327082 
L 337.951291 323.272623 
L 339.577816 323.761305 
L 341.204342 325.058405 
L 342.830868 324.310295 
L 344.457394 328.103735 
L 346.083919 325.602297 
L 347.710445 322.275074 
L 349.336971 320.808821 
L 350.963497 320.512544 
L 352.590023 319.167322 
L 354.216548 320.751663 
L 355.843074 318.062462 
L 357.4696 319.196709 
L 359.096126 321.176928 
L 360.722651 326.185772 
L 363.975703 325.30772 
L 365.602229 313.597302 
L 367.228755 310.476743 
L 368.85528 309.774309 
L 372.108332 312.717302 
L 373.734858 306.72956 
L 375.361383 305.826514 
L 376.987909 307.334837 
L 378.614435 299.816141 
L 380.240961 301.613197 
L 381.867487 303.18328 
L 383.494012 306.117941 
L 385.120538 314.980367 
L 386.747064 317.994817 
L 388.37359 322.992719 
L 390.000115 324.519073 
L 391.626641 323.247422 
L 393.253167 322.680734 
L 394.879693 318.906112 
L 396.506219 326.086502 
L 398.132744 323.747005 
L 399.75927 323.542952 
L 404.638847 346.257417 
L 406.265373 351.254697 
L 407.891899 337.359676 
L 409.518425 333.503234 
L 411.144951 333.390825 
L 412.771476 334.387131 
L 414.398002 328.904444 
L 416.024528 320.507654 
L 417.651054 327.43388 
L 419.277579 322.552076 
L 420.904105 323.841011 
L 422.530631 327.910583 
L 424.157157 331.314818 
L 425.783683 332.391825 
L 427.410208 342.529549 
L 429.036734 344.138925 
L 430.66326 345.238314 
L 432.289786 345.405892 
L 433.916311 348.512566 
L 437.169363 355.210782 
L 438.795889 352.827722 
L 442.04894 355.021941 
L 443.675466 356.492463 
L 446.928518 358.762907 
L 450.181569 360.863742 
L 451.808095 361.548062 
L 453.434621 359.948385 
L 459.940724 364.351082 
L 461.56725 363.979907 
L 464.820301 366.606189 
L 466.446827 367.734302 
L 468.073353 369.88558 
L 472.95293 373.007715 
L 474.579456 374.078836 
L 476.205982 372.532379 
L 477.832508 368.502805 
L 479.459033 369.500313 
L 481.085559 368.108751 
L 485.965136 371.859084 
L 487.591662 375.440264 
L 489.218188 376.314752 
L 490.844714 377.391676 
L 492.47124 378.998731 
L 494.097765 374.722122 
L 495.724291 375.71851 
L 497.350817 376.373817 
L 500.603868 378.288919 
L 502.230394 379.56774 
L 503.85692 379.031682 
L 505.483446 380.013689 
L 508.736497 389.367076 
L 511.989549 391.234015 
L 513.616075 388.299686 
L 515.2426 386.752027 
L 518.495652 388.506184 
L 520.122178 388.902352 
L 521.748704 389.751846 
L 523.375229 393.040812 
L 528.254807 395.552322 
L 529.881332 396.974722 
L 531.507858 397.593926 
L 538.013961 400.774255 
L 544.520064 404.021274 
L 546.14659 407.388703 
L 547.773116 408.299831 
L 549.399642 404.783187 
L 562.411848 410.970754 
L 568.917951 414.037222 
L 570.544477 415.128446 
L 572.171003 419.253228 
L 573.797528 420.518412 
L 575.424054 422.46771 
L 578.677106 424.774131 
L 580.303632 425.560498 
L 581.930157 428.444841 
L 583.556683 429.943175 
L 585.183209 430.455317 
L 586.809735 427.842713 
L 588.43626 422.656592 
L 590.062786 416.181412 
L 591.689312 414.436043 
L 593.315838 411.108239 
L 596.568889 409.446555 
L 598.195415 407.657333 
L 599.821941 405.656141 
L 601.448467 406.852562 
L 603.074992 404.593227 
L 604.701518 405.151667 
L 606.328044 404.062184 
L 607.95457 404.776555 
L 609.581096 406.348337 
L 611.207621 406.988473 
L 612.834147 408.137808 
L 616.087199 409.556975 
L 617.713724 410.100121 
L 619.34025 407.09139 
L 620.966776 407.633168 
L 622.593302 397.642877 
L 624.219828 404.692414 
L 625.846353 405.478616 
L 627.472879 409.346954 
L 629.099405 408.987841 
L 630.725931 404.668042 
L 635.605508 406.250559 
L 638.85856 407.567555 
L 640.485085 403.718656 
L 642.111611 404.513023 
L 643.738137 405.905705 
L 645.364663 407.774592 
L 646.991189 408.3281 
L 648.617714 410.521158 
L 650.24424 414.938983 
L 651.870766 411.362155 
L 653.497292 411.901529 
L 655.123817 408.561291 
L 656.750343 406.263615 
L 658.376869 403.495206 
L 660.003395 403.359088 
L 663.256446 404.629785 
L 669.762549 407.002317 
L 671.389075 409.120601 
L 673.015601 406.093136 
L 674.642127 407.216483 
L 676.268653 408.109042 
L 677.895178 408.704538 
L 679.521704 412.001586 
L 681.14823 412.577891 
L 682.774756 412.815186 
L 687.654333 414.632303 
L 689.280859 419.732625 
L 690.907385 420.565001 
L 692.53391 422.057118 
L 694.160436 422.337768 
L 695.786962 418.029202 
L 697.413488 419.859168 
L 699.040013 427.985919 
L 700.666539 428.522557 
L 702.293065 427.525091 
L 703.919591 422.213836 
L 705.546117 426.714849 
L 707.172642 426.211453 
L 708.799168 425.5222 
L 713.678745 427.132487 
L 715.305271 426.128472 
L 716.931797 426.677752 
L 718.558323 423.186433 
L 720.184849 423.736832 
L 721.811374 422.692487 
L 723.4379 421.284967 
L 725.064426 419.30794 
L 733.197055 422.131974 
L 734.823581 425.713237 
L 736.450106 426.305666 
L 738.076632 430.051274 
L 739.703158 430.814015 
L 741.329684 433.248265 
L 742.956209 433.383802 
L 744.582735 438.671846 
L 746.209261 440.11468 
L 747.835787 446.41304 
L 749.462313 447.887292 
L 751.088838 448.687794 
L 752.715364 449.269901 
L 754.34189 448.93429 
L 755.968416 452.935554 
L 757.594941 454.425392 
L 759.221467 452.895846 
L 760.847993 450.357146 
L 762.474519 450.995085 
L 764.101045 451.75936 
L 765.72757 453.865418 
L 767.354096 454.515294 
L 768.980622 445.880173 
L 770.607148 446.469451 
L 772.233673 448.239442 
L 773.860199 447.661976 
L 775.486725 447.829844 
L 777.113251 448.550598 
L 778.739777 448.147011 
L 780.366302 448.843393 
L 781.992828 451.821741 
L 783.619354 454.512103 
L 785.24588 455.182745 
L 786.872405 468.014976 
L 788.498931 468.93829 
L 790.125457 465.611647 
L 791.751983 466.270435 
L 793.378509 468.984299 
L 795.005034 469.643874 
L 796.63156 461.520522 
L 798.258086 462.356835 
L 799.884612 463.00522 
L 801.511138 455.688006 
L 803.137663 461.627004 
L 804.764189 462.267596 
L 806.390715 462.711679 
L 808.017241 463.348789 
L 809.643766 462.198915 
L 812.896818 463.441137 
L 814.523344 461.400984 
L 817.776395 462.694105 
L 819.402921 463.574727 
L 821.029447 465.802478 
L 822.655973 472.755522 
L 824.282498 473.382933 
L 825.909024 471.418548 
L 827.53555 472.0414 
L 829.162076 470.869143 
L 830.788602 473.786479 
L 832.415127 474.486591 
L 834.041653 475.468432 
L 835.668179 476.28 
L 837.294705 468.930705 
L 840.547756 470.089781 
L 842.174282 470.056332 
L 843.800808 470.611705 
L 845.427334 472.692271 
L 847.053859 469.168663 
L 851.933437 470.785956 
L 853.559962 471.740647 
L 863.319117 474.875547 
L 864.945643 469.62373 
L 866.572169 470.12866 
L 868.198694 468.812452 
L 879.584375 472.274176 
L 881.210901 471.910794 
L 882.837426 472.40387 
L 884.463952 469.037643 
L 886.090478 469.636828 
L 887.717004 458.237069 
L 889.34353 462.362348 
L 890.970055 462.923856 
L 892.596581 456.401714 
L 894.223107 457.63204 
L 895.849633 461.643003 
L 897.476158 462.288735 
L 899.102684 464.073108 
L 900.72921 464.574473 
L 902.355736 471.459665 
L 905.608787 472.428656 
L 907.235313 474.925908 
L 908.861839 469.040793 
L 910.488365 469.418475 
L 912.11489 470.03884 
L 913.741416 467.833927 
L 915.367942 467.858589 
L 916.994468 466.323531 
L 918.620994 467.373431 
L 920.247519 457.02353 
L 921.874045 457.761443 
L 926.753622 459.356975 
L 928.380148 457.317112 
L 930.006674 456.46567 
L 931.6332 456.28031 
L 933.259726 456.852636 
L 934.886251 457.009769 
L 938.139303 458.967522 
L 941.392354 460.241328 
L 943.01888 461.177906 
L 944.645406 463.66608 
L 946.271932 463.578872 
L 946.271932 463.578872 
" clip-path="url(#p7e7f2f6d70)" style="fill: none; stroke: #1f77b4; stroke-width: 1.5; stroke-linecap: square"/>
   </g>
   <g id="patch_3">
    <path d="M 94.05375 498.96 
L 94.05375 0 
" style="fill: none; stroke: #000000; stroke-width: 0.8; stroke-linejoin: miter; stroke-linecap: square"/>
   </g>
   <g id="patch_4">
    <path d="M 986.85375 498.96 
L 986.85375 0 
" style="fill: none; stroke: #000000; stroke-width: 0.8; stroke-linejoin: miter; stroke-linecap: square"/>
   </g>
   <g id="patch_5">
    <path d="M 94.05375 498.96 
L 986.85375 498.96 
" style="fill: none; stroke: #000000; stroke-width: 0.8; stroke-linejoin: miter; stroke-linecap: square"/>
   </g>
   <g id="patch_6">
    <path d="M 94.05375 0 
L 986.85375 0 
" style="fill: none; stroke: #000000; stroke-width: 0.8; stroke-linejoin: miter; stroke-linecap: square"/>
   </g>
   <g id="legend_1">
    <g id="patch_7">
     <path d="M 958.25375 33.8 
L 968.65375 33.8 
Q 973.85375 33.8 973.85375 28.6 
L 973.85375 18.2 
Q 973.85375 13 968.65375 13 
L 958.25375 13 
Q 953.05375 13 953.05375 18.2 
L 953.05375 28.6 
Q 953.05375 33.8 958.25375 33.8 
z
" style="fill: #ffffff; opacity: 0.8; stroke: #cccccc; stroke-linejoin: miter"/>
    </g>
   </g>
  </g>
 </g>
 <defs>
  <clipPath id="p7e7f2f6d70">
   <rect x="94.05375" y="0" width="892.8" height="498.96"/>
  </clipPath>
 </defs>
</svg>
