<?xml version="1.0" encoding="utf-8" standalone="no"?>
<!DOCTYPE svg PUBLIC "-//W3C//DTD SVG 1.1//EN"
  "http://www.w3.org/Graphics/SVG/1.1/DTD/svg11.dtd">
<svg xmlns:xlink="http://www.w3.org/1999/xlink" width="970.31125pt" height="560.28625pt" viewBox="0 0 970.31125 560.28625" xmlns="http://www.w3.org/2000/svg" version="1.1">
 <metadata>
  <rdf:RDF xmlns:dc="http://purl.org/dc/elements/1.1/" xmlns:cc="http://creativecommons.org/ns#" xmlns:rdf="http://www.w3.org/1999/02/22-rdf-syntax-ns#">
   <cc:Work>
    <dc:type rdf:resource="http://purl.org/dc/dcmitype/StillImage"/>
    <dc:date>2024-05-18T18:59:27.161055</dc:date>
    <dc:format>image/svg+xml</dc:format>
    <dc:creator>
     <cc:Agent>
      <dc:title>Matplotlib v3.8.0, https://matplotlib.org/</dc:title>
     </cc:Agent>
    </dc:creator>
   </cc:Work>
  </rdf:RDF>
 </metadata>
 <defs>
  <style type="text/css">*{stroke-linejoin: round; stroke-linecap: butt}</style>
 </defs>
 <g id="figure_1">
  <g id="patch_1">
   <path d="M 0 560.28625 
L 970.31125 560.28625 
L 970.31125 0 
L 0 0 
z
" style="fill: #ffffff"/>
  </g>
  <g id="axes_1">
   <g id="patch_2">
    <path d="M 77.51125 498.96 
L 970.31125 498.96 
L 970.31125 0 
L 77.51125 0 
z
" style="fill: #ffffff"/>
   </g>
   <g id="matplotlib.axis_1">
    <g id="xtick_1">
     <g id="line2d_1">
      <defs>
       <path id="mcfd6cc5464" d="M 0 0 
L 0 3.5 
" style="stroke: #000000; stroke-width: 0.8"/>
      </defs>
      <g>
       <use xlink:href="#mcfd6cc5464" x="118.093068" y="498.96" style="stroke: #000000; stroke-width: 0.8"/>
      </g>
     </g>
     <g id="text_1">
      <!-- 0 -->
      <g transform="translate(109.821818 525.715937) scale(0.26 -0.26)">
       <defs>
        <path id="DejaVuSans-30" d="M 2034 4250 
Q 1547 4250 1301 3770 
Q 1056 3291 1056 2328 
Q 1056 1369 1301 889 
Q 1547 409 2034 409 
Q 2525 409 2770 889 
Q 3016 1369 3016 2328 
Q 3016 3291 2770 3770 
Q 2525 4250 2034 4250 
z
M 2034 4750 
Q 2819 4750 3233 4129 
Q 3647 3509 3647 2328 
Q 3647 1150 3233 529 
Q 2819 -91 2034 -91 
Q 1250 -91 836 529 
Q 422 1150 422 2328 
Q 422 3509 836 4129 
Q 1250 4750 2034 4750 
z
" transform="scale(0.015625)"/>
       </defs>
       <use xlink:href="#DejaVuSans-30"/>
      </g>
     </g>
    </g>
    <g id="xtick_2">
     <g id="line2d_2">
      <g>
       <use xlink:href="#mcfd6cc5464" x="280.582831" y="498.96" style="stroke: #000000; stroke-width: 0.8"/>
      </g>
     </g>
     <g id="text_2">
      <!-- 200 -->
      <g transform="translate(255.769081 525.715937) scale(0.26 -0.26)">
       <defs>
        <path id="DejaVuSans-32" d="M 1228 531 
L 3431 531 
L 3431 0 
L 469 0 
L 469 531 
Q 828 903 1448 1529 
Q 2069 2156 2228 2338 
Q 2531 2678 2651 2914 
Q 2772 3150 2772 3378 
Q 2772 3750 2511 3984 
Q 2250 4219 1831 4219 
Q 1534 4219 1204 4116 
Q 875 4013 500 3803 
L 500 4441 
Q 881 4594 1212 4672 
Q 1544 4750 1819 4750 
Q 2544 4750 2975 4387 
Q 3406 4025 3406 3419 
Q 3406 3131 3298 2873 
Q 3191 2616 2906 2266 
Q 2828 2175 2409 1742 
Q 1991 1309 1228 531 
z
" transform="scale(0.015625)"/>
       </defs>
       <use xlink:href="#DejaVuSans-32"/>
       <use xlink:href="#DejaVuSans-30" x="63.623047"/>
       <use xlink:href="#DejaVuSans-30" x="127.246094"/>
      </g>
     </g>
    </g>
    <g id="xtick_3">
     <g id="line2d_3">
      <g>
       <use xlink:href="#mcfd6cc5464" x="443.072593" y="498.96" style="stroke: #000000; stroke-width: 0.8"/>
      </g>
     </g>
     <g id="text_3">
      <!-- 400 -->
      <g transform="translate(418.258843 525.715937) scale(0.26 -0.26)">
       <defs>
        <path id="DejaVuSans-34" d="M 2419 4116 
L 825 1625 
L 2419 1625 
L 2419 4116 
z
M 2253 4666 
L 3047 4666 
L 3047 1625 
L 3713 1625 
L 3713 1100 
L 3047 1100 
L 3047 0 
L 2419 0 
L 2419 1100 
L 313 1100 
L 313 1709 
L 2253 4666 
z
" transform="scale(0.015625)"/>
       </defs>
       <use xlink:href="#DejaVuSans-34"/>
       <use xlink:href="#DejaVuSans-30" x="63.623047"/>
       <use xlink:href="#DejaVuSans-30" x="127.246094"/>
      </g>
     </g>
    </g>
    <g id="xtick_4">
     <g id="line2d_4">
      <g>
       <use xlink:href="#mcfd6cc5464" x="605.562356" y="498.96" style="stroke: #000000; stroke-width: 0.8"/>
      </g>
     </g>
     <g id="text_4">
      <!-- 600 -->
      <g transform="translate(580.748606 525.715937) scale(0.26 -0.26)">
       <defs>
        <path id="DejaVuSans-36" d="M 2113 2584 
Q 1688 2584 1439 2293 
Q 1191 2003 1191 1497 
Q 1191 994 1439 701 
Q 1688 409 2113 409 
Q 2538 409 2786 701 
Q 3034 994 3034 1497 
Q 3034 2003 2786 2293 
Q 2538 2584 2113 2584 
z
M 3366 4563 
L 3366 3988 
Q 3128 4100 2886 4159 
Q 2644 4219 2406 4219 
Q 1781 4219 1451 3797 
Q 1122 3375 1075 2522 
Q 1259 2794 1537 2939 
Q 1816 3084 2150 3084 
Q 2853 3084 3261 2657 
Q 3669 2231 3669 1497 
Q 3669 778 3244 343 
Q 2819 -91 2113 -91 
Q 1303 -91 875 529 
Q 447 1150 447 2328 
Q 447 3434 972 4092 
Q 1497 4750 2381 4750 
Q 2619 4750 2861 4703 
Q 3103 4656 3366 4563 
z
" transform="scale(0.015625)"/>
       </defs>
       <use xlink:href="#DejaVuSans-36"/>
       <use xlink:href="#DejaVuSans-30" x="63.623047"/>
       <use xlink:href="#DejaVuSans-30" x="127.246094"/>
      </g>
     </g>
    </g>
    <g id="xtick_5">
     <g id="line2d_5">
      <g>
       <use xlink:href="#mcfd6cc5464" x="768.052118" y="498.96" style="stroke: #000000; stroke-width: 0.8"/>
      </g>
     </g>
     <g id="text_5">
      <!-- 800 -->
      <g transform="translate(743.238368 525.715937) scale(0.26 -0.26)">
       <defs>
        <path id="DejaVuSans-38" d="M 2034 2216 
Q 1584 2216 1326 1975 
Q 1069 1734 1069 1313 
Q 1069 891 1326 650 
Q 1584 409 2034 409 
Q 2484 409 2743 651 
Q 3003 894 3003 1313 
Q 3003 1734 2745 1975 
Q 2488 2216 2034 2216 
z
M 1403 2484 
Q 997 2584 770 2862 
Q 544 3141 544 3541 
Q 544 4100 942 4425 
Q 1341 4750 2034 4750 
Q 2731 4750 3128 4425 
Q 3525 4100 3525 3541 
Q 3525 3141 3298 2862 
Q 3072 2584 2669 2484 
Q 3125 2378 3379 2068 
Q 3634 1759 3634 1313 
Q 3634 634 3220 271 
Q 2806 -91 2034 -91 
Q 1263 -91 848 271 
Q 434 634 434 1313 
Q 434 1759 690 2068 
Q 947 2378 1403 2484 
z
M 1172 3481 
Q 1172 3119 1398 2916 
Q 1625 2713 2034 2713 
Q 2441 2713 2670 2916 
Q 2900 3119 2900 3481 
Q 2900 3844 2670 4047 
Q 2441 4250 2034 4250 
Q 1625 4250 1398 4047 
Q 1172 3844 1172 3481 
z
" transform="scale(0.015625)"/>
       </defs>
       <use xlink:href="#DejaVuSans-38"/>
       <use xlink:href="#DejaVuSans-30" x="63.623047"/>
       <use xlink:href="#DejaVuSans-30" x="127.246094"/>
      </g>
     </g>
    </g>
    <g id="xtick_6">
     <g id="line2d_6">
      <g>
       <use xlink:href="#mcfd6cc5464" x="930.541881" y="498.96" style="stroke: #000000; stroke-width: 0.8"/>
      </g>
     </g>
     <g id="text_6">
      <!-- 1000 -->
      <g transform="translate(897.456881 525.715937) scale(0.26 -0.26)">
       <defs>
        <path id="DejaVuSans-31" d="M 794 531 
L 1825 531 
L 1825 4091 
L 703 3866 
L 703 4441 
L 1819 4666 
L 2450 4666 
L 2450 531 
L 3481 531 
L 3481 0 
L 794 0 
L 794 531 
z
" transform="scale(0.015625)"/>
       </defs>
       <use xlink:href="#DejaVuSans-31"/>
       <use xlink:href="#DejaVuSans-30" x="63.623047"/>
       <use xlink:href="#DejaVuSans-30" x="127.246094"/>
       <use xlink:href="#DejaVuSans-30" x="190.869141"/>
      </g>
     </g>
    </g>
    <g id="text_7">
     <!-- Epoch -->
     <g transform="translate(484.102812 554.879063) scale(0.26 -0.26)">
      <defs>
       <path id="DejaVuSans-45" d="M 628 4666 
L 3578 4666 
L 3578 4134 
L 1259 4134 
L 1259 2753 
L 3481 2753 
L 3481 2222 
L 1259 2222 
L 1259 531 
L 3634 531 
L 3634 0 
L 628 0 
L 628 4666 
z
" transform="scale(0.015625)"/>
       <path id="DejaVuSans-70" d="M 1159 525 
L 1159 -1331 
L 581 -1331 
L 581 3500 
L 1159 3500 
L 1159 2969 
Q 1341 3281 1617 3432 
Q 1894 3584 2278 3584 
Q 2916 3584 3314 3078 
Q 3713 2572 3713 1747 
Q 3713 922 3314 415 
Q 2916 -91 2278 -91 
Q 1894 -91 1617 61 
Q 1341 213 1159 525 
z
M 3116 1747 
Q 3116 2381 2855 2742 
Q 2594 3103 2138 3103 
Q 1681 3103 1420 2742 
Q 1159 2381 1159 1747 
Q 1159 1113 1420 752 
Q 1681 391 2138 391 
Q 2594 391 2855 752 
Q 3116 1113 3116 1747 
z
" transform="scale(0.015625)"/>
       <path id="DejaVuSans-6f" d="M 1959 3097 
Q 1497 3097 1228 2736 
Q 959 2375 959 1747 
Q 959 1119 1226 758 
Q 1494 397 1959 397 
Q 2419 397 2687 759 
Q 2956 1122 2956 1747 
Q 2956 2369 2687 2733 
Q 2419 3097 1959 3097 
z
M 1959 3584 
Q 2709 3584 3137 3096 
Q 3566 2609 3566 1747 
Q 3566 888 3137 398 
Q 2709 -91 1959 -91 
Q 1206 -91 779 398 
Q 353 888 353 1747 
Q 353 2609 779 3096 
Q 1206 3584 1959 3584 
z
" transform="scale(0.015625)"/>
       <path id="DejaVuSans-63" d="M 3122 3366 
L 3122 2828 
Q 2878 2963 2633 3030 
Q 2388 3097 2138 3097 
Q 1578 3097 1268 2742 
Q 959 2388 959 1747 
Q 959 1106 1268 751 
Q 1578 397 2138 397 
Q 2388 397 2633 464 
Q 2878 531 3122 666 
L 3122 134 
Q 2881 22 2623 -34 
Q 2366 -91 2075 -91 
Q 1284 -91 818 406 
Q 353 903 353 1747 
Q 353 2603 823 3093 
Q 1294 3584 2113 3584 
Q 2378 3584 2631 3529 
Q 2884 3475 3122 3366 
z
" transform="scale(0.015625)"/>
       <path id="DejaVuSans-68" d="M 3513 2113 
L 3513 0 
L 2938 0 
L 2938 2094 
Q 2938 2591 2744 2837 
Q 2550 3084 2163 3084 
Q 1697 3084 1428 2787 
Q 1159 2491 1159 1978 
L 1159 0 
L 581 0 
L 581 4863 
L 1159 4863 
L 1159 2956 
Q 1366 3272 1645 3428 
Q 1925 3584 2291 3584 
Q 2894 3584 3203 3211 
Q 3513 2838 3513 2113 
z
" transform="scale(0.015625)"/>
      </defs>
      <use xlink:href="#DejaVuSans-45"/>
      <use xlink:href="#DejaVuSans-70" x="63.183594"/>
      <use xlink:href="#DejaVuSans-6f" x="126.660156"/>
      <use xlink:href="#DejaVuSans-63" x="187.841797"/>
      <use xlink:href="#DejaVuSans-68" x="242.822266"/>
     </g>
    </g>
   </g>
   <g id="matplotlib.axis_2">
    <g id="ytick_1">
     <g id="line2d_7">
      <defs>
       <path id="m6f0b431508" d="M 0 0 
L -3.5 0 
" style="stroke: #000000; stroke-width: 0.8"/>
      </defs>
      <g>
       <use xlink:href="#m6f0b431508" x="77.51125" y="438.045266" style="stroke: #000000; stroke-width: 0.8"/>
      </g>
     </g>
     <g id="text_8">
      <!-- 0.1 -->
      <g transform="translate(29.163125 447.923235) scale(0.26 -0.26)">
       <defs>
        <path id="DejaVuSans-2e" d="M 684 794 
L 1344 794 
L 1344 0 
L 684 0 
L 684 794 
z
" transform="scale(0.015625)"/>
       </defs>
       <use xlink:href="#DejaVuSans-30"/>
       <use xlink:href="#DejaVuSans-2e" x="63.623047"/>
       <use xlink:href="#DejaVuSans-31" x="95.410156"/>
      </g>
     </g>
    </g>
    <g id="ytick_2">
     <g id="line2d_8">
      <g>
       <use xlink:href="#m6f0b431508" x="77.51125" y="364.610365" style="stroke: #000000; stroke-width: 0.8"/>
      </g>
     </g>
     <g id="text_9">
      <!-- 0.2 -->
      <g transform="translate(29.163125 374.488334) scale(0.26 -0.26)">
       <use xlink:href="#DejaVuSans-30"/>
       <use xlink:href="#DejaVuSans-2e" x="63.623047"/>
       <use xlink:href="#DejaVuSans-32" x="95.410156"/>
      </g>
     </g>
    </g>
    <g id="ytick_3">
     <g id="line2d_9">
      <g>
       <use xlink:href="#m6f0b431508" x="77.51125" y="291.175464" style="stroke: #000000; stroke-width: 0.8"/>
      </g>
     </g>
     <g id="text_10">
      <!-- 0.3 -->
      <g transform="translate(29.163125 301.053433) scale(0.26 -0.26)">
       <defs>
        <path id="DejaVuSans-33" d="M 2597 2516 
Q 3050 2419 3304 2112 
Q 3559 1806 3559 1356 
Q 3559 666 3084 287 
Q 2609 -91 1734 -91 
Q 1441 -91 1130 -33 
Q 819 25 488 141 
L 488 750 
Q 750 597 1062 519 
Q 1375 441 1716 441 
Q 2309 441 2620 675 
Q 2931 909 2931 1356 
Q 2931 1769 2642 2001 
Q 2353 2234 1838 2234 
L 1294 2234 
L 1294 2753 
L 1863 2753 
Q 2328 2753 2575 2939 
Q 2822 3125 2822 3475 
Q 2822 3834 2567 4026 
Q 2313 4219 1838 4219 
Q 1578 4219 1281 4162 
Q 984 4106 628 3988 
L 628 4550 
Q 988 4650 1302 4700 
Q 1616 4750 1894 4750 
Q 2613 4750 3031 4423 
Q 3450 4097 3450 3541 
Q 3450 3153 3228 2886 
Q 3006 2619 2597 2516 
z
" transform="scale(0.015625)"/>
       </defs>
       <use xlink:href="#DejaVuSans-30"/>
       <use xlink:href="#DejaVuSans-2e" x="63.623047"/>
       <use xlink:href="#DejaVuSans-33" x="95.410156"/>
      </g>
     </g>
    </g>
    <g id="ytick_4">
     <g id="line2d_10">
      <g>
       <use xlink:href="#m6f0b431508" x="77.51125" y="217.740563" style="stroke: #000000; stroke-width: 0.8"/>
      </g>
     </g>
     <g id="text_11">
      <!-- 0.4 -->
      <g transform="translate(29.163125 227.618532) scale(0.26 -0.26)">
       <use xlink:href="#DejaVuSans-30"/>
       <use xlink:href="#DejaVuSans-2e" x="63.623047"/>
       <use xlink:href="#DejaVuSans-34" x="95.410156"/>
      </g>
     </g>
    </g>
    <g id="ytick_5">
     <g id="line2d_11">
      <g>
       <use xlink:href="#m6f0b431508" x="77.51125" y="144.305662" style="stroke: #000000; stroke-width: 0.8"/>
      </g>
     </g>
     <g id="text_12">
      <!-- 0.5 -->
      <g transform="translate(29.163125 154.183631) scale(0.26 -0.26)">
       <defs>
        <path id="DejaVuSans-35" d="M 691 4666 
L 3169 4666 
L 3169 4134 
L 1269 4134 
L 1269 2991 
Q 1406 3038 1543 3061 
Q 1681 3084 1819 3084 
Q 2600 3084 3056 2656 
Q 3513 2228 3513 1497 
Q 3513 744 3044 326 
Q 2575 -91 1722 -91 
Q 1428 -91 1123 -41 
Q 819 9 494 109 
L 494 744 
Q 775 591 1075 516 
Q 1375 441 1709 441 
Q 2250 441 2565 725 
Q 2881 1009 2881 1497 
Q 2881 1984 2565 2268 
Q 2250 2553 1709 2553 
Q 1456 2553 1204 2497 
Q 953 2441 691 2322 
L 691 4666 
z
" transform="scale(0.015625)"/>
       </defs>
       <use xlink:href="#DejaVuSans-30"/>
       <use xlink:href="#DejaVuSans-2e" x="63.623047"/>
       <use xlink:href="#DejaVuSans-35" x="95.410156"/>
      </g>
     </g>
    </g>
    <g id="ytick_6">
     <g id="line2d_12">
      <g>
       <use xlink:href="#m6f0b431508" x="77.51125" y="70.870761" style="stroke: #000000; stroke-width: 0.8"/>
      </g>
     </g>
     <g id="text_13">
      <!-- 0.6 -->
      <g transform="translate(29.163125 80.74873) scale(0.26 -0.26)">
       <use xlink:href="#DejaVuSans-30"/>
       <use xlink:href="#DejaVuSans-2e" x="63.623047"/>
       <use xlink:href="#DejaVuSans-36" x="95.410156"/>
      </g>
     </g>
    </g>
    <g id="text_14">
     <!-- Loss -->
     <g transform="translate(19.755938 277.994687) rotate(-90) scale(0.26 -0.26)">
      <defs>
       <path id="DejaVuSans-4c" d="M 628 4666 
L 1259 4666 
L 1259 531 
L 3531 531 
L 3531 0 
L 628 0 
L 628 4666 
z
" transform="scale(0.015625)"/>
       <path id="DejaVuSans-73" d="M 2834 3397 
L 2834 2853 
Q 2591 2978 2328 3040 
Q 2066 3103 1784 3103 
Q 1356 3103 1142 2972 
Q 928 2841 928 2578 
Q 928 2378 1081 2264 
Q 1234 2150 1697 2047 
L 1894 2003 
Q 2506 1872 2764 1633 
Q 3022 1394 3022 966 
Q 3022 478 2636 193 
Q 2250 -91 1575 -91 
Q 1294 -91 989 -36 
Q 684 19 347 128 
L 347 722 
Q 666 556 975 473 
Q 1284 391 1588 391 
Q 1994 391 2212 530 
Q 2431 669 2431 922 
Q 2431 1156 2273 1281 
Q 2116 1406 1581 1522 
L 1381 1569 
Q 847 1681 609 1914 
Q 372 2147 372 2553 
Q 372 3047 722 3315 
Q 1072 3584 1716 3584 
Q 2034 3584 2315 3537 
Q 2597 3491 2834 3397 
z
" transform="scale(0.015625)"/>
      </defs>
      <use xlink:href="#DejaVuSans-4c"/>
      <use xlink:href="#DejaVuSans-6f" x="53.962891"/>
      <use xlink:href="#DejaVuSans-73" x="115.144531"/>
      <use xlink:href="#DejaVuSans-73" x="167.244141"/>
     </g>
    </g>
   </g>
   <g id="line2d_13">
    <path d="M 118.093068 22.68 
L 118.905517 26.610601 
L 119.717966 28.385105 
L 120.530415 36.021939 
L 121.342863 38.285274 
L 122.155312 45.277498 
L 122.967761 50.317071 
L 125.405107 58.30779 
L 126.217556 60.317211 
L 127.030005 65.026579 
L 127.842454 67.557396 
L 128.654903 71.220558 
L 131.092249 78.070746 
L 132.717147 83.666075 
L 134.342044 87.290238 
L 135.966942 89.488092 
L 136.779391 91.684589 
L 139.216737 96.383889 
L 141.654084 100.358742 
L 144.903879 105.420244 
L 147.341225 108.806032 
L 148.966123 111.2989 
L 149.778572 112.325058 
L 150.591021 113.135165 
L 151.403469 114.485444 
L 152.215918 116.27737 
L 153.028367 117.146698 
L 153.840816 118.278825 
L 154.653265 119.082409 
L 157.090611 123.000623 
L 157.90306 123.603957 
L 158.715509 124.991792 
L 162.777753 130.295171 
L 164.40265 132.879781 
L 166.839997 135.660441 
L 168.464895 138.086996 
L 170.902241 141.767579 
L 171.71469 142.614672 
L 172.527139 143.764701 
L 173.339587 144.575967 
L 174.152036 145.886153 
L 174.964485 146.589525 
L 176.589383 148.404977 
L 179.026729 150.792051 
L 179.839178 151.927701 
L 180.651627 152.851808 
L 181.464076 154.664962 
L 182.276524 155.704098 
L 184.713871 157.984985 
L 185.52632 159.324322 
L 186.338768 160.362101 
L 187.151217 161.06184 
L 187.963666 162.284944 
L 188.776115 162.884273 
L 189.588564 164.130817 
L 190.401012 165.003143 
L 191.213461 165.59444 
L 192.02591 166.995362 
L 192.838359 167.871431 
L 195.275705 170.053199 
L 196.088154 171.233474 
L 196.900603 171.487912 
L 197.713052 172.900478 
L 200.962847 175.992762 
L 201.775296 177.485865 
L 202.587745 178.072676 
L 205.025091 180.431802 
L 205.83754 181.65924 
L 206.649989 182.383271 
L 207.462438 182.948131 
L 209.899784 185.100879 
L 211.524682 186.524365 
L 212.33713 187.80262 
L 213.149579 187.763445 
L 214.774477 189.422767 
L 216.399374 191.027398 
L 217.211823 191.933078 
L 218.024272 192.504809 
L 218.836721 193.837843 
L 219.64917 193.721851 
L 220.461619 195.607008 
L 221.274067 196.949365 
L 222.086516 196.80687 
L 222.898965 198.360792 
L 223.711414 199.241413 
L 224.523863 199.51104 
L 225.336311 201.253023 
L 226.14876 202.064442 
L 226.961209 202.360988 
L 227.773658 204.32178 
L 228.586107 204.764717 
L 229.398555 206.268697 
L 231.023453 208.194473 
L 231.835902 209.152196 
L 233.4608 210.54432 
L 235.898146 213.422807 
L 236.710595 215.069698 
L 237.523044 215.738447 
L 239.96039 218.395148 
L 240.772839 219.178051 
L 241.585288 218.841105 
L 242.397736 219.099899 
L 243.210185 221.472222 
L 244.022634 220.631061 
L 244.835083 221.938292 
L 245.647532 223.542178 
L 246.459981 224.599348 
L 247.272429 223.388522 
L 248.084878 222.767745 
L 248.897327 222.818169 
L 249.709776 223.105151 
L 250.522225 225.165718 
L 251.334673 225.752747 
L 252.147122 227.953074 
L 252.959571 231.304283 
L 253.77202 230.192291 
L 255.396917 234.648074 
L 256.209366 235.201816 
L 257.021815 233.62533 
L 257.834264 233.436635 
L 258.646713 233.797611 
L 260.27161 236.829842 
L 261.084059 234.76818 
L 262.708957 238.850534 
L 263.521406 241.401332 
L 264.333854 240.42888 
L 265.146303 243.756913 
L 265.958752 243.815522 
L 266.771201 245.432583 
L 267.58365 250.239997 
L 268.396098 253.432998 
L 270.020996 261.621691 
L 270.833445 260.241582 
L 271.645894 262.174755 
L 272.458343 260.030323 
L 273.270791 262.069727 
L 274.08324 266.422583 
L 274.895689 268.583473 
L 275.708138 267.125912 
L 276.520587 271.270682 
L 277.333035 268.328115 
L 278.145484 268.740412 
L 278.957933 261.159911 
L 279.770382 262.022214 
L 280.582831 270.182654 
L 281.395279 271.736752 
L 282.207728 274.247303 
L 283.020177 278.653603 
L 283.832626 277.938413 
L 284.645075 275.813897 
L 285.457524 277.926726 
L 287.082421 283.970419 
L 287.89487 287.789142 
L 288.707319 289.215386 
L 289.519768 290.245308 
L 290.332216 292.71988 
L 291.144665 294.487534 
L 291.957114 297.281521 
L 292.769563 295.951726 
L 293.582012 295.314974 
L 294.39446 300.97412 
L 295.206909 302.178534 
L 296.019358 302.809794 
L 296.831807 305.423599 
L 297.644256 306.480244 
L 300.081602 310.461991 
L 300.894051 310.518477 
L 302.518949 314.239788 
L 304.143846 315.46751 
L 304.956295 316.625943 
L 305.768744 318.548108 
L 306.581193 319.266865 
L 307.393641 318.527776 
L 308.20609 319.267456 
L 309.018539 319.769943 
L 309.830988 319.980939 
L 312.268334 322.472187 
L 313.080783 323.060661 
L 313.893232 323.358126 
L 314.705681 324.512861 
L 315.51813 325.230086 
L 317.143027 327.146079 
L 317.955476 327.477028 
L 318.767925 328.591483 
L 319.580374 329.211406 
L 320.392822 329.622729 
L 322.01772 330.997717 
L 323.642618 332.193137 
L 326.079964 333.792624 
L 328.517311 335.15424 
L 330.954657 336.552919 
L 334.204452 338.481037 
L 335.016901 339.593522 
L 335.82935 340.389665 
L 336.641799 339.970003 
L 337.454248 340.473913 
L 338.266696 340.754439 
L 339.079145 341.460272 
L 340.704043 342.46054 
L 341.516492 343.228178 
L 342.32894 344.263222 
L 343.953838 345.10469 
L 345.578736 346.157592 
L 347.203633 347.387864 
L 348.016082 347.633701 
L 348.828531 348.486714 
L 349.64098 349.530413 
L 351.265877 350.621429 
L 353.703224 351.755963 
L 356.14057 352.82042 
L 361.827712 355.509162 
L 365.889956 357.246932 
L 378.889137 362.616929 
L 385.388727 365.065676 
L 389.450972 366.470756 
L 390.26342 366.953907 
L 391.888318 367.403048 
L 392.700767 367.70953 
L 393.513216 368.168389 
L 404.07505 371.761901 
L 404.887499 372.221317 
L 406.512397 372.429162 
L 407.324845 373.093972 
L 408.137294 374.287192 
L 408.949743 374.04444 
L 409.762192 373.531536 
L 410.574641 373.684274 
L 411.387089 374.289599 
L 413.011987 374.921899 
L 415.449334 375.747073 
L 416.261782 376.183389 
L 417.074231 377.101992 
L 417.88668 377.707832 
L 418.699129 377.672225 
L 419.511578 378.562235 
L 422.761373 379.602115 
L 426.011168 380.634325 
L 426.823617 381.492447 
L 429.260963 382.247687 
L 435.760554 384.168615 
L 447.947286 387.514058 
L 470.695853 393.483965 
L 478.007892 395.257232 
L 478.820341 396.130861 
L 479.63279 396.434432 
L 480.445239 395.67696 
L 481.257687 395.970847 
L 482.070136 396.790988 
L 482.882585 392.78753 
L 483.695034 393.562456 
L 484.507483 392.099708 
L 486.944829 392.676594 
L 488.569727 393.29121 
L 490.194624 393.888766 
L 491.007073 394.893772 
L 491.819522 393.446026 
L 492.631971 395.600339 
L 493.44442 396.895074 
L 494.256868 393.553505 
L 498.319112 394.634409 
L 499.131561 395.857459 
L 499.94401 395.890112 
L 500.756459 394.282001 
L 501.568908 394.072964 
L 502.381356 395.240687 
L 503.193805 395.872986 
L 504.006254 394.630809 
L 504.818703 389.689808 
L 505.631152 389.078562 
L 507.256049 390.385749 
L 508.068498 391.566473 
L 508.880947 394.870913 
L 509.693396 394.8364 
L 510.505845 395.250798 
L 511.318293 392.340195 
L 512.943191 395.99399 
L 513.75564 396.233033 
L 514.568089 385.059446 
L 515.380537 390.05109 
L 516.192986 388.685458 
L 517.005435 378.001074 
L 517.817884 389.017655 
L 518.630333 390.954001 
L 519.442782 389.078803 
L 520.25523 383.823287 
L 521.067679 390.386887 
L 521.880128 392.524491 
L 522.692577 391.451104 
L 523.505026 394.440571 
L 524.317474 395.139719 
L 525.129923 395.306715 
L 525.942372 396.920187 
L 526.754821 397.545713 
L 527.56727 399.654023 
L 528.379718 398.83978 
L 529.192167 401.068788 
L 530.004616 399.614487 
L 530.817065 400.409996 
L 532.441963 397.518039 
L 533.254411 402.05181 
L 534.06686 401.065002 
L 534.879309 402.210588 
L 535.691758 403.99319 
L 536.504207 407.017127 
L 537.316655 402.79451 
L 538.129104 394.860058 
L 538.941553 389.268625 
L 539.754002 399.292226 
L 540.566451 396.645461 
L 541.378899 395.059149 
L 542.191348 401.544071 
L 543.003797 400.075753 
L 543.816246 402.979878 
L 544.628695 394.383801 
L 545.441144 395.591104 
L 546.253592 397.859275 
L 547.066041 401.303322 
L 547.87849 399.746095 
L 548.690939 400.604218 
L 549.503388 399.95116 
L 550.315836 400.028733 
L 551.128285 402.356355 
L 551.940734 403.911536 
L 552.753183 407.505235 
L 554.37808 407.657403 
L 555.190529 404.026423 
L 556.002978 402.263627 
L 556.815427 410.457453 
L 557.627876 409.728617 
L 558.440325 406.660232 
L 559.252773 412.008333 
L 560.065222 410.635621 
L 560.877671 414.704559 
L 561.69012 412.201679 
L 562.502569 413.921382 
L 563.315017 414.991344 
L 564.127466 415.727818 
L 564.939915 417.948913 
L 565.752364 416.852996 
L 566.564813 420.042943 
L 567.377261 419.558632 
L 568.18971 420.353923 
L 569.002159 422.765371 
L 569.814608 424.28738 
L 570.627057 425.066239 
L 571.439506 425.589922 
L 572.251954 428.409017 
L 573.064403 427.805929 
L 574.689301 428.020269 
L 575.50175 429.962283 
L 576.314198 429.82271 
L 577.126647 430.624675 
L 577.939096 431.15187 
L 578.751545 431.524287 
L 579.563994 430.886779 
L 580.376442 430.493981 
L 581.188891 430.716916 
L 582.00134 431.523816 
L 582.813789 431.689105 
L 584.438687 432.652562 
L 585.251135 432.918857 
L 586.063584 433.469666 
L 586.876033 435.275062 
L 587.688482 435.061516 
L 588.500931 435.527979 
L 589.313379 435.536071 
L 590.938277 436.737487 
L 592.563175 438.124539 
L 593.375623 437.881831 
L 594.188072 438.992095 
L 596.625419 439.88594 
L 599.062765 440.509901 
L 600.687663 440.853971 
L 601.500112 441.16994 
L 602.31256 441.742963 
L 603.125009 442.467673 
L 603.937458 442.260671 
L 604.749907 442.524914 
L 607.187253 444.009017 
L 608.812151 444.975187 
L 609.6246 445.092569 
L 610.437049 445.466863 
L 611.249497 445.456527 
L 612.061946 445.60114 
L 613.686844 446.486105 
L 615.311741 446.804864 
L 617.749088 447.216784 
L 620.186434 447.722389 
L 621.811332 448.436693 
L 622.623781 448.529323 
L 623.43623 449.505582 
L 624.248678 449.276859 
L 625.873576 449.62152 
L 626.686025 449.920632 
L 627.498474 450.372432 
L 628.310922 450.692658 
L 630.748269 451.140885 
L 631.560718 451.277072 
L 632.373166 451.574778 
L 638.060308 452.667002 
L 642.122552 453.63685 
L 643.74745 454.385081 
L 645.372347 454.703315 
L 683.557442 459.384932 
L 709.555804 461.913982 
L 738.803961 464.466793 
L 767.239669 466.671161 
L 798.925173 468.899506 
L 833.860472 471.126238 
L 871.233117 473.283866 
L 912.668007 475.44939 
L 929.729432 476.28 
L 929.729432 476.28 
" clip-path="url(#pedd719bcc9)" style="fill: none; stroke: #1f77b4; stroke-width: 1.5; stroke-linecap: square"/>
   </g>
   <g id="patch_3">
    <path d="M 77.51125 498.96 
L 77.51125 -0 
" style="fill: none; stroke: #000000; stroke-width: 0.8; stroke-linejoin: miter; stroke-linecap: square"/>
   </g>
   <g id="patch_4">
    <path d="M 970.31125 498.96 
L 970.31125 -0 
" style="fill: none; stroke: #000000; stroke-width: 0.8; stroke-linejoin: miter; stroke-linecap: square"/>
   </g>
   <g id="patch_5">
    <path d="M 77.51125 498.96 
L 970.31125 498.96 
" style="fill: none; stroke: #000000; stroke-width: 0.8; stroke-linejoin: miter; stroke-linecap: square"/>
   </g>
   <g id="patch_6">
    <path d="M 77.51125 0 
L 970.31125 0 
" style="fill: none; stroke: #000000; stroke-width: 0.8; stroke-linejoin: miter; stroke-linecap: square"/>
   </g>
   <g id="legend_1">
    <g id="patch_7">
     <path d="M 941.71125 33.8 
L 952.11125 33.8 
Q 957.31125 33.8 957.31125 28.6 
L 957.31125 18.2 
Q 957.31125 13 952.11125 13 
L 941.71125 13 
Q 936.51125 13 936.51125 18.2 
L 936.51125 28.6 
Q 936.51125 33.8 941.71125 33.8 
z
" style="fill: #ffffff; opacity: 0.8; stroke: #cccccc; stroke-linejoin: miter"/>
    </g>
   </g>
  </g>
 </g>
 <defs>
  <clipPath id="pedd719bcc9">
   <rect x="77.51125" y="0" width="892.8" height="498.96"/>
  </clipPath>
 </defs>
</svg>
