<?xml version="1.0" encoding="utf-8" standalone="no"?>
<!DOCTYPE svg PUBLIC "-//W3C//DTD SVG 1.1//EN"
  "http://www.w3.org/Graphics/SVG/1.1/DTD/svg11.dtd">
<svg xmlns:xlink="http://www.w3.org/1999/xlink" width="986.85375pt" height="560.28625pt" viewBox="0 0 986.85375 560.28625" xmlns="http://www.w3.org/2000/svg" version="1.1">
 <metadata>
  <rdf:RDF xmlns:dc="http://purl.org/dc/elements/1.1/" xmlns:cc="http://creativecommons.org/ns#" xmlns:rdf="http://www.w3.org/1999/02/22-rdf-syntax-ns#">
   <cc:Work>
    <dc:type rdf:resource="http://purl.org/dc/dcmitype/StillImage"/>
    <dc:date>2024-06-24T20:52:59.296907</dc:date>
    <dc:format>image/svg+xml</dc:format>
    <dc:creator>
     <cc:Agent>
      <dc:title>Matplotlib v3.8.0, https://matplotlib.org/</dc:title>
     </cc:Agent>
    </dc:creator>
   </cc:Work>
  </rdf:RDF>
 </metadata>
 <defs>
  <style type="text/css">*{stroke-linejoin: round; stroke-linecap: butt}</style>
 </defs>
 <g id="figure_1">
  <g id="patch_1">
   <path d="M 0 560.28625 
L 986.85375 560.28625 
L 986.85375 0 
L 0 0 
z
" style="fill: #ffffff"/>
  </g>
  <g id="axes_1">
   <g id="patch_2">
    <path d="M 94.05375 498.96 
L 986.85375 498.96 
L 986.85375 0 
L 94.05375 0 
z
" style="fill: #ffffff"/>
   </g>
   <g id="matplotlib.axis_1">
    <g id="xtick_1">
     <g id="line2d_1">
      <defs>
       <path id="m3d92a3e650" d="M 0 0 
L 0 3.5 
" style="stroke: #000000; stroke-width: 0.8"/>
      </defs>
      <g>
       <use xlink:href="#m3d92a3e650" x="134.635568" y="498.96" style="stroke: #000000; stroke-width: 0.8"/>
      </g>
     </g>
     <g id="text_1">
      <!-- 0 -->
      <g transform="translate(126.364318 525.715937) scale(0.26 -0.26)">
       <defs>
        <path id="DejaVuSans-30" d="M 2034 4250 
Q 1547 4250 1301 3770 
Q 1056 3291 1056 2328 
Q 1056 1369 1301 889 
Q 1547 409 2034 409 
Q 2525 409 2770 889 
Q 3016 1369 3016 2328 
Q 3016 3291 2770 3770 
Q 2525 4250 2034 4250 
z
M 2034 4750 
Q 2819 4750 3233 4129 
Q 3647 3509 3647 2328 
Q 3647 1150 3233 529 
Q 2819 -91 2034 -91 
Q 1250 -91 836 529 
Q 422 1150 422 2328 
Q 422 3509 836 4129 
Q 1250 4750 2034 4750 
z
" transform="scale(0.015625)"/>
       </defs>
       <use xlink:href="#DejaVuSans-30"/>
      </g>
     </g>
    </g>
    <g id="xtick_2">
     <g id="line2d_2">
      <g>
       <use xlink:href="#m3d92a3e650" x="297.288146" y="498.96" style="stroke: #000000; stroke-width: 0.8"/>
      </g>
     </g>
     <g id="text_2">
      <!-- 100 -->
      <g transform="translate(272.474396 525.715937) scale(0.26 -0.26)">
       <defs>
        <path id="DejaVuSans-31" d="M 794 531 
L 1825 531 
L 1825 4091 
L 703 3866 
L 703 4441 
L 1819 4666 
L 2450 4666 
L 2450 531 
L 3481 531 
L 3481 0 
L 794 0 
L 794 531 
z
" transform="scale(0.015625)"/>
       </defs>
       <use xlink:href="#DejaVuSans-31"/>
       <use xlink:href="#DejaVuSans-30" x="63.623047"/>
       <use xlink:href="#DejaVuSans-30" x="127.246094"/>
      </g>
     </g>
    </g>
    <g id="xtick_3">
     <g id="line2d_3">
      <g>
       <use xlink:href="#m3d92a3e650" x="459.940724" y="498.96" style="stroke: #000000; stroke-width: 0.8"/>
      </g>
     </g>
     <g id="text_3">
      <!-- 200 -->
      <g transform="translate(435.126974 525.715937) scale(0.26 -0.26)">
       <defs>
        <path id="DejaVuSans-32" d="M 1228 531 
L 3431 531 
L 3431 0 
L 469 0 
L 469 531 
Q 828 903 1448 1529 
Q 2069 2156 2228 2338 
Q 2531 2678 2651 2914 
Q 2772 3150 2772 3378 
Q 2772 3750 2511 3984 
Q 2250 4219 1831 4219 
Q 1534 4219 1204 4116 
Q 875 4013 500 3803 
L 500 4441 
Q 881 4594 1212 4672 
Q 1544 4750 1819 4750 
Q 2544 4750 2975 4387 
Q 3406 4025 3406 3419 
Q 3406 3131 3298 2873 
Q 3191 2616 2906 2266 
Q 2828 2175 2409 1742 
Q 1991 1309 1228 531 
z
" transform="scale(0.015625)"/>
       </defs>
       <use xlink:href="#DejaVuSans-32"/>
       <use xlink:href="#DejaVuSans-30" x="63.623047"/>
       <use xlink:href="#DejaVuSans-30" x="127.246094"/>
      </g>
     </g>
    </g>
    <g id="xtick_4">
     <g id="line2d_4">
      <g>
       <use xlink:href="#m3d92a3e650" x="622.593302" y="498.96" style="stroke: #000000; stroke-width: 0.8"/>
      </g>
     </g>
     <g id="text_4">
      <!-- 300 -->
      <g transform="translate(597.779552 525.715937) scale(0.26 -0.26)">
       <defs>
        <path id="DejaVuSans-33" d="M 2597 2516 
Q 3050 2419 3304 2112 
Q 3559 1806 3559 1356 
Q 3559 666 3084 287 
Q 2609 -91 1734 -91 
Q 1441 -91 1130 -33 
Q 819 25 488 141 
L 488 750 
Q 750 597 1062 519 
Q 1375 441 1716 441 
Q 2309 441 2620 675 
Q 2931 909 2931 1356 
Q 2931 1769 2642 2001 
Q 2353 2234 1838 2234 
L 1294 2234 
L 1294 2753 
L 1863 2753 
Q 2328 2753 2575 2939 
Q 2822 3125 2822 3475 
Q 2822 3834 2567 4026 
Q 2313 4219 1838 4219 
Q 1578 4219 1281 4162 
Q 984 4106 628 3988 
L 628 4550 
Q 988 4650 1302 4700 
Q 1616 4750 1894 4750 
Q 2613 4750 3031 4423 
Q 3450 4097 3450 3541 
Q 3450 3153 3228 2886 
Q 3006 2619 2597 2516 
z
" transform="scale(0.015625)"/>
       </defs>
       <use xlink:href="#DejaVuSans-33"/>
       <use xlink:href="#DejaVuSans-30" x="63.623047"/>
       <use xlink:href="#DejaVuSans-30" x="127.246094"/>
      </g>
     </g>
    </g>
    <g id="xtick_5">
     <g id="line2d_5">
      <g>
       <use xlink:href="#m3d92a3e650" x="785.24588" y="498.96" style="stroke: #000000; stroke-width: 0.8"/>
      </g>
     </g>
     <g id="text_5">
      <!-- 400 -->
      <g transform="translate(760.43213 525.715937) scale(0.26 -0.26)">
       <defs>
        <path id="DejaVuSans-34" d="M 2419 4116 
L 825 1625 
L 2419 1625 
L 2419 4116 
z
M 2253 4666 
L 3047 4666 
L 3047 1625 
L 3713 1625 
L 3713 1100 
L 3047 1100 
L 3047 0 
L 2419 0 
L 2419 1100 
L 313 1100 
L 313 1709 
L 2253 4666 
z
" transform="scale(0.015625)"/>
       </defs>
       <use xlink:href="#DejaVuSans-34"/>
       <use xlink:href="#DejaVuSans-30" x="63.623047"/>
       <use xlink:href="#DejaVuSans-30" x="127.246094"/>
      </g>
     </g>
    </g>
    <g id="xtick_6">
     <g id="line2d_6">
      <g>
       <use xlink:href="#m3d92a3e650" x="947.898458" y="498.96" style="stroke: #000000; stroke-width: 0.8"/>
      </g>
     </g>
     <g id="text_6">
      <!-- 500 -->
      <g transform="translate(923.084708 525.715937) scale(0.26 -0.26)">
       <defs>
        <path id="DejaVuSans-35" d="M 691 4666 
L 3169 4666 
L 3169 4134 
L 1269 4134 
L 1269 2991 
Q 1406 3038 1543 3061 
Q 1681 3084 1819 3084 
Q 2600 3084 3056 2656 
Q 3513 2228 3513 1497 
Q 3513 744 3044 326 
Q 2575 -91 1722 -91 
Q 1428 -91 1123 -41 
Q 819 9 494 109 
L 494 744 
Q 775 591 1075 516 
Q 1375 441 1709 441 
Q 2250 441 2565 725 
Q 2881 1009 2881 1497 
Q 2881 1984 2565 2268 
Q 2250 2553 1709 2553 
Q 1456 2553 1204 2497 
Q 953 2441 691 2322 
L 691 4666 
z
" transform="scale(0.015625)"/>
       </defs>
       <use xlink:href="#DejaVuSans-35"/>
       <use xlink:href="#DejaVuSans-30" x="63.623047"/>
       <use xlink:href="#DejaVuSans-30" x="127.246094"/>
      </g>
     </g>
    </g>
    <g id="text_7">
     <!-- Epoch -->
     <g transform="translate(500.645312 554.879063) scale(0.26 -0.26)">
      <defs>
       <path id="DejaVuSans-45" d="M 628 4666 
L 3578 4666 
L 3578 4134 
L 1259 4134 
L 1259 2753 
L 3481 2753 
L 3481 2222 
L 1259 2222 
L 1259 531 
L 3634 531 
L 3634 0 
L 628 0 
L 628 4666 
z
" transform="scale(0.015625)"/>
       <path id="DejaVuSans-70" d="M 1159 525 
L 1159 -1331 
L 581 -1331 
L 581 3500 
L 1159 3500 
L 1159 2969 
Q 1341 3281 1617 3432 
Q 1894 3584 2278 3584 
Q 2916 3584 3314 3078 
Q 3713 2572 3713 1747 
Q 3713 922 3314 415 
Q 2916 -91 2278 -91 
Q 1894 -91 1617 61 
Q 1341 213 1159 525 
z
M 3116 1747 
Q 3116 2381 2855 2742 
Q 2594 3103 2138 3103 
Q 1681 3103 1420 2742 
Q 1159 2381 1159 1747 
Q 1159 1113 1420 752 
Q 1681 391 2138 391 
Q 2594 391 2855 752 
Q 3116 1113 3116 1747 
z
" transform="scale(0.015625)"/>
       <path id="DejaVuSans-6f" d="M 1959 3097 
Q 1497 3097 1228 2736 
Q 959 2375 959 1747 
Q 959 1119 1226 758 
Q 1494 397 1959 397 
Q 2419 397 2687 759 
Q 2956 1122 2956 1747 
Q 2956 2369 2687 2733 
Q 2419 3097 1959 3097 
z
M 1959 3584 
Q 2709 3584 3137 3096 
Q 3566 2609 3566 1747 
Q 3566 888 3137 398 
Q 2709 -91 1959 -91 
Q 1206 -91 779 398 
Q 353 888 353 1747 
Q 353 2609 779 3096 
Q 1206 3584 1959 3584 
z
" transform="scale(0.015625)"/>
       <path id="DejaVuSans-63" d="M 3122 3366 
L 3122 2828 
Q 2878 2963 2633 3030 
Q 2388 3097 2138 3097 
Q 1578 3097 1268 2742 
Q 959 2388 959 1747 
Q 959 1106 1268 751 
Q 1578 397 2138 397 
Q 2388 397 2633 464 
Q 2878 531 3122 666 
L 3122 134 
Q 2881 22 2623 -34 
Q 2366 -91 2075 -91 
Q 1284 -91 818 406 
Q 353 903 353 1747 
Q 353 2603 823 3093 
Q 1294 3584 2113 3584 
Q 2378 3584 2631 3529 
Q 2884 3475 3122 3366 
z
" transform="scale(0.015625)"/>
       <path id="DejaVuSans-68" d="M 3513 2113 
L 3513 0 
L 2938 0 
L 2938 2094 
Q 2938 2591 2744 2837 
Q 2550 3084 2163 3084 
Q 1697 3084 1428 2787 
Q 1159 2491 1159 1978 
L 1159 0 
L 581 0 
L 581 4863 
L 1159 4863 
L 1159 2956 
Q 1366 3272 1645 3428 
Q 1925 3584 2291 3584 
Q 2894 3584 3203 3211 
Q 3513 2838 3513 2113 
z
" transform="scale(0.015625)"/>
      </defs>
      <use xlink:href="#DejaVuSans-45"/>
      <use xlink:href="#DejaVuSans-70" x="63.183594"/>
      <use xlink:href="#DejaVuSans-6f" x="126.660156"/>
      <use xlink:href="#DejaVuSans-63" x="187.841797"/>
      <use xlink:href="#DejaVuSans-68" x="242.822266"/>
     </g>
    </g>
   </g>
   <g id="matplotlib.axis_2">
    <g id="ytick_1">
     <g id="line2d_7">
      <defs>
       <path id="maac775cca9" d="M 0 0 
L -3.5 0 
" style="stroke: #000000; stroke-width: 0.8"/>
      </defs>
      <g>
       <use xlink:href="#maac775cca9" x="94.05375" y="486.174887" style="stroke: #000000; stroke-width: 0.8"/>
      </g>
     </g>
     <g id="text_8">
      <!-- 0.30 -->
      <g transform="translate(29.163125 496.052856) scale(0.26 -0.26)">
       <defs>
        <path id="DejaVuSans-2e" d="M 684 794 
L 1344 794 
L 1344 0 
L 684 0 
L 684 794 
z
" transform="scale(0.015625)"/>
       </defs>
       <use xlink:href="#DejaVuSans-30"/>
       <use xlink:href="#DejaVuSans-2e" x="63.623047"/>
       <use xlink:href="#DejaVuSans-33" x="95.410156"/>
       <use xlink:href="#DejaVuSans-30" x="159.033203"/>
      </g>
     </g>
    </g>
    <g id="ytick_2">
     <g id="line2d_8">
      <g>
       <use xlink:href="#maac775cca9" x="94.05375" y="427.552575" style="stroke: #000000; stroke-width: 0.8"/>
      </g>
     </g>
     <g id="text_9">
      <!-- 0.35 -->
      <g transform="translate(29.163125 437.430543) scale(0.26 -0.26)">
       <use xlink:href="#DejaVuSans-30"/>
       <use xlink:href="#DejaVuSans-2e" x="63.623047"/>
       <use xlink:href="#DejaVuSans-33" x="95.410156"/>
       <use xlink:href="#DejaVuSans-35" x="159.033203"/>
      </g>
     </g>
    </g>
    <g id="ytick_3">
     <g id="line2d_9">
      <g>
       <use xlink:href="#maac775cca9" x="94.05375" y="368.930262" style="stroke: #000000; stroke-width: 0.8"/>
      </g>
     </g>
     <g id="text_10">
      <!-- 0.40 -->
      <g transform="translate(29.163125 378.808231) scale(0.26 -0.26)">
       <use xlink:href="#DejaVuSans-30"/>
       <use xlink:href="#DejaVuSans-2e" x="63.623047"/>
       <use xlink:href="#DejaVuSans-34" x="95.410156"/>
       <use xlink:href="#DejaVuSans-30" x="159.033203"/>
      </g>
     </g>
    </g>
    <g id="ytick_4">
     <g id="line2d_10">
      <g>
       <use xlink:href="#maac775cca9" x="94.05375" y="310.30795" style="stroke: #000000; stroke-width: 0.8"/>
      </g>
     </g>
     <g id="text_11">
      <!-- 0.45 -->
      <g transform="translate(29.163125 320.185919) scale(0.26 -0.26)">
       <use xlink:href="#DejaVuSans-30"/>
       <use xlink:href="#DejaVuSans-2e" x="63.623047"/>
       <use xlink:href="#DejaVuSans-34" x="95.410156"/>
       <use xlink:href="#DejaVuSans-35" x="159.033203"/>
      </g>
     </g>
    </g>
    <g id="ytick_5">
     <g id="line2d_11">
      <g>
       <use xlink:href="#maac775cca9" x="94.05375" y="251.685637" style="stroke: #000000; stroke-width: 0.8"/>
      </g>
     </g>
     <g id="text_12">
      <!-- 0.50 -->
      <g transform="translate(29.163125 261.563606) scale(0.26 -0.26)">
       <use xlink:href="#DejaVuSans-30"/>
       <use xlink:href="#DejaVuSans-2e" x="63.623047"/>
       <use xlink:href="#DejaVuSans-35" x="95.410156"/>
       <use xlink:href="#DejaVuSans-30" x="159.033203"/>
      </g>
     </g>
    </g>
    <g id="ytick_6">
     <g id="line2d_12">
      <g>
       <use xlink:href="#maac775cca9" x="94.05375" y="193.063325" style="stroke: #000000; stroke-width: 0.8"/>
      </g>
     </g>
     <g id="text_13">
      <!-- 0.55 -->
      <g transform="translate(29.163125 202.941294) scale(0.26 -0.26)">
       <use xlink:href="#DejaVuSans-30"/>
       <use xlink:href="#DejaVuSans-2e" x="63.623047"/>
       <use xlink:href="#DejaVuSans-35" x="95.410156"/>
       <use xlink:href="#DejaVuSans-35" x="159.033203"/>
      </g>
     </g>
    </g>
    <g id="ytick_7">
     <g id="line2d_13">
      <g>
       <use xlink:href="#maac775cca9" x="94.05375" y="134.441013" style="stroke: #000000; stroke-width: 0.8"/>
      </g>
     </g>
     <g id="text_14">
      <!-- 0.60 -->
      <g transform="translate(29.163125 144.318981) scale(0.26 -0.26)">
       <defs>
        <path id="DejaVuSans-36" d="M 2113 2584 
Q 1688 2584 1439 2293 
Q 1191 2003 1191 1497 
Q 1191 994 1439 701 
Q 1688 409 2113 409 
Q 2538 409 2786 701 
Q 3034 994 3034 1497 
Q 3034 2003 2786 2293 
Q 2538 2584 2113 2584 
z
M 3366 4563 
L 3366 3988 
Q 3128 4100 2886 4159 
Q 2644 4219 2406 4219 
Q 1781 4219 1451 3797 
Q 1122 3375 1075 2522 
Q 1259 2794 1537 2939 
Q 1816 3084 2150 3084 
Q 2853 3084 3261 2657 
Q 3669 2231 3669 1497 
Q 3669 778 3244 343 
Q 2819 -91 2113 -91 
Q 1303 -91 875 529 
Q 447 1150 447 2328 
Q 447 3434 972 4092 
Q 1497 4750 2381 4750 
Q 2619 4750 2861 4703 
Q 3103 4656 3366 4563 
z
" transform="scale(0.015625)"/>
       </defs>
       <use xlink:href="#DejaVuSans-30"/>
       <use xlink:href="#DejaVuSans-2e" x="63.623047"/>
       <use xlink:href="#DejaVuSans-36" x="95.410156"/>
       <use xlink:href="#DejaVuSans-30" x="159.033203"/>
      </g>
     </g>
    </g>
    <g id="ytick_8">
     <g id="line2d_14">
      <g>
       <use xlink:href="#maac775cca9" x="94.05375" y="75.8187" style="stroke: #000000; stroke-width: 0.8"/>
      </g>
     </g>
     <g id="text_15">
      <!-- 0.65 -->
      <g transform="translate(29.163125 85.696669) scale(0.26 -0.26)">
       <use xlink:href="#DejaVuSans-30"/>
       <use xlink:href="#DejaVuSans-2e" x="63.623047"/>
       <use xlink:href="#DejaVuSans-36" x="95.410156"/>
       <use xlink:href="#DejaVuSans-35" x="159.033203"/>
      </g>
     </g>
    </g>
    <g id="ytick_9">
     <g id="line2d_15">
      <g>
       <use xlink:href="#maac775cca9" x="94.05375" y="17.196388" style="stroke: #000000; stroke-width: 0.8"/>
      </g>
     </g>
     <g id="text_16">
      <!-- 0.70 -->
      <g transform="translate(29.163125 27.074357) scale(0.26 -0.26)">
       <defs>
        <path id="DejaVuSans-37" d="M 525 4666 
L 3525 4666 
L 3525 4397 
L 1831 0 
L 1172 0 
L 2766 4134 
L 525 4134 
L 525 4666 
z
" transform="scale(0.015625)"/>
       </defs>
       <use xlink:href="#DejaVuSans-30"/>
       <use xlink:href="#DejaVuSans-2e" x="63.623047"/>
       <use xlink:href="#DejaVuSans-37" x="95.410156"/>
       <use xlink:href="#DejaVuSans-30" x="159.033203"/>
      </g>
     </g>
    </g>
    <g id="text_17">
     <!-- Loss -->
     <g transform="translate(19.755938 277.994687) rotate(-90) scale(0.26 -0.26)">
      <defs>
       <path id="DejaVuSans-4c" d="M 628 4666 
L 1259 4666 
L 1259 531 
L 3531 531 
L 3531 0 
L 628 0 
L 628 4666 
z
" transform="scale(0.015625)"/>
       <path id="DejaVuSans-73" d="M 2834 3397 
L 2834 2853 
Q 2591 2978 2328 3040 
Q 2066 3103 1784 3103 
Q 1356 3103 1142 2972 
Q 928 2841 928 2578 
Q 928 2378 1081 2264 
Q 1234 2150 1697 2047 
L 1894 2003 
Q 2506 1872 2764 1633 
Q 3022 1394 3022 966 
Q 3022 478 2636 193 
Q 2250 -91 1575 -91 
Q 1294 -91 989 -36 
Q 684 19 347 128 
L 347 722 
Q 666 556 975 473 
Q 1284 391 1588 391 
Q 1994 391 2212 530 
Q 2431 669 2431 922 
Q 2431 1156 2273 1281 
Q 2116 1406 1581 1522 
L 1381 1569 
Q 847 1681 609 1914 
Q 372 2147 372 2553 
Q 372 3047 722 3315 
Q 1072 3584 1716 3584 
Q 2034 3584 2315 3537 
Q 2597 3491 2834 3397 
z
" transform="scale(0.015625)"/>
      </defs>
      <use xlink:href="#DejaVuSans-4c"/>
      <use xlink:href="#DejaVuSans-6f" x="53.962891"/>
      <use xlink:href="#DejaVuSans-73" x="115.144531"/>
      <use xlink:href="#DejaVuSans-73" x="167.244141"/>
     </g>
    </g>
   </g>
   <g id="line2d_16">
    <path d="M 134.635568 22.68 
L 136.262094 41.373837 
L 137.88862 55.522818 
L 139.515146 61.652137 
L 141.141671 77.765675 
L 142.768197 82.839059 
L 144.394723 84.056774 
L 146.021249 86.637842 
L 147.647774 87.366305 
L 149.2743 89.665953 
L 150.900826 93.022585 
L 152.527352 92.15128 
L 155.780403 101.552603 
L 157.406929 105.01406 
L 159.033455 105.813315 
L 160.659981 109.623279 
L 162.286506 112.650132 
L 163.913032 113.137847 
L 165.539558 117.341464 
L 167.166084 122.398565 
L 168.79261 127.873497 
L 170.419135 128.728659 
L 172.045661 130.316266 
L 173.672187 127.903966 
L 175.298713 127.33323 
L 176.925238 129.750911 
L 180.17829 135.690217 
L 181.804816 135.708946 
L 183.431342 144.350918 
L 185.057867 145.58848 
L 186.684393 148.691296 
L 188.310919 147.523896 
L 189.937445 155.497365 
L 191.56397 154.635355 
L 193.190496 165.347338 
L 194.817022 165.235874 
L 196.443548 161.587549 
L 198.070074 166.497406 
L 199.696599 169.657037 
L 201.323125 174.274922 
L 202.949651 175.330299 
L 206.202702 183.117668 
L 207.829228 185.619278 
L 209.455754 187.895096 
L 211.08228 190.938232 
L 212.708806 190.055676 
L 214.335331 181.326211 
L 215.961857 185.33108 
L 217.588383 187.834647 
L 219.214909 192.194802 
L 220.841434 194.392211 
L 222.46796 197.507256 
L 224.094486 201.202822 
L 225.721012 202.56876 
L 227.347538 203.07115 
L 228.974063 204.355115 
L 230.600589 206.729818 
L 232.227115 210.457739 
L 233.853641 211.912918 
L 235.480166 213.163968 
L 237.106692 215.666626 
L 238.733218 219.602311 
L 240.359744 220.988864 
L 241.98627 218.109605 
L 243.612795 217.437538 
L 245.239321 221.933266 
L 246.865847 225.077383 
L 250.118898 229.016352 
L 251.745424 229.972565 
L 253.37195 228.948006 
L 254.998476 229.850618 
L 256.625002 232.091984 
L 258.251527 232.621908 
L 259.878053 232.470541 
L 261.504579 232.913741 
L 263.131105 234.443205 
L 264.75763 234.660123 
L 266.384156 237.670204 
L 268.010682 238.611671 
L 269.637208 242.027983 
L 271.263734 242.847783 
L 272.890259 245.305787 
L 274.516785 247.382856 
L 276.143311 248.820844 
L 277.769837 248.770458 
L 281.022888 252.79444 
L 282.649414 255.158241 
L 284.27594 258.328284 
L 287.528991 261.306044 
L 289.155517 264.63329 
L 290.782043 265.971449 
L 292.408569 267.704693 
L 294.035095 268.781489 
L 295.66162 270.044978 
L 297.288146 270.343799 
L 298.914672 269.066334 
L 300.541198 270.611627 
L 302.167723 277.930743 
L 303.794249 280.563699 
L 305.420775 280.47638 
L 308.673827 283.279572 
L 310.300352 287.16183 
L 311.926878 290.005589 
L 313.553404 293.115324 
L 316.806455 295.580595 
L 318.432981 297.338543 
L 320.059507 301.364446 
L 321.686033 299.017278 
L 323.312559 301.719174 
L 324.939084 297.325544 
L 326.56561 301.863972 
L 328.192136 304.495984 
L 329.818662 304.225466 
L 331.445187 305.428786 
L 333.071713 308.115866 
L 334.698239 306.597583 
L 336.324765 310.240701 
L 337.951291 311.807449 
L 339.577816 313.547611 
L 341.204342 311.855319 
L 342.830868 313.552293 
L 344.457394 311.859616 
L 346.083919 314.823784 
L 352.590023 318.969328 
L 354.216548 319.067234 
L 355.843074 320.864911 
L 357.4696 321.891251 
L 359.096126 324.877676 
L 360.722651 325.953145 
L 362.349177 328.385501 
L 363.975703 329.587737 
L 367.228755 331.594679 
L 375.361383 336.404882 
L 380.240961 339.68618 
L 381.867487 338.302841 
L 383.494012 339.238927 
L 385.120538 339.750228 
L 386.747064 340.670416 
L 388.37359 345.455042 
L 391.626641 347.182555 
L 393.253167 347.572888 
L 398.132744 350.020234 
L 399.75927 353.11117 
L 403.012322 354.768242 
L 404.638847 356.449108 
L 407.891899 358.090561 
L 409.518425 351.827694 
L 411.144951 350.81299 
L 412.771476 354.71555 
L 416.024528 356.581537 
L 417.651054 358.263277 
L 419.277579 358.809275 
L 424.157157 361.20365 
L 425.783683 362.83724 
L 427.410208 360.860208 
L 432.289786 363.186132 
L 433.916311 364.592602 
L 442.04894 368.406131 
L 443.675466 370.356747 
L 448.555043 372.666877 
L 450.181569 373.414733 
L 451.808095 371.78212 
L 455.061147 373.270144 
L 456.687672 373.375458 
L 458.314198 374.010173 
L 459.940724 374.767742 
L 461.56725 373.663832 
L 463.193776 372.97342 
L 464.820301 367.611663 
L 466.446827 372.22553 
L 468.073353 372.935369 
L 469.699879 370.113379 
L 471.326404 370.815146 
L 472.95293 371.384799 
L 474.579456 372.083212 
L 476.205982 367.932707 
L 477.832508 365.710315 
L 479.459033 366.350271 
L 481.085559 364.253739 
L 484.338611 365.561883 
L 485.965136 365.175219 
L 490.844714 367.15281 
L 492.47124 367.41627 
L 494.097765 368.141239 
L 495.724291 367.366757 
L 497.350817 369.719097 
L 498.977343 371.00156 
L 500.603868 372.495733 
L 502.230394 373.162349 
L 503.85692 363.120442 
L 510.363023 365.836314 
L 511.989549 366.671559 
L 515.2426 367.993401 
L 516.869126 359.399264 
L 520.122178 360.661216 
L 521.748704 361.755762 
L 523.375229 362.379225 
L 526.628281 364.469922 
L 529.881332 365.703781 
L 531.507858 370.173932 
L 534.76091 371.576035 
L 536.387436 372.563136 
L 539.640487 373.895704 
L 541.267013 381.495367 
L 542.893539 381.715499 
L 544.520064 382.207477 
L 549.399642 384.123466 
L 551.026168 384.996273 
L 552.652693 385.639653 
L 554.279219 380.062761 
L 557.532271 381.335334 
L 559.158796 382.463669 
L 562.411848 383.812136 
L 567.291425 386.2041 
L 568.917951 395.544869 
L 570.544477 396.261137 
L 572.171003 396.178465 
L 575.424054 404.090296 
L 577.05058 403.171122 
L 578.677106 405.239037 
L 580.303632 397.720579 
L 581.930157 398.331463 
L 583.556683 399.475661 
L 585.183209 397.418264 
L 586.809735 398.014123 
L 588.43626 401.395668 
L 590.062786 403.584831 
L 591.689312 403.485422 
L 593.315838 404.455576 
L 594.942364 402.299084 
L 596.568889 401.901693 
L 598.195415 402.503003 
L 599.821941 404.735598 
L 601.448467 407.645362 
L 603.074992 408.243597 
L 604.701518 406.301682 
L 606.328044 406.896353 
L 607.95457 404.646602 
L 616.087199 407.668004 
L 617.713724 413.465867 
L 632.352457 418.645473 
L 633.978982 423.024742 
L 635.605508 433.05704 
L 645.364663 436.539252 
L 646.991189 437.363525 
L 650.24424 438.413695 
L 655.123817 440.171748 
L 656.750343 438.788339 
L 661.629921 440.608379 
L 664.882972 442.096822 
L 666.509498 442.993109 
L 669.762549 444.259254 
L 674.642127 445.932364 
L 676.268653 441.345577 
L 677.895178 442.536667 
L 679.521704 442.811518 
L 681.14823 449.485332 
L 682.774756 450.193145 
L 684.401281 452.035197 
L 687.654333 452.988335 
L 689.280859 453.56557 
L 690.907385 455.183647 
L 695.786962 456.969932 
L 697.413488 456.608461 
L 699.040013 457.257432 
L 700.666539 457.487627 
L 702.293065 463.934916 
L 703.919591 464.507189 
L 705.546117 466.531707 
L 708.799168 467.767732 
L 710.425694 467.326349 
L 713.678745 476.28 
L 715.305271 470.903952 
L 718.558323 472.086062 
L 720.184849 471.149347 
L 721.811374 470.887984 
L 725.064426 467.888036 
L 726.690952 468.63687 
L 728.317477 469.227313 
L 729.944003 453.501977 
L 731.570529 454.065829 
L 733.197055 455.116175 
L 734.823581 455.668008 
L 736.450106 452.614844 
L 738.076632 456.082835 
L 741.329684 457.227592 
L 742.956209 454.684681 
L 744.582735 455.603925 
L 746.209261 453.44897 
L 747.835787 454.051958 
L 749.462313 446.53273 
L 751.088838 444.460343 
L 752.715364 438.759338 
L 754.34189 440.22769 
L 755.968416 437.856132 
L 757.594941 442.90275 
L 759.221467 445.692734 
L 760.847993 446.205327 
L 762.474519 453.094732 
L 764.101045 443.650501 
L 765.72757 444.127279 
L 767.354096 444.853506 
L 773.860199 447.023276 
L 775.486725 447.959467 
L 777.113251 449.149229 
L 778.739777 453.42182 
L 781.992828 448.282083 
L 783.619354 443.07075 
L 785.24588 439.764119 
L 786.872405 446.30285 
L 790.125457 447.029041 
L 791.751983 438.517192 
L 793.378509 432.480398 
L 795.005034 439.356001 
L 796.63156 437.572685 
L 798.258086 433.534622 
L 803.137663 434.867296 
L 804.764189 436.045422 
L 806.390715 425.353426 
L 808.017241 425.330295 
L 809.643766 418.9676 
L 811.270292 414.754898 
L 812.896818 415.186078 
L 814.523344 408.828031 
L 816.14987 410.33356 
L 817.776395 410.871417 
L 819.402921 406.914837 
L 821.029447 416.450021 
L 822.655973 416.377063 
L 825.909024 417.229848 
L 827.53555 416.051128 
L 829.162076 413.962527 
L 830.788602 415.943193 
L 832.415127 416.545552 
L 834.041653 411.082604 
L 835.668179 425.486344 
L 837.294705 419.06037 
L 838.92123 419.63495 
L 840.547756 429.25361 
L 842.174282 429.272408 
L 843.800808 430.17785 
L 845.427334 430.186796 
L 847.053859 426.710838 
L 848.680385 433.133877 
L 850.306911 434.487375 
L 851.933437 447.882036 
L 853.559962 452.642413 
L 855.186488 453.80541 
L 856.813014 448.986855 
L 858.43954 449.47754 
L 860.066066 440.815373 
L 861.692591 434.55939 
L 863.319117 435.08631 
L 864.945643 435.240752 
L 866.572169 433.543637 
L 871.451746 435.232191 
L 873.078272 421.032825 
L 874.704798 421.514844 
L 879.584375 423.366436 
L 881.210901 422.294986 
L 882.837426 423.1216 
L 884.463952 419.447174 
L 886.090478 412.85687 
L 887.717004 413.430995 
L 889.34353 412.731045 
L 890.970055 412.845374 
L 892.596581 414.526555 
L 894.223107 413.903336 
L 895.849633 411.546838 
L 897.476158 411.147246 
L 902.355736 413.112677 
L 903.982262 415.106516 
L 905.608787 416.44761 
L 912.11489 419.154852 
L 913.741416 421.314873 
L 925.127097 425.95575 
L 926.753622 428.69699 
L 930.006674 430.154335 
L 931.6332 430.791914 
L 933.259726 437.753543 
L 934.886251 440.194914 
L 936.512777 440.879211 
L 938.139303 435.628708 
L 939.765829 437.820631 
L 941.392354 439.473195 
L 943.01888 447.274227 
L 944.645406 448.508365 
L 946.271932 442.282467 
L 946.271932 442.282467 
" clip-path="url(#p1e76c0e637)" style="fill: none; stroke: #1f77b4; stroke-width: 1.5; stroke-linecap: square"/>
   </g>
   <g id="patch_3">
    <path d="M 94.05375 498.96 
L 94.05375 0 
" style="fill: none; stroke: #000000; stroke-width: 0.8; stroke-linejoin: miter; stroke-linecap: square"/>
   </g>
   <g id="patch_4">
    <path d="M 986.85375 498.96 
L 986.85375 0 
" style="fill: none; stroke: #000000; stroke-width: 0.8; stroke-linejoin: miter; stroke-linecap: square"/>
   </g>
   <g id="patch_5">
    <path d="M 94.05375 498.96 
L 986.85375 498.96 
" style="fill: none; stroke: #000000; stroke-width: 0.8; stroke-linejoin: miter; stroke-linecap: square"/>
   </g>
   <g id="patch_6">
    <path d="M 94.05375 0 
L 986.85375 0 
" style="fill: none; stroke: #000000; stroke-width: 0.8; stroke-linejoin: miter; stroke-linecap: square"/>
   </g>
   <g id="legend_1">
    <g id="patch_7">
     <path d="M 958.25375 33.8 
L 968.65375 33.8 
Q 973.85375 33.8 973.85375 28.6 
L 973.85375 18.2 
Q 973.85375 13 968.65375 13 
L 958.25375 13 
Q 953.05375 13 953.05375 18.2 
L 953.05375 28.6 
Q 953.05375 33.8 958.25375 33.8 
z
" style="fill: #ffffff; opacity: 0.8; stroke: #cccccc; stroke-linejoin: miter"/>
    </g>
   </g>
  </g>
 </g>
 <defs>
  <clipPath id="p1e76c0e637">
   <rect x="94.05375" y="0" width="892.8" height="498.96"/>
  </clipPath>
 </defs>
</svg>
