<?xml version="1.0" encoding="utf-8" standalone="no"?>
<!DOCTYPE svg PUBLIC "-//W3C//DTD SVG 1.1//EN"
  "http://www.w3.org/Graphics/SVG/1.1/DTD/svg11.dtd">
<svg xmlns:xlink="http://www.w3.org/1999/xlink" width="986.85375pt" height="560.28625pt" viewBox="0 0 986.85375 560.28625" xmlns="http://www.w3.org/2000/svg" version="1.1">
 <metadata>
  <rdf:RDF xmlns:dc="http://purl.org/dc/elements/1.1/" xmlns:cc="http://creativecommons.org/ns#" xmlns:rdf="http://www.w3.org/1999/02/22-rdf-syntax-ns#">
   <cc:Work>
    <dc:type rdf:resource="http://purl.org/dc/dcmitype/StillImage"/>
    <dc:date>2024-07-08T23:59:44.546804</dc:date>
    <dc:format>image/svg+xml</dc:format>
    <dc:creator>
     <cc:Agent>
      <dc:title>Matplotlib v3.8.0, https://matplotlib.org/</dc:title>
     </cc:Agent>
    </dc:creator>
   </cc:Work>
  </rdf:RDF>
 </metadata>
 <defs>
  <style type="text/css">*{stroke-linejoin: round; stroke-linecap: butt}</style>
 </defs>
 <g id="figure_1">
  <g id="patch_1">
   <path d="M 0 560.28625 
L 986.85375 560.28625 
L 986.85375 0 
L 0 0 
z
" style="fill: #ffffff"/>
  </g>
  <g id="axes_1">
   <g id="patch_2">
    <path d="M 94.05375 498.96 
L 986.85375 498.96 
L 986.85375 0 
L 94.05375 0 
z
" style="fill: #ffffff"/>
   </g>
   <g id="matplotlib.axis_1">
    <g id="xtick_1">
     <g id="line2d_1">
      <defs>
       <path id="m0c6ea25ba7" d="M 0 0 
L 0 3.5 
" style="stroke: #000000; stroke-width: 0.8"/>
      </defs>
      <g>
       <use xlink:href="#m0c6ea25ba7" x="134.635568" y="498.96" style="stroke: #000000; stroke-width: 0.8"/>
      </g>
     </g>
     <g id="text_1">
      <!-- 0 -->
      <g transform="translate(126.364318 525.715937) scale(0.26 -0.26)">
       <defs>
        <path id="DejaVuSans-30" d="M 2034 4250 
Q 1547 4250 1301 3770 
Q 1056 3291 1056 2328 
Q 1056 1369 1301 889 
Q 1547 409 2034 409 
Q 2525 409 2770 889 
Q 3016 1369 3016 2328 
Q 3016 3291 2770 3770 
Q 2525 4250 2034 4250 
z
M 2034 4750 
Q 2819 4750 3233 4129 
Q 3647 3509 3647 2328 
Q 3647 1150 3233 529 
Q 2819 -91 2034 -91 
Q 1250 -91 836 529 
Q 422 1150 422 2328 
Q 422 3509 836 4129 
Q 1250 4750 2034 4750 
z
" transform="scale(0.015625)"/>
       </defs>
       <use xlink:href="#DejaVuSans-30"/>
      </g>
     </g>
    </g>
    <g id="xtick_2">
     <g id="line2d_2">
      <g>
       <use xlink:href="#m0c6ea25ba7" x="297.614758" y="498.96" style="stroke: #000000; stroke-width: 0.8"/>
      </g>
     </g>
     <g id="text_2">
      <!-- 50 -->
      <g transform="translate(281.072258 525.715937) scale(0.26 -0.26)">
       <defs>
        <path id="DejaVuSans-35" d="M 691 4666 
L 3169 4666 
L 3169 4134 
L 1269 4134 
L 1269 2991 
Q 1406 3038 1543 3061 
Q 1681 3084 1819 3084 
Q 2600 3084 3056 2656 
Q 3513 2228 3513 1497 
Q 3513 744 3044 326 
Q 2575 -91 1722 -91 
Q 1428 -91 1123 -41 
Q 819 9 494 109 
L 494 744 
Q 775 591 1075 516 
Q 1375 441 1709 441 
Q 2250 441 2565 725 
Q 2881 1009 2881 1497 
Q 2881 1984 2565 2268 
Q 2250 2553 1709 2553 
Q 1456 2553 1204 2497 
Q 953 2441 691 2322 
L 691 4666 
z
" transform="scale(0.015625)"/>
       </defs>
       <use xlink:href="#DejaVuSans-35"/>
       <use xlink:href="#DejaVuSans-30" x="63.623047"/>
      </g>
     </g>
    </g>
    <g id="xtick_3">
     <g id="line2d_3">
      <g>
       <use xlink:href="#m0c6ea25ba7" x="460.593947" y="498.96" style="stroke: #000000; stroke-width: 0.8"/>
      </g>
     </g>
     <g id="text_3">
      <!-- 100 -->
      <g transform="translate(435.780197 525.715937) scale(0.26 -0.26)">
       <defs>
        <path id="DejaVuSans-31" d="M 794 531 
L 1825 531 
L 1825 4091 
L 703 3866 
L 703 4441 
L 1819 4666 
L 2450 4666 
L 2450 531 
L 3481 531 
L 3481 0 
L 794 0 
L 794 531 
z
" transform="scale(0.015625)"/>
       </defs>
       <use xlink:href="#DejaVuSans-31"/>
       <use xlink:href="#DejaVuSans-30" x="63.623047"/>
       <use xlink:href="#DejaVuSans-30" x="127.246094"/>
      </g>
     </g>
    </g>
    <g id="xtick_4">
     <g id="line2d_4">
      <g>
       <use xlink:href="#m0c6ea25ba7" x="623.573137" y="498.96" style="stroke: #000000; stroke-width: 0.8"/>
      </g>
     </g>
     <g id="text_4">
      <!-- 150 -->
      <g transform="translate(598.759387 525.715937) scale(0.26 -0.26)">
       <use xlink:href="#DejaVuSans-31"/>
       <use xlink:href="#DejaVuSans-35" x="63.623047"/>
       <use xlink:href="#DejaVuSans-30" x="127.246094"/>
      </g>
     </g>
    </g>
    <g id="xtick_5">
     <g id="line2d_5">
      <g>
       <use xlink:href="#m0c6ea25ba7" x="786.552326" y="498.96" style="stroke: #000000; stroke-width: 0.8"/>
      </g>
     </g>
     <g id="text_5">
      <!-- 200 -->
      <g transform="translate(761.738576 525.715937) scale(0.26 -0.26)">
       <defs>
        <path id="DejaVuSans-32" d="M 1228 531 
L 3431 531 
L 3431 0 
L 469 0 
L 469 531 
Q 828 903 1448 1529 
Q 2069 2156 2228 2338 
Q 2531 2678 2651 2914 
Q 2772 3150 2772 3378 
Q 2772 3750 2511 3984 
Q 2250 4219 1831 4219 
Q 1534 4219 1204 4116 
Q 875 4013 500 3803 
L 500 4441 
Q 881 4594 1212 4672 
Q 1544 4750 1819 4750 
Q 2544 4750 2975 4387 
Q 3406 4025 3406 3419 
Q 3406 3131 3298 2873 
Q 3191 2616 2906 2266 
Q 2828 2175 2409 1742 
Q 1991 1309 1228 531 
z
" transform="scale(0.015625)"/>
       </defs>
       <use xlink:href="#DejaVuSans-32"/>
       <use xlink:href="#DejaVuSans-30" x="63.623047"/>
       <use xlink:href="#DejaVuSans-30" x="127.246094"/>
      </g>
     </g>
    </g>
    <g id="xtick_6">
     <g id="line2d_6">
      <g>
       <use xlink:href="#m0c6ea25ba7" x="949.531516" y="498.96" style="stroke: #000000; stroke-width: 0.8"/>
      </g>
     </g>
     <g id="text_6">
      <!-- 250 -->
      <g transform="translate(924.717766 525.715937) scale(0.26 -0.26)">
       <use xlink:href="#DejaVuSans-32"/>
       <use xlink:href="#DejaVuSans-35" x="63.623047"/>
       <use xlink:href="#DejaVuSans-30" x="127.246094"/>
      </g>
     </g>
    </g>
    <g id="text_7">
     <!-- Epoch -->
     <g transform="translate(500.645312 554.879063) scale(0.26 -0.26)">
      <defs>
       <path id="DejaVuSans-45" d="M 628 4666 
L 3578 4666 
L 3578 4134 
L 1259 4134 
L 1259 2753 
L 3481 2753 
L 3481 2222 
L 1259 2222 
L 1259 531 
L 3634 531 
L 3634 0 
L 628 0 
L 628 4666 
z
" transform="scale(0.015625)"/>
       <path id="DejaVuSans-70" d="M 1159 525 
L 1159 -1331 
L 581 -1331 
L 581 3500 
L 1159 3500 
L 1159 2969 
Q 1341 3281 1617 3432 
Q 1894 3584 2278 3584 
Q 2916 3584 3314 3078 
Q 3713 2572 3713 1747 
Q 3713 922 3314 415 
Q 2916 -91 2278 -91 
Q 1894 -91 1617 61 
Q 1341 213 1159 525 
z
M 3116 1747 
Q 3116 2381 2855 2742 
Q 2594 3103 2138 3103 
Q 1681 3103 1420 2742 
Q 1159 2381 1159 1747 
Q 1159 1113 1420 752 
Q 1681 391 2138 391 
Q 2594 391 2855 752 
Q 3116 1113 3116 1747 
z
" transform="scale(0.015625)"/>
       <path id="DejaVuSans-6f" d="M 1959 3097 
Q 1497 3097 1228 2736 
Q 959 2375 959 1747 
Q 959 1119 1226 758 
Q 1494 397 1959 397 
Q 2419 397 2687 759 
Q 2956 1122 2956 1747 
Q 2956 2369 2687 2733 
Q 2419 3097 1959 3097 
z
M 1959 3584 
Q 2709 3584 3137 3096 
Q 3566 2609 3566 1747 
Q 3566 888 3137 398 
Q 2709 -91 1959 -91 
Q 1206 -91 779 398 
Q 353 888 353 1747 
Q 353 2609 779 3096 
Q 1206 3584 1959 3584 
z
" transform="scale(0.015625)"/>
       <path id="DejaVuSans-63" d="M 3122 3366 
L 3122 2828 
Q 2878 2963 2633 3030 
Q 2388 3097 2138 3097 
Q 1578 3097 1268 2742 
Q 959 2388 959 1747 
Q 959 1106 1268 751 
Q 1578 397 2138 397 
Q 2388 397 2633 464 
Q 2878 531 3122 666 
L 3122 134 
Q 2881 22 2623 -34 
Q 2366 -91 2075 -91 
Q 1284 -91 818 406 
Q 353 903 353 1747 
Q 353 2603 823 3093 
Q 1294 3584 2113 3584 
Q 2378 3584 2631 3529 
Q 2884 3475 3122 3366 
z
" transform="scale(0.015625)"/>
       <path id="DejaVuSans-68" d="M 3513 2113 
L 3513 0 
L 2938 0 
L 2938 2094 
Q 2938 2591 2744 2837 
Q 2550 3084 2163 3084 
Q 1697 3084 1428 2787 
Q 1159 2491 1159 1978 
L 1159 0 
L 581 0 
L 581 4863 
L 1159 4863 
L 1159 2956 
Q 1366 3272 1645 3428 
Q 1925 3584 2291 3584 
Q 2894 3584 3203 3211 
Q 3513 2838 3513 2113 
z
" transform="scale(0.015625)"/>
      </defs>
      <use xlink:href="#DejaVuSans-45"/>
      <use xlink:href="#DejaVuSans-70" x="63.183594"/>
      <use xlink:href="#DejaVuSans-6f" x="126.660156"/>
      <use xlink:href="#DejaVuSans-63" x="187.841797"/>
      <use xlink:href="#DejaVuSans-68" x="242.822266"/>
     </g>
    </g>
   </g>
   <g id="matplotlib.axis_2">
    <g id="ytick_1">
     <g id="line2d_7">
      <defs>
       <path id="mb30a88ea53" d="M 0 0 
L -3.5 0 
" style="stroke: #000000; stroke-width: 0.8"/>
      </defs>
      <g>
       <use xlink:href="#mb30a88ea53" x="94.05375" y="452.404079" style="stroke: #000000; stroke-width: 0.8"/>
      </g>
     </g>
     <g id="text_8">
      <!-- 0.45 -->
      <g transform="translate(29.163125 462.282048) scale(0.26 -0.26)">
       <defs>
        <path id="DejaVuSans-2e" d="M 684 794 
L 1344 794 
L 1344 0 
L 684 0 
L 684 794 
z
" transform="scale(0.015625)"/>
        <path id="DejaVuSans-34" d="M 2419 4116 
L 825 1625 
L 2419 1625 
L 2419 4116 
z
M 2253 4666 
L 3047 4666 
L 3047 1625 
L 3713 1625 
L 3713 1100 
L 3047 1100 
L 3047 0 
L 2419 0 
L 2419 1100 
L 313 1100 
L 313 1709 
L 2253 4666 
z
" transform="scale(0.015625)"/>
       </defs>
       <use xlink:href="#DejaVuSans-30"/>
       <use xlink:href="#DejaVuSans-2e" x="63.623047"/>
       <use xlink:href="#DejaVuSans-34" x="95.410156"/>
       <use xlink:href="#DejaVuSans-35" x="159.033203"/>
      </g>
     </g>
    </g>
    <g id="ytick_2">
     <g id="line2d_8">
      <g>
       <use xlink:href="#mb30a88ea53" x="94.05375" y="371.333866" style="stroke: #000000; stroke-width: 0.8"/>
      </g>
     </g>
     <g id="text_9">
      <!-- 0.50 -->
      <g transform="translate(29.163125 381.211835) scale(0.26 -0.26)">
       <use xlink:href="#DejaVuSans-30"/>
       <use xlink:href="#DejaVuSans-2e" x="63.623047"/>
       <use xlink:href="#DejaVuSans-35" x="95.410156"/>
       <use xlink:href="#DejaVuSans-30" x="159.033203"/>
      </g>
     </g>
    </g>
    <g id="ytick_3">
     <g id="line2d_9">
      <g>
       <use xlink:href="#mb30a88ea53" x="94.05375" y="290.263653" style="stroke: #000000; stroke-width: 0.8"/>
      </g>
     </g>
     <g id="text_10">
      <!-- 0.55 -->
      <g transform="translate(29.163125 300.141622) scale(0.26 -0.26)">
       <use xlink:href="#DejaVuSans-30"/>
       <use xlink:href="#DejaVuSans-2e" x="63.623047"/>
       <use xlink:href="#DejaVuSans-35" x="95.410156"/>
       <use xlink:href="#DejaVuSans-35" x="159.033203"/>
      </g>
     </g>
    </g>
    <g id="ytick_4">
     <g id="line2d_10">
      <g>
       <use xlink:href="#mb30a88ea53" x="94.05375" y="209.193441" style="stroke: #000000; stroke-width: 0.8"/>
      </g>
     </g>
     <g id="text_11">
      <!-- 0.60 -->
      <g transform="translate(29.163125 219.071409) scale(0.26 -0.26)">
       <defs>
        <path id="DejaVuSans-36" d="M 2113 2584 
Q 1688 2584 1439 2293 
Q 1191 2003 1191 1497 
Q 1191 994 1439 701 
Q 1688 409 2113 409 
Q 2538 409 2786 701 
Q 3034 994 3034 1497 
Q 3034 2003 2786 2293 
Q 2538 2584 2113 2584 
z
M 3366 4563 
L 3366 3988 
Q 3128 4100 2886 4159 
Q 2644 4219 2406 4219 
Q 1781 4219 1451 3797 
Q 1122 3375 1075 2522 
Q 1259 2794 1537 2939 
Q 1816 3084 2150 3084 
Q 2853 3084 3261 2657 
Q 3669 2231 3669 1497 
Q 3669 778 3244 343 
Q 2819 -91 2113 -91 
Q 1303 -91 875 529 
Q 447 1150 447 2328 
Q 447 3434 972 4092 
Q 1497 4750 2381 4750 
Q 2619 4750 2861 4703 
Q 3103 4656 3366 4563 
z
" transform="scale(0.015625)"/>
       </defs>
       <use xlink:href="#DejaVuSans-30"/>
       <use xlink:href="#DejaVuSans-2e" x="63.623047"/>
       <use xlink:href="#DejaVuSans-36" x="95.410156"/>
       <use xlink:href="#DejaVuSans-30" x="159.033203"/>
      </g>
     </g>
    </g>
    <g id="ytick_5">
     <g id="line2d_11">
      <g>
       <use xlink:href="#mb30a88ea53" x="94.05375" y="128.123228" style="stroke: #000000; stroke-width: 0.8"/>
      </g>
     </g>
     <g id="text_12">
      <!-- 0.65 -->
      <g transform="translate(29.163125 138.001197) scale(0.26 -0.26)">
       <use xlink:href="#DejaVuSans-30"/>
       <use xlink:href="#DejaVuSans-2e" x="63.623047"/>
       <use xlink:href="#DejaVuSans-36" x="95.410156"/>
       <use xlink:href="#DejaVuSans-35" x="159.033203"/>
      </g>
     </g>
    </g>
    <g id="ytick_6">
     <g id="line2d_12">
      <g>
       <use xlink:href="#mb30a88ea53" x="94.05375" y="47.053015" style="stroke: #000000; stroke-width: 0.8"/>
      </g>
     </g>
     <g id="text_13">
      <!-- 0.70 -->
      <g transform="translate(29.163125 56.930984) scale(0.26 -0.26)">
       <defs>
        <path id="DejaVuSans-37" d="M 525 4666 
L 3525 4666 
L 3525 4397 
L 1831 0 
L 1172 0 
L 2766 4134 
L 525 4134 
L 525 4666 
z
" transform="scale(0.015625)"/>
       </defs>
       <use xlink:href="#DejaVuSans-30"/>
       <use xlink:href="#DejaVuSans-2e" x="63.623047"/>
       <use xlink:href="#DejaVuSans-37" x="95.410156"/>
       <use xlink:href="#DejaVuSans-30" x="159.033203"/>
      </g>
     </g>
    </g>
    <g id="text_14">
     <!-- Loss -->
     <g transform="translate(19.755938 277.994687) rotate(-90) scale(0.26 -0.26)">
      <defs>
       <path id="DejaVuSans-4c" d="M 628 4666 
L 1259 4666 
L 1259 531 
L 3531 531 
L 3531 0 
L 628 0 
L 628 4666 
z
" transform="scale(0.015625)"/>
       <path id="DejaVuSans-73" d="M 2834 3397 
L 2834 2853 
Q 2591 2978 2328 3040 
Q 2066 3103 1784 3103 
Q 1356 3103 1142 2972 
Q 928 2841 928 2578 
Q 928 2378 1081 2264 
Q 1234 2150 1697 2047 
L 1894 2003 
Q 2506 1872 2764 1633 
Q 3022 1394 3022 966 
Q 3022 478 2636 193 
Q 2250 -91 1575 -91 
Q 1294 -91 989 -36 
Q 684 19 347 128 
L 347 722 
Q 666 556 975 473 
Q 1284 391 1588 391 
Q 1994 391 2212 530 
Q 2431 669 2431 922 
Q 2431 1156 2273 1281 
Q 2116 1406 1581 1522 
L 1381 1569 
Q 847 1681 609 1914 
Q 372 2147 372 2553 
Q 372 3047 722 3315 
Q 1072 3584 1716 3584 
Q 2034 3584 2315 3537 
Q 2597 3491 2834 3397 
z
" transform="scale(0.015625)"/>
      </defs>
      <use xlink:href="#DejaVuSans-4c"/>
      <use xlink:href="#DejaVuSans-6f" x="53.962891"/>
      <use xlink:href="#DejaVuSans-73" x="115.144531"/>
      <use xlink:href="#DejaVuSans-73" x="167.244141"/>
     </g>
    </g>
   </g>
   <g id="line2d_13">
    <path d="M 134.635568 22.68 
L 137.895152 42.698967 
L 141.154736 50.189591 
L 144.41432 56.3217 
L 147.673903 63.342443 
L 150.933487 70.991175 
L 154.193071 73.207107 
L 157.452655 77.037078 
L 160.712238 77.465208 
L 163.971822 82.368982 
L 167.231406 85.774979 
L 170.49099 91.075666 
L 173.750574 93.231294 
L 177.010157 97.855479 
L 180.269741 99.245208 
L 183.529325 98.095734 
L 186.788909 101.981564 
L 190.048493 102.340884 
L 193.308076 108.970996 
L 196.56766 112.869487 
L 199.827244 115.760086 
L 203.086828 121.195011 
L 206.346412 116.069344 
L 209.605995 121.064542 
L 212.865579 121.619854 
L 216.125163 121.453338 
L 219.384747 122.326896 
L 222.644331 121.500693 
L 225.903914 122.111092 
L 229.163498 125.410588 
L 235.682666 131.412326 
L 238.942249 132.14865 
L 242.201833 134.44412 
L 245.461417 138.887582 
L 248.721001 141.201028 
L 251.980585 141.970694 
L 255.240168 144.825825 
L 258.499752 145.858845 
L 261.759336 143.795608 
L 265.01892 146.461125 
L 268.278504 152.650447 
L 271.538087 159.952616 
L 274.797671 167.903937 
L 278.057255 168.64867 
L 281.316839 170.838702 
L 284.576423 171.667225 
L 287.836006 176.641355 
L 291.09559 181.307193 
L 294.355174 177.787737 
L 297.614758 184.886181 
L 300.874341 184.510819 
L 304.133925 189.199755 
L 307.393509 191.39143 
L 310.653093 191.865465 
L 313.912677 190.323619 
L 317.17226 191.19824 
L 320.431844 195.742115 
L 323.691428 201.39468 
L 326.951012 204.415554 
L 330.210596 205.938941 
L 333.470179 205.704292 
L 336.729763 209.195915 
L 343.248931 211.683801 
L 346.508515 216.448602 
L 349.768098 220.193527 
L 353.027682 215.571662 
L 356.287266 217.244169 
L 359.54685 221.171653 
L 362.806433 220.435425 
L 366.066017 223.559417 
L 369.325601 226.176226 
L 372.585185 229.669879 
L 375.844769 233.373537 
L 379.104352 234.816324 
L 382.363936 236.844092 
L 385.62352 239.941024 
L 388.883104 239.420213 
L 392.142688 241.820928 
L 395.402271 249.130538 
L 398.661855 253.13408 
L 401.921439 252.630859 
L 405.181023 254.399527 
L 408.440607 255.380842 
L 411.70019 258.096323 
L 414.959774 262.813769 
L 418.219358 266.298724 
L 421.478942 265.094259 
L 424.738525 265.033664 
L 427.998109 265.300206 
L 431.257693 267.339958 
L 434.517277 268.092132 
L 444.296028 273.216252 
L 447.555612 275.982182 
L 450.815196 279.738994 
L 454.07478 281.857703 
L 457.334363 280.554566 
L 460.593947 282.820463 
L 463.853531 287.301133 
L 467.113115 291.53256 
L 470.372699 295.196981 
L 473.632282 299.767046 
L 476.891866 296.901767 
L 480.15145 303.202616 
L 483.411034 308.217046 
L 486.670617 305.5063 
L 489.930201 303.18377 
L 493.189785 305.364621 
L 496.449369 298.865654 
L 499.708953 306.194013 
L 502.968536 307.841587 
L 506.22812 310.559484 
L 509.487704 311.959265 
L 512.747288 314.09392 
L 516.006872 314.819324 
L 519.266455 325.945859 
L 522.526039 326.789458 
L 525.785623 326.165626 
L 529.045207 324.683312 
L 532.304791 327.679058 
L 535.564374 326.316389 
L 538.823958 326.196165 
L 542.083542 330.409326 
L 545.343126 336.474752 
L 548.602709 340.502551 
L 551.862293 341.947078 
L 555.121877 342.462379 
L 558.381461 346.324919 
L 561.641045 351.143743 
L 564.900628 354.490595 
L 568.160212 361.892789 
L 571.419796 361.744925 
L 574.67938 361.081566 
L 577.938964 364.804263 
L 581.198547 367.662293 
L 584.458131 370.799526 
L 587.717715 370.921393 
L 590.977299 373.221308 
L 594.236883 377.058383 
L 597.496466 379.932504 
L 600.75605 375.806853 
L 604.015634 370.349555 
L 607.275218 370.500512 
L 610.534801 369.934955 
L 613.794385 372.928383 
L 617.053969 376.872006 
L 620.313553 378.791099 
L 623.573137 379.797783 
L 626.83272 388.451411 
L 630.092304 389.965278 
L 633.351888 389.947593 
L 639.871056 395.423011 
L 643.130639 395.153667 
L 646.390223 404.09447 
L 649.649807 405.339186 
L 652.909391 395.617554 
L 656.168975 389.407502 
L 659.428558 389.11332 
L 662.688142 389.804464 
L 665.947726 388.234833 
L 669.20731 390.156294 
L 675.726477 401.092489 
L 678.986061 402.370789 
L 682.245645 402.038627 
L 685.505229 403.301754 
L 688.764812 399.687249 
L 692.024396 397.622176 
L 695.28398 395.902458 
L 698.543564 393.847968 
L 701.803148 393.526243 
L 705.062731 394.731722 
L 708.322315 395.146757 
L 711.581899 394.444692 
L 714.841483 395.999053 
L 718.101067 400.4185 
L 721.36065 405.699955 
L 724.620234 407.670994 
L 727.879818 411.751609 
L 731.139402 415.236177 
L 734.398985 416.058418 
L 737.658569 429.400305 
L 740.918153 432.576243 
L 744.177737 432.045768 
L 747.437321 429.966102 
L 750.696904 427.056561 
L 753.956488 430.325905 
L 757.216072 429.637757 
L 763.73524 429.714637 
L 766.994823 430.824584 
L 770.254407 434.912641 
L 773.513991 432.36068 
L 776.773575 435.557155 
L 780.033159 435.33647 
L 783.292742 437.591253 
L 786.552326 436.085406 
L 793.071494 441.603348 
L 796.331077 443.526113 
L 799.590661 447.953098 
L 802.850245 450.614507 
L 806.109829 456.90545 
L 809.369413 458.370271 
L 812.628996 463.304874 
L 815.88858 466.998771 
L 819.148164 460.679271 
L 822.407748 461.711469 
L 825.667332 463.79041 
L 828.926915 466.74977 
L 832.186499 467.502282 
L 835.446083 469.846412 
L 838.705667 469.476317 
L 841.965251 476.28 
L 845.224834 472.270224 
L 848.484418 473.101646 
L 851.744002 468.344045 
L 855.003586 469.88159 
L 858.263169 464.610669 
L 861.522753 465.901581 
L 864.782337 466.884829 
L 868.041921 470.834541 
L 871.301505 462.299639 
L 874.561088 459.972712 
L 877.820672 460.366195 
L 881.080256 462.902548 
L 884.33984 461.410135 
L 887.599424 463.772965 
L 890.859007 466.681443 
L 894.118591 462.051798 
L 897.378175 462.893367 
L 900.637759 457.881739 
L 903.897343 455.973471 
L 907.156926 473.382878 
L 910.41651 464.881512 
L 913.676094 465.722018 
L 916.935678 463.153917 
L 920.195262 463.488738 
L 923.454845 462.364584 
L 926.714429 463.415289 
L 929.974013 464.033371 
L 933.233597 467.072607 
L 936.49318 469.281339 
L 939.752764 469.761173 
L 943.012348 465.825136 
L 946.271932 466.879272 
L 946.271932 466.879272 
" clip-path="url(#pcb3f1bebc3)" style="fill: none; stroke: #1f77b4; stroke-width: 1.5; stroke-linecap: square"/>
   </g>
   <g id="patch_3">
    <path d="M 94.05375 498.96 
L 94.05375 0 
" style="fill: none; stroke: #000000; stroke-width: 0.8; stroke-linejoin: miter; stroke-linecap: square"/>
   </g>
   <g id="patch_4">
    <path d="M 986.85375 498.96 
L 986.85375 0 
" style="fill: none; stroke: #000000; stroke-width: 0.8; stroke-linejoin: miter; stroke-linecap: square"/>
   </g>
   <g id="patch_5">
    <path d="M 94.05375 498.96 
L 986.85375 498.96 
" style="fill: none; stroke: #000000; stroke-width: 0.8; stroke-linejoin: miter; stroke-linecap: square"/>
   </g>
   <g id="patch_6">
    <path d="M 94.05375 0 
L 986.85375 0 
" style="fill: none; stroke: #000000; stroke-width: 0.8; stroke-linejoin: miter; stroke-linecap: square"/>
   </g>
   <g id="legend_1">
    <g id="patch_7">
     <path d="M 958.25375 33.8 
L 968.65375 33.8 
Q 973.85375 33.8 973.85375 28.6 
L 973.85375 18.2 
Q 973.85375 13 968.65375 13 
L 958.25375 13 
Q 953.05375 13 953.05375 18.2 
L 953.05375 28.6 
Q 953.05375 33.8 958.25375 33.8 
z
" style="fill: #ffffff; opacity: 0.8; stroke: #cccccc; stroke-linejoin: miter"/>
    </g>
   </g>
  </g>
 </g>
 <defs>
  <clipPath id="pcb3f1bebc3">
   <rect x="94.05375" y="0" width="892.8" height="498.96"/>
  </clipPath>
 </defs>
</svg>
