<?xml version="1.0" encoding="utf-8" standalone="no"?>
<!DOCTYPE svg PUBLIC "-//W3C//DTD SVG 1.1//EN"
  "http://www.w3.org/Graphics/SVG/1.1/DTD/svg11.dtd">
<svg xmlns:xlink="http://www.w3.org/1999/xlink" width="970.31125pt" height="560.28625pt" viewBox="0 0 970.31125 560.28625" xmlns="http://www.w3.org/2000/svg" version="1.1">
 <metadata>
  <rdf:RDF xmlns:dc="http://purl.org/dc/elements/1.1/" xmlns:cc="http://creativecommons.org/ns#" xmlns:rdf="http://www.w3.org/1999/02/22-rdf-syntax-ns#">
   <cc:Work>
    <dc:type rdf:resource="http://purl.org/dc/dcmitype/StillImage"/>
    <dc:date>2024-07-09T01:21:42.535111</dc:date>
    <dc:format>image/svg+xml</dc:format>
    <dc:creator>
     <cc:Agent>
      <dc:title>Matplotlib v3.8.0, https://matplotlib.org/</dc:title>
     </cc:Agent>
    </dc:creator>
   </cc:Work>
  </rdf:RDF>
 </metadata>
 <defs>
  <style type="text/css">*{stroke-linejoin: round; stroke-linecap: butt}</style>
 </defs>
 <g id="figure_1">
  <g id="patch_1">
   <path d="M 0 560.28625 
L 970.31125 560.28625 
L 970.31125 0 
L 0 0 
z
" style="fill: #ffffff"/>
  </g>
  <g id="axes_1">
   <g id="patch_2">
    <path d="M 77.51125 498.96 
L 970.31125 498.96 
L 970.31125 0 
L 77.51125 0 
z
" style="fill: #ffffff"/>
   </g>
   <g id="matplotlib.axis_1">
    <g id="xtick_1">
     <g id="line2d_1">
      <defs>
       <path id="m95d9140eb0" d="M 0 0 
L 0 3.5 
" style="stroke: #000000; stroke-width: 0.8"/>
      </defs>
      <g>
       <use xlink:href="#m95d9140eb0" x="118.093068" y="498.96" style="stroke: #000000; stroke-width: 0.8"/>
      </g>
     </g>
     <g id="text_1">
      <!-- 0 -->
      <g transform="translate(109.821818 525.715937) scale(0.26 -0.26)">
       <defs>
        <path id="DejaVuSans-30" d="M 2034 4250 
Q 1547 4250 1301 3770 
Q 1056 3291 1056 2328 
Q 1056 1369 1301 889 
Q 1547 409 2034 409 
Q 2525 409 2770 889 
Q 3016 1369 3016 2328 
Q 3016 3291 2770 3770 
Q 2525 4250 2034 4250 
z
M 2034 4750 
Q 2819 4750 3233 4129 
Q 3647 3509 3647 2328 
Q 3647 1150 3233 529 
Q 2819 -91 2034 -91 
Q 1250 -91 836 529 
Q 422 1150 422 2328 
Q 422 3509 836 4129 
Q 1250 4750 2034 4750 
z
" transform="scale(0.015625)"/>
       </defs>
       <use xlink:href="#DejaVuSans-30"/>
      </g>
     </g>
    </g>
    <g id="xtick_2">
     <g id="line2d_2">
      <g>
       <use xlink:href="#m95d9140eb0" x="280.745646" y="498.96" style="stroke: #000000; stroke-width: 0.8"/>
      </g>
     </g>
     <g id="text_2">
      <!-- 100 -->
      <g transform="translate(255.931896 525.715937) scale(0.26 -0.26)">
       <defs>
        <path id="DejaVuSans-31" d="M 794 531 
L 1825 531 
L 1825 4091 
L 703 3866 
L 703 4441 
L 1819 4666 
L 2450 4666 
L 2450 531 
L 3481 531 
L 3481 0 
L 794 0 
L 794 531 
z
" transform="scale(0.015625)"/>
       </defs>
       <use xlink:href="#DejaVuSans-31"/>
       <use xlink:href="#DejaVuSans-30" x="63.623047"/>
       <use xlink:href="#DejaVuSans-30" x="127.246094"/>
      </g>
     </g>
    </g>
    <g id="xtick_3">
     <g id="line2d_3">
      <g>
       <use xlink:href="#m95d9140eb0" x="443.398224" y="498.96" style="stroke: #000000; stroke-width: 0.8"/>
      </g>
     </g>
     <g id="text_3">
      <!-- 200 -->
      <g transform="translate(418.584474 525.715937) scale(0.26 -0.26)">
       <defs>
        <path id="DejaVuSans-32" d="M 1228 531 
L 3431 531 
L 3431 0 
L 469 0 
L 469 531 
Q 828 903 1448 1529 
Q 2069 2156 2228 2338 
Q 2531 2678 2651 2914 
Q 2772 3150 2772 3378 
Q 2772 3750 2511 3984 
Q 2250 4219 1831 4219 
Q 1534 4219 1204 4116 
Q 875 4013 500 3803 
L 500 4441 
Q 881 4594 1212 4672 
Q 1544 4750 1819 4750 
Q 2544 4750 2975 4387 
Q 3406 4025 3406 3419 
Q 3406 3131 3298 2873 
Q 3191 2616 2906 2266 
Q 2828 2175 2409 1742 
Q 1991 1309 1228 531 
z
" transform="scale(0.015625)"/>
       </defs>
       <use xlink:href="#DejaVuSans-32"/>
       <use xlink:href="#DejaVuSans-30" x="63.623047"/>
       <use xlink:href="#DejaVuSans-30" x="127.246094"/>
      </g>
     </g>
    </g>
    <g id="xtick_4">
     <g id="line2d_4">
      <g>
       <use xlink:href="#m95d9140eb0" x="606.050802" y="498.96" style="stroke: #000000; stroke-width: 0.8"/>
      </g>
     </g>
     <g id="text_4">
      <!-- 300 -->
      <g transform="translate(581.237052 525.715937) scale(0.26 -0.26)">
       <defs>
        <path id="DejaVuSans-33" d="M 2597 2516 
Q 3050 2419 3304 2112 
Q 3559 1806 3559 1356 
Q 3559 666 3084 287 
Q 2609 -91 1734 -91 
Q 1441 -91 1130 -33 
Q 819 25 488 141 
L 488 750 
Q 750 597 1062 519 
Q 1375 441 1716 441 
Q 2309 441 2620 675 
Q 2931 909 2931 1356 
Q 2931 1769 2642 2001 
Q 2353 2234 1838 2234 
L 1294 2234 
L 1294 2753 
L 1863 2753 
Q 2328 2753 2575 2939 
Q 2822 3125 2822 3475 
Q 2822 3834 2567 4026 
Q 2313 4219 1838 4219 
Q 1578 4219 1281 4162 
Q 984 4106 628 3988 
L 628 4550 
Q 988 4650 1302 4700 
Q 1616 4750 1894 4750 
Q 2613 4750 3031 4423 
Q 3450 4097 3450 3541 
Q 3450 3153 3228 2886 
Q 3006 2619 2597 2516 
z
" transform="scale(0.015625)"/>
       </defs>
       <use xlink:href="#DejaVuSans-33"/>
       <use xlink:href="#DejaVuSans-30" x="63.623047"/>
       <use xlink:href="#DejaVuSans-30" x="127.246094"/>
      </g>
     </g>
    </g>
    <g id="xtick_5">
     <g id="line2d_5">
      <g>
       <use xlink:href="#m95d9140eb0" x="768.70338" y="498.96" style="stroke: #000000; stroke-width: 0.8"/>
      </g>
     </g>
     <g id="text_5">
      <!-- 400 -->
      <g transform="translate(743.88963 525.715937) scale(0.26 -0.26)">
       <defs>
        <path id="DejaVuSans-34" d="M 2419 4116 
L 825 1625 
L 2419 1625 
L 2419 4116 
z
M 2253 4666 
L 3047 4666 
L 3047 1625 
L 3713 1625 
L 3713 1100 
L 3047 1100 
L 3047 0 
L 2419 0 
L 2419 1100 
L 313 1100 
L 313 1709 
L 2253 4666 
z
" transform="scale(0.015625)"/>
       </defs>
       <use xlink:href="#DejaVuSans-34"/>
       <use xlink:href="#DejaVuSans-30" x="63.623047"/>
       <use xlink:href="#DejaVuSans-30" x="127.246094"/>
      </g>
     </g>
    </g>
    <g id="xtick_6">
     <g id="line2d_6">
      <g>
       <use xlink:href="#m95d9140eb0" x="931.355958" y="498.96" style="stroke: #000000; stroke-width: 0.8"/>
      </g>
     </g>
     <g id="text_6">
      <!-- 500 -->
      <g transform="translate(906.542208 525.715937) scale(0.26 -0.26)">
       <defs>
        <path id="DejaVuSans-35" d="M 691 4666 
L 3169 4666 
L 3169 4134 
L 1269 4134 
L 1269 2991 
Q 1406 3038 1543 3061 
Q 1681 3084 1819 3084 
Q 2600 3084 3056 2656 
Q 3513 2228 3513 1497 
Q 3513 744 3044 326 
Q 2575 -91 1722 -91 
Q 1428 -91 1123 -41 
Q 819 9 494 109 
L 494 744 
Q 775 591 1075 516 
Q 1375 441 1709 441 
Q 2250 441 2565 725 
Q 2881 1009 2881 1497 
Q 2881 1984 2565 2268 
Q 2250 2553 1709 2553 
Q 1456 2553 1204 2497 
Q 953 2441 691 2322 
L 691 4666 
z
" transform="scale(0.015625)"/>
       </defs>
       <use xlink:href="#DejaVuSans-35"/>
       <use xlink:href="#DejaVuSans-30" x="63.623047"/>
       <use xlink:href="#DejaVuSans-30" x="127.246094"/>
      </g>
     </g>
    </g>
    <g id="text_7">
     <!-- Epoch -->
     <g transform="translate(484.102812 554.879063) scale(0.26 -0.26)">
      <defs>
       <path id="DejaVuSans-45" d="M 628 4666 
L 3578 4666 
L 3578 4134 
L 1259 4134 
L 1259 2753 
L 3481 2753 
L 3481 2222 
L 1259 2222 
L 1259 531 
L 3634 531 
L 3634 0 
L 628 0 
L 628 4666 
z
" transform="scale(0.015625)"/>
       <path id="DejaVuSans-70" d="M 1159 525 
L 1159 -1331 
L 581 -1331 
L 581 3500 
L 1159 3500 
L 1159 2969 
Q 1341 3281 1617 3432 
Q 1894 3584 2278 3584 
Q 2916 3584 3314 3078 
Q 3713 2572 3713 1747 
Q 3713 922 3314 415 
Q 2916 -91 2278 -91 
Q 1894 -91 1617 61 
Q 1341 213 1159 525 
z
M 3116 1747 
Q 3116 2381 2855 2742 
Q 2594 3103 2138 3103 
Q 1681 3103 1420 2742 
Q 1159 2381 1159 1747 
Q 1159 1113 1420 752 
Q 1681 391 2138 391 
Q 2594 391 2855 752 
Q 3116 1113 3116 1747 
z
" transform="scale(0.015625)"/>
       <path id="DejaVuSans-6f" d="M 1959 3097 
Q 1497 3097 1228 2736 
Q 959 2375 959 1747 
Q 959 1119 1226 758 
Q 1494 397 1959 397 
Q 2419 397 2687 759 
Q 2956 1122 2956 1747 
Q 2956 2369 2687 2733 
Q 2419 3097 1959 3097 
z
M 1959 3584 
Q 2709 3584 3137 3096 
Q 3566 2609 3566 1747 
Q 3566 888 3137 398 
Q 2709 -91 1959 -91 
Q 1206 -91 779 398 
Q 353 888 353 1747 
Q 353 2609 779 3096 
Q 1206 3584 1959 3584 
z
" transform="scale(0.015625)"/>
       <path id="DejaVuSans-63" d="M 3122 3366 
L 3122 2828 
Q 2878 2963 2633 3030 
Q 2388 3097 2138 3097 
Q 1578 3097 1268 2742 
Q 959 2388 959 1747 
Q 959 1106 1268 751 
Q 1578 397 2138 397 
Q 2388 397 2633 464 
Q 2878 531 3122 666 
L 3122 134 
Q 2881 22 2623 -34 
Q 2366 -91 2075 -91 
Q 1284 -91 818 406 
Q 353 903 353 1747 
Q 353 2603 823 3093 
Q 1294 3584 2113 3584 
Q 2378 3584 2631 3529 
Q 2884 3475 3122 3366 
z
" transform="scale(0.015625)"/>
       <path id="DejaVuSans-68" d="M 3513 2113 
L 3513 0 
L 2938 0 
L 2938 2094 
Q 2938 2591 2744 2837 
Q 2550 3084 2163 3084 
Q 1697 3084 1428 2787 
Q 1159 2491 1159 1978 
L 1159 0 
L 581 0 
L 581 4863 
L 1159 4863 
L 1159 2956 
Q 1366 3272 1645 3428 
Q 1925 3584 2291 3584 
Q 2894 3584 3203 3211 
Q 3513 2838 3513 2113 
z
" transform="scale(0.015625)"/>
      </defs>
      <use xlink:href="#DejaVuSans-45"/>
      <use xlink:href="#DejaVuSans-70" x="63.183594"/>
      <use xlink:href="#DejaVuSans-6f" x="126.660156"/>
      <use xlink:href="#DejaVuSans-63" x="187.841797"/>
      <use xlink:href="#DejaVuSans-68" x="242.822266"/>
     </g>
    </g>
   </g>
   <g id="matplotlib.axis_2">
    <g id="ytick_1">
     <g id="line2d_7">
      <defs>
       <path id="m101eb4e119" d="M 0 0 
L -3.5 0 
" style="stroke: #000000; stroke-width: 0.8"/>
      </defs>
      <g>
       <use xlink:href="#m101eb4e119" x="77.51125" y="406.42268" style="stroke: #000000; stroke-width: 0.8"/>
      </g>
     </g>
     <g id="text_8">
      <!-- 0.3 -->
      <g transform="translate(29.163125 416.300648) scale(0.26 -0.26)">
       <defs>
        <path id="DejaVuSans-2e" d="M 684 794 
L 1344 794 
L 1344 0 
L 684 0 
L 684 794 
z
" transform="scale(0.015625)"/>
       </defs>
       <use xlink:href="#DejaVuSans-30"/>
       <use xlink:href="#DejaVuSans-2e" x="63.623047"/>
       <use xlink:href="#DejaVuSans-33" x="95.410156"/>
      </g>
     </g>
    </g>
    <g id="ytick_2">
     <g id="line2d_8">
      <g>
       <use xlink:href="#m101eb4e119" x="77.51125" y="310.416478" style="stroke: #000000; stroke-width: 0.8"/>
      </g>
     </g>
     <g id="text_9">
      <!-- 0.4 -->
      <g transform="translate(29.163125 320.294447) scale(0.26 -0.26)">
       <use xlink:href="#DejaVuSans-30"/>
       <use xlink:href="#DejaVuSans-2e" x="63.623047"/>
       <use xlink:href="#DejaVuSans-34" x="95.410156"/>
      </g>
     </g>
    </g>
    <g id="ytick_3">
     <g id="line2d_9">
      <g>
       <use xlink:href="#m101eb4e119" x="77.51125" y="214.410277" style="stroke: #000000; stroke-width: 0.8"/>
      </g>
     </g>
     <g id="text_10">
      <!-- 0.5 -->
      <g transform="translate(29.163125 224.288245) scale(0.26 -0.26)">
       <use xlink:href="#DejaVuSans-30"/>
       <use xlink:href="#DejaVuSans-2e" x="63.623047"/>
       <use xlink:href="#DejaVuSans-35" x="95.410156"/>
      </g>
     </g>
    </g>
    <g id="ytick_4">
     <g id="line2d_10">
      <g>
       <use xlink:href="#m101eb4e119" x="77.51125" y="118.404075" style="stroke: #000000; stroke-width: 0.8"/>
      </g>
     </g>
     <g id="text_11">
      <!-- 0.6 -->
      <g transform="translate(29.163125 128.282044) scale(0.26 -0.26)">
       <defs>
        <path id="DejaVuSans-36" d="M 2113 2584 
Q 1688 2584 1439 2293 
Q 1191 2003 1191 1497 
Q 1191 994 1439 701 
Q 1688 409 2113 409 
Q 2538 409 2786 701 
Q 3034 994 3034 1497 
Q 3034 2003 2786 2293 
Q 2538 2584 2113 2584 
z
M 3366 4563 
L 3366 3988 
Q 3128 4100 2886 4159 
Q 2644 4219 2406 4219 
Q 1781 4219 1451 3797 
Q 1122 3375 1075 2522 
Q 1259 2794 1537 2939 
Q 1816 3084 2150 3084 
Q 2853 3084 3261 2657 
Q 3669 2231 3669 1497 
Q 3669 778 3244 343 
Q 2819 -91 2113 -91 
Q 1303 -91 875 529 
Q 447 1150 447 2328 
Q 447 3434 972 4092 
Q 1497 4750 2381 4750 
Q 2619 4750 2861 4703 
Q 3103 4656 3366 4563 
z
" transform="scale(0.015625)"/>
       </defs>
       <use xlink:href="#DejaVuSans-30"/>
       <use xlink:href="#DejaVuSans-2e" x="63.623047"/>
       <use xlink:href="#DejaVuSans-36" x="95.410156"/>
      </g>
     </g>
    </g>
    <g id="ytick_5">
     <g id="line2d_11">
      <g>
       <use xlink:href="#m101eb4e119" x="77.51125" y="22.397873" style="stroke: #000000; stroke-width: 0.8"/>
      </g>
     </g>
     <g id="text_12">
      <!-- 0.7 -->
      <g transform="translate(29.163125 32.275842) scale(0.26 -0.26)">
       <defs>
        <path id="DejaVuSans-37" d="M 525 4666 
L 3525 4666 
L 3525 4397 
L 1831 0 
L 1172 0 
L 2766 4134 
L 525 4134 
L 525 4666 
z
" transform="scale(0.015625)"/>
       </defs>
       <use xlink:href="#DejaVuSans-30"/>
       <use xlink:href="#DejaVuSans-2e" x="63.623047"/>
       <use xlink:href="#DejaVuSans-37" x="95.410156"/>
      </g>
     </g>
    </g>
    <g id="text_13">
     <!-- Loss -->
     <g transform="translate(19.755938 277.994687) rotate(-90) scale(0.26 -0.26)">
      <defs>
       <path id="DejaVuSans-4c" d="M 628 4666 
L 1259 4666 
L 1259 531 
L 3531 531 
L 3531 0 
L 628 0 
L 628 4666 
z
" transform="scale(0.015625)"/>
       <path id="DejaVuSans-73" d="M 2834 3397 
L 2834 2853 
Q 2591 2978 2328 3040 
Q 2066 3103 1784 3103 
Q 1356 3103 1142 2972 
Q 928 2841 928 2578 
Q 928 2378 1081 2264 
Q 1234 2150 1697 2047 
L 1894 2003 
Q 2506 1872 2764 1633 
Q 3022 1394 3022 966 
Q 3022 478 2636 193 
Q 2250 -91 1575 -91 
Q 1294 -91 989 -36 
Q 684 19 347 128 
L 347 722 
Q 666 556 975 473 
Q 1284 391 1588 391 
Q 1994 391 2212 530 
Q 2431 669 2431 922 
Q 2431 1156 2273 1281 
Q 2116 1406 1581 1522 
L 1381 1569 
Q 847 1681 609 1914 
Q 372 2147 372 2553 
Q 372 3047 722 3315 
Q 1072 3584 1716 3584 
Q 2034 3584 2315 3537 
Q 2597 3491 2834 3397 
z
" transform="scale(0.015625)"/>
      </defs>
      <use xlink:href="#DejaVuSans-4c"/>
      <use xlink:href="#DejaVuSans-6f" x="53.962891"/>
      <use xlink:href="#DejaVuSans-73" x="115.144531"/>
      <use xlink:href="#DejaVuSans-73" x="167.244141"/>
     </g>
    </g>
   </g>
   <g id="line2d_12">
    <path d="M 118.093068 22.68 
L 119.719594 27.454898 
L 121.34612 27.310293 
L 122.972646 33.830756 
L 124.599171 31.708656 
L 126.225697 33.744119 
L 127.852223 37.562286 
L 129.478749 35.206711 
L 131.105274 34.447461 
L 132.7318 33.562432 
L 134.358326 36.866326 
L 135.984852 39.386764 
L 137.611378 39.801925 
L 139.237903 40.747325 
L 140.864429 38.901503 
L 142.490955 40.427671 
L 145.744006 44.761371 
L 147.370532 45.236045 
L 148.997058 34.782165 
L 150.623584 32.531882 
L 152.25011 32.961979 
L 153.876635 32.726215 
L 155.503161 30.021916 
L 157.129687 28.632571 
L 158.756213 30.107924 
L 160.382738 32.092801 
L 163.63579 39.20439 
L 165.262316 40.446841 
L 166.888842 46.677121 
L 168.515367 41.869262 
L 170.141893 44.886349 
L 171.768419 49.358931 
L 173.394945 50.203388 
L 175.02147 55.729868 
L 176.647996 55.400829 
L 178.274522 55.85805 
L 179.901048 58.416485 
L 181.527574 58.509703 
L 183.154099 53.335724 
L 184.780625 46.618238 
L 186.407151 47.593394 
L 188.033677 44.033308 
L 189.660202 44.720112 
L 191.286728 51.294996 
L 194.53978 59.070214 
L 196.166306 61.187965 
L 197.792831 61.145906 
L 199.419357 63.179595 
L 202.672409 65.95983 
L 204.298934 66.836504 
L 205.92546 67.842791 
L 207.551986 70.818848 
L 209.178512 79.505761 
L 210.805038 82.383506 
L 212.431563 81.513299 
L 214.058089 83.078551 
L 215.684615 85.053185 
L 217.311141 86.720353 
L 218.937666 95.545463 
L 220.564192 97.938405 
L 222.190718 103.437131 
L 223.817244 107.974606 
L 225.44377 109.94369 
L 227.070295 111.423907 
L 228.696821 116.07892 
L 230.323347 118.997982 
L 231.949873 119.534687 
L 233.576398 122.67595 
L 235.202924 125.30128 
L 236.82945 128.488207 
L 238.455976 130.593598 
L 240.082502 131.725378 
L 241.709027 135.609868 
L 243.335553 137.009513 
L 244.962079 138.944434 
L 246.588605 140.150833 
L 248.21513 139.374073 
L 249.841656 142.970096 
L 251.468182 148.078725 
L 253.094708 150.757045 
L 254.721234 153.922799 
L 257.974285 161.783338 
L 259.600811 159.66221 
L 261.227337 161.360165 
L 262.853862 160.605322 
L 264.480388 164.635905 
L 266.106914 165.284598 
L 267.73344 160.612532 
L 269.359966 157.014735 
L 270.986491 159.384845 
L 274.239543 163.511565 
L 275.866069 172.034588 
L 277.492595 170.160211 
L 279.11912 173.605791 
L 280.745646 176.123254 
L 282.372172 180.31807 
L 283.998698 177.268252 
L 285.625223 175.425863 
L 287.251749 174.646699 
L 288.878275 171.58492 
L 290.504801 173.851912 
L 292.131327 168.379853 
L 293.757852 167.185241 
L 295.384378 160.736422 
L 297.010904 167.836051 
L 298.63743 162.465507 
L 300.263955 167.537742 
L 301.890481 165.832004 
L 303.517007 167.312965 
L 305.143533 172.318019 
L 306.770059 174.2859 
L 308.396584 178.760372 
L 310.02311 177.932052 
L 311.649636 178.86967 
L 313.276162 184.834143 
L 314.902687 185.060236 
L 316.529213 184.015151 
L 318.155739 186.86274 
L 319.782265 186.08678 
L 323.035316 192.626299 
L 324.661842 191.204851 
L 326.288368 191.868766 
L 327.914894 184.240615 
L 329.541419 177.746989 
L 331.167945 172.490149 
L 332.794471 176.630431 
L 334.420997 184.558037 
L 336.047523 184.922154 
L 337.674048 188.218037 
L 339.300574 188.612654 
L 340.9271 186.384231 
L 342.553626 187.593034 
L 344.180151 187.828111 
L 345.806677 192.260294 
L 347.433203 192.619833 
L 349.059729 195.038412 
L 350.686255 187.750344 
L 352.31278 187.823991 
L 353.939306 196.456598 
L 355.565832 195.144677 
L 357.192358 197.587348 
L 358.818883 196.359546 
L 360.445409 196.417571 
L 362.071935 198.710944 
L 363.698461 203.572937 
L 365.324987 205.522335 
L 366.951512 204.656476 
L 368.578038 196.921487 
L 370.204564 198.457956 
L 371.83109 200.566838 
L 373.457615 197.677247 
L 375.084141 197.673356 
L 376.710667 203.00905 
L 378.337193 205.192266 
L 379.963719 206.622756 
L 383.21677 208.914869 
L 384.843296 210.016034 
L 386.469822 210.617288 
L 394.602451 216.410347 
L 396.228976 217.975742 
L 399.482028 220.310802 
L 401.108554 224.147854 
L 405.988131 227.551317 
L 407.614657 226.452871 
L 414.12076 230.83833 
L 420.626863 234.884793 
L 422.253389 237.84723 
L 427.132966 240.884145 
L 428.759492 235.9356 
L 436.892121 240.51731 
L 440.145172 242.302474 
L 441.771698 244.448294 
L 451.530853 250.079523 
L 453.157379 243.132368 
L 454.783904 244.072904 
L 456.41043 239.070683 
L 471.049162 247.370703 
L 472.675688 248.268922 
L 474.302214 253.287967 
L 484.061368 258.603147 
L 485.687894 258.536681 
L 497.073575 264.600668 
L 498.7001 266.718247 
L 500.326626 267.580673 
L 501.953152 265.10527 
L 503.579678 265.959942 
L 505.206204 269.739969 
L 506.832729 264.686075 
L 511.712307 267.367971 
L 513.338832 264.354861 
L 521.471461 268.996627 
L 524.724513 270.882421 
L 526.351039 270.172784 
L 527.977564 271.102676 
L 529.60409 273.370641 
L 536.110193 277.112872 
L 537.736719 278.114152 
L 542.616296 280.736935 
L 550.748925 285.028117 
L 552.375451 287.841715 
L 557.255028 290.466386 
L 558.881554 295.505774 
L 565.387657 299.02506 
L 567.014183 304.437292 
L 570.267235 306.184403 
L 571.89376 315.015807 
L 576.773338 317.596702 
L 578.399864 313.930207 
L 580.026389 314.787225 
L 581.652915 317.344772 
L 586.532492 319.895711 
L 588.159018 321.864508 
L 596.291647 326.061785 
L 597.918173 326.568276 
L 607.677328 331.489754 
L 609.303853 335.971979 
L 610.930379 336.787252 
L 612.556905 332.873548 
L 614.183431 333.701553 
L 615.809957 333.618235 
L 617.436482 338.614905 
L 619.063008 339.273069 
L 622.31606 341.068734 
L 623.942585 340.643959 
L 625.569111 342.258939 
L 627.195637 344.85394 
L 628.822163 346.629091 
L 630.448689 351.323074 
L 632.075214 350.650318 
L 633.70174 348.812994 
L 635.328266 349.122118 
L 636.954792 350.012755 
L 638.581317 348.915539 
L 641.834369 350.62411 
L 643.460895 351.402272 
L 645.087421 349.093678 
L 648.340472 350.577043 
L 649.966998 351.21286 
L 651.593524 356.024668 
L 653.220049 352.568958 
L 656.473101 354.718555 
L 658.099627 358.760726 
L 659.726153 345.621974 
L 661.352678 346.353385 
L 664.60573 339.107348 
L 671.111833 342.511756 
L 672.738359 333.274232 
L 674.364885 334.142122 
L 675.99141 348.168964 
L 677.617936 349.02149 
L 679.244462 347.292433 
L 684.124039 349.927005 
L 689.003617 352.753821 
L 690.630142 363.748527 
L 692.256668 362.023991 
L 693.883194 358.311746 
L 697.136245 359.681692 
L 698.762771 363.070077 
L 718.281081 372.207773 
L 719.907606 372.855179 
L 724.787184 375.067551 
L 726.413709 369.554947 
L 728.040235 363.186929 
L 737.79939 367.674419 
L 739.425916 369.703158 
L 749.18507 374.303007 
L 750.811596 375.468663 
L 752.438122 376.279444 
L 754.064648 375.729462 
L 755.691173 371.22163 
L 758.944225 372.931316 
L 762.197277 374.479172 
L 763.823802 371.855788 
L 767.076854 373.388708 
L 768.70338 368.736756 
L 770.329905 359.880632 
L 771.956431 360.623086 
L 775.209483 362.548994 
L 776.836009 357.003287 
L 778.462534 355.647046 
L 788.221689 360.499282 
L 789.848215 361.336185 
L 791.474741 366.096148 
L 793.101266 360.236423 
L 796.354318 362.265763 
L 797.980844 363.479888 
L 802.860421 367.422461 
L 804.486947 369.439927 
L 806.113473 368.26088 
L 807.739998 373.494516 
L 809.366524 376.726422 
L 810.99305 383.06703 
L 812.619576 383.077845 
L 814.246102 388.244614 
L 815.872627 394.217557 
L 817.499153 396.518683 
L 819.125679 398.539068 
L 820.752205 404.718733 
L 822.37873 402.348451 
L 824.005256 418.140859 
L 825.631782 418.696334 
L 827.258308 420.99932 
L 828.884834 433.579679 
L 830.511359 436.294736 
L 832.137885 437.595899 
L 833.764411 441.313924 
L 835.390937 431.877889 
L 837.017462 434.309201 
L 840.270514 421.50996 
L 841.89704 424.295918 
L 843.523566 432.263437 
L 845.150091 433.2426 
L 846.776617 433.528692 
L 848.403143 435.12393 
L 851.656194 436.925346 
L 853.28272 437.896669 
L 854.909246 435.323785 
L 856.535772 436.686378 
L 858.162298 430.789858 
L 859.788823 430.979384 
L 861.415349 431.471941 
L 863.041875 429.61044 
L 869.547978 433.206205 
L 876.054081 436.74695 
L 877.680607 444.634756 
L 884.18671 448.011983 
L 885.813236 446.488447 
L 887.439762 450.723492 
L 890.692813 452.413922 
L 892.319339 453.843353 
L 893.945865 459.196358 
L 900.451968 461.800643 
L 905.331545 463.862215 
L 906.958071 464.504671 
L 910.211122 465.655506 
L 911.837648 466.709346 
L 913.464174 464.291196 
L 915.0907 464.967199 
L 916.717226 462.703784 
L 918.343751 465.231861 
L 923.223329 466.913579 
L 924.849854 474.377411 
L 926.47638 474.950611 
L 928.102906 476.28 
L 929.729432 476.107512 
L 929.729432 476.107512 
" clip-path="url(#p3f597c418c)" style="fill: none; stroke: #1f77b4; stroke-width: 1.5; stroke-linecap: square"/>
   </g>
   <g id="patch_3">
    <path d="M 77.51125 498.96 
L 77.51125 0 
" style="fill: none; stroke: #000000; stroke-width: 0.8; stroke-linejoin: miter; stroke-linecap: square"/>
   </g>
   <g id="patch_4">
    <path d="M 970.31125 498.96 
L 970.31125 0 
" style="fill: none; stroke: #000000; stroke-width: 0.8; stroke-linejoin: miter; stroke-linecap: square"/>
   </g>
   <g id="patch_5">
    <path d="M 77.51125 498.96 
L 970.31125 498.96 
" style="fill: none; stroke: #000000; stroke-width: 0.8; stroke-linejoin: miter; stroke-linecap: square"/>
   </g>
   <g id="patch_6">
    <path d="M 77.51125 0 
L 970.31125 0 
" style="fill: none; stroke: #000000; stroke-width: 0.8; stroke-linejoin: miter; stroke-linecap: square"/>
   </g>
   <g id="legend_1">
    <g id="patch_7">
     <path d="M 941.71125 33.8 
L 952.11125 33.8 
Q 957.31125 33.8 957.31125 28.6 
L 957.31125 18.2 
Q 957.31125 13 952.11125 13 
L 941.71125 13 
Q 936.51125 13 936.51125 18.2 
L 936.51125 28.6 
Q 936.51125 33.8 941.71125 33.8 
z
" style="fill: #ffffff; opacity: 0.8; stroke: #cccccc; stroke-linejoin: miter"/>
    </g>
   </g>
  </g>
 </g>
 <defs>
  <clipPath id="p3f597c418c">
   <rect x="77.51125" y="0" width="892.8" height="498.96"/>
  </clipPath>
 </defs>
</svg>
