<?xml version="1.0" encoding="utf-8" standalone="no"?>
<!DOCTYPE svg PUBLIC "-//W3C//DTD SVG 1.1//EN"
  "http://www.w3.org/Graphics/SVG/1.1/DTD/svg11.dtd">
<svg xmlns:xlink="http://www.w3.org/1999/xlink" width="971.166854pt" height="560.28625pt" viewBox="0 0 971.166854 560.28625" xmlns="http://www.w3.org/2000/svg" version="1.1">
 <metadata>
  <rdf:RDF xmlns:dc="http://purl.org/dc/elements/1.1/" xmlns:cc="http://creativecommons.org/ns#" xmlns:rdf="http://www.w3.org/1999/02/22-rdf-syntax-ns#">
   <cc:Work>
    <dc:type rdf:resource="http://purl.org/dc/dcmitype/StillImage"/>
    <dc:date>2024-03-04T00:25:44.397193</dc:date>
    <dc:format>image/svg+xml</dc:format>
    <dc:creator>
     <cc:Agent>
      <dc:title>Matplotlib v3.8.0, https://matplotlib.org/</dc:title>
     </cc:Agent>
    </dc:creator>
   </cc:Work>
  </rdf:RDF>
 </metadata>
 <defs>
  <style type="text/css">*{stroke-linejoin: round; stroke-linecap: butt}</style>
 </defs>
 <g id="figure_1">
  <g id="patch_1">
   <path d="M 0 560.28625 
L 971.166854 560.28625 
L 971.166854 0 
L 0 0 
z
" style="fill: #ffffff"/>
  </g>
  <g id="axes_1">
   <g id="patch_2">
    <path d="M 77.51125 498.96 
L 970.31125 498.96 
L 970.31125 0 
L 77.51125 0 
z
" style="fill: #ffffff"/>
   </g>
   <g id="matplotlib.axis_1">
    <g id="xtick_1">
     <g id="line2d_1">
      <defs>
       <path id="m243a39b0b4" d="M 0 0 
L 0 3.5 
" style="stroke: #000000; stroke-width: 0.8"/>
      </defs>
      <g>
       <use xlink:href="#m243a39b0b4" x="118.093068" y="498.96" style="stroke: #000000; stroke-width: 0.8"/>
      </g>
     </g>
     <g id="text_1">
      <!-- 0 -->
      <g transform="translate(109.821818 525.715937) scale(0.26 -0.26)">
       <defs>
        <path id="DejaVuSans-30" d="M 2034 4250 
Q 1547 4250 1301 3770 
Q 1056 3291 1056 2328 
Q 1056 1369 1301 889 
Q 1547 409 2034 409 
Q 2525 409 2770 889 
Q 3016 1369 3016 2328 
Q 3016 3291 2770 3770 
Q 2525 4250 2034 4250 
z
M 2034 4750 
Q 2819 4750 3233 4129 
Q 3647 3509 3647 2328 
Q 3647 1150 3233 529 
Q 2819 -91 2034 -91 
Q 1250 -91 836 529 
Q 422 1150 422 2328 
Q 422 3509 836 4129 
Q 1250 4750 2034 4750 
z
" transform="scale(0.015625)"/>
       </defs>
       <use xlink:href="#DejaVuSans-30"/>
      </g>
     </g>
    </g>
    <g id="xtick_2">
     <g id="line2d_2">
      <g>
       <use xlink:href="#m243a39b0b4" x="280.436575" y="498.96" style="stroke: #000000; stroke-width: 0.8"/>
      </g>
     </g>
     <g id="text_2">
      <!-- 2000 -->
      <g transform="translate(247.351575 525.715937) scale(0.26 -0.26)">
       <defs>
        <path id="DejaVuSans-32" d="M 1228 531 
L 3431 531 
L 3431 0 
L 469 0 
L 469 531 
Q 828 903 1448 1529 
Q 2069 2156 2228 2338 
Q 2531 2678 2651 2914 
Q 2772 3150 2772 3378 
Q 2772 3750 2511 3984 
Q 2250 4219 1831 4219 
Q 1534 4219 1204 4116 
Q 875 4013 500 3803 
L 500 4441 
Q 881 4594 1212 4672 
Q 1544 4750 1819 4750 
Q 2544 4750 2975 4387 
Q 3406 4025 3406 3419 
Q 3406 3131 3298 2873 
Q 3191 2616 2906 2266 
Q 2828 2175 2409 1742 
Q 1991 1309 1228 531 
z
" transform="scale(0.015625)"/>
       </defs>
       <use xlink:href="#DejaVuSans-32"/>
       <use xlink:href="#DejaVuSans-30" x="63.623047"/>
       <use xlink:href="#DejaVuSans-30" x="127.246094"/>
       <use xlink:href="#DejaVuSans-30" x="190.869141"/>
      </g>
     </g>
    </g>
    <g id="xtick_3">
     <g id="line2d_3">
      <g>
       <use xlink:href="#m243a39b0b4" x="442.780082" y="498.96" style="stroke: #000000; stroke-width: 0.8"/>
      </g>
     </g>
     <g id="text_3">
      <!-- 4000 -->
      <g transform="translate(409.695082 525.715937) scale(0.26 -0.26)">
       <defs>
        <path id="DejaVuSans-34" d="M 2419 4116 
L 825 1625 
L 2419 1625 
L 2419 4116 
z
M 2253 4666 
L 3047 4666 
L 3047 1625 
L 3713 1625 
L 3713 1100 
L 3047 1100 
L 3047 0 
L 2419 0 
L 2419 1100 
L 313 1100 
L 313 1709 
L 2253 4666 
z
" transform="scale(0.015625)"/>
       </defs>
       <use xlink:href="#DejaVuSans-34"/>
       <use xlink:href="#DejaVuSans-30" x="63.623047"/>
       <use xlink:href="#DejaVuSans-30" x="127.246094"/>
       <use xlink:href="#DejaVuSans-30" x="190.869141"/>
      </g>
     </g>
    </g>
    <g id="xtick_4">
     <g id="line2d_4">
      <g>
       <use xlink:href="#m243a39b0b4" x="605.123589" y="498.96" style="stroke: #000000; stroke-width: 0.8"/>
      </g>
     </g>
     <g id="text_4">
      <!-- 6000 -->
      <g transform="translate(572.038589 525.715937) scale(0.26 -0.26)">
       <defs>
        <path id="DejaVuSans-36" d="M 2113 2584 
Q 1688 2584 1439 2293 
Q 1191 2003 1191 1497 
Q 1191 994 1439 701 
Q 1688 409 2113 409 
Q 2538 409 2786 701 
Q 3034 994 3034 1497 
Q 3034 2003 2786 2293 
Q 2538 2584 2113 2584 
z
M 3366 4563 
L 3366 3988 
Q 3128 4100 2886 4159 
Q 2644 4219 2406 4219 
Q 1781 4219 1451 3797 
Q 1122 3375 1075 2522 
Q 1259 2794 1537 2939 
Q 1816 3084 2150 3084 
Q 2853 3084 3261 2657 
Q 3669 2231 3669 1497 
Q 3669 778 3244 343 
Q 2819 -91 2113 -91 
Q 1303 -91 875 529 
Q 447 1150 447 2328 
Q 447 3434 972 4092 
Q 1497 4750 2381 4750 
Q 2619 4750 2861 4703 
Q 3103 4656 3366 4563 
z
" transform="scale(0.015625)"/>
       </defs>
       <use xlink:href="#DejaVuSans-36"/>
       <use xlink:href="#DejaVuSans-30" x="63.623047"/>
       <use xlink:href="#DejaVuSans-30" x="127.246094"/>
       <use xlink:href="#DejaVuSans-30" x="190.869141"/>
      </g>
     </g>
    </g>
    <g id="xtick_5">
     <g id="line2d_5">
      <g>
       <use xlink:href="#m243a39b0b4" x="767.467096" y="498.96" style="stroke: #000000; stroke-width: 0.8"/>
      </g>
     </g>
     <g id="text_5">
      <!-- 8000 -->
      <g transform="translate(734.382096 525.715937) scale(0.26 -0.26)">
       <defs>
        <path id="DejaVuSans-38" d="M 2034 2216 
Q 1584 2216 1326 1975 
Q 1069 1734 1069 1313 
Q 1069 891 1326 650 
Q 1584 409 2034 409 
Q 2484 409 2743 651 
Q 3003 894 3003 1313 
Q 3003 1734 2745 1975 
Q 2488 2216 2034 2216 
z
M 1403 2484 
Q 997 2584 770 2862 
Q 544 3141 544 3541 
Q 544 4100 942 4425 
Q 1341 4750 2034 4750 
Q 2731 4750 3128 4425 
Q 3525 4100 3525 3541 
Q 3525 3141 3298 2862 
Q 3072 2584 2669 2484 
Q 3125 2378 3379 2068 
Q 3634 1759 3634 1313 
Q 3634 634 3220 271 
Q 2806 -91 2034 -91 
Q 1263 -91 848 271 
Q 434 634 434 1313 
Q 434 1759 690 2068 
Q 947 2378 1403 2484 
z
M 1172 3481 
Q 1172 3119 1398 2916 
Q 1625 2713 2034 2713 
Q 2441 2713 2670 2916 
Q 2900 3119 2900 3481 
Q 2900 3844 2670 4047 
Q 2441 4250 2034 4250 
Q 1625 4250 1398 4047 
Q 1172 3844 1172 3481 
z
" transform="scale(0.015625)"/>
       </defs>
       <use xlink:href="#DejaVuSans-38"/>
       <use xlink:href="#DejaVuSans-30" x="63.623047"/>
       <use xlink:href="#DejaVuSans-30" x="127.246094"/>
       <use xlink:href="#DejaVuSans-30" x="190.869141"/>
      </g>
     </g>
    </g>
    <g id="xtick_6">
     <g id="line2d_6">
      <g>
       <use xlink:href="#m243a39b0b4" x="929.810604" y="498.96" style="stroke: #000000; stroke-width: 0.8"/>
      </g>
     </g>
     <g id="text_6">
      <!-- 10000 -->
      <g transform="translate(888.454354 525.715937) scale(0.26 -0.26)">
       <defs>
        <path id="DejaVuSans-31" d="M 794 531 
L 1825 531 
L 1825 4091 
L 703 3866 
L 703 4441 
L 1819 4666 
L 2450 4666 
L 2450 531 
L 3481 531 
L 3481 0 
L 794 0 
L 794 531 
z
" transform="scale(0.015625)"/>
       </defs>
       <use xlink:href="#DejaVuSans-31"/>
       <use xlink:href="#DejaVuSans-30" x="63.623047"/>
       <use xlink:href="#DejaVuSans-30" x="127.246094"/>
       <use xlink:href="#DejaVuSans-30" x="190.869141"/>
       <use xlink:href="#DejaVuSans-30" x="254.492188"/>
      </g>
     </g>
    </g>
    <g id="text_7">
     <!-- Epoch -->
     <g transform="translate(484.102812 554.879063) scale(0.26 -0.26)">
      <defs>
       <path id="DejaVuSans-45" d="M 628 4666 
L 3578 4666 
L 3578 4134 
L 1259 4134 
L 1259 2753 
L 3481 2753 
L 3481 2222 
L 1259 2222 
L 1259 531 
L 3634 531 
L 3634 0 
L 628 0 
L 628 4666 
z
" transform="scale(0.015625)"/>
       <path id="DejaVuSans-70" d="M 1159 525 
L 1159 -1331 
L 581 -1331 
L 581 3500 
L 1159 3500 
L 1159 2969 
Q 1341 3281 1617 3432 
Q 1894 3584 2278 3584 
Q 2916 3584 3314 3078 
Q 3713 2572 3713 1747 
Q 3713 922 3314 415 
Q 2916 -91 2278 -91 
Q 1894 -91 1617 61 
Q 1341 213 1159 525 
z
M 3116 1747 
Q 3116 2381 2855 2742 
Q 2594 3103 2138 3103 
Q 1681 3103 1420 2742 
Q 1159 2381 1159 1747 
Q 1159 1113 1420 752 
Q 1681 391 2138 391 
Q 2594 391 2855 752 
Q 3116 1113 3116 1747 
z
" transform="scale(0.015625)"/>
       <path id="DejaVuSans-6f" d="M 1959 3097 
Q 1497 3097 1228 2736 
Q 959 2375 959 1747 
Q 959 1119 1226 758 
Q 1494 397 1959 397 
Q 2419 397 2687 759 
Q 2956 1122 2956 1747 
Q 2956 2369 2687 2733 
Q 2419 3097 1959 3097 
z
M 1959 3584 
Q 2709 3584 3137 3096 
Q 3566 2609 3566 1747 
Q 3566 888 3137 398 
Q 2709 -91 1959 -91 
Q 1206 -91 779 398 
Q 353 888 353 1747 
Q 353 2609 779 3096 
Q 1206 3584 1959 3584 
z
" transform="scale(0.015625)"/>
       <path id="DejaVuSans-63" d="M 3122 3366 
L 3122 2828 
Q 2878 2963 2633 3030 
Q 2388 3097 2138 3097 
Q 1578 3097 1268 2742 
Q 959 2388 959 1747 
Q 959 1106 1268 751 
Q 1578 397 2138 397 
Q 2388 397 2633 464 
Q 2878 531 3122 666 
L 3122 134 
Q 2881 22 2623 -34 
Q 2366 -91 2075 -91 
Q 1284 -91 818 406 
Q 353 903 353 1747 
Q 353 2603 823 3093 
Q 1294 3584 2113 3584 
Q 2378 3584 2631 3529 
Q 2884 3475 3122 3366 
z
" transform="scale(0.015625)"/>
       <path id="DejaVuSans-68" d="M 3513 2113 
L 3513 0 
L 2938 0 
L 2938 2094 
Q 2938 2591 2744 2837 
Q 2550 3084 2163 3084 
Q 1697 3084 1428 2787 
Q 1159 2491 1159 1978 
L 1159 0 
L 581 0 
L 581 4863 
L 1159 4863 
L 1159 2956 
Q 1366 3272 1645 3428 
Q 1925 3584 2291 3584 
Q 2894 3584 3203 3211 
Q 3513 2838 3513 2113 
z
" transform="scale(0.015625)"/>
      </defs>
      <use xlink:href="#DejaVuSans-45"/>
      <use xlink:href="#DejaVuSans-70" x="63.183594"/>
      <use xlink:href="#DejaVuSans-6f" x="126.660156"/>
      <use xlink:href="#DejaVuSans-63" x="187.841797"/>
      <use xlink:href="#DejaVuSans-68" x="242.822266"/>
     </g>
    </g>
   </g>
   <g id="matplotlib.axis_2">
    <g id="ytick_1">
     <g id="line2d_7">
      <defs>
       <path id="m4ca7d24400" d="M 0 0 
L -3.5 0 
" style="stroke: #000000; stroke-width: 0.8"/>
      </defs>
      <g>
       <use xlink:href="#m4ca7d24400" x="77.51125" y="418.53924" style="stroke: #000000; stroke-width: 0.8"/>
      </g>
     </g>
     <g id="text_8">
      <!-- 0.5 -->
      <g transform="translate(29.163125 428.417209) scale(0.26 -0.26)">
       <defs>
        <path id="DejaVuSans-2e" d="M 684 794 
L 1344 794 
L 1344 0 
L 684 0 
L 684 794 
z
" transform="scale(0.015625)"/>
        <path id="DejaVuSans-35" d="M 691 4666 
L 3169 4666 
L 3169 4134 
L 1269 4134 
L 1269 2991 
Q 1406 3038 1543 3061 
Q 1681 3084 1819 3084 
Q 2600 3084 3056 2656 
Q 3513 2228 3513 1497 
Q 3513 744 3044 326 
Q 2575 -91 1722 -91 
Q 1428 -91 1123 -41 
Q 819 9 494 109 
L 494 744 
Q 775 591 1075 516 
Q 1375 441 1709 441 
Q 2250 441 2565 725 
Q 2881 1009 2881 1497 
Q 2881 1984 2565 2268 
Q 2250 2553 1709 2553 
Q 1456 2553 1204 2497 
Q 953 2441 691 2322 
L 691 4666 
z
" transform="scale(0.015625)"/>
       </defs>
       <use xlink:href="#DejaVuSans-30"/>
       <use xlink:href="#DejaVuSans-2e" x="63.623047"/>
       <use xlink:href="#DejaVuSans-35" x="95.410156"/>
      </g>
     </g>
    </g>
    <g id="ytick_2">
     <g id="line2d_8">
      <g>
       <use xlink:href="#m4ca7d24400" x="77.51125" y="330.98952" style="stroke: #000000; stroke-width: 0.8"/>
      </g>
     </g>
     <g id="text_9">
      <!-- 1.0 -->
      <g transform="translate(29.163125 340.867489) scale(0.26 -0.26)">
       <use xlink:href="#DejaVuSans-31"/>
       <use xlink:href="#DejaVuSans-2e" x="63.623047"/>
       <use xlink:href="#DejaVuSans-30" x="95.410156"/>
      </g>
     </g>
    </g>
    <g id="ytick_3">
     <g id="line2d_9">
      <g>
       <use xlink:href="#m4ca7d24400" x="77.51125" y="243.439801" style="stroke: #000000; stroke-width: 0.8"/>
      </g>
     </g>
     <g id="text_10">
      <!-- 1.5 -->
      <g transform="translate(29.163125 253.317769) scale(0.26 -0.26)">
       <use xlink:href="#DejaVuSans-31"/>
       <use xlink:href="#DejaVuSans-2e" x="63.623047"/>
       <use xlink:href="#DejaVuSans-35" x="95.410156"/>
      </g>
     </g>
    </g>
    <g id="ytick_4">
     <g id="line2d_10">
      <g>
       <use xlink:href="#m4ca7d24400" x="77.51125" y="155.890081" style="stroke: #000000; stroke-width: 0.8"/>
      </g>
     </g>
     <g id="text_11">
      <!-- 2.0 -->
      <g transform="translate(29.163125 165.76805) scale(0.26 -0.26)">
       <use xlink:href="#DejaVuSans-32"/>
       <use xlink:href="#DejaVuSans-2e" x="63.623047"/>
       <use xlink:href="#DejaVuSans-30" x="95.410156"/>
      </g>
     </g>
    </g>
    <g id="ytick_5">
     <g id="line2d_11">
      <g>
       <use xlink:href="#m4ca7d24400" x="77.51125" y="68.340361" style="stroke: #000000; stroke-width: 0.8"/>
      </g>
     </g>
     <g id="text_12">
      <!-- 2.5 -->
      <g transform="translate(29.163125 78.21833) scale(0.26 -0.26)">
       <use xlink:href="#DejaVuSans-32"/>
       <use xlink:href="#DejaVuSans-2e" x="63.623047"/>
       <use xlink:href="#DejaVuSans-35" x="95.410156"/>
      </g>
     </g>
    </g>
    <g id="text_13">
     <!-- Loss -->
     <g transform="translate(19.755938 277.994687) rotate(-90) scale(0.26 -0.26)">
      <defs>
       <path id="DejaVuSans-4c" d="M 628 4666 
L 1259 4666 
L 1259 531 
L 3531 531 
L 3531 0 
L 628 0 
L 628 4666 
z
" transform="scale(0.015625)"/>
       <path id="DejaVuSans-73" d="M 2834 3397 
L 2834 2853 
Q 2591 2978 2328 3040 
Q 2066 3103 1784 3103 
Q 1356 3103 1142 2972 
Q 928 2841 928 2578 
Q 928 2378 1081 2264 
Q 1234 2150 1697 2047 
L 1894 2003 
Q 2506 1872 2764 1633 
Q 3022 1394 3022 966 
Q 3022 478 2636 193 
Q 2250 -91 1575 -91 
Q 1294 -91 989 -36 
Q 684 19 347 128 
L 347 722 
Q 666 556 975 473 
Q 1284 391 1588 391 
Q 1994 391 2212 530 
Q 2431 669 2431 922 
Q 2431 1156 2273 1281 
Q 2116 1406 1581 1522 
L 1381 1569 
Q 847 1681 609 1914 
Q 372 2147 372 2553 
Q 372 3047 722 3315 
Q 1072 3584 1716 3584 
Q 2034 3584 2315 3537 
Q 2597 3491 2834 3397 
z
" transform="scale(0.015625)"/>
      </defs>
      <use xlink:href="#DejaVuSans-4c"/>
      <use xlink:href="#DejaVuSans-6f" x="53.962891"/>
      <use xlink:href="#DejaVuSans-73" x="115.144531"/>
      <use xlink:href="#DejaVuSans-73" x="167.244141"/>
     </g>
    </g>
   </g>
   <g id="line2d_12">
    <path d="M 118.093068 372.063947 
L 118.17424 384.235085 
L 118.255412 380.645692 
L 118.336583 378.358105 
L 118.580099 384.499698 
L 118.823614 382.177012 
L 119.067129 384.684689 
L 119.148301 384.6276 
L 119.391816 383.801835 
L 119.716503 384.990569 
L 119.960019 384.641847 
L 120.365877 385.285167 
L 120.447049 385.223163 
L 120.609393 385.262572 
L 120.93408 385.643617 
L 121.177595 385.705977 
L 121.583454 386.028232 
L 121.908141 386.296059 
L 123.206889 387.346569 
L 124.992667 389.173949 
L 130.837033 396.074846 
L 131.080549 396.100155 
L 131.324064 396.649462 
L 131.486408 396.596506 
L 131.811095 397.034348 
L 131.973438 397.163315 
L 132.216953 397.504962 
L 132.379297 397.530991 
L 132.947499 398.103884 
L 133.191014 398.056929 
L 133.515701 398.745712 
L 133.596873 398.696962 
L 133.759217 398.662886 
L 134.165075 399.202028 
L 134.327419 399.147579 
L 134.489762 399.355197 
L 134.733278 399.788865 
L 134.895621 399.790086 
L 135.220308 399.636624 
L 135.544995 400.398892 
L 135.78851 400.208568 
L 136.194369 400.859987 
L 136.437884 400.710168 
L 136.600228 400.954147 
L 136.843743 401.445655 
L 137.006087 401.449538 
L 137.249602 401.150703 
L 137.330774 401.0474 
L 137.411946 401.136018 
L 137.736633 402.05035 
L 137.980148 401.772774 
L 138.304835 402.51945 
L 138.386007 402.463592 
L 138.629522 402.292085 
L 138.873037 402.805876 
L 139.116552 403.080205 
L 139.278896 402.986776 
L 139.603583 402.218506 
L 139.684755 402.395587 
L 139.92827 403.621371 
L 140.171785 403.074455 
L 140.4153 403.955462 
L 140.658816 403.583089 
L 140.983503 404.310102 
L 141.064674 404.257031 
L 141.30819 404.086161 
L 141.470533 404.328711 
L 141.79522 404.857739 
L 142.038735 404.864804 
L 142.201079 404.543948 
L 142.444594 402.888754 
L 142.525766 403.245805 
L 142.68811 405.368346 
L 142.769281 405.126474 
L 142.931625 404.272832 
L 143.093968 405.619798 
L 143.256312 404.88644 
L 143.337484 405.025113 
L 143.499827 405.849386 
L 143.662171 405.359568 
L 143.905686 406.081279 
L 143.986858 405.942043 
L 144.068029 405.790982 
L 144.149201 405.872117 
L 144.392716 406.32957 
L 144.636232 406.226361 
L 144.960919 406.691495 
L 145.285606 406.593316 
L 145.853808 406.327733 
L 146.42201 407.466329 
L 146.584354 407.287015 
L 146.746697 406.757518 
L 146.990212 405.763439 
L 147.152556 407.114684 
L 147.314899 407.914044 
L 147.558415 406.99464 
L 147.80193 408.211825 
L 147.883102 408.108908 
L 148.045445 407.631417 
L 148.126617 407.706499 
L 148.451304 408.497729 
L 148.775991 408.165559 
L 149.019506 408.602222 
L 149.344193 408.993725 
L 149.587709 409.010257 
L 149.750052 408.75799 
L 149.912396 407.605242 
L 150.155911 404.989993 
L 150.318254 409.206039 
L 150.399426 409.175637 
L 150.56177 407.075776 
L 150.724113 409.580207 
L 150.805285 409.212949 
L 150.886457 408.27049 
L 150.967628 408.373208 
L 151.129972 409.766858 
L 151.292315 408.839386 
L 151.454659 409.872143 
L 151.535831 409.843589 
L 151.698174 409.384737 
L 151.860518 410.098944 
L 151.941689 410.035478 
L 152.104033 409.776699 
L 152.347548 410.312438 
L 152.591063 410.163193 
L 152.834579 410.560071 
L 153.240437 410.548726 
L 153.80864 411.016188 
L 154.133327 411.015614 
L 154.29567 410.567042 
L 154.458014 408.478933 
L 154.620357 404.805378 
L 154.701529 405.94364 
L 154.863873 411.483117 
L 155.026216 408.052675 
L 155.107388 408.848383 
L 155.269731 411.355601 
L 155.432075 409.586438 
L 155.594418 411.733693 
L 155.756762 410.295645 
L 155.919105 411.87247 
L 156.081449 410.968815 
L 156.162621 411.271335 
L 156.324964 411.936614 
L 156.487308 411.48629 
L 156.649651 412.174373 
L 156.811995 411.804005 
L 156.893166 411.903582 
L 157.05551 412.346162 
L 157.299025 412.17764 
L 157.54254 412.540379 
L 157.786056 412.475411 
L 158.110743 412.798324 
L 158.516601 412.83242 
L 159.165975 413.123574 
L 159.328319 412.963589 
L 159.490662 412.194495 
L 159.81535 407.677902 
L 160.058865 413.640996 
L 160.140037 412.874574 
L 160.30238 410.835267 
L 160.545895 413.671806 
L 160.708239 412.106389 
L 160.951754 413.964619 
L 161.032926 413.502313 
L 161.114098 412.991101 
L 161.195269 413.070931 
L 161.357613 414.107425 
L 161.438785 414.059802 
L 161.601128 413.538581 
L 161.925815 414.309553 
L 162.006987 414.147022 
L 162.16933 414.031915 
L 162.494017 414.58406 
L 162.899876 414.439083 
L 163.792765 415.014294 
L 163.955109 414.851502 
L 164.117452 413.998486 
L 164.279796 410.998236 
L 164.442139 407.478613 
L 164.604483 413.196903 
L 164.685655 415.425689 
L 164.766826 414.499345 
L 164.92917 411.521534 
L 165.091513 415.406006 
L 165.172685 415.23932 
L 165.335029 413.228328 
L 165.497372 415.613937 
L 165.578544 415.506073 
L 165.740888 414.286415 
L 165.903231 415.780288 
L 165.984403 415.766438 
L 166.146746 414.973831 
L 166.390262 416.023276 
L 166.552605 415.516416 
L 166.633777 415.563757 
L 166.877292 416.197611 
L 167.120807 415.925286 
L 167.445494 416.423316 
L 167.851353 416.344394 
L 168.500727 416.843343 
L 168.825414 416.884192 
L 168.987758 416.716797 
L 169.150101 415.876807 
L 169.312445 412.731946 
L 169.474788 407.854513 
L 169.55596 408.886164 
L 169.718303 416.841757 
L 169.799475 416.786755 
L 169.961819 412.471226 
L 170.205334 417.339422 
L 170.367677 414.6144 
L 170.448849 415.228122 
L 170.611193 417.495827 
L 170.773536 415.848169 
L 170.854708 416.142046 
L 171.017051 417.633081 
L 171.179395 416.674069 
L 171.260567 416.70754 
L 171.42291 417.731864 
L 171.504082 417.686078 
L 171.666426 417.159733 
L 171.909941 417.920237 
L 171.991113 417.881569 
L 172.153456 417.588735 
L 172.3158 417.827444 
L 172.478143 418.119287 
L 172.640487 418.047002 
L 172.80283 417.963946 
L 173.046345 418.184861 
L 173.371032 418.436637 
L 173.695719 418.444767 
L 173.858063 418.339794 
L 174.020406 417.99223 
L 174.18275 416.993225 
L 174.507437 412.811954 
L 174.588609 413.564892 
L 174.832124 418.885422 
L 174.913296 418.582547 
L 175.156811 416.197444 
L 175.481498 419.038012 
L 175.725013 417.62924 
L 175.887357 418.429936 
L 176.0497 419.283051 
L 176.130872 419.244482 
L 176.455559 418.548899 
L 176.942589 419.566043 
L 177.186105 419.316762 
L 177.591964 418.551853 
L 177.916651 417.798889 
L 177.997822 417.788421 
L 178.160166 418.262093 
L 178.566025 420.026919 
L 178.728368 420.182724 
L 178.890712 420.112918 
L 179.053055 419.838332 
L 179.215399 419.15244 
L 179.458914 416.46141 
L 179.621257 414.838268 
L 179.702429 415.388545 
L 180.027116 420.550222 
L 180.351803 418.098862 
L 180.67649 420.781276 
L 180.757662 420.698054 
L 181.082349 419.531299 
L 181.244692 420.145783 
L 181.488208 421.042111 
L 181.650551 420.994248 
L 182.137582 419.945257 
L 182.381097 419.529097 
L 182.54344 419.54877 
L 182.786956 420.20329 
L 183.192815 421.387682 
L 183.517502 421.698556 
L 184.004532 421.801942 
L 184.166876 421.583428 
L 184.329219 420.460874 
L 184.491563 415.988438 
L 184.653906 408.051005 
L 184.735078 409.5363 
L 184.978593 421.941456 
L 185.140937 415.742757 
L 185.222108 415.96339 
L 185.384452 422.138199 
L 185.465624 421.542209 
L 185.627967 418.323221 
L 185.871482 422.296811 
L 186.033826 420.086946 
L 186.114998 420.557486 
L 186.277341 422.537999 
L 186.520856 421.220825 
L 186.764372 422.673108 
L 187.007887 421.959156 
L 187.251402 422.85096 
L 187.494917 422.424092 
L 187.576089 422.516233 
L 187.819604 423.035659 
L 187.981948 422.934751 
L 188.144291 422.835451 
L 188.387807 423.079379 
L 188.712494 423.322988 
L 189.118353 423.244937 
L 189.361868 423.003869 
L 189.524211 422.547183 
L 189.686555 421.508399 
L 190.011242 418.145942 
L 190.092414 418.561496 
L 190.498272 423.805421 
L 190.822959 421.467915 
L 190.904131 421.511321 
L 191.30999 424.088956 
L 191.391162 424.036365 
L 191.878192 422.77927 
L 192.040536 422.980673 
L 192.68991 424.366516 
L 193.095768 424.518861 
L 193.258112 424.442735 
L 193.420455 424.047318 
L 193.582799 422.560104 
L 193.745142 418.181385 
L 193.907486 412.799378 
L 193.988658 414.302748 
L 194.232173 424.863033 
L 194.313345 423.950653 
L 194.475688 419.568652 
L 194.55686 420.017709 
L 194.800375 424.988764 
L 195.043891 422.078281 
L 195.368578 425.053973 
L 195.612093 423.600793 
L 195.93678 425.283879 
L 196.261467 424.50462 
L 196.667326 425.483643 
L 197.154356 425.080065 
L 197.560215 425.434032 
L 197.884902 425.595917 
L 198.128417 425.479677 
L 198.290761 425.088895 
L 198.453104 424.017255 
L 198.858963 418.292568 
L 199.021306 421.953166 
L 199.264822 426.159354 
L 199.589509 422.850751 
L 199.67068 423.233185 
L 199.995368 426.364567 
L 200.076539 426.20669 
L 200.401226 424.769906 
L 200.482398 424.904848 
L 200.969429 426.600609 
L 201.131772 426.425319 
L 201.456459 425.563782 
L 202.024661 423.606585 
L 202.187005 424.356585 
L 202.592864 426.847016 
L 202.755207 427.038728 
L 202.917551 426.919457 
L 203.161066 426.282732 
L 203.404581 424.554116 
L 203.729268 421.509709 
L 203.891612 423.241722 
L 204.216299 427.381095 
L 204.29747 427.214305 
L 204.703329 424.786041 
L 204.784501 424.873011 
L 205.352703 427.661718 
L 205.433875 427.628226 
L 205.67739 427.10737 
L 205.920906 426.040261 
L 206.326764 423.607342 
L 206.489108 424.373472 
L 206.894967 427.947199 
L 206.976138 428.03348 
L 207.138482 427.718405 
L 207.463169 426.16391 
L 207.787856 424.862428 
L 207.869028 424.963393 
L 208.112543 426.588873 
L 208.43723 428.290907 
L 208.599573 428.386602 
L 208.761917 428.188789 
L 209.005432 427.338242 
L 209.248947 425.102922 
L 209.492463 422.502169 
L 209.573634 422.630275 
L 209.979493 428.6523 
L 210.060665 428.638717 
L 210.30418 426.882981 
L 210.466524 426.019006 
L 210.547695 426.077264 
L 210.710039 426.984645 
L 211.034726 428.845636 
L 211.197069 428.915984 
L 211.440585 428.407068 
L 211.765272 427.06077 
L 212.089959 425.464111 
L 212.171131 425.386096 
L 212.333474 426.150671 
L 212.739333 429.106799 
L 212.901676 429.320319 
L 213.06402 429.145932 
L 213.307535 428.364251 
L 213.55105 426.605061 
L 213.875737 424.156236 
L 214.038081 425.513075 
L 214.362768 429.475827 
L 214.44394 429.639783 
L 214.606283 429.165094 
L 215.093314 426.783419 
L 215.255657 427.187806 
L 215.823859 429.8917 
L 215.986203 429.939051 
L 216.229718 429.666642 
L 216.392062 429.186745 
L 216.554405 428.166679 
L 216.960264 422.948163 
L 217.041436 423.275746 
L 217.447295 430.212494 
L 217.528466 430.138899 
L 217.934325 427.177584 
L 218.015497 427.341117 
L 218.502527 430.459182 
L 218.583699 430.426718 
L 218.827214 429.744302 
L 219.314245 428.196726 
L 219.476588 428.15035 
L 219.638932 428.455886 
L 220.369478 430.482544 
L 220.612993 430.610389 
L 220.775336 430.559745 
L 220.93768 430.310745 
L 221.100023 429.599022 
L 221.262367 427.810676 
L 221.587054 421.652629 
L 221.668226 422.172755 
L 222.074084 431.077877 
L 222.398771 427.287404 
L 222.479943 427.41552 
L 222.885802 431.313398 
L 222.966974 431.177297 
L 223.372833 429.514104 
L 223.535176 429.911122 
L 223.941035 431.412473 
L 224.18455 431.556814 
L 224.428065 431.357534 
L 224.671581 430.719088 
L 224.915096 428.891056 
L 225.320955 424.599344 
L 225.56447 429.226686 
L 225.807985 431.86273 
L 225.970329 431.001031 
L 226.295016 428.727873 
L 226.376187 428.816841 
L 226.700874 431.194789 
L 226.94439 432.068141 
L 227.106733 431.953086 
L 227.350248 431.293437 
L 227.999622 428.614681 
L 228.080794 428.642333 
L 228.243138 429.348253 
L 228.730168 432.160657 
L 228.973684 432.440659 
L 229.217199 432.359696 
L 229.379542 432.129905 
L 229.541886 431.569912 
L 229.704229 430.214586 
L 230.110088 422.802982 
L 230.19126 423.717408 
L 230.597119 432.631271 
L 230.759462 430.767572 
L 231.002977 428.631213 
L 231.165321 430.239379 
L 231.408836 432.733613 
L 231.490008 432.836676 
L 231.652351 432.244214 
L 231.977038 431.00566 
L 232.05821 431.069929 
L 232.382897 432.250497 
L 232.707584 433.006258 
L 232.951099 433.096619 
L 233.194615 433.003549 
L 233.356958 432.791788 
L 233.519302 432.261523 
L 233.681645 430.962567 
L 233.92516 426.087571 
L 234.087504 422.891684 
L 234.168676 423.494411 
L 234.574535 433.323529 
L 234.736878 431.42518 
L 234.980393 429.180488 
L 235.223909 432.139966 
L 235.386252 433.443583 
L 235.467424 433.453962 
L 235.954454 431.662157 
L 236.116798 432.180492 
L 236.522657 433.605076 
L 236.766172 433.697212 
L 237.009687 433.488659 
L 237.253202 432.904943 
L 237.415546 431.990152 
L 237.659061 429.031096 
L 237.902576 426.17573 
L 238.06492 428.158345 
L 238.389607 433.883142 
L 238.470779 433.943388 
L 238.633122 432.879029 
L 238.957809 430.590392 
L 239.038981 430.710378 
L 239.282496 432.460698 
L 239.526011 433.968937 
L 239.688355 434.181748 
L 239.850698 433.976259 
L 240.094214 433.223618 
L 240.418901 431.357754 
L 240.743588 429.669935 
L 240.82476 429.8481 
L 241.149447 432.937312 
L 241.392962 434.366139 
L 241.555305 434.437813 
L 241.717649 434.112531 
L 241.961164 433.065074 
L 242.529366 429.284678 
L 242.69171 430.48029 
L 243.097569 434.575348 
L 243.259912 434.696034 
L 243.422256 434.256516 
L 243.746943 432.41749 
L 244.07163 430.375145 
L 244.152801 430.360607 
L 244.315145 431.221507 
L 244.802175 434.883472 
L 244.964519 434.988346 
L 245.126862 434.75689 
L 245.370378 433.925609 
L 245.613893 432.173839 
L 246.019752 429.081015 
L 246.182095 430.659979 
L 246.506782 434.909961 
L 246.669126 435.227916 
L 246.831469 434.658373 
L 247.399672 431.725784 
L 247.480843 431.783734 
L 247.643187 432.555615 
L 248.130217 435.299522 
L 248.373733 435.525671 
L 248.617248 435.388694 
L 248.860763 434.868381 
L 249.023107 433.953966 
L 249.266622 430.482273 
L 249.510137 425.875433 
L 249.591309 426.186594 
L 249.997168 435.66617 
L 250.078339 435.630534 
L 250.484198 431.731305 
L 250.56537 431.976929 
L 251.0524 435.9105 
L 251.133572 435.834692 
L 251.782946 433.922269 
L 251.864118 433.954148 
L 252.107633 434.360367 
L 252.594664 435.281566 
L 252.838179 435.403039 
L 253.000523 435.304616 
L 253.162866 434.957876 
L 253.32521 434.163796 
L 253.568725 431.521929 
L 253.81224 428.463672 
L 253.893412 428.426428 
L 254.055755 431.005514 
L 254.380442 436.374241 
L 254.461614 436.390042 
L 254.623958 435.368948 
L 254.948645 433.016433 
L 255.029816 432.986016 
L 255.19216 433.738228 
L 255.598019 436.414511 
L 255.760362 436.661016 
L 255.922706 436.546603 
L 256.166221 435.999134 
L 256.409736 434.923315 
L 256.734423 432.099232 
L 256.977938 430.74662 
L 257.140282 432.142283 
L 257.546141 436.838801 
L 257.627313 436.946351 
L 257.789656 436.53626 
L 258.520202 433.535609 
L 258.682545 434.124032 
L 259.250748 437.025467 
L 259.494263 437.239258 
L 259.737778 437.174279 
L 259.981293 436.834282 
L 260.143637 436.204043 
L 260.30598 434.715576 
L 260.549496 429.15605 
L 260.711839 425.067035 
L 260.793011 425.247204 
L 261.036526 434.273116 
L 261.19887 437.458613 
L 261.280041 437.00571 
L 261.604728 432.586732 
L 261.767072 434.233075 
L 262.010587 437.423884 
L 262.091759 437.587673 
L 262.254102 436.84571 
L 262.497618 435.58718 
L 262.578789 435.575475 
L 262.741133 436.122475 
L 263.146992 437.685043 
L 263.309335 437.766157 
L 263.552851 437.548556 
L 263.796366 437.028817 
L 264.039881 435.879482 
L 264.283396 433.476412 
L 264.608083 430.597797 
L 264.770427 432.392624 
L 265.095114 437.685659 
L 265.176286 438.002889 
L 265.257457 437.912459 
L 265.500973 436.38343 
L 265.744488 434.984959 
L 265.82566 434.859603 
L 265.906831 434.934571 
L 266.150347 436.137332 
L 266.556205 438.020741 
L 266.799721 438.237726 
L 267.043236 438.129893 
L 267.286751 437.724165 
L 267.449095 437.039499 
L 267.611438 435.540423 
L 267.854953 430.562683 
L 268.017297 427.184858 
L 268.098469 427.209525 
L 268.341984 434.934529 
L 268.504327 438.309864 
L 268.585499 438.300143 
L 268.991358 434.048095 
L 269.153702 435.451205 
L 269.478389 438.535413 
L 269.55956 438.518182 
L 269.803076 437.441272 
L 270.046591 436.563005 
L 270.208934 436.575967 
L 270.45245 437.239989 
L 270.858308 438.312385 
L 271.182995 438.621385 
L 271.507682 438.653045 
L 271.751198 438.419273 
L 271.913541 437.879448 
L 272.075885 436.486008 
L 272.3194 430.779574 
L 272.562915 425.082419 
L 272.725259 430.433293 
L 272.968774 438.885148 
L 273.049946 438.680713 
L 273.374633 433.678999 
L 273.455804 434.161704 
L 273.861663 439.066351 
L 274.024007 438.09671 
L 274.267522 436.850177 
L 274.348694 436.987921 
L 274.916896 439.232201 
L 275.07924 439.039106 
L 275.485098 437.963949 
L 275.972129 435.844717 
L 276.215644 435.121164 
L 276.296816 435.16875 
L 276.459159 435.842155 
L 277.027362 439.260735 
L 277.270877 439.548575 
L 277.514392 439.474678 
L 277.757907 439.11999 
L 277.920251 438.507009 
L 278.082594 437.165747 
L 278.32611 432.491512 
L 278.569625 427.728821 
L 278.650797 428.633457 
L 279.056655 439.743726 
L 279.137827 439.337236 
L 279.462514 435.247887 
L 279.543686 435.331647 
L 279.787201 438.216503 
L 280.030716 439.879738 
L 280.19306 439.425479 
L 280.517747 438.055521 
L 280.680091 438.030948 
L 280.923606 438.669817 
L 281.329465 439.754377 
L 281.654152 440.053588 
L 282.222354 440.169984 
L 282.547041 440.092595 
L 282.709384 439.822978 
L 282.871728 438.927239 
L 283.034071 436.144116 
L 283.196415 428.829521 
L 283.43993 418.230908 
L 283.764617 440.182174 
L 283.845789 439.37856 
L 284.089304 431.28455 
L 284.170476 432.443571 
L 284.413991 440.242853 
L 284.495163 440.07418 
L 284.738678 436.247205 
L 284.81985 436.611739 
L 285.144537 440.442565 
L 285.469224 438.531076 
L 285.550396 438.785921 
L 285.875083 440.55953 
L 285.956255 440.531846 
L 286.362113 439.670502 
L 286.524457 439.865147 
L 287.011487 440.70041 
L 287.336174 440.740445 
L 287.660861 440.570901 
L 287.904377 440.163106 
L 288.06672 439.505967 
L 288.229064 438.147625 
L 288.472579 433.777162 
L 288.716094 429.434977 
L 288.797266 430.120718 
L 289.203125 440.894716 
L 289.284296 440.816117 
L 289.690155 436.861668 
L 289.852499 438.061767 
L 290.177186 441.03031 
L 290.258357 441.082097 
L 290.420701 440.581624 
L 290.745388 439.42275 
L 290.907731 439.365014 
L 291.151247 439.800894 
L 291.638277 440.737455 
L 291.962964 440.883919 
L 292.20648 440.686341 
L 292.368823 440.255779 
L 292.531167 439.285392 
L 292.774682 435.652519 
L 293.099369 428.792476 
L 293.180541 429.672225 
L 293.586399 441.441408 
L 293.667571 441.100523 
L 293.992258 436.946278 
L 294.07343 437.095691 
L 294.56046 441.565339 
L 294.641632 441.373919 
L 295.047491 439.759392 
L 295.209834 439.90822 
L 295.94038 441.674774 
L 296.346239 441.812528 
L 296.833269 441.763032 
L 296.995613 441.566764 
L 297.157956 440.945627 
L 297.3203 439.078024 
L 297.482644 433.957306 
L 297.807331 419.46285 
L 298.132018 441.763016 
L 298.213189 441.184242 
L 298.456705 432.980161 
L 298.537876 433.820266 
L 298.862563 441.915189 
L 299.18725 438.113205 
L 299.511937 442.10973 
L 299.593109 441.912867 
L 299.836624 440.318723 
L 299.917796 440.356029 
L 300.323655 442.227216 
L 300.404827 442.137001 
L 300.810685 441.397725 
L 301.054201 441.76729 
L 301.460059 442.354539 
L 301.784746 442.388892 
L 302.109433 442.228171 
L 302.352949 441.826628 
L 302.515292 441.147264 
L 302.677636 439.66783 
L 302.921151 434.481908 
L 303.164666 428.752509 
L 303.245838 429.584953 
L 303.651697 442.594663 
L 303.732869 442.082495 
L 304.057556 437.683879 
L 304.219899 439.206078 
L 304.544586 442.705929 
L 304.625758 442.541336 
L 305.031617 440.784186 
L 305.19396 441.203811 
L 305.599819 442.728128 
L 305.762162 442.86487 
L 306.005678 442.72579 
L 306.249193 442.326652 
L 306.492708 441.478975 
L 306.736223 439.596187 
L 307.223254 433.544668 
L 307.304426 434.119931 
L 307.791456 443.068778 
L 307.872628 442.924662 
L 308.359658 439.681403 
L 308.44083 439.805303 
L 308.684345 441.224903 
L 309.009033 443.030224 
L 309.171376 443.251541 
L 309.33372 443.152136 
L 309.577235 442.679414 
L 309.82075 441.793721 
L 310.064265 439.98255 
L 310.551296 434.494845 
L 310.632468 434.897677 
L 310.875983 439.61836 
L 311.119498 443.315836 
L 311.20067 443.442168 
L 311.363013 442.575323 
L 311.6877 440.403673 
L 311.768872 440.244095 
L 311.850044 440.312414 
L 312.012387 440.92635 
L 312.58059 443.514922 
L 312.824105 443.659012 
L 313.06762 443.511139 
L 313.311135 443.042201 
L 313.473479 442.260546 
L 313.635822 440.589233 
L 313.879338 434.804231 
L 314.122853 428.87908 
L 314.204025 429.997252 
L 314.609883 443.812401 
L 314.772227 441.593049 
L 315.015742 438.597689 
L 315.178086 440.494519 
L 315.421601 443.783293 
L 315.502773 443.94082 
L 315.665116 443.151839 
L 316.070975 439.772861 
L 316.152147 439.792852 
L 316.31449 441.144593 
L 316.639177 444.01504 
L 316.720349 444.098044 
L 316.882693 443.68896 
L 317.288551 442.2898 
L 317.450895 442.169715 
L 317.69441 442.406681 
L 318.343784 443.240003 
L 318.587299 443.142294 
L 318.749643 442.817962 
L 318.993158 441.58914 
L 319.236673 438.653139 
L 319.56136 434.006797 
L 319.642532 434.321021 
L 319.804876 437.694426 
L 320.129563 444.427177 
L 320.210734 444.434524 
L 320.45425 442.208686 
L 320.697765 440.731198 
L 320.778937 440.829382 
L 321.022452 442.541863 
L 321.347139 444.528982 
L 321.509483 444.653518 
L 321.752998 444.228576 
L 322.158857 442.957788 
L 322.483544 441.124794 
L 322.970574 438.128745 
L 323.132918 439.093752 
L 323.70112 444.888538 
L 323.782292 444.876186 
L 323.944635 444.417925 
L 324.431666 441.881833 
L 324.837524 439.930768 
L 324.918696 439.926505 
L 324.999868 440.095601 
L 325.243383 441.830495 
L 325.649242 444.794373 
L 325.811585 445.11655 
L 325.973929 445.07724 
L 326.217444 444.642983 
L 326.46096 443.697941 
L 326.704475 441.544022 
L 327.191505 433.541073 
L 327.272677 434.175501 
L 327.759708 445.289893 
L 327.840879 444.87412 
L 328.246738 441.34813 
L 328.409082 442.308409 
L 328.81494 445.363624 
L 328.896112 445.423353 
L 329.058456 445.130201 
L 329.789001 443.142117 
L 330.357204 442.390593 
L 330.519547 442.379682 
L 330.681891 442.520859 
L 330.925406 442.970166 
L 331.493608 444.233925 
L 331.818295 444.476115 
L 331.980639 444.388681 
L 332.142982 444.089966 
L 332.386498 442.953869 
L 332.630013 440.388268 
L 333.035872 435.754773 
L 333.198215 438.158312 
L 333.522902 445.457732 
L 333.604074 445.890163 
L 333.685246 445.693493 
L 334.172276 442.426939 
L 334.253448 442.574202 
L 334.578135 444.686337 
L 334.82165 445.859901 
L 334.983994 446.04949 
L 335.146337 445.922015 
L 335.471024 445.206593 
L 335.714539 444.182289 
L 335.958055 442.095745 
L 336.445085 435.710177 
L 336.526257 436.29082 
L 336.769772 442.141134 
L 337.013287 446.182871 
L 337.094459 446.084996 
L 337.58149 442.67705 
L 337.662662 442.847973 
L 338.393207 446.351252 
L 338.636723 445.967958 
L 338.96141 445.034026 
L 339.204925 443.70675 
L 339.529612 440.293758 
L 339.854299 437.536867 
L 340.016642 439.324242 
L 340.422501 446.424106 
L 340.503673 446.529173 
L 340.666016 445.641935 
L 340.990703 443.556554 
L 341.071875 443.383816 
L 341.153047 443.437863 
L 341.31539 443.96484 
L 341.964764 446.651559 
L 342.20828 446.754883 
L 342.532967 446.554424 
L 342.776482 446.074684 
L 342.938825 445.315082 
L 343.101169 443.684671 
L 343.263512 440.253044 
L 343.5882 428.01354 
L 343.669371 428.022803 
L 343.831715 436.106147 
L 344.07523 446.856568 
L 344.156402 446.085084 
L 344.399917 440.362823 
L 344.481089 440.37004 
L 344.886948 446.947759 
L 345.211635 444.237213 
L 345.292806 444.290795 
L 345.536322 446.138374 
L 345.779837 447.094776 
L 345.94218 446.714983 
L 346.266867 445.883718 
L 346.429211 445.907837 
L 346.83507 446.604062 
L 347.240928 447.079909 
L 347.646787 447.199754 
L 347.890302 447.119339 
L 348.052646 446.910646 
L 348.214989 446.36409 
L 348.377333 444.986899 
L 348.539676 441.606444 
L 348.783192 428.924203 
L 348.945535 422.713326 
L 349.107879 433.479647 
L 349.351394 447.315931 
L 349.676081 438.670908 
L 350.000768 447.49455 
L 350.08194 446.881877 
L 350.325455 443.418805 
L 350.487799 445.235962 
L 350.731314 447.57687 
L 351.056001 445.793315 
L 351.137173 446.008833 
L 351.543031 447.716044 
L 352.030062 446.967104 
L 352.111234 447.043814 
L 352.679436 447.86005 
L 353.004123 447.897904 
L 353.409982 447.713878 
L 353.653497 447.313217 
L 353.81584 446.659021 
L 353.978184 445.227795 
L 354.140527 442.247975 
L 354.546386 428.409129 
L 354.627558 429.646436 
L 355.033417 447.803514 
L 355.358104 441.171436 
L 355.520447 444.31015 
L 355.763963 448.12816 
L 356.08865 445.270857 
L 356.169821 445.433247 
L 356.57568 448.251287 
L 356.656852 448.1277 
L 357.062711 447.055273 
L 357.225054 447.367916 
L 357.630913 448.326014 
L 357.874428 448.385744 
L 358.199115 448.169369 
L 358.44263 447.852275 
L 358.686146 447.112383 
L 358.929661 445.233869 
L 359.173176 440.283452 
L 359.497863 431.318193 
L 359.660207 435.885352 
L 359.984894 448.513192 
L 360.147237 445.522492 
L 360.309581 442.877425 
L 360.390752 443.07099 
L 360.796611 448.613259 
L 361.20247 446.346895 
L 361.364814 447.19608 
L 361.689501 448.753868 
L 361.851844 448.54446 
L 362.257703 447.711765 
L 362.420046 447.684859 
L 362.663562 447.84882 
L 363.06942 448.160133 
L 363.312936 448.134536 
L 363.475279 447.961328 
L 363.637623 447.565755 
L 363.799966 446.742176 
L 363.96231 445.114097 
L 364.205825 439.98841 
L 364.530512 432.531819 
L 364.611684 434.03257 
L 365.017542 448.876771 
L 365.342229 443.289734 
L 365.423401 443.835424 
L 365.82926 449.058303 
L 366.235119 446.848391 
L 366.478634 448.227288 
L 366.722149 449.202956 
L 366.803321 449.187129 
L 367.533867 448.191359 
L 368.183241 448.344242 
L 368.426756 448.012093 
L 368.5891 447.486206 
L 368.832615 445.717956 
L 369.07613 441.395048 
L 369.400817 433.942579 
L 369.481989 434.820711 
L 369.644332 440.941895 
L 369.887848 449.366594 
L 369.969019 449.072424 
L 370.293706 444.351719 
L 370.45605 446.132754 
L 370.699565 449.433008 
L 370.780737 449.525811 
L 371.186596 447.55237 
L 371.267767 447.721325 
L 371.83597 449.666379 
L 372.079485 449.323203 
L 372.891203 447.632023 
L 373.134718 446.349144 
L 373.459405 442.735152 
L 373.784092 439.023096 
L 373.865264 439.252453 
L 374.108779 445.185583 
L 374.352294 449.836847 
L 374.433466 449.652899 
L 374.839325 446.318027 
L 374.920496 446.510778 
L 375.488699 449.973928 
L 375.651042 449.633524 
L 376.056901 448.673594 
L 376.381588 448.446616 
L 376.868618 447.965576 
L 377.193305 446.836029 
L 377.517992 444.104045 
L 377.84268 440.877329 
L 377.923851 440.659028 
L 378.086195 442.465748 
L 378.492054 450.135682 
L 378.573225 450.126367 
L 378.979084 447.292819 
L 379.060256 447.316646 
L 379.222599 447.924575 
L 379.70963 450.302576 
L 379.871973 450.321634 
L 380.115489 449.95199 
L 380.440176 449.093146 
L 380.683691 447.625464 
L 380.927206 444.562202 
L 381.333065 435.179406 
L 381.414237 435.310351 
L 381.495408 436.576024 
L 381.901267 450.410951 
L 382.225954 445.35888 
L 382.307126 445.628566 
L 382.712985 450.55155 
L 382.794156 450.376943 
L 383.118843 448.597187 
L 383.200015 448.66417 
L 383.362359 449.339056 
L 383.687046 450.636567 
L 383.849389 450.596657 
L 385.066966 448.578787 
L 385.391653 447.18638 
L 385.71634 443.915135 
L 386.041027 439.649681 
L 386.122198 439.345998 
L 386.284542 441.901564 
L 386.609229 450.562451 
L 386.690401 450.848287 
L 386.852744 449.200686 
L 387.096259 447.196592 
L 387.177431 447.30791 
L 387.664462 450.960926 
L 387.745633 450.930231 
L 388.313836 449.682347 
L 388.476179 449.838856 
L 389.206725 450.711514 
L 389.45024 450.728426 
L 389.693756 450.456221 
L 389.856099 449.923655 
L 390.018443 448.726018 
L 390.180786 445.949981 
L 390.34313 439.535096 
L 390.667817 418.33015 
L 390.83016 432.241265 
L 391.073675 450.635414 
L 391.317191 439.643074 
L 391.398362 441.096662 
L 391.641878 451.164244 
L 391.885393 445.688212 
L 391.966565 445.856337 
L 392.21008 451.168946 
L 392.291252 450.950228 
L 392.534767 448.560522 
L 392.859454 451.323717 
L 392.940626 451.019063 
L 393.184141 450.04339 
L 393.59 451.372958 
L 393.914687 450.814008 
L 394.07703 451.063054 
L 394.320545 451.479522 
L 394.482889 451.474919 
L 394.888748 451.256311 
L 395.294607 451.440588 
L 395.862809 451.640164 
L 396.674526 451.669022 
L 396.918042 451.488701 
L 397.080385 451.067245 
L 397.242729 449.889725 
L 397.405072 446.527331 
L 397.567416 436.72038 
L 397.810931 404.441626 
L 397.892103 408.26738 
L 398.135618 450.413644 
L 398.21679 450.063877 
L 398.460305 434.471064 
L 398.70382 451.579814 
L 398.784992 449.71647 
L 398.947335 442.638309 
L 399.109679 447.916967 
L 399.272022 451.455815 
L 399.515538 447.299874 
L 399.759053 451.794988 
L 400.002568 449.398248 
L 400.08374 449.868361 
L 400.327255 451.806453 
L 400.57077 450.60186 
L 400.895458 451.943733 
L 400.976629 451.757327 
L 401.138973 451.323138 
L 401.220145 451.359447 
L 401.544832 452.022019 
L 401.95069 451.784207 
L 402.275377 452.107621 
L 403.168267 452.186032 
L 403.736469 452.235293 
L 404.304671 452.14129 
L 404.548186 451.920192 
L 404.71053 451.559175 
L 404.872873 450.781701 
L 405.035217 449.076108 
L 405.19756 445.185135 
L 405.359904 436.533469 
L 405.603419 419.348197 
L 405.684591 421.249995 
L 406.009278 451.998432 
L 406.252793 440.269769 
L 406.415137 446.750489 
L 406.57748 452.251199 
L 406.820996 446.413205 
L 406.983339 449.599886 
L 407.145683 452.40286 
L 407.389198 449.559579 
L 407.47037 449.866487 
L 407.713885 452.478276 
L 407.795057 452.31241 
L 408.038572 451.071832 
L 408.200915 451.816827 
L 408.363259 452.562203 
L 408.444431 452.544163 
L 408.769118 451.980752 
L 409.174976 452.671935 
L 409.662007 452.443308 
L 410.230209 452.791227 
L 410.960755 452.663205 
L 411.285442 452.465554 
L 411.528957 452.019065 
L 411.691301 451.286954 
L 411.853644 449.716647 
L 412.015988 446.146296 
L 412.259503 431.31012 
L 412.421847 418.686492 
L 412.503018 420.059701 
L 412.827705 452.714293 
L 412.908877 450.053295 
L 413.071221 440.942062 
L 413.152392 441.337375 
L 413.395908 452.869012 
L 413.639423 446.86258 
L 413.720595 447.225564 
L 413.96411 452.966497 
L 414.207625 449.978734 
L 414.288797 450.207268 
L 414.532312 453.043723 
L 414.694656 452.080261 
L 414.856999 451.555256 
L 415.181686 453.128355 
L 415.506373 452.418155 
L 415.912232 453.211666 
L 415.993404 453.140623 
L 416.236919 452.904168 
L 416.399262 452.992609 
L 416.805121 453.316529 
L 418.266213 453.142204 
L 418.509728 452.931064 
L 418.672072 452.555153 
L 418.834415 451.741662 
L 418.996759 449.987418 
L 419.159102 446.010274 
L 419.321446 436.86316 
L 419.564961 415.565667 
L 419.646133 416.655075 
L 419.97082 453.009637 
L 420.214335 439.354639 
L 420.539022 452.925141 
L 420.782537 446.482536 
L 421.026052 453.420756 
L 421.107224 452.841991 
L 421.269568 450.074559 
L 421.350739 450.33755 
L 421.594255 453.546925 
L 421.83777 451.760135 
L 421.918942 452.049624 
L 422.162457 453.638857 
L 422.487144 452.770729 
L 422.811831 453.714185 
L 423.136518 453.301427 
L 423.623549 453.771514 
L 423.948236 453.627226 
L 424.759953 453.885086 
L 425.652842 453.884825 
L 426.058701 453.771696 
L 426.302216 453.4579 
L 426.46456 452.916108 
L 426.626903 451.680059 
L 426.789247 448.700448 
L 426.95159 440.869303 
L 427.276277 405.513677 
L 427.357449 414.345361 
L 427.600964 453.62266 
L 427.682136 450.441567 
L 427.84448 436.794084 
L 427.925651 439.098767 
L 428.169167 453.550474 
L 428.412682 445.334328 
L 428.656197 454.002849 
L 428.899712 449.452039 
L 429.143228 454.052841 
L 429.224399 453.573852 
L 429.386743 451.599106 
L 429.549087 453.178248 
L 429.71143 454.079074 
L 429.954945 452.855538 
L 430.198461 454.219871 
L 430.279632 454.17446 
L 430.523148 453.563713 
L 430.847835 454.320731 
L 430.929006 454.244778 
L 431.172522 454.009717 
L 431.659552 454.355512 
L 431.903067 454.277544 
L 432.795957 454.471454 
L 433.770018 454.595395 
L 434.500563 454.550345 
L 434.744079 454.335447 
L 434.906422 453.953014 
L 435.068766 453.069998 
L 435.231109 450.868508 
L 435.393453 444.849943 
L 435.555796 428.276969 
L 435.799312 402.571279 
L 436.123999 452.903751 
L 436.367514 435.34223 
L 436.611029 454.384375 
L 436.854544 444.710623 
L 437.09806 454.521503 
L 437.341575 449.247051 
L 437.58509 454.613931 
L 437.747434 451.861491 
L 437.828605 451.880491 
L 438.072121 454.732216 
L 438.315636 453.104627 
L 438.559151 454.836609 
L 438.640323 454.714311 
L 438.802666 454.004926 
L 438.883838 454.055821 
L 439.127353 454.920291 
L 439.45204 454.517584 
L 439.776727 454.984727 
L 440.101414 454.818 
L 440.507273 455.064057 
L 440.913132 455.029459 
L 441.400163 455.160184 
L 442.293052 455.223671 
L 443.429456 455.301404 
L 443.754143 455.119716 
L 443.916487 454.791606 
L 444.07883 453.962 
L 444.241174 451.75273 
L 444.403517 445.450306 
L 444.565861 426.892535 
L 444.728204 396.252292 
L 444.809376 399.718271 
L 445.052891 453.603712 
L 445.134063 452.891039 
L 445.296407 434.026433 
L 445.377578 434.995745 
L 445.621094 454.815856 
L 445.864609 444.525193 
L 446.108124 454.95575 
L 446.270468 449.41072 
L 446.351639 450.053284 
L 446.513983 455.066384 
L 446.595155 454.892482 
L 446.757498 452.07833 
L 446.83867 452.69738 
L 447.001014 455.369791 
L 447.082185 455.02243 
L 447.244529 453.468953 
L 447.406872 454.760849 
L 447.488044 455.415185 
L 447.569216 455.392595 
L 447.731559 454.512313 
L 447.812731 454.526768 
L 448.056246 455.564926 
L 448.299762 455.046779 
L 448.380933 455.117122 
L 448.624449 455.638448 
L 449.030307 455.480478 
L 449.273823 455.714746 
L 449.760853 455.680456 
L 450.08554 455.799617 
L 450.816086 455.858016 
L 451.708975 455.93899 
L 452.439521 455.875884 
L 452.683036 455.696346 
L 452.926552 455.137699 
L 453.088895 454.183718 
L 453.251239 451.898046 
L 453.413582 446.029566 
L 453.575926 430.458952 
L 453.819441 403.620234 
L 454.144128 455.435897 
L 454.2253 448.412649 
L 454.387643 436.506594 
L 454.631158 455.770734 
L 454.71233 453.340596 
L 454.874674 445.728116 
L 455.118189 455.907883 
L 455.199361 454.489066 
L 455.361704 450.757816 
L 455.605219 456.02181 
L 455.848735 453.132822 
L 456.09225 456.100185 
L 456.335765 454.501605 
L 456.57928 456.192274 
L 456.660452 455.995145 
L 456.822796 455.292267 
L 456.985139 455.819526 
L 457.147483 456.268514 
L 457.390998 455.805525 
L 457.47217 455.882177 
L 457.715685 456.340809 
L 457.878028 456.226052 
L 458.040372 456.125348 
L 458.608574 456.357941 
L 458.85209 456.35134 
L 459.420292 456.500064 
L 460.069666 456.550332 
L 461.287242 456.689511 
L 461.774273 456.597918 
L 462.017788 456.264131 
L 462.180131 455.618002 
L 462.342475 454.023201 
L 462.504818 449.764588 
L 462.667162 436.828312 
L 462.910677 389.615193 
L 463.073021 423.739278 
L 463.235364 456.285552 
L 463.478879 432.260584 
L 463.560051 437.966595 
L 463.722395 456.082792 
L 463.803567 453.909952 
L 463.96591 444.230079 
L 464.128254 453.533671 
L 464.209425 456.55746 
L 464.452941 450.049412 
L 464.696456 456.410689 
L 464.858799 452.951395 
L 465.021143 455.627761 
L 465.102315 456.724266 
L 465.34583 454.676473 
L 465.589345 456.805949 
L 465.83286 455.635583 
L 466.076376 456.904112 
L 466.319891 456.261506 
L 466.563406 456.976198 
L 466.644578 456.917815 
L 466.806921 456.637902 
L 466.969265 456.834217 
L 467.131608 457.054703 
L 467.537467 456.970849 
L 467.780982 457.128126 
L 468.186841 457.094796 
L 468.5927 457.203375 
L 469.160902 457.261601 
L 470.297307 457.371886 
L 471.677227 457.432863 
L 471.920742 457.28773 
L 472.083085 457.003302 
L 472.245429 456.308523 
L 472.407772 454.51545 
L 472.570116 449.325629 
L 472.732459 432.187949 
L 472.975975 380.639388 
L 473.300662 454.873826 
L 473.544177 429.884775 
L 473.787692 456.315516 
L 473.950036 442.119436 
L 474.031207 444.456755 
L 474.193551 456.944601 
L 474.274723 455.419407 
L 474.437066 449.027838 
L 474.680581 457.115909 
L 474.842925 452.699039 
L 474.924097 453.566061 
L 475.08644 457.441489 
L 475.329956 454.818465 
L 475.492299 457.394878 
L 475.573471 457.32358 
L 475.735814 455.885298 
L 475.97933 457.602961 
L 476.060501 457.373285 
L 476.222845 456.701493 
L 476.46636 457.675674 
L 476.547532 457.544181 
L 476.709875 457.175519 
L 477.034562 457.715751 
L 477.278078 457.50664 
L 477.602765 457.794438 
L 477.84628 457.690327 
L 478.33331 457.84872 
L 478.657997 457.879764 
L 479.145028 457.947196 
L 480.281432 458.062052 
L 481.986039 458.064296 
L 482.229555 457.802543 
L 482.391898 457.354384 
L 482.554242 456.333618 
L 482.716585 453.800783 
L 482.878929 446.745746 
L 483.041272 424.893122 
L 483.203616 388.823723 
L 483.284787 391.493994 
L 483.528303 457.409015 
L 483.609474 451.598109 
L 483.771818 430.399317 
L 483.85299 435.54822 
L 484.015333 457.616852 
L 484.258848 443.70449 
L 484.502364 457.760801 
L 484.664707 450.11795 
L 484.745879 451.344799 
L 484.908222 457.983792 
L 485.151738 453.764573 
L 485.395253 457.850045 
L 485.557596 455.513066 
L 485.801112 458.226066 
L 485.882283 457.669119 
L 486.044627 456.714168 
L 486.288142 458.286296 
L 486.531657 457.487849 
L 486.775173 458.367191 
L 487.018688 457.914383 
L 487.262203 458.429801 
L 487.343375 458.386546 
L 487.58689 458.218384 
L 487.830406 458.49083 
L 488.236264 458.431528 
L 488.560951 458.539627 
L 488.885638 458.531998 
L 489.372669 458.609031 
L 490.184386 458.697754 
L 492.21368 458.742188 
L 492.457196 458.55751 
L 492.700711 458.020096 
L 492.863054 457.124969 
L 493.025398 455.06067 
L 493.187741 449.657445 
L 493.350085 433.226687 
L 493.5936 384.005268 
L 493.918287 457.345518 
L 494.161802 432.919836 
L 494.405318 457.93188 
L 494.567661 444.480352 
L 494.648833 446.388856 
L 494.811176 458.224704 
L 494.892348 456.967301 
L 495.054692 450.779206 
L 495.298207 458.520246 
L 495.46055 454.317846 
L 495.541722 455.007709 
L 495.704066 458.777245 
L 495.947581 456.195718 
L 496.191096 458.717224 
L 496.35344 457.286138 
L 496.515783 458.424609 
L 496.596955 458.922514 
L 496.678127 458.749165 
L 496.84047 458.060288 
L 497.083985 459.001077 
L 497.165157 458.907235 
L 497.327501 458.526038 
L 497.652188 459.04978 
L 497.733359 458.940852 
L 497.895703 458.827723 
L 498.22039 459.106071 
L 498.463905 459.00616 
L 498.869764 459.167804 
L 499.194451 459.167324 
L 499.681482 459.239202 
L 500.736714 459.336566 
L 503.009523 459.421771 
L 503.253039 459.201598 
L 503.415382 458.79731 
L 503.577726 457.833769 
L 503.740069 455.369144 
L 503.902413 447.961151 
L 504.064756 421.787571 
L 504.2271 375.256473 
L 504.308272 382.297118 
L 504.551787 458.685298 
L 504.795302 425.024912 
L 505.038817 458.414193 
L 505.201161 442.518621 
L 505.282333 443.902621 
L 505.444676 459.068483 
L 505.688191 450.302717 
L 505.850535 459.086392 
L 505.931707 457.876998 
L 506.09405 454.24625 
L 506.256394 459.235705 
L 506.337565 458.5648 
L 506.499909 456.328932 
L 506.662252 459.318323 
L 506.743424 459.071984 
L 506.905768 457.525797 
L 507.149283 459.446554 
L 507.311626 458.384934 
L 507.47397 459.225451 
L 507.555142 459.572869 
L 507.798657 458.957316 
L 508.042172 459.640239 
L 508.285687 459.283876 
L 508.529203 459.695313 
L 508.85389 459.561859 
L 509.097405 459.742388 
L 509.422092 459.703156 
L 509.665607 459.798465 
L 510.071466 459.812095 
L 510.558497 459.8508 
L 513.399508 460.099481 
L 514.860599 460.119285 
L 515.104115 459.913786 
L 515.266458 459.498038 
L 515.428802 458.379324 
L 515.591145 455.149581 
L 515.753489 444.188583 
L 515.915832 402.162952 
L 516.078176 359.640887 
L 516.321691 459.098932 
L 516.402863 450.098319 
L 516.565206 417.833529 
L 516.808722 459.459302 
L 516.889893 451.177535 
L 517.052237 440.681373 
L 517.21458 459.346549 
L 517.295752 456.839952 
L 517.458096 449.043483 
L 517.620439 459.554767 
L 517.701611 458.351719 
L 517.863954 454.021087 
L 518.026298 459.895547 
L 518.269813 456.697855 
L 518.432157 460.036375 
L 518.5945 458.00428 
L 518.675672 458.11984 
L 518.838015 460.126189 
L 519.081531 458.922963 
L 519.243874 460.172528 
L 519.325046 460.026502 
L 519.487389 459.432229 
L 519.730905 460.240116 
L 519.893248 459.817773 
L 519.97442 459.895886 
L 520.136763 460.303149 
L 520.299107 460.129069 
L 520.46145 460.143696 
L 520.623794 460.362357 
L 521.029653 460.34369 
L 521.273168 460.381847 
L 521.516683 460.392461 
L 521.84137 460.449561 
L 522.247229 460.506363 
L 526.955191 460.862793 
L 527.442221 460.785217 
L 527.604565 460.62171 
L 527.766908 460.198416 
L 527.929252 459.112541 
L 528.091595 456.130285 
L 528.253939 446.00673 
L 528.416282 404.825938 
L 528.578626 357.839756 
L 528.822141 458.829763 
L 528.903313 453.468968 
L 529.065656 419.747632 
L 529.228 446.815557 
L 529.309172 459.853237 
L 529.552687 439.265938 
L 529.71503 458.86422 
L 529.796202 458.470755 
L 529.958546 448.173643 
L 530.120889 459.50192 
L 530.202061 459.433346 
L 530.364404 453.436708 
L 530.526748 460.35719 
L 530.60792 459.48148 
L 530.770263 456.47464 
L 530.932607 460.679613 
L 531.09495 457.956422 
L 531.176122 458.273897 
L 531.338465 460.790795 
L 531.500809 459.088401 
L 531.581981 459.298764 
L 531.744324 460.859928 
L 531.987839 459.888278 
L 532.150183 460.893555 
L 532.231355 460.809613 
L 532.393698 460.316174 
L 532.637214 460.969107 
L 532.799557 460.635194 
L 532.880729 460.679091 
L 533.124244 461.001837 
L 533.286588 460.833946 
L 533.692446 461.011433 
L 533.85479 461.002431 
L 534.179477 461.114882 
L 534.422992 461.117283 
L 534.747679 461.178651 
L 535.23471 461.237169 
L 537.507519 461.411437 
L 540.105015 461.547151 
L 540.429702 461.335588 
L 540.592045 461.010666 
L 540.754389 460.258621 
L 540.916732 458.393246 
L 541.079076 452.94005 
L 541.241419 432.152444 
L 541.484935 348.446085 
L 541.72845 459.784333 
L 541.809622 452.42256 
L 541.971965 415.81904 
L 542.053137 424.804801 
L 542.21548 460.729015 
L 542.458996 440.50911 
L 542.621339 460.601384 
L 542.702511 457.91993 
L 542.864854 450.038594 
L 543.027198 461.096033 
L 543.189541 455.434269 
L 543.270713 455.56513 
L 543.433057 461.297316 
L 543.5954 457.605502 
L 543.676572 458.498355 
L 543.838915 461.278567 
L 544.001259 459.077646 
L 544.244774 461.401621 
L 544.407118 460.087416 
L 544.650633 461.542616 
L 544.812977 460.736263 
L 545.056492 461.643472 
L 545.137664 461.407012 
L 545.218835 461.166132 
L 545.300007 461.219724 
L 545.462351 461.697148 
L 545.705866 461.415345 
L 545.787038 461.540304 
L 545.949381 461.757681 
L 546.192896 461.613064 
L 546.436412 461.806415 
L 546.761099 461.772136 
L 547.004614 461.850547 
L 547.329301 461.858949 
L 547.73516 461.895889 
L 552.84898 462.190612 
L 553.092495 462.039676 
L 553.336011 461.538196 
L 553.498354 460.668993 
L 553.660698 458.615199 
L 553.823041 452.791947 
L 553.985385 431.23782 
L 554.2289 354.693475 
L 554.472415 459.528842 
L 554.553587 455.458253 
L 554.71593 419.769179 
L 554.797102 426.859112 
L 554.959446 460.926817 
L 555.040617 455.675973 
L 555.202961 439.817112 
L 555.365304 460.088815 
L 555.446476 459.764864 
L 555.60882 449.255609 
L 555.771163 461.112195 
L 555.852335 460.38598 
L 556.014679 454.545424 
L 556.177022 461.861772 
L 556.339366 457.38237 
L 556.420537 457.879895 
L 556.582881 462.063556 
L 556.745224 458.957822 
L 556.98874 462.092606 
L 557.151083 460.188324 
L 557.394598 462.167542 
L 557.556942 461.030397 
L 557.800457 462.266357 
L 557.962801 461.578268 
L 558.206316 462.338626 
L 558.287488 462.170292 
L 558.368659 461.946607 
L 558.449831 461.978366 
L 558.612175 462.374795 
L 558.693346 462.344312 
L 558.85569 462.151016 
L 559.180377 462.396268 
L 559.34272 462.30849 
L 559.667407 462.462247 
L 559.910923 462.444765 
L 560.23561 462.507621 
L 560.641468 462.563319 
L 563.238965 462.742938 
L 565.836461 462.827893 
L 566.242319 462.616987 
L 566.485835 462.229693 
L 566.72935 461.087386 
L 566.891693 458.989466 
L 567.054037 453.071725 
L 567.216381 430.845477 
L 567.459896 350.142159 
L 567.703411 460.421194 
L 567.784583 455.182477 
L 567.946926 418.258346 
L 568.028098 426.318259 
L 568.190442 461.654305 
L 568.433957 439.626657 
L 568.5963 461.076548 
L 568.677472 459.584814 
L 568.839816 449.08775 
L 569.002159 462.066483 
L 569.083331 460.101313 
L 569.164503 454.343306 
L 569.245674 454.759388 
L 569.408018 462.57547 
L 569.570361 456.916844 
L 569.813877 462.436064 
L 569.97622 459.089862 
L 570.138564 462.607383 
L 570.219735 462.383254 
L 570.382079 460.675986 
L 570.544422 462.822312 
L 570.787938 461.635279 
L 570.950281 462.90956 
L 571.193796 462.188055 
L 571.35614 462.962219 
L 571.599655 462.50509 
L 571.84317 462.999376 
L 572.005514 462.752892 
L 572.330201 463.020357 
L 572.492544 462.931665 
L 572.73606 463.11543 
L 572.979575 463.05132 
L 573.304262 463.142788 
L 573.628949 463.183854 
L 574.440667 463.243982 
L 576.956991 463.425302 
L 579.879174 463.523909 
L 580.203861 463.282713 
L 580.447376 462.708781 
L 580.60972 461.751017 
L 580.772063 459.434332 
L 580.934407 452.321151 
L 581.09675 422.139409 
L 581.259094 342.755671 
L 581.340266 346.037181 
L 581.583781 461.793865 
L 581.827296 411.022815 
L 582.070811 460.065353 
L 582.233155 436.91608 
L 582.47667 461.293893 
L 582.639014 449.17522 
L 582.801357 462.639157 
L 582.882529 460.119374 
L 582.963701 453.830862 
L 583.044872 455.202526 
L 583.207216 463.007353 
L 583.369559 456.866696 
L 583.531903 463.036826 
L 583.613075 462.30502 
L 583.775418 459.907216 
L 583.937762 463.340749 
L 584.100105 461.082967 
L 584.262449 463.268994 
L 584.343621 463.23431 
L 584.505964 462.089376 
L 584.668308 463.510169 
L 584.830651 462.650567 
L 584.911823 462.750998 
L 585.074166 463.586125 
L 585.23651 463.0267 
L 585.317682 463.12348 
L 585.480025 463.63559 
L 585.72354 463.353513 
L 585.885884 463.680293 
L 586.129399 463.49783 
L 586.372914 463.718022 
L 586.61643 463.648448 
L 586.859945 463.753509 
L 587.10346 463.738819 
L 587.428147 463.783757 
L 588.239865 463.875436 
L 592.541968 464.156787 
L 594.408918 464.176594 
L 594.733605 463.934221 
L 594.97712 463.304873 
L 595.139464 462.290028 
L 595.301807 459.871329 
L 595.464151 452.473799 
L 595.626494 420.683463 
L 595.788838 327.977122 
L 595.87001 347.21002 
L 596.113525 462.365021 
L 596.35704 414.566046 
L 596.600555 461.590928 
L 596.762899 436.500755 
L 597.006414 463.02629 
L 597.168758 446.126487 
L 597.412273 462.806712 
L 597.574616 453.34534 
L 597.73696 463.61135 
L 597.899303 458.375556 
L 597.980475 458.954174 
L 598.142819 463.641914 
L 598.305162 460.452707 
L 598.467506 463.994731 
L 598.629849 461.658735 
L 598.711021 462.178219 
L 598.873364 464.056649 
L 599.035708 462.549402 
L 599.279223 464.044269 
L 599.441567 463.261774 
L 599.60391 464.201838 
L 599.685082 464.090287 
L 599.847425 463.704788 
L 600.009769 464.270877 
L 600.253284 463.96657 
L 600.415628 464.31492 
L 600.496799 464.276687 
L 600.659143 464.128258 
L 600.902658 464.357102 
L 601.146173 464.28756 
L 601.389689 464.390184 
L 601.633204 464.38643 
L 601.876719 464.429246 
L 602.201406 464.469449 
L 604.880074 464.656423 
L 609.182177 464.827914 
L 609.506864 464.586066 
L 609.750379 463.999386 
L 609.912723 463.04707 
L 610.075066 460.795351 
L 610.23741 453.855936 
L 610.399753 422.702644 
L 610.562097 328.662942 
L 610.643269 330.184159 
L 610.886784 462.485696 
L 611.130299 404.229969 
L 611.373814 459.651014 
L 611.536158 433.243135 
L 611.698501 461.430489 
L 611.779673 460.915243 
L 611.942017 447.659023 
L 612.10436 464.172709 
L 612.266704 451.167218 
L 612.510219 463.237055 
L 612.672562 456.991952 
L 612.834906 464.388423 
L 612.99725 459.99515 
L 613.159593 464.579632 
L 613.321937 461.330479 
L 613.48428 464.45639 
L 613.565452 464.324057 
L 613.727795 462.794211 
L 613.890139 464.758204 
L 614.052482 463.525688 
L 614.214826 464.752352 
L 614.295998 464.654881 
L 614.458341 464.114962 
L 614.620685 464.880557 
L 614.783028 464.370814 
L 615.026543 464.912371 
L 615.188887 464.614765 
L 615.432402 464.955908 
L 615.594746 464.781515 
L 615.838261 465.001203 
L 616.081776 464.941614 
L 616.325291 465.01661 
L 616.568807 465.045995 
L 616.893494 465.056771 
L 617.624039 465.148706 
L 618.922788 465.235043 
L 623.062547 465.493697 
L 625.254184 465.535841 
L 625.578871 465.294593 
L 625.741215 464.962702 
L 625.903558 464.246363 
L 626.065902 462.561135 
L 626.228245 457.835664 
L 626.309417 452.362042 
L 626.471761 408.959388 
L 626.634104 308.896194 
L 626.877619 460.606362 
L 626.958791 457.07899 
L 627.121135 401.35806 
L 627.202306 410.113775 
L 627.36465 463.609224 
L 627.445822 454.777396 
L 627.608165 431.610792 
L 627.770509 463.847468 
L 627.85168 458.051203 
L 627.932852 443.33075 
L 628.014024 445.477254 
L 628.176367 464.729728 
L 628.338711 448.598408 
L 628.501054 464.03755 
L 628.582226 462.706357 
L 628.663398 456.901106 
L 628.74457 457.297952 
L 628.906913 464.365799 
L 628.988085 460.092515 
L 629.069257 460.216289 
L 629.2316 465.070133 
L 629.393944 461.315915 
L 629.556287 465.352973 
L 629.718631 462.984848 
L 629.880974 465.354544 
L 629.962146 464.892356 
L 630.043318 463.795157 
L 630.12449 464.18331 
L 630.286833 465.403229 
L 630.449177 464.439417 
L 630.61152 465.532851 
L 630.773864 464.910649 
L 630.855035 465.052176 
L 631.017379 465.547561 
L 631.179722 465.190813 
L 631.342066 465.615392 
L 631.423238 465.567065 
L 631.585581 465.407424 
L 631.747925 465.666843 
L 631.99144 465.548073 
L 632.234955 465.672833 
L 632.397299 465.640221 
L 632.640814 465.726251 
L 632.884329 465.742225 
L 633.37136 465.801393 
L 636.780573 466.030733 
L 642.300253 466.270885 
L 642.543768 466.083613 
L 642.706111 465.77461 
L 642.868455 465.106559 
L 643.030798 463.491706 
L 643.193142 458.806202 
L 643.274314 453.193965 
L 643.436657 404.633224 
L 643.599001 291.355249 
L 643.842516 463.610479 
L 643.923688 453.42372 
L 644.086031 395.66653 
L 644.167203 409.650478 
L 644.329546 464.905216 
L 644.573062 429.734715 
L 644.735405 464.925359 
L 644.897749 440.587986 
L 644.97892 444.038398 
L 645.141264 465.283099 
L 645.303607 447.196101 
L 645.465951 464.919118 
L 645.547123 462.635591 
L 645.628294 456.510333 
L 645.709466 457.857221 
L 645.790638 464.747786 
L 645.87181 464.381433 
L 645.952981 459.544388 
L 646.034153 460.832657 
L 646.196497 465.299973 
L 646.35884 462.046961 
L 646.521184 465.7969 
L 646.683527 463.590396 
L 646.845871 466.095328 
L 647.008214 464.221396 
L 647.170558 466.200838 
L 647.332901 465.045661 
L 647.495245 466.163879 
L 647.576417 466.109914 
L 647.657588 465.576119 
L 647.73876 465.615661 
L 647.901104 466.297488 
L 648.063447 465.815044 
L 648.225791 466.336015 
L 648.306962 466.272959 
L 648.469306 466.093927 
L 648.631649 466.392984 
L 648.875165 466.272594 
L 649.037508 466.426598 
L 649.199852 466.32568 
L 649.524539 466.421419 
L 649.768054 466.495293 
L 657.235855 466.987696 
L 660.158038 467.068776 
L 660.401554 466.889757 
L 660.563897 466.598251 
L 660.726241 465.940168 
L 660.888584 464.3129 
L 661.050928 459.299025 
L 661.132099 452.848379 
L 661.213271 435.410825 
L 661.456786 276.344838 
L 661.700302 465.964911 
L 661.943817 391.397089 
L 662.187332 465.512053 
L 662.349676 426.465313 
L 662.430847 431.006082 
L 662.593191 466.03295 
L 662.755534 438.431807 
L 662.836706 445.026314 
L 662.99905 465.286076 
L 663.161393 447.955739 
L 663.323737 466.249818 
L 663.48608 457.066038 
L 663.648424 466.26475 
L 663.729595 463.831999 
L 663.810767 459.506873 
L 663.973111 466.444988 
L 664.054282 465.122282 
L 664.135454 462.67297 
L 664.216626 463.753334 
L 664.297798 466.57074 
L 664.378969 465.863586 
L 664.460141 463.831615 
L 664.622485 466.655865 
L 664.703657 466.424853 
L 664.784828 465.17803 
L 664.866 465.314856 
L 665.028344 466.776046 
L 665.190687 465.848079 
L 665.353031 466.980912 
L 665.515374 466.170984 
L 665.677718 467.042538 
L 665.840061 466.551161 
L 665.921233 466.69554 
L 666.083576 467.040396 
L 666.24592 466.80385 
L 666.408263 467.133768 
L 666.570607 466.928068 
L 666.651779 467.007116 
L 666.814122 467.162156 
L 666.976466 467.055164 
L 667.219981 467.192686 
L 667.382324 467.150689 
L 667.62584 467.230786 
L 667.869355 467.250754 
L 668.437557 467.308161 
L 669.168103 467.361709 
L 672.171458 467.553346 
L 678.340511 467.817581 
L 678.665198 467.639781 
L 678.908713 467.229152 
L 679.071057 466.565519 
L 679.2334 465.006555 
L 679.395744 460.183273 
L 679.558087 435.848208 
L 679.801603 258.091982 
L 680.045118 464.874587 
L 680.288633 368.274544 
L 680.450977 460.198364 
L 680.532148 458.74402 
L 680.694492 415.573526 
L 680.856835 463.822658 
L 680.938007 458.727744 
L 681.019179 436.943252 
L 681.100351 438.919986 
L 681.262694 466.344529 
L 681.425038 442.506441 
L 681.587381 466.590966 
L 681.749725 455.254559 
L 681.912068 466.978663 
L 681.99324 462.598256 
L 682.074412 457.620891 
L 682.236755 467.229643 
L 682.399099 462.182477 
L 682.561442 467.304866 
L 682.723786 463.464826 
L 682.886129 467.32611 
L 683.048473 465.270257 
L 683.210816 467.440527 
L 683.37316 465.942036 
L 683.535503 467.545414 
L 683.697847 466.653211 
L 683.86019 467.641617 
L 684.022534 466.990227 
L 684.184877 467.712947 
L 684.347221 467.292263 
L 684.509564 467.78333 
L 684.671908 467.463097 
L 684.834251 467.826355 
L 684.996595 467.628994 
L 685.077767 467.708269 
L 685.24011 467.838141 
L 685.402454 467.765353 
L 685.564797 467.898199 
L 685.727141 467.825654 
L 685.970656 467.919952 
L 686.214171 467.947857 
L 687.025889 468.025822 
L 689.623385 468.198558 
L 697.902904 468.588553 
L 698.471106 468.457361 
L 698.795793 468.162651 
L 699.039308 467.466431 
L 699.201652 466.242285 
L 699.363995 462.760816 
L 699.445167 458.70292 
L 699.526339 447.848439 
L 699.607511 420.25467 
L 699.769854 248.881475 
L 699.851026 295.946538 
L 700.013369 462.43609 
L 700.094541 456.547264 
L 700.256885 373.260363 
L 700.338056 381.299575 
L 700.5004 465.336483 
L 700.581572 453.817905 
L 700.743915 416.321214 
L 700.906259 466.087743 
L 700.98743 456.577301 
L 701.068602 433.861679 
L 701.149774 437.565114 
L 701.312117 466.926865 
L 701.474461 442.02084 
L 701.636804 467.39925 
L 701.799148 455.278297 
L 701.961491 467.779536 
L 702.123835 457.857043 
L 702.286178 467.871468 
L 702.448522 462.885485 
L 702.610865 467.784126 
L 702.773209 464.492242 
L 702.854381 467.651939 
L 702.935552 467.648516 
L 703.016724 465.466468 
L 703.179068 468.169056 
L 703.260239 467.753395 
L 703.341411 466.589659 
L 703.422583 467.074482 
L 703.503755 468.312841 
L 703.584926 467.937353 
L 703.666098 467.086879 
L 703.828442 468.419522 
L 703.909613 468.136496 
L 703.990785 467.673048 
L 704.153129 468.476919 
L 704.2343 468.278608 
L 704.315472 467.943808 
L 704.477816 468.532777 
L 704.558988 468.414213 
L 704.640159 468.203471 
L 704.883675 468.53143 
L 704.964846 468.368855 
L 705.046018 468.419473 
L 705.208362 468.612594 
L 705.370705 468.49743 
L 705.533049 468.661141 
L 705.695392 468.574748 
L 705.938907 468.674669 
L 706.101251 468.666343 
L 706.344766 468.701145 
L 707.156484 468.781309 
L 708.455232 468.883908 
L 712.351476 469.111799 
L 719.169903 469.369394 
L 719.49459 469.13434 
L 719.738105 468.567708 
L 719.900449 467.598691 
L 720.062792 465.014048 
L 720.143964 462.149909 
L 720.225136 454.761381 
L 720.306308 436.84405 
L 720.549823 232.461728 
L 720.793338 461.969421 
L 721.036853 353.626162 
L 721.199197 464.123515 
L 721.280369 453.556089 
L 721.442712 403.687331 
L 721.605056 466.71317 
L 721.767399 424.713845 
L 721.848571 431.217369 
L 722.010915 466.362845 
L 722.173258 437.89946 
L 722.335602 468.171981 
L 722.497945 454.53469 
L 722.660289 467.712874 
L 722.822632 458.929784 
L 722.903804 467.299812 
L 722.984976 466.415021 
L 723.066147 460.772087 
L 723.228491 468.714527 
L 723.390834 464.552037 
L 723.553178 468.616907 
L 723.715521 466.059791 
L 723.796693 468.662495 
L 723.877865 468.209979 
L 723.959037 466.500237 
L 724.12138 469.04173 
L 724.283724 467.609511 
L 724.446067 469.067615 
L 724.608411 468.147371 
L 724.770754 469.040357 
L 724.851926 468.471636 
L 724.933098 468.671523 
L 725.014269 469.179596 
L 725.095441 469.068815 
L 725.176613 468.761691 
L 725.338956 469.260351 
L 725.420128 469.132527 
L 725.5013 468.936598 
L 725.663643 469.311172 
L 725.744815 469.210904 
L 725.825987 469.106064 
L 725.98833 469.352256 
L 726.069502 469.289072 
L 726.150674 469.214429 
L 726.394189 469.35091 
L 726.556533 469.353264 
L 726.718876 469.403579 
L 726.88122 469.396132 
L 727.124735 469.425718 
L 729.884575 469.662989 
L 735.485426 469.968979 
L 741.816822 470.192899 
L 742.222681 469.96547 
L 742.385025 469.686261 
L 742.547368 469.092643 
L 742.709712 467.686461 
L 742.872055 463.274254 
L 742.953227 457.2575 
L 743.034399 438.964378 
L 743.277914 210.47684 
L 743.440257 456.660742 
L 743.521429 462.385594 
L 743.764944 350.025717 
L 743.927288 460.450276 
L 744.00846 459.013768 
L 744.170803 406.563373 
L 744.333147 462.641386 
L 744.414318 462.311402 
L 744.576662 436.289646 
L 744.739006 468.488833 
L 744.901349 454.421018 
L 745.063693 468.601351 
L 745.226036 457.54893 
L 745.38838 468.185993 
L 745.469551 462.191025 
L 745.550723 463.931826 
L 745.631895 468.892244 
L 745.713067 467.610552 
L 745.794238 464.963999 
L 745.956582 469.462427 
L 746.118925 466.030459 
L 746.281269 469.245478 
L 746.362441 467.308725 
L 746.443612 468.004495 
L 746.524784 469.607252 
L 746.605956 469.089183 
L 746.687128 468.21813 
L 746.849471 469.785358 
L 747.011815 468.660123 
L 747.174158 469.82263 
L 747.336502 469.222676 
L 747.498845 469.864252 
L 747.661189 469.510206 
L 747.823532 469.914734 
L 747.904704 469.664479 
L 747.985876 469.743778 
L 748.148219 469.984898 
L 748.229391 469.833361 
L 748.310563 469.877091 
L 748.472906 470.049352 
L 748.63525 469.978946 
L 748.797593 470.112714 
L 748.959937 470.060259 
L 749.12228 470.173054 
L 749.284624 470.138245 
L 749.528139 470.215612 
L 750.015169 470.28009 
L 750.583372 470.343809 
L 751.800948 470.427285 
L 764.057883 471.058421 
L 764.544913 470.931445 
L 764.788429 470.614225 
L 764.950772 470.068402 
L 765.113116 468.71817 
L 765.194287 467.37775 
L 765.356631 457.380867 
L 765.437803 435.191669 
L 765.600146 197.384179 
L 765.681318 226.807395 
L 765.843661 462.911011 
L 765.924833 459.083934 
L 766.087177 334.617613 
L 766.168348 339.05281 
L 766.330692 460.792851 
L 766.411864 458.988015 
L 766.574207 401.003451 
L 766.817722 464.223449 
L 766.980066 431.915952 
L 767.142409 469.373213 
L 767.304753 453.222118 
L 767.467096 469.657111 
L 767.62944 455.60074 
L 767.791784 469.492991 
L 767.872955 463.1634 
L 767.954127 463.682041 
L 768.035299 469.101793 
L 768.116471 468.710679 
L 768.197642 465.350753 
L 768.359986 470.18574 
L 768.522329 466.192977 
L 768.684673 469.916743 
L 768.765845 467.684184 
L 768.928188 470.388867 
L 769.00936 469.583388 
L 769.090532 468.818248 
L 769.252875 470.496627 
L 769.415219 469.387796 
L 769.577562 470.414834 
L 769.658734 469.737936 
L 769.821077 470.631263 
L 769.902249 470.4093 
L 769.983421 470.111018 
L 770.145764 470.710757 
L 770.308108 470.331992 
L 770.470451 470.755278 
L 770.632795 470.553348 
L 770.795138 470.801079 
L 770.957482 470.685359 
L 771.119825 470.848306 
L 771.282169 470.786593 
L 771.444512 470.892051 
L 771.606856 470.852238 
L 771.769199 470.934211 
L 772.012715 470.964733 
L 772.905604 471.084737 
L 774.447867 471.220665 
L 779.399344 471.503475 
L 787.678863 471.85322 
L 788.084722 471.683482 
L 788.328237 471.301401 
L 788.490581 470.631696 
L 788.652924 468.743711 
L 788.734096 466.573944 
L 788.815268 460.638805 
L 788.896439 444.731116 
L 788.977611 385.557691 
L 789.139955 158.184181 
L 789.302298 465.723141 
L 789.38347 447.709725 
L 789.545813 271.109498 
L 789.789329 463.493094 
L 789.951672 370.636608 
L 790.195187 464.27777 
L 790.357531 414.750839 
L 790.519874 469.484537 
L 790.682218 443.544771 
L 790.844562 470.119036 
L 791.006905 447.411072 
L 791.169249 470.374744 
L 791.331592 460.578214 
L 791.412764 468.806911 
L 791.493936 468.734498 
L 791.575107 463.43856 
L 791.737451 470.848814 
L 791.899794 465.066845 
L 791.980966 470.343473 
L 792.062138 469.373203 
L 792.14331 466.081719 
L 792.305653 470.9689 
L 792.386825 468.367634 
L 792.467997 469.144824 
L 792.549168 471.219264 
L 792.711512 469.482084 
L 792.873855 471.223726 
L 792.955027 470.152126 
L 793.036199 470.391466 
L 793.117371 471.413878 
L 793.279714 470.401131 
L 793.442058 471.398476 
L 793.523229 470.81293 
L 793.685573 471.555126 
L 793.766745 471.289459 
L 793.847916 471.120347 
L 794.01026 471.582533 
L 794.091432 471.330287 
L 794.172603 471.371601 
L 794.253775 471.637235 
L 794.334947 471.572081 
L 794.416119 471.427847 
L 794.578462 471.698537 
L 794.740806 471.572214 
L 794.903149 471.726568 
L 795.065493 471.673677 
L 795.227836 471.75314 
L 795.39018 471.750366 
L 795.552523 471.784249 
L 795.87721 471.819473 
L 796.445413 471.887967 
L 797.338302 471.949906 
L 800.828687 472.148277 
L 814.38437 472.767901 
L 814.790229 472.590597 
L 815.033744 472.167786 
L 815.196088 471.416043 
L 815.358431 469.195979 
L 815.439603 466.427691 
L 815.520775 458.044132 
L 815.601946 431.678616 
L 815.76429 109.968509 
L 816.007805 468.365671 
L 816.088977 459.70515 
L 816.332492 301.781678 
L 816.576007 470.518322 
L 816.819523 415.449662 
L 816.981866 468.501252 
L 817.063038 462.647134 
L 817.225381 446.538748 
L 817.387725 469.224378 
L 817.468897 457.46291 
L 817.550068 459.799242 
L 817.712412 469.578408 
L 817.793584 463.18508 
L 817.874755 464.225404 
L 817.955927 471.279536 
L 818.037099 468.69345 
L 818.118271 464.047455 
L 818.280614 471.850705 
L 818.442958 468.284505 
L 818.605301 471.516361 
L 818.686473 469.431064 
L 818.767645 470.064903 
L 818.848816 472.137405 
L 819.01116 469.837998 
L 819.173503 472.199566 
L 819.254675 471.010941 
L 819.335847 471.13165 
L 819.417019 472.204153 
L 819.498191 472.119321 
L 819.579362 471.449459 
L 819.741706 472.42782 
L 819.822878 472.088441 
L 819.904049 471.724324 
L 820.066393 472.492943 
L 820.228736 472.10221 
L 820.39108 472.515486 
L 820.553423 472.306164 
L 820.715767 472.5516 
L 820.796939 472.397235 
L 820.87811 472.472302 
L 821.040454 472.605793 
L 821.202797 472.574263 
L 821.365141 472.658055 
L 821.527484 472.649739 
L 821.689828 472.704741 
L 821.852171 472.701986 
L 822.095687 472.724151 
L 822.988576 472.84184 
L 824.206152 472.922472 
L 829.807003 473.225886 
L 838.492381 473.516604 
L 838.89824 473.277105 
L 839.060583 472.991394 
L 839.222927 472.312032 
L 839.38527 470.268696 
L 839.466442 467.71786 
L 839.547614 459.958418 
L 839.628785 434.845942 
L 839.791129 84.20525 
L 840.034644 467.534633 
L 840.115816 464.353627 
L 840.278159 361.264457 
L 840.359331 292.999119 
L 840.521675 410.603623 
L 840.602846 464.613713 
L 840.684018 460.113493 
L 840.846362 399.081765 
L 841.089877 470.324757 
L 841.171049 446.942629 
L 841.25222 429.023232 
L 841.414564 468.250249 
L 841.495736 465.627804 
L 841.576907 451.029652 
L 841.658079 452.974449 
L 841.739251 469.759733 
L 841.820423 467.181075 
L 841.901594 455.423556 
L 842.063938 471.955438 
L 842.14511 467.512434 
L 842.226282 463.77497 
L 842.388625 472.165229 
L 842.550969 466.576107 
L 842.63214 472.215292 
L 842.713312 470.454888 
L 842.794484 467.030546 
L 842.956827 472.563276 
L 843.037999 469.659634 
L 843.119171 470.570848 
L 843.200343 472.854091 
L 843.362686 470.979524 
L 843.52503 472.869926 
L 843.606201 471.701948 
L 843.687373 471.929101 
L 843.768545 473.068996 
L 843.930888 471.91685 
L 844.093232 473.06593 
L 844.174404 472.403886 
L 844.336747 473.209673 
L 844.417919 472.963413 
L 844.499091 472.726303 
L 844.661434 473.264067 
L 844.823778 472.976333 
L 844.904949 473.283223 
L 844.986121 473.251566 
L 845.067293 473.069317 
L 845.229636 473.36762 
L 845.39198 473.21396 
L 845.554323 473.403402 
L 845.716667 473.319277 
L 845.87901 473.431365 
L 846.041354 473.407454 
L 846.203697 473.46334 
L 846.366041 473.468846 
L 846.690728 473.514929 
L 847.177758 473.564825 
L 848.476507 473.667272 
L 866.009605 474.37141 
L 866.334292 474.160288 
L 866.577808 473.634012 
L 866.740151 472.599004 
L 866.821323 471.533556 
L 866.983666 462.417061 
L 867.064838 436.849149 
L 867.227182 35.997865 
L 867.470697 472.395623 
L 867.551869 454.786012 
L 867.795384 258.306373 
L 867.957727 460.448314 
L 868.038899 458.605911 
L 868.201243 360.479239 
L 868.282414 378.295098 
L 868.444758 471.294124 
L 868.607101 409.217405 
L 868.850617 465.331526 
L 869.01296 439.46685 
L 869.175304 468.488162 
L 869.256475 451.770404 
L 869.418819 471.878435 
L 869.499991 466.464551 
L 869.581162 461.083869 
L 869.743506 472.04033 
L 869.824678 465.036894 
L 869.905849 466.352714 
L 869.987021 473.089509 
L 870.149365 465.830162 
L 870.230536 472.301596 
L 870.311708 471.348878 
L 870.39288 467.399078 
L 870.555223 472.930375 
L 870.636395 469.676594 
L 870.798739 473.552238 
L 870.879911 471.52052 
L 870.961082 472.080332 
L 871.042254 473.711002 
L 871.204598 472.494965 
L 871.285769 473.669278 
L 871.366941 473.433374 
L 871.448113 472.869913 
L 871.610456 473.800909 
L 871.691628 473.228446 
L 871.853972 473.962921 
L 872.016315 473.52045 
L 872.097487 473.992418 
L 872.178659 473.841411 
L 872.25983 473.627865 
L 872.422174 474.036064 
L 872.503346 473.808288 
L 872.665689 474.137267 
L 872.828033 473.994771 
L 872.990376 474.145577 
L 873.071548 474.067789 
L 873.233891 474.2275 
L 873.396235 474.174252 
L 873.558578 474.242532 
L 873.720922 474.266093 
L 874.126781 474.32415 
L 874.532639 474.356728 
L 875.01967 474.416951 
L 877.292479 474.583216 
L 885.734341 475.000294 
L 897.26073 475.435198 
L 897.910104 475.280781 
L 898.15362 475.07021 
L 898.397135 474.366338 
L 898.559478 472.84787 
L 898.64065 471.028953 
L 898.721822 465.497543 
L 898.802994 447.136487 
L 898.884165 352.115162 
L 898.965337 22.68 
L 899.208852 450.174089 
L 899.290024 471.38849 
L 899.371196 470.828249 
L 899.53354 436.966875 
L 899.695883 340.645509 
L 899.777055 279.412049 
L 899.858227 301.414931 
L 900.101742 469.311149 
L 900.264085 419.181929 
L 900.345257 428.077695 
L 900.507601 473.031737 
L 900.669944 455.393748 
L 900.832288 473.064493 
L 900.994631 459.242093 
L 901.156975 472.168089 
L 901.238146 464.683423 
L 901.40049 473.934165 
L 901.562833 469.715246 
L 901.725177 473.61837 
L 901.806349 471.137672 
L 901.968692 474.352407 
L 902.131036 471.887268 
L 902.212207 474.279856 
L 902.293379 473.656371 
L 902.374551 472.315416 
L 902.536894 474.428909 
L 902.618066 473.191043 
L 902.78041 474.727128 
L 902.942753 473.993365 
L 903.023925 474.71498 
L 903.105097 474.620584 
L 903.186268 474.236925 
L 903.348612 474.88443 
L 903.510955 474.557549 
L 903.592127 474.939667 
L 903.673299 474.830339 
L 903.754471 474.639525 
L 903.916814 475.007819 
L 903.997986 474.828122 
L 904.079158 474.879207 
L 904.160329 475.059674 
L 904.241501 475.009802 
L 904.322673 474.929233 
L 904.485016 475.109264 
L 904.64736 475.032332 
L 904.809703 475.136219 
L 904.972047 475.127961 
L 905.13439 475.167717 
L 905.540249 475.207526 
L 905.946108 475.277645 
L 908.624776 475.470258 
L 926.726077 476.267755 
L 927.294279 476.138882 
L 927.537794 475.948798 
L 927.78131 475.390184 
L 927.943653 474.237204 
L 928.024825 472.896959 
L 928.105997 468.938883 
L 928.187169 456.736132 
L 928.26834 389.444114 
L 928.430684 28.390942 
L 928.593027 473.619411 
L 928.674199 438.134251 
L 928.836543 107.16758 
L 928.998886 468.116236 
L 929.080058 426.712538 
L 929.242401 256.277659 
L 929.404745 472.351721 
L 929.567088 335.661464 
L 929.729432 457.145158 
L 929.729432 457.145158 
" clip-path="url(#p15ed5b297c)" style="fill: none; stroke: #1f77b4; stroke-width: 1.5; stroke-linecap: square"/>
   </g>
   <g id="patch_3">
    <path d="M 77.51125 498.96 
L 77.51125 0 
" style="fill: none; stroke: #000000; stroke-width: 0.8; stroke-linejoin: miter; stroke-linecap: square"/>
   </g>
   <g id="patch_4">
    <path d="M 970.31125 498.96 
L 970.31125 0 
" style="fill: none; stroke: #000000; stroke-width: 0.8; stroke-linejoin: miter; stroke-linecap: square"/>
   </g>
   <g id="patch_5">
    <path d="M 77.51125 498.96 
L 970.31125 498.96 
" style="fill: none; stroke: #000000; stroke-width: 0.8; stroke-linejoin: miter; stroke-linecap: square"/>
   </g>
   <g id="patch_6">
    <path d="M 77.51125 0 
L 970.31125 0 
" style="fill: none; stroke: #000000; stroke-width: 0.8; stroke-linejoin: miter; stroke-linecap: square"/>
   </g>
   <g id="legend_1">
    <g id="patch_7">
     <path d="M 941.71125 33.8 
L 952.11125 33.8 
Q 957.31125 33.8 957.31125 28.6 
L 957.31125 18.2 
Q 957.31125 13 952.11125 13 
L 941.71125 13 
Q 936.51125 13 936.51125 18.2 
L 936.51125 28.6 
Q 936.51125 33.8 941.71125 33.8 
z
" style="fill: #ffffff; opacity: 0.8; stroke: #cccccc; stroke-linejoin: miter"/>
    </g>
   </g>
  </g>
 </g>
 <defs>
  <clipPath id="p15ed5b297c">
   <rect x="77.51125" y="0" width="892.8" height="498.96"/>
  </clipPath>
 </defs>
</svg>
