<svg width="747" height="502" xmlns="http://www.w3.org/2000/svg" xmlns:xlink="http://www.w3.org/1999/xlink" overflow="hidden"><defs><clipPath id="clip0"><rect x="239" y="113" width="747" height="502"/></clipPath></defs><g clip-path="url(#clip0)" transform="translate(-239 -113)"><rect x="600" y="158" width="304" height="44" fill="#D0CECE"/><text font-family="Arial,Arial_MSFontService,sans-serif" font-weight="400" font-size="32" transform="translate(280.775 189)">78, 79, 78, 80, 80, 81, 79, <tspan font-family="HGPSoeiKakugothicUB,HGPSoeiKakugothicUB_MSFontService,sans-serif" font-size="32" x="373.333" y="0">・・・・・</tspan><tspan font-size="32" x="462.167" y="0">, 80, 79, 80</tspan></text><rect x="262" y="138" width="660" height="64" stroke="#000000" stroke-width="2" stroke-miterlimit="8" stroke-dasharray="6 2" fill="none"/><rect x="280" y="158" width="312" height="64" stroke="#4472C4" stroke-width="2" stroke-miterlimit="8" stroke-dasharray="6 2" fill="none"/><rect x="541" y="120" width="102" height="36" fill="#FFFFFF"/><text font-family="Arial,Arial_MSFontService,sans-serif" font-weight="400" font-size="27" transform="translate(551.942 148)">120 [s]</text><rect x="393" y="204" width="87" height="36" fill="#FFFFFF"/><text font-family="Arial,Arial_MSFontService,sans-serif" font-weight="400" font-size="27" transform="translate(403.576 232)">60 [s]</text><rect x="600.5" y="158.5" width="304" height="64" stroke="#FF0000" stroke-width="3" stroke-miterlimit="8" stroke-dasharray="9 3" fill="none"/><rect x="708" y="204" width="88" height="36" fill="#FFFFFF"/><text font-family="Arial,Arial_MSFontService,sans-serif" font-weight="400" font-size="27" transform="translate(719.504 232)">60 [s]<tspan font-size="32" x="-460.933" y="28">wearOS</tspan><tspan font-weight="700" font-size="27" x="-87.0478" y="30">Ave. 80</tspan><tspan font-size="24" x="57.4603" y="28">Heart rate: 80bpm</tspan></text><path d="M737 250 757.262 250 757.262 254 737 254ZM755.262 246 767.262 252 755.262 258Z"/><rect x="440" y="331" width="313" height="44" fill="#D0CECE"/><text font-family="Arial,Arial_MSFontService,sans-serif" font-weight="400" font-size="32" transform="translate(280.775 362)">78, 79, 78, 80, 80, 81, 79, <tspan font-family="HGPSoeiKakugothicUB,HGPSoeiKakugothicUB_MSFontService,sans-serif" font-size="32" x="373.333" y="0">・・・・・</tspan><tspan font-size="32" x="462.167" y="0">, 80, 79, 80</tspan></text><rect x="262" y="311" width="660" height="64" stroke="#000000" stroke-width="2" stroke-miterlimit="8" stroke-dasharray="6 2" fill="none"/><rect x="280" y="331" width="152" height="64" stroke="#4472C4" stroke-width="2" stroke-miterlimit="8" stroke-dasharray="6 2" fill="none"/><rect x="512" y="293" width="160" height="36" fill="#FFFFFF"/><text font-family="Arial,Arial_MSFontService,sans-serif" font-weight="400" font-size="27" transform="translate(523.108 321)">Max 160 [s]</text><rect x="312" y="377" width="87" height="36" fill="#FFFFFF"/><text font-family="Arial,Arial_MSFontService,sans-serif" font-weight="400" font-size="27" transform="translate(323.285 405)">30 [s]</text><rect x="440.5" y="331.5" width="313" height="64" stroke="#FF0000" stroke-width="3" stroke-miterlimit="8" stroke-dasharray="9 3" fill="none"/><rect x="553" y="377" width="87" height="36" fill="#FFFFFF"/><text font-family="Arial,Arial_MSFontService,sans-serif" font-weight="400" font-size="27" transform="translate(564.158 405)">60 [s]<tspan font-size="32" x="-305.587" y="34">watchOS</tspan><tspan font-size="32" x="-283.383" y="132">78, 79, 78, 80, 80, 81, 79, </tspan><tspan font-family="HGPSoeiKakugothicUB,HGPSoeiKakugothicUB_MSFontService,sans-serif" font-size="32" x="89.95" y="132">・・・・・</tspan><tspan font-size="32" x="178.783" y="132">, 80, 79, 80</tspan></text><rect x="262" y="486" width="660" height="64" stroke="#000000" stroke-width="2" stroke-miterlimit="8" stroke-dasharray="6 2" fill="none"/><rect x="541" y="468" width="102" height="36" fill="#FFFFFF"/><text font-family="Arial,Arial_MSFontService,sans-serif" font-weight="400" font-size="27" transform="translate(559.358 496)">30 [s]<tspan font-size="24" x="217.404" y="88">Heart rate: 80bpm</tspan><tspan font-size="32" x="-300.787" y="91">originalOS</tspan><tspan font-weight="700" font-size="27" x="72.8958" y="-72">Ave. 80</tspan><tspan font-size="24" x="217.404" y="-73">Heart rate: 80bpm</tspan></text><path d="M737 413 757.262 413 757.262 417 737 417ZM755.262 409 767.262 415 755.262 421Z"/></g></svg>