<svg width="2312" height="584" xmlns="http://www.w3.org/2000/svg" xmlns:xlink="http://www.w3.org/1999/xlink" overflow="hidden"><defs><clipPath id="clip0"><rect x="896" y="271" width="2312" height="584"/></clipPath></defs><g clip-path="url(#clip0)" transform="translate(-896 -271)"><rect x="2063" y="421" width="1044" height="152" fill="#D0CECE"/><text font-family="Arial,Arial_MSFontService,sans-serif" font-weight="400" font-size="110" transform="matrix(1 0 0 1 965.164 531)">7<tspan font-size="110" x="61.3021" y="0">8, 79, 78, 80, 80, 81, 79, </tspan><tspan font-family="HGPSoeiKakugothicUB,HGPSoeiKakugothicUB_MSFontService,sans-serif" font-size="110" x="1283.33" y="0">・・・・・</tspan><tspan font-size="110" x="1588.7" y="0">, 80, 79, 80</tspan></text><rect x="899.5" y="352.5" width="2271" height="221" stroke="#000000" stroke-width="6.875" stroke-miterlimit="8" stroke-dasharray="20.625 6.875" fill="none"/><rect x="962.5" y="421.5" width="1074" height="221" stroke="#4472C4" stroke-width="6.875" stroke-miterlimit="8" stroke-dasharray="20.625 6.875" fill="none"/><rect x="1859" y="292" width="351" height="123" fill="#FFFFFF"/><text font-family="Arial,Arial_MSFontService,sans-serif" font-weight="400" font-size="92" transform="matrix(1 0 0 1 1922.51 388)">120 s</text><rect x="1349" y="579" width="300" height="123" fill="#FFFFFF"/><text font-family="Arial,Arial_MSFontService,sans-serif" font-weight="400" font-size="92" transform="matrix(1 0 0 1 1412.5 675)">60 s</text><rect x="2063" y="421" width="1044" height="221" stroke="#FF0000" stroke-width="10.3125" stroke-miterlimit="8" stroke-dasharray="30.9375 10.3125" fill="none"/><rect x="2435" y="579" width="300" height="123" fill="#FFFFFF"/><text font-family="Arial,Arial_MSFontService,sans-serif" font-weight="400" font-size="92" transform="matrix(1 0 0 1 2498.5 675)">60 s<tspan font-weight="700" font-size="92" x="-519.494" y="104">Ave. 80</tspan><tspan font-size="83" x="-28.3645" y="100">Heart rate: 80 bpm</tspan></text><path d="M2333 739.125 2402.65 739.125 2402.65 752.875 2333 752.875ZM2395.78 725.375 2437.03 746 2395.77 766.625Z"/></g></svg>