<svg width="2312" height="586" xmlns="http://www.w3.org/2000/svg" xmlns:xlink="http://www.w3.org/1999/xlink" overflow="hidden"><defs><clipPath id="clip0"><rect x="896" y="1011" width="2312" height="586"/></clipPath></defs><g clip-path="url(#clip0)" transform="translate(-896 -1011)"><rect x="1514" y="1162" width="1074" height="152" fill="#D0CECE"/><text font-family="Arial,Arial_MSFontService,sans-serif" font-weight="400" font-size="110" transform="matrix(1 0 0 1 965.164 1271)">78, 79, 78, 80, 80, 81, 79, <tspan font-family="HGPSoeiKakugothicUB,HGPSoeiKakugothicUB_MSFontService,sans-serif" font-size="110" x="1283.33" y="0">・・・・・</tspan><tspan font-size="110" x="1588.7" y="0">, 80, 79, 80</tspan></text><rect x="899.5" y="1093.5" width="2271" height="221" stroke="#000000" stroke-width="6.875" stroke-miterlimit="8" stroke-dasharray="20.625 6.875" fill="none"/><rect x="962.5" y="1162.5" width="524" height="221" stroke="#4472C4" stroke-width="6.875" stroke-miterlimit="8" stroke-dasharray="20.625 6.875" fill="none"/><rect x="1760" y="1033" width="549" height="123" fill="#FFFFFF"/><text font-family="Arial,Arial_MSFontService,sans-serif" font-weight="400" font-size="92" transform="matrix(1 0 0 1 1823.39 1128)">Max 160 s</text><rect x="1073" y="1320" width="300" height="123" fill="#FFFFFF"/><text font-family="Arial,Arial_MSFontService,sans-serif" font-weight="400" font-size="92" transform="matrix(1 0 0 1 1136.5 1415)">30 s</text><rect x="1514" y="1162" width="1074" height="221" stroke="#FF0000" stroke-width="10.3125" stroke-miterlimit="8" stroke-dasharray="30.9375 10.3125" fill="none"/><rect x="1901" y="1320" width="300" height="123" fill="#FFFFFF"/><text font-family="Arial,Arial_MSFontService,sans-serif" font-weight="400" font-size="92" transform="matrix(1 0 0 1 1964.5 1415)">60 s<tspan font-weight="700" font-size="92" x="14.5062" y="106">Ave. 80</tspan><tspan font-size="83" x="505.636" y="102">Heart rate: 80 bpm</tspan></text><path d="M2333 1481.13 2402.65 1481.13 2402.65 1494.88 2333 1494.88ZM2395.78 1467.38 2437.03 1488 2395.77 1508.63Z"/></g></svg>