<?xml version="1.0" encoding="utf-8" standalone="no"?>
<!DOCTYPE svg PUBLIC "-//W3C//DTD SVG 1.1//EN"
  "http://www.w3.org/Graphics/SVG/1.1/DTD/svg11.dtd">
<!-- Created with matplotlib (https://matplotlib.org/) -->
<svg height="537.05875pt" version="1.1" viewBox="0 0 987.81625 537.05875" width="987.81625pt" xmlns="http://www.w3.org/2000/svg" xmlns:xlink="http://www.w3.org/1999/xlink">
 <defs>
  <style type="text/css">
*{stroke-linecap:butt;stroke-linejoin:round;}
  </style>
 </defs>
 <g id="figure_1">
  <g id="patch_1">
   <path d="M 0 537.05875 
L 987.81625 537.05875 
L 987.81625 0 
L 0 0 
z
" style="fill:#ffffff;"/>
  </g>
  <g id="axes_1">
   <g id="patch_2">
    <path d="M 47.508125 498.96 
L 940.308125 498.96 
L 940.308125 0 
L 47.508125 0 
z
" style="fill:#ffffff;"/>
   </g>
   <g id="matplotlib.axis_1">
    <g id="xtick_1">
     <g id="line2d_1">
      <defs>
       <path d="M 0 0 
L 0 3.5 
" id="m5b0e0c128f" style="stroke:#000000;stroke-width:0.8;"/>
      </defs>
      <g>
       <use style="stroke:#000000;stroke-width:0.8;" x="87.500958" xlink:href="#m5b0e0c128f" y="498.96"/>
      </g>
     </g>
     <g id="text_1">
      <!-- 0 -->
      <defs>
       <path d="M 31.78125 66.40625 
Q 24.171875 66.40625 20.328125 58.90625 
Q 16.5 51.421875 16.5 36.375 
Q 16.5 21.390625 20.328125 13.890625 
Q 24.171875 6.390625 31.78125 6.390625 
Q 39.453125 6.390625 43.28125 13.890625 
Q 47.125 21.390625 47.125 36.375 
Q 47.125 51.421875 43.28125 58.90625 
Q 39.453125 66.40625 31.78125 66.40625 
z
M 31.78125 74.21875 
Q 44.046875 74.21875 50.515625 64.515625 
Q 56.984375 54.828125 56.984375 36.375 
Q 56.984375 17.96875 50.515625 8.265625 
Q 44.046875 -1.421875 31.78125 -1.421875 
Q 19.53125 -1.421875 13.0625 8.265625 
Q 6.59375 17.96875 6.59375 36.375 
Q 6.59375 54.828125 13.0625 64.515625 
Q 19.53125 74.21875 31.78125 74.21875 
z
" id="DejaVuSans-48"/>
      </defs>
      <g transform="translate(84.319708 513.558438)scale(0.1 -0.1)">
       <use xlink:href="#DejaVuSans-48"/>
      </g>
     </g>
    </g>
    <g id="xtick_2">
     <g id="line2d_2">
      <g>
       <use style="stroke:#000000;stroke-width:0.8;" x="250.20414" xlink:href="#m5b0e0c128f" y="498.96"/>
      </g>
     </g>
     <g id="text_2">
      <!-- 1000 -->
      <defs>
       <path d="M 12.40625 8.296875 
L 28.515625 8.296875 
L 28.515625 63.921875 
L 10.984375 60.40625 
L 10.984375 69.390625 
L 28.421875 72.90625 
L 38.28125 72.90625 
L 38.28125 8.296875 
L 54.390625 8.296875 
L 54.390625 0 
L 12.40625 0 
z
" id="DejaVuSans-49"/>
      </defs>
      <g transform="translate(237.47914 513.558438)scale(0.1 -0.1)">
       <use xlink:href="#DejaVuSans-49"/>
       <use x="63.623047" xlink:href="#DejaVuSans-48"/>
       <use x="127.246094" xlink:href="#DejaVuSans-48"/>
       <use x="190.869141" xlink:href="#DejaVuSans-48"/>
      </g>
     </g>
    </g>
    <g id="xtick_3">
     <g id="line2d_3">
      <g>
       <use style="stroke:#000000;stroke-width:0.8;" x="412.907322" xlink:href="#m5b0e0c128f" y="498.96"/>
      </g>
     </g>
     <g id="text_3">
      <!-- 2000 -->
      <defs>
       <path d="M 19.1875 8.296875 
L 53.609375 8.296875 
L 53.609375 0 
L 7.328125 0 
L 7.328125 8.296875 
Q 12.9375 14.109375 22.625 23.890625 
Q 32.328125 33.6875 34.8125 36.53125 
Q 39.546875 41.84375 41.421875 45.53125 
Q 43.3125 49.21875 43.3125 52.78125 
Q 43.3125 58.59375 39.234375 62.25 
Q 35.15625 65.921875 28.609375 65.921875 
Q 23.96875 65.921875 18.8125 64.3125 
Q 13.671875 62.703125 7.8125 59.421875 
L 7.8125 69.390625 
Q 13.765625 71.78125 18.9375 73 
Q 24.125 74.21875 28.421875 74.21875 
Q 39.75 74.21875 46.484375 68.546875 
Q 53.21875 62.890625 53.21875 53.421875 
Q 53.21875 48.921875 51.53125 44.890625 
Q 49.859375 40.875 45.40625 35.40625 
Q 44.1875 33.984375 37.640625 27.21875 
Q 31.109375 20.453125 19.1875 8.296875 
z
" id="DejaVuSans-50"/>
      </defs>
      <g transform="translate(400.182322 513.558438)scale(0.1 -0.1)">
       <use xlink:href="#DejaVuSans-50"/>
       <use x="63.623047" xlink:href="#DejaVuSans-48"/>
       <use x="127.246094" xlink:href="#DejaVuSans-48"/>
       <use x="190.869141" xlink:href="#DejaVuSans-48"/>
      </g>
     </g>
    </g>
    <g id="xtick_4">
     <g id="line2d_4">
      <g>
       <use style="stroke:#000000;stroke-width:0.8;" x="575.610504" xlink:href="#m5b0e0c128f" y="498.96"/>
      </g>
     </g>
     <g id="text_4">
      <!-- 3000 -->
      <defs>
       <path d="M 40.578125 39.3125 
Q 47.65625 37.796875 51.625 33 
Q 55.609375 28.21875 55.609375 21.1875 
Q 55.609375 10.40625 48.1875 4.484375 
Q 40.765625 -1.421875 27.09375 -1.421875 
Q 22.515625 -1.421875 17.65625 -0.515625 
Q 12.796875 0.390625 7.625 2.203125 
L 7.625 11.71875 
Q 11.71875 9.328125 16.59375 8.109375 
Q 21.484375 6.890625 26.8125 6.890625 
Q 36.078125 6.890625 40.9375 10.546875 
Q 45.796875 14.203125 45.796875 21.1875 
Q 45.796875 27.640625 41.28125 31.265625 
Q 36.765625 34.90625 28.71875 34.90625 
L 20.21875 34.90625 
L 20.21875 43.015625 
L 29.109375 43.015625 
Q 36.375 43.015625 40.234375 45.921875 
Q 44.09375 48.828125 44.09375 54.296875 
Q 44.09375 59.90625 40.109375 62.90625 
Q 36.140625 65.921875 28.71875 65.921875 
Q 24.65625 65.921875 20.015625 65.03125 
Q 15.375 64.15625 9.8125 62.3125 
L 9.8125 71.09375 
Q 15.4375 72.65625 20.34375 73.4375 
Q 25.25 74.21875 29.59375 74.21875 
Q 40.828125 74.21875 47.359375 69.109375 
Q 53.90625 64.015625 53.90625 55.328125 
Q 53.90625 49.265625 50.4375 45.09375 
Q 46.96875 40.921875 40.578125 39.3125 
z
" id="DejaVuSans-51"/>
      </defs>
      <g transform="translate(562.885504 513.558438)scale(0.1 -0.1)">
       <use xlink:href="#DejaVuSans-51"/>
       <use x="63.623047" xlink:href="#DejaVuSans-48"/>
       <use x="127.246094" xlink:href="#DejaVuSans-48"/>
       <use x="190.869141" xlink:href="#DejaVuSans-48"/>
      </g>
     </g>
    </g>
    <g id="xtick_5">
     <g id="line2d_5">
      <g>
       <use style="stroke:#000000;stroke-width:0.8;" x="738.313686" xlink:href="#m5b0e0c128f" y="498.96"/>
      </g>
     </g>
     <g id="text_5">
      <!-- 4000 -->
      <defs>
       <path d="M 37.796875 64.3125 
L 12.890625 25.390625 
L 37.796875 25.390625 
z
M 35.203125 72.90625 
L 47.609375 72.90625 
L 47.609375 25.390625 
L 58.015625 25.390625 
L 58.015625 17.1875 
L 47.609375 17.1875 
L 47.609375 0 
L 37.796875 0 
L 37.796875 17.1875 
L 4.890625 17.1875 
L 4.890625 26.703125 
z
" id="DejaVuSans-52"/>
      </defs>
      <g transform="translate(725.588686 513.558438)scale(0.1 -0.1)">
       <use xlink:href="#DejaVuSans-52"/>
       <use x="63.623047" xlink:href="#DejaVuSans-48"/>
       <use x="127.246094" xlink:href="#DejaVuSans-48"/>
       <use x="190.869141" xlink:href="#DejaVuSans-48"/>
      </g>
     </g>
    </g>
    <g id="xtick_6">
     <g id="line2d_6">
      <g>
       <use style="stroke:#000000;stroke-width:0.8;" x="901.016868" xlink:href="#m5b0e0c128f" y="498.96"/>
      </g>
     </g>
     <g id="text_6">
      <!-- 5000 -->
      <defs>
       <path d="M 10.796875 72.90625 
L 49.515625 72.90625 
L 49.515625 64.59375 
L 19.828125 64.59375 
L 19.828125 46.734375 
Q 21.96875 47.46875 24.109375 47.828125 
Q 26.265625 48.1875 28.421875 48.1875 
Q 40.625 48.1875 47.75 41.5 
Q 54.890625 34.8125 54.890625 23.390625 
Q 54.890625 11.625 47.5625 5.09375 
Q 40.234375 -1.421875 26.90625 -1.421875 
Q 22.3125 -1.421875 17.546875 -0.640625 
Q 12.796875 0.140625 7.71875 1.703125 
L 7.71875 11.625 
Q 12.109375 9.234375 16.796875 8.0625 
Q 21.484375 6.890625 26.703125 6.890625 
Q 35.15625 6.890625 40.078125 11.328125 
Q 45.015625 15.765625 45.015625 23.390625 
Q 45.015625 31 40.078125 35.4375 
Q 35.15625 39.890625 26.703125 39.890625 
Q 22.75 39.890625 18.8125 39.015625 
Q 14.890625 38.140625 10.796875 36.28125 
z
" id="DejaVuSans-53"/>
      </defs>
      <g transform="translate(888.291868 513.558438)scale(0.1 -0.1)">
       <use xlink:href="#DejaVuSans-53"/>
       <use x="63.623047" xlink:href="#DejaVuSans-48"/>
       <use x="127.246094" xlink:href="#DejaVuSans-48"/>
       <use x="190.869141" xlink:href="#DejaVuSans-48"/>
      </g>
     </g>
    </g>
    <g id="text_7">
     <!-- Time [ms] -->
     <defs>
      <path d="M -0.296875 72.90625 
L 61.375 72.90625 
L 61.375 64.59375 
L 35.5 64.59375 
L 35.5 0 
L 25.59375 0 
L 25.59375 64.59375 
L -0.296875 64.59375 
z
" id="DejaVuSans-84"/>
      <path d="M 9.421875 54.6875 
L 18.40625 54.6875 
L 18.40625 0 
L 9.421875 0 
z
M 9.421875 75.984375 
L 18.40625 75.984375 
L 18.40625 64.59375 
L 9.421875 64.59375 
z
" id="DejaVuSans-105"/>
      <path d="M 52 44.1875 
Q 55.375 50.25 60.0625 53.125 
Q 64.75 56 71.09375 56 
Q 79.640625 56 84.28125 50.015625 
Q 88.921875 44.046875 88.921875 33.015625 
L 88.921875 0 
L 79.890625 0 
L 79.890625 32.71875 
Q 79.890625 40.578125 77.09375 44.375 
Q 74.3125 48.1875 68.609375 48.1875 
Q 61.625 48.1875 57.5625 43.546875 
Q 53.515625 38.921875 53.515625 30.90625 
L 53.515625 0 
L 44.484375 0 
L 44.484375 32.71875 
Q 44.484375 40.625 41.703125 44.40625 
Q 38.921875 48.1875 33.109375 48.1875 
Q 26.21875 48.1875 22.15625 43.53125 
Q 18.109375 38.875 18.109375 30.90625 
L 18.109375 0 
L 9.078125 0 
L 9.078125 54.6875 
L 18.109375 54.6875 
L 18.109375 46.1875 
Q 21.1875 51.21875 25.484375 53.609375 
Q 29.78125 56 35.6875 56 
Q 41.65625 56 45.828125 52.96875 
Q 50 49.953125 52 44.1875 
z
" id="DejaVuSans-109"/>
      <path d="M 56.203125 29.59375 
L 56.203125 25.203125 
L 14.890625 25.203125 
Q 15.484375 15.921875 20.484375 11.0625 
Q 25.484375 6.203125 34.421875 6.203125 
Q 39.59375 6.203125 44.453125 7.46875 
Q 49.3125 8.734375 54.109375 11.28125 
L 54.109375 2.78125 
Q 49.265625 0.734375 44.1875 -0.34375 
Q 39.109375 -1.421875 33.890625 -1.421875 
Q 20.796875 -1.421875 13.15625 6.1875 
Q 5.515625 13.8125 5.515625 26.8125 
Q 5.515625 40.234375 12.765625 48.109375 
Q 20.015625 56 32.328125 56 
Q 43.359375 56 49.78125 48.890625 
Q 56.203125 41.796875 56.203125 29.59375 
z
M 47.21875 32.234375 
Q 47.125 39.59375 43.09375 43.984375 
Q 39.0625 48.390625 32.421875 48.390625 
Q 24.90625 48.390625 20.390625 44.140625 
Q 15.875 39.890625 15.1875 32.171875 
z
" id="DejaVuSans-101"/>
      <path id="DejaVuSans-32"/>
      <path d="M 8.59375 75.984375 
L 29.296875 75.984375 
L 29.296875 69 
L 17.578125 69 
L 17.578125 -6.203125 
L 29.296875 -6.203125 
L 29.296875 -13.1875 
L 8.59375 -13.1875 
z
" id="DejaVuSans-91"/>
      <path d="M 44.28125 53.078125 
L 44.28125 44.578125 
Q 40.484375 46.53125 36.375 47.5 
Q 32.28125 48.484375 27.875 48.484375 
Q 21.1875 48.484375 17.84375 46.4375 
Q 14.5 44.390625 14.5 40.28125 
Q 14.5 37.15625 16.890625 35.375 
Q 19.28125 33.59375 26.515625 31.984375 
L 29.59375 31.296875 
Q 39.15625 29.25 43.1875 25.515625 
Q 47.21875 21.78125 47.21875 15.09375 
Q 47.21875 7.46875 41.1875 3.015625 
Q 35.15625 -1.421875 24.609375 -1.421875 
Q 20.21875 -1.421875 15.453125 -0.5625 
Q 10.6875 0.296875 5.421875 2 
L 5.421875 11.28125 
Q 10.40625 8.6875 15.234375 7.390625 
Q 20.0625 6.109375 24.8125 6.109375 
Q 31.15625 6.109375 34.5625 8.28125 
Q 37.984375 10.453125 37.984375 14.40625 
Q 37.984375 18.0625 35.515625 20.015625 
Q 33.0625 21.96875 24.703125 23.78125 
L 21.578125 24.515625 
Q 13.234375 26.265625 9.515625 29.90625 
Q 5.8125 33.546875 5.8125 39.890625 
Q 5.8125 47.609375 11.28125 51.796875 
Q 16.75 56 26.8125 56 
Q 31.78125 56 36.171875 55.265625 
Q 40.578125 54.546875 44.28125 53.078125 
z
" id="DejaVuSans-115"/>
      <path d="M 30.421875 75.984375 
L 30.421875 -13.1875 
L 9.71875 -13.1875 
L 9.71875 -6.203125 
L 21.390625 -6.203125 
L 21.390625 69 
L 9.71875 69 
L 9.71875 75.984375 
z
" id="DejaVuSans-93"/>
     </defs>
     <g transform="translate(448.549531 533.315313)scale(0.18 -0.18)">
      <use xlink:href="#DejaVuSans-84"/>
      <use x="57.958984" xlink:href="#DejaVuSans-105"/>
      <use x="85.742188" xlink:href="#DejaVuSans-109"/>
      <use x="183.154297" xlink:href="#DejaVuSans-101"/>
      <use x="244.677734" xlink:href="#DejaVuSans-32"/>
      <use x="276.464844" xlink:href="#DejaVuSans-91"/>
      <use x="315.478516" xlink:href="#DejaVuSans-109"/>
      <use x="412.890625" xlink:href="#DejaVuSans-115"/>
      <use x="464.990234" xlink:href="#DejaVuSans-93"/>
     </g>
    </g>
   </g>
   <g id="matplotlib.axis_2">
    <g id="ytick_1">
     <g id="line2d_7">
      <defs>
       <path d="M 0 0 
L -3.5 0 
" id="m7c88ad5eb0" style="stroke:#000000;stroke-width:0.8;"/>
      </defs>
      <g>
       <use style="stroke:#000000;stroke-width:0.8;" x="47.508125" xlink:href="#m7c88ad5eb0" y="445.814328"/>
      </g>
     </g>
     <g id="text_8">
      <!-- 400 -->
      <g transform="translate(21.420625 449.613547)scale(0.1 -0.1)">
       <use xlink:href="#DejaVuSans-52"/>
       <use x="63.623047" xlink:href="#DejaVuSans-48"/>
       <use x="127.246094" xlink:href="#DejaVuSans-48"/>
      </g>
     </g>
    </g>
    <g id="ytick_2">
     <g id="line2d_8">
      <g>
       <use style="stroke:#000000;stroke-width:0.8;" x="47.508125" xlink:href="#m7c88ad5eb0" y="361.187463"/>
      </g>
     </g>
     <g id="text_9">
      <!-- 450 -->
      <g transform="translate(21.420625 364.986681)scale(0.1 -0.1)">
       <use xlink:href="#DejaVuSans-52"/>
       <use x="63.623047" xlink:href="#DejaVuSans-53"/>
       <use x="127.246094" xlink:href="#DejaVuSans-48"/>
      </g>
     </g>
    </g>
    <g id="ytick_3">
     <g id="line2d_9">
      <g>
       <use style="stroke:#000000;stroke-width:0.8;" x="47.508125" xlink:href="#m7c88ad5eb0" y="276.560597"/>
      </g>
     </g>
     <g id="text_10">
      <!-- 500 -->
      <g transform="translate(21.420625 280.359816)scale(0.1 -0.1)">
       <use xlink:href="#DejaVuSans-53"/>
       <use x="63.623047" xlink:href="#DejaVuSans-48"/>
       <use x="127.246094" xlink:href="#DejaVuSans-48"/>
      </g>
     </g>
    </g>
    <g id="ytick_4">
     <g id="line2d_10">
      <g>
       <use style="stroke:#000000;stroke-width:0.8;" x="47.508125" xlink:href="#m7c88ad5eb0" y="191.933731"/>
      </g>
     </g>
     <g id="text_11">
      <!-- 550 -->
      <g transform="translate(21.420625 195.73295)scale(0.1 -0.1)">
       <use xlink:href="#DejaVuSans-53"/>
       <use x="63.623047" xlink:href="#DejaVuSans-53"/>
       <use x="127.246094" xlink:href="#DejaVuSans-48"/>
      </g>
     </g>
    </g>
    <g id="ytick_5">
     <g id="line2d_11">
      <g>
       <use style="stroke:#000000;stroke-width:0.8;" x="47.508125" xlink:href="#m7c88ad5eb0" y="107.306866"/>
      </g>
     </g>
     <g id="text_12">
      <!-- 600 -->
      <defs>
       <path d="M 33.015625 40.375 
Q 26.375 40.375 22.484375 35.828125 
Q 18.609375 31.296875 18.609375 23.390625 
Q 18.609375 15.53125 22.484375 10.953125 
Q 26.375 6.390625 33.015625 6.390625 
Q 39.65625 6.390625 43.53125 10.953125 
Q 47.40625 15.53125 47.40625 23.390625 
Q 47.40625 31.296875 43.53125 35.828125 
Q 39.65625 40.375 33.015625 40.375 
z
M 52.59375 71.296875 
L 52.59375 62.3125 
Q 48.875 64.0625 45.09375 64.984375 
Q 41.3125 65.921875 37.59375 65.921875 
Q 27.828125 65.921875 22.671875 59.328125 
Q 17.53125 52.734375 16.796875 39.40625 
Q 19.671875 43.65625 24.015625 45.921875 
Q 28.375 48.1875 33.59375 48.1875 
Q 44.578125 48.1875 50.953125 41.515625 
Q 57.328125 34.859375 57.328125 23.390625 
Q 57.328125 12.15625 50.6875 5.359375 
Q 44.046875 -1.421875 33.015625 -1.421875 
Q 20.359375 -1.421875 13.671875 8.265625 
Q 6.984375 17.96875 6.984375 36.375 
Q 6.984375 53.65625 15.1875 63.9375 
Q 23.390625 74.21875 37.203125 74.21875 
Q 40.921875 74.21875 44.703125 73.484375 
Q 48.484375 72.75 52.59375 71.296875 
z
" id="DejaVuSans-54"/>
      </defs>
      <g transform="translate(21.420625 111.106084)scale(0.1 -0.1)">
       <use xlink:href="#DejaVuSans-54"/>
       <use x="63.623047" xlink:href="#DejaVuSans-48"/>
       <use x="127.246094" xlink:href="#DejaVuSans-48"/>
      </g>
     </g>
    </g>
    <g id="ytick_6">
     <g id="line2d_12">
      <g>
       <use style="stroke:#000000;stroke-width:0.8;" x="47.508125" xlink:href="#m7c88ad5eb0" y="22.68"/>
      </g>
     </g>
     <g id="text_13">
      <!-- 650 -->
      <g transform="translate(21.420625 26.479219)scale(0.1 -0.1)">
       <use xlink:href="#DejaVuSans-54"/>
       <use x="63.623047" xlink:href="#DejaVuSans-53"/>
       <use x="127.246094" xlink:href="#DejaVuSans-48"/>
      </g>
     </g>
    </g>
    <g id="text_14">
     <!-- Pulse sensor value -->
     <defs>
      <path d="M 19.671875 64.796875 
L 19.671875 37.40625 
L 32.078125 37.40625 
Q 38.96875 37.40625 42.71875 40.96875 
Q 46.484375 44.53125 46.484375 51.125 
Q 46.484375 57.671875 42.71875 61.234375 
Q 38.96875 64.796875 32.078125 64.796875 
z
M 9.8125 72.90625 
L 32.078125 72.90625 
Q 44.34375 72.90625 50.609375 67.359375 
Q 56.890625 61.8125 56.890625 51.125 
Q 56.890625 40.328125 50.609375 34.8125 
Q 44.34375 29.296875 32.078125 29.296875 
L 19.671875 29.296875 
L 19.671875 0 
L 9.8125 0 
z
" id="DejaVuSans-80"/>
      <path d="M 8.5 21.578125 
L 8.5 54.6875 
L 17.484375 54.6875 
L 17.484375 21.921875 
Q 17.484375 14.15625 20.5 10.265625 
Q 23.53125 6.390625 29.59375 6.390625 
Q 36.859375 6.390625 41.078125 11.03125 
Q 45.3125 15.671875 45.3125 23.6875 
L 45.3125 54.6875 
L 54.296875 54.6875 
L 54.296875 0 
L 45.3125 0 
L 45.3125 8.40625 
Q 42.046875 3.421875 37.71875 1 
Q 33.40625 -1.421875 27.6875 -1.421875 
Q 18.265625 -1.421875 13.375 4.4375 
Q 8.5 10.296875 8.5 21.578125 
z
M 31.109375 56 
z
" id="DejaVuSans-117"/>
      <path d="M 9.421875 75.984375 
L 18.40625 75.984375 
L 18.40625 0 
L 9.421875 0 
z
" id="DejaVuSans-108"/>
      <path d="M 54.890625 33.015625 
L 54.890625 0 
L 45.90625 0 
L 45.90625 32.71875 
Q 45.90625 40.484375 42.875 44.328125 
Q 39.84375 48.1875 33.796875 48.1875 
Q 26.515625 48.1875 22.3125 43.546875 
Q 18.109375 38.921875 18.109375 30.90625 
L 18.109375 0 
L 9.078125 0 
L 9.078125 54.6875 
L 18.109375 54.6875 
L 18.109375 46.1875 
Q 21.34375 51.125 25.703125 53.5625 
Q 30.078125 56 35.796875 56 
Q 45.21875 56 50.046875 50.171875 
Q 54.890625 44.34375 54.890625 33.015625 
z
" id="DejaVuSans-110"/>
      <path d="M 30.609375 48.390625 
Q 23.390625 48.390625 19.1875 42.75 
Q 14.984375 37.109375 14.984375 27.296875 
Q 14.984375 17.484375 19.15625 11.84375 
Q 23.34375 6.203125 30.609375 6.203125 
Q 37.796875 6.203125 41.984375 11.859375 
Q 46.1875 17.53125 46.1875 27.296875 
Q 46.1875 37.015625 41.984375 42.703125 
Q 37.796875 48.390625 30.609375 48.390625 
z
M 30.609375 56 
Q 42.328125 56 49.015625 48.375 
Q 55.71875 40.765625 55.71875 27.296875 
Q 55.71875 13.875 49.015625 6.21875 
Q 42.328125 -1.421875 30.609375 -1.421875 
Q 18.84375 -1.421875 12.171875 6.21875 
Q 5.515625 13.875 5.515625 27.296875 
Q 5.515625 40.765625 12.171875 48.375 
Q 18.84375 56 30.609375 56 
z
" id="DejaVuSans-111"/>
      <path d="M 41.109375 46.296875 
Q 39.59375 47.171875 37.8125 47.578125 
Q 36.03125 48 33.890625 48 
Q 26.265625 48 22.1875 43.046875 
Q 18.109375 38.09375 18.109375 28.8125 
L 18.109375 0 
L 9.078125 0 
L 9.078125 54.6875 
L 18.109375 54.6875 
L 18.109375 46.1875 
Q 20.953125 51.171875 25.484375 53.578125 
Q 30.03125 56 36.53125 56 
Q 37.453125 56 38.578125 55.875 
Q 39.703125 55.765625 41.0625 55.515625 
z
" id="DejaVuSans-114"/>
      <path d="M 2.984375 54.6875 
L 12.5 54.6875 
L 29.59375 8.796875 
L 46.6875 54.6875 
L 56.203125 54.6875 
L 35.6875 0 
L 23.484375 0 
z
" id="DejaVuSans-118"/>
      <path d="M 34.28125 27.484375 
Q 23.390625 27.484375 19.1875 25 
Q 14.984375 22.515625 14.984375 16.5 
Q 14.984375 11.71875 18.140625 8.90625 
Q 21.296875 6.109375 26.703125 6.109375 
Q 34.1875 6.109375 38.703125 11.40625 
Q 43.21875 16.703125 43.21875 25.484375 
L 43.21875 27.484375 
z
M 52.203125 31.203125 
L 52.203125 0 
L 43.21875 0 
L 43.21875 8.296875 
Q 40.140625 3.328125 35.546875 0.953125 
Q 30.953125 -1.421875 24.3125 -1.421875 
Q 15.921875 -1.421875 10.953125 3.296875 
Q 6 8.015625 6 15.921875 
Q 6 25.140625 12.171875 29.828125 
Q 18.359375 34.515625 30.609375 34.515625 
L 43.21875 34.515625 
L 43.21875 35.40625 
Q 43.21875 41.609375 39.140625 45 
Q 35.0625 48.390625 27.6875 48.390625 
Q 23 48.390625 18.546875 47.265625 
Q 14.109375 46.140625 10.015625 43.890625 
L 10.015625 52.203125 
Q 14.9375 54.109375 19.578125 55.046875 
Q 24.21875 56 28.609375 56 
Q 40.484375 56 46.34375 49.84375 
Q 52.203125 43.703125 52.203125 31.203125 
z
" id="DejaVuSans-97"/>
     </defs>
     <g transform="translate(13.677188 333.309375)rotate(-90)scale(0.18 -0.18)">
      <use xlink:href="#DejaVuSans-80"/>
      <use x="58.552734" xlink:href="#DejaVuSans-117"/>
      <use x="121.931641" xlink:href="#DejaVuSans-108"/>
      <use x="149.714844" xlink:href="#DejaVuSans-115"/>
      <use x="201.814453" xlink:href="#DejaVuSans-101"/>
      <use x="263.337891" xlink:href="#DejaVuSans-32"/>
      <use x="295.125" xlink:href="#DejaVuSans-115"/>
      <use x="347.224609" xlink:href="#DejaVuSans-101"/>
      <use x="408.748047" xlink:href="#DejaVuSans-110"/>
      <use x="472.126953" xlink:href="#DejaVuSans-115"/>
      <use x="524.226562" xlink:href="#DejaVuSans-111"/>
      <use x="585.408203" xlink:href="#DejaVuSans-114"/>
      <use x="626.521484" xlink:href="#DejaVuSans-32"/>
      <use x="658.308594" xlink:href="#DejaVuSans-118"/>
      <use x="717.488281" xlink:href="#DejaVuSans-97"/>
      <use x="778.767578" xlink:href="#DejaVuSans-108"/>
      <use x="806.550781" xlink:href="#DejaVuSans-117"/>
      <use x="869.929688" xlink:href="#DejaVuSans-101"/>
     </g>
    </g>
   </g>
   <g id="line2d_13">
    <path clip-path="url(#p3c32fe4080)" d="M 88.089943 235.939701 
L 89.818502 239.324776 
L 91.549664 249.48 
L 93.278873 234.247164 
L 95.010035 241.017313 
L 96.741848 241.017313 
L 98.470406 232.554627 
L 100.201568 241.017313 
L 101.93273 239.324776 
L 103.663241 232.554627 
L 105.395054 237.632239 
L 108.856076 230.86209 
L 110.587238 219.014328 
L 112.317098 166.545672 
L 114.04826 117.46209 
L 115.77812 81.918806 
L 117.509282 41.29791 
L 119.240444 29.450149 
L 120.971605 34.527761 
L 122.702767 63.300896 
L 124.432628 136.08 
L 129.624812 320.566567 
L 131.354672 342.569552 
L 133.08323 373.035224 
L 134.813741 395.038209 
L 136.545554 393.345672 
L 138.274763 403.500896 
L 140.004624 396.730746 
L 141.736436 378.112836 
L 143.466297 371.342687 
L 145.197458 352.724776 
L 146.926017 330.721791 
L 148.656528 320.566567 
L 150.388341 291.793433 
L 152.118201 268.09791 
L 153.84676 257.942687 
L 155.575969 227.477015 
L 157.30648 212.244179 
L 159.037642 205.47403 
L 160.768804 186.856119 
L 162.497362 193.626269 
L 164.228524 191.933731 
L 165.959686 183.471045 
L 167.690848 202.088955 
L 169.419407 197.011343 
L 171.15187 207.166567 
L 172.883032 224.09194 
L 174.612241 217.321791 
L 176.342752 229.169552 
L 178.071311 235.939701 
L 179.803124 235.939701 
L 181.534936 249.48 
L 183.264146 247.787463 
L 184.994657 242.709851 
L 186.725819 249.48 
L 188.455679 246.094925 
L 190.186841 244.402388 
L 191.918003 249.48 
L 193.649165 241.017313 
L 195.380326 241.017313 
L 197.108885 249.48 
L 198.840047 241.017313 
L 200.568605 242.709851 
L 202.300418 246.094925 
L 204.032231 235.939701 
L 205.763393 247.787463 
L 207.494555 241.017313 
L 209.223113 230.86209 
L 210.954275 244.402388 
L 212.685437 232.554627 
L 214.414646 237.632239 
L 216.144506 251.172537 
L 217.876319 234.247164 
L 219.605529 244.402388 
L 221.33604 244.402388 
L 223.065249 237.632239 
L 224.796411 251.172537 
L 228.256782 234.247164 
L 229.987944 217.321791 
L 231.717153 168.238209 
L 233.448966 122.539701 
L 235.180128 83.611343 
L 236.908687 51.453134 
L 238.638547 63.300896 
L 242.098918 156.390448 
L 243.829429 217.321791 
L 245.559289 266.405373 
L 247.2898 298.563582 
L 249.021613 342.569552 
L 250.750172 357.802388 
L 252.481334 361.187463 
L 254.212495 381.49791 
L 255.943006 367.957612 
L 257.674819 371.342687 
L 259.405981 373.035224 
L 261.137794 342.569552 
L 262.867003 335.799403 
L 264.599467 318.87403 
L 266.330628 296.871045 
L 268.06179 291.793433 
L 269.793603 268.09791 
L 271.525416 242.709851 
L 273.256577 229.169552 
L 274.987739 207.166567 
L 276.7176 200.396418 
L 278.450063 205.47403 
L 280.181225 191.933731 
L 281.909784 193.626269 
L 283.640945 202.088955 
L 285.369504 198.703881 
L 287.100666 217.321791 
L 288.831828 219.014328 
L 290.56299 215.629254 
L 292.291548 237.632239 
L 294.02271 235.939701 
L 295.754523 239.324776 
L 297.486335 252.865075 
L 299.214894 237.632239 
L 300.946707 246.094925 
L 302.678519 256.250149 
L 304.409681 247.787463 
L 306.140843 256.250149 
L 309.602516 246.094925 
L 311.334329 259.635224 
L 314.796652 246.094925 
L 316.527814 251.172537 
L 318.258976 241.017313 
L 319.990138 241.017313 
L 321.719347 247.787463 
L 323.450509 235.939701 
L 325.18102 235.939701 
L 326.911531 237.632239 
L 328.643344 229.169552 
L 330.373204 241.017313 
L 332.103715 239.324776 
L 333.835528 232.554627 
L 335.564086 246.094925 
L 337.295248 234.247164 
L 339.02641 239.324776 
L 340.758223 251.172537 
L 344.215991 207.166567 
L 345.9452 166.545672 
L 347.673108 112.384478 
L 349.40427 81.918806 
L 351.136083 44.682985 
L 352.864641 26.065075 
L 354.594501 54.838209 
L 356.323711 100.536716 
L 359.784733 239.324776 
L 363.243803 339.184478 
L 364.973663 381.49791 
L 366.704174 393.345672 
L 368.432733 410.271045 
L 370.163894 415.348657 
L 371.893104 403.500896 
L 373.622313 408.578507 
L 375.352173 388.26806 
L 377.082685 364.572537 
L 378.814497 359.494925 
L 380.544357 325.644179 
L 384.004078 298.563582 
L 385.735891 261.327761 
L 387.467703 249.48 
L 389.196913 229.169552 
L 390.927424 207.166567 
L 392.656633 208.859104 
L 394.388446 193.626269 
L 396.119608 186.856119 
L 397.849468 198.703881 
L 399.58063 197.011343 
L 401.311792 205.47403 
L 403.04035 219.014328 
L 404.771512 215.629254 
L 406.500071 224.09194 
L 408.231233 235.939701 
L 409.962394 234.247164 
L 411.691604 242.709851 
L 413.422115 244.402388 
L 415.153277 237.632239 
L 416.883788 254.557612 
L 420.346762 247.787463 
L 422.075321 261.327761 
L 423.806483 246.094925 
L 425.536343 251.172537 
L 427.267505 257.942687 
L 428.996063 242.709851 
L 430.726574 252.865075 
L 432.458387 249.48 
L 434.187597 242.709851 
L 435.918108 252.865075 
L 437.649269 246.094925 
L 439.380431 242.709851 
L 441.111593 249.48 
L 442.840803 242.709851 
L 444.571314 246.094925 
L 446.302476 252.865075 
L 448.031685 241.017313 
L 449.760894 242.709851 
L 451.489453 247.787463 
L 453.220615 237.632239 
L 454.951777 222.399403 
L 456.680986 173.315821 
L 458.411497 115.769552 
L 460.142659 85.303881 
L 461.875122 42.990448 
L 463.606284 27.757612 
L 465.337446 32.835224 
L 467.066656 27.757612 
L 468.797167 80.226269 
L 470.52963 151.312836 
L 472.260792 215.629254 
L 473.991954 295.178507 
L 475.720512 349.339701 
L 479.180233 425.503881 
L 480.911395 439.044179 
L 482.640604 445.814328 
L 484.371766 450.89194 
L 486.103579 430.581493 
L 487.832137 413.656119 
L 489.561347 401.808358 
L 491.291858 366.265075 
L 493.022369 345.954627 
L 494.754182 322.259104 
L 496.48274 293.48597 
L 498.213251 285.023284 
L 501.676226 225.784478 
L 503.406737 220.706866 
L 505.137248 195.318806 
L 506.869711 193.626269 
L 508.600222 202.088955 
L 510.330733 186.856119 
L 512.061895 198.703881 
L 513.793057 202.088955 
L 515.524219 202.088955 
L 517.255381 220.706866 
L 518.986543 220.706866 
L 520.717705 222.399403 
L 522.448866 235.939701 
L 524.180679 234.247164 
L 525.912492 241.017313 
L 527.64105 252.865075 
L 529.372863 244.402388 
L 532.833234 257.942687 
L 534.564396 247.787463 
L 536.295558 252.865075 
L 538.028021 251.172537 
L 539.759183 244.402388 
L 541.490345 259.635224 
L 544.952669 246.094925 
L 546.684482 256.250149 
L 548.416294 242.709851 
L 550.147456 251.172537 
L 551.878618 257.942687 
L 553.60978 241.017313 
L 555.340942 251.172537 
L 557.072104 247.787463 
L 558.801313 242.709851 
L 560.531824 257.942687 
L 562.262986 246.094925 
L 563.995449 241.017313 
L 565.726611 229.169552 
L 567.45517 180.08597 
L 572.649957 49.760597 
L 574.381119 31.142687 
L 576.112281 24.372537 
L 577.842792 24.372537 
L 579.574604 42.990448 
L 581.303163 58.223284 
L 583.033023 78.533731 
L 586.494045 202.088955 
L 588.225207 273.175522 
L 589.954417 356.109851 
L 591.685579 396.730746 
L 593.414788 445.814328 
L 595.14595 474.587463 
L 596.877112 464.432239 
L 598.60567 469.509851 
L 600.337483 452.584478 
L 602.069296 428.888955 
L 603.797854 423.811343 
L 605.529016 393.345672 
L 607.260178 369.650149 
L 608.990689 357.802388 
L 610.719898 325.644179 
L 612.449108 305.333731 
L 614.177016 281.638209 
L 615.908177 249.48 
L 617.638038 234.247164 
L 619.3692 220.706866 
L 621.09906 203.781493 
L 622.830222 210.551642 
L 624.561384 200.396418 
L 626.291244 197.011343 
L 628.022406 213.936716 
L 629.751615 207.166567 
L 631.482777 215.629254 
L 633.21459 230.86209 
L 634.94445 220.706866 
L 636.673659 237.632239 
L 638.40417 247.787463 
L 640.134681 241.017313 
L 641.866494 252.865075 
L 643.595053 247.787463 
L 645.326214 246.094925 
L 647.057376 261.327761 
L 648.786586 254.557612 
L 650.517097 252.865075 
L 652.246306 256.250149 
L 653.978119 246.094925 
L 655.709281 251.172537 
L 657.440443 252.865075 
L 659.169652 244.402388 
L 660.900163 247.787463 
L 662.631325 244.402388 
L 664.362487 237.632239 
L 666.091045 251.172537 
L 667.822207 244.402388 
L 669.553369 239.324776 
L 671.281928 251.172537 
L 673.012439 237.632239 
L 674.74295 246.094925 
L 676.474112 252.865075 
L 678.205273 239.324776 
L 679.933832 249.48 
L 681.663042 249.48 
L 683.393553 242.709851 
L 685.124064 232.554627 
L 688.585086 127.617313 
L 690.315597 92.07403 
L 692.046759 51.453134 
L 693.775317 31.142687 
L 695.506479 26.065075 
L 697.235038 22.68 
L 698.965549 42.990448 
L 700.697361 80.226269 
L 702.426571 136.08 
L 704.157082 217.321791 
L 705.888244 288.408358 
L 707.618755 347.647164 
L 709.350567 413.656119 
L 711.079777 437.351642 
L 712.807685 455.969552 
L 714.538847 476.28 
L 716.268056 461.047164 
L 717.998567 461.047164 
L 719.729729 447.506866 
L 721.46024 410.271045 
L 723.192053 395.038209 
L 726.654376 332.414328 
L 728.382935 320.566567 
L 730.115398 285.023284 
L 731.84656 263.020299 
L 733.575119 247.787463 
L 735.303677 222.399403 
L 737.034839 213.936716 
L 738.764049 202.088955 
L 740.493909 186.856119 
L 743.955582 193.626269 
L 745.686744 193.626269 
L 747.415953 205.47403 
L 749.146464 205.47403 
L 750.875674 207.166567 
L 752.607486 230.86209 
L 754.338648 229.169552 
L 756.067207 234.247164 
L 757.798369 249.48 
L 759.52953 241.017313 
L 761.261994 254.557612 
L 762.993156 259.635224 
L 764.724318 246.094925 
L 766.45613 261.327761 
L 768.185991 254.557612 
L 769.916502 251.172537 
L 771.647013 263.020299 
L 773.377524 247.787463 
L 775.109987 249.48 
L 776.841149 256.250149 
L 778.569708 247.787463 
L 780.300869 252.865075 
L 782.03073 254.557612 
L 783.761892 244.402388 
L 785.492403 247.787463 
L 787.222914 247.787463 
L 788.951472 244.402388 
L 790.682634 256.250149 
L 792.411844 247.787463 
L 794.141704 241.017313 
L 795.872215 252.865075 
L 797.603377 242.709851 
L 801.063748 256.250149 
L 802.794259 241.017313 
L 804.525421 252.865075 
L 806.257884 254.557612 
L 807.987745 244.402388 
L 809.718906 235.939701 
L 813.18123 132.694925 
L 814.913694 95.459104 
L 816.644856 51.453134 
L 818.376017 31.142687 
L 820.10783 24.372537 
L 821.837039 26.065075 
L 823.568852 73.456119 
L 827.031827 207.166567 
L 828.763639 285.023284 
L 830.495452 344.26209 
L 833.956474 428.888955 
L 835.687636 432.27403 
L 837.419449 433.966567 
L 839.151261 442.429254 
L 840.87982 422.118806 
L 842.610982 418.733731 
L 844.33954 405.193433 
L 846.071353 371.342687 
L 847.803166 357.802388 
L 851.263537 305.333731 
L 852.992746 296.871045 
L 854.724559 269.790448 
L 856.456372 251.172537 
L 858.187534 239.324776 
L 859.919997 213.936716 
L 861.651159 208.859104 
L 863.382321 202.088955 
L 865.113483 190.241194 
L 866.842041 198.703881 
L 868.573203 200.396418 
L 870.304365 198.703881 
L 872.032924 212.244179 
L 873.762784 212.244179 
L 875.492644 213.936716 
L 877.223155 235.939701 
L 878.954968 232.554627 
L 880.683526 234.247164 
L 882.415339 249.48 
L 884.14585 237.632239 
L 885.87506 252.865075 
L 887.606872 257.942687 
L 889.338034 246.094925 
L 891.069196 259.635224 
L 892.800358 254.557612 
L 894.53152 251.172537 
L 896.262681 264.712836 
L 897.993843 251.172537 
L 899.726307 251.172537 
L 899.726307 251.172537 
" style="fill:none;stroke:#ff0000;stroke-linecap:square;stroke-width:1.5;"/>
   </g>
   <g id="patch_3">
    <path d="M 47.508125 498.96 
L 47.508125 0 
" style="fill:none;stroke:#000000;stroke-linecap:square;stroke-linejoin:miter;stroke-width:0.8;"/>
   </g>
   <g id="patch_4">
    <path d="M 940.308125 498.96 
L 940.308125 0 
" style="fill:none;stroke:#000000;stroke-linecap:square;stroke-linejoin:miter;stroke-width:0.8;"/>
   </g>
   <g id="patch_5">
    <path d="M 47.508125 498.96 
L 940.308125 498.96 
" style="fill:none;stroke:#000000;stroke-linecap:square;stroke-linejoin:miter;stroke-width:0.8;"/>
   </g>
   <g id="patch_6">
    <path d="M 47.508125 0 
L 940.308125 0 
" style="fill:none;stroke:#000000;stroke-linecap:square;stroke-linejoin:miter;stroke-width:0.8;"/>
   </g>
   <g id="legend_1">
    <g id="patch_7">
     <path d="M 719.647812 67.24125 
L 927.708125 67.24125 
Q 931.308125 67.24125 931.308125 63.64125 
L 931.308125 12.6 
Q 931.308125 9 927.708125 9 
L 719.647812 9 
Q 716.047812 9 716.047812 12.6 
L 716.047812 63.64125 
Q 716.047812 67.24125 719.647812 67.24125 
z
" style="fill:#ffffff;opacity:0.8;stroke:#cccccc;stroke-linejoin:miter;"/>
    </g>
    <g id="line2d_14">
     <path d="M 723.247813 23.577188 
L 759.247813 23.577188 
" style="fill:none;stroke:#ff0000;stroke-linecap:square;stroke-width:1.5;"/>
    </g>
    <g id="line2d_15"/>
    <g id="text_15">
     <!-- pulsesensor.com -->
     <defs>
      <path d="M 18.109375 8.203125 
L 18.109375 -20.796875 
L 9.078125 -20.796875 
L 9.078125 54.6875 
L 18.109375 54.6875 
L 18.109375 46.390625 
Q 20.953125 51.265625 25.265625 53.625 
Q 29.59375 56 35.59375 56 
Q 45.5625 56 51.78125 48.09375 
Q 58.015625 40.1875 58.015625 27.296875 
Q 58.015625 14.40625 51.78125 6.484375 
Q 45.5625 -1.421875 35.59375 -1.421875 
Q 29.59375 -1.421875 25.265625 0.953125 
Q 20.953125 3.328125 18.109375 8.203125 
z
M 48.6875 27.296875 
Q 48.6875 37.203125 44.609375 42.84375 
Q 40.53125 48.484375 33.40625 48.484375 
Q 26.265625 48.484375 22.1875 42.84375 
Q 18.109375 37.203125 18.109375 27.296875 
Q 18.109375 17.390625 22.1875 11.75 
Q 26.265625 6.109375 33.40625 6.109375 
Q 40.53125 6.109375 44.609375 11.75 
Q 48.6875 17.390625 48.6875 27.296875 
z
" id="DejaVuSans-112"/>
      <path d="M 10.6875 12.40625 
L 21 12.40625 
L 21 0 
L 10.6875 0 
z
" id="DejaVuSans-46"/>
      <path d="M 48.78125 52.59375 
L 48.78125 44.1875 
Q 44.96875 46.296875 41.140625 47.34375 
Q 37.3125 48.390625 33.40625 48.390625 
Q 24.65625 48.390625 19.8125 42.84375 
Q 14.984375 37.3125 14.984375 27.296875 
Q 14.984375 17.28125 19.8125 11.734375 
Q 24.65625 6.203125 33.40625 6.203125 
Q 37.3125 6.203125 41.140625 7.25 
Q 44.96875 8.296875 48.78125 10.40625 
L 48.78125 2.09375 
Q 45.015625 0.34375 40.984375 -0.53125 
Q 36.96875 -1.421875 32.421875 -1.421875 
Q 20.0625 -1.421875 12.78125 6.34375 
Q 5.515625 14.109375 5.515625 27.296875 
Q 5.515625 40.671875 12.859375 48.328125 
Q 20.21875 56 33.015625 56 
Q 37.15625 56 41.109375 55.140625 
Q 45.0625 54.296875 48.78125 52.59375 
z
" id="DejaVuSans-99"/>
     </defs>
     <g transform="translate(773.647812 29.877188)scale(0.18 -0.18)">
      <use xlink:href="#DejaVuSans-112"/>
      <use x="63.476562" xlink:href="#DejaVuSans-117"/>
      <use x="126.855469" xlink:href="#DejaVuSans-108"/>
      <use x="154.638672" xlink:href="#DejaVuSans-115"/>
      <use x="206.738281" xlink:href="#DejaVuSans-101"/>
      <use x="268.261719" xlink:href="#DejaVuSans-115"/>
      <use x="320.361328" xlink:href="#DejaVuSans-101"/>
      <use x="381.884766" xlink:href="#DejaVuSans-110"/>
      <use x="445.263672" xlink:href="#DejaVuSans-115"/>
      <use x="497.363281" xlink:href="#DejaVuSans-111"/>
      <use x="558.544922" xlink:href="#DejaVuSans-114"/>
      <use x="590.533203" xlink:href="#DejaVuSans-46"/>
      <use x="622.320312" xlink:href="#DejaVuSans-99"/>
      <use x="677.300781" xlink:href="#DejaVuSans-111"/>
      <use x="738.482422" xlink:href="#DejaVuSans-109"/>
     </g>
    </g>
    <g id="line2d_16">
     <path d="M 723.247813 49.997813 
L 759.247813 49.997813 
" style="fill:none;stroke:#0000ff;stroke-dasharray:5.55,2.4;stroke-dashoffset:0;stroke-width:1.5;"/>
    </g>
    <g id="line2d_17"/>
    <g id="text_16">
     <!-- TicWatch -->
     <defs>
      <path d="M 3.328125 72.90625 
L 13.28125 72.90625 
L 28.609375 11.28125 
L 43.890625 72.90625 
L 54.984375 72.90625 
L 70.3125 11.28125 
L 85.59375 72.90625 
L 95.609375 72.90625 
L 77.296875 0 
L 64.890625 0 
L 49.515625 63.28125 
L 33.984375 0 
L 21.578125 0 
z
" id="DejaVuSans-87"/>
      <path d="M 18.3125 70.21875 
L 18.3125 54.6875 
L 36.8125 54.6875 
L 36.8125 47.703125 
L 18.3125 47.703125 
L 18.3125 18.015625 
Q 18.3125 11.328125 20.140625 9.421875 
Q 21.96875 7.515625 27.59375 7.515625 
L 36.8125 7.515625 
L 36.8125 0 
L 27.59375 0 
Q 17.1875 0 13.234375 3.875 
Q 9.28125 7.765625 9.28125 18.015625 
L 9.28125 47.703125 
L 2.6875 47.703125 
L 2.6875 54.6875 
L 9.28125 54.6875 
L 9.28125 70.21875 
z
" id="DejaVuSans-116"/>
      <path d="M 54.890625 33.015625 
L 54.890625 0 
L 45.90625 0 
L 45.90625 32.71875 
Q 45.90625 40.484375 42.875 44.328125 
Q 39.84375 48.1875 33.796875 48.1875 
Q 26.515625 48.1875 22.3125 43.546875 
Q 18.109375 38.921875 18.109375 30.90625 
L 18.109375 0 
L 9.078125 0 
L 9.078125 75.984375 
L 18.109375 75.984375 
L 18.109375 46.1875 
Q 21.34375 51.125 25.703125 53.5625 
Q 30.078125 56 35.796875 56 
Q 45.21875 56 50.046875 50.171875 
Q 54.890625 44.34375 54.890625 33.015625 
z
" id="DejaVuSans-104"/>
     </defs>
     <g transform="translate(773.647812 56.297813)scale(0.18 -0.18)">
      <use xlink:href="#DejaVuSans-84"/>
      <use x="57.958984" xlink:href="#DejaVuSans-105"/>
      <use x="85.742188" xlink:href="#DejaVuSans-99"/>
      <use x="140.722656" xlink:href="#DejaVuSans-87"/>
      <use x="233.224609" xlink:href="#DejaVuSans-97"/>
      <use x="294.503906" xlink:href="#DejaVuSans-116"/>
      <use x="333.712891" xlink:href="#DejaVuSans-99"/>
      <use x="388.693359" xlink:href="#DejaVuSans-104"/>
     </g>
    </g>
   </g>
  </g>
  <g id="axes_2">
   <g id="matplotlib.axis_3">
    <g id="ytick_7">
     <g id="line2d_18">
      <defs>
       <path d="M 0 0 
L 3.5 0 
" id="m80b5b50183" style="stroke:#000000;stroke-width:0.8;"/>
      </defs>
      <g>
       <use style="stroke:#000000;stroke-width:0.8;" x="940.308125" xlink:href="#m80b5b50183" y="438.48"/>
      </g>
     </g>
     <g id="text_17">
      <!-- 270 -->
      <defs>
       <path d="M 8.203125 72.90625 
L 55.078125 72.90625 
L 55.078125 68.703125 
L 28.609375 0 
L 18.3125 0 
L 43.21875 64.59375 
L 8.203125 64.59375 
z
" id="DejaVuSans-55"/>
      </defs>
      <g transform="translate(947.308125 442.279219)scale(0.1 -0.1)">
       <use xlink:href="#DejaVuSans-50"/>
       <use x="63.623047" xlink:href="#DejaVuSans-55"/>
       <use x="127.246094" xlink:href="#DejaVuSans-48"/>
      </g>
     </g>
    </g>
    <g id="ytick_8">
     <g id="line2d_19">
      <g>
       <use style="stroke:#000000;stroke-width:0.8;" x="940.308125" xlink:href="#m80b5b50183" y="362.88"/>
      </g>
     </g>
     <g id="text_18">
      <!-- 280 -->
      <defs>
       <path d="M 31.78125 34.625 
Q 24.75 34.625 20.71875 30.859375 
Q 16.703125 27.09375 16.703125 20.515625 
Q 16.703125 13.921875 20.71875 10.15625 
Q 24.75 6.390625 31.78125 6.390625 
Q 38.8125 6.390625 42.859375 10.171875 
Q 46.921875 13.96875 46.921875 20.515625 
Q 46.921875 27.09375 42.890625 30.859375 
Q 38.875 34.625 31.78125 34.625 
z
M 21.921875 38.8125 
Q 15.578125 40.375 12.03125 44.71875 
Q 8.5 49.078125 8.5 55.328125 
Q 8.5 64.0625 14.71875 69.140625 
Q 20.953125 74.21875 31.78125 74.21875 
Q 42.671875 74.21875 48.875 69.140625 
Q 55.078125 64.0625 55.078125 55.328125 
Q 55.078125 49.078125 51.53125 44.71875 
Q 48 40.375 41.703125 38.8125 
Q 48.828125 37.15625 52.796875 32.3125 
Q 56.78125 27.484375 56.78125 20.515625 
Q 56.78125 9.90625 50.3125 4.234375 
Q 43.84375 -1.421875 31.78125 -1.421875 
Q 19.734375 -1.421875 13.25 4.234375 
Q 6.78125 9.90625 6.78125 20.515625 
Q 6.78125 27.484375 10.78125 32.3125 
Q 14.796875 37.15625 21.921875 38.8125 
z
M 18.3125 54.390625 
Q 18.3125 48.734375 21.84375 45.5625 
Q 25.390625 42.390625 31.78125 42.390625 
Q 38.140625 42.390625 41.71875 45.5625 
Q 45.3125 48.734375 45.3125 54.390625 
Q 45.3125 60.0625 41.71875 63.234375 
Q 38.140625 66.40625 31.78125 66.40625 
Q 25.390625 66.40625 21.84375 63.234375 
Q 18.3125 60.0625 18.3125 54.390625 
z
" id="DejaVuSans-56"/>
      </defs>
      <g transform="translate(947.308125 366.679219)scale(0.1 -0.1)">
       <use xlink:href="#DejaVuSans-50"/>
       <use x="63.623047" xlink:href="#DejaVuSans-56"/>
       <use x="127.246094" xlink:href="#DejaVuSans-48"/>
      </g>
     </g>
    </g>
    <g id="ytick_9">
     <g id="line2d_20">
      <g>
       <use style="stroke:#000000;stroke-width:0.8;" x="940.308125" xlink:href="#m80b5b50183" y="287.28"/>
      </g>
     </g>
     <g id="text_19">
      <!-- 290 -->
      <defs>
       <path d="M 10.984375 1.515625 
L 10.984375 10.5 
Q 14.703125 8.734375 18.5 7.8125 
Q 22.3125 6.890625 25.984375 6.890625 
Q 35.75 6.890625 40.890625 13.453125 
Q 46.046875 20.015625 46.78125 33.40625 
Q 43.953125 29.203125 39.59375 26.953125 
Q 35.25 24.703125 29.984375 24.703125 
Q 19.046875 24.703125 12.671875 31.3125 
Q 6.296875 37.9375 6.296875 49.421875 
Q 6.296875 60.640625 12.9375 67.421875 
Q 19.578125 74.21875 30.609375 74.21875 
Q 43.265625 74.21875 49.921875 64.515625 
Q 56.59375 54.828125 56.59375 36.375 
Q 56.59375 19.140625 48.40625 8.859375 
Q 40.234375 -1.421875 26.421875 -1.421875 
Q 22.703125 -1.421875 18.890625 -0.6875 
Q 15.09375 0.046875 10.984375 1.515625 
z
M 30.609375 32.421875 
Q 37.25 32.421875 41.125 36.953125 
Q 45.015625 41.5 45.015625 49.421875 
Q 45.015625 57.28125 41.125 61.84375 
Q 37.25 66.40625 30.609375 66.40625 
Q 23.96875 66.40625 20.09375 61.84375 
Q 16.21875 57.28125 16.21875 49.421875 
Q 16.21875 41.5 20.09375 36.953125 
Q 23.96875 32.421875 30.609375 32.421875 
z
" id="DejaVuSans-57"/>
      </defs>
      <g transform="translate(947.308125 291.079219)scale(0.1 -0.1)">
       <use xlink:href="#DejaVuSans-50"/>
       <use x="63.623047" xlink:href="#DejaVuSans-57"/>
       <use x="127.246094" xlink:href="#DejaVuSans-48"/>
      </g>
     </g>
    </g>
    <g id="ytick_10">
     <g id="line2d_21">
      <g>
       <use style="stroke:#000000;stroke-width:0.8;" x="940.308125" xlink:href="#m80b5b50183" y="211.68"/>
      </g>
     </g>
     <g id="text_20">
      <!-- 300 -->
      <g transform="translate(947.308125 215.479219)scale(0.1 -0.1)">
       <use xlink:href="#DejaVuSans-51"/>
       <use x="63.623047" xlink:href="#DejaVuSans-48"/>
       <use x="127.246094" xlink:href="#DejaVuSans-48"/>
      </g>
     </g>
    </g>
    <g id="ytick_11">
     <g id="line2d_22">
      <g>
       <use style="stroke:#000000;stroke-width:0.8;" x="940.308125" xlink:href="#m80b5b50183" y="136.08"/>
      </g>
     </g>
     <g id="text_21">
      <!-- 310 -->
      <g transform="translate(947.308125 139.879219)scale(0.1 -0.1)">
       <use xlink:href="#DejaVuSans-51"/>
       <use x="63.623047" xlink:href="#DejaVuSans-49"/>
       <use x="127.246094" xlink:href="#DejaVuSans-48"/>
      </g>
     </g>
    </g>
    <g id="ytick_12">
     <g id="line2d_23">
      <g>
       <use style="stroke:#000000;stroke-width:0.8;" x="940.308125" xlink:href="#m80b5b50183" y="60.48"/>
      </g>
     </g>
     <g id="text_22">
      <!-- 320 -->
      <g transform="translate(947.308125 64.279219)scale(0.1 -0.1)">
       <use xlink:href="#DejaVuSans-51"/>
       <use x="63.623047" xlink:href="#DejaVuSans-50"/>
       <use x="127.246094" xlink:href="#DejaVuSans-48"/>
      </g>
     </g>
    </g>
    <g id="text_23">
     <!-- SmartWatch sensor value -->
     <defs>
      <path d="M 53.515625 70.515625 
L 53.515625 60.890625 
Q 47.90625 63.578125 42.921875 64.890625 
Q 37.9375 66.21875 33.296875 66.21875 
Q 25.25 66.21875 20.875 63.09375 
Q 16.5 59.96875 16.5 54.203125 
Q 16.5 49.359375 19.40625 46.890625 
Q 22.3125 44.4375 30.421875 42.921875 
L 36.375 41.703125 
Q 47.40625 39.59375 52.65625 34.296875 
Q 57.90625 29 57.90625 20.125 
Q 57.90625 9.515625 50.796875 4.046875 
Q 43.703125 -1.421875 29.984375 -1.421875 
Q 24.8125 -1.421875 18.96875 -0.25 
Q 13.140625 0.921875 6.890625 3.21875 
L 6.890625 13.375 
Q 12.890625 10.015625 18.65625 8.296875 
Q 24.421875 6.59375 29.984375 6.59375 
Q 38.421875 6.59375 43.015625 9.90625 
Q 47.609375 13.234375 47.609375 19.390625 
Q 47.609375 24.75 44.3125 27.78125 
Q 41.015625 30.8125 33.5 32.328125 
L 27.484375 33.5 
Q 16.453125 35.6875 11.515625 40.375 
Q 6.59375 45.0625 6.59375 53.421875 
Q 6.59375 63.09375 13.40625 68.65625 
Q 20.21875 74.21875 32.171875 74.21875 
Q 37.3125 74.21875 42.625 73.28125 
Q 47.953125 72.359375 53.515625 70.515625 
z
" id="DejaVuSans-83"/>
     </defs>
     <g transform="translate(984.072812 364.854375)rotate(-90)scale(0.18 -0.18)">
      <use xlink:href="#DejaVuSans-83"/>
      <use x="63.476562" xlink:href="#DejaVuSans-109"/>
      <use x="160.888672" xlink:href="#DejaVuSans-97"/>
      <use x="222.167969" xlink:href="#DejaVuSans-114"/>
      <use x="263.28125" xlink:href="#DejaVuSans-116"/>
      <use x="302.490234" xlink:href="#DejaVuSans-87"/>
      <use x="394.992188" xlink:href="#DejaVuSans-97"/>
      <use x="456.271484" xlink:href="#DejaVuSans-116"/>
      <use x="495.480469" xlink:href="#DejaVuSans-99"/>
      <use x="550.460938" xlink:href="#DejaVuSans-104"/>
      <use x="613.839844" xlink:href="#DejaVuSans-32"/>
      <use x="645.626953" xlink:href="#DejaVuSans-115"/>
      <use x="697.726562" xlink:href="#DejaVuSans-101"/>
      <use x="759.25" xlink:href="#DejaVuSans-110"/>
      <use x="822.628906" xlink:href="#DejaVuSans-115"/>
      <use x="874.728516" xlink:href="#DejaVuSans-111"/>
      <use x="935.910156" xlink:href="#DejaVuSans-114"/>
      <use x="977.023438" xlink:href="#DejaVuSans-32"/>
      <use x="1008.810547" xlink:href="#DejaVuSans-118"/>
      <use x="1067.990234" xlink:href="#DejaVuSans-97"/>
      <use x="1129.269531" xlink:href="#DejaVuSans-108"/>
      <use x="1157.052734" xlink:href="#DejaVuSans-117"/>
      <use x="1220.431641" xlink:href="#DejaVuSans-101"/>
     </g>
    </g>
   </g>
   <g id="line2d_24">
    <path clip-path="url(#p3c32fe4080)" d="M 92.707459 264.6 
L 93.195569 264.6 
L 93.520975 189 
L 100.679915 249.48 
L 101.005322 128.52 
L 101.330728 279.72 
L 101.493431 249.48 
L 108.652371 249.48 
L 109.303184 264.6 
L 109.62859 400.68 
L 116.136718 309.96 
L 116.462124 264.6 
L 116.78753 249.48 
L 124.271877 294.84 
L 124.759986 204.12 
L 124.92269 234.36 
L 125.085393 234.36 
L 131.59352 249.48 
L 131.918926 219.24 
L 132.08163 219.24 
L 140.867601 204.12 
L 141.518414 264.6 
L 141.843821 249.48 
L 148.026541 249.48 
L 148.351948 234.36 
L 148.514651 249.48 
L 156.975216 234.36 
L 157.300623 249.48 
L 157.626029 189 
L 163.80875 264.6 
L 164.29686 264.6 
L 164.459563 204.12 
L 172.594722 264.6 
L 173.245535 249.48 
L 173.733644 249.48 
L 179.753662 173.88 
L 180.079068 249.48 
L 180.404475 279.72 
L 188.376931 264.6 
L 189.027743 219.24 
L 189.190447 249.48 
L 195.698574 219.24 
L 196.186683 264.6 
L 196.51209 249.48 
L 196.674793 249.48 
L 204.159139 279.72 
L 204.647249 249.48 
L 204.972655 264.6 
L 211.318079 249.48 
L 211.643486 264.6 
L 211.968892 234.36 
L 220.104051 249.48 
L 220.592161 204.12 
L 221.08027 355.32 
L 227.588398 279.72 
L 227.913804 294.84 
L 228.23921 249.48 
L 236.048963 234.36 
L 236.537073 22.68 
L 236.862479 98.28 
L 243.370606 234.36 
L 243.858716 234.36 
L 244.184122 249.48 
L 244.346825 219.24 
L 251.668468 249.48 
L 252.481984 249.48 
L 259.152815 234.36 
L 259.640924 279.72 
L 259.966331 264.6 
L 267.61338 234.36 
L 268.10149 279.72 
L 268.426896 249.48 
L 268.752303 204.12 
L 274.77232 234.36 
L 275.26043 219.24 
L 275.585836 249.48 
L 286.649653 279.72 
L 287.137762 294.84 
L 287.463169 249.48 
L 290.717232 234.36 
L 291.042639 264.6 
L 291.368045 249.48 
L 291.693451 249.48 
L 298.852391 158.76 
L 299.177798 249.48 
L 299.665907 279.72 
L 306.336738 249.48 
L 306.662144 234.36 
L 306.824847 234.36 
L 314.6346 249.48 
L 315.12271 234.36 
L 315.285413 158.76 
L 315.610819 249.48 
L 322.28165 264.6 
L 322.769759 264.6 
L 322.932462 234.36 
L 330.742215 249.48 
L 331.067621 234.36 
L 331.393028 476.28 
L 339.365484 294.84 
L 339.69089 294.84 
L 340.016296 279.72 
L 347.663346 279.72 
L 354.659583 98.28 
L 355.473099 204.12 
L 362.632039 264.6 
L 363.120148 264.6 
L 363.445555 234.36 
L 370.604495 219.24 
L 371.092604 234.36 
L 371.418011 219.24 
L 378.739654 143.64 
L 379.227763 279.72 
L 386.71211 279.72 
L 387.200219 264.6 
L 387.525626 264.6 
L 387.851032 234.36 
L 393.708346 219.24 
L 394.196456 234.36 
L 394.521862 264.6 
L 402.331615 249.48 
L 402.819725 279.72 
L 402.982428 249.48 
L 411.28029 249.48 
L 411.442993 219.24 
L 418.43923 234.36 
L 418.92734 249.48 
L 419.252746 234.36 
L 426.411686 249.48 
L 426.899796 279.72 
L 427.225202 234.36 
L 434.384142 264.6 
L 434.872252 234.36 
L 435.197658 128.52 
L 435.523064 264.6 
L 441.705785 234.36 
L 442.031192 264.6 
L 450.817163 264.6 
L 451.467976 249.48 
L 451.630679 476.28 
L 457.650697 279.72 
L 458.138807 294.84 
L 458.789619 264.6 
L 466.924778 249.48 
L 467.412888 279.72 
L 467.738294 98.28 
L 473.758312 204.12 
L 474.246422 219.24 
L 474.571828 264.6 
L 482.218878 264.6 
L 482.706987 219.24 
L 483.032393 249.48 
L 483.3578 234.36 
L 489.865927 249.48 
L 490.354037 219.24 
L 490.51674 234.36 
L 498.001086 234.36 
L 498.489196 264.6 
L 498.651899 294.84 
L 505.648136 264.6 
L 506.136245 279.72 
L 506.461652 249.48 
L 506.787058 264.6 
L 514.434108 249.48 
L 514.922217 143.64 
L 515.08492 249.48 
L 521.104938 264.6 
L 521.593048 279.72 
L 522.081157 249.48 
L 530.37902 264.6 
L 530.867129 249.48 
L 531.192535 249.48 
L 531.355239 234.36 
L 537.04985 264.6 
L 537.53796 294.84 
L 537.700663 294.84 
L 546.974744 279.72 
L 547.462854 249.48 
L 547.78826 264.6 
L 552.506652 249.48 
L 552.832059 249.48 
L 553.320168 294.84 
L 561.292624 279.72 
L 561.780734 264.6 
L 562.10614 264.6 
L 568.77697 234.36 
L 569.102377 249.48 
L 569.427783 249.48 
L 576.586723 204.12 
L 577.400239 325.08 
L 577.725646 294.84 
L 584.233773 309.96 
L 585.047289 264.6 
L 592.694338 52.92 
L 593.182448 128.52 
L 593.507854 264.6 
L 600.178685 234.36 
L 600.829497 249.48 
L 600.992201 279.72 
L 601.154904 264.6 
L 608.63925 249.48 
L 609.12736 234.36 
L 609.290063 234.36 
L 615.960893 279.72 
L 616.449003 264.6 
L 616.774409 279.72 
L 624.421459 249.48 
L 624.909568 279.72 
L 625.072272 249.48 
L 625.397678 234.36 
L 632.231212 249.48 
L 632.719321 249.48 
L 633.044727 264.6 
L 640.366371 294.84 
L 640.85448 249.48 
L 641.179887 264.6 
L 648.01342 279.72 
L 648.826936 234.36 
L 648.989639 158.76 
L 656.311282 264.6 
L 656.799392 264.6 
L 656.962095 279.72 
L 665.748067 279.72 
L 666.073473 264.6 
L 672.744304 279.72 
L 673.232413 204.12 
L 673.55782 264.6 
L 673.720523 264.6 
L 680.22865 249.48 
L 680.71676 279.72 
L 680.879463 264.6 
L 688.526513 264.6 
L 689.014622 279.72 
L 689.177325 234.36 
L 695.685453 264.6 
L 696.336265 279.72 
L 696.498968 385.56 
L 696.824375 309.96 
L 703.820612 264.6 
L 704.308721 294.84 
L 704.634128 83.16 
L 712.118474 189 
L 712.606584 264.6 
L 712.93199 249.48 
L 720.253633 249.48 
L 720.416336 264.6 
L 720.741743 249.48 
L 728.876902 249.48 
L 729.202308 143.64 
L 735.385029 279.72 
L 735.873139 249.48 
L 736.198545 264.6 
L 744.333704 279.72 
L 744.821814 279.72 
L 745.472626 249.48 
L 751.980754 249.48 
L 752.468863 279.72 
L 752.79427 279.72 
L 760.441319 249.48 
L 760.929429 264.6 
L 761.254835 264.6 
L 767.762962 249.48 
L 768.251072 249.48 
L 768.901885 279.72 
L 776.548934 249.48 
L 777.037044 249.48 
L 777.36245 264.6 
L 784.684093 264.6 
L 791.517627 219.24 
L 792.331143 294.84 
L 792.493846 294.84 
L 799.164676 264.6 
L 799.652786 279.72 
L 799.815489 264.6 
L 807.950648 264.6 
L 808.438758 249.48 
L 808.926867 143.64 
L 815.434995 264.6 
L 816.085807 264.6 
L 816.248511 309.96 
L 816.411214 264.6 
L 823.89556 415.8 
L 824.38367 340.2 
L 824.709076 264.6 
L 831.217203 264.6 
L 831.705313 294.84 
L 831.868016 219.24 
L 839.840472 249.48 
L 840.328582 264.6 
L 840.653988 264.6 
L 840.979394 234.36 
L 846.674006 249.48 
L 847.162115 249.48 
L 847.487522 279.72 
L 855.134571 279.72 
L 855.622681 264.6 
L 856.11079 279.72 
L 862.781621 234.36 
L 863.26973 279.72 
L 863.595137 234.36 
L 863.75784 264.6 
L 870.91678 189 
L 871.404889 264.6 
L 871.730296 279.72 
L 879.051939 279.72 
L 879.540048 234.36 
L 879.865455 264.6 
L 887.512504 279.72 
L 888.81413 204.12 
L 889.139536 279.72 
L 894.834148 294.84 
L 895.48496 279.72 
L 895.810367 294.84 
L 895.810367 294.84 
" style="fill:none;stroke:#0000ff;stroke-dasharray:5.55,2.4;stroke-dashoffset:0;stroke-width:1.5;"/>
   </g>
   <g id="patch_8">
    <path d="M 47.508125 498.96 
L 47.508125 0 
" style="fill:none;stroke:#000000;stroke-linecap:square;stroke-linejoin:miter;stroke-width:0.8;"/>
   </g>
   <g id="patch_9">
    <path d="M 940.308125 498.96 
L 940.308125 0 
" style="fill:none;stroke:#000000;stroke-linecap:square;stroke-linejoin:miter;stroke-width:0.8;"/>
   </g>
   <g id="patch_10">
    <path d="M 47.508125 498.96 
L 940.308125 498.96 
" style="fill:none;stroke:#000000;stroke-linecap:square;stroke-linejoin:miter;stroke-width:0.8;"/>
   </g>
   <g id="patch_11">
    <path d="M 47.508125 0 
L 940.308125 0 
" style="fill:none;stroke:#000000;stroke-linecap:square;stroke-linejoin:miter;stroke-width:0.8;"/>
   </g>
  </g>
 </g>
 <defs>
  <clipPath id="p3c32fe4080">
   <rect height="498.96" width="892.8" x="47.508125" y="0"/>
  </clipPath>
 </defs>
</svg>
