<?xml version="1.0" encoding="utf-8" standalone="no"?>
<!DOCTYPE svg PUBLIC "-//W3C//DTD SVG 1.1//EN"
  "http://www.w3.org/Graphics/SVG/1.1/DTD/svg11.dtd">
<!-- Created with matplotlib (https://matplotlib.org/) -->
<svg height="544.80125pt" version="1.1" viewBox="0 0 955.578125 544.80125" width="955.578125pt" xmlns="http://www.w3.org/2000/svg" xmlns:xlink="http://www.w3.org/1999/xlink">
 <defs>
  <style type="text/css">
*{stroke-linecap:butt;stroke-linejoin:round;}
  </style>
 </defs>
 <g id="figure_1">
  <g id="patch_1">
   <path d="M 0 544.80125 
L 955.578125 544.80125 
L 955.578125 0 
L 0 0 
z
" style="fill:#ffffff;"/>
  </g>
  <g id="axes_1">
   <g id="patch_2">
    <path d="M 62.778125 498.96 
L 955.578125 498.96 
L 955.578125 0 
L 62.778125 0 
z
" style="fill:#ffffff;"/>
   </g>
   <g id="matplotlib.axis_1">
    <g id="xtick_1">
     <g id="line2d_1">
      <defs>
       <path d="M 0 0 
L 0 3.5 
" id="ma358a21739" style="stroke:#000000;stroke-width:0.8;"/>
      </defs>
      <g>
       <use style="stroke:#000000;stroke-width:0.8;" x="103.359943" xlink:href="#ma358a21739" y="498.96"/>
      </g>
     </g>
     <g id="text_1">
      <!-- 0 -->
      <defs>
       <path d="M 31.78125 66.40625 
Q 24.171875 66.40625 20.328125 58.90625 
Q 16.5 51.421875 16.5 36.375 
Q 16.5 21.390625 20.328125 13.890625 
Q 24.171875 6.390625 31.78125 6.390625 
Q 39.453125 6.390625 43.28125 13.890625 
Q 47.125 21.390625 47.125 36.375 
Q 47.125 51.421875 43.28125 58.90625 
Q 39.453125 66.40625 31.78125 66.40625 
z
M 31.78125 74.21875 
Q 44.046875 74.21875 50.515625 64.515625 
Q 56.984375 54.828125 56.984375 36.375 
Q 56.984375 17.96875 50.515625 8.265625 
Q 44.046875 -1.421875 31.78125 -1.421875 
Q 19.53125 -1.421875 13.0625 8.265625 
Q 6.59375 17.96875 6.59375 36.375 
Q 6.59375 54.828125 13.0625 64.515625 
Q 19.53125 74.21875 31.78125 74.21875 
z
" id="DejaVuSans-48"/>
      </defs>
      <g transform="translate(97.633693 519.637187)scale(0.18 -0.18)">
       <use xlink:href="#DejaVuSans-48"/>
      </g>
     </g>
    </g>
    <g id="xtick_2">
     <g id="line2d_2">
      <g>
       <use style="stroke:#000000;stroke-width:0.8;" x="265.816922" xlink:href="#ma358a21739" y="498.96"/>
      </g>
     </g>
     <g id="text_2">
      <!-- 1000 -->
      <defs>
       <path d="M 12.40625 8.296875 
L 28.515625 8.296875 
L 28.515625 63.921875 
L 10.984375 60.40625 
L 10.984375 69.390625 
L 28.421875 72.90625 
L 38.28125 72.90625 
L 38.28125 8.296875 
L 54.390625 8.296875 
L 54.390625 0 
L 12.40625 0 
z
" id="DejaVuSans-49"/>
      </defs>
      <g transform="translate(242.911922 519.637187)scale(0.18 -0.18)">
       <use xlink:href="#DejaVuSans-49"/>
       <use x="63.623047" xlink:href="#DejaVuSans-48"/>
       <use x="127.246094" xlink:href="#DejaVuSans-48"/>
       <use x="190.869141" xlink:href="#DejaVuSans-48"/>
      </g>
     </g>
    </g>
    <g id="xtick_3">
     <g id="line2d_3">
      <g>
       <use style="stroke:#000000;stroke-width:0.8;" x="428.2739" xlink:href="#ma358a21739" y="498.96"/>
      </g>
     </g>
     <g id="text_3">
      <!-- 2000 -->
      <defs>
       <path d="M 19.1875 8.296875 
L 53.609375 8.296875 
L 53.609375 0 
L 7.328125 0 
L 7.328125 8.296875 
Q 12.9375 14.109375 22.625 23.890625 
Q 32.328125 33.6875 34.8125 36.53125 
Q 39.546875 41.84375 41.421875 45.53125 
Q 43.3125 49.21875 43.3125 52.78125 
Q 43.3125 58.59375 39.234375 62.25 
Q 35.15625 65.921875 28.609375 65.921875 
Q 23.96875 65.921875 18.8125 64.3125 
Q 13.671875 62.703125 7.8125 59.421875 
L 7.8125 69.390625 
Q 13.765625 71.78125 18.9375 73 
Q 24.125 74.21875 28.421875 74.21875 
Q 39.75 74.21875 46.484375 68.546875 
Q 53.21875 62.890625 53.21875 53.421875 
Q 53.21875 48.921875 51.53125 44.890625 
Q 49.859375 40.875 45.40625 35.40625 
Q 44.1875 33.984375 37.640625 27.21875 
Q 31.109375 20.453125 19.1875 8.296875 
z
" id="DejaVuSans-50"/>
      </defs>
      <g transform="translate(405.3689 519.637187)scale(0.18 -0.18)">
       <use xlink:href="#DejaVuSans-50"/>
       <use x="63.623047" xlink:href="#DejaVuSans-48"/>
       <use x="127.246094" xlink:href="#DejaVuSans-48"/>
       <use x="190.869141" xlink:href="#DejaVuSans-48"/>
      </g>
     </g>
    </g>
    <g id="xtick_4">
     <g id="line2d_4">
      <g>
       <use style="stroke:#000000;stroke-width:0.8;" x="590.730878" xlink:href="#ma358a21739" y="498.96"/>
      </g>
     </g>
     <g id="text_4">
      <!-- 3000 -->
      <defs>
       <path d="M 40.578125 39.3125 
Q 47.65625 37.796875 51.625 33 
Q 55.609375 28.21875 55.609375 21.1875 
Q 55.609375 10.40625 48.1875 4.484375 
Q 40.765625 -1.421875 27.09375 -1.421875 
Q 22.515625 -1.421875 17.65625 -0.515625 
Q 12.796875 0.390625 7.625 2.203125 
L 7.625 11.71875 
Q 11.71875 9.328125 16.59375 8.109375 
Q 21.484375 6.890625 26.8125 6.890625 
Q 36.078125 6.890625 40.9375 10.546875 
Q 45.796875 14.203125 45.796875 21.1875 
Q 45.796875 27.640625 41.28125 31.265625 
Q 36.765625 34.90625 28.71875 34.90625 
L 20.21875 34.90625 
L 20.21875 43.015625 
L 29.109375 43.015625 
Q 36.375 43.015625 40.234375 45.921875 
Q 44.09375 48.828125 44.09375 54.296875 
Q 44.09375 59.90625 40.109375 62.90625 
Q 36.140625 65.921875 28.71875 65.921875 
Q 24.65625 65.921875 20.015625 65.03125 
Q 15.375 64.15625 9.8125 62.3125 
L 9.8125 71.09375 
Q 15.4375 72.65625 20.34375 73.4375 
Q 25.25 74.21875 29.59375 74.21875 
Q 40.828125 74.21875 47.359375 69.109375 
Q 53.90625 64.015625 53.90625 55.328125 
Q 53.90625 49.265625 50.4375 45.09375 
Q 46.96875 40.921875 40.578125 39.3125 
z
" id="DejaVuSans-51"/>
      </defs>
      <g transform="translate(567.825878 519.637187)scale(0.18 -0.18)">
       <use xlink:href="#DejaVuSans-51"/>
       <use x="63.623047" xlink:href="#DejaVuSans-48"/>
       <use x="127.246094" xlink:href="#DejaVuSans-48"/>
       <use x="190.869141" xlink:href="#DejaVuSans-48"/>
      </g>
     </g>
    </g>
    <g id="xtick_5">
     <g id="line2d_5">
      <g>
       <use style="stroke:#000000;stroke-width:0.8;" x="753.187857" xlink:href="#ma358a21739" y="498.96"/>
      </g>
     </g>
     <g id="text_5">
      <!-- 4000 -->
      <defs>
       <path d="M 37.796875 64.3125 
L 12.890625 25.390625 
L 37.796875 25.390625 
z
M 35.203125 72.90625 
L 47.609375 72.90625 
L 47.609375 25.390625 
L 58.015625 25.390625 
L 58.015625 17.1875 
L 47.609375 17.1875 
L 47.609375 0 
L 37.796875 0 
L 37.796875 17.1875 
L 4.890625 17.1875 
L 4.890625 26.703125 
z
" id="DejaVuSans-52"/>
      </defs>
      <g transform="translate(730.282857 519.637187)scale(0.18 -0.18)">
       <use xlink:href="#DejaVuSans-52"/>
       <use x="63.623047" xlink:href="#DejaVuSans-48"/>
       <use x="127.246094" xlink:href="#DejaVuSans-48"/>
       <use x="190.869141" xlink:href="#DejaVuSans-48"/>
      </g>
     </g>
    </g>
    <g id="xtick_6">
     <g id="line2d_6">
      <g>
       <use style="stroke:#000000;stroke-width:0.8;" x="915.644835" xlink:href="#ma358a21739" y="498.96"/>
      </g>
     </g>
     <g id="text_6">
      <!-- 5000 -->
      <defs>
       <path d="M 10.796875 72.90625 
L 49.515625 72.90625 
L 49.515625 64.59375 
L 19.828125 64.59375 
L 19.828125 46.734375 
Q 21.96875 47.46875 24.109375 47.828125 
Q 26.265625 48.1875 28.421875 48.1875 
Q 40.625 48.1875 47.75 41.5 
Q 54.890625 34.8125 54.890625 23.390625 
Q 54.890625 11.625 47.5625 5.09375 
Q 40.234375 -1.421875 26.90625 -1.421875 
Q 22.3125 -1.421875 17.546875 -0.640625 
Q 12.796875 0.140625 7.71875 1.703125 
L 7.71875 11.625 
Q 12.109375 9.234375 16.796875 8.0625 
Q 21.484375 6.890625 26.703125 6.890625 
Q 35.15625 6.890625 40.078125 11.328125 
Q 45.015625 15.765625 45.015625 23.390625 
Q 45.015625 31 40.078125 35.4375 
Q 35.15625 39.890625 26.703125 39.890625 
Q 22.75 39.890625 18.8125 39.015625 
Q 14.890625 38.140625 10.796875 36.28125 
z
" id="DejaVuSans-53"/>
      </defs>
      <g transform="translate(892.739835 519.637187)scale(0.18 -0.18)">
       <use xlink:href="#DejaVuSans-53"/>
       <use x="63.623047" xlink:href="#DejaVuSans-48"/>
       <use x="127.246094" xlink:href="#DejaVuSans-48"/>
       <use x="190.869141" xlink:href="#DejaVuSans-48"/>
      </g>
     </g>
    </g>
    <g id="text_7">
     <!-- Time [ms] -->
     <defs>
      <path d="M -0.296875 72.90625 
L 61.375 72.90625 
L 61.375 64.59375 
L 35.5 64.59375 
L 35.5 0 
L 25.59375 0 
L 25.59375 64.59375 
L -0.296875 64.59375 
z
" id="DejaVuSans-84"/>
      <path d="M 9.421875 54.6875 
L 18.40625 54.6875 
L 18.40625 0 
L 9.421875 0 
z
M 9.421875 75.984375 
L 18.40625 75.984375 
L 18.40625 64.59375 
L 9.421875 64.59375 
z
" id="DejaVuSans-105"/>
      <path d="M 52 44.1875 
Q 55.375 50.25 60.0625 53.125 
Q 64.75 56 71.09375 56 
Q 79.640625 56 84.28125 50.015625 
Q 88.921875 44.046875 88.921875 33.015625 
L 88.921875 0 
L 79.890625 0 
L 79.890625 32.71875 
Q 79.890625 40.578125 77.09375 44.375 
Q 74.3125 48.1875 68.609375 48.1875 
Q 61.625 48.1875 57.5625 43.546875 
Q 53.515625 38.921875 53.515625 30.90625 
L 53.515625 0 
L 44.484375 0 
L 44.484375 32.71875 
Q 44.484375 40.625 41.703125 44.40625 
Q 38.921875 48.1875 33.109375 48.1875 
Q 26.21875 48.1875 22.15625 43.53125 
Q 18.109375 38.875 18.109375 30.90625 
L 18.109375 0 
L 9.078125 0 
L 9.078125 54.6875 
L 18.109375 54.6875 
L 18.109375 46.1875 
Q 21.1875 51.21875 25.484375 53.609375 
Q 29.78125 56 35.6875 56 
Q 41.65625 56 45.828125 52.96875 
Q 50 49.953125 52 44.1875 
z
" id="DejaVuSans-109"/>
      <path d="M 56.203125 29.59375 
L 56.203125 25.203125 
L 14.890625 25.203125 
Q 15.484375 15.921875 20.484375 11.0625 
Q 25.484375 6.203125 34.421875 6.203125 
Q 39.59375 6.203125 44.453125 7.46875 
Q 49.3125 8.734375 54.109375 11.28125 
L 54.109375 2.78125 
Q 49.265625 0.734375 44.1875 -0.34375 
Q 39.109375 -1.421875 33.890625 -1.421875 
Q 20.796875 -1.421875 13.15625 6.1875 
Q 5.515625 13.8125 5.515625 26.8125 
Q 5.515625 40.234375 12.765625 48.109375 
Q 20.015625 56 32.328125 56 
Q 43.359375 56 49.78125 48.890625 
Q 56.203125 41.796875 56.203125 29.59375 
z
M 47.21875 32.234375 
Q 47.125 39.59375 43.09375 43.984375 
Q 39.0625 48.390625 32.421875 48.390625 
Q 24.90625 48.390625 20.390625 44.140625 
Q 15.875 39.890625 15.1875 32.171875 
z
" id="DejaVuSans-101"/>
      <path id="DejaVuSans-32"/>
      <path d="M 8.59375 75.984375 
L 29.296875 75.984375 
L 29.296875 69 
L 17.578125 69 
L 17.578125 -6.203125 
L 29.296875 -6.203125 
L 29.296875 -13.1875 
L 8.59375 -13.1875 
z
" id="DejaVuSans-91"/>
      <path d="M 44.28125 53.078125 
L 44.28125 44.578125 
Q 40.484375 46.53125 36.375 47.5 
Q 32.28125 48.484375 27.875 48.484375 
Q 21.1875 48.484375 17.84375 46.4375 
Q 14.5 44.390625 14.5 40.28125 
Q 14.5 37.15625 16.890625 35.375 
Q 19.28125 33.59375 26.515625 31.984375 
L 29.59375 31.296875 
Q 39.15625 29.25 43.1875 25.515625 
Q 47.21875 21.78125 47.21875 15.09375 
Q 47.21875 7.46875 41.1875 3.015625 
Q 35.15625 -1.421875 24.609375 -1.421875 
Q 20.21875 -1.421875 15.453125 -0.5625 
Q 10.6875 0.296875 5.421875 2 
L 5.421875 11.28125 
Q 10.40625 8.6875 15.234375 7.390625 
Q 20.0625 6.109375 24.8125 6.109375 
Q 31.15625 6.109375 34.5625 8.28125 
Q 37.984375 10.453125 37.984375 14.40625 
Q 37.984375 18.0625 35.515625 20.015625 
Q 33.0625 21.96875 24.703125 23.78125 
L 21.578125 24.515625 
Q 13.234375 26.265625 9.515625 29.90625 
Q 5.8125 33.546875 5.8125 39.890625 
Q 5.8125 47.609375 11.28125 51.796875 
Q 16.75 56 26.8125 56 
Q 31.78125 56 36.171875 55.265625 
Q 40.578125 54.546875 44.28125 53.078125 
z
" id="DejaVuSans-115"/>
      <path d="M 30.421875 75.984375 
L 30.421875 -13.1875 
L 9.71875 -13.1875 
L 9.71875 -6.203125 
L 21.390625 -6.203125 
L 21.390625 69 
L 9.71875 69 
L 9.71875 75.984375 
z
" id="DejaVuSans-93"/>
     </defs>
     <g transform="translate(463.819531 541.057812)scale(0.18 -0.18)">
      <use xlink:href="#DejaVuSans-84"/>
      <use x="57.958984" xlink:href="#DejaVuSans-105"/>
      <use x="85.742188" xlink:href="#DejaVuSans-109"/>
      <use x="183.154297" xlink:href="#DejaVuSans-101"/>
      <use x="244.677734" xlink:href="#DejaVuSans-32"/>
      <use x="276.464844" xlink:href="#DejaVuSans-91"/>
      <use x="315.478516" xlink:href="#DejaVuSans-109"/>
      <use x="412.890625" xlink:href="#DejaVuSans-115"/>
      <use x="464.990234" xlink:href="#DejaVuSans-93"/>
     </g>
    </g>
   </g>
   <g id="matplotlib.axis_2">
    <g id="ytick_1">
     <g id="line2d_7">
      <defs>
       <path d="M 0 0 
L -3.5 0 
" id="md28fbef3b3" style="stroke:#000000;stroke-width:0.8;"/>
      </defs>
      <g>
       <use style="stroke:#000000;stroke-width:0.8;" x="62.778125" xlink:href="#md28fbef3b3" y="477.394496"/>
      </g>
     </g>
     <g id="text_8">
      <!-- 350 -->
      <g transform="translate(21.420625 484.23309)scale(0.18 -0.18)">
       <use xlink:href="#DejaVuSans-51"/>
       <use x="63.623047" xlink:href="#DejaVuSans-53"/>
       <use x="127.246094" xlink:href="#DejaVuSans-48"/>
      </g>
     </g>
    </g>
    <g id="ytick_2">
     <g id="line2d_8">
      <g>
       <use style="stroke:#000000;stroke-width:0.8;" x="62.778125" xlink:href="#md28fbef3b3" y="421.669681"/>
      </g>
     </g>
     <g id="text_9">
      <!-- 400 -->
      <g transform="translate(21.420625 428.508274)scale(0.18 -0.18)">
       <use xlink:href="#DejaVuSans-52"/>
       <use x="63.623047" xlink:href="#DejaVuSans-48"/>
       <use x="127.246094" xlink:href="#DejaVuSans-48"/>
      </g>
     </g>
    </g>
    <g id="ytick_3">
     <g id="line2d_9">
      <g>
       <use style="stroke:#000000;stroke-width:0.8;" x="62.778125" xlink:href="#md28fbef3b3" y="365.944865"/>
      </g>
     </g>
     <g id="text_10">
      <!-- 450 -->
      <g transform="translate(21.420625 372.783459)scale(0.18 -0.18)">
       <use xlink:href="#DejaVuSans-52"/>
       <use x="63.623047" xlink:href="#DejaVuSans-53"/>
       <use x="127.246094" xlink:href="#DejaVuSans-48"/>
      </g>
     </g>
    </g>
    <g id="ytick_4">
     <g id="line2d_10">
      <g>
       <use style="stroke:#000000;stroke-width:0.8;" x="62.778125" xlink:href="#md28fbef3b3" y="310.220049"/>
      </g>
     </g>
     <g id="text_11">
      <!-- 500 -->
      <g transform="translate(21.420625 317.058643)scale(0.18 -0.18)">
       <use xlink:href="#DejaVuSans-53"/>
       <use x="63.623047" xlink:href="#DejaVuSans-48"/>
       <use x="127.246094" xlink:href="#DejaVuSans-48"/>
      </g>
     </g>
    </g>
    <g id="ytick_5">
     <g id="line2d_11">
      <g>
       <use style="stroke:#000000;stroke-width:0.8;" x="62.778125" xlink:href="#md28fbef3b3" y="254.495233"/>
      </g>
     </g>
     <g id="text_12">
      <!-- 550 -->
      <g transform="translate(21.420625 261.333827)scale(0.18 -0.18)">
       <use xlink:href="#DejaVuSans-53"/>
       <use x="63.623047" xlink:href="#DejaVuSans-53"/>
       <use x="127.246094" xlink:href="#DejaVuSans-48"/>
      </g>
     </g>
    </g>
    <g id="ytick_6">
     <g id="line2d_12">
      <g>
       <use style="stroke:#000000;stroke-width:0.8;" x="62.778125" xlink:href="#md28fbef3b3" y="198.770418"/>
      </g>
     </g>
     <g id="text_13">
      <!-- 600 -->
      <defs>
       <path d="M 33.015625 40.375 
Q 26.375 40.375 22.484375 35.828125 
Q 18.609375 31.296875 18.609375 23.390625 
Q 18.609375 15.53125 22.484375 10.953125 
Q 26.375 6.390625 33.015625 6.390625 
Q 39.65625 6.390625 43.53125 10.953125 
Q 47.40625 15.53125 47.40625 23.390625 
Q 47.40625 31.296875 43.53125 35.828125 
Q 39.65625 40.375 33.015625 40.375 
z
M 52.59375 71.296875 
L 52.59375 62.3125 
Q 48.875 64.0625 45.09375 64.984375 
Q 41.3125 65.921875 37.59375 65.921875 
Q 27.828125 65.921875 22.671875 59.328125 
Q 17.53125 52.734375 16.796875 39.40625 
Q 19.671875 43.65625 24.015625 45.921875 
Q 28.375 48.1875 33.59375 48.1875 
Q 44.578125 48.1875 50.953125 41.515625 
Q 57.328125 34.859375 57.328125 23.390625 
Q 57.328125 12.15625 50.6875 5.359375 
Q 44.046875 -1.421875 33.015625 -1.421875 
Q 20.359375 -1.421875 13.671875 8.265625 
Q 6.984375 17.96875 6.984375 36.375 
Q 6.984375 53.65625 15.1875 63.9375 
Q 23.390625 74.21875 37.203125 74.21875 
Q 40.921875 74.21875 44.703125 73.484375 
Q 48.484375 72.75 52.59375 71.296875 
z
" id="DejaVuSans-54"/>
      </defs>
      <g transform="translate(21.420625 205.609011)scale(0.18 -0.18)">
       <use xlink:href="#DejaVuSans-54"/>
       <use x="63.623047" xlink:href="#DejaVuSans-48"/>
       <use x="127.246094" xlink:href="#DejaVuSans-48"/>
      </g>
     </g>
    </g>
    <g id="ytick_7">
     <g id="line2d_13">
      <g>
       <use style="stroke:#000000;stroke-width:0.8;" x="62.778125" xlink:href="#md28fbef3b3" y="143.045602"/>
      </g>
     </g>
     <g id="text_14">
      <!-- 650 -->
      <g transform="translate(21.420625 149.884196)scale(0.18 -0.18)">
       <use xlink:href="#DejaVuSans-54"/>
       <use x="63.623047" xlink:href="#DejaVuSans-53"/>
       <use x="127.246094" xlink:href="#DejaVuSans-48"/>
      </g>
     </g>
    </g>
    <g id="ytick_8">
     <g id="line2d_14">
      <g>
       <use style="stroke:#000000;stroke-width:0.8;" x="62.778125" xlink:href="#md28fbef3b3" y="87.320786"/>
      </g>
     </g>
     <g id="text_15">
      <!-- 700 -->
      <defs>
       <path d="M 8.203125 72.90625 
L 55.078125 72.90625 
L 55.078125 68.703125 
L 28.609375 0 
L 18.3125 0 
L 43.21875 64.59375 
L 8.203125 64.59375 
z
" id="DejaVuSans-55"/>
      </defs>
      <g transform="translate(21.420625 94.15938)scale(0.18 -0.18)">
       <use xlink:href="#DejaVuSans-55"/>
       <use x="63.623047" xlink:href="#DejaVuSans-48"/>
       <use x="127.246094" xlink:href="#DejaVuSans-48"/>
      </g>
     </g>
    </g>
    <g id="ytick_9">
     <g id="line2d_15">
      <g>
       <use style="stroke:#000000;stroke-width:0.8;" x="62.778125" xlink:href="#md28fbef3b3" y="31.595971"/>
      </g>
     </g>
     <g id="text_16">
      <!-- 750 -->
      <g transform="translate(21.420625 38.434564)scale(0.18 -0.18)">
       <use xlink:href="#DejaVuSans-55"/>
       <use x="63.623047" xlink:href="#DejaVuSans-53"/>
       <use x="127.246094" xlink:href="#DejaVuSans-48"/>
      </g>
     </g>
    </g>
    <g id="text_17">
     <!-- Pulse sensor value -->
     <defs>
      <path d="M 19.671875 64.796875 
L 19.671875 37.40625 
L 32.078125 37.40625 
Q 38.96875 37.40625 42.71875 40.96875 
Q 46.484375 44.53125 46.484375 51.125 
Q 46.484375 57.671875 42.71875 61.234375 
Q 38.96875 64.796875 32.078125 64.796875 
z
M 9.8125 72.90625 
L 32.078125 72.90625 
Q 44.34375 72.90625 50.609375 67.359375 
Q 56.890625 61.8125 56.890625 51.125 
Q 56.890625 40.328125 50.609375 34.8125 
Q 44.34375 29.296875 32.078125 29.296875 
L 19.671875 29.296875 
L 19.671875 0 
L 9.8125 0 
z
" id="DejaVuSans-80"/>
      <path d="M 8.5 21.578125 
L 8.5 54.6875 
L 17.484375 54.6875 
L 17.484375 21.921875 
Q 17.484375 14.15625 20.5 10.265625 
Q 23.53125 6.390625 29.59375 6.390625 
Q 36.859375 6.390625 41.078125 11.03125 
Q 45.3125 15.671875 45.3125 23.6875 
L 45.3125 54.6875 
L 54.296875 54.6875 
L 54.296875 0 
L 45.3125 0 
L 45.3125 8.40625 
Q 42.046875 3.421875 37.71875 1 
Q 33.40625 -1.421875 27.6875 -1.421875 
Q 18.265625 -1.421875 13.375 4.4375 
Q 8.5 10.296875 8.5 21.578125 
z
M 31.109375 56 
z
" id="DejaVuSans-117"/>
      <path d="M 9.421875 75.984375 
L 18.40625 75.984375 
L 18.40625 0 
L 9.421875 0 
z
" id="DejaVuSans-108"/>
      <path d="M 54.890625 33.015625 
L 54.890625 0 
L 45.90625 0 
L 45.90625 32.71875 
Q 45.90625 40.484375 42.875 44.328125 
Q 39.84375 48.1875 33.796875 48.1875 
Q 26.515625 48.1875 22.3125 43.546875 
Q 18.109375 38.921875 18.109375 30.90625 
L 18.109375 0 
L 9.078125 0 
L 9.078125 54.6875 
L 18.109375 54.6875 
L 18.109375 46.1875 
Q 21.34375 51.125 25.703125 53.5625 
Q 30.078125 56 35.796875 56 
Q 45.21875 56 50.046875 50.171875 
Q 54.890625 44.34375 54.890625 33.015625 
z
" id="DejaVuSans-110"/>
      <path d="M 30.609375 48.390625 
Q 23.390625 48.390625 19.1875 42.75 
Q 14.984375 37.109375 14.984375 27.296875 
Q 14.984375 17.484375 19.15625 11.84375 
Q 23.34375 6.203125 30.609375 6.203125 
Q 37.796875 6.203125 41.984375 11.859375 
Q 46.1875 17.53125 46.1875 27.296875 
Q 46.1875 37.015625 41.984375 42.703125 
Q 37.796875 48.390625 30.609375 48.390625 
z
M 30.609375 56 
Q 42.328125 56 49.015625 48.375 
Q 55.71875 40.765625 55.71875 27.296875 
Q 55.71875 13.875 49.015625 6.21875 
Q 42.328125 -1.421875 30.609375 -1.421875 
Q 18.84375 -1.421875 12.171875 6.21875 
Q 5.515625 13.875 5.515625 27.296875 
Q 5.515625 40.765625 12.171875 48.375 
Q 18.84375 56 30.609375 56 
z
" id="DejaVuSans-111"/>
      <path d="M 41.109375 46.296875 
Q 39.59375 47.171875 37.8125 47.578125 
Q 36.03125 48 33.890625 48 
Q 26.265625 48 22.1875 43.046875 
Q 18.109375 38.09375 18.109375 28.8125 
L 18.109375 0 
L 9.078125 0 
L 9.078125 54.6875 
L 18.109375 54.6875 
L 18.109375 46.1875 
Q 20.953125 51.171875 25.484375 53.578125 
Q 30.03125 56 36.53125 56 
Q 37.453125 56 38.578125 55.875 
Q 39.703125 55.765625 41.0625 55.515625 
z
" id="DejaVuSans-114"/>
      <path d="M 2.984375 54.6875 
L 12.5 54.6875 
L 29.59375 8.796875 
L 46.6875 54.6875 
L 56.203125 54.6875 
L 35.6875 0 
L 23.484375 0 
z
" id="DejaVuSans-118"/>
      <path d="M 34.28125 27.484375 
Q 23.390625 27.484375 19.1875 25 
Q 14.984375 22.515625 14.984375 16.5 
Q 14.984375 11.71875 18.140625 8.90625 
Q 21.296875 6.109375 26.703125 6.109375 
Q 34.1875 6.109375 38.703125 11.40625 
Q 43.21875 16.703125 43.21875 25.484375 
L 43.21875 27.484375 
z
M 52.203125 31.203125 
L 52.203125 0 
L 43.21875 0 
L 43.21875 8.296875 
Q 40.140625 3.328125 35.546875 0.953125 
Q 30.953125 -1.421875 24.3125 -1.421875 
Q 15.921875 -1.421875 10.953125 3.296875 
Q 6 8.015625 6 15.921875 
Q 6 25.140625 12.171875 29.828125 
Q 18.359375 34.515625 30.609375 34.515625 
L 43.21875 34.515625 
L 43.21875 35.40625 
Q 43.21875 41.609375 39.140625 45 
Q 35.0625 48.390625 27.6875 48.390625 
Q 23 48.390625 18.546875 47.265625 
Q 14.109375 46.140625 10.015625 43.890625 
L 10.015625 52.203125 
Q 14.9375 54.109375 19.578125 55.046875 
Q 24.21875 56 28.609375 56 
Q 40.484375 56 46.34375 49.84375 
Q 52.203125 43.703125 52.203125 31.203125 
z
" id="DejaVuSans-97"/>
     </defs>
     <g transform="translate(13.677188 333.309375)rotate(-90)scale(0.18 -0.18)">
      <use xlink:href="#DejaVuSans-80"/>
      <use x="58.552734" xlink:href="#DejaVuSans-117"/>
      <use x="121.931641" xlink:href="#DejaVuSans-108"/>
      <use x="149.714844" xlink:href="#DejaVuSans-115"/>
      <use x="201.814453" xlink:href="#DejaVuSans-101"/>
      <use x="263.337891" xlink:href="#DejaVuSans-32"/>
      <use x="295.125" xlink:href="#DejaVuSans-115"/>
      <use x="347.224609" xlink:href="#DejaVuSans-101"/>
      <use x="408.748047" xlink:href="#DejaVuSans-110"/>
      <use x="472.126953" xlink:href="#DejaVuSans-115"/>
      <use x="524.226562" xlink:href="#DejaVuSans-111"/>
      <use x="585.408203" xlink:href="#DejaVuSans-114"/>
      <use x="626.521484" xlink:href="#DejaVuSans-32"/>
      <use x="658.308594" xlink:href="#DejaVuSans-118"/>
      <use x="717.488281" xlink:href="#DejaVuSans-97"/>
      <use x="778.767578" xlink:href="#DejaVuSans-108"/>
      <use x="806.550781" xlink:href="#DejaVuSans-117"/>
      <use x="869.929688" xlink:href="#DejaVuSans-101"/>
     </g>
    </g>
   </g>
   <g id="line2d_16">
    <path clip-path="url(#p9921695904)" d="M 103.359943 38.282948 
L 105.079388 41.626437 
L 106.798833 59.458378 
L 108.518277 79.519312 
L 110.237722 108.496216 
L 111.957166 145.274595 
L 113.676611 178.709484 
L 115.396706 217.716855 
L 117.1155 250.037248 
L 118.834945 277.899656 
L 120.55439 309.105553 
L 122.273834 328.05199 
L 123.995878 344.769435 
L 125.715323 359.257887 
L 129.156812 363.715872 
L 130.876256 359.257887 
L 134.315146 334.738968 
L 141.195524 262.296708 
L 142.917568 246.693759 
L 144.637012 236.663292 
L 146.356457 225.518329 
L 148.078501 222.17484 
L 149.797946 224.403833 
L 151.51739 225.518329 
L 153.239434 233.319803 
L 154.960178 240.006781 
L 156.679623 248.922752 
L 158.401667 263.411204 
L 160.121112 270.098182 
L 161.840556 282.357641 
L 163.5626 295.731597 
L 165.282045 297.96059 
L 167.00149 305.762064 
L 168.722884 310.220049 
L 170.442978 310.220049 
L 172.162423 313.563538 
L 175.603912 306.87656 
L 177.323356 305.762064 
L 179.043451 300.189582 
L 180.763545 296.846093 
L 182.48299 294.617101 
L 184.202435 287.930123 
L 185.921879 284.586634 
L 187.641324 282.357641 
L 189.368567 276.78516 
L 191.094509 280.128649 
L 192.822402 276.78516 
L 194.549644 274.556167 
L 196.276237 276.78516 
L 198.00413 273.441671 
L 199.730722 275.670663 
L 201.457315 279.014152 
L 203.185208 274.556167 
L 204.91245 276.78516 
L 206.640992 277.899656 
L 208.369535 276.78516 
L 210.096777 280.128649 
L 211.82337 279.014152 
L 213.548663 280.128649 
L 215.274606 282.357641 
L 217.003148 282.357641 
L 218.729741 283.472138 
L 220.458933 285.70113 
L 222.187475 282.357641 
L 223.913418 283.472138 
L 225.641961 285.70113 
L 227.367904 283.472138 
L 229.095796 285.70113 
L 230.824988 284.586634 
L 232.550931 281.243145 
L 234.278823 285.70113 
L 236.006716 282.357641 
L 239.461201 282.357641 
L 241.188444 273.441671 
L 242.916986 265.640197 
L 244.645528 246.693759 
L 246.372771 215.487862 
L 248.101313 180.938477 
L 251.556448 99.580246 
L 253.283041 68.374349 
L 255.010283 39.397445 
L 256.736226 22.68 
L 258.464769 23.794496 
L 260.193311 31.595971 
L 261.921853 53.885897 
L 263.649096 83.977297 
L 265.377638 116.29769 
L 268.832123 194.312432 
L 272.287908 265.640197 
L 274.01645 292.388108 
L 277.470935 339.196953 
L 279.197528 351.456413 
L 280.923471 361.48688 
L 282.652013 367.059361 
L 284.381205 360.372383 
L 286.108448 357.028894 
L 287.83634 346.998428 
L 289.565532 331.395479 
L 291.291475 316.907027 
L 293.019368 295.731597 
L 294.744661 276.78516 
L 296.473203 263.411204 
L 298.201745 245.579263 
L 299.928988 234.4343 
L 303.383473 223.289337 
L 305.112015 226.632826 
L 308.566501 235.548796 
L 310.295043 246.693759 
L 312.023585 256.724226 
L 313.749528 265.640197 
L 315.477421 282.357641 
L 317.202714 289.044619 
L 318.931256 297.96059 
L 320.659798 307.991057 
L 322.387041 306.87656 
L 324.112984 313.563538 
L 325.838927 315.792531 
L 327.56487 313.563538 
L 329.293412 314.678034 
L 331.020005 311.334545 
L 332.748547 309.105553 
L 334.47514 307.991057 
L 336.201083 300.189582 
L 337.929625 296.846093 
L 339.656867 294.617101 
L 341.38541 289.044619 
L 343.113952 286.815627 
L 344.840545 285.70113 
L 346.565838 279.014152 
L 350.020323 279.014152 
L 351.748865 276.78516 
L 353.474808 279.014152 
L 355.202701 275.670663 
L 356.931893 275.670663 
L 358.660435 281.243145 
L 360.388977 277.899656 
L 363.844112 282.357641 
L 365.571355 277.899656 
L 367.296648 283.472138 
L 369.022591 284.586634 
L 370.751133 282.357641 
L 372.478376 286.815627 
L 374.206918 284.586634 
L 375.93416 285.70113 
L 377.662053 290.159115 
L 379.391245 286.815627 
L 382.84573 289.044619 
L 384.572973 286.815627 
L 386.300865 287.930123 
L 388.027458 287.930123 
L 389.756 284.586634 
L 391.483893 286.815627 
L 394.937728 284.586634 
L 396.66627 286.815627 
L 398.392213 282.357641 
L 400.120755 280.128649 
L 401.849298 279.014152 
L 403.57654 264.5257 
L 405.305083 245.579263 
L 407.032325 217.716855 
L 408.760867 178.709484 
L 410.48941 144.160098 
L 412.215353 105.152727 
L 413.941295 70.603342 
L 415.669838 48.313415 
L 417.39643 29.366978 
L 419.124323 28.252482 
L 420.850266 40.511941 
L 422.578808 56.114889 
L 424.30735 86.20629 
L 427.763135 157.534054 
L 429.490378 200.99941 
L 431.21892 235.548796 
L 434.676005 300.189582 
L 438.13049 342.540442 
L 439.859682 359.257887 
L 443.316116 365.944865 
L 445.044009 367.059361 
L 446.770602 354.799902 
L 448.497194 348.112924 
L 450.225087 333.624472 
L 451.952329 312.449042 
L 453.680222 296.846093 
L 455.407464 273.441671 
L 457.133407 258.953219 
L 458.86065 247.808256 
L 460.588542 231.090811 
L 462.317085 226.632826 
L 464.045627 223.289337 
L 465.77287 222.17484 
L 467.500762 228.861818 
L 469.228005 234.4343 
L 470.955897 242.235774 
L 472.684439 253.380737 
L 476.140224 273.441671 
L 477.868766 286.815627 
L 479.594709 291.273612 
L 481.321302 297.96059 
L 483.049194 306.87656 
L 484.777087 307.991057 
L 486.506279 312.449042 
L 488.232222 313.563538 
L 489.960114 307.991057 
L 491.689306 310.220049 
L 493.415249 306.87656 
L 495.143792 302.418575 
L 496.871034 303.533071 
L 498.598927 294.617101 
L 502.052112 292.388108 
L 503.780005 284.586634 
L 505.505947 284.586634 
L 507.23449 282.357641 
L 508.963032 279.014152 
L 510.688975 281.243145 
L 512.416867 276.78516 
L 514.146059 274.556167 
L 515.872002 276.78516 
L 517.600545 274.556167 
L 519.327787 275.670663 
L 521.05568 279.014152 
L 522.784872 274.556167 
L 526.238057 279.014152 
L 527.964 277.899656 
L 529.691893 281.243145 
L 533.147677 279.014152 
L 534.87622 284.586634 
L 536.605412 281.243145 
L 538.333954 281.243145 
L 540.061197 285.70113 
L 541.78714 282.357641 
L 543.516332 285.70113 
L 545.245524 284.586634 
L 548.700009 268.983686 
L 550.425952 247.808256 
L 552.155794 222.17484 
L 553.884336 194.312432 
L 557.338821 118.526683 
L 560.793306 63.916364 
L 562.521849 52.7714 
L 564.249091 51.656904 
L 565.976984 57.229386 
L 567.706176 78.404816 
L 569.433418 105.152727 
L 571.161961 135.244128 
L 572.889203 174.251499 
L 576.346288 240.006781 
L 578.07288 276.78516 
L 579.798174 300.189582 
L 581.526716 328.05199 
L 583.252659 349.22742 
L 584.981201 358.143391 
L 586.707794 371.517346 
L 588.435036 371.517346 
L 590.164228 369.288354 
L 591.891471 365.944865 
L 597.075148 313.563538 
L 598.801741 290.159115 
L 600.528334 271.212678 
L 602.253627 255.60973 
L 603.982169 237.777789 
L 605.710711 229.976314 
L 607.439254 225.518329 
L 609.165197 222.17484 
L 610.894389 226.632826 
L 612.621631 228.861818 
L 614.346924 234.4343 
L 616.074167 248.922752 
L 617.80141 255.60973 
L 619.529952 266.754693 
L 621.258494 279.014152 
L 622.987036 283.472138 
L 624.712979 295.731597 
L 626.441521 302.418575 
L 628.167464 304.647568 
L 629.896007 311.334545 
L 631.62195 310.220049 
L 633.349842 311.334545 
L 635.079034 313.563538 
L 636.807576 306.87656 
L 638.536119 303.533071 
L 640.262062 303.533071 
L 641.991903 296.846093 
L 643.720446 295.731597 
L 645.447038 292.388108 
L 647.176231 285.70113 
L 648.902823 285.70113 
L 652.356659 279.014152 
L 654.083251 281.243145 
L 655.811794 276.78516 
L 657.540986 274.556167 
L 659.267579 280.128649 
L 660.995471 275.670663 
L 664.449306 280.128649 
L 666.178498 277.899656 
L 667.905091 283.472138 
L 671.360226 281.243145 
L 673.090068 285.70113 
L 674.817311 283.472138 
L 676.544553 285.70113 
L 678.272446 290.159115 
L 680.001638 286.815627 
L 681.727581 287.930123 
L 683.456123 287.930123 
L 685.182066 284.586634 
L 686.911258 287.930123 
L 688.64045 286.815627 
L 690.366393 283.472138 
L 692.093636 286.815627 
L 693.820878 284.586634 
L 695.548771 284.586634 
L 697.276013 286.815627 
L 699.001306 280.128649 
L 700.729199 274.556167 
L 702.455791 265.640197 
L 704.181734 242.235774 
L 705.910277 216.602359 
L 707.637519 180.938477 
L 709.366062 139.702113 
L 711.094604 107.38172 
L 712.820547 72.832334 
L 714.54649 52.7714 
L 716.275032 44.969926 
L 718.001625 40.511941 
L 719.729517 53.885897 
L 721.45676 77.290319 
L 723.185302 105.152727 
L 730.094922 252.266241 
L 731.824114 283.472138 
L 733.552656 310.220049 
L 735.278599 334.738968 
L 737.004542 349.22742 
L 738.733085 360.372383 
L 740.459028 372.631843 
L 742.18757 368.173857 
L 743.913513 367.059361 
L 745.641405 359.257887 
L 747.370597 342.540442 
L 749.09719 332.509975 
L 752.551025 291.273612 
L 754.279568 277.899656 
L 756.00811 257.838722 
L 757.734053 245.579263 
L 759.459996 238.892285 
L 761.188538 228.861818 
L 762.915131 228.861818 
L 764.643023 229.976314 
L 766.368966 233.319803 
L 768.096859 244.464767 
L 769.826051 251.151744 
L 771.553293 258.953219 
L 773.279236 274.556167 
L 775.006479 282.357641 
L 778.463563 302.418575 
L 780.190806 304.647568 
L 783.645291 315.792531 
L 785.371234 313.563538 
L 787.099776 315.792531 
L 788.825719 313.563538 
L 790.553612 309.105553 
L 792.282804 311.334545 
L 794.008747 305.762064 
L 795.735989 301.304079 
L 797.461932 301.304079 
L 799.191124 293.502604 
L 802.648859 291.273612 
L 804.378051 285.70113 
L 806.105943 285.70113 
L 807.834485 282.357641 
L 809.563028 280.128649 
L 811.28897 283.472138 
L 813.017513 280.128649 
L 814.746055 277.899656 
L 816.471998 281.243145 
L 818.20054 277.899656 
L 821.655675 282.357641 
L 823.384867 277.899656 
L 825.11146 281.243145 
L 826.836753 283.472138 
L 828.565295 282.357641 
L 830.291238 287.930123 
L 832.019781 284.586634 
L 833.745723 283.472138 
L 835.474916 290.159115 
L 837.204108 286.815627 
L 840.658593 291.273612 
L 842.385186 287.930123 
L 844.113728 291.273612 
L 845.84292 289.044619 
L 847.571462 289.044619 
L 849.300004 292.388108 
L 851.028547 289.044619 
L 852.756439 289.044619 
L 854.485631 290.159115 
L 856.214173 286.815627 
L 857.941416 284.586634 
L 859.669958 279.014152 
L 861.397201 261.182211 
L 863.125743 240.006781 
L 864.852336 213.25887 
L 866.580228 178.709484 
L 868.308771 147.503587 
L 870.034713 114.068698 
L 871.761306 86.20629 
L 875.216441 66.145356 
L 876.944984 70.603342 
L 880.398169 105.152727 
L 885.582496 200.99941 
L 887.309089 238.892285 
L 890.765524 295.731597 
L 892.491467 323.594005 
L 895.946602 350.341916 
L 897.674494 362.601376 
L 899.403036 364.830369 
L 901.130279 364.830369 
L 902.856222 360.372383 
L 904.584764 346.998428 
L 906.311357 336.967961 
L 908.039249 321.365012 
L 909.765192 301.304079 
L 911.493085 286.815627 
L 913.220327 265.640197 
L 914.94822 250.037248 
L 914.94822 250.037248 
" style="fill:none;stroke:#ff0000;stroke-linecap:square;stroke-width:1.5;"/>
   </g>
   <g id="line2d_17">
    <path clip-path="url(#p9921695904)" d="M 103.359943 124.099165 
L 105.079388 129.671646 
L 106.798833 137.47312 
L 108.518277 173.137002 
L 110.240321 234.4343 
L 113.67921 340.31145 
L 115.401254 387.120295 
L 118.842093 430.585651 
L 120.562188 440.616118 
L 122.281632 433.92914 
L 124.003027 430.585651 
L 125.723121 419.440688 
L 127.442566 401.608747 
L 129.16396 399.379754 
L 130.884054 378.204324 
L 132.603499 360.372383 
L 134.324893 346.998428 
L 136.044988 314.678034 
L 137.764432 301.304079 
L 139.485826 286.815627 
L 141.205921 270.098182 
L 142.925366 271.212678 
L 144.64676 258.953219 
L 146.366854 254.495233 
L 148.086949 260.067715 
L 149.808343 258.953219 
L 151.527787 264.5257 
L 153.247232 275.670663 
L 154.968626 273.441671 
L 158.408165 282.357641 
L 160.12826 279.014152 
L 161.848354 292.388108 
L 163.567799 293.502604 
L 165.287894 289.044619 
L 167.007988 300.189582 
L 168.727433 292.388108 
L 170.446877 294.617101 
L 172.166322 303.533071 
L 173.885767 290.159115 
L 175.605211 296.846093 
L 177.324656 295.731597 
L 179.044101 290.159115 
L 180.771343 300.189582 
L 184.225828 291.273612 
L 185.954371 294.617101 
L 187.681613 289.044619 
L 189.407556 289.044619 
L 191.136098 295.731597 
L 192.863341 287.930123 
L 194.591883 289.044619 
L 196.319126 291.273612 
L 198.047668 283.472138 
L 199.77621 295.731597 
L 201.503453 294.617101 
L 203.231995 287.930123 
L 204.959238 296.846093 
L 206.68778 289.044619 
L 208.416322 291.273612 
L 210.143565 299.075086 
L 211.869508 285.70113 
L 213.59805 290.159115 
L 215.325293 292.388108 
L 217.052535 286.815627 
L 218.779778 295.731597 
L 220.50767 290.159115 
L 222.234263 286.815627 
L 223.960856 295.731597 
L 225.687449 291.273612 
L 227.414691 290.159115 
L 229.143233 293.502604 
L 230.871776 286.815627 
L 232.597719 286.815627 
L 234.325611 295.731597 
L 236.053503 290.159115 
L 237.780746 293.502604 
L 239.509288 293.502604 
L 241.236531 286.815627 
L 242.964423 296.846093 
L 244.691016 293.502604 
L 246.418259 287.930123 
L 248.145501 296.846093 
L 249.871444 285.70113 
L 251.599337 291.273612 
L 253.325929 299.075086 
L 255.051872 281.243145 
L 256.779765 266.754693 
L 258.506358 231.090811 
L 260.2336 189.854447 
L 261.962142 167.564521 
L 263.689385 136.358624 
L 265.417277 120.755676 
L 267.14387 126.328157 
L 268.869813 127.442654 
L 270.596406 143.045602 
L 274.052841 182.052973 
L 275.781383 227.747322 
L 277.508625 290.159115 
L 280.96571 396.036265 
L 282.691653 431.700147 
L 284.420195 450.646585 
L 286.147438 476.28 
L 287.87533 476.28 
L 289.602573 468.478526 
L 291.329165 467.364029 
L 293.056408 438.387125 
L 294.782351 420.555184 
L 296.510243 398.265258 
L 298.236836 362.601376 
L 299.962779 342.540442 
L 301.691321 314.678034 
L 303.419864 291.273612 
L 305.147106 286.815627 
L 306.875648 268.983686 
L 308.602891 260.067715 
L 310.330783 261.182211 
L 312.058026 254.495233 
L 313.785918 257.838722 
L 315.512511 266.754693 
L 317.240404 263.411204 
L 318.968296 271.212678 
L 320.695539 275.670663 
L 322.420832 276.78516 
L 324.149374 290.159115 
L 325.877916 287.930123 
L 327.603859 284.586634 
L 329.332401 296.846093 
L 331.059644 286.815627 
L 334.516729 300.189582 
L 336.243321 289.044619 
L 337.968614 293.502604 
L 339.697157 293.502604 
L 341.423749 290.159115 
L 343.151642 299.075086 
L 344.878235 291.273612 
L 346.605477 289.044619 
L 348.33207 295.731597 
L 350.060612 291.273612 
L 351.789155 292.388108 
L 353.516397 294.617101 
L 355.244939 286.815627 
L 356.973482 289.044619 
L 358.700724 292.388108 
L 360.426667 287.930123 
L 362.155209 292.388108 
L 363.883752 291.273612 
L 365.612294 285.70113 
L 367.339536 296.846093 
L 369.068079 291.273612 
L 370.796621 286.815627 
L 372.522564 296.846093 
L 374.251106 285.70113 
L 375.978349 292.388108 
L 377.706891 297.96059 
L 379.435433 285.70113 
L 381.162026 295.731597 
L 382.887319 292.388108 
L 384.613912 290.159115 
L 386.343104 301.304079 
L 388.071646 291.273612 
L 389.797589 292.388108 
L 391.527431 297.96059 
L 393.255973 294.617101 
L 394.983216 296.846093 
L 396.711758 296.846093 
L 398.437701 289.044619 
L 400.166243 291.273612 
L 401.894786 291.273612 
L 403.622028 287.930123 
L 405.348621 293.502604 
L 407.076513 290.159115 
L 408.805056 285.70113 
L 410.533598 296.846093 
L 412.260191 290.159115 
L 413.988083 290.159115 
L 415.716625 296.846093 
L 417.443868 285.70113 
L 419.17241 294.617101 
L 420.899653 295.731597 
L 422.628195 284.586634 
L 424.356737 294.617101 
L 426.08268 289.044619 
L 427.809923 286.815627 
L 429.535866 280.128649 
L 431.265058 238.892285 
L 432.99425 205.457396 
L 436.448735 145.274595 
L 438.177277 135.244128 
L 439.90322 144.160098 
L 441.630463 168.679017 
L 445.086248 267.869189 
L 446.81479 313.563538 
L 448.540733 362.601376 
L 450.267976 386.005799 
L 451.995218 399.379754 
L 453.723111 417.211695 
L 455.449703 411.639214 
L 457.175646 412.75371 
L 458.901589 410.524717 
L 460.630131 389.349287 
L 462.356074 388.234791 
L 464.084617 372.631843 
L 465.81056 350.341916 
L 467.538452 342.540442 
L 469.267644 314.678034 
L 470.993587 296.846093 
L 472.72018 287.930123 
L 474.445473 272.327174 
L 476.171416 267.869189 
L 477.899958 264.5257 
L 479.627201 255.60973 
L 481.355743 261.182211 
L 483.084285 263.411204 
L 484.810878 264.5257 
L 486.53877 272.327174 
L 488.266013 271.212678 
L 489.994555 272.327174 
L 491.723097 286.815627 
L 493.44904 283.472138 
L 495.177583 286.815627 
L 496.903526 295.731597 
L 498.629468 287.930123 
L 500.358011 299.075086 
L 502.084603 302.418575 
L 503.813146 292.388108 
L 505.542338 302.418575 
L 507.268281 295.731597 
L 508.996823 292.388108 
L 510.723416 301.304079 
L 512.451308 289.044619 
L 514.17985 291.273612 
L 515.908393 295.731597 
L 517.634985 290.159115 
L 519.362878 296.846093 
L 521.09142 294.617101 
L 522.819962 289.044619 
L 524.546555 294.617101 
L 526.275747 293.502604 
L 528.004289 290.159115 
L 529.732832 294.617101 
L 531.461374 287.930123 
L 533.187967 285.70113 
L 534.916509 295.731597 
L 536.645701 289.044619 
L 538.372944 289.044619 
L 540.100186 294.617101 
L 541.826779 285.70113 
L 543.555321 296.846093 
L 545.281914 297.96059 
L 547.010456 289.044619 
L 548.739648 299.075086 
L 550.467541 290.159115 
L 552.193484 290.159115 
L 553.922026 299.075086 
L 555.647969 289.044619 
L 557.375861 292.388108 
L 559.103104 293.502604 
L 560.829697 287.930123 
L 562.556289 296.846093 
L 564.281583 292.388108 
L 566.010125 286.815627 
L 567.738667 293.502604 
L 571.193152 289.044619 
L 572.921695 297.96059 
L 574.647637 290.159115 
L 576.37618 289.044619 
L 578.102123 296.846093 
L 579.830665 285.70113 
L 581.559207 268.983686 
L 583.28645 236.663292 
L 585.013043 188.739951 
L 586.738336 166.450025 
L 588.468178 139.702113 
L 590.19672 125.213661 
L 591.923962 146.389091 
L 593.649905 173.137002 
L 595.378448 225.518329 
L 597.10699 285.70113 
L 598.835532 325.822998 
L 600.561475 369.288354 
L 602.289367 393.807273 
L 604.01596 402.723243 
L 605.742553 414.982703 
L 607.470445 412.75371 
L 609.196388 406.066732 
L 610.924281 407.181229 
L 612.653473 391.57828 
L 614.379416 378.204324 
L 616.107308 372.631843 
L 617.8365 345.883931 
L 619.562443 326.937494 
L 621.290336 314.678034 
L 623.018228 289.044619 
L 624.74677 284.586634 
L 626.475313 273.441671 
L 628.201255 260.067715 
L 629.928498 265.640197 
L 631.654441 257.838722 
L 633.384283 260.067715 
L 635.112825 271.212678 
L 636.838768 265.640197 
L 640.295203 281.243145 
L 642.020496 281.243145 
L 643.749038 292.388108 
L 645.474981 290.159115 
L 647.202873 289.044619 
L 648.932066 295.731597 
L 650.659308 294.617101 
L 652.385251 295.731597 
L 654.113793 299.075086 
L 655.843635 291.273612 
L 657.572178 290.159115 
L 659.29877 299.075086 
L 661.026663 291.273612 
L 662.755205 292.388108 
L 664.483747 294.617101 
L 666.21164 283.472138 
L 667.936933 294.617101 
L 669.665475 293.502604 
L 671.394017 286.815627 
L 673.11996 296.846093 
L 674.846553 290.159115 
L 676.574445 292.388108 
L 678.302988 301.304079 
L 680.03153 289.044619 
L 681.758123 294.617101 
L 683.485365 294.617101 
L 685.213258 291.273612 
L 686.9405 300.189582 
L 688.669042 292.388108 
L 690.394985 289.044619 
L 692.123528 295.731597 
L 693.85207 291.273612 
L 695.579313 291.273612 
L 697.305905 293.502604 
L 699.031848 285.70113 
L 700.759091 287.930123 
L 702.488283 292.388108 
L 704.215525 286.815627 
L 705.941468 295.731597 
L 707.670011 293.502604 
L 709.398553 286.815627 
L 711.127095 297.96059 
L 712.854338 294.617101 
L 714.58288 293.502604 
L 716.311422 301.304079 
L 718.038015 291.273612 
L 719.763308 293.502604 
L 721.489901 297.96059 
L 723.217793 290.159115 
L 724.946336 295.731597 
L 726.672928 290.159115 
L 728.401471 287.930123 
L 730.129363 296.846093 
L 731.857905 292.388108 
L 733.586448 290.159115 
L 735.31239 295.731597 
L 737.040933 290.159115 
L 738.769475 292.388108 
L 740.496068 284.586634 
L 743.953152 208.800885 
L 747.409587 138.587617 
L 749.138129 131.900639 
L 750.866671 131.900639 
L 752.592614 154.190565 
L 754.318557 208.800885 
L 756.0471 254.495233 
L 759.500935 359.257887 
L 761.230127 381.547813 
L 762.95737 406.066732 
L 764.685912 416.097199 
L 766.411855 413.868206 
L 768.141047 419.440688 
L 769.870239 407.181229 
L 771.597481 396.036265 
L 773.326024 391.57828 
L 775.051967 374.860835 
L 776.779859 362.601376 
L 778.509051 349.22742 
L 780.234994 324.708501 
L 781.964186 309.105553 
L 783.693378 296.846093 
L 785.419321 276.78516 
L 788.874456 261.182211 
L 790.602998 252.266241 
L 792.33284 263.411204 
L 794.060733 262.296708 
L 795.789275 258.953219 
L 797.515218 270.098182 
L 799.24441 262.296708 
L 800.973602 272.327174 
L 802.700195 283.472138 
L 804.428737 275.670663 
L 806.15663 285.70113 
L 809.611115 285.70113 
L 811.337058 297.96059 
L 813.0656 290.159115 
L 814.794142 291.273612 
L 816.520735 297.96059 
L 818.246028 292.388108 
L 819.97457 294.617101 
L 821.703113 297.96059 
L 823.431655 292.388108 
L 825.158248 293.502604 
L 826.88614 296.846093 
L 828.614682 291.273612 
L 830.340625 296.846093 
L 832.069167 295.731597 
L 833.79511 289.044619 
L 835.523653 300.189582 
L 838.978788 289.044619 
L 840.70668 296.846093 
L 842.435222 289.044619 
L 845.893606 302.418575 
L 847.622149 291.273612 
L 849.349391 299.075086 
L 851.075984 294.617101 
L 852.801927 291.273612 
L 854.529819 300.189582 
L 856.255762 289.044619 
L 857.983655 289.044619 
L 859.710897 293.502604 
L 861.43879 285.70113 
L 863.167332 289.044619 
L 864.893275 294.617101 
L 866.623117 285.70113 
L 868.351659 289.044619 
L 870.078902 289.044619 
L 871.804845 284.586634 
L 873.533387 293.502604 
L 875.261279 287.930123 
L 876.990471 281.243145 
L 878.716414 292.388108 
L 880.444957 285.70113 
L 882.173499 290.159115 
L 883.900742 295.731597 
L 885.629284 284.586634 
L 887.355227 293.502604 
L 889.083769 294.617101 
L 890.811012 291.273612 
L 892.537604 299.075086 
L 894.262897 291.273612 
L 895.99144 289.044619 
L 897.718032 295.731597 
L 899.445925 290.159115 
L 902.90236 296.846093 
L 904.628952 290.159115 
L 906.356195 293.502604 
L 908.084737 295.731597 
L 909.81198 287.930123 
L 911.541822 270.098182 
L 913.270364 234.4343 
L 914.996307 190.968943 
L 914.996307 190.968943 
" style="fill:none;stroke:#0000ff;stroke-dasharray:5.55,2.4;stroke-dashoffset:0;stroke-width:1.5;"/>
   </g>
   <g id="patch_3">
    <path d="M 62.778125 498.96 
L 62.778125 -0 
" style="fill:none;stroke:#000000;stroke-linecap:square;stroke-linejoin:miter;stroke-width:0.8;"/>
   </g>
   <g id="patch_4">
    <path d="M 955.578125 498.96 
L 955.578125 -0 
" style="fill:none;stroke:#000000;stroke-linecap:square;stroke-linejoin:miter;stroke-width:0.8;"/>
   </g>
   <g id="patch_5">
    <path d="M 62.778125 498.96 
L 955.578125 498.96 
" style="fill:none;stroke:#000000;stroke-linecap:square;stroke-linejoin:miter;stroke-width:0.8;"/>
   </g>
   <g id="patch_6">
    <path d="M 62.778125 0 
L 955.578125 0 
" style="fill:none;stroke:#000000;stroke-linecap:square;stroke-linejoin:miter;stroke-width:0.8;"/>
   </g>
   <g id="legend_1">
    <g id="patch_7">
     <path d="M 818.08625 67.24125 
L 942.978125 67.24125 
Q 946.578125 67.24125 946.578125 63.64125 
L 946.578125 12.6 
Q 946.578125 9 942.978125 9 
L 818.08625 9 
Q 814.48625 9 814.48625 12.6 
L 814.48625 63.64125 
Q 814.48625 67.24125 818.08625 67.24125 
z
" style="fill:#ffffff;opacity:0.8;stroke:#cccccc;stroke-linejoin:miter;"/>
    </g>
    <g id="line2d_18">
     <path d="M 821.68625 23.577187 
L 857.68625 23.577187 
" style="fill:none;stroke:#ff0000;stroke-linecap:square;stroke-width:1.5;"/>
    </g>
    <g id="line2d_19"/>
    <g id="text_18">
     <!-- Subject -->
     <defs>
      <path d="M 53.515625 70.515625 
L 53.515625 60.890625 
Q 47.90625 63.578125 42.921875 64.890625 
Q 37.9375 66.21875 33.296875 66.21875 
Q 25.25 66.21875 20.875 63.09375 
Q 16.5 59.96875 16.5 54.203125 
Q 16.5 49.359375 19.40625 46.890625 
Q 22.3125 44.4375 30.421875 42.921875 
L 36.375 41.703125 
Q 47.40625 39.59375 52.65625 34.296875 
Q 57.90625 29 57.90625 20.125 
Q 57.90625 9.515625 50.796875 4.046875 
Q 43.703125 -1.421875 29.984375 -1.421875 
Q 24.8125 -1.421875 18.96875 -0.25 
Q 13.140625 0.921875 6.890625 3.21875 
L 6.890625 13.375 
Q 12.890625 10.015625 18.65625 8.296875 
Q 24.421875 6.59375 29.984375 6.59375 
Q 38.421875 6.59375 43.015625 9.90625 
Q 47.609375 13.234375 47.609375 19.390625 
Q 47.609375 24.75 44.3125 27.78125 
Q 41.015625 30.8125 33.5 32.328125 
L 27.484375 33.5 
Q 16.453125 35.6875 11.515625 40.375 
Q 6.59375 45.0625 6.59375 53.421875 
Q 6.59375 63.09375 13.40625 68.65625 
Q 20.21875 74.21875 32.171875 74.21875 
Q 37.3125 74.21875 42.625 73.28125 
Q 47.953125 72.359375 53.515625 70.515625 
z
" id="DejaVuSans-83"/>
      <path d="M 48.6875 27.296875 
Q 48.6875 37.203125 44.609375 42.84375 
Q 40.53125 48.484375 33.40625 48.484375 
Q 26.265625 48.484375 22.1875 42.84375 
Q 18.109375 37.203125 18.109375 27.296875 
Q 18.109375 17.390625 22.1875 11.75 
Q 26.265625 6.109375 33.40625 6.109375 
Q 40.53125 6.109375 44.609375 11.75 
Q 48.6875 17.390625 48.6875 27.296875 
z
M 18.109375 46.390625 
Q 20.953125 51.265625 25.265625 53.625 
Q 29.59375 56 35.59375 56 
Q 45.5625 56 51.78125 48.09375 
Q 58.015625 40.1875 58.015625 27.296875 
Q 58.015625 14.40625 51.78125 6.484375 
Q 45.5625 -1.421875 35.59375 -1.421875 
Q 29.59375 -1.421875 25.265625 0.953125 
Q 20.953125 3.328125 18.109375 8.203125 
L 18.109375 0 
L 9.078125 0 
L 9.078125 75.984375 
L 18.109375 75.984375 
z
" id="DejaVuSans-98"/>
      <path d="M 9.421875 54.6875 
L 18.40625 54.6875 
L 18.40625 -0.984375 
Q 18.40625 -11.421875 14.421875 -16.109375 
Q 10.453125 -20.796875 1.609375 -20.796875 
L -1.8125 -20.796875 
L -1.8125 -13.1875 
L 0.59375 -13.1875 
Q 5.71875 -13.1875 7.5625 -10.8125 
Q 9.421875 -8.453125 9.421875 -0.984375 
z
M 9.421875 75.984375 
L 18.40625 75.984375 
L 18.40625 64.59375 
L 9.421875 64.59375 
z
" id="DejaVuSans-106"/>
      <path d="M 48.78125 52.59375 
L 48.78125 44.1875 
Q 44.96875 46.296875 41.140625 47.34375 
Q 37.3125 48.390625 33.40625 48.390625 
Q 24.65625 48.390625 19.8125 42.84375 
Q 14.984375 37.3125 14.984375 27.296875 
Q 14.984375 17.28125 19.8125 11.734375 
Q 24.65625 6.203125 33.40625 6.203125 
Q 37.3125 6.203125 41.140625 7.25 
Q 44.96875 8.296875 48.78125 10.40625 
L 48.78125 2.09375 
Q 45.015625 0.34375 40.984375 -0.53125 
Q 36.96875 -1.421875 32.421875 -1.421875 
Q 20.0625 -1.421875 12.78125 6.34375 
Q 5.515625 14.109375 5.515625 27.296875 
Q 5.515625 40.671875 12.859375 48.328125 
Q 20.21875 56 33.015625 56 
Q 37.15625 56 41.109375 55.140625 
Q 45.0625 54.296875 48.78125 52.59375 
z
" id="DejaVuSans-99"/>
      <path d="M 18.3125 70.21875 
L 18.3125 54.6875 
L 36.8125 54.6875 
L 36.8125 47.703125 
L 18.3125 47.703125 
L 18.3125 18.015625 
Q 18.3125 11.328125 20.140625 9.421875 
Q 21.96875 7.515625 27.59375 7.515625 
L 36.8125 7.515625 
L 36.8125 0 
L 27.59375 0 
Q 17.1875 0 13.234375 3.875 
Q 9.28125 7.765625 9.28125 18.015625 
L 9.28125 47.703125 
L 2.6875 47.703125 
L 2.6875 54.6875 
L 9.28125 54.6875 
L 9.28125 70.21875 
z
" id="DejaVuSans-116"/>
     </defs>
     <g transform="translate(872.08625 29.877187)scale(0.18 -0.18)">
      <use xlink:href="#DejaVuSans-83"/>
      <use x="63.476562" xlink:href="#DejaVuSans-117"/>
      <use x="126.855469" xlink:href="#DejaVuSans-98"/>
      <use x="190.332031" xlink:href="#DejaVuSans-106"/>
      <use x="218.115234" xlink:href="#DejaVuSans-101"/>
      <use x="279.638672" xlink:href="#DejaVuSans-99"/>
      <use x="334.619141" xlink:href="#DejaVuSans-116"/>
     </g>
    </g>
    <g id="line2d_20">
     <path d="M 821.68625 49.997812 
L 857.68625 49.997812 
" style="fill:none;stroke:#0000ff;stroke-dasharray:5.55,2.4;stroke-dashoffset:0;stroke-width:1.5;"/>
    </g>
    <g id="line2d_21"/>
    <g id="text_19">
     <!-- Pseudo -->
     <defs>
      <path d="M 45.40625 46.390625 
L 45.40625 75.984375 
L 54.390625 75.984375 
L 54.390625 0 
L 45.40625 0 
L 45.40625 8.203125 
Q 42.578125 3.328125 38.25 0.953125 
Q 33.9375 -1.421875 27.875 -1.421875 
Q 17.96875 -1.421875 11.734375 6.484375 
Q 5.515625 14.40625 5.515625 27.296875 
Q 5.515625 40.1875 11.734375 48.09375 
Q 17.96875 56 27.875 56 
Q 33.9375 56 38.25 53.625 
Q 42.578125 51.265625 45.40625 46.390625 
z
M 14.796875 27.296875 
Q 14.796875 17.390625 18.875 11.75 
Q 22.953125 6.109375 30.078125 6.109375 
Q 37.203125 6.109375 41.296875 11.75 
Q 45.40625 17.390625 45.40625 27.296875 
Q 45.40625 37.203125 41.296875 42.84375 
Q 37.203125 48.484375 30.078125 48.484375 
Q 22.953125 48.484375 18.875 42.84375 
Q 14.796875 37.203125 14.796875 27.296875 
z
" id="DejaVuSans-100"/>
     </defs>
     <g transform="translate(872.08625 56.297812)scale(0.18 -0.18)">
      <use xlink:href="#DejaVuSans-80"/>
      <use x="58.552734" xlink:href="#DejaVuSans-115"/>
      <use x="110.652344" xlink:href="#DejaVuSans-101"/>
      <use x="172.175781" xlink:href="#DejaVuSans-117"/>
      <use x="235.554688" xlink:href="#DejaVuSans-100"/>
      <use x="299.03125" xlink:href="#DejaVuSans-111"/>
     </g>
    </g>
   </g>
  </g>
 </g>
 <defs>
  <clipPath id="p9921695904">
   <rect height="498.96" width="892.8" x="62.778125" y="0"/>
  </clipPath>
 </defs>
</svg>
