<?xml version="1.0" encoding="utf-8" standalone="no"?>
<!DOCTYPE svg PUBLIC "-//W3C//DTD SVG 1.1//EN"
  "http://www.w3.org/Graphics/SVG/1.1/DTD/svg11.dtd">
<!-- Created with matplotlib (https://matplotlib.org/) -->
<svg height="537.159787pt" version="1.1" viewBox="0 0 994.17875 537.159787" width="994.17875pt" xmlns="http://www.w3.org/2000/svg" xmlns:xlink="http://www.w3.org/1999/xlink">
 <defs>
  <style type="text/css">
*{stroke-linecap:butt;stroke-linejoin:round;}
  </style>
 </defs>
 <g id="figure_1">
  <g id="patch_1">
   <path d="M 0 537.159787 
L 994.17875 537.159787 
L 994.17875 0 
L 0 0 
z
" style="fill:#ffffff;"/>
  </g>
  <g id="axes_1">
   <g id="patch_2">
    <path d="M 53.870625 499.061037 
L 946.670625 499.061037 
L 946.670625 0.101037 
L 53.870625 0.101037 
z
" style="fill:#ffffff;"/>
   </g>
   <g id="matplotlib.axis_1">
    <g id="xtick_1">
     <g id="line2d_1">
      <defs>
       <path d="M 0 0 
L 0 3.5 
" id="ma156f12680" style="stroke:#000000;stroke-width:0.8;"/>
      </defs>
      <g>
       <use style="stroke:#000000;stroke-width:0.8;" x="94.452443" xlink:href="#ma156f12680" y="499.061037"/>
      </g>
     </g>
     <g id="text_1">
      <!-- 0 -->
      <defs>
       <path d="M 31.78125 66.40625 
Q 24.171875 66.40625 20.328125 58.90625 
Q 16.5 51.421875 16.5 36.375 
Q 16.5 21.390625 20.328125 13.890625 
Q 24.171875 6.390625 31.78125 6.390625 
Q 39.453125 6.390625 43.28125 13.890625 
Q 47.125 21.390625 47.125 36.375 
Q 47.125 51.421875 43.28125 58.90625 
Q 39.453125 66.40625 31.78125 66.40625 
z
M 31.78125 74.21875 
Q 44.046875 74.21875 50.515625 64.515625 
Q 56.984375 54.828125 56.984375 36.375 
Q 56.984375 17.96875 50.515625 8.265625 
Q 44.046875 -1.421875 31.78125 -1.421875 
Q 19.53125 -1.421875 13.0625 8.265625 
Q 6.59375 17.96875 6.59375 36.375 
Q 6.59375 54.828125 13.0625 64.515625 
Q 19.53125 74.21875 31.78125 74.21875 
z
" id="DejaVuSans-48"/>
      </defs>
      <g transform="translate(91.271193 513.659474)scale(0.1 -0.1)">
       <use xlink:href="#DejaVuSans-48"/>
      </g>
     </g>
    </g>
    <g id="xtick_2">
     <g id="line2d_2">
      <g>
       <use style="stroke:#000000;stroke-width:0.8;" x="256.807381" xlink:href="#ma156f12680" y="499.061037"/>
      </g>
     </g>
     <g id="text_2">
      <!-- 1000 -->
      <defs>
       <path d="M 12.40625 8.296875 
L 28.515625 8.296875 
L 28.515625 63.921875 
L 10.984375 60.40625 
L 10.984375 69.390625 
L 28.421875 72.90625 
L 38.28125 72.90625 
L 38.28125 8.296875 
L 54.390625 8.296875 
L 54.390625 0 
L 12.40625 0 
z
" id="DejaVuSans-49"/>
      </defs>
      <g transform="translate(244.082381 513.659474)scale(0.1 -0.1)">
       <use xlink:href="#DejaVuSans-49"/>
       <use x="63.623047" xlink:href="#DejaVuSans-48"/>
       <use x="127.246094" xlink:href="#DejaVuSans-48"/>
       <use x="190.869141" xlink:href="#DejaVuSans-48"/>
      </g>
     </g>
    </g>
    <g id="xtick_3">
     <g id="line2d_3">
      <g>
       <use style="stroke:#000000;stroke-width:0.8;" x="419.162319" xlink:href="#ma156f12680" y="499.061037"/>
      </g>
     </g>
     <g id="text_3">
      <!-- 2000 -->
      <defs>
       <path d="M 19.1875 8.296875 
L 53.609375 8.296875 
L 53.609375 0 
L 7.328125 0 
L 7.328125 8.296875 
Q 12.9375 14.109375 22.625 23.890625 
Q 32.328125 33.6875 34.8125 36.53125 
Q 39.546875 41.84375 41.421875 45.53125 
Q 43.3125 49.21875 43.3125 52.78125 
Q 43.3125 58.59375 39.234375 62.25 
Q 35.15625 65.921875 28.609375 65.921875 
Q 23.96875 65.921875 18.8125 64.3125 
Q 13.671875 62.703125 7.8125 59.421875 
L 7.8125 69.390625 
Q 13.765625 71.78125 18.9375 73 
Q 24.125 74.21875 28.421875 74.21875 
Q 39.75 74.21875 46.484375 68.546875 
Q 53.21875 62.890625 53.21875 53.421875 
Q 53.21875 48.921875 51.53125 44.890625 
Q 49.859375 40.875 45.40625 35.40625 
Q 44.1875 33.984375 37.640625 27.21875 
Q 31.109375 20.453125 19.1875 8.296875 
z
" id="DejaVuSans-50"/>
      </defs>
      <g transform="translate(406.437319 513.659474)scale(0.1 -0.1)">
       <use xlink:href="#DejaVuSans-50"/>
       <use x="63.623047" xlink:href="#DejaVuSans-48"/>
       <use x="127.246094" xlink:href="#DejaVuSans-48"/>
       <use x="190.869141" xlink:href="#DejaVuSans-48"/>
      </g>
     </g>
    </g>
    <g id="xtick_4">
     <g id="line2d_4">
      <g>
       <use style="stroke:#000000;stroke-width:0.8;" x="581.517257" xlink:href="#ma156f12680" y="499.061037"/>
      </g>
     </g>
     <g id="text_4">
      <!-- 3000 -->
      <defs>
       <path d="M 40.578125 39.3125 
Q 47.65625 37.796875 51.625 33 
Q 55.609375 28.21875 55.609375 21.1875 
Q 55.609375 10.40625 48.1875 4.484375 
Q 40.765625 -1.421875 27.09375 -1.421875 
Q 22.515625 -1.421875 17.65625 -0.515625 
Q 12.796875 0.390625 7.625 2.203125 
L 7.625 11.71875 
Q 11.71875 9.328125 16.59375 8.109375 
Q 21.484375 6.890625 26.8125 6.890625 
Q 36.078125 6.890625 40.9375 10.546875 
Q 45.796875 14.203125 45.796875 21.1875 
Q 45.796875 27.640625 41.28125 31.265625 
Q 36.765625 34.90625 28.71875 34.90625 
L 20.21875 34.90625 
L 20.21875 43.015625 
L 29.109375 43.015625 
Q 36.375 43.015625 40.234375 45.921875 
Q 44.09375 48.828125 44.09375 54.296875 
Q 44.09375 59.90625 40.109375 62.90625 
Q 36.140625 65.921875 28.71875 65.921875 
Q 24.65625 65.921875 20.015625 65.03125 
Q 15.375 64.15625 9.8125 62.3125 
L 9.8125 71.09375 
Q 15.4375 72.65625 20.34375 73.4375 
Q 25.25 74.21875 29.59375 74.21875 
Q 40.828125 74.21875 47.359375 69.109375 
Q 53.90625 64.015625 53.90625 55.328125 
Q 53.90625 49.265625 50.4375 45.09375 
Q 46.96875 40.921875 40.578125 39.3125 
z
" id="DejaVuSans-51"/>
      </defs>
      <g transform="translate(568.792257 513.659474)scale(0.1 -0.1)">
       <use xlink:href="#DejaVuSans-51"/>
       <use x="63.623047" xlink:href="#DejaVuSans-48"/>
       <use x="127.246094" xlink:href="#DejaVuSans-48"/>
       <use x="190.869141" xlink:href="#DejaVuSans-48"/>
      </g>
     </g>
    </g>
    <g id="xtick_5">
     <g id="line2d_5">
      <g>
       <use style="stroke:#000000;stroke-width:0.8;" x="743.872195" xlink:href="#ma156f12680" y="499.061037"/>
      </g>
     </g>
     <g id="text_5">
      <!-- 4000 -->
      <defs>
       <path d="M 37.796875 64.3125 
L 12.890625 25.390625 
L 37.796875 25.390625 
z
M 35.203125 72.90625 
L 47.609375 72.90625 
L 47.609375 25.390625 
L 58.015625 25.390625 
L 58.015625 17.1875 
L 47.609375 17.1875 
L 47.609375 0 
L 37.796875 0 
L 37.796875 17.1875 
L 4.890625 17.1875 
L 4.890625 26.703125 
z
" id="DejaVuSans-52"/>
      </defs>
      <g transform="translate(731.147195 513.659474)scale(0.1 -0.1)">
       <use xlink:href="#DejaVuSans-52"/>
       <use x="63.623047" xlink:href="#DejaVuSans-48"/>
       <use x="127.246094" xlink:href="#DejaVuSans-48"/>
       <use x="190.869141" xlink:href="#DejaVuSans-48"/>
      </g>
     </g>
    </g>
    <g id="xtick_6">
     <g id="line2d_6">
      <g>
       <use style="stroke:#000000;stroke-width:0.8;" x="906.227133" xlink:href="#ma156f12680" y="499.061037"/>
      </g>
     </g>
     <g id="text_6">
      <!-- 5000 -->
      <defs>
       <path d="M 10.796875 72.90625 
L 49.515625 72.90625 
L 49.515625 64.59375 
L 19.828125 64.59375 
L 19.828125 46.734375 
Q 21.96875 47.46875 24.109375 47.828125 
Q 26.265625 48.1875 28.421875 48.1875 
Q 40.625 48.1875 47.75 41.5 
Q 54.890625 34.8125 54.890625 23.390625 
Q 54.890625 11.625 47.5625 5.09375 
Q 40.234375 -1.421875 26.90625 -1.421875 
Q 22.3125 -1.421875 17.546875 -0.640625 
Q 12.796875 0.140625 7.71875 1.703125 
L 7.71875 11.625 
Q 12.109375 9.234375 16.796875 8.0625 
Q 21.484375 6.890625 26.703125 6.890625 
Q 35.15625 6.890625 40.078125 11.328125 
Q 45.015625 15.765625 45.015625 23.390625 
Q 45.015625 31 40.078125 35.4375 
Q 35.15625 39.890625 26.703125 39.890625 
Q 22.75 39.890625 18.8125 39.015625 
Q 14.890625 38.140625 10.796875 36.28125 
z
" id="DejaVuSans-53"/>
      </defs>
      <g transform="translate(893.502133 513.659474)scale(0.1 -0.1)">
       <use xlink:href="#DejaVuSans-53"/>
       <use x="63.623047" xlink:href="#DejaVuSans-48"/>
       <use x="127.246094" xlink:href="#DejaVuSans-48"/>
       <use x="190.869141" xlink:href="#DejaVuSans-48"/>
      </g>
     </g>
    </g>
    <g id="text_7">
     <!-- Time [ms] -->
     <defs>
      <path d="M -0.296875 72.90625 
L 61.375 72.90625 
L 61.375 64.59375 
L 35.5 64.59375 
L 35.5 0 
L 25.59375 0 
L 25.59375 64.59375 
L -0.296875 64.59375 
z
" id="DejaVuSans-84"/>
      <path d="M 9.421875 54.6875 
L 18.40625 54.6875 
L 18.40625 0 
L 9.421875 0 
z
M 9.421875 75.984375 
L 18.40625 75.984375 
L 18.40625 64.59375 
L 9.421875 64.59375 
z
" id="DejaVuSans-105"/>
      <path d="M 52 44.1875 
Q 55.375 50.25 60.0625 53.125 
Q 64.75 56 71.09375 56 
Q 79.640625 56 84.28125 50.015625 
Q 88.921875 44.046875 88.921875 33.015625 
L 88.921875 0 
L 79.890625 0 
L 79.890625 32.71875 
Q 79.890625 40.578125 77.09375 44.375 
Q 74.3125 48.1875 68.609375 48.1875 
Q 61.625 48.1875 57.5625 43.546875 
Q 53.515625 38.921875 53.515625 30.90625 
L 53.515625 0 
L 44.484375 0 
L 44.484375 32.71875 
Q 44.484375 40.625 41.703125 44.40625 
Q 38.921875 48.1875 33.109375 48.1875 
Q 26.21875 48.1875 22.15625 43.53125 
Q 18.109375 38.875 18.109375 30.90625 
L 18.109375 0 
L 9.078125 0 
L 9.078125 54.6875 
L 18.109375 54.6875 
L 18.109375 46.1875 
Q 21.1875 51.21875 25.484375 53.609375 
Q 29.78125 56 35.6875 56 
Q 41.65625 56 45.828125 52.96875 
Q 50 49.953125 52 44.1875 
z
" id="DejaVuSans-109"/>
      <path d="M 56.203125 29.59375 
L 56.203125 25.203125 
L 14.890625 25.203125 
Q 15.484375 15.921875 20.484375 11.0625 
Q 25.484375 6.203125 34.421875 6.203125 
Q 39.59375 6.203125 44.453125 7.46875 
Q 49.3125 8.734375 54.109375 11.28125 
L 54.109375 2.78125 
Q 49.265625 0.734375 44.1875 -0.34375 
Q 39.109375 -1.421875 33.890625 -1.421875 
Q 20.796875 -1.421875 13.15625 6.1875 
Q 5.515625 13.8125 5.515625 26.8125 
Q 5.515625 40.234375 12.765625 48.109375 
Q 20.015625 56 32.328125 56 
Q 43.359375 56 49.78125 48.890625 
Q 56.203125 41.796875 56.203125 29.59375 
z
M 47.21875 32.234375 
Q 47.125 39.59375 43.09375 43.984375 
Q 39.0625 48.390625 32.421875 48.390625 
Q 24.90625 48.390625 20.390625 44.140625 
Q 15.875 39.890625 15.1875 32.171875 
z
" id="DejaVuSans-101"/>
      <path id="DejaVuSans-32"/>
      <path d="M 8.59375 75.984375 
L 29.296875 75.984375 
L 29.296875 69 
L 17.578125 69 
L 17.578125 -6.203125 
L 29.296875 -6.203125 
L 29.296875 -13.1875 
L 8.59375 -13.1875 
z
" id="DejaVuSans-91"/>
      <path d="M 44.28125 53.078125 
L 44.28125 44.578125 
Q 40.484375 46.53125 36.375 47.5 
Q 32.28125 48.484375 27.875 48.484375 
Q 21.1875 48.484375 17.84375 46.4375 
Q 14.5 44.390625 14.5 40.28125 
Q 14.5 37.15625 16.890625 35.375 
Q 19.28125 33.59375 26.515625 31.984375 
L 29.59375 31.296875 
Q 39.15625 29.25 43.1875 25.515625 
Q 47.21875 21.78125 47.21875 15.09375 
Q 47.21875 7.46875 41.1875 3.015625 
Q 35.15625 -1.421875 24.609375 -1.421875 
Q 20.21875 -1.421875 15.453125 -0.5625 
Q 10.6875 0.296875 5.421875 2 
L 5.421875 11.28125 
Q 10.40625 8.6875 15.234375 7.390625 
Q 20.0625 6.109375 24.8125 6.109375 
Q 31.15625 6.109375 34.5625 8.28125 
Q 37.984375 10.453125 37.984375 14.40625 
Q 37.984375 18.0625 35.515625 20.015625 
Q 33.0625 21.96875 24.703125 23.78125 
L 21.578125 24.515625 
Q 13.234375 26.265625 9.515625 29.90625 
Q 5.8125 33.546875 5.8125 39.890625 
Q 5.8125 47.609375 11.28125 51.796875 
Q 16.75 56 26.8125 56 
Q 31.78125 56 36.171875 55.265625 
Q 40.578125 54.546875 44.28125 53.078125 
z
" id="DejaVuSans-115"/>
      <path d="M 30.421875 75.984375 
L 30.421875 -13.1875 
L 9.71875 -13.1875 
L 9.71875 -6.203125 
L 21.390625 -6.203125 
L 21.390625 69 
L 9.71875 69 
L 9.71875 75.984375 
z
" id="DejaVuSans-93"/>
     </defs>
     <g transform="translate(454.912031 533.416349)scale(0.18 -0.18)">
      <use xlink:href="#DejaVuSans-84"/>
      <use x="57.958984" xlink:href="#DejaVuSans-105"/>
      <use x="85.742188" xlink:href="#DejaVuSans-109"/>
      <use x="183.154297" xlink:href="#DejaVuSans-101"/>
      <use x="244.677734" xlink:href="#DejaVuSans-32"/>
      <use x="276.464844" xlink:href="#DejaVuSans-91"/>
      <use x="315.478516" xlink:href="#DejaVuSans-109"/>
      <use x="412.890625" xlink:href="#DejaVuSans-115"/>
      <use x="464.990234" xlink:href="#DejaVuSans-93"/>
     </g>
    </g>
   </g>
   <g id="matplotlib.axis_2">
    <g id="ytick_1">
     <g id="line2d_7">
      <defs>
       <path d="M 0 0 
L -3.5 0 
" id="md0aa9c85a2" style="stroke:#000000;stroke-width:0.8;"/>
      </defs>
      <g>
       <use style="stroke:#000000;stroke-width:0.8;" x="53.870625" xlink:href="#md0aa9c85a2" y="461.981037"/>
      </g>
     </g>
     <g id="text_8">
      <!-- 300 -->
      <g transform="translate(27.783125 465.780256)scale(0.1 -0.1)">
       <use xlink:href="#DejaVuSans-51"/>
       <use x="63.623047" xlink:href="#DejaVuSans-48"/>
       <use x="127.246094" xlink:href="#DejaVuSans-48"/>
      </g>
     </g>
    </g>
    <g id="ytick_2">
     <g id="line2d_8">
      <g>
       <use style="stroke:#000000;stroke-width:0.8;" x="53.870625" xlink:href="#md0aa9c85a2" y="396.526491"/>
      </g>
     </g>
     <g id="text_9">
      <!-- 400 -->
      <g transform="translate(27.783125 400.32571)scale(0.1 -0.1)">
       <use xlink:href="#DejaVuSans-52"/>
       <use x="63.623047" xlink:href="#DejaVuSans-48"/>
       <use x="127.246094" xlink:href="#DejaVuSans-48"/>
      </g>
     </g>
    </g>
    <g id="ytick_3">
     <g id="line2d_9">
      <g>
       <use style="stroke:#000000;stroke-width:0.8;" x="53.870625" xlink:href="#md0aa9c85a2" y="331.071946"/>
      </g>
     </g>
     <g id="text_10">
      <!-- 500 -->
      <g transform="translate(27.783125 334.871165)scale(0.1 -0.1)">
       <use xlink:href="#DejaVuSans-53"/>
       <use x="63.623047" xlink:href="#DejaVuSans-48"/>
       <use x="127.246094" xlink:href="#DejaVuSans-48"/>
      </g>
     </g>
    </g>
    <g id="ytick_4">
     <g id="line2d_10">
      <g>
       <use style="stroke:#000000;stroke-width:0.8;" x="53.870625" xlink:href="#md0aa9c85a2" y="265.617401"/>
      </g>
     </g>
     <g id="text_11">
      <!-- 600 -->
      <defs>
       <path d="M 33.015625 40.375 
Q 26.375 40.375 22.484375 35.828125 
Q 18.609375 31.296875 18.609375 23.390625 
Q 18.609375 15.53125 22.484375 10.953125 
Q 26.375 6.390625 33.015625 6.390625 
Q 39.65625 6.390625 43.53125 10.953125 
Q 47.40625 15.53125 47.40625 23.390625 
Q 47.40625 31.296875 43.53125 35.828125 
Q 39.65625 40.375 33.015625 40.375 
z
M 52.59375 71.296875 
L 52.59375 62.3125 
Q 48.875 64.0625 45.09375 64.984375 
Q 41.3125 65.921875 37.59375 65.921875 
Q 27.828125 65.921875 22.671875 59.328125 
Q 17.53125 52.734375 16.796875 39.40625 
Q 19.671875 43.65625 24.015625 45.921875 
Q 28.375 48.1875 33.59375 48.1875 
Q 44.578125 48.1875 50.953125 41.515625 
Q 57.328125 34.859375 57.328125 23.390625 
Q 57.328125 12.15625 50.6875 5.359375 
Q 44.046875 -1.421875 33.015625 -1.421875 
Q 20.359375 -1.421875 13.671875 8.265625 
Q 6.984375 17.96875 6.984375 36.375 
Q 6.984375 53.65625 15.1875 63.9375 
Q 23.390625 74.21875 37.203125 74.21875 
Q 40.921875 74.21875 44.703125 73.484375 
Q 48.484375 72.75 52.59375 71.296875 
z
" id="DejaVuSans-54"/>
      </defs>
      <g transform="translate(27.783125 269.416619)scale(0.1 -0.1)">
       <use xlink:href="#DejaVuSans-54"/>
       <use x="63.623047" xlink:href="#DejaVuSans-48"/>
       <use x="127.246094" xlink:href="#DejaVuSans-48"/>
      </g>
     </g>
    </g>
    <g id="ytick_5">
     <g id="line2d_11">
      <g>
       <use style="stroke:#000000;stroke-width:0.8;" x="53.870625" xlink:href="#md0aa9c85a2" y="200.162855"/>
      </g>
     </g>
     <g id="text_12">
      <!-- 700 -->
      <defs>
       <path d="M 8.203125 72.90625 
L 55.078125 72.90625 
L 55.078125 68.703125 
L 28.609375 0 
L 18.3125 0 
L 43.21875 64.59375 
L 8.203125 64.59375 
z
" id="DejaVuSans-55"/>
      </defs>
      <g transform="translate(27.783125 203.962074)scale(0.1 -0.1)">
       <use xlink:href="#DejaVuSans-55"/>
       <use x="63.623047" xlink:href="#DejaVuSans-48"/>
       <use x="127.246094" xlink:href="#DejaVuSans-48"/>
      </g>
     </g>
    </g>
    <g id="ytick_6">
     <g id="line2d_12">
      <g>
       <use style="stroke:#000000;stroke-width:0.8;" x="53.870625" xlink:href="#md0aa9c85a2" y="134.70831"/>
      </g>
     </g>
     <g id="text_13">
      <!-- 800 -->
      <defs>
       <path d="M 31.78125 34.625 
Q 24.75 34.625 20.71875 30.859375 
Q 16.703125 27.09375 16.703125 20.515625 
Q 16.703125 13.921875 20.71875 10.15625 
Q 24.75 6.390625 31.78125 6.390625 
Q 38.8125 6.390625 42.859375 10.171875 
Q 46.921875 13.96875 46.921875 20.515625 
Q 46.921875 27.09375 42.890625 30.859375 
Q 38.875 34.625 31.78125 34.625 
z
M 21.921875 38.8125 
Q 15.578125 40.375 12.03125 44.71875 
Q 8.5 49.078125 8.5 55.328125 
Q 8.5 64.0625 14.71875 69.140625 
Q 20.953125 74.21875 31.78125 74.21875 
Q 42.671875 74.21875 48.875 69.140625 
Q 55.078125 64.0625 55.078125 55.328125 
Q 55.078125 49.078125 51.53125 44.71875 
Q 48 40.375 41.703125 38.8125 
Q 48.828125 37.15625 52.796875 32.3125 
Q 56.78125 27.484375 56.78125 20.515625 
Q 56.78125 9.90625 50.3125 4.234375 
Q 43.84375 -1.421875 31.78125 -1.421875 
Q 19.734375 -1.421875 13.25 4.234375 
Q 6.78125 9.90625 6.78125 20.515625 
Q 6.78125 27.484375 10.78125 32.3125 
Q 14.796875 37.15625 21.921875 38.8125 
z
M 18.3125 54.390625 
Q 18.3125 48.734375 21.84375 45.5625 
Q 25.390625 42.390625 31.78125 42.390625 
Q 38.140625 42.390625 41.71875 45.5625 
Q 45.3125 48.734375 45.3125 54.390625 
Q 45.3125 60.0625 41.71875 63.234375 
Q 38.140625 66.40625 31.78125 66.40625 
Q 25.390625 66.40625 21.84375 63.234375 
Q 18.3125 60.0625 18.3125 54.390625 
z
" id="DejaVuSans-56"/>
      </defs>
      <g transform="translate(27.783125 138.507528)scale(0.1 -0.1)">
       <use xlink:href="#DejaVuSans-56"/>
       <use x="63.623047" xlink:href="#DejaVuSans-48"/>
       <use x="127.246094" xlink:href="#DejaVuSans-48"/>
      </g>
     </g>
    </g>
    <g id="ytick_7">
     <g id="line2d_13">
      <g>
       <use style="stroke:#000000;stroke-width:0.8;" x="53.870625" xlink:href="#md0aa9c85a2" y="69.253764"/>
      </g>
     </g>
     <g id="text_14">
      <!-- 900 -->
      <defs>
       <path d="M 10.984375 1.515625 
L 10.984375 10.5 
Q 14.703125 8.734375 18.5 7.8125 
Q 22.3125 6.890625 25.984375 6.890625 
Q 35.75 6.890625 40.890625 13.453125 
Q 46.046875 20.015625 46.78125 33.40625 
Q 43.953125 29.203125 39.59375 26.953125 
Q 35.25 24.703125 29.984375 24.703125 
Q 19.046875 24.703125 12.671875 31.3125 
Q 6.296875 37.9375 6.296875 49.421875 
Q 6.296875 60.640625 12.9375 67.421875 
Q 19.578125 74.21875 30.609375 74.21875 
Q 43.265625 74.21875 49.921875 64.515625 
Q 56.59375 54.828125 56.59375 36.375 
Q 56.59375 19.140625 48.40625 8.859375 
Q 40.234375 -1.421875 26.421875 -1.421875 
Q 22.703125 -1.421875 18.890625 -0.6875 
Q 15.09375 0.046875 10.984375 1.515625 
z
M 30.609375 32.421875 
Q 37.25 32.421875 41.125 36.953125 
Q 45.015625 41.5 45.015625 49.421875 
Q 45.015625 57.28125 41.125 61.84375 
Q 37.25 66.40625 30.609375 66.40625 
Q 23.96875 66.40625 20.09375 61.84375 
Q 16.21875 57.28125 16.21875 49.421875 
Q 16.21875 41.5 20.09375 36.953125 
Q 23.96875 32.421875 30.609375 32.421875 
z
" id="DejaVuSans-57"/>
      </defs>
      <g transform="translate(27.783125 73.052983)scale(0.1 -0.1)">
       <use xlink:href="#DejaVuSans-57"/>
       <use x="63.623047" xlink:href="#DejaVuSans-48"/>
       <use x="127.246094" xlink:href="#DejaVuSans-48"/>
      </g>
     </g>
    </g>
    <g id="ytick_8">
     <g id="line2d_14">
      <g>
       <use style="stroke:#000000;stroke-width:0.8;" x="53.870625" xlink:href="#md0aa9c85a2" y="3.799219"/>
      </g>
     </g>
     <g id="text_15">
      <!-- 1000 -->
      <g transform="translate(21.420625 7.598438)scale(0.1 -0.1)">
       <use xlink:href="#DejaVuSans-49"/>
       <use x="63.623047" xlink:href="#DejaVuSans-48"/>
       <use x="127.246094" xlink:href="#DejaVuSans-48"/>
       <use x="190.869141" xlink:href="#DejaVuSans-48"/>
      </g>
     </g>
    </g>
    <g id="text_16">
     <!-- Raw pulse value -->
     <defs>
      <path d="M 44.390625 34.1875 
Q 47.5625 33.109375 50.5625 29.59375 
Q 53.5625 26.078125 56.59375 19.921875 
L 66.609375 0 
L 56 0 
L 46.6875 18.703125 
Q 43.0625 26.03125 39.671875 28.421875 
Q 36.28125 30.8125 30.421875 30.8125 
L 19.671875 30.8125 
L 19.671875 0 
L 9.8125 0 
L 9.8125 72.90625 
L 32.078125 72.90625 
Q 44.578125 72.90625 50.734375 67.671875 
Q 56.890625 62.453125 56.890625 51.90625 
Q 56.890625 45.015625 53.6875 40.46875 
Q 50.484375 35.9375 44.390625 34.1875 
z
M 19.671875 64.796875 
L 19.671875 38.921875 
L 32.078125 38.921875 
Q 39.203125 38.921875 42.84375 42.21875 
Q 46.484375 45.515625 46.484375 51.90625 
Q 46.484375 58.296875 42.84375 61.546875 
Q 39.203125 64.796875 32.078125 64.796875 
z
" id="DejaVuSans-82"/>
      <path d="M 34.28125 27.484375 
Q 23.390625 27.484375 19.1875 25 
Q 14.984375 22.515625 14.984375 16.5 
Q 14.984375 11.71875 18.140625 8.90625 
Q 21.296875 6.109375 26.703125 6.109375 
Q 34.1875 6.109375 38.703125 11.40625 
Q 43.21875 16.703125 43.21875 25.484375 
L 43.21875 27.484375 
z
M 52.203125 31.203125 
L 52.203125 0 
L 43.21875 0 
L 43.21875 8.296875 
Q 40.140625 3.328125 35.546875 0.953125 
Q 30.953125 -1.421875 24.3125 -1.421875 
Q 15.921875 -1.421875 10.953125 3.296875 
Q 6 8.015625 6 15.921875 
Q 6 25.140625 12.171875 29.828125 
Q 18.359375 34.515625 30.609375 34.515625 
L 43.21875 34.515625 
L 43.21875 35.40625 
Q 43.21875 41.609375 39.140625 45 
Q 35.0625 48.390625 27.6875 48.390625 
Q 23 48.390625 18.546875 47.265625 
Q 14.109375 46.140625 10.015625 43.890625 
L 10.015625 52.203125 
Q 14.9375 54.109375 19.578125 55.046875 
Q 24.21875 56 28.609375 56 
Q 40.484375 56 46.34375 49.84375 
Q 52.203125 43.703125 52.203125 31.203125 
z
" id="DejaVuSans-97"/>
      <path d="M 4.203125 54.6875 
L 13.1875 54.6875 
L 24.421875 12.015625 
L 35.59375 54.6875 
L 46.1875 54.6875 
L 57.421875 12.015625 
L 68.609375 54.6875 
L 77.59375 54.6875 
L 63.28125 0 
L 52.6875 0 
L 40.921875 44.828125 
L 29.109375 0 
L 18.5 0 
z
" id="DejaVuSans-119"/>
      <path d="M 18.109375 8.203125 
L 18.109375 -20.796875 
L 9.078125 -20.796875 
L 9.078125 54.6875 
L 18.109375 54.6875 
L 18.109375 46.390625 
Q 20.953125 51.265625 25.265625 53.625 
Q 29.59375 56 35.59375 56 
Q 45.5625 56 51.78125 48.09375 
Q 58.015625 40.1875 58.015625 27.296875 
Q 58.015625 14.40625 51.78125 6.484375 
Q 45.5625 -1.421875 35.59375 -1.421875 
Q 29.59375 -1.421875 25.265625 0.953125 
Q 20.953125 3.328125 18.109375 8.203125 
z
M 48.6875 27.296875 
Q 48.6875 37.203125 44.609375 42.84375 
Q 40.53125 48.484375 33.40625 48.484375 
Q 26.265625 48.484375 22.1875 42.84375 
Q 18.109375 37.203125 18.109375 27.296875 
Q 18.109375 17.390625 22.1875 11.75 
Q 26.265625 6.109375 33.40625 6.109375 
Q 40.53125 6.109375 44.609375 11.75 
Q 48.6875 17.390625 48.6875 27.296875 
z
" id="DejaVuSans-112"/>
      <path d="M 8.5 21.578125 
L 8.5 54.6875 
L 17.484375 54.6875 
L 17.484375 21.921875 
Q 17.484375 14.15625 20.5 10.265625 
Q 23.53125 6.390625 29.59375 6.390625 
Q 36.859375 6.390625 41.078125 11.03125 
Q 45.3125 15.671875 45.3125 23.6875 
L 45.3125 54.6875 
L 54.296875 54.6875 
L 54.296875 0 
L 45.3125 0 
L 45.3125 8.40625 
Q 42.046875 3.421875 37.71875 1 
Q 33.40625 -1.421875 27.6875 -1.421875 
Q 18.265625 -1.421875 13.375 4.4375 
Q 8.5 10.296875 8.5 21.578125 
z
M 31.109375 56 
z
" id="DejaVuSans-117"/>
      <path d="M 9.421875 75.984375 
L 18.40625 75.984375 
L 18.40625 0 
L 9.421875 0 
z
" id="DejaVuSans-108"/>
      <path d="M 2.984375 54.6875 
L 12.5 54.6875 
L 29.59375 8.796875 
L 46.6875 54.6875 
L 56.203125 54.6875 
L 35.6875 0 
L 23.484375 0 
z
" id="DejaVuSans-118"/>
     </defs>
     <g transform="translate(13.677187 322.956349)rotate(-90)scale(0.18 -0.18)">
      <use xlink:href="#DejaVuSans-82"/>
      <use x="67.232422" xlink:href="#DejaVuSans-97"/>
      <use x="128.511719" xlink:href="#DejaVuSans-119"/>
      <use x="210.298828" xlink:href="#DejaVuSans-32"/>
      <use x="242.085938" xlink:href="#DejaVuSans-112"/>
      <use x="305.5625" xlink:href="#DejaVuSans-117"/>
      <use x="368.941406" xlink:href="#DejaVuSans-108"/>
      <use x="396.724609" xlink:href="#DejaVuSans-115"/>
      <use x="448.824219" xlink:href="#DejaVuSans-101"/>
      <use x="510.347656" xlink:href="#DejaVuSans-32"/>
      <use x="542.134766" xlink:href="#DejaVuSans-118"/>
      <use x="601.314453" xlink:href="#DejaVuSans-97"/>
      <use x="662.59375" xlink:href="#DejaVuSans-108"/>
      <use x="690.376953" xlink:href="#DejaVuSans-117"/>
      <use x="753.755859" xlink:href="#DejaVuSans-101"/>
     </g>
    </g>
   </g>
   <g id="line2d_15">
    <path clip-path="url(#pce890c00db)" d="M 94.452443 115.071946 
L 96.181199 118.999219 
L 97.907356 136.017401 
L 99.634813 160.890128 
L 101.362919 190.999219 
L 104.814585 264.30831 
L 108.268199 333.690128 
L 109.995006 361.181037 
L 111.723112 385.399219 
L 113.447971 406.344673 
L 115.175427 418.781037 
L 116.900286 429.90831 
L 118.627743 437.10831 
L 120.355199 436.453764 
L 122.080058 434.490128 
L 123.808814 425.981037 
L 125.534971 412.235582 
L 127.261778 401.762855 
L 130.714743 367.726491 
L 132.4422 353.981037 
L 134.169656 337.617401 
L 135.897113 326.490128 
L 139.349428 309.471946 
L 141.078184 307.50831 
L 142.80564 307.50831 
L 144.530499 309.471946 
L 146.256657 317.326491 
L 147.982815 323.217401 
L 149.710271 331.071946 
L 151.437728 342.199219 
L 153.162586 350.053764 
L 154.887445 359.871946 
L 156.614902 368.381037 
L 158.339761 372.30831 
L 161.794674 382.781037 
L 163.521481 382.126491 
L 165.249587 385.399219 
L 166.975095 384.744673 
L 168.701902 381.471946 
L 170.426761 380.817401 
L 172.153568 376.235582 
L 173.881674 373.617401 
L 175.607182 372.962855 
L 177.33399 367.726491 
L 179.061446 365.10831 
L 180.786954 363.799219 
L 182.513112 360.526491 
L 184.239919 359.217401 
L 185.966726 353.326491 
L 187.694832 342.199219 
L 189.419691 325.835582 
L 191.145199 298.344673 
L 192.869409 262.999219 
L 194.596865 224.381037 
L 196.324322 181.835582 
L 198.049181 144.526491 
L 199.776637 115.071946 
L 201.504094 92.817401 
L 203.23155 85.617401 
L 204.959007 88.890128 
L 206.684515 102.635582 
L 208.411972 130.126491 
L 210.140078 160.235582 
L 211.865586 194.271946 
L 213.592393 234.199219 
L 215.317901 268.235582 
L 217.046007 305.544673 
L 218.773464 338.926491 
L 222.223182 389.981037 
L 223.950638 410.271946 
L 225.675497 424.671946 
L 227.402954 437.762855 
L 229.127813 441.690128 
L 230.855918 441.035582 
L 232.584024 437.10831 
L 234.311481 425.981037 
L 237.765095 395.871946 
L 239.491902 375.581037 
L 244.669726 325.181037 
L 246.397183 314.053764 
L 248.122041 304.235582 
L 249.848849 298.344673 
L 253.304411 300.962855 
L 255.031868 305.544673 
L 256.759324 314.70831 
L 258.486781 320.599219 
L 261.941044 342.199219 
L 263.66915 350.053764 
L 265.394659 359.871946 
L 267.121466 367.071946 
L 268.848922 372.30831 
L 270.577028 378.853764 
L 272.302536 382.126491 
L 274.027395 384.744673 
L 275.752254 388.017401 
L 279.207167 389.326491 
L 280.934624 390.635582 
L 282.659483 386.70831 
L 286.114396 384.090128 
L 287.839255 379.50831 
L 289.566711 375.581037 
L 291.292219 366.417401 
L 293.019676 350.053764 
L 294.747782 328.453764 
L 296.472641 293.762855 
L 298.200097 253.181037 
L 299.927554 209.981037 
L 301.65501 162.199219 
L 303.382467 123.581037 
L 305.107975 93.471946 
L 306.835432 73.181037 
L 308.563538 69.90831 
L 310.290994 77.10831 
L 312.018451 98.70831 
L 313.74331 130.781037 
L 315.470117 168.744673 
L 317.198223 211.290128 
L 318.923731 257.10831 
L 322.376046 338.271946 
L 324.103503 375.581037 
L 325.829011 404.381037 
L 327.555169 431.217401 
L 329.281976 451.50831 
L 332.737539 474.417401 
L 334.464995 474.417401 
L 336.192452 469.181037 
L 337.919259 461.326491 
L 341.370925 425.981037 
L 343.095784 406.999219 
L 344.820643 384.090128 
L 346.54745 365.762855 
L 348.275556 348.744673 
L 350.001713 333.035582 
L 351.72852 323.871946 
L 353.456626 314.053764 
L 355.182784 308.162855 
L 356.910241 308.162855 
L 358.636398 308.817401 
L 360.365154 312.090128 
L 362.09261 317.326491 
L 363.817469 321.90831 
L 365.542977 329.10831 
L 367.267187 337.617401 
L 368.993994 341.544673 
L 370.7221 349.399219 
L 372.448258 353.326491 
L 374.173116 355.944673 
L 375.900573 361.181037 
L 377.626731 360.526491 
L 379.354187 360.526491 
L 381.079696 361.181037 
L 382.807152 357.253764 
L 384.53266 356.599219 
L 386.260117 354.635582 
L 387.984976 350.053764 
L 389.711133 348.744673 
L 391.43859 346.126491 
L 393.166047 344.162855 
L 394.890905 345.471946 
L 396.618362 342.853764 
L 398.345818 338.926491 
L 400.070677 330.417401 
L 401.798134 308.817401 
L 403.522993 279.362855 
L 405.251099 239.435582 
L 410.432819 96.090128 
L 412.160275 56.817401 
L 413.887732 31.290128 
L 415.615838 22.781037 
L 417.340047 26.70831 
L 419.067504 43.726491 
L 420.79496 65.326491 
L 422.520469 96.744673 
L 425.973434 175.290128 
L 429.429645 262.999219 
L 432.881961 340.890128 
L 434.609417 371.653764 
L 436.337523 397.835582 
L 438.065629 421.399219 
L 439.793086 434.490128 
L 441.517945 442.999219 
L 443.243453 446.271946 
L 444.969611 442.344673 
L 446.697717 434.490128 
L 448.422576 422.70831 
L 450.149383 405.035582 
L 451.877489 388.671946 
L 453.602347 370.344673 
L 455.329804 350.70831 
L 457.055312 337.617401 
L 458.782769 322.562855 
L 460.510875 310.781037 
L 462.236383 306.199219 
L 463.96319 300.30831 
L 465.690647 302.271946 
L 467.419402 306.853764 
L 469.146859 310.126491 
L 470.871718 319.944673 
L 472.598525 327.799219 
L 474.324033 336.962855 
L 476.051489 348.090128 
L 477.777647 354.635582 
L 481.230612 370.344673 
L 484.683577 378.199219 
L 486.409735 381.471946 
L 488.134593 381.471946 
L 491.589506 382.781037 
L 493.316963 380.817401 
L 495.04442 380.162855 
L 496.770577 378.199219 
L 498.498034 374.271946 
L 500.22549 374.926491 
L 501.950349 370.999219 
L 503.678455 368.381037 
L 505.406561 367.726491 
L 507.13142 362.490128 
L 508.858877 360.526491 
L 510.583735 353.326491 
L 512.312491 335.653764 
L 514.039947 310.781037 
L 515.767404 272.817401 
L 517.49486 226.999219 
L 519.222317 177.90831 
L 520.949773 125.544673 
L 522.67723 79.071946 
L 524.402738 45.690128 
L 526.129545 24.744673 
L 527.857002 24.744673 
L 529.581861 36.526491 
L 531.309317 56.162855 
L 533.036774 88.235582 
L 534.765529 126.853764 
L 536.492986 168.744673 
L 538.218494 216.526491 
L 541.672758 301.617401 
L 543.401513 342.199219 
L 545.12897 374.271946 
L 546.856426 402.417401 
L 548.583883 425.981037 
L 550.31004 441.035582 
L 552.036848 453.471946 
L 553.762356 458.70831 
L 555.488514 456.090128 
L 557.21597 450.853764 
L 558.943427 438.417401 
L 562.39834 406.999219 
L 564.123199 386.053764 
L 565.851305 367.071946 
L 569.306867 333.690128 
L 571.034324 321.90831 
L 572.760481 314.053764 
L 574.487288 307.50831 
L 577.940903 310.126491 
L 579.665112 312.090128 
L 581.392569 319.290128 
L 583.118077 324.526491 
L 584.844884 332.381037 
L 586.569743 344.162855 
L 588.297849 352.671946 
L 590.025955 363.144673 
L 591.753411 370.999219 
L 593.480868 376.235582 
L 595.206376 384.090128 
L 596.933833 387.362855 
L 598.661939 389.326491 
L 600.389395 392.599219 
L 602.116852 390.635582 
L 603.843009 390.635582 
L 605.569817 391.290128 
L 607.295325 387.362855 
L 610.746991 383.435582 
L 612.472499 379.50831 
L 614.197358 378.199219 
L 615.924815 376.235582 
L 617.649673 372.962855 
L 619.37648 372.30831 
L 621.104586 370.344673 
L 622.829445 367.071946 
L 624.556252 367.726491 
L 626.28306 361.181037 
L 628.007918 350.70831 
L 629.735375 332.381037 
L 631.460883 298.344673 
L 633.18769 259.071946 
L 634.915147 211.944673 
L 636.642603 159.581037 
L 638.37006 114.417401 
L 640.094919 74.490128 
L 641.823025 48.30831 
L 643.55178 38.490128 
L 645.277288 40.453764 
L 647.002797 58.126491 
L 648.729604 88.235582 
L 650.45706 124.890128 
L 652.184517 170.053764 
L 655.637482 264.962855 
L 657.365588 310.126491 
L 659.093044 351.362855 
L 660.820501 386.053764 
L 662.54536 417.471946 
L 664.272167 441.035582 
L 666.000273 458.053764 
L 667.725132 472.453764 
L 669.452588 476.381037 
L 671.178746 475.726491 
L 672.907501 470.490128 
L 676.361115 443.653764 
L 678.085974 424.017401 
L 679.813431 401.762855 
L 681.53829 383.435582 
L 683.265746 361.835582 
L 684.991255 344.817401 
L 686.718062 332.381037 
L 688.445518 318.635582 
L 690.171676 311.435582 
L 691.899132 308.817401 
L 693.626589 308.162855 
L 695.355344 313.399219 
L 697.082801 319.290128 
L 698.810257 326.490128 
L 700.535116 338.271946 
L 703.985483 356.599219 
L 705.710992 367.071946 
L 707.435851 374.271946 
L 709.163957 380.817401 
L 710.892063 388.671946 
L 714.344378 395.217401 
L 716.069237 397.835582 
L 717.797992 395.871946 
L 719.525449 396.526491 
L 721.250308 395.217401 
L 722.979063 391.290128 
L 724.703922 389.981037 
L 726.432028 385.399219 
L 728.160134 382.126491 
L 729.886291 380.817401 
L 731.613099 375.581037 
L 735.066063 371.653764 
L 736.79352 366.417401 
L 738.519678 361.835582 
L 740.247784 348.090128 
L 741.97589 324.526491 
L 743.703346 294.417401 
L 745.428854 254.490128 
L 748.884417 171.362855 
L 750.611873 132.744673 
L 752.33933 104.599219 
L 754.068085 89.544673 
L 755.793594 84.962855 
L 757.5217 96.090128 
L 759.249156 118.344673 
L 760.976613 147.144673 
L 764.431526 228.30831 
L 767.886439 312.090128 
L 769.613895 348.744673 
L 771.341352 382.781037 
L 773.068808 413.544673 
L 774.794317 435.799219 
L 776.521124 454.781037 
L 778.247282 467.217401 
L 779.975387 472.453764 
L 781.703493 475.071946 
L 783.428352 468.526491 
L 785.157108 457.399219 
L 786.881967 444.30831 
L 788.610073 426.635582 
L 790.338178 405.690128 
L 792.065635 389.326491 
L 793.792442 369.035582 
L 795.520548 353.326491 
L 798.972863 328.453764 
L 800.70032 323.217401 
L 802.429075 319.290128 
L 804.156532 317.326491 
L 805.883988 321.90831 
L 807.611445 324.526491 
L 809.338902 332.381037 
L 811.067008 341.544673 
L 812.795114 348.090128 
L 814.520622 356.599219 
L 816.247429 365.762855 
L 817.972288 371.653764 
L 819.699095 378.853764 
L 821.427201 382.781037 
L 823.15206 385.399219 
L 824.880166 389.326491 
L 826.608272 389.981037 
L 828.335728 389.326491 
L 830.062535 390.635582 
L 831.789342 388.017401 
L 833.51615 384.744673 
L 835.244255 384.090128 
L 836.969114 379.50831 
L 840.42143 374.271946 
L 842.149536 370.344673 
L 843.877642 370.344673 
L 847.329957 365.10831 
L 849.057414 365.10831 
L 850.78487 363.144673 
L 852.511028 362.490128 
L 854.237186 362.490128 
L 855.965292 357.90831 
L 857.693397 352.017401 
L 859.418906 339.581037 
L 861.145713 314.70831 
L 862.870572 285.253764 
L 864.599327 244.671946 
L 866.326784 201.471946 
L 868.05424 161.544673 
L 869.780398 126.199219 
L 871.505257 101.326491 
L 873.234012 91.50831 
L 874.961469 90.853764 
L 876.686328 105.253764 
L 878.414434 130.126491 
L 880.142539 160.890128 
L 885.322311 277.399219 
L 887.049768 317.981037 
L 888.775926 351.362855 
L 892.230839 406.344673 
L 893.956347 424.671946 
L 895.683804 439.726491 
L 897.418404 451.50831 
L 899.152354 454.781037 
L 900.886955 455.435582 
L 902.620905 451.50831 
L 906.088807 431.217401 
L 906.088807 431.217401 
" style="fill:none;stroke:#ff0000;stroke-linecap:square;stroke-width:1.5;"/>
   </g>
   <g id="patch_3">
    <path d="M 53.870625 499.061037 
L 53.870625 0.101037 
" style="fill:none;stroke:#000000;stroke-linecap:square;stroke-linejoin:miter;stroke-width:0.8;"/>
   </g>
   <g id="patch_4">
    <path d="M 946.670625 499.061037 
L 946.670625 0.101037 
" style="fill:none;stroke:#000000;stroke-linecap:square;stroke-linejoin:miter;stroke-width:0.8;"/>
   </g>
   <g id="patch_5">
    <path d="M 53.870625 499.061037 
L 946.670625 499.061037 
" style="fill:none;stroke:#000000;stroke-linecap:square;stroke-linejoin:miter;stroke-width:0.8;"/>
   </g>
   <g id="patch_6">
    <path d="M 53.870625 0.101037 
L 946.670625 0.101037 
" style="fill:none;stroke:#000000;stroke-linecap:square;stroke-linejoin:miter;stroke-width:0.8;"/>
   </g>
   <g id="legend_1">
    <g id="patch_7">
     <path d="M 702.734063 67.342287 
L 934.070625 67.342287 
Q 937.670625 67.342287 937.670625 63.742287 
L 937.670625 12.701037 
Q 937.670625 9.101037 934.070625 9.101037 
L 702.734063 9.101037 
Q 699.134063 9.101037 699.134063 12.701037 
L 699.134063 63.742287 
Q 699.134063 67.342287 702.734063 67.342287 
z
" style="fill:#ffffff;opacity:0.8;stroke:#cccccc;stroke-linejoin:miter;"/>
    </g>
    <g id="line2d_16">
     <path d="M 706.334063 23.678224 
L 742.334063 23.678224 
" style="fill:none;stroke:#ff0000;stroke-linecap:square;stroke-width:1.5;"/>
    </g>
    <g id="line2d_17"/>
    <g id="text_17">
     <!-- Raw pulse value -->
     <g transform="translate(756.734063 29.978224)scale(0.18 -0.18)">
      <use xlink:href="#DejaVuSans-82"/>
      <use x="67.232422" xlink:href="#DejaVuSans-97"/>
      <use x="128.511719" xlink:href="#DejaVuSans-119"/>
      <use x="210.298828" xlink:href="#DejaVuSans-32"/>
      <use x="242.085938" xlink:href="#DejaVuSans-112"/>
      <use x="305.5625" xlink:href="#DejaVuSans-117"/>
      <use x="368.941406" xlink:href="#DejaVuSans-108"/>
      <use x="396.724609" xlink:href="#DejaVuSans-115"/>
      <use x="448.824219" xlink:href="#DejaVuSans-101"/>
      <use x="510.347656" xlink:href="#DejaVuSans-32"/>
      <use x="542.134766" xlink:href="#DejaVuSans-118"/>
      <use x="601.314453" xlink:href="#DejaVuSans-97"/>
      <use x="662.59375" xlink:href="#DejaVuSans-108"/>
      <use x="690.376953" xlink:href="#DejaVuSans-117"/>
      <use x="753.755859" xlink:href="#DejaVuSans-101"/>
     </g>
    </g>
    <g id="line2d_18">
     <path d="M 706.334063 50.098849 
L 742.334063 50.098849 
" style="fill:none;stroke:#0000ff;stroke-dasharray:5.55,2.4;stroke-dashoffset:0;stroke-width:1.5;"/>
    </g>
    <g id="line2d_19"/>
    <g id="text_18">
     <!-- Pseudo pulse value -->
     <defs>
      <path d="M 19.671875 64.796875 
L 19.671875 37.40625 
L 32.078125 37.40625 
Q 38.96875 37.40625 42.71875 40.96875 
Q 46.484375 44.53125 46.484375 51.125 
Q 46.484375 57.671875 42.71875 61.234375 
Q 38.96875 64.796875 32.078125 64.796875 
z
M 9.8125 72.90625 
L 32.078125 72.90625 
Q 44.34375 72.90625 50.609375 67.359375 
Q 56.890625 61.8125 56.890625 51.125 
Q 56.890625 40.328125 50.609375 34.8125 
Q 44.34375 29.296875 32.078125 29.296875 
L 19.671875 29.296875 
L 19.671875 0 
L 9.8125 0 
z
" id="DejaVuSans-80"/>
      <path d="M 45.40625 46.390625 
L 45.40625 75.984375 
L 54.390625 75.984375 
L 54.390625 0 
L 45.40625 0 
L 45.40625 8.203125 
Q 42.578125 3.328125 38.25 0.953125 
Q 33.9375 -1.421875 27.875 -1.421875 
Q 17.96875 -1.421875 11.734375 6.484375 
Q 5.515625 14.40625 5.515625 27.296875 
Q 5.515625 40.1875 11.734375 48.09375 
Q 17.96875 56 27.875 56 
Q 33.9375 56 38.25 53.625 
Q 42.578125 51.265625 45.40625 46.390625 
z
M 14.796875 27.296875 
Q 14.796875 17.390625 18.875 11.75 
Q 22.953125 6.109375 30.078125 6.109375 
Q 37.203125 6.109375 41.296875 11.75 
Q 45.40625 17.390625 45.40625 27.296875 
Q 45.40625 37.203125 41.296875 42.84375 
Q 37.203125 48.484375 30.078125 48.484375 
Q 22.953125 48.484375 18.875 42.84375 
Q 14.796875 37.203125 14.796875 27.296875 
z
" id="DejaVuSans-100"/>
      <path d="M 30.609375 48.390625 
Q 23.390625 48.390625 19.1875 42.75 
Q 14.984375 37.109375 14.984375 27.296875 
Q 14.984375 17.484375 19.15625 11.84375 
Q 23.34375 6.203125 30.609375 6.203125 
Q 37.796875 6.203125 41.984375 11.859375 
Q 46.1875 17.53125 46.1875 27.296875 
Q 46.1875 37.015625 41.984375 42.703125 
Q 37.796875 48.390625 30.609375 48.390625 
z
M 30.609375 56 
Q 42.328125 56 49.015625 48.375 
Q 55.71875 40.765625 55.71875 27.296875 
Q 55.71875 13.875 49.015625 6.21875 
Q 42.328125 -1.421875 30.609375 -1.421875 
Q 18.84375 -1.421875 12.171875 6.21875 
Q 5.515625 13.875 5.515625 27.296875 
Q 5.515625 40.765625 12.171875 48.375 
Q 18.84375 56 30.609375 56 
z
" id="DejaVuSans-111"/>
     </defs>
     <g transform="translate(756.734063 56.398849)scale(0.18 -0.18)">
      <use xlink:href="#DejaVuSans-80"/>
      <use x="58.552734" xlink:href="#DejaVuSans-115"/>
      <use x="110.652344" xlink:href="#DejaVuSans-101"/>
      <use x="172.175781" xlink:href="#DejaVuSans-117"/>
      <use x="235.554688" xlink:href="#DejaVuSans-100"/>
      <use x="299.03125" xlink:href="#DejaVuSans-111"/>
      <use x="360.212891" xlink:href="#DejaVuSans-32"/>
      <use x="392" xlink:href="#DejaVuSans-112"/>
      <use x="455.476562" xlink:href="#DejaVuSans-117"/>
      <use x="518.855469" xlink:href="#DejaVuSans-108"/>
      <use x="546.638672" xlink:href="#DejaVuSans-115"/>
      <use x="598.738281" xlink:href="#DejaVuSans-101"/>
      <use x="660.261719" xlink:href="#DejaVuSans-32"/>
      <use x="692.048828" xlink:href="#DejaVuSans-118"/>
      <use x="751.228516" xlink:href="#DejaVuSans-97"/>
      <use x="812.507812" xlink:href="#DejaVuSans-108"/>
      <use x="840.291016" xlink:href="#DejaVuSans-117"/>
      <use x="903.669922" xlink:href="#DejaVuSans-101"/>
     </g>
    </g>
   </g>
  </g>
  <g id="axes_2">
   <g id="matplotlib.axis_3">
    <g id="ytick_9">
     <g id="line2d_20">
      <defs>
       <path d="M 0 0 
L 3.5 0 
" id="m43a84bf07e" style="stroke:#000000;stroke-width:0.8;"/>
      </defs>
      <g>
       <use style="stroke:#000000;stroke-width:0.8;" x="946.670625" xlink:href="#m43a84bf07e" y="445.915365"/>
      </g>
     </g>
     <g id="text_19">
      <!-- 400 -->
      <g transform="translate(953.670625 449.714584)scale(0.1 -0.1)">
       <use xlink:href="#DejaVuSans-52"/>
       <use x="63.623047" xlink:href="#DejaVuSans-48"/>
       <use x="127.246094" xlink:href="#DejaVuSans-48"/>
      </g>
     </g>
    </g>
    <g id="ytick_10">
     <g id="line2d_21">
      <g>
       <use style="stroke:#000000;stroke-width:0.8;" x="946.670625" xlink:href="#m43a84bf07e" y="361.2885"/>
      </g>
     </g>
     <g id="text_20">
      <!-- 450 -->
      <g transform="translate(953.670625 365.087718)scale(0.1 -0.1)">
       <use xlink:href="#DejaVuSans-52"/>
       <use x="63.623047" xlink:href="#DejaVuSans-53"/>
       <use x="127.246094" xlink:href="#DejaVuSans-48"/>
      </g>
     </g>
    </g>
    <g id="ytick_11">
     <g id="line2d_22">
      <g>
       <use style="stroke:#000000;stroke-width:0.8;" x="946.670625" xlink:href="#m43a84bf07e" y="276.661634"/>
      </g>
     </g>
     <g id="text_21">
      <!-- 500 -->
      <g transform="translate(953.670625 280.460853)scale(0.1 -0.1)">
       <use xlink:href="#DejaVuSans-53"/>
       <use x="63.623047" xlink:href="#DejaVuSans-48"/>
       <use x="127.246094" xlink:href="#DejaVuSans-48"/>
      </g>
     </g>
    </g>
    <g id="ytick_12">
     <g id="line2d_23">
      <g>
       <use style="stroke:#000000;stroke-width:0.8;" x="946.670625" xlink:href="#m43a84bf07e" y="192.034768"/>
      </g>
     </g>
     <g id="text_22">
      <!-- 550 -->
      <g transform="translate(953.670625 195.833987)scale(0.1 -0.1)">
       <use xlink:href="#DejaVuSans-53"/>
       <use x="63.623047" xlink:href="#DejaVuSans-53"/>
       <use x="127.246094" xlink:href="#DejaVuSans-48"/>
      </g>
     </g>
    </g>
    <g id="ytick_13">
     <g id="line2d_24">
      <g>
       <use style="stroke:#000000;stroke-width:0.8;" x="946.670625" xlink:href="#m43a84bf07e" y="107.407903"/>
      </g>
     </g>
     <g id="text_23">
      <!-- 600 -->
      <g transform="translate(953.670625 111.207121)scale(0.1 -0.1)">
       <use xlink:href="#DejaVuSans-54"/>
       <use x="63.623047" xlink:href="#DejaVuSans-48"/>
       <use x="127.246094" xlink:href="#DejaVuSans-48"/>
      </g>
     </g>
    </g>
    <g id="ytick_14">
     <g id="line2d_25">
      <g>
       <use style="stroke:#000000;stroke-width:0.8;" x="946.670625" xlink:href="#m43a84bf07e" y="22.781037"/>
      </g>
     </g>
     <g id="text_24">
      <!-- 650 -->
      <g transform="translate(953.670625 26.580256)scale(0.1 -0.1)">
       <use xlink:href="#DejaVuSans-54"/>
       <use x="63.623047" xlink:href="#DejaVuSans-53"/>
       <use x="127.246094" xlink:href="#DejaVuSans-48"/>
      </g>
     </g>
    </g>
    <g id="text_25">
     <!-- Pseudo pulse value -->
     <g transform="translate(990.435312 336.449318)rotate(-90)scale(0.18 -0.18)">
      <use xlink:href="#DejaVuSans-80"/>
      <use x="58.552734" xlink:href="#DejaVuSans-115"/>
      <use x="110.652344" xlink:href="#DejaVuSans-101"/>
      <use x="172.175781" xlink:href="#DejaVuSans-117"/>
      <use x="235.554688" xlink:href="#DejaVuSans-100"/>
      <use x="299.03125" xlink:href="#DejaVuSans-111"/>
      <use x="360.212891" xlink:href="#DejaVuSans-32"/>
      <use x="392" xlink:href="#DejaVuSans-112"/>
      <use x="455.476562" xlink:href="#DejaVuSans-117"/>
      <use x="518.855469" xlink:href="#DejaVuSans-108"/>
      <use x="546.638672" xlink:href="#DejaVuSans-115"/>
      <use x="598.738281" xlink:href="#DejaVuSans-101"/>
      <use x="660.261719" xlink:href="#DejaVuSans-32"/>
      <use x="692.048828" xlink:href="#DejaVuSans-118"/>
      <use x="751.228516" xlink:href="#DejaVuSans-97"/>
      <use x="812.507812" xlink:href="#DejaVuSans-108"/>
      <use x="840.291016" xlink:href="#DejaVuSans-117"/>
      <use x="903.669922" xlink:href="#DejaVuSans-101"/>
     </g>
    </g>
   </g>
   <g id="line2d_26">
    <path clip-path="url(#pce890c00db)" d="M 94.452443 27.858649 
L 96.17925 80.327306 
L 97.908006 151.413873 
L 99.635462 215.730291 
L 101.362919 295.279544 
L 103.087778 349.440738 
L 106.540093 425.604918 
L 108.26755 439.145216 
L 109.993058 445.915365 
L 111.720514 450.992977 
L 113.44862 430.682529 
L 115.173479 413.757156 
L 116.898987 401.909395 
L 118.625795 366.366112 
L 120.352602 346.055664 
L 122.080708 322.360141 
L 123.805567 293.587007 
L 125.532374 285.124321 
L 128.987936 225.885515 
L 130.714743 220.807903 
L 132.44155 195.419843 
L 134.170306 193.727306 
L 135.897113 202.189992 
L 137.62392 186.957156 
L 139.351377 198.804918 
L 141.078833 202.189992 
L 142.80629 202.189992 
L 144.533746 220.807903 
L 146.261203 220.807903 
L 147.988659 222.50044 
L 149.716116 236.040738 
L 151.444222 234.348201 
L 153.172328 241.11835 
L 154.897187 252.966112 
L 156.625293 244.503425 
L 160.078257 258.043723 
L 161.805714 247.8885 
L 163.53317 252.966112 
L 165.261926 251.273574 
L 166.989382 244.503425 
L 168.716839 259.736261 
L 172.171752 246.195962 
L 173.899858 256.351186 
L 175.627964 242.810888 
L 177.35542 251.273574 
L 179.082877 258.043723 
L 180.810334 241.11835 
L 182.53779 251.273574 
L 184.265247 247.8885 
L 185.990755 242.810888 
L 187.717562 258.043723 
L 189.445019 246.195962 
L 191.173774 241.11835 
L 192.90123 229.270589 
L 194.626089 180.187007 
L 199.809758 49.861634 
L 201.537214 31.243723 
L 203.264671 24.473574 
L 204.991478 24.473574 
L 206.719584 43.091485 
L 208.444443 58.324321 
L 210.170601 78.634768 
L 213.624215 202.189992 
L 215.351671 273.276559 
L 217.07718 356.210888 
L 218.804636 396.831783 
L 220.530144 445.915365 
L 222.257601 474.6885 
L 223.985058 464.533276 
L 225.709916 469.610888 
L 227.438022 452.685515 
L 229.166128 428.989992 
L 230.890987 423.91238 
L 232.618444 393.446709 
L 234.3459 369.751186 
L 236.072707 357.903425 
L 237.798216 325.745216 
L 239.523724 305.434768 
L 241.247933 281.739246 
L 242.97539 249.581037 
L 244.701548 234.348201 
L 246.429004 220.807903 
L 248.155162 203.882529 
L 249.882618 210.652679 
L 251.610075 200.497455 
L 253.336233 197.11238 
L 255.063689 214.037753 
L 256.789197 207.267604 
L 258.516654 215.730291 
L 260.24476 230.963126 
L 261.970918 220.807903 
L 263.696426 237.733276 
L 265.423233 247.8885 
L 267.15004 241.11835 
L 268.878146 252.966112 
L 270.603005 247.8885 
L 272.330462 246.195962 
L 274.057918 261.428798 
L 275.783426 254.658649 
L 277.510233 252.966112 
L 279.235742 256.351186 
L 280.963848 246.195962 
L 282.691304 251.273574 
L 284.418761 252.966112 
L 286.144269 244.503425 
L 287.871076 247.8885 
L 289.598533 244.503425 
L 291.325989 237.733276 
L 293.050848 251.273574 
L 294.778305 244.503425 
L 296.505761 239.425813 
L 298.23062 251.273574 
L 299.957427 237.733276 
L 301.684234 246.195962 
L 303.411691 252.966112 
L 305.139147 239.425813 
L 306.864006 249.581037 
L 308.589515 249.581037 
L 310.316322 242.810888 
L 312.043129 232.655664 
L 315.496743 127.71835 
L 317.22355 92.175067 
L 318.951007 51.554171 
L 320.675866 31.243723 
L 322.403322 26.166112 
L 324.128181 22.781037 
L 325.854988 43.091485 
L 327.583094 80.327306 
L 329.308602 136.181037 
L 331.035409 217.422828 
L 332.762866 288.509395 
L 334.489673 347.748201 
L 336.217779 413.757156 
L 337.943287 437.452679 
L 339.667497 456.070589 
L 341.394953 476.381037 
L 343.120462 461.148201 
L 344.847269 461.148201 
L 346.574725 447.607903 
L 348.301532 410.372082 
L 350.029638 395.139246 
L 353.484551 332.515365 
L 355.20941 320.667604 
L 356.938166 285.124321 
L 358.665622 263.121335 
L 360.390481 247.8885 
L 362.11534 222.50044 
L 363.842796 214.037753 
L 365.568305 202.189992 
L 367.294462 186.957156 
L 370.748726 193.727306 
L 372.476183 193.727306 
L 374.201691 205.575067 
L 375.928498 205.575067 
L 377.654006 207.267604 
L 379.382112 230.963126 
L 381.109569 229.270589 
L 382.834428 234.348201 
L 384.561884 249.581037 
L 386.289341 241.11835 
L 388.018096 254.658649 
L 389.745553 259.736261 
L 391.473009 246.195962 
L 393.201115 261.428798 
L 394.927273 254.658649 
L 396.65408 251.273574 
L 398.380887 263.121335 
L 400.107694 247.8885 
L 401.83645 249.581037 
L 403.563906 256.351186 
L 405.288765 247.8885 
L 407.016222 252.966112 
L 408.742379 254.658649 
L 410.469836 244.503425 
L 412.196643 247.8885 
L 413.92345 247.8885 
L 415.648309 244.503425 
L 417.375765 256.351186 
L 419.101274 247.8885 
L 420.827431 241.11835 
L 422.554239 252.966112 
L 424.281695 242.810888 
L 427.73466 256.351186 
L 429.461467 241.11835 
L 431.188924 252.966112 
L 432.917679 254.658649 
L 434.643837 244.503425 
L 436.371293 236.040738 
L 439.826206 132.795962 
L 441.554962 95.560141 
L 443.282418 51.554171 
L 445.009875 31.243723 
L 446.737981 24.473574 
L 448.463489 26.166112 
L 450.191595 73.557156 
L 453.647157 207.267604 
L 455.375263 285.124321 
L 457.103369 344.363126 
L 460.556984 428.989992 
L 462.28444 432.375067 
L 464.012546 434.067604 
L 465.740652 442.530291 
L 467.465511 422.219843 
L 469.192967 418.834768 
L 470.917826 405.29447 
L 472.645932 371.443723 
L 474.374038 357.903425 
L 477.827003 305.434768 
L 479.552511 296.972082 
L 481.280617 269.891485 
L 483.008723 251.273574 
L 484.73618 239.425813 
L 486.464935 214.037753 
L 488.192392 208.960141 
L 489.919848 202.189992 
L 491.647305 190.342231 
L 493.372164 198.804918 
L 495.09962 200.497455 
L 496.827077 198.804918 
L 498.551936 212.345216 
L 500.278093 212.345216 
L 502.004251 214.037753 
L 503.731058 236.040738 
L 505.459164 232.655664 
L 507.184023 234.348201 
L 508.912129 249.581037 
L 510.638936 237.733276 
L 512.364444 252.966112 
L 514.09255 258.043723 
L 515.820007 246.195962 
L 517.547463 259.736261 
L 519.27492 254.658649 
L 521.002376 251.273574 
L 522.729833 264.813873 
L 524.45729 251.273574 
L 526.186045 251.273574 
L 527.913501 258.043723 
L 529.647452 246.195962 
L 531.382052 254.658649 
L 533.116003 252.966112 
L 534.849304 244.503425 
L 536.583905 249.581037 
L 538.318505 249.581037 
L 540.053105 242.810888 
L 541.786406 249.581037 
L 543.521006 244.503425 
L 545.254308 246.195962 
L 546.989557 259.736261 
L 548.722859 244.503425 
L 550.458108 244.503425 
L 552.192708 256.351186 
L 553.927308 242.810888 
L 555.661909 220.807903 
L 557.395859 183.572082 
L 559.12981 124.333276 
L 560.86441 92.175067 
L 562.59901 56.631783 
L 564.33426 29.551186 
L 566.06886 54.939246 
L 567.804759 90.482529 
L 569.53806 154.798947 
L 571.272011 234.348201 
L 573.005313 280.046709 
L 574.739913 335.90044 
L 576.474513 386.676559 
L 578.209113 405.29447 
L 579.943713 428.989992 
L 581.677014 432.375067 
L 583.410316 422.219843 
L 585.143617 422.219843 
L 586.877568 401.909395 
L 588.612168 373.136261 
L 590.346768 361.2885 
L 592.081368 330.822828 
L 593.815319 308.819843 
L 595.549919 296.972082 
L 597.283221 268.198947 
L 599.017171 256.351186 
L 600.751771 254.658649 
L 602.485722 230.963126 
L 604.220322 219.115365 
L 605.954273 208.960141 
L 607.688224 188.649694 
L 609.422175 197.11238 
L 611.155476 192.034768 
L 612.890076 185.264619 
L 614.624676 203.882529 
L 616.359276 200.497455 
L 618.092578 208.960141 
L 619.827827 227.578052 
L 621.560479 222.50044 
L 625.027731 249.581037 
L 626.762331 237.733276 
L 628.496931 249.581037 
L 630.230882 247.8885 
L 631.966132 247.8885 
L 633.699433 263.121335 
L 635.432734 251.273574 
L 637.167335 251.273574 
L 638.901285 259.736261 
L 640.635885 251.273574 
L 642.369836 258.043723 
L 644.104436 263.121335 
L 645.838387 251.273574 
L 649.305639 261.428798 
L 651.040239 249.581037 
L 652.774839 256.351186 
L 654.508141 254.658649 
L 656.242741 247.8885 
L 657.976692 258.043723 
L 659.709993 247.8885 
L 661.443294 239.425813 
L 663.177895 254.658649 
L 664.912495 247.8885 
L 666.646445 242.810888 
L 668.380396 252.966112 
L 670.114347 237.733276 
L 671.848298 249.581037 
L 673.582248 252.966112 
L 675.316849 242.810888 
L 677.051449 256.351186 
L 678.785399 246.195962 
L 682.25395 180.187007 
L 683.987901 117.563126 
L 685.721202 76.942231 
L 687.456452 56.631783 
L 689.190403 34.628798 
L 690.924353 61.709395 
L 692.658954 114.178052 
L 694.392904 170.031783 
L 696.126855 246.195962 
L 697.860806 308.819843 
L 701.329357 384.984022 
L 703.063957 401.909395 
L 704.798557 406.987007 
L 706.532508 417.142231 
L 708.266458 408.679544 
L 710.000409 395.139246 
L 711.735009 393.446709 
L 713.46961 362.981037 
L 715.20421 344.363126 
L 716.93881 330.822828 
L 718.672761 303.742231 
L 720.407361 295.279544 
L 722.140662 273.276559 
L 723.874613 242.810888 
L 725.608564 236.040738 
L 727.343164 214.037753 
L 729.077764 205.575067 
L 730.811715 212.345216 
L 732.546315 195.419843 
L 734.280265 198.804918 
L 736.013567 215.730291 
L 737.748167 207.267604 
L 739.482767 219.115365 
L 741.217367 227.578052 
L 742.950669 224.192977 
L 744.685918 241.11835 
L 746.419219 239.425813 
L 748.15317 236.040738 
L 749.887121 251.273574 
L 751.621721 251.273574 
L 753.356321 249.581037 
L 755.089623 258.043723 
L 756.824872 246.195962 
L 758.558173 247.8885 
L 760.292124 259.736261 
L 762.025426 249.581037 
L 763.760026 251.273574 
L 765.494626 254.658649 
L 767.228577 244.503425 
L 768.963177 259.736261 
L 770.697127 256.351186 
L 772.430429 247.8885 
L 774.16438 263.121335 
L 775.899629 252.966112 
L 777.634229 252.966112 
L 779.367531 259.736261 
L 781.102131 244.503425 
L 784.569383 258.043723 
L 786.303334 241.11835 
L 788.037934 249.581037 
L 789.773183 247.8885 
L 791.507134 242.810888 
L 793.241734 258.043723 
L 794.975685 249.581037 
L 796.709636 244.503425 
L 798.442937 254.658649 
L 800.177537 247.8885 
L 801.912787 249.581037 
L 803.647387 256.351186 
L 805.381987 249.581037 
L 807.115938 254.658649 
L 808.850538 251.273574 
L 810.584489 203.882529 
L 812.31779 159.876559 
L 815.78764 66.787007 
L 817.522889 49.861634 
L 819.25684 36.321335 
L 820.99144 54.939246 
L 822.725391 122.640738 
L 824.459991 181.879544 
L 826.194591 246.195962 
L 827.929191 318.975067 
L 829.663792 347.748201 
L 831.397742 386.676559 
L 833.132992 408.679544 
L 834.866293 398.524321 
L 836.599595 408.679544 
L 838.332896 401.909395 
L 840.066847 390.061634 
L 841.801447 388.369097 
L 843.535397 362.981037 
L 845.269998 346.055664 
L 847.003948 340.978052 
L 848.73725 313.897455 
L 850.4712 298.664619 
L 852.205801 286.816858 
L 853.940401 256.351186 
L 855.674351 242.810888 
L 859.142902 205.575067 
L 860.876853 207.267604 
L 862.610154 200.497455 
L 864.344755 195.419843 
L 866.079355 203.882529 
L 867.813305 198.804918 
L 869.547906 203.882529 
L 871.281856 224.192977 
L 873.015807 220.807903 
L 874.749758 224.192977 
L 876.484358 239.425813 
L 878.219608 232.655664 
L 879.954208 249.581037 
L 881.689457 256.351186 
L 883.422759 246.195962 
L 885.15606 259.736261 
L 888.623961 256.351186 
L 890.358562 264.813873 
L 892.093162 252.966112 
L 893.828411 252.966112 
L 895.562362 264.813873 
L 897.295663 246.195962 
L 899.029614 251.273574 
L 900.763565 254.658649 
L 902.498165 246.195962 
L 904.232116 256.351186 
L 905.966716 249.581037 
L 905.966716 249.581037 
" style="fill:none;stroke:#0000ff;stroke-dasharray:5.55,2.4;stroke-dashoffset:0;stroke-width:1.5;"/>
   </g>
   <g id="patch_8">
    <path d="M 53.870625 499.061037 
L 53.870625 0.101037 
" style="fill:none;stroke:#000000;stroke-linecap:square;stroke-linejoin:miter;stroke-width:0.8;"/>
   </g>
   <g id="patch_9">
    <path d="M 946.670625 499.061037 
L 946.670625 0.101037 
" style="fill:none;stroke:#000000;stroke-linecap:square;stroke-linejoin:miter;stroke-width:0.8;"/>
   </g>
   <g id="patch_10">
    <path d="M 53.870625 499.061037 
L 946.670625 499.061037 
" style="fill:none;stroke:#000000;stroke-linecap:square;stroke-linejoin:miter;stroke-width:0.8;"/>
   </g>
   <g id="patch_11">
    <path d="M 53.870625 0.101037 
L 946.670625 0.101037 
" style="fill:none;stroke:#000000;stroke-linecap:square;stroke-linejoin:miter;stroke-width:0.8;"/>
   </g>
  </g>
 </g>
 <defs>
  <clipPath id="pce890c00db">
   <rect height="498.96" width="892.8" x="53.870625" y="0.101037"/>
  </clipPath>
 </defs>
</svg>
