<?xml version="1.0" encoding="utf-8" standalone="no"?>
<!DOCTYPE svg PUBLIC "-//W3C//DTD SVG 1.1//EN"
  "http://www.w3.org/Graphics/SVG/1.1/DTD/svg11.dtd">
<!-- Created with matplotlib (https://matplotlib.org/) -->
<svg height="537.05875pt" version="1.1" viewBox="0 0 1013.26625 537.05875" width="1013.26625pt" xmlns="http://www.w3.org/2000/svg" xmlns:xlink="http://www.w3.org/1999/xlink">
 <defs>
  <style type="text/css">
*{stroke-linecap:butt;stroke-linejoin:round;}
  </style>
 </defs>
 <g id="figure_1">
  <g id="patch_1">
   <path d="M 0 537.05875 
L 1013.26625 537.05875 
L 1013.26625 0 
L 0 0 
z
" style="fill:#ffffff;"/>
  </g>
  <g id="axes_1">
   <g id="patch_2">
    <path d="M 53.870625 498.96 
L 946.670625 498.96 
L 946.670625 0 
L 53.870625 0 
z
" style="fill:#ffffff;"/>
   </g>
   <g id="matplotlib.axis_1">
    <g id="xtick_1">
     <g id="line2d_1">
      <defs>
       <path d="M 0 0 
L 0 3.5 
" id="m5344e1bcb1" style="stroke:#000000;stroke-width:0.8;"/>
      </defs>
      <g>
       <use style="stroke:#000000;stroke-width:0.8;" x="94.451143" xlink:href="#m5344e1bcb1" y="498.96"/>
      </g>
     </g>
     <g id="text_1">
      <!-- 0 -->
      <defs>
       <path d="M 31.78125 66.40625 
Q 24.171875 66.40625 20.328125 58.90625 
Q 16.5 51.421875 16.5 36.375 
Q 16.5 21.390625 20.328125 13.890625 
Q 24.171875 6.390625 31.78125 6.390625 
Q 39.453125 6.390625 43.28125 13.890625 
Q 47.125 21.390625 47.125 36.375 
Q 47.125 51.421875 43.28125 58.90625 
Q 39.453125 66.40625 31.78125 66.40625 
z
M 31.78125 74.21875 
Q 44.046875 74.21875 50.515625 64.515625 
Q 56.984375 54.828125 56.984375 36.375 
Q 56.984375 17.96875 50.515625 8.265625 
Q 44.046875 -1.421875 31.78125 -1.421875 
Q 19.53125 -1.421875 13.0625 8.265625 
Q 6.59375 17.96875 6.59375 36.375 
Q 6.59375 54.828125 13.0625 64.515625 
Q 19.53125 74.21875 31.78125 74.21875 
z
" id="DejaVuSans-48"/>
      </defs>
      <g transform="translate(91.269893 513.558438)scale(0.1 -0.1)">
       <use xlink:href="#DejaVuSans-48"/>
      </g>
     </g>
    </g>
    <g id="xtick_2">
     <g id="line2d_2">
      <g>
       <use style="stroke:#000000;stroke-width:0.8;" x="257.014457" xlink:href="#m5344e1bcb1" y="498.96"/>
      </g>
     </g>
     <g id="text_2">
      <!-- 1000 -->
      <defs>
       <path d="M 12.40625 8.296875 
L 28.515625 8.296875 
L 28.515625 63.921875 
L 10.984375 60.40625 
L 10.984375 69.390625 
L 28.421875 72.90625 
L 38.28125 72.90625 
L 38.28125 8.296875 
L 54.390625 8.296875 
L 54.390625 0 
L 12.40625 0 
z
" id="DejaVuSans-49"/>
      </defs>
      <g transform="translate(244.289457 513.558438)scale(0.1 -0.1)">
       <use xlink:href="#DejaVuSans-49"/>
       <use x="63.623047" xlink:href="#DejaVuSans-48"/>
       <use x="127.246094" xlink:href="#DejaVuSans-48"/>
       <use x="190.869141" xlink:href="#DejaVuSans-48"/>
      </g>
     </g>
    </g>
    <g id="xtick_3">
     <g id="line2d_3">
      <g>
       <use style="stroke:#000000;stroke-width:0.8;" x="419.577772" xlink:href="#m5344e1bcb1" y="498.96"/>
      </g>
     </g>
     <g id="text_3">
      <!-- 2000 -->
      <defs>
       <path d="M 19.1875 8.296875 
L 53.609375 8.296875 
L 53.609375 0 
L 7.328125 0 
L 7.328125 8.296875 
Q 12.9375 14.109375 22.625 23.890625 
Q 32.328125 33.6875 34.8125 36.53125 
Q 39.546875 41.84375 41.421875 45.53125 
Q 43.3125 49.21875 43.3125 52.78125 
Q 43.3125 58.59375 39.234375 62.25 
Q 35.15625 65.921875 28.609375 65.921875 
Q 23.96875 65.921875 18.8125 64.3125 
Q 13.671875 62.703125 7.8125 59.421875 
L 7.8125 69.390625 
Q 13.765625 71.78125 18.9375 73 
Q 24.125 74.21875 28.421875 74.21875 
Q 39.75 74.21875 46.484375 68.546875 
Q 53.21875 62.890625 53.21875 53.421875 
Q 53.21875 48.921875 51.53125 44.890625 
Q 49.859375 40.875 45.40625 35.40625 
Q 44.1875 33.984375 37.640625 27.21875 
Q 31.109375 20.453125 19.1875 8.296875 
z
" id="DejaVuSans-50"/>
      </defs>
      <g transform="translate(406.852772 513.558438)scale(0.1 -0.1)">
       <use xlink:href="#DejaVuSans-50"/>
       <use x="63.623047" xlink:href="#DejaVuSans-48"/>
       <use x="127.246094" xlink:href="#DejaVuSans-48"/>
       <use x="190.869141" xlink:href="#DejaVuSans-48"/>
      </g>
     </g>
    </g>
    <g id="xtick_4">
     <g id="line2d_4">
      <g>
       <use style="stroke:#000000;stroke-width:0.8;" x="582.141087" xlink:href="#m5344e1bcb1" y="498.96"/>
      </g>
     </g>
     <g id="text_4">
      <!-- 3000 -->
      <defs>
       <path d="M 40.578125 39.3125 
Q 47.65625 37.796875 51.625 33 
Q 55.609375 28.21875 55.609375 21.1875 
Q 55.609375 10.40625 48.1875 4.484375 
Q 40.765625 -1.421875 27.09375 -1.421875 
Q 22.515625 -1.421875 17.65625 -0.515625 
Q 12.796875 0.390625 7.625 2.203125 
L 7.625 11.71875 
Q 11.71875 9.328125 16.59375 8.109375 
Q 21.484375 6.890625 26.8125 6.890625 
Q 36.078125 6.890625 40.9375 10.546875 
Q 45.796875 14.203125 45.796875 21.1875 
Q 45.796875 27.640625 41.28125 31.265625 
Q 36.765625 34.90625 28.71875 34.90625 
L 20.21875 34.90625 
L 20.21875 43.015625 
L 29.109375 43.015625 
Q 36.375 43.015625 40.234375 45.921875 
Q 44.09375 48.828125 44.09375 54.296875 
Q 44.09375 59.90625 40.109375 62.90625 
Q 36.140625 65.921875 28.71875 65.921875 
Q 24.65625 65.921875 20.015625 65.03125 
Q 15.375 64.15625 9.8125 62.3125 
L 9.8125 71.09375 
Q 15.4375 72.65625 20.34375 73.4375 
Q 25.25 74.21875 29.59375 74.21875 
Q 40.828125 74.21875 47.359375 69.109375 
Q 53.90625 64.015625 53.90625 55.328125 
Q 53.90625 49.265625 50.4375 45.09375 
Q 46.96875 40.921875 40.578125 39.3125 
z
" id="DejaVuSans-51"/>
      </defs>
      <g transform="translate(569.416087 513.558438)scale(0.1 -0.1)">
       <use xlink:href="#DejaVuSans-51"/>
       <use x="63.623047" xlink:href="#DejaVuSans-48"/>
       <use x="127.246094" xlink:href="#DejaVuSans-48"/>
       <use x="190.869141" xlink:href="#DejaVuSans-48"/>
      </g>
     </g>
    </g>
    <g id="xtick_5">
     <g id="line2d_5">
      <g>
       <use style="stroke:#000000;stroke-width:0.8;" x="744.704401" xlink:href="#m5344e1bcb1" y="498.96"/>
      </g>
     </g>
     <g id="text_5">
      <!-- 4000 -->
      <defs>
       <path d="M 37.796875 64.3125 
L 12.890625 25.390625 
L 37.796875 25.390625 
z
M 35.203125 72.90625 
L 47.609375 72.90625 
L 47.609375 25.390625 
L 58.015625 25.390625 
L 58.015625 17.1875 
L 47.609375 17.1875 
L 47.609375 0 
L 37.796875 0 
L 37.796875 17.1875 
L 4.890625 17.1875 
L 4.890625 26.703125 
z
" id="DejaVuSans-52"/>
      </defs>
      <g transform="translate(731.979401 513.558438)scale(0.1 -0.1)">
       <use xlink:href="#DejaVuSans-52"/>
       <use x="63.623047" xlink:href="#DejaVuSans-48"/>
       <use x="127.246094" xlink:href="#DejaVuSans-48"/>
       <use x="190.869141" xlink:href="#DejaVuSans-48"/>
      </g>
     </g>
    </g>
    <g id="xtick_6">
     <g id="line2d_6">
      <g>
       <use style="stroke:#000000;stroke-width:0.8;" x="907.267716" xlink:href="#m5344e1bcb1" y="498.96"/>
      </g>
     </g>
     <g id="text_6">
      <!-- 5000 -->
      <defs>
       <path d="M 10.796875 72.90625 
L 49.515625 72.90625 
L 49.515625 64.59375 
L 19.828125 64.59375 
L 19.828125 46.734375 
Q 21.96875 47.46875 24.109375 47.828125 
Q 26.265625 48.1875 28.421875 48.1875 
Q 40.625 48.1875 47.75 41.5 
Q 54.890625 34.8125 54.890625 23.390625 
Q 54.890625 11.625 47.5625 5.09375 
Q 40.234375 -1.421875 26.90625 -1.421875 
Q 22.3125 -1.421875 17.546875 -0.640625 
Q 12.796875 0.140625 7.71875 1.703125 
L 7.71875 11.625 
Q 12.109375 9.234375 16.796875 8.0625 
Q 21.484375 6.890625 26.703125 6.890625 
Q 35.15625 6.890625 40.078125 11.328125 
Q 45.015625 15.765625 45.015625 23.390625 
Q 45.015625 31 40.078125 35.4375 
Q 35.15625 39.890625 26.703125 39.890625 
Q 22.75 39.890625 18.8125 39.015625 
Q 14.890625 38.140625 10.796875 36.28125 
z
" id="DejaVuSans-53"/>
      </defs>
      <g transform="translate(894.542716 513.558438)scale(0.1 -0.1)">
       <use xlink:href="#DejaVuSans-53"/>
       <use x="63.623047" xlink:href="#DejaVuSans-48"/>
       <use x="127.246094" xlink:href="#DejaVuSans-48"/>
       <use x="190.869141" xlink:href="#DejaVuSans-48"/>
      </g>
     </g>
    </g>
    <g id="text_7">
     <!-- Time [ms] -->
     <defs>
      <path d="M -0.296875 72.90625 
L 61.375 72.90625 
L 61.375 64.59375 
L 35.5 64.59375 
L 35.5 0 
L 25.59375 0 
L 25.59375 64.59375 
L -0.296875 64.59375 
z
" id="DejaVuSans-84"/>
      <path d="M 9.421875 54.6875 
L 18.40625 54.6875 
L 18.40625 0 
L 9.421875 0 
z
M 9.421875 75.984375 
L 18.40625 75.984375 
L 18.40625 64.59375 
L 9.421875 64.59375 
z
" id="DejaVuSans-105"/>
      <path d="M 52 44.1875 
Q 55.375 50.25 60.0625 53.125 
Q 64.75 56 71.09375 56 
Q 79.640625 56 84.28125 50.015625 
Q 88.921875 44.046875 88.921875 33.015625 
L 88.921875 0 
L 79.890625 0 
L 79.890625 32.71875 
Q 79.890625 40.578125 77.09375 44.375 
Q 74.3125 48.1875 68.609375 48.1875 
Q 61.625 48.1875 57.5625 43.546875 
Q 53.515625 38.921875 53.515625 30.90625 
L 53.515625 0 
L 44.484375 0 
L 44.484375 32.71875 
Q 44.484375 40.625 41.703125 44.40625 
Q 38.921875 48.1875 33.109375 48.1875 
Q 26.21875 48.1875 22.15625 43.53125 
Q 18.109375 38.875 18.109375 30.90625 
L 18.109375 0 
L 9.078125 0 
L 9.078125 54.6875 
L 18.109375 54.6875 
L 18.109375 46.1875 
Q 21.1875 51.21875 25.484375 53.609375 
Q 29.78125 56 35.6875 56 
Q 41.65625 56 45.828125 52.96875 
Q 50 49.953125 52 44.1875 
z
" id="DejaVuSans-109"/>
      <path d="M 56.203125 29.59375 
L 56.203125 25.203125 
L 14.890625 25.203125 
Q 15.484375 15.921875 20.484375 11.0625 
Q 25.484375 6.203125 34.421875 6.203125 
Q 39.59375 6.203125 44.453125 7.46875 
Q 49.3125 8.734375 54.109375 11.28125 
L 54.109375 2.78125 
Q 49.265625 0.734375 44.1875 -0.34375 
Q 39.109375 -1.421875 33.890625 -1.421875 
Q 20.796875 -1.421875 13.15625 6.1875 
Q 5.515625 13.8125 5.515625 26.8125 
Q 5.515625 40.234375 12.765625 48.109375 
Q 20.015625 56 32.328125 56 
Q 43.359375 56 49.78125 48.890625 
Q 56.203125 41.796875 56.203125 29.59375 
z
M 47.21875 32.234375 
Q 47.125 39.59375 43.09375 43.984375 
Q 39.0625 48.390625 32.421875 48.390625 
Q 24.90625 48.390625 20.390625 44.140625 
Q 15.875 39.890625 15.1875 32.171875 
z
" id="DejaVuSans-101"/>
      <path id="DejaVuSans-32"/>
      <path d="M 8.59375 75.984375 
L 29.296875 75.984375 
L 29.296875 69 
L 17.578125 69 
L 17.578125 -6.203125 
L 29.296875 -6.203125 
L 29.296875 -13.1875 
L 8.59375 -13.1875 
z
" id="DejaVuSans-91"/>
      <path d="M 44.28125 53.078125 
L 44.28125 44.578125 
Q 40.484375 46.53125 36.375 47.5 
Q 32.28125 48.484375 27.875 48.484375 
Q 21.1875 48.484375 17.84375 46.4375 
Q 14.5 44.390625 14.5 40.28125 
Q 14.5 37.15625 16.890625 35.375 
Q 19.28125 33.59375 26.515625 31.984375 
L 29.59375 31.296875 
Q 39.15625 29.25 43.1875 25.515625 
Q 47.21875 21.78125 47.21875 15.09375 
Q 47.21875 7.46875 41.1875 3.015625 
Q 35.15625 -1.421875 24.609375 -1.421875 
Q 20.21875 -1.421875 15.453125 -0.5625 
Q 10.6875 0.296875 5.421875 2 
L 5.421875 11.28125 
Q 10.40625 8.6875 15.234375 7.390625 
Q 20.0625 6.109375 24.8125 6.109375 
Q 31.15625 6.109375 34.5625 8.28125 
Q 37.984375 10.453125 37.984375 14.40625 
Q 37.984375 18.0625 35.515625 20.015625 
Q 33.0625 21.96875 24.703125 23.78125 
L 21.578125 24.515625 
Q 13.234375 26.265625 9.515625 29.90625 
Q 5.8125 33.546875 5.8125 39.890625 
Q 5.8125 47.609375 11.28125 51.796875 
Q 16.75 56 26.8125 56 
Q 31.78125 56 36.171875 55.265625 
Q 40.578125 54.546875 44.28125 53.078125 
z
" id="DejaVuSans-115"/>
      <path d="M 30.421875 75.984375 
L 30.421875 -13.1875 
L 9.71875 -13.1875 
L 9.71875 -6.203125 
L 21.390625 -6.203125 
L 21.390625 69 
L 9.71875 69 
L 9.71875 75.984375 
z
" id="DejaVuSans-93"/>
     </defs>
     <g transform="translate(454.912031 533.315313)scale(0.18 -0.18)">
      <use xlink:href="#DejaVuSans-84"/>
      <use x="57.958984" xlink:href="#DejaVuSans-105"/>
      <use x="85.742188" xlink:href="#DejaVuSans-109"/>
      <use x="183.154297" xlink:href="#DejaVuSans-101"/>
      <use x="244.677734" xlink:href="#DejaVuSans-32"/>
      <use x="276.464844" xlink:href="#DejaVuSans-91"/>
      <use x="315.478516" xlink:href="#DejaVuSans-109"/>
      <use x="412.890625" xlink:href="#DejaVuSans-115"/>
      <use x="464.990234" xlink:href="#DejaVuSans-93"/>
     </g>
    </g>
   </g>
   <g id="matplotlib.axis_2">
    <g id="ytick_1">
     <g id="line2d_7">
      <defs>
       <path d="M 0 0 
L -3.5 0 
" id="m86cb0b5574" style="stroke:#000000;stroke-width:0.8;"/>
      </defs>
      <g>
       <use style="stroke:#000000;stroke-width:0.8;" x="53.870625" xlink:href="#m86cb0b5574" y="456.867732"/>
      </g>
     </g>
     <g id="text_8">
      <!-- 300 -->
      <g transform="translate(27.783125 460.666951)scale(0.1 -0.1)">
       <use xlink:href="#DejaVuSans-51"/>
       <use x="63.623047" xlink:href="#DejaVuSans-48"/>
       <use x="127.246094" xlink:href="#DejaVuSans-48"/>
      </g>
     </g>
    </g>
    <g id="ytick_2">
     <g id="line2d_8">
      <g>
       <use style="stroke:#000000;stroke-width:0.8;" x="53.870625" xlink:href="#m86cb0b5574" y="392.160171"/>
      </g>
     </g>
     <g id="text_9">
      <!-- 400 -->
      <g transform="translate(27.783125 395.95939)scale(0.1 -0.1)">
       <use xlink:href="#DejaVuSans-52"/>
       <use x="63.623047" xlink:href="#DejaVuSans-48"/>
       <use x="127.246094" xlink:href="#DejaVuSans-48"/>
      </g>
     </g>
    </g>
    <g id="ytick_3">
     <g id="line2d_9">
      <g>
       <use style="stroke:#000000;stroke-width:0.8;" x="53.870625" xlink:href="#m86cb0b5574" y="327.452611"/>
      </g>
     </g>
     <g id="text_10">
      <!-- 500 -->
      <g transform="translate(27.783125 331.251829)scale(0.1 -0.1)">
       <use xlink:href="#DejaVuSans-53"/>
       <use x="63.623047" xlink:href="#DejaVuSans-48"/>
       <use x="127.246094" xlink:href="#DejaVuSans-48"/>
      </g>
     </g>
    </g>
    <g id="ytick_4">
     <g id="line2d_10">
      <g>
       <use style="stroke:#000000;stroke-width:0.8;" x="53.870625" xlink:href="#m86cb0b5574" y="262.74505"/>
      </g>
     </g>
     <g id="text_11">
      <!-- 600 -->
      <defs>
       <path d="M 33.015625 40.375 
Q 26.375 40.375 22.484375 35.828125 
Q 18.609375 31.296875 18.609375 23.390625 
Q 18.609375 15.53125 22.484375 10.953125 
Q 26.375 6.390625 33.015625 6.390625 
Q 39.65625 6.390625 43.53125 10.953125 
Q 47.40625 15.53125 47.40625 23.390625 
Q 47.40625 31.296875 43.53125 35.828125 
Q 39.65625 40.375 33.015625 40.375 
z
M 52.59375 71.296875 
L 52.59375 62.3125 
Q 48.875 64.0625 45.09375 64.984375 
Q 41.3125 65.921875 37.59375 65.921875 
Q 27.828125 65.921875 22.671875 59.328125 
Q 17.53125 52.734375 16.796875 39.40625 
Q 19.671875 43.65625 24.015625 45.921875 
Q 28.375 48.1875 33.59375 48.1875 
Q 44.578125 48.1875 50.953125 41.515625 
Q 57.328125 34.859375 57.328125 23.390625 
Q 57.328125 12.15625 50.6875 5.359375 
Q 44.046875 -1.421875 33.015625 -1.421875 
Q 20.359375 -1.421875 13.671875 8.265625 
Q 6.984375 17.96875 6.984375 36.375 
Q 6.984375 53.65625 15.1875 63.9375 
Q 23.390625 74.21875 37.203125 74.21875 
Q 40.921875 74.21875 44.703125 73.484375 
Q 48.484375 72.75 52.59375 71.296875 
z
" id="DejaVuSans-54"/>
      </defs>
      <g transform="translate(27.783125 266.544269)scale(0.1 -0.1)">
       <use xlink:href="#DejaVuSans-54"/>
       <use x="63.623047" xlink:href="#DejaVuSans-48"/>
       <use x="127.246094" xlink:href="#DejaVuSans-48"/>
      </g>
     </g>
    </g>
    <g id="ytick_5">
     <g id="line2d_11">
      <g>
       <use style="stroke:#000000;stroke-width:0.8;" x="53.870625" xlink:href="#m86cb0b5574" y="198.037489"/>
      </g>
     </g>
     <g id="text_12">
      <!-- 700 -->
      <defs>
       <path d="M 8.203125 72.90625 
L 55.078125 72.90625 
L 55.078125 68.703125 
L 28.609375 0 
L 18.3125 0 
L 43.21875 64.59375 
L 8.203125 64.59375 
z
" id="DejaVuSans-55"/>
      </defs>
      <g transform="translate(27.783125 201.836708)scale(0.1 -0.1)">
       <use xlink:href="#DejaVuSans-55"/>
       <use x="63.623047" xlink:href="#DejaVuSans-48"/>
       <use x="127.246094" xlink:href="#DejaVuSans-48"/>
      </g>
     </g>
    </g>
    <g id="ytick_6">
     <g id="line2d_12">
      <g>
       <use style="stroke:#000000;stroke-width:0.8;" x="53.870625" xlink:href="#m86cb0b5574" y="133.329929"/>
      </g>
     </g>
     <g id="text_13">
      <!-- 800 -->
      <defs>
       <path d="M 31.78125 34.625 
Q 24.75 34.625 20.71875 30.859375 
Q 16.703125 27.09375 16.703125 20.515625 
Q 16.703125 13.921875 20.71875 10.15625 
Q 24.75 6.390625 31.78125 6.390625 
Q 38.8125 6.390625 42.859375 10.171875 
Q 46.921875 13.96875 46.921875 20.515625 
Q 46.921875 27.09375 42.890625 30.859375 
Q 38.875 34.625 31.78125 34.625 
z
M 21.921875 38.8125 
Q 15.578125 40.375 12.03125 44.71875 
Q 8.5 49.078125 8.5 55.328125 
Q 8.5 64.0625 14.71875 69.140625 
Q 20.953125 74.21875 31.78125 74.21875 
Q 42.671875 74.21875 48.875 69.140625 
Q 55.078125 64.0625 55.078125 55.328125 
Q 55.078125 49.078125 51.53125 44.71875 
Q 48 40.375 41.703125 38.8125 
Q 48.828125 37.15625 52.796875 32.3125 
Q 56.78125 27.484375 56.78125 20.515625 
Q 56.78125 9.90625 50.3125 4.234375 
Q 43.84375 -1.421875 31.78125 -1.421875 
Q 19.734375 -1.421875 13.25 4.234375 
Q 6.78125 9.90625 6.78125 20.515625 
Q 6.78125 27.484375 10.78125 32.3125 
Q 14.796875 37.15625 21.921875 38.8125 
z
M 18.3125 54.390625 
Q 18.3125 48.734375 21.84375 45.5625 
Q 25.390625 42.390625 31.78125 42.390625 
Q 38.140625 42.390625 41.71875 45.5625 
Q 45.3125 48.734375 45.3125 54.390625 
Q 45.3125 60.0625 41.71875 63.234375 
Q 38.140625 66.40625 31.78125 66.40625 
Q 25.390625 66.40625 21.84375 63.234375 
Q 18.3125 60.0625 18.3125 54.390625 
z
" id="DejaVuSans-56"/>
      </defs>
      <g transform="translate(27.783125 137.129147)scale(0.1 -0.1)">
       <use xlink:href="#DejaVuSans-56"/>
       <use x="63.623047" xlink:href="#DejaVuSans-48"/>
       <use x="127.246094" xlink:href="#DejaVuSans-48"/>
      </g>
     </g>
    </g>
    <g id="ytick_7">
     <g id="line2d_13">
      <g>
       <use style="stroke:#000000;stroke-width:0.8;" x="53.870625" xlink:href="#m86cb0b5574" y="68.622368"/>
      </g>
     </g>
     <g id="text_14">
      <!-- 900 -->
      <defs>
       <path d="M 10.984375 1.515625 
L 10.984375 10.5 
Q 14.703125 8.734375 18.5 7.8125 
Q 22.3125 6.890625 25.984375 6.890625 
Q 35.75 6.890625 40.890625 13.453125 
Q 46.046875 20.015625 46.78125 33.40625 
Q 43.953125 29.203125 39.59375 26.953125 
Q 35.25 24.703125 29.984375 24.703125 
Q 19.046875 24.703125 12.671875 31.3125 
Q 6.296875 37.9375 6.296875 49.421875 
Q 6.296875 60.640625 12.9375 67.421875 
Q 19.578125 74.21875 30.609375 74.21875 
Q 43.265625 74.21875 49.921875 64.515625 
Q 56.59375 54.828125 56.59375 36.375 
Q 56.59375 19.140625 48.40625 8.859375 
Q 40.234375 -1.421875 26.421875 -1.421875 
Q 22.703125 -1.421875 18.890625 -0.6875 
Q 15.09375 0.046875 10.984375 1.515625 
z
M 30.609375 32.421875 
Q 37.25 32.421875 41.125 36.953125 
Q 45.015625 41.5 45.015625 49.421875 
Q 45.015625 57.28125 41.125 61.84375 
Q 37.25 66.40625 30.609375 66.40625 
Q 23.96875 66.40625 20.09375 61.84375 
Q 16.21875 57.28125 16.21875 49.421875 
Q 16.21875 41.5 20.09375 36.953125 
Q 23.96875 32.421875 30.609375 32.421875 
z
" id="DejaVuSans-57"/>
      </defs>
      <g transform="translate(27.783125 72.421587)scale(0.1 -0.1)">
       <use xlink:href="#DejaVuSans-57"/>
       <use x="63.623047" xlink:href="#DejaVuSans-48"/>
       <use x="127.246094" xlink:href="#DejaVuSans-48"/>
      </g>
     </g>
    </g>
    <g id="ytick_8">
     <g id="line2d_14">
      <g>
       <use style="stroke:#000000;stroke-width:0.8;" x="53.870625" xlink:href="#m86cb0b5574" y="3.914807"/>
      </g>
     </g>
     <g id="text_15">
      <!-- 1000 -->
      <g transform="translate(21.420625 7.714026)scale(0.1 -0.1)">
       <use xlink:href="#DejaVuSans-49"/>
       <use x="63.623047" xlink:href="#DejaVuSans-48"/>
       <use x="127.246094" xlink:href="#DejaVuSans-48"/>
       <use x="190.869141" xlink:href="#DejaVuSans-48"/>
      </g>
     </g>
    </g>
    <g id="text_16">
     <!-- Pulse sensor value -->
     <defs>
      <path d="M 19.671875 64.796875 
L 19.671875 37.40625 
L 32.078125 37.40625 
Q 38.96875 37.40625 42.71875 40.96875 
Q 46.484375 44.53125 46.484375 51.125 
Q 46.484375 57.671875 42.71875 61.234375 
Q 38.96875 64.796875 32.078125 64.796875 
z
M 9.8125 72.90625 
L 32.078125 72.90625 
Q 44.34375 72.90625 50.609375 67.359375 
Q 56.890625 61.8125 56.890625 51.125 
Q 56.890625 40.328125 50.609375 34.8125 
Q 44.34375 29.296875 32.078125 29.296875 
L 19.671875 29.296875 
L 19.671875 0 
L 9.8125 0 
z
" id="DejaVuSans-80"/>
      <path d="M 8.5 21.578125 
L 8.5 54.6875 
L 17.484375 54.6875 
L 17.484375 21.921875 
Q 17.484375 14.15625 20.5 10.265625 
Q 23.53125 6.390625 29.59375 6.390625 
Q 36.859375 6.390625 41.078125 11.03125 
Q 45.3125 15.671875 45.3125 23.6875 
L 45.3125 54.6875 
L 54.296875 54.6875 
L 54.296875 0 
L 45.3125 0 
L 45.3125 8.40625 
Q 42.046875 3.421875 37.71875 1 
Q 33.40625 -1.421875 27.6875 -1.421875 
Q 18.265625 -1.421875 13.375 4.4375 
Q 8.5 10.296875 8.5 21.578125 
z
M 31.109375 56 
z
" id="DejaVuSans-117"/>
      <path d="M 9.421875 75.984375 
L 18.40625 75.984375 
L 18.40625 0 
L 9.421875 0 
z
" id="DejaVuSans-108"/>
      <path d="M 54.890625 33.015625 
L 54.890625 0 
L 45.90625 0 
L 45.90625 32.71875 
Q 45.90625 40.484375 42.875 44.328125 
Q 39.84375 48.1875 33.796875 48.1875 
Q 26.515625 48.1875 22.3125 43.546875 
Q 18.109375 38.921875 18.109375 30.90625 
L 18.109375 0 
L 9.078125 0 
L 9.078125 54.6875 
L 18.109375 54.6875 
L 18.109375 46.1875 
Q 21.34375 51.125 25.703125 53.5625 
Q 30.078125 56 35.796875 56 
Q 45.21875 56 50.046875 50.171875 
Q 54.890625 44.34375 54.890625 33.015625 
z
" id="DejaVuSans-110"/>
      <path d="M 30.609375 48.390625 
Q 23.390625 48.390625 19.1875 42.75 
Q 14.984375 37.109375 14.984375 27.296875 
Q 14.984375 17.484375 19.15625 11.84375 
Q 23.34375 6.203125 30.609375 6.203125 
Q 37.796875 6.203125 41.984375 11.859375 
Q 46.1875 17.53125 46.1875 27.296875 
Q 46.1875 37.015625 41.984375 42.703125 
Q 37.796875 48.390625 30.609375 48.390625 
z
M 30.609375 56 
Q 42.328125 56 49.015625 48.375 
Q 55.71875 40.765625 55.71875 27.296875 
Q 55.71875 13.875 49.015625 6.21875 
Q 42.328125 -1.421875 30.609375 -1.421875 
Q 18.84375 -1.421875 12.171875 6.21875 
Q 5.515625 13.875 5.515625 27.296875 
Q 5.515625 40.765625 12.171875 48.375 
Q 18.84375 56 30.609375 56 
z
" id="DejaVuSans-111"/>
      <path d="M 41.109375 46.296875 
Q 39.59375 47.171875 37.8125 47.578125 
Q 36.03125 48 33.890625 48 
Q 26.265625 48 22.1875 43.046875 
Q 18.109375 38.09375 18.109375 28.8125 
L 18.109375 0 
L 9.078125 0 
L 9.078125 54.6875 
L 18.109375 54.6875 
L 18.109375 46.1875 
Q 20.953125 51.171875 25.484375 53.578125 
Q 30.03125 56 36.53125 56 
Q 37.453125 56 38.578125 55.875 
Q 39.703125 55.765625 41.0625 55.515625 
z
" id="DejaVuSans-114"/>
      <path d="M 2.984375 54.6875 
L 12.5 54.6875 
L 29.59375 8.796875 
L 46.6875 54.6875 
L 56.203125 54.6875 
L 35.6875 0 
L 23.484375 0 
z
" id="DejaVuSans-118"/>
      <path d="M 34.28125 27.484375 
Q 23.390625 27.484375 19.1875 25 
Q 14.984375 22.515625 14.984375 16.5 
Q 14.984375 11.71875 18.140625 8.90625 
Q 21.296875 6.109375 26.703125 6.109375 
Q 34.1875 6.109375 38.703125 11.40625 
Q 43.21875 16.703125 43.21875 25.484375 
L 43.21875 27.484375 
z
M 52.203125 31.203125 
L 52.203125 0 
L 43.21875 0 
L 43.21875 8.296875 
Q 40.140625 3.328125 35.546875 0.953125 
Q 30.953125 -1.421875 24.3125 -1.421875 
Q 15.921875 -1.421875 10.953125 3.296875 
Q 6 8.015625 6 15.921875 
Q 6 25.140625 12.171875 29.828125 
Q 18.359375 34.515625 30.609375 34.515625 
L 43.21875 34.515625 
L 43.21875 35.40625 
Q 43.21875 41.609375 39.140625 45 
Q 35.0625 48.390625 27.6875 48.390625 
Q 23 48.390625 18.546875 47.265625 
Q 14.109375 46.140625 10.015625 43.890625 
L 10.015625 52.203125 
Q 14.9375 54.109375 19.578125 55.046875 
Q 24.21875 56 28.609375 56 
Q 40.484375 56 46.34375 49.84375 
Q 52.203125 43.703125 52.203125 31.203125 
z
" id="DejaVuSans-97"/>
     </defs>
     <g transform="translate(13.677187 333.309375)rotate(-90)scale(0.18 -0.18)">
      <use xlink:href="#DejaVuSans-80"/>
      <use x="58.552734" xlink:href="#DejaVuSans-117"/>
      <use x="121.931641" xlink:href="#DejaVuSans-108"/>
      <use x="149.714844" xlink:href="#DejaVuSans-115"/>
      <use x="201.814453" xlink:href="#DejaVuSans-101"/>
      <use x="263.337891" xlink:href="#DejaVuSans-32"/>
      <use x="295.125" xlink:href="#DejaVuSans-115"/>
      <use x="347.224609" xlink:href="#DejaVuSans-101"/>
      <use x="408.748047" xlink:href="#DejaVuSans-110"/>
      <use x="472.126953" xlink:href="#DejaVuSans-115"/>
      <use x="524.226562" xlink:href="#DejaVuSans-111"/>
      <use x="585.408203" xlink:href="#DejaVuSans-114"/>
      <use x="626.521484" xlink:href="#DejaVuSans-32"/>
      <use x="658.308594" xlink:href="#DejaVuSans-118"/>
      <use x="717.488281" xlink:href="#DejaVuSans-97"/>
      <use x="778.767578" xlink:href="#DejaVuSans-108"/>
      <use x="806.550781" xlink:href="#DejaVuSans-117"/>
      <use x="869.929688" xlink:href="#DejaVuSans-101"/>
     </g>
    </g>
   </g>
   <g id="line2d_15">
    <path clip-path="url(#p1e57dd26b3)" d="M 94.452443 365.630071 
L 96.148954 375.336205 
L 97.861721 372.747903 
L 99.575789 367.571298 
L 101.289856 364.33592 
L 103.002623 360.453466 
L 104.71539 355.923937 
L 106.428157 355.276862 
L 108.142225 350.100257 
L 109.854992 349.453181 
L 111.56906 350.100257 
L 113.28963 348.15903 
L 115.0102 349.453181 
L 116.732721 349.453181 
L 118.453941 350.100257 
L 120.174511 353.335635 
L 121.897032 354.629786 
L 123.618253 355.276862 
L 125.338823 357.218088 
L 127.061344 353.98271 
L 128.782564 344.923652 
L 130.503784 330.687989 
L 132.225655 302.863738 
L 133.946875 269.215806 
L 135.667445 230.39127 
L 137.389966 187.68428 
L 140.831757 118.44719 
L 142.552977 96.446619 
L 144.274198 85.446334 
L 145.994768 84.799258 
L 147.715338 96.446619 
L 149.435908 117.800114 
L 151.156478 143.036063 
L 156.318188 241.391555 
L 158.038759 275.686562 
L 159.759329 305.45204 
L 161.479899 333.276291 
L 163.201119 359.159315 
L 164.92364 377.277432 
L 166.64421 394.101398 
L 168.36478 408.337061 
L 170.08535 416.101969 
L 171.805921 419.984422 
L 173.526491 417.39612 
L 175.247061 410.925364 
L 176.967631 401.866305 
L 178.688201 386.983566 
L 180.408771 370.806676 
L 182.129341 355.923937 
L 183.849911 337.80582 
L 185.570482 324.217233 
L 189.014223 301.569586 
L 190.734793 295.745906 
L 192.455363 291.863452 
L 194.178534 289.922225 
L 195.899104 294.451755 
L 197.619674 298.334208 
L 199.342846 304.157889 
L 201.063416 315.158174 
L 202.785937 322.276006 
L 204.507157 330.687989 
L 206.227727 339.747047 
L 207.950248 344.276576 
L 209.671468 351.394408 
L 211.392038 355.276862 
L 213.114559 356.571013 
L 214.83578 359.806391 
L 218.278871 359.806391 
L 220.000091 362.394693 
L 221.720661 360.453466 
L 223.443182 360.453466 
L 225.164402 361.747618 
L 226.884973 361.100542 
L 230.328714 363.688845 
L 232.049284 362.394693 
L 233.771805 364.33592 
L 235.493025 362.394693 
L 238.934165 357.218088 
L 240.656036 344.923652 
L 242.376606 324.864308 
L 244.097176 297.040057 
L 245.819047 256.921369 
L 247.539617 214.214379 
L 249.260837 166.330785 
L 250.982058 121.682568 
L 252.702628 86.093409 
L 254.423198 56.327932 
L 256.143768 40.798117 
L 257.864338 40.151041 
L 259.592712 49.2101 
L 261.321735 71.857746 
L 263.050108 103.564451 
L 264.777831 139.153609 
L 271.691324 300.922511 
L 273.420997 335.217518 
L 276.878394 392.807247 
L 278.608718 410.925364 
L 280.337091 426.455178 
L 282.064814 434.220086 
L 283.791236 434.220086 
L 285.52026 430.984708 
L 287.250584 420.631498 
L 290.70668 387.630642 
L 294.162776 344.923652 
L 297.619522 308.040342 
L 299.349196 295.09883 
L 301.078869 287.333923 
L 302.806592 282.804394 
L 304.534315 284.745621 
L 306.262688 290.569301 
L 307.992362 298.981284 
L 309.722036 310.628645 
L 311.450409 323.570157 
L 313.179432 335.217518 
L 314.908456 348.15903 
L 316.636179 356.571013 
L 318.365202 365.630071 
L 320.093575 375.336205 
L 321.822599 380.51281 
L 323.550322 384.395264 
L 325.278695 386.983566 
L 327.005767 384.395264 
L 328.73284 383.748188 
L 330.461863 379.218659 
L 332.190237 372.100827 
L 333.916659 369.512525 
L 335.645682 361.747618 
L 337.376006 356.571013 
L 339.103079 353.98271 
L 340.832753 348.15903 
L 342.559825 346.217803 
L 344.288849 344.923652 
L 346.016572 342.982425 
L 347.744295 342.982425 
L 349.470717 341.041198 
L 351.200391 329.393837 
L 352.927463 312.569872 
L 354.657137 281.510243 
L 356.38551 240.744479 
L 358.115184 196.096262 
L 361.57258 99.681997 
L 363.299003 62.798688 
L 365.027376 34.327361 
L 366.75705 25.268302 
L 368.486723 30.444907 
L 370.215096 44.033495 
L 371.94412 69.269444 
L 373.673143 100.976148 
L 375.400216 139.800685 
L 377.12989 183.801826 
L 382.31631 306.746191 
L 385.770455 372.100827 
L 387.498828 398.630927 
L 389.228502 418.043195 
L 390.958175 434.867161 
L 392.685898 444.573295 
L 394.412321 446.514522 
L 396.141994 445.220371 
L 397.871668 436.161312 
L 401.329065 410.278288 
L 404.789062 372.100827 
L 408.245808 336.511669 
L 409.974182 324.864308 
L 411.703205 315.158174 
L 413.433529 306.746191 
L 415.160602 306.099116 
L 416.889625 306.099116 
L 418.617348 310.628645 
L 420.344421 319.040628 
L 422.074094 324.864308 
L 423.801817 334.570442 
L 425.53019 345.570728 
L 427.260514 352.688559 
L 428.990188 361.747618 
L 430.718561 368.865449 
L 432.446934 372.747903 
L 434.175958 377.924508 
L 435.904331 379.865735 
L 437.630753 380.51281 
L 439.357826 383.101113 
L 441.0875 380.51281 
L 442.814572 379.218659 
L 444.544246 379.865735 
L 446.271319 377.277432 
L 448.000342 376.630357 
L 449.728715 374.68913 
L 451.455788 371.453752 
L 453.18221 370.806676 
L 454.911884 368.218374 
L 456.639607 364.982996 
L 458.36863 364.33592 
L 460.095703 360.453466 
L 461.824726 357.865164 
L 463.552449 354.629786 
L 465.282123 343.629501 
L 467.011796 326.158459 
L 468.738869 298.334208 
L 470.468543 256.921369 
L 472.198216 210.331926 
L 475.655613 106.152753 
L 477.384636 63.445763 
L 479.112359 27.856605 
L 480.841383 23.327076 
L 482.569106 22.68 
L 484.297479 23.327076 
L 486.027803 46.621797 
L 487.756176 77.681427 
L 489.48585 114.564736 
L 496.400643 293.804679 
L 498.127715 332.629215 
L 499.857389 368.865449 
L 501.584462 402.513381 
L 503.314135 427.102254 
L 505.043809 447.808673 
L 506.773483 463.338488 
L 508.503156 469.162168 
L 510.230229 471.103395 
L 511.959903 465.92679 
L 515.41795 440.043766 
L 517.147623 422.572725 
L 518.875996 403.807532 
L 520.603069 386.336491 
L 522.330142 367.571298 
L 524.059165 352.041484 
L 525.787538 342.33535 
L 527.513961 331.335064 
L 529.242984 326.805535 
L 530.970707 325.511384 
L 532.69778 324.864308 
L 534.426153 330.040913 
L 536.154526 335.864593 
L 537.883549 341.041198 
L 539.611272 350.747332 
L 541.339645 356.571013 
L 543.066718 363.688845 
L 544.796392 372.747903 
L 546.524115 377.277432 
L 549.980211 387.630642 
L 551.709234 389.571869 
L 553.436957 392.160171 
L 555.16403 392.160171 
L 556.891753 389.571869 
L 558.620776 389.571869 
L 560.349799 387.630642 
L 562.080123 384.395264 
L 563.807196 382.454037 
L 565.536219 377.924508 
L 567.266543 375.336205 
L 568.993616 374.68913 
L 570.72329 370.159601 
L 574.180686 366.277147 
L 575.91101 362.394693 
L 577.638083 362.394693 
L 579.365155 356.571013 
L 581.092878 348.806106 
L 582.822552 334.570442 
L 584.552876 306.099116 
L 586.281249 271.157033 
L 588.010923 229.097118 
L 591.467669 138.506534 
L 593.197343 100.976148 
L 594.927016 71.21067 
L 596.65669 58.269158 
L 598.386364 57.622083 
L 600.114087 69.269444 
L 601.84311 95.152468 
L 603.572784 127.506248 
L 605.301807 166.97786 
L 607.032131 212.920228 
L 612.221152 341.041198 
L 615.677898 408.337061 
L 617.405621 433.57301 
L 619.133995 451.691127 
L 620.862368 467.868017 
L 622.591391 474.985849 
L 624.321065 476.28 
L 626.048137 474.338773 
L 627.779112 462.691412 
L 629.508785 449.102825 
L 631.237158 433.57301 
L 632.964231 412.219515 
L 634.693905 393.454322 
L 638.153252 353.98271 
L 639.880325 339.747047 
L 641.609348 327.452611 
L 643.337721 318.393552 
L 645.064144 315.80525 
L 646.793167 312.569872 
L 648.522191 315.158174 
L 650.251864 322.923081 
L 651.981538 328.099686 
L 655.435683 347.511954 
L 657.165357 353.98271 
L 658.89373 363.688845 
L 660.623404 370.159601 
L 662.351777 374.68913 
L 664.0808 381.806961 
L 665.808523 384.395264 
L 669.267871 390.86602 
L 670.994943 388.924793 
L 674.45169 387.630642 
L 676.178762 383.748188 
L 677.905835 383.101113 
L 681.362581 375.336205 
L 683.092255 374.042054 
L 684.820628 369.512525 
L 686.549651 363.688845 
L 688.277374 355.923937 
L 690.004447 338.452896 
L 691.734121 313.864023 
L 693.461193 283.451469 
L 700.379238 125.565021 
L 702.106961 103.564451 
L 703.834033 89.975863 
L 705.563707 89.328787 
L 707.293381 104.858602 
L 709.022404 126.859173 
L 710.752728 159.212953 
L 717.66492 320.981854 
L 721.121666 387.630642 
L 722.849389 414.807817 
L 724.577112 434.867161 
L 726.304185 452.985278 
L 728.033859 462.044337 
L 729.760931 466.573866 
L 731.489955 467.868017 
L 733.220279 459.456034 
L 734.949952 448.455749 
L 736.677675 435.514237 
L 738.406699 416.101969 
L 740.135722 399.925078 
L 743.593118 359.806391 
L 745.322792 344.276576 
L 747.052466 327.452611 
L 748.779538 317.099401 
L 752.236935 305.45204 
L 753.965308 306.746191 
L 755.695632 311.27572 
L 757.422705 317.099401 
L 760.880101 337.158745 
L 762.608475 345.570728 
L 764.336197 357.218088 
L 766.06392 365.630071 
L 767.792294 372.100827 
L 769.522617 379.865735 
L 771.250991 381.806961 
L 772.980664 384.395264 
L 774.709037 388.277718 
L 776.438061 386.983566 
L 778.165784 386.983566 
L 779.892856 385.689415 
L 781.619929 380.51281 
L 783.347002 379.865735 
L 785.074074 376.630357 
L 786.803748 372.747903 
L 788.531471 372.747903 
L 790.259844 368.865449 
L 791.990168 367.571298 
L 793.717241 364.982996 
L 795.446914 352.688559 
L 797.173987 335.864593 
L 798.90301 310.628645 
L 802.361708 238.156177 
L 805.819754 161.15418 
L 807.546827 134.62408 
L 809.276501 114.564736 
L 811.006174 108.09398 
L 812.735848 114.564736 
L 814.465522 129.447475 
L 816.193245 155.330499 
L 819.649991 223.273438 
L 821.379665 262.74505 
L 823.109988 298.981284 
L 826.564784 364.33592 
L 828.293807 388.277718 
L 830.022831 408.337061 
L 831.751204 425.808103 
L 833.480227 432.925934 
L 835.209251 439.39669 
L 836.939575 441.984993 
L 838.666647 435.514237 
L 840.396321 428.396405 
L 842.123394 418.043195 
L 845.58079 391.513096 
L 849.037537 360.453466 
L 852.495583 333.923367 
L 854.225907 322.923081 
L 855.95298 317.746476 
L 857.683954 310.628645 
L 859.413628 309.981569 
L 861.140701 312.569872 
L 862.870374 314.511098 
L 864.598097 324.217233 
L 868.058095 338.452896 
L 869.785167 350.100257 
L 871.51289 356.571013 
L 873.241914 363.688845 
L 874.972238 372.100827 
L 876.699961 375.983281 
L 878.429634 381.159886 
L 880.156707 385.04234 
L 881.886381 385.689415 
L 883.613453 387.630642 
L 885.343127 386.336491 
L 887.0702 383.748188 
L 888.800523 382.454037 
L 892.25792 375.983281 
L 893.987594 375.336205 
L 895.715317 371.453752 
L 897.44369 368.865449 
L 899.174014 367.571298 
L 900.903687 359.806391 
L 902.63206 349.453181 
L 904.361734 331.98214 
L 906.088807 304.157889 
L 906.088807 304.157889 
" style="fill:none;stroke:#ff0000;stroke-linecap:square;stroke-width:1.5;"/>
   </g>
   <g id="patch_3">
    <path d="M 53.870625 498.96 
L 53.870625 0 
" style="fill:none;stroke:#000000;stroke-linecap:square;stroke-linejoin:miter;stroke-width:0.8;"/>
   </g>
   <g id="patch_4">
    <path d="M 946.670625 498.96 
L 946.670625 0 
" style="fill:none;stroke:#000000;stroke-linecap:square;stroke-linejoin:miter;stroke-width:0.8;"/>
   </g>
   <g id="patch_5">
    <path d="M 53.870625 498.96 
L 946.670625 498.96 
" style="fill:none;stroke:#000000;stroke-linecap:square;stroke-linejoin:miter;stroke-width:0.8;"/>
   </g>
   <g id="patch_6">
    <path d="M 53.870625 0 
L 946.670625 0 
" style="fill:none;stroke:#000000;stroke-linecap:square;stroke-linejoin:miter;stroke-width:0.8;"/>
   </g>
   <g id="legend_1">
    <g id="patch_7">
     <path d="M 726.010312 67.24125 
L 934.070625 67.24125 
Q 937.670625 67.24125 937.670625 63.64125 
L 937.670625 12.6 
Q 937.670625 9 934.070625 9 
L 726.010312 9 
Q 722.410312 9 722.410312 12.6 
L 722.410312 63.64125 
Q 722.410312 67.24125 726.010312 67.24125 
z
" style="fill:#ffffff;opacity:0.8;stroke:#cccccc;stroke-linejoin:miter;"/>
    </g>
    <g id="line2d_16">
     <path d="M 729.610312 23.577188 
L 765.610312 23.577188 
" style="fill:none;stroke:#ff0000;stroke-linecap:square;stroke-width:1.5;"/>
    </g>
    <g id="line2d_17"/>
    <g id="text_17">
     <!-- pulsesensor.com -->
     <defs>
      <path d="M 18.109375 8.203125 
L 18.109375 -20.796875 
L 9.078125 -20.796875 
L 9.078125 54.6875 
L 18.109375 54.6875 
L 18.109375 46.390625 
Q 20.953125 51.265625 25.265625 53.625 
Q 29.59375 56 35.59375 56 
Q 45.5625 56 51.78125 48.09375 
Q 58.015625 40.1875 58.015625 27.296875 
Q 58.015625 14.40625 51.78125 6.484375 
Q 45.5625 -1.421875 35.59375 -1.421875 
Q 29.59375 -1.421875 25.265625 0.953125 
Q 20.953125 3.328125 18.109375 8.203125 
z
M 48.6875 27.296875 
Q 48.6875 37.203125 44.609375 42.84375 
Q 40.53125 48.484375 33.40625 48.484375 
Q 26.265625 48.484375 22.1875 42.84375 
Q 18.109375 37.203125 18.109375 27.296875 
Q 18.109375 17.390625 22.1875 11.75 
Q 26.265625 6.109375 33.40625 6.109375 
Q 40.53125 6.109375 44.609375 11.75 
Q 48.6875 17.390625 48.6875 27.296875 
z
" id="DejaVuSans-112"/>
      <path d="M 10.6875 12.40625 
L 21 12.40625 
L 21 0 
L 10.6875 0 
z
" id="DejaVuSans-46"/>
      <path d="M 48.78125 52.59375 
L 48.78125 44.1875 
Q 44.96875 46.296875 41.140625 47.34375 
Q 37.3125 48.390625 33.40625 48.390625 
Q 24.65625 48.390625 19.8125 42.84375 
Q 14.984375 37.3125 14.984375 27.296875 
Q 14.984375 17.28125 19.8125 11.734375 
Q 24.65625 6.203125 33.40625 6.203125 
Q 37.3125 6.203125 41.140625 7.25 
Q 44.96875 8.296875 48.78125 10.40625 
L 48.78125 2.09375 
Q 45.015625 0.34375 40.984375 -0.53125 
Q 36.96875 -1.421875 32.421875 -1.421875 
Q 20.0625 -1.421875 12.78125 6.34375 
Q 5.515625 14.109375 5.515625 27.296875 
Q 5.515625 40.671875 12.859375 48.328125 
Q 20.21875 56 33.015625 56 
Q 37.15625 56 41.109375 55.140625 
Q 45.0625 54.296875 48.78125 52.59375 
z
" id="DejaVuSans-99"/>
     </defs>
     <g transform="translate(780.010312 29.877188)scale(0.18 -0.18)">
      <use xlink:href="#DejaVuSans-112"/>
      <use x="63.476562" xlink:href="#DejaVuSans-117"/>
      <use x="126.855469" xlink:href="#DejaVuSans-108"/>
      <use x="154.638672" xlink:href="#DejaVuSans-115"/>
      <use x="206.738281" xlink:href="#DejaVuSans-101"/>
      <use x="268.261719" xlink:href="#DejaVuSans-115"/>
      <use x="320.361328" xlink:href="#DejaVuSans-101"/>
      <use x="381.884766" xlink:href="#DejaVuSans-110"/>
      <use x="445.263672" xlink:href="#DejaVuSans-115"/>
      <use x="497.363281" xlink:href="#DejaVuSans-111"/>
      <use x="558.544922" xlink:href="#DejaVuSans-114"/>
      <use x="590.533203" xlink:href="#DejaVuSans-46"/>
      <use x="622.320312" xlink:href="#DejaVuSans-99"/>
      <use x="677.300781" xlink:href="#DejaVuSans-111"/>
      <use x="738.482422" xlink:href="#DejaVuSans-109"/>
     </g>
    </g>
    <g id="line2d_18">
     <path d="M 729.610312 49.997813 
L 765.610312 49.997813 
" style="fill:none;stroke:#0000ff;stroke-dasharray:5.55,2.4;stroke-dashoffset:0;stroke-width:1.5;"/>
    </g>
    <g id="line2d_19"/>
    <g id="text_18">
     <!-- TicWatch -->
     <defs>
      <path d="M 3.328125 72.90625 
L 13.28125 72.90625 
L 28.609375 11.28125 
L 43.890625 72.90625 
L 54.984375 72.90625 
L 70.3125 11.28125 
L 85.59375 72.90625 
L 95.609375 72.90625 
L 77.296875 0 
L 64.890625 0 
L 49.515625 63.28125 
L 33.984375 0 
L 21.578125 0 
z
" id="DejaVuSans-87"/>
      <path d="M 18.3125 70.21875 
L 18.3125 54.6875 
L 36.8125 54.6875 
L 36.8125 47.703125 
L 18.3125 47.703125 
L 18.3125 18.015625 
Q 18.3125 11.328125 20.140625 9.421875 
Q 21.96875 7.515625 27.59375 7.515625 
L 36.8125 7.515625 
L 36.8125 0 
L 27.59375 0 
Q 17.1875 0 13.234375 3.875 
Q 9.28125 7.765625 9.28125 18.015625 
L 9.28125 47.703125 
L 2.6875 47.703125 
L 2.6875 54.6875 
L 9.28125 54.6875 
L 9.28125 70.21875 
z
" id="DejaVuSans-116"/>
      <path d="M 54.890625 33.015625 
L 54.890625 0 
L 45.90625 0 
L 45.90625 32.71875 
Q 45.90625 40.484375 42.875 44.328125 
Q 39.84375 48.1875 33.796875 48.1875 
Q 26.515625 48.1875 22.3125 43.546875 
Q 18.109375 38.921875 18.109375 30.90625 
L 18.109375 0 
L 9.078125 0 
L 9.078125 75.984375 
L 18.109375 75.984375 
L 18.109375 46.1875 
Q 21.34375 51.125 25.703125 53.5625 
Q 30.078125 56 35.796875 56 
Q 45.21875 56 50.046875 50.171875 
Q 54.890625 44.34375 54.890625 33.015625 
z
" id="DejaVuSans-104"/>
     </defs>
     <g transform="translate(780.010312 56.297813)scale(0.18 -0.18)">
      <use xlink:href="#DejaVuSans-84"/>
      <use x="57.958984" xlink:href="#DejaVuSans-105"/>
      <use x="85.742188" xlink:href="#DejaVuSans-99"/>
      <use x="140.722656" xlink:href="#DejaVuSans-87"/>
      <use x="233.224609" xlink:href="#DejaVuSans-97"/>
      <use x="294.503906" xlink:href="#DejaVuSans-116"/>
      <use x="333.712891" xlink:href="#DejaVuSans-99"/>
      <use x="388.693359" xlink:href="#DejaVuSans-104"/>
     </g>
    </g>
   </g>
  </g>
  <g id="axes_2">
   <g id="matplotlib.axis_3">
    <g id="ytick_9">
     <g id="line2d_20">
      <defs>
       <path d="M 0 0 
L 3.5 0 
" id="md0e8894a1f" style="stroke:#000000;stroke-width:0.8;"/>
      </defs>
      <g>
       <use style="stroke:#000000;stroke-width:0.8;" x="946.670625" xlink:href="#md0e8894a1f" y="490.960944"/>
      </g>
     </g>
     <g id="text_19">
      <!-- 126500 -->
      <g transform="translate(953.670625 494.760162)scale(0.1 -0.1)">
       <use xlink:href="#DejaVuSans-49"/>
       <use x="63.623047" xlink:href="#DejaVuSans-50"/>
       <use x="127.246094" xlink:href="#DejaVuSans-54"/>
       <use x="190.869141" xlink:href="#DejaVuSans-53"/>
       <use x="254.492188" xlink:href="#DejaVuSans-48"/>
       <use x="318.115234" xlink:href="#DejaVuSans-48"/>
      </g>
     </g>
    </g>
    <g id="ytick_10">
     <g id="line2d_21">
      <g>
       <use style="stroke:#000000;stroke-width:0.8;" x="946.670625" xlink:href="#md0e8894a1f" y="422.358403"/>
      </g>
     </g>
     <g id="text_20">
      <!-- 127000 -->
      <g transform="translate(953.670625 426.157622)scale(0.1 -0.1)">
       <use xlink:href="#DejaVuSans-49"/>
       <use x="63.623047" xlink:href="#DejaVuSans-50"/>
       <use x="127.246094" xlink:href="#DejaVuSans-55"/>
       <use x="190.869141" xlink:href="#DejaVuSans-48"/>
       <use x="254.492188" xlink:href="#DejaVuSans-48"/>
       <use x="318.115234" xlink:href="#DejaVuSans-48"/>
      </g>
     </g>
    </g>
    <g id="ytick_11">
     <g id="line2d_22">
      <g>
       <use style="stroke:#000000;stroke-width:0.8;" x="946.670625" xlink:href="#md0e8894a1f" y="353.755862"/>
      </g>
     </g>
     <g id="text_21">
      <!-- 127500 -->
      <g transform="translate(953.670625 357.555081)scale(0.1 -0.1)">
       <use xlink:href="#DejaVuSans-49"/>
       <use x="63.623047" xlink:href="#DejaVuSans-50"/>
       <use x="127.246094" xlink:href="#DejaVuSans-55"/>
       <use x="190.869141" xlink:href="#DejaVuSans-53"/>
       <use x="254.492188" xlink:href="#DejaVuSans-48"/>
       <use x="318.115234" xlink:href="#DejaVuSans-48"/>
      </g>
     </g>
    </g>
    <g id="ytick_12">
     <g id="line2d_23">
      <g>
       <use style="stroke:#000000;stroke-width:0.8;" x="946.670625" xlink:href="#md0e8894a1f" y="285.153321"/>
      </g>
     </g>
     <g id="text_22">
      <!-- 128000 -->
      <g transform="translate(953.670625 288.95254)scale(0.1 -0.1)">
       <use xlink:href="#DejaVuSans-49"/>
       <use x="63.623047" xlink:href="#DejaVuSans-50"/>
       <use x="127.246094" xlink:href="#DejaVuSans-56"/>
       <use x="190.869141" xlink:href="#DejaVuSans-48"/>
       <use x="254.492188" xlink:href="#DejaVuSans-48"/>
       <use x="318.115234" xlink:href="#DejaVuSans-48"/>
      </g>
     </g>
    </g>
    <g id="ytick_13">
     <g id="line2d_24">
      <g>
       <use style="stroke:#000000;stroke-width:0.8;" x="946.670625" xlink:href="#md0e8894a1f" y="216.55078"/>
      </g>
     </g>
     <g id="text_23">
      <!-- 128500 -->
      <g transform="translate(953.670625 220.349999)scale(0.1 -0.1)">
       <use xlink:href="#DejaVuSans-49"/>
       <use x="63.623047" xlink:href="#DejaVuSans-50"/>
       <use x="127.246094" xlink:href="#DejaVuSans-56"/>
       <use x="190.869141" xlink:href="#DejaVuSans-53"/>
       <use x="254.492188" xlink:href="#DejaVuSans-48"/>
       <use x="318.115234" xlink:href="#DejaVuSans-48"/>
      </g>
     </g>
    </g>
    <g id="ytick_14">
     <g id="line2d_25">
      <g>
       <use style="stroke:#000000;stroke-width:0.8;" x="946.670625" xlink:href="#md0e8894a1f" y="147.94824"/>
      </g>
     </g>
     <g id="text_24">
      <!-- 129000 -->
      <g transform="translate(953.670625 151.747458)scale(0.1 -0.1)">
       <use xlink:href="#DejaVuSans-49"/>
       <use x="63.623047" xlink:href="#DejaVuSans-50"/>
       <use x="127.246094" xlink:href="#DejaVuSans-57"/>
       <use x="190.869141" xlink:href="#DejaVuSans-48"/>
       <use x="254.492188" xlink:href="#DejaVuSans-48"/>
       <use x="318.115234" xlink:href="#DejaVuSans-48"/>
      </g>
     </g>
    </g>
    <g id="ytick_15">
     <g id="line2d_26">
      <g>
       <use style="stroke:#000000;stroke-width:0.8;" x="946.670625" xlink:href="#md0e8894a1f" y="79.345699"/>
      </g>
     </g>
     <g id="text_25">
      <!-- 129500 -->
      <g transform="translate(953.670625 83.144917)scale(0.1 -0.1)">
       <use xlink:href="#DejaVuSans-49"/>
       <use x="63.623047" xlink:href="#DejaVuSans-50"/>
       <use x="127.246094" xlink:href="#DejaVuSans-57"/>
       <use x="190.869141" xlink:href="#DejaVuSans-53"/>
       <use x="254.492188" xlink:href="#DejaVuSans-48"/>
       <use x="318.115234" xlink:href="#DejaVuSans-48"/>
      </g>
     </g>
    </g>
    <g id="ytick_16">
     <g id="line2d_27">
      <g>
       <use style="stroke:#000000;stroke-width:0.8;" x="946.670625" xlink:href="#md0e8894a1f" y="10.743158"/>
      </g>
     </g>
     <g id="text_26">
      <!-- 130000 -->
      <g transform="translate(953.670625 14.542377)scale(0.1 -0.1)">
       <use xlink:href="#DejaVuSans-49"/>
       <use x="63.623047" xlink:href="#DejaVuSans-51"/>
       <use x="127.246094" xlink:href="#DejaVuSans-48"/>
       <use x="190.869141" xlink:href="#DejaVuSans-48"/>
       <use x="254.492188" xlink:href="#DejaVuSans-48"/>
       <use x="318.115234" xlink:href="#DejaVuSans-48"/>
      </g>
     </g>
    </g>
    <g id="text_27">
     <!-- SmartWatch sensor value -->
     <defs>
      <path d="M 53.515625 70.515625 
L 53.515625 60.890625 
Q 47.90625 63.578125 42.921875 64.890625 
Q 37.9375 66.21875 33.296875 66.21875 
Q 25.25 66.21875 20.875 63.09375 
Q 16.5 59.96875 16.5 54.203125 
Q 16.5 49.359375 19.40625 46.890625 
Q 22.3125 44.4375 30.421875 42.921875 
L 36.375 41.703125 
Q 47.40625 39.59375 52.65625 34.296875 
Q 57.90625 29 57.90625 20.125 
Q 57.90625 9.515625 50.796875 4.046875 
Q 43.703125 -1.421875 29.984375 -1.421875 
Q 24.8125 -1.421875 18.96875 -0.25 
Q 13.140625 0.921875 6.890625 3.21875 
L 6.890625 13.375 
Q 12.890625 10.015625 18.65625 8.296875 
Q 24.421875 6.59375 29.984375 6.59375 
Q 38.421875 6.59375 43.015625 9.90625 
Q 47.609375 13.234375 47.609375 19.390625 
Q 47.609375 24.75 44.3125 27.78125 
Q 41.015625 30.8125 33.5 32.328125 
L 27.484375 33.5 
Q 16.453125 35.6875 11.515625 40.375 
Q 6.59375 45.0625 6.59375 53.421875 
Q 6.59375 63.09375 13.40625 68.65625 
Q 20.21875 74.21875 32.171875 74.21875 
Q 37.3125 74.21875 42.625 73.28125 
Q 47.953125 72.359375 53.515625 70.515625 
z
" id="DejaVuSans-83"/>
     </defs>
     <g transform="translate(1009.522812 364.854375)rotate(-90)scale(0.18 -0.18)">
      <use xlink:href="#DejaVuSans-83"/>
      <use x="63.476562" xlink:href="#DejaVuSans-109"/>
      <use x="160.888672" xlink:href="#DejaVuSans-97"/>
      <use x="222.167969" xlink:href="#DejaVuSans-114"/>
      <use x="263.28125" xlink:href="#DejaVuSans-116"/>
      <use x="302.490234" xlink:href="#DejaVuSans-87"/>
      <use x="394.992188" xlink:href="#DejaVuSans-97"/>
      <use x="456.271484" xlink:href="#DejaVuSans-116"/>
      <use x="495.480469" xlink:href="#DejaVuSans-99"/>
      <use x="550.460938" xlink:href="#DejaVuSans-104"/>
      <use x="613.839844" xlink:href="#DejaVuSans-32"/>
      <use x="645.626953" xlink:href="#DejaVuSans-115"/>
      <use x="697.726562" xlink:href="#DejaVuSans-101"/>
      <use x="759.25" xlink:href="#DejaVuSans-110"/>
      <use x="822.628906" xlink:href="#DejaVuSans-115"/>
      <use x="874.728516" xlink:href="#DejaVuSans-111"/>
      <use x="935.910156" xlink:href="#DejaVuSans-114"/>
      <use x="977.023438" xlink:href="#DejaVuSans-32"/>
      <use x="1008.810547" xlink:href="#DejaVuSans-118"/>
      <use x="1067.990234" xlink:href="#DejaVuSans-97"/>
      <use x="1129.269531" xlink:href="#DejaVuSans-108"/>
      <use x="1157.052734" xlink:href="#DejaVuSans-117"/>
      <use x="1220.431641" xlink:href="#DejaVuSans-101"/>
     </g>
    </g>
   </g>
   <g id="line2d_28">
    <path clip-path="url(#p1e57dd26b3)" d="M 100.465985 196.930454 
L 102.904435 185.405227 
L 104.692631 182.386715 
L 106.155701 185.405227 
L 108.594151 157.6898 
L 110.219784 175.252051 
L 111.845417 168.940617 
L 115.096684 167.842976 
L 116.39719 172.782359 
L 118.022823 144.243702 
L 120.948963 150.280726 
L 122.412033 150.280726 
L 123.875103 137.657858 
L 125.338172 122.565299 
L 129.239692 134.090526 
L 130.865325 109.668022 
L 132.003268 121.193249 
L 137.042731 110.491252 
L 138.668364 107.47274 
L 139.968871 105.551869 
L 145.170897 101.435717 
L 146.633967 84.422287 
L 148.097037 87.440799 
L 149.397543 94.575463 
L 152.648809 71.799419 
L 154.111879 92.929002 
L 155.574949 97.593975 
L 160.289285 108.570381 
L 161.752355 116.528276 
L 163.052861 134.639347 
L 169.880521 150.829546 
L 171.506154 134.090526 
L 172.481534 144.792523 
L 173.619477 145.615753 
L 176.383053 162.903593 
L 177.68356 169.763848 
L 178.984066 185.405227 
L 184.998909 182.935535 
L 186.461979 190.34461 
L 187.762485 174.42882 
L 191.989131 194.460762 
L 193.289638 188.423739 
L 194.427581 177.447332 
L 195.565524 195.009583 
L 201.74293 184.307586 
L 203.206 196.381633 
L 204.506507 188.423739 
L 208.57059 180.465844 
L 210.196223 184.856407 
L 211.659293 179.368203 
L 220.600275 171.410309 
L 221.900781 172.233539 
L 223.038725 165.922105 
L 224.501794 168.391797 
L 226.940244 167.294156 
L 228.078187 153.299238 
L 235.393536 160.708312 
L 236.53148 141.774011 
L 239.782746 139.304319 
L 241.408379 130.248784 
L 242.871449 137.109038 
L 244.334519 119.546788 
L 249.048855 110.491252 
L 250.349361 114.607405 
L 251.324741 96.496334 
L 255.388824 95.947514 
L 256.526767 102.533358 
L 257.339584 95.398693 
L 264.329806 74.817931 
L 265.305186 87.989619 
L 266.280566 91.008131 
L 267.093383 90.45931 
L 271.807719 102.533358 
L 273.108225 110.491252 
L 274.083605 124.21176 
L 280.261011 111.588893 
L 281.398955 125.583811 
L 282.699461 126.681452 
L 287.413797 141.774011 
L 289.364557 160.708312 
L 290.339937 146.164574 
L 296.192216 159.885082 
L 297.167596 170.861488 
L 297.980413 133.267296 
L 303.182439 131.072015 
L 304.157819 139.304319 
L 304.970635 129.699964 
L 312.448548 127.230272 
L 313.749054 125.034991 
L 314.886997 117.625917 
L 316.024941 126.132632 
L 318.788517 113.509764 
L 319.92646 105.003049 
L 320.90184 125.034991 
L 327.729499 122.016479 
L 328.542316 113.509764 
L 329.355132 120.095608 
L 334.882285 119.546788 
L 335.857665 114.058584 
L 336.670482 103.082178 
L 337.483298 115.156225 
L 343.660704 95.398693 
L 344.636084 101.984537 
L 345.286337 109.668022 
L 350.3258 94.026642 
L 351.138617 106.10069 
L 351.78887 79.482904 
L 358.941656 78.934083 
L 359.754472 77.013212 
L 360.729852 81.952595 
L 361.542669 44.358403 
L 366.582131 52.865118 
L 367.720075 58.902142 
L 368.532891 55.334809 
L 374.710297 52.865118 
L 375.523114 45.730454 
L 376.173367 26.247332 
L 382.025646 37.772559 
L 382.838463 50.669837 
L 383.326153 22.68 
L 383.976406 70.976189 
L 390.316375 68.780907 
L 391.129192 78.934083 
L 391.616882 66.860036 
L 399.094794 92.929002 
L 399.907611 90.45931 
L 400.557864 111.040073 
L 405.922454 94.575463 
L 407.385523 113.509764 
L 408.035777 113.509764 
L 414.050619 136.285808 
L 414.700873 132.718475 
L 415.513689 136.285808 
L 421.853658 129.699964 
L 422.503912 138.755499 
L 423.154165 136.285808 
L 429.819261 132.169655 
L 430.794641 131.072015 
L 431.282331 134.090526 
L 431.932584 129.699964 
L 438.272553 137.657858 
L 438.922806 146.164574 
L 439.410496 138.755499 
L 446.075592 128.602323 
L 446.725846 117.077096 
L 447.213535 114.607405 
L 454.203758 117.625917 
L 455.016575 117.077096 
L 455.666828 110.491252 
L 456.317081 101.435717 
L 461.519107 91.556951 
L 462.16936 88.538439 
L 462.982177 88.538439 
L 469.48471 75.366751 
L 470.297526 71.799419 
L 470.785216 75.366751 
L 477.775439 44.358403 
L 478.750819 48.748966 
L 479.401072 53.688348 
L 479.726198 52.865118 
L 484.928224 49.846606 
L 485.741041 34.754047 
L 486.716421 25.698512 
L 493.706643 41.339891 
L 494.356897 69.329728 
L 501.347119 57.804501 
L 501.997373 79.482904 
L 502.485062 75.366751 
L 503.135316 89.36167 
L 510.125538 95.398693 
L 510.775792 91.556951 
L 511.100918 112.137713 
L 517.115761 125.583811 
L 517.766014 125.034991 
L 518.253704 117.077096 
L 526.056743 146.713394 
L 526.86956 129.699964 
L 527.35725 137.109038 
L 528.007503 132.718475 
L 532.559276 112.137713 
L 533.209529 134.639347 
L 533.534656 130.248784 
L 541.500258 147.262214 
L 542.150511 150.829546 
L 542.475638 146.164574 
L 548.653044 153.299238 
L 549.303297 149.731906 
L 549.628424 137.109038 
L 550.116114 142.597241 
L 556.78121 146.164574 
L 557.431463 135.736987 
L 557.756589 138.755499 
L 564.096559 137.109038 
L 564.584249 138.755499 
L 565.071939 134.639347 
L 572.387288 128.602323 
L 573.037541 141.774011 
L 573.200104 123.66294 
L 573.687794 113.509764 
L 579.8652 121.193249 
L 580.35289 127.230272 
L 580.678017 120.644428 
L 588.155929 112.960944 
L 589.131309 124.21176 
L 595.796405 125.583811 
L 596.446658 118.174737 
L 596.771785 129.699964 
L 597.096912 159.336261 
L 604.737387 173.33118 
L 605.387641 185.954047 
L 605.875331 215.041525 
L 612.2153 212.023013 
L 613.028116 248.245154 
L 620.180902 236.719927 
L 621.156282 283.369655 
L 621.481409 286.388167 
L 627.333688 285.839347 
L 627.821378 302.852777 
L 628.309068 302.029546 
L 636.112107 305.048058 
L 636.76236 310.536261 
L 637.25005 288.857858 
L 643.10233 311.085082 
L 643.915146 306.420109 
L 644.402836 316.024465 
L 644.890526 331.665844 
L 652.531002 316.024465 
L 653.343818 322.061488 
L 659.683788 325.08 
L 660.171478 309.987441 
L 660.659168 316.573285 
L 668.13708 323.982359 
L 668.949897 311.908312 
L 669.60015 323.982359 
L 675.452429 317.122105 
L 676.102683 330.019383 
L 676.427809 306.968929 
L 683.092905 299.834265 
L 683.580595 306.968929 
L 683.905722 283.918475 
L 691.708761 294.346062 
L 692.521577 256.751869 
L 692.684141 276.783811 
L 699.836926 277.881452 
L 700.48718 260.868022 
L 700.812306 266.356225 
L 706.502022 276.783811 
L 707.152276 266.356225 
L 707.477402 284.467296 
L 715.117878 292.425191 
L 715.605568 294.346062 
L 716.418385 316.024465 
L 723.08348 311.085082 
L 723.896297 342.09343 
L 730.561393 346.209583 
L 731.211646 355.265118 
L 731.536773 373.376189 
L 738.689559 368.711216 
L 739.177249 370.357677 
L 739.664939 374.74824 
L 739.827502 370.357677 
L 746.817724 376.394701 
L 747.467978 384.352595 
L 747.955668 377.217931 
L 754.295637 369.260036 
L 754.783327 372.827368 
L 755.108453 394.780181 
L 763.074056 381.882904 
L 763.724309 357.734809 
L 764.211999 349.228094 
L 764.537126 369.260036 
L 769.739152 372.278548 
L 770.389405 372.278548 
L 770.551968 354.167477 
L 778.842697 356.637169 
L 779.492951 350.600145 
L 779.818077 353.618657 
L 786.32061 348.679274 
L 786.645736 327.549691 
L 787.133426 337.702868 
L 787.621116 341.54461 
L 794.448776 329.470563 
L 794.773902 325.62882 
L 795.099029 327.000871 
L 801.926688 314.926824 
L 802.414378 321.512668 
L 802.739505 323.159129 
L 810.054854 303.401597 
L 811.030234 325.62882 
L 811.192797 344.563122 
L 818.345583 356.637169 
L 818.833273 367.339165 
L 819.320963 384.901416 
L 825.986059 389.291978 
L 826.636312 407.403049 
L 826.961439 400.817205 
L 833.951661 421.397967 
L 834.764478 436.490526 
L 835.089604 431.002323 
L 835.414731 442.52755 
L 841.429574 441.155499 
L 841.917263 452.131906 
L 842.24239 454.052777 
L 850.533119 447.192523 
L 851.183372 460.638621 
L 851.508499 447.741343 
L 857.360778 476.28 
L 858.011032 463.108312 
L 858.336158 454.052777 
L 858.661285 452.131906 
L 866.301761 448.564574 
L 866.952014 458.71775 
L 867.277141 439.509038 
L 873.779673 439.509038 
L 874.267363 430.453503 
L 874.59249 437.039347 
L 881.907839 428.532632 
L 882.395529 438.685808 
L 882.720655 417.556225 
L 883.208345 407.951869 
L 888.735498 409.04951 
L 889.385751 407.403049 
L 889.873441 420.025917 
L 897.67648 402.463666 
L 898.326734 389.840799 
L 898.65186 402.463666 
L 904.829266 390.389619 
L 905.316956 374.74824 
L 905.642083 354.167477 
L 905.967209 359.10686 
L 905.967209 359.10686 
" style="fill:none;stroke:#0000ff;stroke-dasharray:5.55,2.4;stroke-dashoffset:0;stroke-width:1.5;"/>
   </g>
   <g id="patch_8">
    <path d="M 53.870625 498.96 
L 53.870625 -0 
" style="fill:none;stroke:#000000;stroke-linecap:square;stroke-linejoin:miter;stroke-width:0.8;"/>
   </g>
   <g id="patch_9">
    <path d="M 946.670625 498.96 
L 946.670625 -0 
" style="fill:none;stroke:#000000;stroke-linecap:square;stroke-linejoin:miter;stroke-width:0.8;"/>
   </g>
   <g id="patch_10">
    <path d="M 53.870625 498.96 
L 946.670625 498.96 
" style="fill:none;stroke:#000000;stroke-linecap:square;stroke-linejoin:miter;stroke-width:0.8;"/>
   </g>
   <g id="patch_11">
    <path d="M 53.870625 0 
L 946.670625 0 
" style="fill:none;stroke:#000000;stroke-linecap:square;stroke-linejoin:miter;stroke-width:0.8;"/>
   </g>
  </g>
 </g>
 <defs>
  <clipPath id="p1e57dd26b3">
   <rect height="498.96" width="892.8" x="53.870625" y="0"/>
  </clipPath>
 </defs>
</svg>
