<?xml version="1.0" encoding="utf-8" standalone="no"?>
<!DOCTYPE svg PUBLIC "-//W3C//DTD SVG 1.1//EN"
  "http://www.w3.org/Graphics/SVG/1.1/DTD/svg11.dtd">
<!-- Created with matplotlib (https://matplotlib.org/) -->
<svg height="399.024949pt" version="1.1" viewBox="0 0 995.133125 399.024949" width="995.133125pt" xmlns="http://www.w3.org/2000/svg" xmlns:xlink="http://www.w3.org/1999/xlink">
 <metadata>
  <rdf:RDF xmlns:cc="http://creativecommons.org/ns#" xmlns:dc="http://purl.org/dc/elements/1.1/" xmlns:rdf="http://www.w3.org/1999/02/22-rdf-syntax-ns#">
   <cc:Work>
    <dc:type rdf:resource="http://purl.org/dc/dcmitype/StillImage"/>
    <dc:date>2022-01-17T17:04:37.819310</dc:date>
    <dc:format>image/svg+xml</dc:format>
    <dc:creator>
     <cc:Agent>
      <dc:title>Matplotlib v3.3.4, https://matplotlib.org/</dc:title>
     </cc:Agent>
    </dc:creator>
   </cc:Work>
  </rdf:RDF>
 </metadata>
 <defs>
  <style type="text/css">*{stroke-linecap:butt;stroke-linejoin:round;}</style>
 </defs>
 <g id="figure_1">
  <g id="patch_1">
   <path d="M 0 399.024949 
L 995.133125 399.024949 
L 995.133125 0 
L 0 0 
z
" style="fill:#ffffff;"/>
  </g>
  <g id="axes_1">
   <g id="patch_2">
    <path d="M 102.333125 337.698699 
L 995.133125 337.698699 
L 995.133125 5.058699 
L 102.333125 5.058699 
z
" style="fill:#ffffff;"/>
   </g>
   <g id="matplotlib.axis_1">
    <g id="xtick_1">
     <g id="line2d_1">
      <defs>
       <path d="M 0 0 
L 0 3.5 
" id="m5cf0c61250" style="stroke:#000000;stroke-width:0.8;"/>
      </defs>
      <g>
       <use style="stroke:#000000;stroke-width:0.8;" x="142.914294" xlink:href="#m5cf0c61250" y="337.698699"/>
      </g>
     </g>
     <g id="text_1">
      <!-- 0 -->
      <g transform="translate(134.643044 364.454636)scale(0.26 -0.26)">
       <defs>
        <path d="M 31.78125 66.40625 
Q 24.171875 66.40625 20.328125 58.90625 
Q 16.5 51.421875 16.5 36.375 
Q 16.5 21.390625 20.328125 13.890625 
Q 24.171875 6.390625 31.78125 6.390625 
Q 39.453125 6.390625 43.28125 13.890625 
Q 47.125 21.390625 47.125 36.375 
Q 47.125 51.421875 43.28125 58.90625 
Q 39.453125 66.40625 31.78125 66.40625 
z
M 31.78125 74.21875 
Q 44.046875 74.21875 50.515625 64.515625 
Q 56.984375 54.828125 56.984375 36.375 
Q 56.984375 17.96875 50.515625 8.265625 
Q 44.046875 -1.421875 31.78125 -1.421875 
Q 19.53125 -1.421875 13.0625 8.265625 
Q 6.59375 17.96875 6.59375 36.375 
Q 6.59375 54.828125 13.0625 64.515625 
Q 19.53125 74.21875 31.78125 74.21875 
z
" id="DejaVuSans-48"/>
       </defs>
       <use xlink:href="#DejaVuSans-48"/>
      </g>
     </g>
    </g>
    <g id="xtick_2">
     <g id="line2d_2">
      <g>
       <use style="stroke:#000000;stroke-width:0.8;" x="305.302494" xlink:href="#m5cf0c61250" y="337.698699"/>
      </g>
     </g>
     <g id="text_2">
      <!-- 2 -->
      <g transform="translate(297.031244 364.454636)scale(0.26 -0.26)">
       <defs>
        <path d="M 19.1875 8.296875 
L 53.609375 8.296875 
L 53.609375 0 
L 7.328125 0 
L 7.328125 8.296875 
Q 12.9375 14.109375 22.625 23.890625 
Q 32.328125 33.6875 34.8125 36.53125 
Q 39.546875 41.84375 41.421875 45.53125 
Q 43.3125 49.21875 43.3125 52.78125 
Q 43.3125 58.59375 39.234375 62.25 
Q 35.15625 65.921875 28.609375 65.921875 
Q 23.96875 65.921875 18.8125 64.3125 
Q 13.671875 62.703125 7.8125 59.421875 
L 7.8125 69.390625 
Q 13.765625 71.78125 18.9375 73 
Q 24.125 74.21875 28.421875 74.21875 
Q 39.75 74.21875 46.484375 68.546875 
Q 53.21875 62.890625 53.21875 53.421875 
Q 53.21875 48.921875 51.53125 44.890625 
Q 49.859375 40.875 45.40625 35.40625 
Q 44.1875 33.984375 37.640625 27.21875 
Q 31.109375 20.453125 19.1875 8.296875 
z
" id="DejaVuSans-50"/>
       </defs>
       <use xlink:href="#DejaVuSans-50"/>
      </g>
     </g>
    </g>
    <g id="xtick_3">
     <g id="line2d_3">
      <g>
       <use style="stroke:#000000;stroke-width:0.8;" x="467.690695" xlink:href="#m5cf0c61250" y="337.698699"/>
      </g>
     </g>
     <g id="text_3">
      <!-- 4 -->
      <g transform="translate(459.419445 364.454636)scale(0.26 -0.26)">
       <defs>
        <path d="M 37.796875 64.3125 
L 12.890625 25.390625 
L 37.796875 25.390625 
z
M 35.203125 72.90625 
L 47.609375 72.90625 
L 47.609375 25.390625 
L 58.015625 25.390625 
L 58.015625 17.1875 
L 47.609375 17.1875 
L 47.609375 0 
L 37.796875 0 
L 37.796875 17.1875 
L 4.890625 17.1875 
L 4.890625 26.703125 
z
" id="DejaVuSans-52"/>
       </defs>
       <use xlink:href="#DejaVuSans-52"/>
      </g>
     </g>
    </g>
    <g id="xtick_4">
     <g id="line2d_4">
      <g>
       <use style="stroke:#000000;stroke-width:0.8;" x="630.078896" xlink:href="#m5cf0c61250" y="337.698699"/>
      </g>
     </g>
     <g id="text_4">
      <!-- 6 -->
      <g transform="translate(621.807646 364.454636)scale(0.26 -0.26)">
       <defs>
        <path d="M 33.015625 40.375 
Q 26.375 40.375 22.484375 35.828125 
Q 18.609375 31.296875 18.609375 23.390625 
Q 18.609375 15.53125 22.484375 10.953125 
Q 26.375 6.390625 33.015625 6.390625 
Q 39.65625 6.390625 43.53125 10.953125 
Q 47.40625 15.53125 47.40625 23.390625 
Q 47.40625 31.296875 43.53125 35.828125 
Q 39.65625 40.375 33.015625 40.375 
z
M 52.59375 71.296875 
L 52.59375 62.3125 
Q 48.875 64.0625 45.09375 64.984375 
Q 41.3125 65.921875 37.59375 65.921875 
Q 27.828125 65.921875 22.671875 59.328125 
Q 17.53125 52.734375 16.796875 39.40625 
Q 19.671875 43.65625 24.015625 45.921875 
Q 28.375 48.1875 33.59375 48.1875 
Q 44.578125 48.1875 50.953125 41.515625 
Q 57.328125 34.859375 57.328125 23.390625 
Q 57.328125 12.15625 50.6875 5.359375 
Q 44.046875 -1.421875 33.015625 -1.421875 
Q 20.359375 -1.421875 13.671875 8.265625 
Q 6.984375 17.96875 6.984375 36.375 
Q 6.984375 53.65625 15.1875 63.9375 
Q 23.390625 74.21875 37.203125 74.21875 
Q 40.921875 74.21875 44.703125 73.484375 
Q 48.484375 72.75 52.59375 71.296875 
z
" id="DejaVuSans-54"/>
       </defs>
       <use xlink:href="#DejaVuSans-54"/>
      </g>
     </g>
    </g>
    <g id="xtick_5">
     <g id="line2d_5">
      <g>
       <use style="stroke:#000000;stroke-width:0.8;" x="792.467097" xlink:href="#m5cf0c61250" y="337.698699"/>
      </g>
     </g>
     <g id="text_5">
      <!-- 8 -->
      <g transform="translate(784.195847 364.454636)scale(0.26 -0.26)">
       <defs>
        <path d="M 31.78125 34.625 
Q 24.75 34.625 20.71875 30.859375 
Q 16.703125 27.09375 16.703125 20.515625 
Q 16.703125 13.921875 20.71875 10.15625 
Q 24.75 6.390625 31.78125 6.390625 
Q 38.8125 6.390625 42.859375 10.171875 
Q 46.921875 13.96875 46.921875 20.515625 
Q 46.921875 27.09375 42.890625 30.859375 
Q 38.875 34.625 31.78125 34.625 
z
M 21.921875 38.8125 
Q 15.578125 40.375 12.03125 44.71875 
Q 8.5 49.078125 8.5 55.328125 
Q 8.5 64.0625 14.71875 69.140625 
Q 20.953125 74.21875 31.78125 74.21875 
Q 42.671875 74.21875 48.875 69.140625 
Q 55.078125 64.0625 55.078125 55.328125 
Q 55.078125 49.078125 51.53125 44.71875 
Q 48 40.375 41.703125 38.8125 
Q 48.828125 37.15625 52.796875 32.3125 
Q 56.78125 27.484375 56.78125 20.515625 
Q 56.78125 9.90625 50.3125 4.234375 
Q 43.84375 -1.421875 31.78125 -1.421875 
Q 19.734375 -1.421875 13.25 4.234375 
Q 6.78125 9.90625 6.78125 20.515625 
Q 6.78125 27.484375 10.78125 32.3125 
Q 14.796875 37.15625 21.921875 38.8125 
z
M 18.3125 54.390625 
Q 18.3125 48.734375 21.84375 45.5625 
Q 25.390625 42.390625 31.78125 42.390625 
Q 38.140625 42.390625 41.71875 45.5625 
Q 45.3125 48.734375 45.3125 54.390625 
Q 45.3125 60.0625 41.71875 63.234375 
Q 38.140625 66.40625 31.78125 66.40625 
Q 25.390625 66.40625 21.84375 63.234375 
Q 18.3125 60.0625 18.3125 54.390625 
z
" id="DejaVuSans-56"/>
       </defs>
       <use xlink:href="#DejaVuSans-56"/>
      </g>
     </g>
    </g>
    <g id="xtick_6">
     <g id="line2d_6">
      <g>
       <use style="stroke:#000000;stroke-width:0.8;" x="954.855298" xlink:href="#m5cf0c61250" y="337.698699"/>
      </g>
     </g>
     <g id="text_6">
      <!-- 10 -->
      <g transform="translate(938.312798 364.454636)scale(0.26 -0.26)">
       <defs>
        <path d="M 12.40625 8.296875 
L 28.515625 8.296875 
L 28.515625 63.921875 
L 10.984375 60.40625 
L 10.984375 69.390625 
L 28.421875 72.90625 
L 38.28125 72.90625 
L 38.28125 8.296875 
L 54.390625 8.296875 
L 54.390625 0 
L 12.40625 0 
z
" id="DejaVuSans-49"/>
       </defs>
       <use xlink:href="#DejaVuSans-49"/>
       <use x="63.623047" xlink:href="#DejaVuSans-48"/>
      </g>
     </g>
    </g>
    <g id="text_7">
     <!-- Time [s] -->
     <g transform="translate(495.877969 393.617761)scale(0.26 -0.26)">
      <defs>
       <path d="M -0.296875 72.90625 
L 61.375 72.90625 
L 61.375 64.59375 
L 35.5 64.59375 
L 35.5 0 
L 25.59375 0 
L 25.59375 64.59375 
L -0.296875 64.59375 
z
" id="DejaVuSans-84"/>
       <path d="M 9.421875 54.6875 
L 18.40625 54.6875 
L 18.40625 0 
L 9.421875 0 
z
M 9.421875 75.984375 
L 18.40625 75.984375 
L 18.40625 64.59375 
L 9.421875 64.59375 
z
" id="DejaVuSans-105"/>
       <path d="M 52 44.1875 
Q 55.375 50.25 60.0625 53.125 
Q 64.75 56 71.09375 56 
Q 79.640625 56 84.28125 50.015625 
Q 88.921875 44.046875 88.921875 33.015625 
L 88.921875 0 
L 79.890625 0 
L 79.890625 32.71875 
Q 79.890625 40.578125 77.09375 44.375 
Q 74.3125 48.1875 68.609375 48.1875 
Q 61.625 48.1875 57.5625 43.546875 
Q 53.515625 38.921875 53.515625 30.90625 
L 53.515625 0 
L 44.484375 0 
L 44.484375 32.71875 
Q 44.484375 40.625 41.703125 44.40625 
Q 38.921875 48.1875 33.109375 48.1875 
Q 26.21875 48.1875 22.15625 43.53125 
Q 18.109375 38.875 18.109375 30.90625 
L 18.109375 0 
L 9.078125 0 
L 9.078125 54.6875 
L 18.109375 54.6875 
L 18.109375 46.1875 
Q 21.1875 51.21875 25.484375 53.609375 
Q 29.78125 56 35.6875 56 
Q 41.65625 56 45.828125 52.96875 
Q 50 49.953125 52 44.1875 
z
" id="DejaVuSans-109"/>
       <path d="M 56.203125 29.59375 
L 56.203125 25.203125 
L 14.890625 25.203125 
Q 15.484375 15.921875 20.484375 11.0625 
Q 25.484375 6.203125 34.421875 6.203125 
Q 39.59375 6.203125 44.453125 7.46875 
Q 49.3125 8.734375 54.109375 11.28125 
L 54.109375 2.78125 
Q 49.265625 0.734375 44.1875 -0.34375 
Q 39.109375 -1.421875 33.890625 -1.421875 
Q 20.796875 -1.421875 13.15625 6.1875 
Q 5.515625 13.8125 5.515625 26.8125 
Q 5.515625 40.234375 12.765625 48.109375 
Q 20.015625 56 32.328125 56 
Q 43.359375 56 49.78125 48.890625 
Q 56.203125 41.796875 56.203125 29.59375 
z
M 47.21875 32.234375 
Q 47.125 39.59375 43.09375 43.984375 
Q 39.0625 48.390625 32.421875 48.390625 
Q 24.90625 48.390625 20.390625 44.140625 
Q 15.875 39.890625 15.1875 32.171875 
z
" id="DejaVuSans-101"/>
       <path id="DejaVuSans-32"/>
       <path d="M 8.59375 75.984375 
L 29.296875 75.984375 
L 29.296875 69 
L 17.578125 69 
L 17.578125 -6.203125 
L 29.296875 -6.203125 
L 29.296875 -13.1875 
L 8.59375 -13.1875 
z
" id="DejaVuSans-91"/>
       <path d="M 44.28125 53.078125 
L 44.28125 44.578125 
Q 40.484375 46.53125 36.375 47.5 
Q 32.28125 48.484375 27.875 48.484375 
Q 21.1875 48.484375 17.84375 46.4375 
Q 14.5 44.390625 14.5 40.28125 
Q 14.5 37.15625 16.890625 35.375 
Q 19.28125 33.59375 26.515625 31.984375 
L 29.59375 31.296875 
Q 39.15625 29.25 43.1875 25.515625 
Q 47.21875 21.78125 47.21875 15.09375 
Q 47.21875 7.46875 41.1875 3.015625 
Q 35.15625 -1.421875 24.609375 -1.421875 
Q 20.21875 -1.421875 15.453125 -0.5625 
Q 10.6875 0.296875 5.421875 2 
L 5.421875 11.28125 
Q 10.40625 8.6875 15.234375 7.390625 
Q 20.0625 6.109375 24.8125 6.109375 
Q 31.15625 6.109375 34.5625 8.28125 
Q 37.984375 10.453125 37.984375 14.40625 
Q 37.984375 18.0625 35.515625 20.015625 
Q 33.0625 21.96875 24.703125 23.78125 
L 21.578125 24.515625 
Q 13.234375 26.265625 9.515625 29.90625 
Q 5.8125 33.546875 5.8125 39.890625 
Q 5.8125 47.609375 11.28125 51.796875 
Q 16.75 56 26.8125 56 
Q 31.78125 56 36.171875 55.265625 
Q 40.578125 54.546875 44.28125 53.078125 
z
" id="DejaVuSans-115"/>
       <path d="M 30.421875 75.984375 
L 30.421875 -13.1875 
L 9.71875 -13.1875 
L 9.71875 -6.203125 
L 21.390625 -6.203125 
L 21.390625 69 
L 9.71875 69 
L 9.71875 75.984375 
z
" id="DejaVuSans-93"/>
      </defs>
      <use xlink:href="#DejaVuSans-84"/>
      <use x="57.958984" xlink:href="#DejaVuSans-105"/>
      <use x="85.742188" xlink:href="#DejaVuSans-109"/>
      <use x="183.154297" xlink:href="#DejaVuSans-101"/>
      <use x="244.677734" xlink:href="#DejaVuSans-32"/>
      <use x="276.464844" xlink:href="#DejaVuSans-91"/>
      <use x="315.478516" xlink:href="#DejaVuSans-115"/>
      <use x="367.578125" xlink:href="#DejaVuSans-93"/>
     </g>
    </g>
   </g>
   <g id="matplotlib.axis_2">
    <g id="ytick_1">
     <g id="line2d_7">
      <defs>
       <path d="M 0 0 
L -3.5 0 
" id="m782046bcdc" style="stroke:#000000;stroke-width:0.8;"/>
      </defs>
      <g>
       <use style="stroke:#000000;stroke-width:0.8;" x="102.333125" xlink:href="#m782046bcdc" y="304.184538"/>
      </g>
     </g>
     <g id="text_8">
      <!-- 200 -->
      <g transform="translate(45.705625 314.062507)scale(0.26 -0.26)">
       <use xlink:href="#DejaVuSans-50"/>
       <use x="63.623047" xlink:href="#DejaVuSans-48"/>
       <use x="127.246094" xlink:href="#DejaVuSans-48"/>
      </g>
     </g>
    </g>
    <g id="ytick_2">
     <g id="line2d_8">
      <g>
       <use style="stroke:#000000;stroke-width:0.8;" x="102.333125" xlink:href="#m782046bcdc" y="230.607896"/>
      </g>
     </g>
     <g id="text_9">
      <!-- 400 -->
      <g transform="translate(45.705625 240.485865)scale(0.26 -0.26)">
       <use xlink:href="#DejaVuSans-52"/>
       <use x="63.623047" xlink:href="#DejaVuSans-48"/>
       <use x="127.246094" xlink:href="#DejaVuSans-48"/>
      </g>
     </g>
    </g>
    <g id="ytick_3">
     <g id="line2d_9">
      <g>
       <use style="stroke:#000000;stroke-width:0.8;" x="102.333125" xlink:href="#m782046bcdc" y="157.031253"/>
      </g>
     </g>
     <g id="text_10">
      <!-- 600 -->
      <g transform="translate(45.705625 166.909222)scale(0.26 -0.26)">
       <use xlink:href="#DejaVuSans-54"/>
       <use x="63.623047" xlink:href="#DejaVuSans-48"/>
       <use x="127.246094" xlink:href="#DejaVuSans-48"/>
      </g>
     </g>
    </g>
    <g id="ytick_4">
     <g id="line2d_10">
      <g>
       <use style="stroke:#000000;stroke-width:0.8;" x="102.333125" xlink:href="#m782046bcdc" y="83.454611"/>
      </g>
     </g>
     <g id="text_11">
      <!-- 800 -->
      <g transform="translate(45.705625 93.33258)scale(0.26 -0.26)">
       <use xlink:href="#DejaVuSans-56"/>
       <use x="63.623047" xlink:href="#DejaVuSans-48"/>
       <use x="127.246094" xlink:href="#DejaVuSans-48"/>
      </g>
     </g>
    </g>
    <g id="ytick_5">
     <g id="line2d_11">
      <g>
       <use style="stroke:#000000;stroke-width:0.8;" x="102.333125" xlink:href="#m782046bcdc" y="9.877969"/>
      </g>
     </g>
     <g id="text_12">
      <!-- 1000 -->
      <g transform="translate(29.163125 19.755937)scale(0.26 -0.26)">
       <use xlink:href="#DejaVuSans-49"/>
       <use x="63.623047" xlink:href="#DejaVuSans-48"/>
       <use x="127.246094" xlink:href="#DejaVuSans-48"/>
       <use x="190.869141" xlink:href="#DejaVuSans-48"/>
      </g>
     </g>
    </g>
    <g id="text_13">
     <!-- Pulse Value -->
     <g transform="translate(19.755938 245.444167)rotate(-90)scale(0.26 -0.26)">
      <defs>
       <path d="M 19.671875 64.796875 
L 19.671875 37.40625 
L 32.078125 37.40625 
Q 38.96875 37.40625 42.71875 40.96875 
Q 46.484375 44.53125 46.484375 51.125 
Q 46.484375 57.671875 42.71875 61.234375 
Q 38.96875 64.796875 32.078125 64.796875 
z
M 9.8125 72.90625 
L 32.078125 72.90625 
Q 44.34375 72.90625 50.609375 67.359375 
Q 56.890625 61.8125 56.890625 51.125 
Q 56.890625 40.328125 50.609375 34.8125 
Q 44.34375 29.296875 32.078125 29.296875 
L 19.671875 29.296875 
L 19.671875 0 
L 9.8125 0 
z
" id="DejaVuSans-80"/>
       <path d="M 8.5 21.578125 
L 8.5 54.6875 
L 17.484375 54.6875 
L 17.484375 21.921875 
Q 17.484375 14.15625 20.5 10.265625 
Q 23.53125 6.390625 29.59375 6.390625 
Q 36.859375 6.390625 41.078125 11.03125 
Q 45.3125 15.671875 45.3125 23.6875 
L 45.3125 54.6875 
L 54.296875 54.6875 
L 54.296875 0 
L 45.3125 0 
L 45.3125 8.40625 
Q 42.046875 3.421875 37.71875 1 
Q 33.40625 -1.421875 27.6875 -1.421875 
Q 18.265625 -1.421875 13.375 4.4375 
Q 8.5 10.296875 8.5 21.578125 
z
M 31.109375 56 
z
" id="DejaVuSans-117"/>
       <path d="M 9.421875 75.984375 
L 18.40625 75.984375 
L 18.40625 0 
L 9.421875 0 
z
" id="DejaVuSans-108"/>
       <path d="M 28.609375 0 
L 0.78125 72.90625 
L 11.078125 72.90625 
L 34.1875 11.53125 
L 57.328125 72.90625 
L 67.578125 72.90625 
L 39.796875 0 
z
" id="DejaVuSans-86"/>
       <path d="M 34.28125 27.484375 
Q 23.390625 27.484375 19.1875 25 
Q 14.984375 22.515625 14.984375 16.5 
Q 14.984375 11.71875 18.140625 8.90625 
Q 21.296875 6.109375 26.703125 6.109375 
Q 34.1875 6.109375 38.703125 11.40625 
Q 43.21875 16.703125 43.21875 25.484375 
L 43.21875 27.484375 
z
M 52.203125 31.203125 
L 52.203125 0 
L 43.21875 0 
L 43.21875 8.296875 
Q 40.140625 3.328125 35.546875 0.953125 
Q 30.953125 -1.421875 24.3125 -1.421875 
Q 15.921875 -1.421875 10.953125 3.296875 
Q 6 8.015625 6 15.921875 
Q 6 25.140625 12.171875 29.828125 
Q 18.359375 34.515625 30.609375 34.515625 
L 43.21875 34.515625 
L 43.21875 35.40625 
Q 43.21875 41.609375 39.140625 45 
Q 35.0625 48.390625 27.6875 48.390625 
Q 23 48.390625 18.546875 47.265625 
Q 14.109375 46.140625 10.015625 43.890625 
L 10.015625 52.203125 
Q 14.9375 54.109375 19.578125 55.046875 
Q 24.21875 56 28.609375 56 
Q 40.484375 56 46.34375 49.84375 
Q 52.203125 43.703125 52.203125 31.203125 
z
" id="DejaVuSans-97"/>
      </defs>
      <use xlink:href="#DejaVuSans-80"/>
      <use x="58.552734" xlink:href="#DejaVuSans-117"/>
      <use x="121.931641" xlink:href="#DejaVuSans-108"/>
      <use x="149.714844" xlink:href="#DejaVuSans-115"/>
      <use x="201.814453" xlink:href="#DejaVuSans-101"/>
      <use x="263.337891" xlink:href="#DejaVuSans-32"/>
      <use x="295.125" xlink:href="#DejaVuSans-86"/>
      <use x="355.783203" xlink:href="#DejaVuSans-97"/>
      <use x="417.0625" xlink:href="#DejaVuSans-108"/>
      <use x="444.845703" xlink:href="#DejaVuSans-117"/>
      <use x="508.224609" xlink:href="#DejaVuSans-101"/>
     </g>
    </g>
   </g>
   <g id="line2d_12">
    <path clip-path="url(#p17fffaf558)" d="M 142.914943 222.882348 
L 143.484276 236.126144 
L 144.048738 238.333443 
L 144.669385 236.86191 
L 145.290033 236.494027 
L 145.910681 234.654611 
L 146.531653 232.079429 
L 147.152301 225.089648 
L 147.772949 214.788918 
L 148.393596 199.705706 
L 149.014569 181.679429 
L 150.255864 129.072129 
L 150.876512 96.698407 
L 151.497484 58.070669 
L 152.174643 23.857531 
L 152.851802 20.546582 
L 156.237596 20.546582 
L 156.914755 20.178699 
L 157.591914 20.546582 
L 158.269072 20.178699 
L 158.946231 20.546582 
L 160.300549 20.546582 
L 160.977708 20.178699 
L 161.654866 20.546582 
L 162.332025 40.412275 
L 165.04066 160.710086 
L 166.394978 214.788918 
L 167.072137 236.126144 
L 168.426454 269.603516 
L 169.103613 281.375779 
L 169.780772 288.733443 
L 170.457931 291.308626 
L 171.135089 290.572859 
L 171.812248 288.36556 
L 172.489407 281.743662 
L 173.166566 273.282348 
L 175.875201 229.504246 
L 177.229519 208.534903 
L 177.906677 201.913005 
L 178.584161 197.130523 
L 179.260995 193.451691 
L 179.938154 191.980159 
L 180.615313 189.772859 
L 182.646789 200.073589 
L 183.323948 204.120305 
L 184.001107 207.431253 
L 185.355424 220.307166 
L 186.032583 225.457531 
L 187.386901 232.815195 
L 188.064059 237.96556 
L 188.741218 241.644392 
L 189.418377 243.851691 
L 190.095536 244.219575 
L 190.772695 245.323224 
L 191.449853 246.794757 
L 192.127012 247.530523 
L 192.804171 246.794757 
L 193.48133 244.955341 
L 194.158489 244.587458 
L 194.835647 243.483808 
L 195.512806 241.644392 
L 196.189965 239.437093 
L 196.867124 234.654611 
L 197.544283 234.286728 
L 198.221441 232.447312 
L 198.8986 230.975779 
L 199.575759 228.400596 
L 200.252918 225.089648 
L 200.930077 225.457531 
L 202.961553 221.042932 
L 203.638712 219.203516 
L 204.315871 219.571399 
L 204.993029 220.307166 
L 205.670188 221.410815 
L 206.347347 219.939283 
L 207.701665 223.618115 
L 208.378823 223.618115 
L 209.055982 220.675049 
L 209.733141 212.949502 
L 210.4103 203.016655 
L 211.087459 187.197677 
L 211.764617 163.285268 
L 212.441776 132.750961 
L 214.473253 21.650232 
L 215.150411 20.546582 
L 216.504729 20.546582 
L 217.181888 20.178699 
L 218.536205 20.178699 
L 219.213364 20.546582 
L 221.24484 20.546582 
L 221.921999 20.178699 
L 222.599158 20.546582 
L 223.276317 20.546582 
L 223.953476 20.914465 
L 224.630634 20.546582 
L 225.36398 31.583078 
L 226.831319 102.952421 
L 228.298334 171.746582 
L 229.765674 228.032713 
L 230.499344 250.841472 
L 231.232689 268.131983 
L 231.966359 279.904246 
L 232.700029 285.790378 
L 233.433699 289.837093 
L 234.167044 289.101326 
L 234.900714 283.950961 
L 237.101399 254.152421 
L 239.302408 218.46775 
L 240.769423 204.856071 
L 242.236763 194.923224 
L 242.970108 195.658991 
L 243.703778 197.498407 
L 244.437448 199.705706 
L 245.171118 202.280888 
L 245.904463 205.959721 
L 246.638133 213.317385 
L 248.105473 223.985998 
L 248.839467 227.296947 
L 249.572488 234.286728 
L 250.306158 238.333443 
L 251.039828 241.644392 
L 252.506843 244.587458 
L 253.240512 246.794757 
L 253.974182 247.16264 
L 254.707527 246.794757 
L 255.441197 243.851691 
L 256.174867 244.219575 
L 256.908537 243.115925 
L 258.375552 237.597677 
L 259.842892 235.390378 
L 260.576237 233.183078 
L 261.310556 231.343662 
L 262.043577 228.032713 
L 262.777247 228.400596 
L 264.244262 225.457531 
L 264.977932 222.514465 
L 266.444947 223.985998 
L 267.178617 223.618115 
L 267.912286 222.882348 
L 268.645956 222.882348 
L 269.379301 225.089648 
L 270.846641 226.56118 
L 271.580311 223.985998 
L 272.313656 225.089648 
L 273.047326 219.939283 
L 273.781321 209.270669 
L 274.514666 189.037093 
L 275.248011 162.181618 
L 275.981681 129.807896 
L 277.449021 47.034173 
L 278.182366 20.546582 
L 280.383375 20.546582 
L 281.116721 20.178699 
L 281.85039 20.178699 
L 282.58406 20.546582 
L 284.051075 20.546582 
L 284.784745 20.914465 
L 285.518415 20.178699 
L 286.252085 20.546582 
L 288.45277 20.546582 
L 289.18644 30.847312 
L 292.120795 176.16118 
L 292.85414 207.431253 
L 293.58781 233.918845 
L 295.055149 270.707166 
L 295.788495 281.375779 
L 296.522164 286.526144 
L 297.255834 285.054611 
L 297.989504 282.479429 
L 298.722849 275.121764 
L 299.456519 265.188918 
L 302.390874 218.46775 
L 303.858214 199.705706 
L 304.591559 195.291107 
L 305.325229 193.083808 
L 306.058899 193.083808 
L 306.792569 192.715925 
L 307.525914 195.291107 
L 308.259584 200.073589 
L 309.726923 211.845852 
L 310.460268 215.892567 
L 311.193938 223.250232 
L 312.661278 235.022494 
L 313.394623 237.96556 
L 314.861963 246.058991 
L 315.595633 249.36994 
L 316.328978 250.105706 
L 317.062648 249.36994 
L 317.796318 250.473589 
L 318.529988 250.473589 
L 319.263333 250.105706 
L 319.997003 246.426874 
L 320.730673 245.323224 
L 321.464342 243.851691 
L 322.197688 242.748042 
L 323.665027 235.758261 
L 324.398697 234.286728 
L 325.132042 233.183078 
L 326.599382 227.296947 
L 328.066397 226.56118 
L 328.800067 225.089648 
L 329.533737 223.250232 
L 330.267407 222.514465 
L 331.000752 222.882348 
L 331.734422 223.985998 
L 332.468092 224.353881 
L 333.201762 222.882348 
L 333.935107 224.721764 
L 334.668777 226.193297 
L 335.402447 225.089648 
L 336.136116 218.835633 
L 336.869462 209.270669 
L 337.603131 193.083808 
L 338.336801 167.699867 
L 339.070471 133.486728 
L 340.537486 47.402056 
L 341.271156 20.546582 
L 342.004826 20.546582 
L 342.738171 20.178699 
L 343.471841 20.546582 
L 344.205511 20.546582 
L 344.939181 20.178699 
L 345.672526 20.178699 
L 346.406196 20.546582 
L 348.606881 20.546582 
L 349.340551 20.178699 
L 350.07422 20.546582 
L 353.008575 20.546582 
L 353.742245 29.743662 
L 355.94293 147.834173 
L 357.409945 216.996217 
L 358.143615 241.644392 
L 358.877285 261.142202 
L 359.610955 274.385998 
L 360.3443 284.686728 
L 361.07797 287.26191 
L 361.81164 285.790378 
L 364.012325 260.774319 
L 366.213009 225.825414 
L 367.680349 210.742202 
L 369.147364 200.073589 
L 369.881034 201.913005 
L 370.614704 203.384538 
L 372.081719 208.902786 
L 372.815389 214.421034 
L 373.549059 221.042932 
L 375.016074 231.711545 
L 375.749744 235.022494 
L 376.483414 242.012275 
L 377.950429 250.105706 
L 378.684098 250.473589 
L 379.417768 254.152421 
L 380.151438 255.623954 
L 380.884783 255.991837 
L 381.618778 255.256071 
L 382.352123 253.416655 
L 383.085793 253.416655 
L 383.819138 250.841472 
L 384.552808 249.002056 
L 385.286478 243.483808 
L 386.020148 242.748042 
L 386.753493 240.540742 
L 387.487163 239.06921 
L 388.220833 235.022494 
L 388.954503 232.815195 
L 389.687848 232.079429 
L 390.421518 230.240013 
L 391.155188 229.504246 
L 391.888857 225.089648 
L 392.622203 226.56118 
L 393.355872 225.825414 
L 394.089867 225.825414 
L 394.823212 223.618115 
L 396.290227 227.296947 
L 397.023897 228.032713 
L 397.757567 228.400596 
L 398.490912 227.66483 
L 399.224582 230.240013 
L 399.958252 230.975779 
L 400.691922 232.447312 
L 401.425267 230.607896 
L 402.158937 233.183078 
L 402.892607 232.079429 
L 403.626277 228.400596 
L 404.359622 218.46775 
L 405.093292 200.441472 
L 405.826961 175.425414 
L 406.560956 139.372859 
L 407.293976 94.858991 
L 408.027646 43.355341 
L 408.761316 20.546582 
L 409.494986 20.546582 
L 410.228331 20.178699 
L 410.962001 20.546582 
L 411.695671 20.546582 
L 412.429341 20.178699 
L 413.896356 20.178699 
L 414.630026 20.546582 
L 416.097041 20.546582 
L 416.830711 20.178699 
L 417.564381 20.178699 
L 418.29805 20.546582 
L 419.032045 20.178699 
L 419.765065 20.546582 
L 420.498735 20.178699 
L 421.232405 20.178699 
L 421.96575 20.546582 
L 422.69942 44.091107 
L 424.16676 129.807896 
L 425.633775 206.695487 
L 426.367445 236.126144 
L 427.101115 256.727604 
L 427.83446 272.546582 
L 428.56813 283.583078 
L 429.3018 288.733443 
L 430.03547 287.26191 
L 431.502485 274.753881 
L 432.969824 256.727604 
L 433.70317 245.323224 
L 434.436839 236.494027 
L 435.170509 229.872129 
L 436.637524 219.571399 
L 437.371194 215.892567 
L 438.104864 215.524684 
L 438.838534 218.099867 
L 439.571879 219.571399 
L 440.305549 221.778699 
L 441.039219 226.56118 
L 442.506234 237.96556 
L 443.973574 245.691107 
L 444.707244 250.473589 
L 445.440589 254.520305 
L 446.174259 256.359721 
L 446.907928 256.359721 
L 447.641598 258.199137 
L 448.374943 259.670669 
L 449.108613 258.934903 
L 449.842283 257.095487 
L 450.575953 255.623954 
L 451.309298 254.520305 
L 452.042968 253.784538 
L 452.776638 250.841472 
L 453.510308 246.794757 
L 454.243653 245.691107 
L 454.977323 244.219575 
L 456.444663 238.333443 
L 457.178008 236.126144 
L 457.911678 235.390378 
L 459.379018 233.183078 
L 460.112363 230.607896 
L 460.846033 230.975779 
L 461.579702 232.079429 
L 463.046717 229.872129 
L 463.780387 230.240013 
L 464.514057 231.711545 
L 465.247727 232.447312 
L 465.981072 232.447312 
L 466.714742 231.711545 
L 467.448412 234.654611 
L 468.182082 235.758261 
L 468.915427 235.758261 
L 469.649097 235.022494 
L 470.382767 236.494027 
L 471.116437 238.701326 
L 471.849782 237.96556 
L 472.583452 237.96556 
L 474.050791 232.447312 
L 474.784137 222.146582 
L 475.517806 204.488188 
L 476.251476 174.689648 
L 476.985146 139.372859 
L 478.452161 45.56264 
L 479.185831 20.546582 
L 479.919501 20.178699 
L 480.652846 20.546582 
L 482.120186 20.546582 
L 482.853856 20.178699 
L 483.587201 20.546582 
L 484.320871 20.178699 
L 485.054541 20.546582 
L 487.255226 20.546582 
L 487.988896 20.178699 
L 488.722565 20.546582 
L 489.455911 20.546582 
L 490.18958 20.178699 
L 490.92325 20.546582 
L 491.65692 20.546582 
L 492.390265 28.272129 
L 494.591275 162.549502 
L 495.32462 200.441472 
L 496.79196 257.831253 
L 497.52563 276.593297 
L 498.258975 289.837093 
L 499.726315 296.826874 
L 500.459985 294.619575 
L 501.19333 287.997677 
L 505.595024 222.514465 
L 506.328694 218.46775 
L 507.062039 213.685268 
L 507.795709 211.845852 
L 508.529379 209.638553 
L 509.996394 216.628334 
L 510.730064 220.675049 
L 512.197404 230.240013 
L 512.930749 238.701326 
L 514.398089 250.841472 
L 515.131758 253.048772 
L 515.865104 258.56702 
L 516.598774 262.245852 
L 517.332443 264.453151 
L 518.066113 264.453151 
L 518.799458 264.085268 
L 519.533128 264.085268 
L 521.000468 262.613735 
L 521.733813 257.46337 
L 522.467483 257.831253 
L 523.201153 254.888188 
L 523.934823 253.416655 
L 524.668168 248.26629 
L 525.401838 245.691107 
L 526.135508 243.851691 
L 527.602523 238.701326 
L 528.336193 235.022494 
L 529.069863 235.390378 
L 529.803532 234.286728 
L 530.536878 233.550961 
L 531.270547 230.607896 
L 532.004217 231.711545 
L 532.737887 232.079429 
L 533.471232 232.815195 
L 534.204902 231.711545 
L 534.938572 231.711545 
L 535.672242 233.550961 
L 536.405587 234.286728 
L 537.139257 234.654611 
L 537.872927 233.183078 
L 538.606597 234.654611 
L 539.340591 235.390378 
L 540.073612 236.494027 
L 540.807282 235.390378 
L 541.540952 236.126144 
L 542.274297 237.597677 
L 543.007967 238.333443 
L 543.741636 238.333443 
L 544.475306 235.758261 
L 545.208651 235.022494 
L 545.942321 228.76848 
L 546.675991 215.156801 
L 547.409661 192.348042 
L 548.143006 162.549502 
L 548.876676 124.657531 
L 550.344016 31.215195 
L 551.077361 20.178699 
L 552.544701 20.178699 
L 553.278371 20.546582 
L 554.011716 20.178699 
L 554.745386 20.546582 
L 555.479056 20.178699 
L 556.212726 20.546582 
L 557.679741 20.546582 
L 558.41341 20.178699 
L 559.14708 20.178699 
L 559.880425 20.546582 
L 562.081435 20.546582 
L 562.81478 42.251691 
L 565.01579 175.057531 
L 565.749135 214.053151 
L 566.482805 246.058991 
L 567.216475 271.075049 
L 567.950145 292.044392 
L 568.68349 307.127604 
L 569.41716 313.013735 
L 570.15083 314.485268 
L 570.884499 310.438553 
L 571.617845 303.448772 
L 572.351514 292.044392 
L 573.085184 278.432713 
L 573.818854 262.245852 
L 576.019539 225.089648 
L 576.753209 215.524684 
L 577.486554 208.902786 
L 578.220224 206.695487 
L 578.953894 204.120305 
L 579.687564 204.120305 
L 580.420909 205.959721 
L 582.621919 224.353881 
L 583.355264 229.504246 
L 584.822604 244.955341 
L 586.289619 254.520305 
L 587.023288 257.46337 
L 587.756958 263.349502 
L 588.490628 265.924684 
L 589.223973 267.396217 
L 589.957643 265.556801 
L 590.691313 267.028334 
L 591.424983 267.028334 
L 592.158328 265.188918 
L 593.625668 259.670669 
L 594.359338 258.56702 
L 595.826353 253.784538 
L 596.560023 247.898407 
L 597.293693 247.530523 
L 599.494377 239.06921 
L 600.228047 237.597677 
L 600.961392 237.229794 
L 601.695062 235.390378 
L 602.428732 235.022494 
L 603.162402 232.079429 
L 603.895747 233.918845 
L 604.629417 232.815195 
L 605.363087 233.183078 
L 606.096757 230.607896 
L 606.830102 232.447312 
L 607.563772 233.183078 
L 608.297442 233.550961 
L 609.764457 233.550961 
L 610.498127 236.494027 
L 611.231797 236.126144 
L 611.965467 234.654611 
L 613.432482 216.260451 
L 614.166151 196.394757 
L 614.899821 168.06775 
L 616.366836 87.86921 
L 617.100506 45.194757 
L 617.834176 20.546582 
L 621.501876 20.546582 
L 622.235546 20.178699 
L 622.969216 20.546582 
L 625.903571 20.546582 
L 626.63724 20.178699 
L 627.370586 20.546582 
L 628.104255 43.355341 
L 631.77228 235.022494 
L 633.239295 286.158261 
L 633.972965 303.448772 
L 634.706635 315.588918 
L 636.17365 322.578699 
L 636.90732 319.635633 
L 637.64099 313.013735 
L 639.841675 275.857531 
L 642.042359 233.550961 
L 643.509699 216.260451 
L 644.976714 204.488188 
L 645.710384 204.488188 
L 646.444054 205.959721 
L 648.644739 216.996217 
L 649.378409 225.089648 
L 650.845424 237.597677 
L 651.579094 242.012275 
L 652.312764 249.737823 
L 653.779779 261.142202 
L 654.513449 263.717385 
L 655.247118 265.556801 
L 655.980788 268.499867 
L 656.714133 269.971399 
L 657.447803 269.603516 
L 658.181473 267.028334 
L 658.915143 267.7641 
L 659.648488 266.660451 
L 660.382158 264.821034 
L 661.115828 260.406436 
L 661.849498 258.56702 
L 662.582843 255.991837 
L 663.316513 254.152421 
L 664.783853 246.794757 
L 666.250868 244.587458 
L 667.718207 239.437093 
L 668.451553 238.333443 
L 669.185222 237.96556 
L 669.918892 237.229794 
L 670.652562 236.126144 
L 671.385907 234.654611 
L 672.119577 235.022494 
L 672.853247 236.494027 
L 673.586917 235.758261 
L 674.320262 234.654611 
L 675.053932 235.390378 
L 675.787602 236.86191 
L 676.521272 236.86191 
L 677.254617 236.494027 
L 677.988287 235.758261 
L 678.721957 238.701326 
L 679.455627 240.172859 
L 680.188972 239.437093 
L 680.922642 237.96556 
L 681.656312 235.390378 
L 682.389981 229.872129 
L 683.123327 215.524684 
L 683.856996 193.451691 
L 684.590991 163.653151 
L 685.324336 127.600596 
L 686.791351 38.940742 
L 687.525021 20.546582 
L 691.193046 20.546582 
L 691.926391 20.178699 
L 692.660061 20.546582 
L 694.127401 20.546582 
L 694.860746 20.178699 
L 695.594416 20.178699 
L 696.328085 20.546582 
L 697.06208 20.546582 
L 697.7951 45.56264 
L 699.26244 123.921764 
L 700.729455 194.187458 
L 701.463125 226.56118 
L 702.930465 273.650232 
L 703.66381 288.36556 
L 704.39748 300.505706 
L 705.13115 307.127604 
L 705.86482 307.86337 
L 706.598165 303.816655 
L 708.065505 288.36556 
L 709.533169 263.349502 
L 710.26619 247.898407 
L 713.200544 207.431253 
L 713.934214 202.280888 
L 714.667884 201.177239 
L 715.401229 199.705706 
L 716.868569 202.648772 
L 717.602239 209.270669 
L 718.335584 214.788918 
L 719.069254 221.410815 
L 719.802924 225.825414 
L 721.269939 240.908626 
L 722.737279 251.209356 
L 723.470948 254.152421 
L 724.204294 258.934903 
L 724.937963 260.774319 
L 725.671633 262.245852 
L 726.405303 259.302786 
L 727.138648 261.510086 
L 727.872318 261.142202 
L 728.605988 259.302786 
L 730.073003 253.784538 
L 730.806673 251.945122 
L 731.540343 248.634173 
L 732.274013 246.058991 
L 733.007358 240.540742 
L 733.741028 240.908626 
L 734.474698 237.96556 
L 735.208368 236.494027 
L 735.941713 233.183078 
L 736.675383 232.447312 
L 737.409052 232.447312 
L 738.142722 230.975779 
L 738.876068 230.240013 
L 739.609737 228.400596 
L 740.343407 229.872129 
L 741.077077 229.872129 
L 741.810422 230.607896 
L 742.544092 228.400596 
L 743.277762 230.975779 
L 744.011432 231.343662 
L 744.744777 232.079429 
L 745.478447 231.711545 
L 746.212117 231.711545 
L 746.945787 234.286728 
L 747.679132 234.654611 
L 748.412802 235.390378 
L 749.146472 232.815195 
L 749.880142 235.390378 
L 751.347157 236.126144 
L 752.814496 229.872129 
L 753.547841 221.778699 
L 754.281511 207.431253 
L 755.015181 183.886728 
L 756.482196 115.460451 
L 757.949536 31.215195 
L 758.683206 20.178699 
L 759.416551 20.546582 
L 760.883891 20.546582 
L 761.617561 20.178699 
L 762.350906 20.546582 
L 767.48627 20.546582 
L 768.219615 29.743662 
L 771.15397 171.378699 
L 772.62131 228.032713 
L 773.35498 250.473589 
L 774.088325 268.131983 
L 774.821995 279.16848 
L 775.555665 287.629794 
L 776.289335 291.308626 
L 777.02268 290.940742 
L 777.75635 285.054611 
L 779.957035 254.152421 
L 781.424374 226.193297 
L 782.891389 204.856071 
L 784.358729 189.037093 
L 785.092399 183.886728 
L 785.825744 182.783078 
L 787.293084 184.990378 
L 788.026754 187.56556 
L 789.493769 200.073589 
L 791.694454 218.835633 
L 792.428124 226.193297 
L 793.161793 232.079429 
L 793.895463 235.758261 
L 794.628808 237.96556 
L 795.362478 242.012275 
L 796.096148 245.323224 
L 796.829818 245.691107 
L 797.563163 244.955341 
L 798.296833 244.587458 
L 799.030503 244.587458 
L 799.764173 243.851691 
L 800.497518 240.908626 
L 801.231188 237.229794 
L 801.964858 235.758261 
L 802.698528 235.022494 
L 804.165543 228.032713 
L 804.899213 225.089648 
L 805.632883 224.721764 
L 807.833567 216.996217 
L 808.567237 217.731983 
L 809.300582 217.3641 
L 810.767922 215.156801 
L 811.501592 215.524684 
L 812.234937 217.3641 
L 812.968607 216.996217 
L 813.702277 217.3641 
L 814.435947 216.996217 
L 815.169292 219.939283 
L 815.902962 219.939283 
L 816.636632 220.307166 
L 817.370302 218.835633 
L 818.103647 221.410815 
L 818.837317 223.250232 
L 819.570987 223.618115 
L 820.304656 223.250232 
L 821.771671 220.307166 
L 822.505341 211.477969 
L 823.239011 197.498407 
L 824.706026 143.787458 
L 826.173366 64.692567 
L 826.906711 21.650232 
L 827.640381 20.546582 
L 828.374051 20.546582 
L 829.107721 20.178699 
L 829.841391 20.546582 
L 830.574736 20.178699 
L 831.308406 20.546582 
L 832.042076 20.178699 
L 832.775421 20.546582 
L 836.443445 20.546582 
L 837.177115 20.178699 
L 837.910785 20.546582 
L 838.64413 33.054611 
L 840.84514 142.683808 
L 842.312805 203.384538 
L 843.045825 226.193297 
L 843.779495 243.851691 
L 844.51284 258.56702 
L 845.24651 265.188918 
L 845.98018 267.7641 
L 846.71385 262.613735 
L 847.447195 258.56702 
L 848.180865 249.36994 
L 848.914534 238.333443 
L 849.648204 224.353881 
L 851.115219 202.648772 
L 851.848889 193.083808 
L 853.315904 176.529064 
L 854.783569 173.585998 
L 855.516914 174.689648 
L 856.250259 174.321764 
L 859.184614 198.602056 
L 859.918284 204.488188 
L 860.651954 212.581618 
L 862.118969 224.353881 
L 862.852638 225.825414 
L 863.586308 232.079429 
L 864.319978 234.286728 
L 865.053323 237.229794 
L 865.786993 235.758261 
L 866.520663 236.494027 
L 867.254658 236.494027 
L 867.987678 235.390378 
L 868.721348 233.550961 
L 869.455018 229.504246 
L 870.188688 229.136363 
L 870.922033 226.56118 
L 871.655703 224.721764 
L 872.389373 220.307166 
L 873.123043 219.203516 
L 873.856388 216.996217 
L 874.590058 216.260451 
L 875.323728 214.053151 
L 876.057397 211.477969 
L 876.790743 212.581618 
L 877.524412 212.213735 
L 878.258082 212.213735 
L 878.991752 209.638553 
L 879.725097 211.845852 
L 880.458767 212.581618 
L 881.192437 214.053151 
L 881.926107 213.317385 
L 882.659452 214.421034 
L 883.393122 215.892567 
L 884.126792 217.731983 
L 884.860462 218.099867 
L 885.593807 217.3641 
L 886.327477 219.571399 
L 887.794817 222.514465 
L 888.528162 220.675049 
L 889.261832 220.307166 
L 889.995501 215.892567 
L 890.729171 206.327604 
L 891.462516 187.197677 
L 892.196186 158.134903 
L 892.929856 123.553881 
L 894.396871 34.158261 
L 895.130541 20.178699 
L 895.864211 20.178699 
L 896.597881 20.546582 
L 897.331226 20.546582 
L 898.064896 20.178699 
L 898.798566 20.178699 
L 899.532236 20.546582 
L 900.265581 20.546582 
L 900.999251 20.178699 
L 901.732921 20.546582 
L 902.466591 20.178699 
L 903.199936 20.546582 
L 904.667275 20.546582 
L 905.400945 20.178699 
L 906.13429 20.546582 
L 907.60163 20.546582 
L 908.3353 20.178699 
L 909.068645 45.56264 
L 910.535985 126.86483 
L 912.003 193.819575 
L 912.73667 220.675049 
L 913.47034 240.908626 
L 914.20401 253.416655 
L 914.937355 259.670669 
L 915.671025 262.981618 
L 916.404695 262.245852 
L 917.138364 256.727604 
L 921.539734 200.809356 
L 922.273404 196.76264 
L 923.007074 194.187458 
L 923.740419 192.348042 
L 924.474089 191.244392 
L 925.207759 193.819575 
L 925.941429 199.705706 
L 926.674774 204.120305 
L 927.408444 210.006436 
L 928.142114 214.421034 
L 928.875784 221.778699 
L 929.609129 227.66483 
L 930.342799 231.711545 
L 931.076469 235.022494 
L 931.810138 239.437093 
L 932.543484 243.115925 
L 933.277153 243.851691 
L 934.010823 244.955341 
L 934.744493 243.851691 
L 935.477838 244.955341 
L 936.211508 243.851691 
L 936.945178 242.012275 
L 937.678848 237.96556 
L 938.412193 237.597677 
L 939.145863 235.758261 
L 939.879533 233.550961 
L 940.613203 229.872129 
L 941.346548 227.296947 
L 942.080218 227.296947 
L 942.813888 224.721764 
L 943.547558 223.250232 
L 944.280903 219.571399 
L 945.014573 220.675049 
L 945.748242 219.571399 
L 946.481912 219.939283 
L 947.215257 217.731983 
L 947.948927 218.835633 
L 948.682597 219.571399 
L 949.416267 219.571399 
L 950.149612 220.675049 
L 950.883282 219.939283 
L 951.616952 223.250232 
L 952.350622 223.985998 
L 953.083967 225.089648 
L 953.817637 223.250232 
L 954.551307 226.929064 
L 954.551307 226.929064 
" style="fill:none;stroke:#0000ff;stroke-linecap:square;stroke-width:1.5;"/>
   </g>
   <g id="line2d_13">
    <path clip-path="url(#p17fffaf558)" d="M 142.914943 234.286728 
L 143.484276 266.660451 
L 144.048738 265.924684 
L 144.669385 257.46337 
L 146.531653 221.778699 
L 148.393596 197.86629 
L 149.014569 191.980159 
L 149.635216 187.933443 
L 150.255864 186.094027 
L 150.876512 184.622494 
L 151.497484 183.886728 
L 152.174643 184.254611 
L 152.851802 184.990378 
L 154.883278 191.980159 
L 155.560437 194.555341 
L 156.237596 196.394757 
L 156.914755 199.337823 
L 158.269072 203.384538 
L 158.946231 204.488188 
L 159.62339 204.856071 
L 160.300549 202.648772 
L 160.977708 198.96994 
L 161.654866 193.083808 
L 164.363502 164.756801 
L 165.717819 151.513005 
L 166.394978 147.098407 
L 167.072137 143.419575 
L 168.426454 139.372859 
L 169.780772 137.901326 
L 171.135089 138.637093 
L 171.812248 140.844392 
L 172.489407 141.948042 
L 173.166566 144.891107 
L 173.844049 146.730523 
L 177.229519 157.76702 
L 177.906677 158.870669 
L 178.584161 160.342202 
L 179.260995 161.445852 
L 179.938154 162.917385 
L 180.615313 163.653151 
L 181.96963 164.388918 
L 182.646789 165.492567 
L 183.323948 166.228334 
L 184.001107 167.331983 
L 184.678265 166.9641 
L 185.355424 166.9641 
L 186.032583 167.331983 
L 186.709742 168.435633 
L 187.386901 168.06775 
L 188.064059 168.435633 
L 190.095536 168.435633 
L 190.772695 168.803516 
L 192.127012 168.06775 
L 192.804171 168.435633 
L 193.48133 170.275049 
L 194.158489 169.539283 
L 194.835647 169.907166 
L 195.512806 171.010815 
L 196.189965 174.689648 
L 196.867124 179.472129 
L 198.221441 193.819575 
L 199.575759 210.374319 
L 200.930077 223.985998 
L 202.961553 239.804976 
L 204.315871 245.323224 
L 204.993029 246.058991 
L 205.670188 247.530523 
L 206.347347 247.16264 
L 207.024506 246.426874 
L 209.733141 237.229794 
L 211.087459 229.872129 
L 213.118935 222.514465 
L 214.473253 217.731983 
L 215.82757 215.524684 
L 216.504729 214.788918 
L 217.181888 213.317385 
L 217.859047 212.213735 
L 218.536205 212.213735 
L 219.213364 211.845852 
L 219.890523 211.110086 
L 220.567682 210.742202 
L 221.24484 210.006436 
L 221.921999 210.374319 
L 223.276317 210.374319 
L 223.953476 210.006436 
L 224.630634 209.270669 
L 225.36398 209.270669 
L 226.097649 208.16702 
L 226.831319 208.534903 
L 227.564989 206.327604 
L 228.298334 207.799137 
L 229.032004 206.327604 
L 229.765674 207.06337 
L 230.499344 205.591837 
L 231.232689 204.488188 
L 231.966359 201.545122 
L 232.700029 196.76264 
L 233.433699 190.140742 
L 235.634384 164.756801 
L 236.368378 158.134903 
L 237.101399 150.041472 
L 237.835069 146.730523 
L 238.568739 140.844392 
L 239.302408 138.26921 
L 240.035754 136.429794 
L 241.503093 136.429794 
L 242.236763 136.797677 
L 242.970108 138.637093 
L 243.703778 139.372859 
L 244.437448 142.683808 
L 245.171118 143.787458 
L 245.904463 147.098407 
L 246.638133 147.834173 
L 247.371803 151.880888 
L 248.105473 153.352421 
L 248.839467 157.031253 
L 249.572488 157.76702 
L 250.306158 158.870669 
L 251.039828 161.077969 
L 251.773173 162.181618 
L 252.506843 164.021034 
L 253.240512 162.917385 
L 253.974182 165.492567 
L 254.707527 165.124684 
L 255.441197 167.331983 
L 256.174867 166.596217 
L 256.908537 168.06775 
L 257.641882 167.699867 
L 258.375552 169.171399 
L 259.842892 169.171399 
L 260.576237 169.907166 
L 261.310556 169.539283 
L 262.043577 170.275049 
L 262.777247 169.171399 
L 263.510592 170.275049 
L 264.244262 169.539283 
L 264.977932 170.642932 
L 265.711602 169.171399 
L 266.444947 169.171399 
L 267.178617 170.642932 
L 267.912286 174.689648 
L 269.379301 187.933443 
L 271.580311 214.053151 
L 272.313656 220.307166 
L 273.047326 228.032713 
L 274.514666 239.804976 
L 275.981681 245.691107 
L 276.715351 247.16264 
L 277.449021 247.898407 
L 278.182366 247.530523 
L 278.916036 244.955341 
L 279.649706 243.483808 
L 280.383375 240.172859 
L 281.116721 238.701326 
L 281.85039 234.654611 
L 282.58406 232.079429 
L 283.31773 228.400596 
L 284.784745 223.985998 
L 286.252085 218.835633 
L 286.98543 216.996217 
L 287.7191 215.892567 
L 288.45277 212.949502 
L 289.18644 212.213735 
L 289.919785 210.374319 
L 290.653455 211.110086 
L 291.387125 208.902786 
L 292.120795 208.902786 
L 292.85414 208.534903 
L 293.58781 209.270669 
L 294.321479 209.638553 
L 295.055149 208.902786 
L 295.788495 209.270669 
L 296.522164 208.534903 
L 297.255834 208.902786 
L 297.989504 207.431253 
L 298.722849 207.799137 
L 299.456519 206.327604 
L 300.190189 206.695487 
L 300.923859 205.959721 
L 301.657204 205.959721 
L 302.390874 205.223954 
L 303.124544 203.752421 
L 303.858214 200.073589 
L 305.325229 186.829794 
L 306.058899 178.000596 
L 306.792569 171.010815 
L 307.525914 161.813735 
L 308.259584 156.295487 
L 308.993253 149.673589 
L 309.726923 146.36264 
L 310.460268 142.315925 
L 311.927608 137.533443 
L 312.661278 137.16556 
L 313.394623 137.533443 
L 314.128293 137.533443 
L 314.861963 139.372859 
L 315.595633 139.740742 
L 316.328978 143.787458 
L 317.062648 144.891107 
L 317.796318 147.46629 
L 318.529988 148.56994 
L 319.263333 151.880888 
L 320.730673 156.295487 
L 321.464342 158.134903 
L 322.197688 159.238553 
L 322.931357 161.445852 
L 323.665027 161.813735 
L 324.398697 164.388918 
L 325.132042 163.285268 
L 325.865712 166.228334 
L 326.599382 165.492567 
L 327.333052 166.596217 
L 328.066397 166.228334 
L 328.800067 167.699867 
L 329.533737 168.06775 
L 330.267407 167.699867 
L 331.000752 168.435633 
L 331.734422 166.596217 
L 332.468092 168.06775 
L 333.201762 166.9641 
L 333.935107 169.171399 
L 334.668777 168.06775 
L 335.402447 169.539283 
L 336.136116 169.907166 
L 336.869462 170.642932 
L 337.603131 169.907166 
L 338.336801 170.642932 
L 339.803816 176.896947 
L 341.271156 190.508626 
L 342.004826 200.809356 
L 344.939181 232.079429 
L 346.406196 242.748042 
L 347.139866 246.058991 
L 347.873536 247.530523 
L 348.606881 249.737823 
L 349.340551 248.634173 
L 350.07422 248.634173 
L 350.80789 244.955341 
L 351.541235 244.219575 
L 352.274905 240.540742 
L 353.008575 237.96556 
L 353.742245 233.918845 
L 354.47559 230.607896 
L 355.20926 228.400596 
L 355.94293 225.457531 
L 356.6766 223.250232 
L 357.409945 219.203516 
L 358.143615 218.099867 
L 358.877285 215.156801 
L 359.610955 214.788918 
L 360.3443 211.845852 
L 361.07797 211.845852 
L 361.81164 210.006436 
L 362.54531 210.006436 
L 363.278655 209.638553 
L 364.012325 208.534903 
L 364.745994 209.638553 
L 365.479664 208.902786 
L 366.213009 209.638553 
L 366.946679 207.799137 
L 367.680349 208.902786 
L 368.414019 207.799137 
L 369.147364 209.270669 
L 369.881034 207.799137 
L 370.614704 208.16702 
L 372.081719 207.431253 
L 372.815389 207.431253 
L 373.549059 206.327604 
L 374.282729 206.695487 
L 375.016074 203.016655 
L 375.749744 198.602056 
L 376.483414 190.140742 
L 377.217083 184.254611 
L 377.950429 173.953881 
L 378.684098 166.9641 
L 379.417768 157.76702 
L 380.151438 151.145122 
L 381.618778 141.580159 
L 382.352123 139.004976 
L 383.085793 135.694027 
L 383.819138 135.326144 
L 384.552808 134.590378 
L 385.286478 136.429794 
L 386.020148 137.901326 
L 386.753493 138.637093 
L 387.487163 140.844392 
L 388.220833 143.787458 
L 388.954503 145.626874 
L 391.888857 156.295487 
L 392.622203 157.399137 
L 393.355872 159.606436 
L 394.089867 159.974319 
L 394.823212 162.917385 
L 395.556557 162.181618 
L 396.290227 164.388918 
L 397.757567 165.860451 
L 398.490912 166.228334 
L 399.224582 166.228334 
L 399.958252 167.331983 
L 400.691922 167.331983 
L 401.425267 168.06775 
L 402.158937 166.9641 
L 402.892607 167.699867 
L 403.626277 166.228334 
L 404.359622 168.435633 
L 405.093292 169.539283 
L 405.826961 170.275049 
L 407.293976 168.803516 
L 408.027646 168.803516 
L 408.761316 166.228334 
L 409.494986 166.9641 
L 410.228331 166.228334 
L 410.962001 171.010815 
L 411.695671 173.953881 
L 413.162686 188.66921 
L 413.896356 201.913005 
L 414.630026 209.638553 
L 415.363696 220.307166 
L 416.830711 234.654611 
L 417.564381 243.483808 
L 418.29805 246.794757 
L 419.032045 251.577239 
L 419.765065 251.577239 
L 420.498735 255.256071 
L 421.232405 252.680888 
L 421.96575 251.945122 
L 422.69942 247.530523 
L 423.43309 244.955341 
L 424.16676 241.644392 
L 424.900105 236.86191 
L 425.633775 233.918845 
L 426.367445 228.76848 
L 427.101115 227.66483 
L 427.83446 222.882348 
L 428.56813 221.778699 
L 429.3018 217.731983 
L 430.03547 217.731983 
L 430.768815 214.053151 
L 431.502485 213.317385 
L 432.236155 211.477969 
L 432.969824 211.110086 
L 433.70317 211.110086 
L 434.436839 209.270669 
L 435.170509 210.006436 
L 435.904179 208.16702 
L 436.637524 210.374319 
L 437.371194 208.16702 
L 438.104864 209.638553 
L 438.838534 206.695487 
L 439.571879 208.534903 
L 440.305549 207.431253 
L 441.039219 207.431253 
L 442.506234 206.695487 
L 443.239904 208.16702 
L 443.973574 206.695487 
L 444.707244 207.799137 
L 445.440589 204.856071 
L 446.174259 206.327604 
L 447.641598 196.76264 
L 448.374943 187.933443 
L 449.108613 181.679429 
L 450.575953 164.388918 
L 452.042968 148.937823 
L 452.776638 145.626874 
L 453.510308 139.372859 
L 454.243653 138.26921 
L 454.977323 133.486728 
L 455.710993 134.590378 
L 456.444663 133.486728 
L 457.178008 135.694027 
L 457.911678 135.694027 
L 458.645348 137.901326 
L 459.379018 140.844392 
L 460.112363 142.683808 
L 460.846033 146.730523 
L 461.579702 147.46629 
L 462.313372 152.616655 
L 463.046717 152.984538 
L 463.780387 156.66337 
L 464.514057 156.295487 
L 465.247727 160.342202 
L 465.981072 160.342202 
L 466.714742 162.549502 
L 467.448412 162.917385 
L 468.182082 164.021034 
L 468.915427 166.228334 
L 469.649097 165.492567 
L 470.382767 167.331983 
L 471.116437 164.756801 
L 471.849782 166.9641 
L 472.583452 165.860451 
L 473.317122 168.06775 
L 474.050791 165.492567 
L 474.784137 166.9641 
L 475.517806 166.228334 
L 476.985146 166.9641 
L 477.718491 165.492567 
L 478.452161 167.699867 
L 479.185831 166.9641 
L 479.919501 169.539283 
L 480.652846 167.331983 
L 481.386516 169.907166 
L 482.120186 170.275049 
L 483.587201 181.679429 
L 484.320871 189.772859 
L 486.521556 218.099867 
L 487.255226 224.353881 
L 487.988896 233.550961 
L 488.722565 237.96556 
L 489.455911 244.587458 
L 490.18958 245.691107 
L 490.92325 250.105706 
L 491.65692 250.105706 
L 492.390265 251.945122 
L 493.123935 250.473589 
L 493.857605 247.898407 
L 494.591275 246.794757 
L 495.32462 243.115925 
L 496.05829 241.276509 
L 496.79196 235.390378 
L 497.52563 234.654611 
L 498.258975 229.504246 
L 498.992645 228.400596 
L 499.726315 223.250232 
L 500.459985 221.410815 
L 501.19333 218.835633 
L 501.927 217.731983 
L 503.394339 212.581618 
L 504.127684 212.949502 
L 504.861354 210.742202 
L 505.595024 211.477969 
L 506.328694 208.16702 
L 507.062039 208.902786 
L 507.795709 206.695487 
L 508.529379 208.902786 
L 509.263049 206.695487 
L 509.996394 207.431253 
L 510.730064 207.06337 
L 511.463734 207.799137 
L 512.197404 208.902786 
L 512.930749 207.431253 
L 513.664419 208.534903 
L 514.398089 207.06337 
L 515.131758 209.270669 
L 515.865104 207.06337 
L 516.598774 207.799137 
L 517.332443 206.327604 
L 518.066113 205.959721 
L 519.533128 194.555341 
L 521.733813 171.010815 
L 522.467483 161.077969 
L 523.201153 154.823954 
L 523.934823 147.098407 
L 524.668168 144.523224 
L 525.401838 138.26921 
L 526.135508 136.797677 
L 526.869178 132.750961 
L 527.602523 133.854611 
L 528.336193 133.486728 
L 529.803532 136.429794 
L 530.536878 138.26921 
L 531.270547 142.683808 
L 532.004217 143.419575 
L 532.737887 147.834173 
L 533.471232 149.673589 
L 534.204902 154.456071 
L 534.938572 154.456071 
L 535.672242 157.76702 
L 536.405587 158.134903 
L 537.139257 161.077969 
L 537.872927 162.181618 
L 538.606597 162.549502 
L 539.340591 163.653151 
L 540.073612 163.653151 
L 540.807282 166.9641 
L 541.540952 165.860451 
L 542.274297 166.9641 
L 543.007967 164.388918 
L 543.741636 166.596217 
L 544.475306 165.124684 
L 545.208651 166.9641 
L 545.942321 165.124684 
L 546.675991 166.9641 
L 547.409661 167.699867 
L 548.143006 167.331983 
L 548.876676 168.803516 
L 549.610346 168.06775 
L 550.344016 170.642932 
L 551.077361 168.803516 
L 551.811681 170.642932 
L 552.544701 167.699867 
L 553.278371 170.642932 
L 554.011716 171.746582 
L 554.745386 176.896947 
L 555.479056 183.150961 
L 556.212726 191.980159 
L 556.946071 202.648772 
L 557.679741 210.374319 
L 558.41341 220.675049 
L 559.14708 225.825414 
L 559.880425 235.390378 
L 560.614095 238.701326 
L 561.347765 245.323224 
L 562.081435 245.691107 
L 562.81478 249.737823 
L 563.54845 250.473589 
L 564.282445 250.105706 
L 565.01579 249.002056 
L 565.749135 246.058991 
L 566.482805 246.058991 
L 567.216475 241.276509 
L 567.950145 240.172859 
L 568.68349 234.286728 
L 569.41716 233.918845 
L 570.15083 228.76848 
L 570.884499 227.296947 
L 571.617845 222.514465 
L 573.085184 219.571399 
L 573.818854 217.3641 
L 574.552199 216.628334 
L 575.285869 212.949502 
L 576.019539 214.421034 
L 576.753209 211.845852 
L 577.486554 212.949502 
L 578.220224 209.270669 
L 578.953894 211.110086 
L 579.687564 209.270669 
L 580.420909 210.374319 
L 581.154579 209.270669 
L 581.888249 208.534903 
L 582.621919 210.006436 
L 583.355264 209.270669 
L 584.088934 211.110086 
L 584.822604 208.16702 
L 585.556273 210.742202 
L 586.289619 207.799137 
L 587.023288 209.638553 
L 587.756958 206.695487 
L 588.490628 208.534903 
L 589.223973 206.695487 
L 589.957643 204.120305 
L 590.691313 199.337823 
L 591.424983 191.244392 
L 592.158328 185.358261 
L 592.891998 175.057531 
L 593.625668 168.803516 
L 594.359338 157.76702 
L 595.092683 153.352421 
L 595.826353 145.258991 
L 596.560023 142.315925 
L 597.293693 136.797677 
L 598.027038 134.590378 
L 598.760708 133.118845 
L 599.494377 133.486728 
L 600.228047 134.590378 
L 600.961392 133.854611 
L 601.695062 138.637093 
L 602.428732 138.637093 
L 603.162402 143.419575 
L 603.895747 143.419575 
L 604.629417 148.202056 
L 605.363087 149.673589 
L 606.096757 153.720305 
L 606.830102 154.456071 
L 607.563772 156.295487 
L 608.297442 158.502786 
L 609.031112 159.974319 
L 609.764457 162.181618 
L 610.498127 161.077969 
L 611.231797 164.021034 
L 611.965467 162.917385 
L 612.698812 165.860451 
L 613.432482 164.756801 
L 614.166151 165.860451 
L 614.899821 165.124684 
L 615.633166 166.596217 
L 617.100506 165.860451 
L 617.834176 166.228334 
L 618.567521 165.860451 
L 619.301191 168.06775 
L 620.034861 165.492567 
L 620.768531 167.699867 
L 621.501876 166.228334 
L 622.235546 168.803516 
L 622.969216 166.9641 
L 623.702886 168.435633 
L 624.436231 168.435633 
L 625.169901 170.275049 
L 625.903571 173.218115 
L 626.63724 178.000596 
L 628.104255 194.555341 
L 628.837925 205.959721 
L 629.571595 212.949502 
L 630.30494 222.882348 
L 631.03861 229.504246 
L 631.77228 238.701326 
L 632.50595 242.380159 
L 633.239295 247.16264 
L 634.706635 251.577239 
L 635.440305 253.048772 
L 636.17365 250.473589 
L 636.90732 250.105706 
L 637.64099 246.794757 
L 638.37466 246.794757 
L 639.108005 241.276509 
L 639.841675 239.06921 
L 640.575344 233.918845 
L 641.309014 232.447312 
L 642.042359 228.400596 
L 642.776029 225.825414 
L 643.509699 222.514465 
L 644.243369 219.939283 
L 644.976714 219.203516 
L 645.710384 215.524684 
L 646.444054 215.156801 
L 647.177724 212.213735 
L 647.911069 213.685268 
L 648.644739 210.374319 
L 649.378409 211.477969 
L 650.112079 208.902786 
L 650.845424 210.374319 
L 651.579094 210.006436 
L 652.312764 210.374319 
L 653.046434 210.006436 
L 653.779779 209.270669 
L 654.513449 211.477969 
L 655.247118 208.902786 
L 655.980788 210.742202 
L 656.714133 207.799137 
L 657.447803 210.006436 
L 658.181473 207.431253 
L 658.915143 208.902786 
L 659.648488 207.431253 
L 660.382158 208.534903 
L 661.115828 207.799137 
L 661.849498 204.120305 
L 662.582843 198.96994 
L 663.316513 190.508626 
L 664.050183 184.622494 
L 664.783853 173.218115 
L 665.517198 166.9641 
L 666.250868 155.927604 
L 666.984538 151.880888 
L 667.718207 144.523224 
L 668.451553 140.844392 
L 669.185222 136.429794 
L 669.918892 134.958261 
L 670.652562 135.326144 
L 671.385907 133.854611 
L 672.119577 135.694027 
L 672.853247 134.958261 
L 673.586917 139.740742 
L 674.320262 139.740742 
L 675.053932 144.523224 
L 675.787602 143.787458 
L 676.521272 148.56994 
L 677.254617 150.777239 
L 677.988287 153.720305 
L 678.721957 155.927604 
L 679.455627 156.66337 
L 680.188972 159.974319 
L 680.922642 159.606436 
L 681.656312 163.285268 
L 682.389981 161.077969 
L 683.123327 164.388918 
L 683.856996 162.917385 
L 684.590991 165.860451 
L 685.324336 164.388918 
L 686.057681 165.492567 
L 687.525021 165.492567 
L 688.258691 165.860451 
L 688.992036 164.388918 
L 689.725706 167.699867 
L 690.459376 165.492567 
L 691.193046 167.699867 
L 691.926391 164.388918 
L 692.660061 166.9641 
L 693.393731 165.492567 
L 694.127401 167.699867 
L 694.860746 166.9641 
L 695.594416 166.9641 
L 696.328085 168.435633 
L 697.06208 169.539283 
L 697.7951 175.057531 
L 698.52877 178.736363 
L 699.26244 190.140742 
L 699.99611 197.86629 
L 700.729455 209.638553 
L 701.463125 215.892567 
L 702.196795 225.825414 
L 702.930465 232.447312 
L 703.66381 240.172859 
L 704.39748 244.955341 
L 705.13115 247.530523 
L 705.86482 251.577239 
L 706.598165 251.577239 
L 707.331835 253.784538 
L 708.065505 249.737823 
L 708.799175 250.473589 
L 709.533169 246.426874 
L 710.26619 245.323224 
L 710.999859 239.804976 
L 711.733529 237.229794 
L 712.466874 233.550961 
L 713.934214 227.66483 
L 714.667884 223.618115 
L 715.401229 222.882348 
L 716.134899 218.835633 
L 716.868569 218.835633 
L 717.602239 214.788918 
L 718.335584 215.156801 
L 719.069254 212.213735 
L 719.802924 213.317385 
L 720.536594 211.110086 
L 721.269939 210.742202 
L 722.004258 210.742202 
L 722.737279 210.006436 
L 723.470948 210.742202 
L 724.204294 208.902786 
L 724.937963 210.742202 
L 725.671633 209.270669 
L 726.405303 211.110086 
L 727.138648 208.902786 
L 727.872318 210.374319 
L 728.605988 209.270669 
L 729.339658 210.742202 
L 730.073003 209.638553 
L 730.806673 209.270669 
L 731.540343 209.638553 
L 732.274013 208.534903 
L 733.007358 208.16702 
L 733.741028 201.913005 
L 734.474698 197.130523 
L 735.208368 187.933443 
L 735.941713 181.311545 
L 736.675383 169.907166 
L 737.409052 162.549502 
L 738.142722 153.720305 
L 740.343407 137.901326 
L 741.810422 133.486728 
L 742.544092 134.590378 
L 743.277762 132.383078 
L 744.011432 134.958261 
L 744.744777 134.958261 
L 745.478447 139.372859 
L 746.212117 140.108626 
L 746.945787 144.155341 
L 747.679132 145.994757 
L 750.613487 157.399137 
L 751.347157 158.134903 
L 752.080826 161.813735 
L 752.814496 161.077969 
L 753.547841 164.388918 
L 754.281511 163.285268 
L 755.015181 166.596217 
L 755.748851 165.492567 
L 756.482196 166.228334 
L 757.215866 166.228334 
L 757.949536 167.331983 
L 758.683206 168.06775 
L 759.416551 165.860451 
L 760.150221 166.9641 
L 760.883891 165.124684 
L 761.617561 167.699867 
L 762.350906 164.756801 
L 763.084576 166.596217 
L 763.818246 164.756801 
L 764.551915 166.596217 
L 765.285261 165.860451 
L 766.01893 166.596217 
L 766.7526 165.860451 
L 767.48627 166.228334 
L 768.219615 168.803516 
L 768.953285 169.539283 
L 769.686955 176.529064 
L 770.420625 181.679429 
L 771.15397 193.451691 
L 771.88764 201.177239 
L 772.62131 212.949502 
L 773.35498 219.203516 
L 774.088325 228.76848 
L 774.821995 235.758261 
L 776.289335 246.426874 
L 777.02268 247.898407 
L 777.75635 252.313005 
L 778.49002 251.209356 
L 779.223689 253.416655 
L 779.957035 249.002056 
L 780.690704 249.36994 
L 781.424374 244.955341 
L 782.158044 242.380159 
L 782.891389 237.229794 
L 783.625059 235.758261 
L 785.092399 230.240013 
L 785.825744 228.032713 
L 786.559414 223.985998 
L 787.293084 223.618115 
L 788.026754 219.571399 
L 788.760099 219.571399 
L 789.493769 215.524684 
L 790.227439 216.628334 
L 790.961109 213.685268 
L 791.694454 214.421034 
L 792.428124 212.213735 
L 793.161793 211.845852 
L 793.895463 212.213735 
L 794.628808 210.742202 
L 795.362478 211.845852 
L 796.096148 209.270669 
L 796.829818 211.110086 
L 797.563163 209.270669 
L 798.296833 210.742202 
L 799.030503 208.16702 
L 799.764173 210.374319 
L 800.497518 208.902786 
L 801.231188 209.638553 
L 802.698528 208.16702 
L 803.431873 208.902786 
L 804.165543 207.06337 
L 804.899213 205.959721 
L 805.632883 198.96994 
L 806.366228 194.555341 
L 807.099898 184.622494 
L 807.833567 178.000596 
L 808.567237 166.596217 
L 809.300582 160.342202 
L 810.034252 152.248772 
L 810.767922 146.36264 
L 811.501592 141.948042 
L 812.234937 136.797677 
L 812.968607 136.429794 
L 813.702277 133.854611 
L 814.435947 135.326144 
L 815.169292 134.222494 
L 815.902962 137.533443 
L 816.636632 136.797677 
L 817.370302 141.580159 
L 818.103647 143.051691 
L 820.304656 150.777239 
L 821.038002 154.088188 
L 821.771671 154.823954 
L 822.505341 158.134903 
L 823.239011 158.502786 
L 823.972356 161.445852 
L 824.706026 160.710086 
L 825.439696 163.285268 
L 826.173366 162.917385 
L 826.906711 165.124684 
L 827.640381 164.388918 
L 828.374051 164.756801 
L 829.107721 165.860451 
L 829.841391 166.228334 
L 830.574736 167.699867 
L 831.308406 165.860451 
L 832.042076 166.596217 
L 832.775421 165.124684 
L 833.509091 167.331983 
L 834.242761 166.228334 
L 834.97643 166.9641 
L 835.709776 165.492567 
L 836.443445 166.9641 
L 837.910785 166.9641 
L 838.64413 168.06775 
L 839.3778 167.699867 
L 840.11147 170.275049 
L 840.84514 171.746582 
L 842.312805 185.726144 
L 843.045825 197.130523 
L 843.779495 204.856071 
L 844.51284 215.524684 
L 846.71385 237.96556 
L 848.180865 247.16264 
L 848.914534 248.634173 
L 849.648204 251.945122 
L 850.381549 250.841472 
L 851.115219 251.577239 
L 851.848889 248.26629 
L 852.582559 248.26629 
L 853.315904 243.851691 
L 854.049574 241.644392 
L 854.783569 237.96556 
L 856.250259 232.079429 
L 856.983929 226.929064 
L 857.717599 225.457531 
L 858.451269 221.410815 
L 859.184614 221.410815 
L 859.918284 216.996217 
L 860.651954 216.628334 
L 861.385623 213.317385 
L 862.118969 214.421034 
L 862.852638 212.581618 
L 864.319978 211.110086 
L 865.053323 210.006436 
L 865.786993 211.110086 
L 866.520663 209.270669 
L 867.254658 210.006436 
L 867.987678 208.534903 
L 868.721348 211.110086 
L 869.455018 209.270669 
L 870.188688 211.477969 
L 870.922033 209.270669 
L 871.655703 210.374319 
L 872.389373 210.006436 
L 873.123043 209.270669 
L 873.856388 209.638553 
L 874.590058 207.799137 
L 875.323728 209.638553 
L 876.057397 207.06337 
L 876.790743 206.327604 
L 877.524412 198.602056 
L 878.258082 194.187458 
L 878.991752 183.886728 
L 879.725097 176.529064 
L 880.458767 166.228334 
L 882.659452 145.258991 
L 883.393122 141.212275 
L 884.126792 136.429794 
L 884.860462 136.797677 
L 885.593807 133.486728 
L 886.327477 136.06191 
L 887.061147 133.854611 
L 887.794817 138.26921 
L 888.528162 138.26921 
L 889.261832 141.948042 
L 889.995501 143.787458 
L 890.729171 146.36264 
L 891.462516 150.041472 
L 892.196186 150.777239 
L 892.929856 154.456071 
L 893.663526 154.456071 
L 894.396871 159.238553 
L 895.130541 158.134903 
L 895.864211 161.445852 
L 896.597881 160.342202 
L 897.331226 163.285268 
L 898.064896 163.285268 
L 899.532236 164.756801 
L 900.265581 163.285268 
L 900.999251 165.860451 
L 901.732921 164.388918 
L 902.466591 166.596217 
L 903.199936 164.388918 
L 903.933606 167.331983 
L 904.667275 165.492567 
L 905.400945 168.435633 
L 906.13429 166.9641 
L 907.60163 168.435633 
L 908.3353 168.06775 
L 909.068645 169.171399 
L 909.802315 167.331983 
L 910.535985 169.171399 
L 911.269655 167.699867 
L 912.003 171.010815 
L 912.73667 172.482348 
L 913.47034 181.311545 
L 914.20401 187.933443 
L 914.937355 198.96994 
L 917.138364 226.193297 
L 917.87171 232.447312 
L 918.605379 240.172859 
L 919.339049 243.483808 
L 920.072719 249.002056 
L 920.806064 249.737823 
L 921.539734 252.680888 
L 922.273404 250.473589 
L 923.007074 251.209356 
L 924.474089 246.794757 
L 925.207759 243.483808 
L 925.941429 238.701326 
L 926.674774 237.229794 
L 927.408444 232.079429 
L 928.142114 230.240013 
L 928.875784 225.089648 
L 929.609129 224.353881 
L 930.342799 219.939283 
L 931.076469 219.939283 
L 931.810138 216.628334 
L 933.277153 213.685268 
L 934.010823 212.581618 
L 934.744493 212.581618 
L 935.477838 210.374319 
L 936.211508 211.110086 
L 936.945178 209.638553 
L 937.678848 211.110086 
L 938.412193 208.902786 
L 939.145863 210.742202 
L 939.879533 209.270669 
L 940.613203 210.742202 
L 941.346548 209.638553 
L 942.813888 209.638553 
L 943.547558 208.902786 
L 944.280903 209.638553 
L 945.014573 207.06337 
L 945.748242 207.799137 
L 946.481912 205.959721 
L 947.215257 207.431253 
L 947.948927 203.752421 
L 948.682597 201.545122 
L 950.149612 189.037093 
L 951.616952 171.378699 
L 953.083967 155.927604 
L 953.817637 150.777239 
L 954.551307 144.523224 
L 954.551307 144.523224 
" style="fill:none;stroke:#ff0000;stroke-dasharray:5.55,2.4;stroke-dashoffset:0;stroke-width:1.5;"/>
   </g>
   <g id="patch_3">
    <path d="M 102.333125 337.698699 
L 102.333125 5.058699 
" style="fill:none;stroke:#000000;stroke-linecap:square;stroke-linejoin:miter;stroke-width:0.8;"/>
   </g>
   <g id="patch_4">
    <path d="M 995.133125 337.698699 
L 995.133125 5.058699 
" style="fill:none;stroke:#000000;stroke-linecap:square;stroke-linejoin:miter;stroke-width:0.8;"/>
   </g>
   <g id="patch_5">
    <path d="M 102.333125 337.698699 
L 995.133125 337.698699 
" style="fill:none;stroke:#000000;stroke-linecap:square;stroke-linejoin:miter;stroke-width:0.8;"/>
   </g>
   <g id="patch_6">
    <path d="M 102.333125 5.058699 
L 995.133125 5.058699 
" style="fill:none;stroke:#000000;stroke-linecap:square;stroke-linejoin:miter;stroke-width:0.8;"/>
   </g>
   <g id="legend_1">
    <g id="patch_7">
     <path d="M 755.795 102.184949 
L 976.933125 102.184949 
Q 982.133125 102.184949 982.133125 96.984949 
L 982.133125 23.258699 
Q 982.133125 18.058699 976.933125 18.058699 
L 755.795 18.058699 
Q 750.595 18.058699 750.595 23.258699 
L 750.595 96.984949 
Q 750.595 102.184949 755.795 102.184949 
z
" style="fill:#ffffff;opacity:0.8;stroke:#cccccc;stroke-linejoin:miter;"/>
    </g>
    <g id="line2d_14">
     <path d="M 760.995 39.114636 
L 812.995 39.114636 
" style="fill:none;stroke:#0000ff;stroke-linecap:square;stroke-width:1.5;"/>
    </g>
    <g id="line2d_15"/>
    <g id="text_14">
     <!-- Real -->
     <g transform="translate(833.795 48.214636)scale(0.26 -0.26)">
      <defs>
       <path d="M 44.390625 34.1875 
Q 47.5625 33.109375 50.5625 29.59375 
Q 53.5625 26.078125 56.59375 19.921875 
L 66.609375 0 
L 56 0 
L 46.6875 18.703125 
Q 43.0625 26.03125 39.671875 28.421875 
Q 36.28125 30.8125 30.421875 30.8125 
L 19.671875 30.8125 
L 19.671875 0 
L 9.8125 0 
L 9.8125 72.90625 
L 32.078125 72.90625 
Q 44.578125 72.90625 50.734375 67.671875 
Q 56.890625 62.453125 56.890625 51.90625 
Q 56.890625 45.015625 53.6875 40.46875 
Q 50.484375 35.9375 44.390625 34.1875 
z
M 19.671875 64.796875 
L 19.671875 38.921875 
L 32.078125 38.921875 
Q 39.203125 38.921875 42.84375 42.21875 
Q 46.484375 45.515625 46.484375 51.90625 
Q 46.484375 58.296875 42.84375 61.546875 
Q 39.203125 64.796875 32.078125 64.796875 
z
" id="DejaVuSans-82"/>
      </defs>
      <use xlink:href="#DejaVuSans-82"/>
      <use x="64.982422" xlink:href="#DejaVuSans-101"/>
      <use x="126.505859" xlink:href="#DejaVuSans-97"/>
      <use x="187.785156" xlink:href="#DejaVuSans-108"/>
     </g>
    </g>
    <g id="line2d_16">
     <path d="M 760.995 77.277761 
L 812.995 77.277761 
" style="fill:none;stroke:#ff0000;stroke-dasharray:5.55,2.4;stroke-dashoffset:0;stroke-width:1.5;"/>
    </g>
    <g id="line2d_17"/>
    <g id="text_15">
     <!-- Generated -->
     <g transform="translate(833.795 86.377761)scale(0.26 -0.26)">
      <defs>
       <path d="M 59.515625 10.40625 
L 59.515625 29.984375 
L 43.40625 29.984375 
L 43.40625 38.09375 
L 69.28125 38.09375 
L 69.28125 6.78125 
Q 63.578125 2.734375 56.6875 0.65625 
Q 49.8125 -1.421875 42 -1.421875 
Q 24.90625 -1.421875 15.25 8.5625 
Q 5.609375 18.5625 5.609375 36.375 
Q 5.609375 54.25 15.25 64.234375 
Q 24.90625 74.21875 42 74.21875 
Q 49.125 74.21875 55.546875 72.453125 
Q 61.96875 70.703125 67.390625 67.28125 
L 67.390625 56.78125 
Q 61.921875 61.421875 55.765625 63.765625 
Q 49.609375 66.109375 42.828125 66.109375 
Q 29.4375 66.109375 22.71875 58.640625 
Q 16.015625 51.171875 16.015625 36.375 
Q 16.015625 21.625 22.71875 14.15625 
Q 29.4375 6.6875 42.828125 6.6875 
Q 48.046875 6.6875 52.140625 7.59375 
Q 56.25 8.5 59.515625 10.40625 
z
" id="DejaVuSans-71"/>
       <path d="M 54.890625 33.015625 
L 54.890625 0 
L 45.90625 0 
L 45.90625 32.71875 
Q 45.90625 40.484375 42.875 44.328125 
Q 39.84375 48.1875 33.796875 48.1875 
Q 26.515625 48.1875 22.3125 43.546875 
Q 18.109375 38.921875 18.109375 30.90625 
L 18.109375 0 
L 9.078125 0 
L 9.078125 54.6875 
L 18.109375 54.6875 
L 18.109375 46.1875 
Q 21.34375 51.125 25.703125 53.5625 
Q 30.078125 56 35.796875 56 
Q 45.21875 56 50.046875 50.171875 
Q 54.890625 44.34375 54.890625 33.015625 
z
" id="DejaVuSans-110"/>
       <path d="M 41.109375 46.296875 
Q 39.59375 47.171875 37.8125 47.578125 
Q 36.03125 48 33.890625 48 
Q 26.265625 48 22.1875 43.046875 
Q 18.109375 38.09375 18.109375 28.8125 
L 18.109375 0 
L 9.078125 0 
L 9.078125 54.6875 
L 18.109375 54.6875 
L 18.109375 46.1875 
Q 20.953125 51.171875 25.484375 53.578125 
Q 30.03125 56 36.53125 56 
Q 37.453125 56 38.578125 55.875 
Q 39.703125 55.765625 41.0625 55.515625 
z
" id="DejaVuSans-114"/>
       <path d="M 18.3125 70.21875 
L 18.3125 54.6875 
L 36.8125 54.6875 
L 36.8125 47.703125 
L 18.3125 47.703125 
L 18.3125 18.015625 
Q 18.3125 11.328125 20.140625 9.421875 
Q 21.96875 7.515625 27.59375 7.515625 
L 36.8125 7.515625 
L 36.8125 0 
L 27.59375 0 
Q 17.1875 0 13.234375 3.875 
Q 9.28125 7.765625 9.28125 18.015625 
L 9.28125 47.703125 
L 2.6875 47.703125 
L 2.6875 54.6875 
L 9.28125 54.6875 
L 9.28125 70.21875 
z
" id="DejaVuSans-116"/>
       <path d="M 45.40625 46.390625 
L 45.40625 75.984375 
L 54.390625 75.984375 
L 54.390625 0 
L 45.40625 0 
L 45.40625 8.203125 
Q 42.578125 3.328125 38.25 0.953125 
Q 33.9375 -1.421875 27.875 -1.421875 
Q 17.96875 -1.421875 11.734375 6.484375 
Q 5.515625 14.40625 5.515625 27.296875 
Q 5.515625 40.1875 11.734375 48.09375 
Q 17.96875 56 27.875 56 
Q 33.9375 56 38.25 53.625 
Q 42.578125 51.265625 45.40625 46.390625 
z
M 14.796875 27.296875 
Q 14.796875 17.390625 18.875 11.75 
Q 22.953125 6.109375 30.078125 6.109375 
Q 37.203125 6.109375 41.296875 11.75 
Q 45.40625 17.390625 45.40625 27.296875 
Q 45.40625 37.203125 41.296875 42.84375 
Q 37.203125 48.484375 30.078125 48.484375 
Q 22.953125 48.484375 18.875 42.84375 
Q 14.796875 37.203125 14.796875 27.296875 
z
" id="DejaVuSans-100"/>
      </defs>
      <use xlink:href="#DejaVuSans-71"/>
      <use x="77.490234" xlink:href="#DejaVuSans-101"/>
      <use x="139.013672" xlink:href="#DejaVuSans-110"/>
      <use x="202.392578" xlink:href="#DejaVuSans-101"/>
      <use x="263.916016" xlink:href="#DejaVuSans-114"/>
      <use x="305.029297" xlink:href="#DejaVuSans-97"/>
      <use x="366.308594" xlink:href="#DejaVuSans-116"/>
      <use x="405.517578" xlink:href="#DejaVuSans-101"/>
      <use x="467.041016" xlink:href="#DejaVuSans-100"/>
     </g>
    </g>
   </g>
  </g>
 </g>
 <defs>
  <clipPath id="p17fffaf558">
   <rect height="332.64" width="892.8" x="102.333125" y="5.058699"/>
  </clipPath>
 </defs>
</svg>
