<svg width="724" height="735" xmlns="http://www.w3.org/2000/svg" xmlns:xlink="http://www.w3.org/1999/xlink" overflow="hidden"><defs><clipPath id="clip0"><rect x="214" y="-2" width="724" height="735"/></clipPath></defs><g clip-path="url(#clip0)" transform="translate(-214 2)"><path d="M0 0 0.00335958 641.386" stroke="#000000" stroke-width="8" stroke-miterlimit="8" fill="none" fill-rule="evenodd" transform="matrix(-1 -8.74228e-08 -8.74228e-08 1 424.003 66)"/><path d="M766 66 767.997 601.559" stroke="#000000" stroke-width="8" stroke-miterlimit="8" fill="none" fill-rule="evenodd"/><path d="M677.311 4 855.689 4C879.057 4 898 17.8792 898 35 898 52.1208 879.057 66 855.689 66L677.311 66C653.943 66 635 52.1208 635 35 635 17.8792 653.943 4 677.311 4Z" stroke="#000000" stroke-width="4" stroke-miterlimit="8" fill="#FFFFFF" fill-rule="evenodd"/><text font-family="Arial,Arial_MSFontService,sans-serif" font-weight="700" font-size="24" transform="translate(701.603 29)">Processing<tspan font-family="Yu Gothic,Yu Gothic_MSFontService,sans-serif" x="16.6667" y="28">処理開始</tspan></text><path d="M334.311 4 512.689 4C536.057 4 555 17.8792 555 35 555 52.1208 536.057 66 512.689 66L334.311 66C310.943 66 292 52.1208 292 35 292 17.8792 310.943 4 334.311 4Z" stroke="#000000" stroke-width="4" stroke-miterlimit="8" fill="#FFFFFF" fill-rule="evenodd"/><text font-family="Arial,Arial_MSFontService,sans-serif" font-weight="700" font-size="24" transform="translate(383.117 29)">Python<tspan font-family="Yu Gothic,Yu Gothic_MSFontService,sans-serif" x="-7.33331" y="28">処理開始</tspan></text><path d="M292 97.6 555 89 555 132 292 132Z" stroke="#000000" stroke-width="4" stroke-miterlimit="8" fill="#FFFFFF" fill-rule="evenodd"/><text font-family="Yu Gothic,Yu Gothic_MSFontService,sans-serif" font-weight="700" font-size="24" transform="translate(351.783 122)">心拍数を入力</text><rect x="292" y="155" width="263" height="44" fill="#FFFFFF"/><path d="M324.875 155 324.875 199M522.125 155 522.125 199" stroke="#000000" stroke-width="4" stroke-miterlimit="8" fill="none" fill-rule="evenodd"/><rect x="292" y="155" width="263" height="44" stroke="#000000" stroke-width="4" stroke-miterlimit="8" fill="none"/><text font-family="Cambria Math,Cambria Math_MSFontService,sans-serif" font-weight="400" font-size="24" transform="translate(349.617 185)">𝑪𝒐𝒍𝒐𝒓𝒔<tspan font-family="Yu Gothic,Yu Gothic_MSFontService,sans-serif" font-weight="700" x="76.3333" y="0">の作成</tspan></text><rect x="292" y="222" width="263" height="64" stroke="#000000" stroke-width="4" stroke-miterlimit="8" fill="#FFFFFF"/><text font-family="Cambria Math,Cambria Math_MSFontService,sans-serif" font-weight="400" font-size="24" transform="translate(361.617 247)">𝑪𝒐𝒍𝒐𝒓𝒔<tspan font-family="Yu Gothic,Yu Gothic_MSFontService,sans-serif" font-weight="700" x="76.3333" y="0">から</tspan><tspan font-family="Yu Gothic,Yu Gothic_MSFontService,sans-serif" font-weight="700" x="-52.7533" y="29">データを</tspan><tspan font-family="Yu Gothic,Yu Gothic_MSFontService,sans-serif" font-weight="700" x="43.2467" y="29">1</tspan><tspan font-family="Yu Gothic,Yu Gothic_MSFontService,sans-serif" font-weight="700" x="57.08" y="29">個取り出す</tspan></text><rect x="292" y="310" width="263" height="43" stroke="#000000" stroke-width="4" stroke-miterlimit="8" fill="#FFFFFF"/><text font-family="Yu Gothic,Yu Gothic_MSFontService,sans-serif" font-weight="700" font-size="24" transform="translate(314.119 339)">現在時刻<tspan font-family="Cambria Math,Cambria Math_MSFontService,sans-serif" font-weight="400" x="96" y="0">𝑻</tspan><tspan font-family="Cambria Math,Cambria Math_MSFontService,sans-serif" font-weight="400" font-size="18" x="111" y="5">𝒏𝒐𝒘</tspan><tspan x="147.327" y="0">を取得</tspan></text><rect x="292" y="376" width="263" height="44" stroke="#000000" stroke-width="4" stroke-miterlimit="8" fill="#FFFFFF"/><text font-family="Yu Gothic,Yu Gothic_MSFontService,sans-serif" font-weight="700" font-size="24" transform="translate(351.782 406)">データの送信</text><rect x="635" y="376" width="263" height="44" stroke="#000000" stroke-width="4" stroke-miterlimit="8" fill="#FFFFFF"/><text font-family="Yu Gothic,Yu Gothic_MSFontService,sans-serif" font-weight="700" font-size="24" transform="translate(694.268 406)">データの受信</text><path d="M555 396 624.571 396 624.571 400 555 400ZM622.571 392 634.571 398 622.571 404Z"/><path d="M635 474.5 678.833 443 854.167 443C878.375 443 898 457.103 898 474.5 898 491.897 878.375 506 854.167 506L678.833 506Z" stroke="#000000" stroke-width="4" stroke-miterlimit="8" fill="#FFFFFF" fill-rule="evenodd"/><text font-family="Yu Gothic,Yu Gothic_MSFontService,sans-serif" font-weight="700" font-size="24" transform="translate(694.268 468)">ディスプレイ<tspan x="36" y="29">に描画</tspan></text><rect x="635" y="530" width="263" height="43" stroke="#000000" stroke-width="4" stroke-miterlimit="8" fill="#FFFFFF"/><text font-family="Yu Gothic,Yu Gothic_MSFontService,sans-serif" font-weight="700" font-size="24" transform="translate(706.268 559)">完了を通知</text><rect x="292" y="530" width="263" height="43" stroke="#000000" stroke-width="4" stroke-miterlimit="8" fill="#FFFFFF"/><text font-family="Yu Gothic,Yu Gothic_MSFontService,sans-serif" font-weight="700" font-size="24" transform="translate(363.782 559)">通知の受信</text><path d="M2.63883e-06-2 69.5707-1.99991 69.5707 2.00009-2.63883e-06 2ZM67.5707-5.99991 79.5707 0.000104987 67.5707 6.00009Z" transform="matrix(-1 -8.74228e-08 -8.74228e-08 1 634.571 551)"/><path d="M0 166 0 0 244.591 0 244.591 140.061 249 140.061 242.516 157.353 236.032 140.061 240.441 140.061 240.441 4.15 4.15 4.15 4.15 166Z" stroke="#000000" stroke-width="6" stroke-miterlimit="8" fill-rule="evenodd" transform="matrix(-4.37114e-08 -1 -1 4.37114e-08 934 598)"/><path d="M292 642 423.5 596 555 642 423.5 688Z" stroke="#000000" stroke-width="4" stroke-miterlimit="8" fill="#FFFFFF" fill-rule="evenodd"/><text font-family="Cambria Math,Cambria Math_MSFontService,sans-serif" font-weight="400" font-size="24" transform="translate(374.12 635)">𝑻<tspan font-size="18" x="15" y="5">𝒏𝒐𝒘</tspan><tspan font-family="Yu Gothic,Yu Gothic_MSFontService,sans-serif" font-weight="700" x="51.3267" y="0">から</tspan><tspan x="-1.58664" y="29">𝑻</tspan><tspan font-size="18" x="13.4134" y="34">𝒘𝒂𝒊𝒕</tspan><tspan font-family="Yu Gothic,Yu Gothic_MSFontService,sans-serif" font-weight="700" x="52.9067" y="29">経過</tspan></text><path d="M286 643 250 643 250 254.214 270.342 254.214 270.342 248 284.125 255.244 270.342 262.488 270.342 256.274 252.06 256.274 252.06 640.94 286 640.94Z" stroke="#000000" stroke-width="6" stroke-miterlimit="8" fill-rule="evenodd"/><path d="M0 36 0 0 59.7855 0 59.7855 20.3422 66 20.3422 58.7557 34.1247 51.5115 20.3422 57.726 20.3422 57.726 2.05954 2.05954 2.05954 2.05954 36Z" stroke="#000000" stroke-width="6" stroke-miterlimit="8" fill-rule="evenodd" transform="matrix(-4.37114e-08 -1 -1 4.37114e-08 602 703)"/><path d="M0 0 138.331 1.51181" stroke="#000000" stroke-width="8" stroke-miterlimit="8" fill="none" fill-rule="evenodd" transform="matrix(-1 -8.74228e-08 -8.74228e-08 1 566.331 702)"/><rect x="216" y="595" width="68" height="30" fill="#FFFFFF"/><text font-family="Arial,Arial_MSFontService,sans-serif" font-weight="700" font-size="24" transform="translate(229.549 619)">Yes</text><rect x="485" y="689" width="59" height="29" fill="#FFFFFF"/><text font-family="Arial,Arial_MSFontService,sans-serif" font-weight="700" font-size="24" transform="translate(498.471 712)">No</text></g></svg>