<svg width="724" height="735" xmlns="http://www.w3.org/2000/svg" xmlns:xlink="http://www.w3.org/1999/xlink" overflow="hidden"><defs><clipPath id="clip0"><rect x="214" y="0" width="724" height="735"/></clipPath></defs><g clip-path="url(#clip0)" transform="translate(-214 0)"><path d="M0 0 0.00335958 641.386" stroke="#000000" stroke-width="8" stroke-miterlimit="8" fill="none" fill-rule="evenodd" transform="matrix(-1 -8.74228e-08 -8.74228e-08 1 424.003 67)"/><path d="M766 67 767.997 602.559" stroke="#000000" stroke-width="8" stroke-miterlimit="8" fill="none" fill-rule="evenodd"/><path d="M677.311 6 855.689 6C879.057 6 898 19.6553 898 36.5 898 53.3447 879.057 67 855.689 67L677.311 67C653.943 67 635 53.3447 635 36.5 635 19.6553 653.943 6 677.311 6Z" stroke="#000000" stroke-width="4" stroke-miterlimit="8" fill="#FFFFFF" fill-rule="evenodd"/><text font-family="Arial,Arial_MSFontService,sans-serif" font-weight="700" font-size="24" transform="translate(701.603 31)">Processing<tspan font-family="Yu Gothic,Yu Gothic_MSFontService,sans-serif" x="16.6667" y="28">処理開始</tspan></text><path d="M334.311 6 512.689 6C536.057 6 555 19.6553 555 36.5 555 53.3447 536.057 67 512.689 67L334.311 67C310.943 67 292 53.3447 292 36.5 292 19.6553 310.943 6 334.311 6Z" stroke="#000000" stroke-width="4" stroke-miterlimit="8" fill="#FFFFFF" fill-rule="evenodd"/><text font-family="Arial,Arial_MSFontService,sans-serif" font-weight="700" font-size="24" transform="translate(383.117 31)">Python<tspan font-family="Yu Gothic,Yu Gothic_MSFontService,sans-serif" x="-7.33331" y="28">処理開始</tspan></text><path d="M292 99.6 555 91 555 134 292 134Z" stroke="#000000" stroke-width="4" stroke-miterlimit="8" fill="#FFFFFF" fill-rule="evenodd"/><text font-family="Yu Gothic,Yu Gothic_MSFontService,sans-serif" font-weight="700" font-size="24" transform="translate(351.783 124)">心拍数を入力</text><rect x="292" y="157" width="263" height="44" fill="#FFFFFF"/><path d="M324.875 157 324.875 201M522.125 157 522.125 201" stroke="#000000" stroke-width="4" stroke-miterlimit="8" fill="none" fill-rule="evenodd"/><rect x="292" y="157" width="263" height="44" stroke="#000000" stroke-width="4" stroke-miterlimit="8" fill="none"/><text font-family="Cambria Math,Cambria Math_MSFontService,sans-serif" font-weight="400" font-size="24" transform="translate(349.617 187)">𝑪𝒐𝒍𝒐𝒓𝒔<tspan font-family="Yu Gothic,Yu Gothic_MSFontService,sans-serif" font-weight="700" x="76.3333" y="0">の作成</tspan></text><rect x="292" y="224" width="263" height="64" stroke="#000000" stroke-width="4" stroke-miterlimit="8" fill="#FFFFFF"/><text font-family="Cambria Math,Cambria Math_MSFontService,sans-serif" font-weight="400" font-size="24" transform="translate(361.617 249)">𝑪𝒐𝒍𝒐𝒓𝒔<tspan font-family="Yu Gothic,Yu Gothic_MSFontService,sans-serif" font-weight="700" x="76.3333" y="0">から</tspan><tspan font-family="Yu Gothic,Yu Gothic_MSFontService,sans-serif" font-weight="700" x="-52.7533" y="29">データを</tspan><tspan font-family="Yu Gothic,Yu Gothic_MSFontService,sans-serif" font-weight="700" x="43.2467" y="29">1</tspan><tspan font-family="Yu Gothic,Yu Gothic_MSFontService,sans-serif" font-weight="700" x="57.08" y="29">個取り出す</tspan></text><rect x="292" y="311" width="263" height="44" stroke="#000000" stroke-width="4" stroke-miterlimit="8" fill="#FFFFFF"/><text font-family="Yu Gothic,Yu Gothic_MSFontService,sans-serif" font-weight="700" font-size="24" transform="translate(314.119 341)">現在時刻<tspan font-family="Cambria Math,Cambria Math_MSFontService,sans-serif" font-weight="400" x="96" y="0">𝑻</tspan><tspan font-family="Cambria Math,Cambria Math_MSFontService,sans-serif" font-weight="400" font-size="18" x="111" y="5">𝒏𝒐𝒘</tspan><tspan x="147.327" y="0">を取得</tspan></text><rect x="292" y="378" width="263" height="43" stroke="#000000" stroke-width="4" stroke-miterlimit="8" fill="#FFFFFF"/><text font-family="Yu Gothic,Yu Gothic_MSFontService,sans-serif" font-weight="700" font-size="24" transform="translate(351.782 407)">データの送信</text><rect x="635" y="378" width="263" height="43" stroke="#000000" stroke-width="4" stroke-miterlimit="8" fill="#FFFFFF"/><text font-family="Yu Gothic,Yu Gothic_MSFontService,sans-serif" font-weight="700" font-size="24" transform="translate(694.268 407)">データの受信</text><path d="M555 398 624.571 398 624.571 402 555 402ZM622.571 394 634.571 400 622.571 406Z"/><path d="M635 476.5 678.833 445 854.167 445C878.375 445 898 459.103 898 476.5 898 493.897 878.375 508 854.167 508L678.833 508Z" stroke="#000000" stroke-width="4" stroke-miterlimit="8" fill="#FFFFFF" fill-rule="evenodd"/><text font-family="Yu Gothic,Yu Gothic_MSFontService,sans-serif" font-weight="700" font-size="24" transform="translate(694.268 470)">ディスプレイ<tspan x="36" y="29">に描画</tspan></text><rect x="635" y="531" width="263" height="44" stroke="#000000" stroke-width="4" stroke-miterlimit="8" fill="#FFFFFF"/><text font-family="Yu Gothic,Yu Gothic_MSFontService,sans-serif" font-weight="700" font-size="24" transform="translate(706.268 561)">完了を通知</text><rect x="292" y="531" width="263" height="44" stroke="#000000" stroke-width="4" stroke-miterlimit="8" fill="#FFFFFF"/><text font-family="Yu Gothic,Yu Gothic_MSFontService,sans-serif" font-weight="700" font-size="24" transform="translate(363.782 561)">通知の受信</text><path d="M2.63883e-06-2 69.5707-1.99991 69.5707 2.00009-2.63883e-06 2ZM67.5707-5.99991 79.5707 0.000104987 67.5707 6.00009Z" transform="matrix(-1 -8.74228e-08 -8.74228e-08 1 634.571 553)"/><path d="M0 166 0 0 244.591 0 244.591 140.061 249 140.061 242.516 157.353 236.032 140.061 240.441 140.061 240.441 4.15 4.15 4.15 4.15 166Z" stroke="#000000" stroke-width="6" stroke-miterlimit="8" fill-rule="evenodd" transform="matrix(-4.37114e-08 -1 -1 4.37114e-08 934 600)"/><path d="M292 644 423.5 598 555 644 423.5 690Z" stroke="#000000" stroke-width="4" stroke-miterlimit="8" fill="#FFFFFF" fill-rule="evenodd"/><text font-family="Cambria Math,Cambria Math_MSFontService,sans-serif" font-weight="400" font-size="24" transform="translate(374.12 637)">𝑻<tspan font-size="18" x="15" y="5">𝒏𝒐𝒘</tspan><tspan font-family="Yu Gothic,Yu Gothic_MSFontService,sans-serif" font-weight="700" x="51.3267" y="0">から</tspan><tspan x="-1.58664" y="29">𝑻</tspan><tspan font-size="18" x="13.4134" y="34">𝒘𝒂𝒊𝒕</tspan><tspan font-family="Yu Gothic,Yu Gothic_MSFontService,sans-serif" font-weight="700" x="52.9067" y="29">経過</tspan></text><path d="M286 644 250 644 250 256.215 270.342 256.215 270.342 250 284.125 257.244 270.342 264.488 270.342 258.274 252.06 258.274 252.06 641.94 286 641.94Z" stroke="#000000" stroke-width="6" stroke-miterlimit="8" fill-rule="evenodd"/><path d="M0 36 0 0 58.7855 0 58.7855 20.3422 65 20.3422 57.7557 34.1248 50.5115 20.3422 56.7259 20.3422 56.7259 2.05955 2.05954 2.05955 2.05954 36Z" stroke="#000000" stroke-width="6" stroke-miterlimit="8" fill-rule="evenodd" transform="matrix(-4.37114e-08 -1 -1 4.37114e-08 602 704)"/><path d="M0 0 138.331 1.51181" stroke="#000000" stroke-width="8" stroke-miterlimit="8" fill="none" fill-rule="evenodd" transform="matrix(-1 -8.74228e-08 -8.74228e-08 1 566.331 703)"/><rect x="216" y="575" width="68" height="43" fill="#FFFFFF"/><text font-family="Arial,Arial_MSFontService,sans-serif" font-weight="700" font-size="24" transform="translate(229.284 605)">Yes</text><rect x="485" y="690" width="59" height="30" fill="#FFFFFF"/><text font-family="Arial,Arial_MSFontService,sans-serif" font-weight="700" font-size="24" transform="translate(498.471 714)">No</text></g></svg>