<?xml version="1.0" encoding="utf-8" standalone="no"?>
<!DOCTYPE svg PUBLIC "-//W3C//DTD SVG 1.1//EN"
  "http://www.w3.org/Graphics/SVG/1.1/DTD/svg11.dtd">
<!-- Created with matplotlib (https://matplotlib.org/) -->
<svg height="537.05875pt" version="1.1" viewBox="0 0 1006.90375 537.05875" width="1006.90375pt" xmlns="http://www.w3.org/2000/svg" xmlns:xlink="http://www.w3.org/1999/xlink">
 <defs>
  <style type="text/css">
*{stroke-linecap:butt;stroke-linejoin:round;}
  </style>
 </defs>
 <g id="figure_1">
  <g id="patch_1">
   <path d="M 0 537.05875 
L 1006.90375 537.05875 
L 1006.90375 0 
L 0 0 
z
" style="fill:#ffffff;"/>
  </g>
  <g id="axes_1">
   <g id="patch_2">
    <path d="M 66.595625 498.96 
L 959.395625 498.96 
L 959.395625 0 
L 66.595625 0 
z
" style="fill:#ffffff;"/>
   </g>
   <g id="matplotlib.axis_1">
    <g id="xtick_1">
     <g id="line2d_1">
      <defs>
       <path d="M 0 0 
L 0 3.5 
" id="ma8ac8df809" style="stroke:#000000;stroke-width:0.8;"/>
      </defs>
      <g>
       <use style="stroke:#000000;stroke-width:0.8;" x="106.831227" xlink:href="#ma8ac8df809" y="498.96"/>
      </g>
     </g>
     <g id="text_1">
      <!-- 0 -->
      <defs>
       <path d="M 31.78125 66.40625 
Q 24.171875 66.40625 20.328125 58.90625 
Q 16.5 51.421875 16.5 36.375 
Q 16.5 21.390625 20.328125 13.890625 
Q 24.171875 6.390625 31.78125 6.390625 
Q 39.453125 6.390625 43.28125 13.890625 
Q 47.125 21.390625 47.125 36.375 
Q 47.125 51.421875 43.28125 58.90625 
Q 39.453125 66.40625 31.78125 66.40625 
z
M 31.78125 74.21875 
Q 44.046875 74.21875 50.515625 64.515625 
Q 56.984375 54.828125 56.984375 36.375 
Q 56.984375 17.96875 50.515625 8.265625 
Q 44.046875 -1.421875 31.78125 -1.421875 
Q 19.53125 -1.421875 13.0625 8.265625 
Q 6.59375 17.96875 6.59375 36.375 
Q 6.59375 54.828125 13.0625 64.515625 
Q 19.53125 74.21875 31.78125 74.21875 
z
" id="DejaVuSans-48"/>
      </defs>
      <g transform="translate(103.649977 513.558438)scale(0.1 -0.1)">
       <use xlink:href="#DejaVuSans-48"/>
      </g>
     </g>
    </g>
    <g id="xtick_2">
     <g id="line2d_2">
      <g>
       <use style="stroke:#000000;stroke-width:0.8;" x="269.526973" xlink:href="#ma8ac8df809" y="498.96"/>
      </g>
     </g>
     <g id="text_2">
      <!-- 1000 -->
      <defs>
       <path d="M 12.40625 8.296875 
L 28.515625 8.296875 
L 28.515625 63.921875 
L 10.984375 60.40625 
L 10.984375 69.390625 
L 28.421875 72.90625 
L 38.28125 72.90625 
L 38.28125 8.296875 
L 54.390625 8.296875 
L 54.390625 0 
L 12.40625 0 
z
" id="DejaVuSans-49"/>
      </defs>
      <g transform="translate(256.801973 513.558438)scale(0.1 -0.1)">
       <use xlink:href="#DejaVuSans-49"/>
       <use x="63.623047" xlink:href="#DejaVuSans-48"/>
       <use x="127.246094" xlink:href="#DejaVuSans-48"/>
       <use x="190.869141" xlink:href="#DejaVuSans-48"/>
      </g>
     </g>
    </g>
    <g id="xtick_3">
     <g id="line2d_3">
      <g>
       <use style="stroke:#000000;stroke-width:0.8;" x="432.222719" xlink:href="#ma8ac8df809" y="498.96"/>
      </g>
     </g>
     <g id="text_3">
      <!-- 2000 -->
      <defs>
       <path d="M 19.1875 8.296875 
L 53.609375 8.296875 
L 53.609375 0 
L 7.328125 0 
L 7.328125 8.296875 
Q 12.9375 14.109375 22.625 23.890625 
Q 32.328125 33.6875 34.8125 36.53125 
Q 39.546875 41.84375 41.421875 45.53125 
Q 43.3125 49.21875 43.3125 52.78125 
Q 43.3125 58.59375 39.234375 62.25 
Q 35.15625 65.921875 28.609375 65.921875 
Q 23.96875 65.921875 18.8125 64.3125 
Q 13.671875 62.703125 7.8125 59.421875 
L 7.8125 69.390625 
Q 13.765625 71.78125 18.9375 73 
Q 24.125 74.21875 28.421875 74.21875 
Q 39.75 74.21875 46.484375 68.546875 
Q 53.21875 62.890625 53.21875 53.421875 
Q 53.21875 48.921875 51.53125 44.890625 
Q 49.859375 40.875 45.40625 35.40625 
Q 44.1875 33.984375 37.640625 27.21875 
Q 31.109375 20.453125 19.1875 8.296875 
z
" id="DejaVuSans-50"/>
      </defs>
      <g transform="translate(419.497719 513.558438)scale(0.1 -0.1)">
       <use xlink:href="#DejaVuSans-50"/>
       <use x="63.623047" xlink:href="#DejaVuSans-48"/>
       <use x="127.246094" xlink:href="#DejaVuSans-48"/>
       <use x="190.869141" xlink:href="#DejaVuSans-48"/>
      </g>
     </g>
    </g>
    <g id="xtick_4">
     <g id="line2d_4">
      <g>
       <use style="stroke:#000000;stroke-width:0.8;" x="594.918465" xlink:href="#ma8ac8df809" y="498.96"/>
      </g>
     </g>
     <g id="text_4">
      <!-- 3000 -->
      <defs>
       <path d="M 40.578125 39.3125 
Q 47.65625 37.796875 51.625 33 
Q 55.609375 28.21875 55.609375 21.1875 
Q 55.609375 10.40625 48.1875 4.484375 
Q 40.765625 -1.421875 27.09375 -1.421875 
Q 22.515625 -1.421875 17.65625 -0.515625 
Q 12.796875 0.390625 7.625 2.203125 
L 7.625 11.71875 
Q 11.71875 9.328125 16.59375 8.109375 
Q 21.484375 6.890625 26.8125 6.890625 
Q 36.078125 6.890625 40.9375 10.546875 
Q 45.796875 14.203125 45.796875 21.1875 
Q 45.796875 27.640625 41.28125 31.265625 
Q 36.765625 34.90625 28.71875 34.90625 
L 20.21875 34.90625 
L 20.21875 43.015625 
L 29.109375 43.015625 
Q 36.375 43.015625 40.234375 45.921875 
Q 44.09375 48.828125 44.09375 54.296875 
Q 44.09375 59.90625 40.109375 62.90625 
Q 36.140625 65.921875 28.71875 65.921875 
Q 24.65625 65.921875 20.015625 65.03125 
Q 15.375 64.15625 9.8125 62.3125 
L 9.8125 71.09375 
Q 15.4375 72.65625 20.34375 73.4375 
Q 25.25 74.21875 29.59375 74.21875 
Q 40.828125 74.21875 47.359375 69.109375 
Q 53.90625 64.015625 53.90625 55.328125 
Q 53.90625 49.265625 50.4375 45.09375 
Q 46.96875 40.921875 40.578125 39.3125 
z
" id="DejaVuSans-51"/>
      </defs>
      <g transform="translate(582.193465 513.558438)scale(0.1 -0.1)">
       <use xlink:href="#DejaVuSans-51"/>
       <use x="63.623047" xlink:href="#DejaVuSans-48"/>
       <use x="127.246094" xlink:href="#DejaVuSans-48"/>
       <use x="190.869141" xlink:href="#DejaVuSans-48"/>
      </g>
     </g>
    </g>
    <g id="xtick_5">
     <g id="line2d_5">
      <g>
       <use style="stroke:#000000;stroke-width:0.8;" x="757.614211" xlink:href="#ma8ac8df809" y="498.96"/>
      </g>
     </g>
     <g id="text_5">
      <!-- 4000 -->
      <defs>
       <path d="M 37.796875 64.3125 
L 12.890625 25.390625 
L 37.796875 25.390625 
z
M 35.203125 72.90625 
L 47.609375 72.90625 
L 47.609375 25.390625 
L 58.015625 25.390625 
L 58.015625 17.1875 
L 47.609375 17.1875 
L 47.609375 0 
L 37.796875 0 
L 37.796875 17.1875 
L 4.890625 17.1875 
L 4.890625 26.703125 
z
" id="DejaVuSans-52"/>
      </defs>
      <g transform="translate(744.889211 513.558438)scale(0.1 -0.1)">
       <use xlink:href="#DejaVuSans-52"/>
       <use x="63.623047" xlink:href="#DejaVuSans-48"/>
       <use x="127.246094" xlink:href="#DejaVuSans-48"/>
       <use x="190.869141" xlink:href="#DejaVuSans-48"/>
      </g>
     </g>
    </g>
    <g id="xtick_6">
     <g id="line2d_6">
      <g>
       <use style="stroke:#000000;stroke-width:0.8;" x="920.309957" xlink:href="#ma8ac8df809" y="498.96"/>
      </g>
     </g>
     <g id="text_6">
      <!-- 5000 -->
      <defs>
       <path d="M 10.796875 72.90625 
L 49.515625 72.90625 
L 49.515625 64.59375 
L 19.828125 64.59375 
L 19.828125 46.734375 
Q 21.96875 47.46875 24.109375 47.828125 
Q 26.265625 48.1875 28.421875 48.1875 
Q 40.625 48.1875 47.75 41.5 
Q 54.890625 34.8125 54.890625 23.390625 
Q 54.890625 11.625 47.5625 5.09375 
Q 40.234375 -1.421875 26.90625 -1.421875 
Q 22.3125 -1.421875 17.546875 -0.640625 
Q 12.796875 0.140625 7.71875 1.703125 
L 7.71875 11.625 
Q 12.109375 9.234375 16.796875 8.0625 
Q 21.484375 6.890625 26.703125 6.890625 
Q 35.15625 6.890625 40.078125 11.328125 
Q 45.015625 15.765625 45.015625 23.390625 
Q 45.015625 31 40.078125 35.4375 
Q 35.15625 39.890625 26.703125 39.890625 
Q 22.75 39.890625 18.8125 39.015625 
Q 14.890625 38.140625 10.796875 36.28125 
z
" id="DejaVuSans-53"/>
      </defs>
      <g transform="translate(907.584957 513.558438)scale(0.1 -0.1)">
       <use xlink:href="#DejaVuSans-53"/>
       <use x="63.623047" xlink:href="#DejaVuSans-48"/>
       <use x="127.246094" xlink:href="#DejaVuSans-48"/>
       <use x="190.869141" xlink:href="#DejaVuSans-48"/>
      </g>
     </g>
    </g>
    <g id="text_7">
     <!-- Time [ms] -->
     <defs>
      <path d="M -0.296875 72.90625 
L 61.375 72.90625 
L 61.375 64.59375 
L 35.5 64.59375 
L 35.5 0 
L 25.59375 0 
L 25.59375 64.59375 
L -0.296875 64.59375 
z
" id="DejaVuSans-84"/>
      <path d="M 9.421875 54.6875 
L 18.40625 54.6875 
L 18.40625 0 
L 9.421875 0 
z
M 9.421875 75.984375 
L 18.40625 75.984375 
L 18.40625 64.59375 
L 9.421875 64.59375 
z
" id="DejaVuSans-105"/>
      <path d="M 52 44.1875 
Q 55.375 50.25 60.0625 53.125 
Q 64.75 56 71.09375 56 
Q 79.640625 56 84.28125 50.015625 
Q 88.921875 44.046875 88.921875 33.015625 
L 88.921875 0 
L 79.890625 0 
L 79.890625 32.71875 
Q 79.890625 40.578125 77.09375 44.375 
Q 74.3125 48.1875 68.609375 48.1875 
Q 61.625 48.1875 57.5625 43.546875 
Q 53.515625 38.921875 53.515625 30.90625 
L 53.515625 0 
L 44.484375 0 
L 44.484375 32.71875 
Q 44.484375 40.625 41.703125 44.40625 
Q 38.921875 48.1875 33.109375 48.1875 
Q 26.21875 48.1875 22.15625 43.53125 
Q 18.109375 38.875 18.109375 30.90625 
L 18.109375 0 
L 9.078125 0 
L 9.078125 54.6875 
L 18.109375 54.6875 
L 18.109375 46.1875 
Q 21.1875 51.21875 25.484375 53.609375 
Q 29.78125 56 35.6875 56 
Q 41.65625 56 45.828125 52.96875 
Q 50 49.953125 52 44.1875 
z
" id="DejaVuSans-109"/>
      <path d="M 56.203125 29.59375 
L 56.203125 25.203125 
L 14.890625 25.203125 
Q 15.484375 15.921875 20.484375 11.0625 
Q 25.484375 6.203125 34.421875 6.203125 
Q 39.59375 6.203125 44.453125 7.46875 
Q 49.3125 8.734375 54.109375 11.28125 
L 54.109375 2.78125 
Q 49.265625 0.734375 44.1875 -0.34375 
Q 39.109375 -1.421875 33.890625 -1.421875 
Q 20.796875 -1.421875 13.15625 6.1875 
Q 5.515625 13.8125 5.515625 26.8125 
Q 5.515625 40.234375 12.765625 48.109375 
Q 20.015625 56 32.328125 56 
Q 43.359375 56 49.78125 48.890625 
Q 56.203125 41.796875 56.203125 29.59375 
z
M 47.21875 32.234375 
Q 47.125 39.59375 43.09375 43.984375 
Q 39.0625 48.390625 32.421875 48.390625 
Q 24.90625 48.390625 20.390625 44.140625 
Q 15.875 39.890625 15.1875 32.171875 
z
" id="DejaVuSans-101"/>
      <path id="DejaVuSans-32"/>
      <path d="M 8.59375 75.984375 
L 29.296875 75.984375 
L 29.296875 69 
L 17.578125 69 
L 17.578125 -6.203125 
L 29.296875 -6.203125 
L 29.296875 -13.1875 
L 8.59375 -13.1875 
z
" id="DejaVuSans-91"/>
      <path d="M 44.28125 53.078125 
L 44.28125 44.578125 
Q 40.484375 46.53125 36.375 47.5 
Q 32.28125 48.484375 27.875 48.484375 
Q 21.1875 48.484375 17.84375 46.4375 
Q 14.5 44.390625 14.5 40.28125 
Q 14.5 37.15625 16.890625 35.375 
Q 19.28125 33.59375 26.515625 31.984375 
L 29.59375 31.296875 
Q 39.15625 29.25 43.1875 25.515625 
Q 47.21875 21.78125 47.21875 15.09375 
Q 47.21875 7.46875 41.1875 3.015625 
Q 35.15625 -1.421875 24.609375 -1.421875 
Q 20.21875 -1.421875 15.453125 -0.5625 
Q 10.6875 0.296875 5.421875 2 
L 5.421875 11.28125 
Q 10.40625 8.6875 15.234375 7.390625 
Q 20.0625 6.109375 24.8125 6.109375 
Q 31.15625 6.109375 34.5625 8.28125 
Q 37.984375 10.453125 37.984375 14.40625 
Q 37.984375 18.0625 35.515625 20.015625 
Q 33.0625 21.96875 24.703125 23.78125 
L 21.578125 24.515625 
Q 13.234375 26.265625 9.515625 29.90625 
Q 5.8125 33.546875 5.8125 39.890625 
Q 5.8125 47.609375 11.28125 51.796875 
Q 16.75 56 26.8125 56 
Q 31.78125 56 36.171875 55.265625 
Q 40.578125 54.546875 44.28125 53.078125 
z
" id="DejaVuSans-115"/>
      <path d="M 30.421875 75.984375 
L 30.421875 -13.1875 
L 9.71875 -13.1875 
L 9.71875 -6.203125 
L 21.390625 -6.203125 
L 21.390625 69 
L 9.71875 69 
L 9.71875 75.984375 
z
" id="DejaVuSans-93"/>
     </defs>
     <g transform="translate(467.637031 533.315313)scale(0.18 -0.18)">
      <use xlink:href="#DejaVuSans-84"/>
      <use x="57.958984" xlink:href="#DejaVuSans-105"/>
      <use x="85.742188" xlink:href="#DejaVuSans-109"/>
      <use x="183.154297" xlink:href="#DejaVuSans-101"/>
      <use x="244.677734" xlink:href="#DejaVuSans-32"/>
      <use x="276.464844" xlink:href="#DejaVuSans-91"/>
      <use x="315.478516" xlink:href="#DejaVuSans-109"/>
      <use x="412.890625" xlink:href="#DejaVuSans-115"/>
      <use x="464.990234" xlink:href="#DejaVuSans-93"/>
     </g>
    </g>
   </g>
   <g id="matplotlib.axis_2">
    <g id="ytick_1">
     <g id="line2d_7">
      <defs>
       <path d="M 0 0 
L -3.5 0 
" id="m90af9f8a3c" style="stroke:#000000;stroke-width:0.8;"/>
      </defs>
      <g>
       <use style="stroke:#000000;stroke-width:0.8;" x="66.595625" xlink:href="#m90af9f8a3c" y="498.62717"/>
      </g>
     </g>
     <g id="text_8">
      <!-- 125500 -->
      <g transform="translate(21.420625 502.426389)scale(0.1 -0.1)">
       <use xlink:href="#DejaVuSans-49"/>
       <use x="63.623047" xlink:href="#DejaVuSans-50"/>
       <use x="127.246094" xlink:href="#DejaVuSans-53"/>
       <use x="190.869141" xlink:href="#DejaVuSans-53"/>
       <use x="254.492188" xlink:href="#DejaVuSans-48"/>
       <use x="318.115234" xlink:href="#DejaVuSans-48"/>
      </g>
     </g>
    </g>
    <g id="ytick_2">
     <g id="line2d_8">
      <g>
       <use style="stroke:#000000;stroke-width:0.8;" x="66.595625" xlink:href="#m90af9f8a3c" y="419.381887"/>
      </g>
     </g>
     <g id="text_9">
      <!-- 126000 -->
      <defs>
       <path d="M 33.015625 40.375 
Q 26.375 40.375 22.484375 35.828125 
Q 18.609375 31.296875 18.609375 23.390625 
Q 18.609375 15.53125 22.484375 10.953125 
Q 26.375 6.390625 33.015625 6.390625 
Q 39.65625 6.390625 43.53125 10.953125 
Q 47.40625 15.53125 47.40625 23.390625 
Q 47.40625 31.296875 43.53125 35.828125 
Q 39.65625 40.375 33.015625 40.375 
z
M 52.59375 71.296875 
L 52.59375 62.3125 
Q 48.875 64.0625 45.09375 64.984375 
Q 41.3125 65.921875 37.59375 65.921875 
Q 27.828125 65.921875 22.671875 59.328125 
Q 17.53125 52.734375 16.796875 39.40625 
Q 19.671875 43.65625 24.015625 45.921875 
Q 28.375 48.1875 33.59375 48.1875 
Q 44.578125 48.1875 50.953125 41.515625 
Q 57.328125 34.859375 57.328125 23.390625 
Q 57.328125 12.15625 50.6875 5.359375 
Q 44.046875 -1.421875 33.015625 -1.421875 
Q 20.359375 -1.421875 13.671875 8.265625 
Q 6.984375 17.96875 6.984375 36.375 
Q 6.984375 53.65625 15.1875 63.9375 
Q 23.390625 74.21875 37.203125 74.21875 
Q 40.921875 74.21875 44.703125 73.484375 
Q 48.484375 72.75 52.59375 71.296875 
z
" id="DejaVuSans-54"/>
      </defs>
      <g transform="translate(21.420625 423.181106)scale(0.1 -0.1)">
       <use xlink:href="#DejaVuSans-49"/>
       <use x="63.623047" xlink:href="#DejaVuSans-50"/>
       <use x="127.246094" xlink:href="#DejaVuSans-54"/>
       <use x="190.869141" xlink:href="#DejaVuSans-48"/>
       <use x="254.492188" xlink:href="#DejaVuSans-48"/>
       <use x="318.115234" xlink:href="#DejaVuSans-48"/>
      </g>
     </g>
    </g>
    <g id="ytick_3">
     <g id="line2d_9">
      <g>
       <use style="stroke:#000000;stroke-width:0.8;" x="66.595625" xlink:href="#m90af9f8a3c" y="340.136604"/>
      </g>
     </g>
     <g id="text_10">
      <!-- 126500 -->
      <g transform="translate(21.420625 343.935823)scale(0.1 -0.1)">
       <use xlink:href="#DejaVuSans-49"/>
       <use x="63.623047" xlink:href="#DejaVuSans-50"/>
       <use x="127.246094" xlink:href="#DejaVuSans-54"/>
       <use x="190.869141" xlink:href="#DejaVuSans-53"/>
       <use x="254.492188" xlink:href="#DejaVuSans-48"/>
       <use x="318.115234" xlink:href="#DejaVuSans-48"/>
      </g>
     </g>
    </g>
    <g id="ytick_4">
     <g id="line2d_10">
      <g>
       <use style="stroke:#000000;stroke-width:0.8;" x="66.595625" xlink:href="#m90af9f8a3c" y="260.891321"/>
      </g>
     </g>
     <g id="text_11">
      <!-- 127000 -->
      <defs>
       <path d="M 8.203125 72.90625 
L 55.078125 72.90625 
L 55.078125 68.703125 
L 28.609375 0 
L 18.3125 0 
L 43.21875 64.59375 
L 8.203125 64.59375 
z
" id="DejaVuSans-55"/>
      </defs>
      <g transform="translate(21.420625 264.69054)scale(0.1 -0.1)">
       <use xlink:href="#DejaVuSans-49"/>
       <use x="63.623047" xlink:href="#DejaVuSans-50"/>
       <use x="127.246094" xlink:href="#DejaVuSans-55"/>
       <use x="190.869141" xlink:href="#DejaVuSans-48"/>
       <use x="254.492188" xlink:href="#DejaVuSans-48"/>
       <use x="318.115234" xlink:href="#DejaVuSans-48"/>
      </g>
     </g>
    </g>
    <g id="ytick_5">
     <g id="line2d_11">
      <g>
       <use style="stroke:#000000;stroke-width:0.8;" x="66.595625" xlink:href="#m90af9f8a3c" y="181.646038"/>
      </g>
     </g>
     <g id="text_12">
      <!-- 127500 -->
      <g transform="translate(21.420625 185.445256)scale(0.1 -0.1)">
       <use xlink:href="#DejaVuSans-49"/>
       <use x="63.623047" xlink:href="#DejaVuSans-50"/>
       <use x="127.246094" xlink:href="#DejaVuSans-55"/>
       <use x="190.869141" xlink:href="#DejaVuSans-53"/>
       <use x="254.492188" xlink:href="#DejaVuSans-48"/>
       <use x="318.115234" xlink:href="#DejaVuSans-48"/>
      </g>
     </g>
    </g>
    <g id="ytick_6">
     <g id="line2d_12">
      <g>
       <use style="stroke:#000000;stroke-width:0.8;" x="66.595625" xlink:href="#m90af9f8a3c" y="102.400755"/>
      </g>
     </g>
     <g id="text_13">
      <!-- 128000 -->
      <defs>
       <path d="M 31.78125 34.625 
Q 24.75 34.625 20.71875 30.859375 
Q 16.703125 27.09375 16.703125 20.515625 
Q 16.703125 13.921875 20.71875 10.15625 
Q 24.75 6.390625 31.78125 6.390625 
Q 38.8125 6.390625 42.859375 10.171875 
Q 46.921875 13.96875 46.921875 20.515625 
Q 46.921875 27.09375 42.890625 30.859375 
Q 38.875 34.625 31.78125 34.625 
z
M 21.921875 38.8125 
Q 15.578125 40.375 12.03125 44.71875 
Q 8.5 49.078125 8.5 55.328125 
Q 8.5 64.0625 14.71875 69.140625 
Q 20.953125 74.21875 31.78125 74.21875 
Q 42.671875 74.21875 48.875 69.140625 
Q 55.078125 64.0625 55.078125 55.328125 
Q 55.078125 49.078125 51.53125 44.71875 
Q 48 40.375 41.703125 38.8125 
Q 48.828125 37.15625 52.796875 32.3125 
Q 56.78125 27.484375 56.78125 20.515625 
Q 56.78125 9.90625 50.3125 4.234375 
Q 43.84375 -1.421875 31.78125 -1.421875 
Q 19.734375 -1.421875 13.25 4.234375 
Q 6.78125 9.90625 6.78125 20.515625 
Q 6.78125 27.484375 10.78125 32.3125 
Q 14.796875 37.15625 21.921875 38.8125 
z
M 18.3125 54.390625 
Q 18.3125 48.734375 21.84375 45.5625 
Q 25.390625 42.390625 31.78125 42.390625 
Q 38.140625 42.390625 41.71875 45.5625 
Q 45.3125 48.734375 45.3125 54.390625 
Q 45.3125 60.0625 41.71875 63.234375 
Q 38.140625 66.40625 31.78125 66.40625 
Q 25.390625 66.40625 21.84375 63.234375 
Q 18.3125 60.0625 18.3125 54.390625 
z
" id="DejaVuSans-56"/>
      </defs>
      <g transform="translate(21.420625 106.199973)scale(0.1 -0.1)">
       <use xlink:href="#DejaVuSans-49"/>
       <use x="63.623047" xlink:href="#DejaVuSans-50"/>
       <use x="127.246094" xlink:href="#DejaVuSans-56"/>
       <use x="190.869141" xlink:href="#DejaVuSans-48"/>
       <use x="254.492188" xlink:href="#DejaVuSans-48"/>
       <use x="318.115234" xlink:href="#DejaVuSans-48"/>
      </g>
     </g>
    </g>
    <g id="ytick_7">
     <g id="line2d_13">
      <g>
       <use style="stroke:#000000;stroke-width:0.8;" x="66.595625" xlink:href="#m90af9f8a3c" y="23.155472"/>
      </g>
     </g>
     <g id="text_14">
      <!-- 128500 -->
      <g transform="translate(21.420625 26.95469)scale(0.1 -0.1)">
       <use xlink:href="#DejaVuSans-49"/>
       <use x="63.623047" xlink:href="#DejaVuSans-50"/>
       <use x="127.246094" xlink:href="#DejaVuSans-56"/>
       <use x="190.869141" xlink:href="#DejaVuSans-53"/>
       <use x="254.492188" xlink:href="#DejaVuSans-48"/>
       <use x="318.115234" xlink:href="#DejaVuSans-48"/>
      </g>
     </g>
    </g>
    <g id="text_15">
     <!-- Raw pulse value -->
     <defs>
      <path d="M 44.390625 34.1875 
Q 47.5625 33.109375 50.5625 29.59375 
Q 53.5625 26.078125 56.59375 19.921875 
L 66.609375 0 
L 56 0 
L 46.6875 18.703125 
Q 43.0625 26.03125 39.671875 28.421875 
Q 36.28125 30.8125 30.421875 30.8125 
L 19.671875 30.8125 
L 19.671875 0 
L 9.8125 0 
L 9.8125 72.90625 
L 32.078125 72.90625 
Q 44.578125 72.90625 50.734375 67.671875 
Q 56.890625 62.453125 56.890625 51.90625 
Q 56.890625 45.015625 53.6875 40.46875 
Q 50.484375 35.9375 44.390625 34.1875 
z
M 19.671875 64.796875 
L 19.671875 38.921875 
L 32.078125 38.921875 
Q 39.203125 38.921875 42.84375 42.21875 
Q 46.484375 45.515625 46.484375 51.90625 
Q 46.484375 58.296875 42.84375 61.546875 
Q 39.203125 64.796875 32.078125 64.796875 
z
" id="DejaVuSans-82"/>
      <path d="M 34.28125 27.484375 
Q 23.390625 27.484375 19.1875 25 
Q 14.984375 22.515625 14.984375 16.5 
Q 14.984375 11.71875 18.140625 8.90625 
Q 21.296875 6.109375 26.703125 6.109375 
Q 34.1875 6.109375 38.703125 11.40625 
Q 43.21875 16.703125 43.21875 25.484375 
L 43.21875 27.484375 
z
M 52.203125 31.203125 
L 52.203125 0 
L 43.21875 0 
L 43.21875 8.296875 
Q 40.140625 3.328125 35.546875 0.953125 
Q 30.953125 -1.421875 24.3125 -1.421875 
Q 15.921875 -1.421875 10.953125 3.296875 
Q 6 8.015625 6 15.921875 
Q 6 25.140625 12.171875 29.828125 
Q 18.359375 34.515625 30.609375 34.515625 
L 43.21875 34.515625 
L 43.21875 35.40625 
Q 43.21875 41.609375 39.140625 45 
Q 35.0625 48.390625 27.6875 48.390625 
Q 23 48.390625 18.546875 47.265625 
Q 14.109375 46.140625 10.015625 43.890625 
L 10.015625 52.203125 
Q 14.9375 54.109375 19.578125 55.046875 
Q 24.21875 56 28.609375 56 
Q 40.484375 56 46.34375 49.84375 
Q 52.203125 43.703125 52.203125 31.203125 
z
" id="DejaVuSans-97"/>
      <path d="M 4.203125 54.6875 
L 13.1875 54.6875 
L 24.421875 12.015625 
L 35.59375 54.6875 
L 46.1875 54.6875 
L 57.421875 12.015625 
L 68.609375 54.6875 
L 77.59375 54.6875 
L 63.28125 0 
L 52.6875 0 
L 40.921875 44.828125 
L 29.109375 0 
L 18.5 0 
z
" id="DejaVuSans-119"/>
      <path d="M 18.109375 8.203125 
L 18.109375 -20.796875 
L 9.078125 -20.796875 
L 9.078125 54.6875 
L 18.109375 54.6875 
L 18.109375 46.390625 
Q 20.953125 51.265625 25.265625 53.625 
Q 29.59375 56 35.59375 56 
Q 45.5625 56 51.78125 48.09375 
Q 58.015625 40.1875 58.015625 27.296875 
Q 58.015625 14.40625 51.78125 6.484375 
Q 45.5625 -1.421875 35.59375 -1.421875 
Q 29.59375 -1.421875 25.265625 0.953125 
Q 20.953125 3.328125 18.109375 8.203125 
z
M 48.6875 27.296875 
Q 48.6875 37.203125 44.609375 42.84375 
Q 40.53125 48.484375 33.40625 48.484375 
Q 26.265625 48.484375 22.1875 42.84375 
Q 18.109375 37.203125 18.109375 27.296875 
Q 18.109375 17.390625 22.1875 11.75 
Q 26.265625 6.109375 33.40625 6.109375 
Q 40.53125 6.109375 44.609375 11.75 
Q 48.6875 17.390625 48.6875 27.296875 
z
" id="DejaVuSans-112"/>
      <path d="M 8.5 21.578125 
L 8.5 54.6875 
L 17.484375 54.6875 
L 17.484375 21.921875 
Q 17.484375 14.15625 20.5 10.265625 
Q 23.53125 6.390625 29.59375 6.390625 
Q 36.859375 6.390625 41.078125 11.03125 
Q 45.3125 15.671875 45.3125 23.6875 
L 45.3125 54.6875 
L 54.296875 54.6875 
L 54.296875 0 
L 45.3125 0 
L 45.3125 8.40625 
Q 42.046875 3.421875 37.71875 1 
Q 33.40625 -1.421875 27.6875 -1.421875 
Q 18.265625 -1.421875 13.375 4.4375 
Q 8.5 10.296875 8.5 21.578125 
z
M 31.109375 56 
z
" id="DejaVuSans-117"/>
      <path d="M 9.421875 75.984375 
L 18.40625 75.984375 
L 18.40625 0 
L 9.421875 0 
z
" id="DejaVuSans-108"/>
      <path d="M 2.984375 54.6875 
L 12.5 54.6875 
L 29.59375 8.796875 
L 46.6875 54.6875 
L 56.203125 54.6875 
L 35.6875 0 
L 23.484375 0 
z
" id="DejaVuSans-118"/>
     </defs>
     <g transform="translate(13.677188 322.855313)rotate(-90)scale(0.18 -0.18)">
      <use xlink:href="#DejaVuSans-82"/>
      <use x="67.232422" xlink:href="#DejaVuSans-97"/>
      <use x="128.511719" xlink:href="#DejaVuSans-119"/>
      <use x="210.298828" xlink:href="#DejaVuSans-32"/>
      <use x="242.085938" xlink:href="#DejaVuSans-112"/>
      <use x="305.5625" xlink:href="#DejaVuSans-117"/>
      <use x="368.941406" xlink:href="#DejaVuSans-108"/>
      <use x="396.724609" xlink:href="#DejaVuSans-115"/>
      <use x="448.824219" xlink:href="#DejaVuSans-101"/>
      <use x="510.347656" xlink:href="#DejaVuSans-32"/>
      <use x="542.134766" xlink:href="#DejaVuSans-118"/>
      <use x="601.314453" xlink:href="#DejaVuSans-97"/>
      <use x="662.59375" xlink:href="#DejaVuSans-108"/>
      <use x="690.376953" xlink:href="#DejaVuSans-117"/>
      <use x="753.755859" xlink:href="#DejaVuSans-101"/>
     </g>
    </g>
   </g>
   <g id="line2d_14">
    <path clip-path="url(#p1ff05ef0ac)" d="M 109.077079 156.129057 
L 109.40247 171.02717 
L 109.727862 165.321509 
L 117.374562 162.468679 
L 117.862649 157.08 
L 118.18804 165.321509 
L 118.350736 125.381887 
L 124.858566 161.834717 
L 125.509349 143.766792 
L 125.997436 171.661132 
L 133.969528 158.981887 
L 134.457615 160.566792 
L 134.620311 161.834717 
L 141.453532 175.781887 
L 141.941619 154.861132 
L 142.267011 131.721509 
L 142.592402 164.053585 
L 153.981105 157.08 
L 154.631888 155.495094 
L 154.957279 166.589434 
L 157.560411 184.023396 
L 158.211194 185.608302 
L 158.699281 181.487547 
L 165.369807 189.095094 
L 165.857894 173.563019 
L 166.345981 207.163019 
L 173.016507 202.408302 
L 173.829986 219.208302 
L 180.663207 212.234717 
L 181.31399 207.796981 
L 181.476686 202.408302 
L 188.635299 216.355472 
L 189.286082 215.721509 
L 189.611473 242.981887 
L 189.774169 219.208302 
L 197.583565 236.642264 
L 198.071652 211.283774 
L 198.397043 229.668679 
L 204.742177 210.015849 
L 205.39296 220.476226 
L 205.718352 219.208302 
L 211.90079 225.547925 
L 212.551573 219.208302 
L 213.03966 264.536604 
L 221.011752 251.223396 
L 221.499839 278.483774 
L 221.825231 251.857358 
L 229.146539 269.291321 
L 229.797322 294.649811 
L 230.28541 307.963019 
L 236.305152 314.936604 
L 236.955935 319.057358 
L 237.281327 324.446038 
L 237.444022 321.910189 
L 243.789156 337.125283 
L 244.439939 323.812075 
L 244.765331 305.744151 
L 252.412031 326.664906 
L 253.062814 351.072453 
L 253.388205 340.612075 
L 260.709514 326.030943 
L 261.197601 309.864906 
L 261.522993 335.223396 
L 267.38004 321.910189 
L 267.868127 312.083774 
L 268.030823 328.249811 
L 275.514827 336.491321 
L 275.840218 329.517736 
L 276.002914 342.830943 
L 283.81231 335.857358 
L 284.463093 332.370566 
L 284.788484 351.072453 
L 285.276572 337.759245 
L 291.621706 312.717736 
L 292.59788 353.925283 
L 299.593797 358.68 
L 300.081885 357.412075 
L 300.569972 367.238491 
L 307.077802 342.830943 
L 307.565889 354.559245 
L 308.053976 345.683774 
L 308.216672 331.736604 
L 315.700676 360.264906 
L 316.351459 351.072453 
L 316.514155 361.53283 
L 323.021985 359.630943 
L 323.510072 355.193208 
L 323.835464 349.170566 
L 331.644859 381.18566 
L 332.295642 373.578113 
L 332.621034 374.212075 
L 332.946425 397.351698 
L 338.966168 410.664906 
L 339.779647 428.098868 
L 348.239825 427.147925 
L 349.053304 455.993208 
L 355.073047 460.747925 
L 355.72383 443.947925 
L 355.886525 462.33283 
L 356.211917 458.846038 
L 363.858617 450.287547 
L 364.346704 453.140377 
L 364.834792 462.33283 
L 370.529143 466.453585 
L 371.01723 450.921509 
L 371.505317 463.600755 
L 379.640104 470.57434 
L 380.128192 458.846038 
L 380.453583 470.57434 
L 380.616279 467.087547 
L 386.961413 476.28 
L 387.4495 472.159245 
L 387.937587 464.868679 
L 395.584288 469.306415 
L 396.072375 463.600755 
L 396.397766 449.019623 
L 402.417509 475.646038 
L 403.068292 476.28 
L 403.393683 476.28 
L 403.556379 460.747925 
L 411.365775 462.33283 
L 412.016558 457.895094 
L 412.341949 437.925283 
L 418.361692 452.506415 
L 418.849779 457.895094 
L 419.012475 442.046038 
L 426.984567 431.58566 
L 427.472654 409.08 
L 427.635349 429.366792 
L 427.960741 440.461132 
L 435.119354 405.593208 
L 435.770137 392.28 
L 442.92875 407.178113 
L 443.579533 394.498868 
L 444.06762 400.204528 
L 450.412754 415.419623 
L 450.900841 425.246038 
L 451.388928 415.419623 
L 451.551624 418.906415 
L 459.035628 442.68 
L 459.686411 443.947925 
L 459.849107 449.653585 
L 465.706154 442.046038 
L 466.194241 455.359245 
L 466.356937 439.193208 
L 475.79329 463.600755 
L 476.281378 446.166792 
L 476.444073 457.261132 
L 476.769465 458.846038 
L 481.813033 425.246038 
L 482.30112 410.664906 
L 482.626512 439.193208 
L 490.110516 430.634717 
L 490.761299 411.298868 
L 491.08669 414.78566 
L 497.269129 405.593208 
L 497.59452 403.691321 
L 497.757216 395.13283 
L 498.082608 365.970566 
L 506.054699 375.48 
L 506.542786 374.846038 
L 506.705482 354.559245 
L 513.701399 339.978113 
L 514.189486 342.196981 
L 514.677574 323.812075 
L 522.486969 316.204528 
L 522.975057 315.570566 
L 523.463144 288.944151 
L 523.788535 305.744151 
L 529.482887 288.944151 
L 529.970974 274.363019 
L 530.133669 279.117736 
L 537.617674 254.710189 
L 538.268457 242.981887 
L 538.431153 224.596981 
L 545.42707 223.329057 
L 545.915157 195.434717 
L 546.240548 210.015849 
L 546.403244 202.408302 
L 553.399161 188.461132 
L 553.887248 189.729057 
L 554.21264 191.313962 
L 560.883166 219.208302 
L 561.208557 198.287547 
L 561.533948 196.068679 
L 568.529866 186.876226 
L 569.343344 216.355472 
L 569.50604 215.721509 
L 576.990044 223.963019 
L 577.478132 222.695094 
L 577.803523 241.396981 
L 584.962136 234.423396 
L 585.450223 216.989434 
L 585.775615 214.770566 
L 592.771532 238.544151 
L 593.096923 236.008302 
L 593.422315 234.423396 
L 593.58501 218.257358 
L 600.743623 238.544151 
L 601.394406 214.136604 
L 601.719798 226.181887 
L 608.878411 219.208302 
L 609.366498 206.529057 
L 609.691889 205.261132 
L 617.175894 207.163019 
L 617.663981 205.895094 
L 617.826677 194.800755 
L 618.152068 190.363019 
L 624.497202 196.068679 
L 624.985289 193.215849 
L 625.310681 177.049811 
L 633.282772 184.023396 
L 633.77086 178.634717 
L 634.096251 160.566792 
L 640.766777 145.668679 
L 641.41756 140.28 
L 641.905647 138.061132 
L 642.068343 132.355472 
L 648.576173 120.62717 
L 649.226956 100.340377 
L 649.552347 99.072453 
L 656.385568 124.113962 
L 657.199047 89.88 
L 663.869573 84.17434 
L 664.520356 93.366792 
L 664.845747 78.151698 
L 665.008443 89.88 
L 672.817839 59.766792 
L 673.305926 76.566792 
L 673.631318 69.593208 
L 679.976452 96.853585 
L 680.464539 98.121509 
L 680.78993 103.193208 
L 688.762022 115.872453 
L 689.250109 120.62717 
L 689.575501 135.208302 
L 689.900892 142.815849 
L 696.08333 154.861132 
L 696.408722 156.129057 
L 696.896809 181.487547 
L 705.194292 184.97434 
L 705.845075 200.189434 
L 711.376731 182.755472 
L 711.864818 184.97434 
L 712.352905 207.163019 
L 720.487692 212.234717 
L 721.463867 229.668679 
L 727.483609 229.034717 
L 728.134392 222.695094 
L 728.459784 214.770566 
L 736.431875 234.423396 
L 736.919963 210.649811 
L 737.40805 223.329057 
L 737.733441 227.449811 
L 743.265097 217.623396 
L 743.91588 225.547925 
L 744.078576 220.476226 
L 752.376059 231.570566 
L 752.864146 221.110189 
L 753.189537 222.061132 
L 759.371976 219.208302 
L 759.860063 220.476226 
L 760.185454 225.547925 
L 760.34815 214.770566 
L 768.482937 219.842264 
L 769.296416 191.313962 
L 775.153463 196.068679 
L 775.804246 189.095094 
L 775.966942 193.849811 
L 783.776338 203.042264 
L 784.427121 182.755472 
L 784.752512 176.415849 
L 785.077904 187.82717 
L 791.097646 166.589434 
L 791.585733 161.200755 
L 791.911125 161.200755 
L 799.720521 166.589434 
L 800.208608 165.321509 
L 800.533999 147.887547 
L 806.716438 166.589434 
L 807.041829 160.566792 
L 807.529917 184.97434 
L 815.664704 179.902642 
L 816.315487 211.283774 
L 822.009838 240.763019 
L 822.497925 240.129057 
L 822.823317 213.502642 
L 831.1208 249.004528 
L 831.608887 244.883774 
L 831.934278 255.344151 
L 832.25967 256.295094 
L 838.442108 242.981887 
L 839.092891 230.302642 
L 839.418283 261.049811 
L 846.4142 248.370566 
L 846.739591 238.544151 
L 846.902287 242.981887 
L 854.386291 236.642264 
L 854.711683 240.129057 
L 854.874379 236.008302 
L 855.037074 227.449811 
L 862.683774 209.381887 
L 863.171862 216.355472 
L 863.334557 237.910189 
L 870.330474 200.823396 
L 870.981257 203.676226 
L 871.143953 188.461132 
L 878.465262 198.287547 
L 878.953349 189.729057 
L 879.278741 164.687547 
L 879.441436 174.513962 
L 885.461179 163.102642 
L 885.949266 159.615849 
L 886.274658 158.981887 
L 897.012577 133.940377 
L 897.500664 141.547925 
L 897.66336 113.653585 
L 901.242666 115.872453 
L 901.730753 126.33283 
L 902.218841 83.540377 
L 902.544232 78.78566 
L 910.190932 78.78566 
L 910.516324 61.351698 
L 910.67902 79.419623 
L 918.000328 48.672453 
L 918.651111 22.68 
L 918.813807 30.604528 
L 918.813807 30.604528 
" style="fill:none;stroke:#ff0000;stroke-linecap:square;stroke-width:1.5;"/>
   </g>
   <g id="patch_3">
    <path d="M 66.595625 498.96 
L 66.595625 0 
" style="fill:none;stroke:#000000;stroke-linecap:square;stroke-linejoin:miter;stroke-width:0.8;"/>
   </g>
   <g id="patch_4">
    <path d="M 959.395625 498.96 
L 959.395625 0 
" style="fill:none;stroke:#000000;stroke-linecap:square;stroke-linejoin:miter;stroke-width:0.8;"/>
   </g>
   <g id="patch_5">
    <path d="M 66.595625 498.96 
L 959.395625 498.96 
" style="fill:none;stroke:#000000;stroke-linecap:square;stroke-linejoin:miter;stroke-width:0.8;"/>
   </g>
   <g id="patch_6">
    <path d="M 66.595625 0 
L 959.395625 0 
" style="fill:none;stroke:#000000;stroke-linecap:square;stroke-linejoin:miter;stroke-width:0.8;"/>
   </g>
   <g id="legend_1">
    <g id="patch_7">
     <path d="M 715.459063 67.24125 
L 946.795625 67.24125 
Q 950.395625 67.24125 950.395625 63.64125 
L 950.395625 12.6 
Q 950.395625 9 946.795625 9 
L 715.459063 9 
Q 711.859063 9 711.859063 12.6 
L 711.859063 63.64125 
Q 711.859063 67.24125 715.459063 67.24125 
z
" style="fill:#ffffff;opacity:0.8;stroke:#cccccc;stroke-linejoin:miter;"/>
    </g>
    <g id="line2d_15">
     <path d="M 719.059063 23.577188 
L 755.059063 23.577188 
" style="fill:none;stroke:#ff0000;stroke-linecap:square;stroke-width:1.5;"/>
    </g>
    <g id="line2d_16"/>
    <g id="text_16">
     <!-- Raw pulse value -->
     <g transform="translate(769.459063 29.877188)scale(0.18 -0.18)">
      <use xlink:href="#DejaVuSans-82"/>
      <use x="67.232422" xlink:href="#DejaVuSans-97"/>
      <use x="128.511719" xlink:href="#DejaVuSans-119"/>
      <use x="210.298828" xlink:href="#DejaVuSans-32"/>
      <use x="242.085938" xlink:href="#DejaVuSans-112"/>
      <use x="305.5625" xlink:href="#DejaVuSans-117"/>
      <use x="368.941406" xlink:href="#DejaVuSans-108"/>
      <use x="396.724609" xlink:href="#DejaVuSans-115"/>
      <use x="448.824219" xlink:href="#DejaVuSans-101"/>
      <use x="510.347656" xlink:href="#DejaVuSans-32"/>
      <use x="542.134766" xlink:href="#DejaVuSans-118"/>
      <use x="601.314453" xlink:href="#DejaVuSans-97"/>
      <use x="662.59375" xlink:href="#DejaVuSans-108"/>
      <use x="690.376953" xlink:href="#DejaVuSans-117"/>
      <use x="753.755859" xlink:href="#DejaVuSans-101"/>
     </g>
    </g>
    <g id="line2d_17">
     <path d="M 719.059063 49.997813 
L 755.059063 49.997813 
" style="fill:none;stroke:#0000ff;stroke-dasharray:5.55,2.4;stroke-dashoffset:0;stroke-width:1.5;"/>
    </g>
    <g id="line2d_18"/>
    <g id="text_17">
     <!-- Pseudo pulse value -->
     <defs>
      <path d="M 19.671875 64.796875 
L 19.671875 37.40625 
L 32.078125 37.40625 
Q 38.96875 37.40625 42.71875 40.96875 
Q 46.484375 44.53125 46.484375 51.125 
Q 46.484375 57.671875 42.71875 61.234375 
Q 38.96875 64.796875 32.078125 64.796875 
z
M 9.8125 72.90625 
L 32.078125 72.90625 
Q 44.34375 72.90625 50.609375 67.359375 
Q 56.890625 61.8125 56.890625 51.125 
Q 56.890625 40.328125 50.609375 34.8125 
Q 44.34375 29.296875 32.078125 29.296875 
L 19.671875 29.296875 
L 19.671875 0 
L 9.8125 0 
z
" id="DejaVuSans-80"/>
      <path d="M 45.40625 46.390625 
L 45.40625 75.984375 
L 54.390625 75.984375 
L 54.390625 0 
L 45.40625 0 
L 45.40625 8.203125 
Q 42.578125 3.328125 38.25 0.953125 
Q 33.9375 -1.421875 27.875 -1.421875 
Q 17.96875 -1.421875 11.734375 6.484375 
Q 5.515625 14.40625 5.515625 27.296875 
Q 5.515625 40.1875 11.734375 48.09375 
Q 17.96875 56 27.875 56 
Q 33.9375 56 38.25 53.625 
Q 42.578125 51.265625 45.40625 46.390625 
z
M 14.796875 27.296875 
Q 14.796875 17.390625 18.875 11.75 
Q 22.953125 6.109375 30.078125 6.109375 
Q 37.203125 6.109375 41.296875 11.75 
Q 45.40625 17.390625 45.40625 27.296875 
Q 45.40625 37.203125 41.296875 42.84375 
Q 37.203125 48.484375 30.078125 48.484375 
Q 22.953125 48.484375 18.875 42.84375 
Q 14.796875 37.203125 14.796875 27.296875 
z
" id="DejaVuSans-100"/>
      <path d="M 30.609375 48.390625 
Q 23.390625 48.390625 19.1875 42.75 
Q 14.984375 37.109375 14.984375 27.296875 
Q 14.984375 17.484375 19.15625 11.84375 
Q 23.34375 6.203125 30.609375 6.203125 
Q 37.796875 6.203125 41.984375 11.859375 
Q 46.1875 17.53125 46.1875 27.296875 
Q 46.1875 37.015625 41.984375 42.703125 
Q 37.796875 48.390625 30.609375 48.390625 
z
M 30.609375 56 
Q 42.328125 56 49.015625 48.375 
Q 55.71875 40.765625 55.71875 27.296875 
Q 55.71875 13.875 49.015625 6.21875 
Q 42.328125 -1.421875 30.609375 -1.421875 
Q 18.84375 -1.421875 12.171875 6.21875 
Q 5.515625 13.875 5.515625 27.296875 
Q 5.515625 40.765625 12.171875 48.375 
Q 18.84375 56 30.609375 56 
z
" id="DejaVuSans-111"/>
     </defs>
     <g transform="translate(769.459063 56.297813)scale(0.18 -0.18)">
      <use xlink:href="#DejaVuSans-80"/>
      <use x="58.552734" xlink:href="#DejaVuSans-115"/>
      <use x="110.652344" xlink:href="#DejaVuSans-101"/>
      <use x="172.175781" xlink:href="#DejaVuSans-117"/>
      <use x="235.554688" xlink:href="#DejaVuSans-100"/>
      <use x="299.03125" xlink:href="#DejaVuSans-111"/>
      <use x="360.212891" xlink:href="#DejaVuSans-32"/>
      <use x="392" xlink:href="#DejaVuSans-112"/>
      <use x="455.476562" xlink:href="#DejaVuSans-117"/>
      <use x="518.855469" xlink:href="#DejaVuSans-108"/>
      <use x="546.638672" xlink:href="#DejaVuSans-115"/>
      <use x="598.738281" xlink:href="#DejaVuSans-101"/>
      <use x="660.261719" xlink:href="#DejaVuSans-32"/>
      <use x="692.048828" xlink:href="#DejaVuSans-118"/>
      <use x="751.228516" xlink:href="#DejaVuSans-97"/>
      <use x="812.507812" xlink:href="#DejaVuSans-108"/>
      <use x="840.291016" xlink:href="#DejaVuSans-117"/>
      <use x="903.669922" xlink:href="#DejaVuSans-101"/>
     </g>
    </g>
   </g>
  </g>
  <g id="axes_2">
   <g id="matplotlib.axis_3">
    <g id="ytick_8">
     <g id="line2d_19">
      <defs>
       <path d="M 0 0 
L 3.5 0 
" id="m0554508277" style="stroke:#000000;stroke-width:0.8;"/>
      </defs>
      <g>
       <use style="stroke:#000000;stroke-width:0.8;" x="959.395625" xlink:href="#m0554508277" y="410.13"/>
      </g>
     </g>
     <g id="text_18">
      <!-- 280 -->
      <g transform="translate(966.395625 413.929219)scale(0.1 -0.1)">
       <use xlink:href="#DejaVuSans-50"/>
       <use x="63.623047" xlink:href="#DejaVuSans-56"/>
       <use x="127.246094" xlink:href="#DejaVuSans-48"/>
      </g>
     </g>
    </g>
    <g id="ytick_9">
     <g id="line2d_20">
      <g>
       <use style="stroke:#000000;stroke-width:0.8;" x="959.395625" xlink:href="#m0554508277" y="315.63"/>
      </g>
     </g>
     <g id="text_19">
      <!-- 290 -->
      <defs>
       <path d="M 10.984375 1.515625 
L 10.984375 10.5 
Q 14.703125 8.734375 18.5 7.8125 
Q 22.3125 6.890625 25.984375 6.890625 
Q 35.75 6.890625 40.890625 13.453125 
Q 46.046875 20.015625 46.78125 33.40625 
Q 43.953125 29.203125 39.59375 26.953125 
Q 35.25 24.703125 29.984375 24.703125 
Q 19.046875 24.703125 12.671875 31.3125 
Q 6.296875 37.9375 6.296875 49.421875 
Q 6.296875 60.640625 12.9375 67.421875 
Q 19.578125 74.21875 30.609375 74.21875 
Q 43.265625 74.21875 49.921875 64.515625 
Q 56.59375 54.828125 56.59375 36.375 
Q 56.59375 19.140625 48.40625 8.859375 
Q 40.234375 -1.421875 26.421875 -1.421875 
Q 22.703125 -1.421875 18.890625 -0.6875 
Q 15.09375 0.046875 10.984375 1.515625 
z
M 30.609375 32.421875 
Q 37.25 32.421875 41.125 36.953125 
Q 45.015625 41.5 45.015625 49.421875 
Q 45.015625 57.28125 41.125 61.84375 
Q 37.25 66.40625 30.609375 66.40625 
Q 23.96875 66.40625 20.09375 61.84375 
Q 16.21875 57.28125 16.21875 49.421875 
Q 16.21875 41.5 20.09375 36.953125 
Q 23.96875 32.421875 30.609375 32.421875 
z
" id="DejaVuSans-57"/>
      </defs>
      <g transform="translate(966.395625 319.429219)scale(0.1 -0.1)">
       <use xlink:href="#DejaVuSans-50"/>
       <use x="63.623047" xlink:href="#DejaVuSans-57"/>
       <use x="127.246094" xlink:href="#DejaVuSans-48"/>
      </g>
     </g>
    </g>
    <g id="ytick_10">
     <g id="line2d_21">
      <g>
       <use style="stroke:#000000;stroke-width:0.8;" x="959.395625" xlink:href="#m0554508277" y="221.13"/>
      </g>
     </g>
     <g id="text_20">
      <!-- 300 -->
      <g transform="translate(966.395625 224.929219)scale(0.1 -0.1)">
       <use xlink:href="#DejaVuSans-51"/>
       <use x="63.623047" xlink:href="#DejaVuSans-48"/>
       <use x="127.246094" xlink:href="#DejaVuSans-48"/>
      </g>
     </g>
    </g>
    <g id="ytick_11">
     <g id="line2d_22">
      <g>
       <use style="stroke:#000000;stroke-width:0.8;" x="959.395625" xlink:href="#m0554508277" y="126.63"/>
      </g>
     </g>
     <g id="text_21">
      <!-- 310 -->
      <g transform="translate(966.395625 130.429219)scale(0.1 -0.1)">
       <use xlink:href="#DejaVuSans-51"/>
       <use x="63.623047" xlink:href="#DejaVuSans-49"/>
       <use x="127.246094" xlink:href="#DejaVuSans-48"/>
      </g>
     </g>
    </g>
    <g id="ytick_12">
     <g id="line2d_23">
      <g>
       <use style="stroke:#000000;stroke-width:0.8;" x="959.395625" xlink:href="#m0554508277" y="32.13"/>
      </g>
     </g>
     <g id="text_22">
      <!-- 320 -->
      <g transform="translate(966.395625 35.929219)scale(0.1 -0.1)">
       <use xlink:href="#DejaVuSans-51"/>
       <use x="63.623047" xlink:href="#DejaVuSans-50"/>
       <use x="127.246094" xlink:href="#DejaVuSans-48"/>
      </g>
     </g>
    </g>
    <g id="text_23">
     <!-- Pseudo pulse value -->
     <g transform="translate(1003.160312 336.348281)rotate(-90)scale(0.18 -0.18)">
      <use xlink:href="#DejaVuSans-80"/>
      <use x="58.552734" xlink:href="#DejaVuSans-115"/>
      <use x="110.652344" xlink:href="#DejaVuSans-101"/>
      <use x="172.175781" xlink:href="#DejaVuSans-117"/>
      <use x="235.554688" xlink:href="#DejaVuSans-100"/>
      <use x="299.03125" xlink:href="#DejaVuSans-111"/>
      <use x="360.212891" xlink:href="#DejaVuSans-32"/>
      <use x="392" xlink:href="#DejaVuSans-112"/>
      <use x="455.476562" xlink:href="#DejaVuSans-117"/>
      <use x="518.855469" xlink:href="#DejaVuSans-108"/>
      <use x="546.638672" xlink:href="#DejaVuSans-115"/>
      <use x="598.738281" xlink:href="#DejaVuSans-101"/>
      <use x="660.261719" xlink:href="#DejaVuSans-32"/>
      <use x="692.048828" xlink:href="#DejaVuSans-118"/>
      <use x="751.228516" xlink:href="#DejaVuSans-97"/>
      <use x="812.507812" xlink:href="#DejaVuSans-108"/>
      <use x="840.291016" xlink:href="#DejaVuSans-117"/>
      <use x="903.669922" xlink:href="#DejaVuSans-101"/>
     </g>
    </g>
   </g>
   <g id="line2d_24">
    <path clip-path="url(#p1ff05ef0ac)" d="M 107.177443 306.18 
L 107.502835 79.38 
L 113.522577 211.68 
L 114.010665 230.58 
L 114.336056 287.28 
L 121.982756 287.28 
L 122.470843 230.58 
L 122.796235 268.38 
L 123.121626 249.48 
L 129.629456 268.38 
L 130.117543 230.58 
L 130.280239 249.48 
L 137.764243 249.48 
L 138.252331 287.28 
L 138.415026 325.08 
L 145.410944 287.28 
L 145.899031 306.18 
L 146.224422 268.38 
L 146.549814 287.28 
L 154.196514 268.38 
L 154.684601 136.08 
L 154.847297 268.38 
L 160.867039 287.28 
L 161.355127 306.18 
L 161.843214 268.38 
L 170.140697 287.28 
L 170.628784 268.38 
L 170.954176 268.38 
L 171.116871 249.48 
L 176.811222 287.28 
L 177.29931 325.08 
L 177.462005 325.08 
L 186.735663 306.18 
L 187.22375 268.38 
L 187.549142 287.28 
L 192.267318 268.38 
L 192.59271 268.38 
L 193.080797 325.08 
L 201.052889 306.18 
L 201.540976 287.28 
L 201.866367 287.28 
L 208.536893 249.48 
L 208.862284 268.38 
L 209.187676 268.38 
L 216.346289 211.68 
L 217.159768 362.88 
L 217.485159 325.08 
L 223.992989 343.98 
L 224.806468 287.28 
L 232.453168 22.68 
L 232.941255 117.18 
L 233.266646 287.28 
L 239.937172 249.48 
L 240.587955 268.38 
L 240.750651 306.18 
L 240.913346 287.28 
L 248.397351 268.38 
L 248.885438 249.48 
L 249.048134 249.48 
L 255.718659 306.18 
L 256.206747 287.28 
L 256.532138 306.18 
L 264.178838 268.38 
L 264.666925 306.18 
L 264.829621 268.38 
L 265.155013 249.48 
L 271.988234 268.38 
L 272.476321 268.38 
L 272.801713 287.28 
L 280.123021 325.08 
L 280.611108 268.38 
L 280.9365 287.28 
L 287.769721 306.18 
L 288.5832 249.48 
L 288.745896 154.98 
L 296.067204 287.28 
L 296.555292 287.28 
L 296.717987 306.18 
L 305.503558 306.18 
L 305.828949 287.28 
L 312.499475 306.18 
L 312.987562 211.68 
L 313.312953 287.28 
L 313.475649 287.28 
L 319.983479 268.38 
L 320.471566 306.18 
L 320.634262 287.28 
L 328.280962 287.28 
L 328.769049 306.18 
L 328.931745 249.48 
L 335.439575 287.28 
L 336.090358 306.18 
L 336.253054 438.48 
L 336.578445 343.98 
L 343.574362 287.28 
L 344.062449 325.08 
L 344.387841 60.48 
L 351.871845 192.78 
L 352.359932 287.28 
L 352.685324 268.38 
L 360.006633 268.38 
L 360.169328 287.28 
L 360.49472 268.38 
L 368.629507 268.38 
L 368.954899 136.08 
L 375.137337 306.18 
L 375.625424 268.38 
L 375.950816 287.28 
L 384.085603 306.18 
L 384.57369 306.18 
L 385.224473 268.38 
L 391.732303 268.38 
L 392.22039 306.18 
L 392.545782 306.18 
L 400.192482 268.38 
L 400.680569 287.28 
L 401.005961 287.28 
L 407.51379 268.38 
L 408.001878 268.38 
L 408.652661 306.18 
L 416.299361 268.38 
L 416.787448 268.38 
L 417.112839 287.28 
L 424.434148 287.28 
L 431.267369 230.58 
L 432.080848 325.08 
L 432.243544 325.08 
L 438.914069 287.28 
L 439.402157 306.18 
L 439.564852 287.28 
L 447.69964 287.28 
L 448.187727 268.38 
L 448.675814 136.08 
L 455.183644 287.28 
L 455.834427 287.28 
L 455.997123 343.98 
L 456.159818 287.28 
L 463.643823 476.28 
L 464.13191 381.78 
L 464.457302 287.28 
L 470.965131 287.28 
L 471.453219 325.08 
L 471.615914 230.58 
L 479.588006 268.38 
L 480.076093 287.28 
L 480.401485 287.28 
L 480.726876 249.48 
L 486.421227 268.38 
L 486.909314 268.38 
L 487.234706 306.18 
L 494.881406 306.18 
L 495.369493 287.28 
L 495.857581 306.18 
L 502.528106 249.48 
L 503.016193 306.18 
L 503.341585 249.48 
L 503.504281 287.28 
L 510.662893 192.78 
L 511.150981 287.28 
L 511.476372 306.18 
L 518.797681 306.18 
L 519.285768 249.48 
L 519.611159 287.28 
L 527.257859 306.18 
L 528.559425 211.68 
L 528.884817 306.18 
L 534.579168 325.08 
L 535.229951 306.18 
L 535.555343 325.08 
L 542.55126 306.18 
L 542.876651 287.28 
L 543.039347 268.38 
L 551.174134 287.28 
L 551.662221 306.18 
L 551.824917 325.08 
L 551.987613 306.18 
L 558.658138 287.28 
L 559.146226 306.18 
L 559.471617 287.28 
L 566.467534 268.38 
L 566.955622 249.48 
L 567.281013 268.38 
L 574.114234 306.18 
L 574.602322 287.28 
L 582.737109 287.28 
L 582.899805 268.38 
L 590.871896 173.88 
L 591.359983 287.28 
L 591.685375 438.48 
L 598.518596 343.98 
L 599.006683 325.08 
L 599.169379 343.98 
L 599.332075 98.28 
L 606.327992 211.68 
L 606.816079 230.58 
L 606.978775 306.18 
L 614.300084 268.38 
L 614.788171 287.28 
L 615.113562 287.28 
L 622.272175 268.38 
L 622.760262 268.38 
L 622.922958 230.58 
L 623.24835 268.38 
L 630.244267 287.28 
L 630.732354 287.28 
L 631.057745 249.48 
L 637.40288 343.98 
L 638.053663 306.18 
L 638.216358 287.28 
L 647.815407 287.28 
L 647.978103 230.58 
L 648.303495 306.18 
L 653.672454 325.08 
L 654.160541 287.28 
L 654.485933 306.18 
L 667.013505 287.28 
L 667.338897 230.58 
L 667.501593 268.38 
L 669.779333 117.18 
L 670.430116 268.38 
L 670.755508 287.28 
L 671.243595 268.38 
L 677.91412 325.08 
L 678.239512 306.18 
L 678.402208 249.48 
L 685.886212 287.28 
L 686.211603 249.48 
L 686.374299 287.28 
L 694.834478 268.38 
L 695.485261 268.38 
L 695.647957 287.28 
L 695.973348 287.28 
L 701.179612 306.18 
L 701.993091 249.48 
L 710.615965 306.18 
L 711.104053 325.08 
L 711.429444 343.98 
L 717.123795 287.28 
L 717.937274 287.28 
L 718.09997 268.38 
L 726.560148 306.18 
L 727.210931 268.38 
L 727.373627 419.58 
L 732.742587 381.78 
L 733.230674 343.98 
L 733.718761 173.88 
L 741.853549 230.58 
L 742.341636 268.38 
L 742.667027 249.48 
L 742.992419 154.98 
L 749.500249 306.18 
L 749.988336 287.28 
L 750.151032 268.38 
L 758.448515 268.38 
L 758.773906 249.48 
L 764.793649 268.38 
L 765.607127 325.08 
L 765.769823 306.18 
L 773.416523 325.08 
L 773.904611 306.18 
L 774.230002 306.18 
L 780.737832 268.38 
L 781.225919 249.48 
L 781.551311 268.38 
L 788.872619 306.18 
L 789.360706 287.28 
L 789.686098 249.48 
L 790.011489 287.28 
L 796.844711 306.18 
L 797.332798 287.28 
L 797.658189 306.18 
L 804.654107 268.38 
L 805.142194 268.38 
L 805.304889 306.18 
L 812.788894 306.18 
L 813.276981 287.28 
L 813.765068 287.28 
L 820.923681 268.38 
L 821.574464 287.28 
L 821.73716 136.08 
L 828.24499 306.18 
L 828.733077 230.58 
L 829.221164 306.18 
L 837.03056 268.38 
L 837.518647 287.28 
L 837.681343 268.38 
L 838.006734 249.48 
L 844.189173 268.38 
L 844.67726 306.18 
L 844.839956 400.68 
L 852.32396 362.88 
L 852.812047 154.98 
L 853.137439 230.58 
L 860.296052 268.38 
L 860.784139 287.28 
L 860.946835 268.38 
L 861.272226 287.28 
L 868.75623 287.28 
L 869.244318 268.38 
L 869.569709 268.38 
L 876.728322 287.28 
L 877.216409 306.18 
L 877.379105 249.48 
L 884.537718 287.28 
L 885.025805 249.48 
L 885.351197 306.18 
L 885.513892 287.28 
L 891.696331 306.18 
L 892.184418 306.18 
L 892.509809 268.38 
L 900.319205 249.48 
L 900.807292 230.58 
L 901.132684 136.08 
L 907.965905 306.18 
L 908.453992 287.28 
L 908.779384 287.28 
L 908.94208 268.38 
L 916.100693 287.28 
L 916.58878 230.58 
L 916.914171 230.58 
L 916.914171 230.58 
" style="fill:none;stroke:#0000ff;stroke-dasharray:5.55,2.4;stroke-dashoffset:0;stroke-width:1.5;"/>
   </g>
   <g id="patch_8">
    <path d="M 66.595625 498.96 
L 66.595625 0 
" style="fill:none;stroke:#000000;stroke-linecap:square;stroke-linejoin:miter;stroke-width:0.8;"/>
   </g>
   <g id="patch_9">
    <path d="M 959.395625 498.96 
L 959.395625 0 
" style="fill:none;stroke:#000000;stroke-linecap:square;stroke-linejoin:miter;stroke-width:0.8;"/>
   </g>
   <g id="patch_10">
    <path d="M 66.595625 498.96 
L 959.395625 498.96 
" style="fill:none;stroke:#000000;stroke-linecap:square;stroke-linejoin:miter;stroke-width:0.8;"/>
   </g>
   <g id="patch_11">
    <path d="M 66.595625 0 
L 959.395625 0 
" style="fill:none;stroke:#000000;stroke-linecap:square;stroke-linejoin:miter;stroke-width:0.8;"/>
   </g>
  </g>
 </g>
 <defs>
  <clipPath id="p1ff05ef0ac">
   <rect height="498.96" width="892.8" x="66.595625" y="0"/>
  </clipPath>
 </defs>
</svg>
