<?xml version="1.0" encoding="utf-8" standalone="no"?>
<!DOCTYPE svg PUBLIC "-//W3C//DTD SVG 1.1//EN"
  "http://www.w3.org/Graphics/SVG/1.1/DTD/svg11.dtd">
<!-- Created with matplotlib (https://matplotlib.org/) -->
<svg height="269.612pt" version="1.1" viewBox="0 0 360.62 269.612" width="360.62pt" xmlns="http://www.w3.org/2000/svg" xmlns:xlink="http://www.w3.org/1999/xlink">
 <defs>
  <style type="text/css">
*{stroke-linecap:butt;stroke-linejoin:round;}
  </style>
 </defs>
 <g id="figure_1">
  <g id="patch_1">
   <path d="M 0 269.612 
L 360.62 269.612 
L 360.62 0 
L 0 0 
z
" style="fill:#ffffff;"/>
  </g>
  <g id="axes_1">
   <g id="patch_2">
    <path d="M 3.5 266.112 
L 360.62 266.112 
L 360.62 0 
L 3.5 0 
z
" style="fill:#ffffff;"/>
   </g>
   <g id="matplotlib.axis_1">
    <g id="xtick_1">
     <g id="line2d_1">
      <defs>
       <path d="M 0 0 
L 0 3.5 
" id="m255a1e7c89" style="stroke:#000000;stroke-width:0.8;"/>
      </defs>
      <g>
       <use style="stroke:#000000;stroke-width:0.8;" x="19.063663" xlink:href="#m255a1e7c89" y="266.112"/>
      </g>
     </g>
    </g>
    <g id="xtick_2">
     <g id="line2d_2">
      <g>
       <use style="stroke:#000000;stroke-width:0.8;" x="84.147702" xlink:href="#m255a1e7c89" y="266.112"/>
      </g>
     </g>
    </g>
    <g id="xtick_3">
     <g id="line2d_3">
      <g>
       <use style="stroke:#000000;stroke-width:0.8;" x="149.231741" xlink:href="#m255a1e7c89" y="266.112"/>
      </g>
     </g>
    </g>
    <g id="xtick_4">
     <g id="line2d_4">
      <g>
       <use style="stroke:#000000;stroke-width:0.8;" x="214.31578" xlink:href="#m255a1e7c89" y="266.112"/>
      </g>
     </g>
    </g>
    <g id="xtick_5">
     <g id="line2d_5">
      <g>
       <use style="stroke:#000000;stroke-width:0.8;" x="279.399819" xlink:href="#m255a1e7c89" y="266.112"/>
      </g>
     </g>
    </g>
    <g id="xtick_6">
     <g id="line2d_6">
      <g>
       <use style="stroke:#000000;stroke-width:0.8;" x="344.483857" xlink:href="#m255a1e7c89" y="266.112"/>
      </g>
     </g>
    </g>
   </g>
   <g id="matplotlib.axis_2">
    <g id="ytick_1">
     <g id="line2d_7">
      <defs>
       <path d="M 0 0 
L -3.5 0 
" id="me3b0f4e85e" style="stroke:#000000;stroke-width:0.8;"/>
      </defs>
      <g>
       <use style="stroke:#000000;stroke-width:0.8;" x="3.5" xlink:href="#me3b0f4e85e" y="231.536708"/>
      </g>
     </g>
    </g>
    <g id="ytick_2">
     <g id="line2d_8">
      <g>
       <use style="stroke:#000000;stroke-width:0.8;" x="3.5" xlink:href="#me3b0f4e85e" y="178.014584"/>
      </g>
     </g>
    </g>
    <g id="ytick_3">
     <g id="line2d_9">
      <g>
       <use style="stroke:#000000;stroke-width:0.8;" x="3.5" xlink:href="#me3b0f4e85e" y="124.49246"/>
      </g>
     </g>
    </g>
    <g id="ytick_4">
     <g id="line2d_10">
      <g>
       <use style="stroke:#000000;stroke-width:0.8;" x="3.5" xlink:href="#me3b0f4e85e" y="70.970336"/>
      </g>
     </g>
    </g>
    <g id="ytick_5">
     <g id="line2d_11">
      <g>
       <use style="stroke:#000000;stroke-width:0.8;" x="3.5" xlink:href="#me3b0f4e85e" y="17.448212"/>
      </g>
     </g>
    </g>
   </g>
   <g id="line2d_12">
    <path clip-path="url(#p9aa03e5e05)" d="M 19.732727 182.831575 
L 20.428085 168.380602 
L 21.123183 150.18308 
L 23.903833 53.843257 
L 24.599191 38.321841 
L 25.294549 30.828743 
L 25.989386 30.293522 
L 26.684744 37.786619 
L 27.379841 52.772814 
L 28.074679 70.435115 
L 30.160752 140.549097 
L 31.550947 186.578124 
L 32.941142 222.437947 
L 33.63624 234.748035 
L 35.026956 252.410336 
L 35.722053 254.016 
L 36.417411 254.016 
L 37.112509 251.339894 
L 39.198843 224.043611 
L 39.89394 210.66308 
L 41.978972 177.479363 
L 43.368907 163.028389 
L 44.064265 158.746619 
L 45.45472 157.676177 
L 46.150339 159.817062 
L 47.540013 167.845381 
L 48.930468 180.69069 
L 49.625826 184.97246 
L 50.320924 191.930336 
L 51.016282 196.212106 
L 51.711379 199.423434 
L 52.406216 205.310867 
L 53.101314 206.38131 
L 53.796672 208.522195 
L 54.49203 209.592637 
L 55.186867 208.522195 
L 55.882225 207.986973 
L 56.577322 206.916531 
L 57.27242 203.705204 
L 57.967517 203.169982 
L 58.662875 201.029097 
L 59.358233 197.282549 
L 60.053591 196.747327 
L 60.748949 194.071221 
L 61.444046 192.465558 
L 62.139144 193.000779 
L 62.834241 190.859894 
L 63.529599 189.25423 
L 64.224957 189.789451 
L 64.920315 189.25423 
L 65.615933 189.25423 
L 66.31077 185.507681 
L 67.006128 175.338478 
L 67.700966 160.887504 
L 68.396063 140.013876 
L 71.177495 35.645735 
L 71.872852 21.194761 
L 72.56795 12.096 
L 73.262527 12.096 
L 73.957885 21.729982 
L 74.653243 36.180956 
L 76.043438 82.745204 
L 78.823828 182.296354 
L 79.519186 203.169982 
L 80.214544 218.156177 
L 81.604739 240.635469 
L 82.299576 244.382018 
L 82.994673 246.522903 
L 83.689511 246.522903 
L 84.384608 242.241133 
L 85.079966 235.818478 
L 86.470421 216.550513 
L 87.165259 206.916531 
L 88.555454 184.437239 
L 89.946169 167.845381 
L 90.641267 162.493168 
L 91.336885 160.352283 
L 92.031983 157.676177 
L 92.72682 158.211398 
L 93.421657 161.422726 
L 94.117275 164.098832 
L 95.50721 174.803257 
L 96.202568 179.085027 
L 96.897405 186.578124 
L 98.28734 193.536 
L 98.982698 198.888212 
L 99.678056 199.423434 
L 100.373153 202.634761 
L 101.068251 204.240425 
L 101.763348 203.705204 
L 102.458446 203.705204 
L 103.153543 204.240425 
L 103.848901 202.09954 
L 104.544259 201.564319 
L 105.239877 199.423434 
L 105.934975 197.81777 
L 106.630072 197.282549 
L 107.32543 194.606442 
L 109.410983 189.789451 
L 110.106341 188.719009 
L 110.801699 188.183788 
L 111.496796 186.578124 
L 112.191894 186.578124 
L 112.886991 187.113345 
L 113.581829 185.507681 
L 114.277186 185.507681 
L 114.972544 181.761133 
L 115.667642 172.662372 
L 116.362739 160.352283 
L 117.057837 138.943434 
L 119.838227 39.392283 
L 120.533585 24.94131 
L 121.228422 15.842549 
L 121.92378 17.448212 
L 122.618617 26.011752 
L 123.313454 39.927504 
L 124.70391 83.280425 
L 126.789983 155.535292 
L 128.179658 196.212106 
L 129.570113 222.973168 
L 130.265471 232.60715 
L 130.960569 237.424142 
L 131.655926 240.635469 
L 132.351024 241.705912 
L 133.045861 237.424142 
L 133.740959 232.071929 
L 134.436317 224.578832 
L 137.216967 183.366796 
L 137.912065 175.873699 
L 138.607162 166.774938 
L 139.30252 162.493168 
L 140.692715 157.140956 
L 141.388073 160.352283 
L 142.083171 161.957947 
L 142.778268 164.634053 
L 143.473105 171.591929 
L 144.168463 175.873699 
L 145.558658 188.183788 
L 147.643951 199.958655 
L 148.339048 202.09954 
L 149.034406 204.775646 
L 149.729764 205.846088 
L 150.425122 205.310867 
L 151.12048 205.846088 
L 152.510675 202.634761 
L 153.205772 202.09954 
L 153.90113 199.423434 
L 154.596488 197.81777 
L 155.291846 197.282549 
L 155.987204 194.606442 
L 156.682301 193.000779 
L 157.377399 193.000779 
L 158.072496 190.324673 
L 158.767594 189.789451 
L 160.158049 187.648566 
L 160.853407 189.25423 
L 162.243602 187.113345 
L 162.9387 188.183788 
L 164.329155 188.183788 
L 165.024513 187.648566 
L 165.720131 181.225912 
L 166.414969 171.591929 
L 167.110326 155.000071 
L 168.500522 105.224496 
L 169.891498 53.308035 
L 170.586855 35.110513 
L 171.282213 22.800425 
L 171.977311 19.053876 
L 172.672408 25.476531 
L 173.367506 36.180956 
L 174.062603 53.308035 
L 176.147896 123.957239 
L 177.538351 170.521487 
L 178.928547 208.522195 
L 180.319002 233.677593 
L 181.013839 240.100248 
L 181.709197 244.382018 
L 182.404295 246.522903 
L 183.099132 242.776354 
L 183.794229 237.959363 
L 184.489587 231.001487 
L 187.270758 184.437239 
L 187.966116 175.873699 
L 188.660953 165.704496 
L 189.356311 160.352283 
L 190.051669 157.676177 
L 190.747287 154.46485 
L 191.442385 155.535292 
L 192.83284 163.028389 
L 193.527938 167.845381 
L 194.223296 173.732814 
L 194.918654 178.549805 
L 195.614011 185.507681 
L 196.30963 190.859894 
L 197.004467 194.606442 
L 197.699825 199.423434 
L 198.394922 202.634761 
L 199.09002 204.775646 
L 199.785638 207.451752 
L 200.481256 207.451752 
L 201.176354 206.916531 
L 201.871451 207.451752 
L 202.566809 204.240425 
L 203.261907 203.169982 
L 203.957265 201.564319 
L 204.652102 197.81777 
L 205.347199 197.81777 
L 206.042557 195.676885 
L 206.737655 193.000779 
L 207.433013 193.536 
L 208.12811 191.395115 
L 208.822947 190.324673 
L 209.518045 190.859894 
L 210.213403 188.719009 
L 210.908761 188.183788 
L 211.603858 187.113345 
L 212.299476 180.155469 
L 212.994574 170.521487 
L 213.689411 155.000071 
L 215.079606 110.576708 
L 216.469801 62.406796 
L 217.165159 46.350159 
L 217.860257 35.645735 
L 218.555354 31.899186 
L 219.250712 37.251398 
L 219.94607 46.885381 
L 220.641688 63.477239 
L 224.813054 194.071221 
L 225.508412 210.127858 
L 226.899128 234.212814 
L 227.594225 240.100248 
L 228.289323 243.311575 
L 228.98442 244.917239 
L 230.374876 235.818478 
L 231.070494 228.325381 
L 233.851405 185.507681 
L 235.242121 167.845381 
L 235.937479 161.422726 
L 236.633097 158.746619 
L 237.328455 157.676177 
L 238.023812 158.211398 
L 239.414008 164.634053 
L 240.803942 177.479363 
L 241.4993 181.225912 
L 242.194398 187.113345 
L 242.889756 191.930336 
L 244.279951 199.958655 
L 244.974788 201.564319 
L 245.670146 202.634761 
L 246.365504 205.310867 
L 247.756219 205.310867 
L 248.451317 205.846088 
L 249.146675 203.705204 
L 250.53687 202.634761 
L 251.232228 198.888212 
L 251.927586 198.888212 
L 253.318041 194.606442 
L 254.013399 194.071221 
L 254.708496 191.395115 
L 255.403854 189.25423 
L 256.099472 189.25423 
L 256.79483 186.578124 
L 257.490188 186.042903 
L 258.185286 186.042903 
L 258.880383 185.507681 
L 260.270578 186.578124 
L 260.965936 186.042903 
L 261.661294 187.113345 
L 262.356652 186.578124 
L 263.051489 181.761133 
L 263.746847 173.732814 
L 264.441684 156.070513 
L 265.83214 109.506265 
L 267.222855 58.125027 
L 267.917692 40.462726 
L 268.613311 27.082195 
L 269.308408 24.406088 
L 270.003506 27.617416 
L 270.698603 37.251398 
L 272.089319 74.716885 
L 272.784417 96.125735 
L 274.174872 142.689982 
L 275.564807 184.437239 
L 276.955522 212.268743 
L 277.65062 222.973168 
L 279.041336 235.818478 
L 279.736694 236.88892 
L 280.431531 235.818478 
L 281.126889 233.142372 
L 281.821986 227.790159 
L 283.212442 211.733522 
L 284.602897 191.930336 
L 285.297995 184.97246 
L 285.993092 175.338478 
L 286.68845 169.451044 
L 288.079426 160.352283 
L 288.774263 160.352283 
L 289.469621 160.887504 
L 290.164458 162.493168 
L 290.859816 168.380602 
L 291.555174 171.591929 
L 292.250532 176.944142 
L 292.94589 183.366796 
L 293.640987 187.113345 
L 294.336085 193.000779 
L 295.031182 197.81777 
L 295.72654 199.423434 
L 296.421898 203.169982 
L 297.117256 204.240425 
L 297.812614 204.240425 
L 298.507711 205.846088 
L 299.203069 204.775646 
L 299.897906 202.634761 
L 300.593004 201.564319 
L 301.288362 199.423434 
L 301.98372 196.747327 
L 302.679078 196.212106 
L 303.373915 193.536 
L 304.069533 192.465558 
L 304.764631 192.465558 
L 305.459207 190.324673 
L 306.154045 190.324673 
L 306.849402 189.789451 
L 307.545021 188.719009 
L 308.239598 189.25423 
L 309.629793 187.113345 
L 310.32489 188.719009 
L 311.019727 187.648566 
L 311.714825 187.648566 
L 312.410183 188.183788 
L 313.10502 186.042903 
L 313.800378 186.042903 
L 314.495215 183.366796 
L 315.190052 173.197593 
L 315.88515 160.352283 
L 317.275866 114.323257 
L 318.666321 64.547681 
L 319.361418 44.744496 
L 320.056516 31.363965 
L 320.751353 23.870867 
L 321.446711 25.476531 
L 322.142069 35.110513 
L 322.836906 49.561487 
L 324.921938 115.393699 
L 326.312394 161.957947 
L 327.702589 199.423434 
L 328.397947 212.268743 
L 329.787621 233.142372 
L 330.482719 237.424142 
L 331.178077 240.100248 
L 331.873434 241.17069 
L 332.568792 236.353699 
L 333.26389 232.60715 
L 333.958987 225.114053 
L 334.653825 214.409628 
L 335.348922 206.38131 
L 336.739638 186.042903 
L 338.825451 164.634053 
L 340.215646 160.352283 
L 340.911004 161.422726 
L 341.606362 164.634053 
L 342.30198 167.310159 
L 343.692175 178.014584 
L 344.387273 182.296354 
L 344.387273 182.296354 
" style="fill:none;stroke:#1f77b4;stroke-linecap:square;stroke-width:1.5;"/>
   </g>
   <g id="patch_3">
    <path d="M 3.5 266.112 
L 3.5 0 
" style="fill:none;stroke:#000000;stroke-linecap:square;stroke-linejoin:miter;stroke-width:0.8;"/>
   </g>
   <g id="patch_4">
    <path d="M 360.62 266.112 
L 360.62 0 
" style="fill:none;stroke:#000000;stroke-linecap:square;stroke-linejoin:miter;stroke-width:0.8;"/>
   </g>
   <g id="patch_5">
    <path d="M 3.5 266.112 
L 360.62 266.112 
" style="fill:none;stroke:#000000;stroke-linecap:square;stroke-linejoin:miter;stroke-width:0.8;"/>
   </g>
   <g id="patch_6">
    <path d="M 3.5 0 
L 360.62 0 
" style="fill:none;stroke:#000000;stroke-linecap:square;stroke-linejoin:miter;stroke-width:0.8;"/>
   </g>
  </g>
 </g>
 <defs>
  <clipPath id="p9aa03e5e05">
   <rect height="266.112" width="357.12" x="3.5" y="0"/>
  </clipPath>
 </defs>
</svg>
