<svg width="558" height="547" xmlns="http://www.w3.org/2000/svg" xmlns:xlink="http://www.w3.org/1999/xlink" overflow="hidden"><defs><clipPath id="clip0"><path d="M434 74 992 74 992 621 434 621Z" fill-rule="evenodd" clip-rule="evenodd"/></clipPath></defs><g clip-path="url(#clip0)" transform="translate(-434 -74)"><rect x="436.5" y="219.5" width="371" height="139" stroke="#000000" stroke-width="1.33333" stroke-miterlimit="8" fill="none"/><text font-family="Yu Gothic,Yu Gothic_MSFontService,sans-serif" font-weight="400" font-size="24" transform="translate(848.779 338)">Printed <tspan x="-29.0867" y="29">circuit board</tspan></text><rect x="436.5" y="558.5" width="371" height="62" stroke="#000000" stroke-width="1.33333" stroke-miterlimit="8" fill="none"/><text font-family="Yu Gothic,Yu Gothic_MSFontService,sans-serif" font-weight="400" font-size="24" transform="translate(566.772 596)">Computer</text><path d="M0 0 0.000104987 58.0376" stroke="#000000" stroke-width="4" stroke-miterlimit="8" fill="none" fill-rule="evenodd" transform="matrix(-1 -8.74228e-08 -8.74228e-08 1 521 500)"/><path d="M0 0 0.000104987 58.0376" stroke="#000000" stroke-width="4" stroke-miterlimit="8" fill="none" fill-rule="evenodd" transform="matrix(-1 -8.74228e-08 -8.74228e-08 1 721 500)"/><path d="M436.5 315.5 807.968 315.5" stroke="#000000" stroke-width="1.33333" stroke-miterlimit="8" fill="none" fill-rule="evenodd"/><path d="M436.5 338.5 807.968 338.5" stroke="#000000" stroke-width="1.33333" stroke-miterlimit="8" fill="none" fill-rule="evenodd"/><path d="M748.5 163.5C748.5 156.32 754.544 150.5 762 150.5 769.456 150.5 775.5 156.32 775.5 163.5 775.5 170.68 769.456 176.5 762 176.5 754.544 176.5 748.5 170.68 748.5 163.5Z" stroke="#000000" stroke-width="1.33333" stroke-miterlimit="8" fill-rule="evenodd"/><path d="M755.5 172.5 755.5 313.873" stroke="#000000" stroke-width="1.33333" stroke-miterlimit="8" fill="none" fill-rule="evenodd"/><path d="M769.5 172.5 769.5 245.753" stroke="#000000" stroke-width="1.33333" stroke-miterlimit="8" fill="none" fill-rule="evenodd"/><rect x="761.5" y="246.5" width="15" height="39" stroke="#000000" stroke-width="0.666667" stroke-linejoin="round" stroke-miterlimit="10" fill="none"/><path d="M0 0 0.000104987 54.6903" stroke="#000000" stroke-width="1.33333" stroke-miterlimit="8" fill="none" fill-rule="evenodd" transform="matrix(-1 -8.74228e-08 -8.74228e-08 1 769.5 285.5)"/><path d="M0 3.5C-7.6388e-16 1.567 1.34315 0 3 0 4.65685 -8.91193e-16 6 1.567 6 3.5 6 5.433 4.65685 7 3 7 1.34315 7-1.14582e-15 5.433 0 3.5Z" stroke="#000000" stroke-width="1.33333" stroke-miterlimit="8" fill-rule="evenodd" transform="matrix(-1 -8.74228e-08 -8.74228e-08 1 772.5 231.5)"/><path d="M0 3.5C-8.91193e-16 1.567 1.567 0 3.5 0 5.433 -8.91193e-16 7 1.567 7 3.5 7 5.433 5.433 7 3.5 7 1.567 7-1.33679e-15 5.433 0 3.5Z" stroke="#000000" stroke-width="1.33333" stroke-miterlimit="8" fill-rule="evenodd" transform="matrix(-1 -8.74228e-08 -8.74228e-08 1 759.5 312.5)"/><path d="M0 3.5C-7.6388e-16 1.567 1.34315 0 3 0 4.65685 -8.91193e-16 6 1.567 6 3.5 6 5.433 4.65685 7 3 7 1.34315 7-1.14582e-15 5.433 0 3.5Z" stroke="#000000" stroke-width="1.33333" stroke-miterlimit="8" fill-rule="evenodd" transform="matrix(-1 -8.74228e-08 -8.74228e-08 1 772.5 334.5)"/><path d="M660.5 163.5C660.5 156.32 666.544 150.5 674 150.5 681.456 150.5 687.5 156.32 687.5 163.5 687.5 170.68 681.456 176.5 674 176.5 666.544 176.5 660.5 170.68 660.5 163.5Z" stroke="#000000" stroke-width="1.33333" stroke-miterlimit="8" fill-rule="evenodd"/><path d="M666.5 173.5 666.5 314.873" stroke="#000000" stroke-width="1.33333" stroke-miterlimit="8" fill="none" fill-rule="evenodd"/><path d="M681.5 173.5 681.5 246.753" stroke="#000000" stroke-width="1.33333" stroke-miterlimit="8" fill="none" fill-rule="evenodd"/><rect x="673.5" y="246.5" width="15" height="39" stroke="#000000" stroke-width="0.666667" stroke-linejoin="round" stroke-miterlimit="10" fill="none"/><path d="M0 0 0.000104987 54.6903" stroke="#000000" stroke-width="1.33333" stroke-miterlimit="8" fill="none" fill-rule="evenodd" transform="matrix(-1 -8.74228e-08 -8.74228e-08 1 681.5 285.5)"/><path d="M0 3.5C-8.91193e-16 1.567 1.567 0 3.5 0 5.433 -8.91193e-16 7 1.567 7 3.5 7 5.433 5.433 7 3.5 7 1.567 7-1.33679e-15 5.433 0 3.5Z" stroke="#000000" stroke-width="1.33333" stroke-miterlimit="8" fill-rule="evenodd" transform="matrix(-1 -8.74228e-08 -8.74228e-08 1 684.5 232.5)"/><path d="M0 3.5C-8.91193e-16 1.567 1.567 0 3.5 0 5.433 -8.91193e-16 7 1.567 7 3.5 7 5.433 5.433 7 3.5 7 1.567 7-1.33679e-15 5.433 0 3.5Z" stroke="#000000" stroke-width="1.33333" stroke-miterlimit="8" fill-rule="evenodd" transform="matrix(-1 -8.74228e-08 -8.74228e-08 1 671.5 313.5)"/><path d="M0 3.5C-8.91193e-16 1.567 1.567 0 3.5 0 5.433 -8.91193e-16 7 1.567 7 3.5 7 5.433 5.433 7 3.5 7 1.567 7-1.33679e-15 5.433 0 3.5Z" stroke="#000000" stroke-width="1.33333" stroke-miterlimit="8" fill-rule="evenodd" transform="matrix(-1 -8.74228e-08 -8.74228e-08 1 684.5 335.5)"/><path d="M573.5 163.5C573.5 156.32 579.544 150.5 587 150.5 594.456 150.5 600.5 156.32 600.5 163.5 600.5 170.68 594.456 176.5 587 176.5 579.544 176.5 573.5 170.68 573.5 163.5Z" stroke="#000000" stroke-width="1.33333" stroke-miterlimit="8" fill-rule="evenodd"/><path d="M580.5 172.5 580.5 313.873" stroke="#000000" stroke-width="1.33333" stroke-miterlimit="8" fill="none" fill-rule="evenodd"/><path d="M594.5 172.5 594.5 245.753" stroke="#000000" stroke-width="1.33333" stroke-miterlimit="8" fill="none" fill-rule="evenodd"/><rect x="587.5" y="246.5" width="15" height="39" stroke="#000000" stroke-width="0.666667" stroke-linejoin="round" stroke-miterlimit="10" fill="none"/><path d="M0 0 0.000104987 54.6903" stroke="#000000" stroke-width="1.33333" stroke-miterlimit="8" fill="none" fill-rule="evenodd" transform="matrix(-1 -8.74228e-08 -8.74228e-08 1 594.5 285.5)"/><path d="M0 3.5C-8.91193e-16 1.567 1.567 0 3.5 0 5.433 -8.91193e-16 7 1.567 7 3.5 7 5.433 5.433 7 3.5 7 1.567 7-1.33679e-15 5.433 0 3.5Z" stroke="#000000" stroke-width="1.33333" stroke-miterlimit="8" fill-rule="evenodd" transform="matrix(-1 -8.74228e-08 -8.74228e-08 1 598.5 231.5)"/><path d="M0 3.5C-8.91193e-16 1.567 1.567 0 3.5 0 5.433 -8.91193e-16 7 1.567 7 3.5 7 5.433 5.433 7 3.5 7 1.567 7-1.33679e-15 5.433 0 3.5Z" stroke="#000000" stroke-width="1.33333" stroke-miterlimit="8" fill-rule="evenodd" transform="matrix(-1 -8.74228e-08 -8.74228e-08 1 584.5 312.5)"/><path d="M0 3.5C-8.91193e-16 1.567 1.567 0 3.5 0 5.433 -8.91193e-16 7 1.567 7 3.5 7 5.433 5.433 7 3.5 7 1.567 7-1.33679e-15 5.433 0 3.5Z" stroke="#000000" stroke-width="1.33333" stroke-miterlimit="8" fill-rule="evenodd" transform="matrix(-1 -8.74228e-08 -8.74228e-08 1 598.5 334.5)"/><path d="M482.5 163.5C482.5 156.32 488.32 150.5 495.5 150.5 502.68 150.5 508.5 156.32 508.5 163.5 508.5 170.68 502.68 176.5 495.5 176.5 488.32 176.5 482.5 170.68 482.5 163.5Z" stroke="#000000" stroke-width="1.33333" stroke-miterlimit="8" fill-rule="evenodd"/><path d="M488.5 173.5 488.5 314.873" stroke="#000000" stroke-width="1.33333" stroke-miterlimit="8" fill="none" fill-rule="evenodd"/><path d="M503.5 173.5 503.5 246.753" stroke="#000000" stroke-width="1.33333" stroke-miterlimit="8" fill="none" fill-rule="evenodd"/><rect x="495.5" y="246.5" width="15" height="39" stroke="#000000" stroke-width="0.666667" stroke-linejoin="round" stroke-miterlimit="10" fill="none"/><text font-family="Yu Gothic,Yu Gothic_MSFontService,sans-serif" font-weight="400" font-size="16" transform="translate(510.421 307)">10KΩ</text><path d="M0 0 0.000104987 54.6903" stroke="#000000" stroke-width="1.33333" stroke-miterlimit="8" fill="none" fill-rule="evenodd" transform="matrix(-1 -8.74228e-08 -8.74228e-08 1 503.5 285.5)"/><path d="M0 3.5C-8.91193e-16 1.567 1.567 0 3.5 0 5.433 -8.91193e-16 7 1.567 7 3.5 7 5.433 5.433 7 3.5 7 1.567 7-1.33679e-15 5.433 0 3.5Z" stroke="#000000" stroke-width="1.33333" stroke-miterlimit="8" fill-rule="evenodd" transform="matrix(-1 -8.74228e-08 -8.74228e-08 1 506.5 232.5)"/><path d="M0 3.5C-7.6388e-16 1.567 1.34315 0 3 0 4.65685 -8.91193e-16 6 1.567 6 3.5 6 5.433 4.65685 7 3 7 1.34315 7-1.14582e-15 5.433 0 3.5Z" stroke="#000000" stroke-width="1.33333" stroke-miterlimit="8" fill-rule="evenodd" transform="matrix(-1 -8.74228e-08 -8.74228e-08 1 492.5 312.5)"/><path d="M0 3.5C-8.91193e-16 1.567 1.567 0 3.5 0 5.433 -8.91193e-16 7 1.567 7 3.5 7 5.433 5.433 7 3.5 7 1.567 7-1.33679e-15 5.433 0 3.5Z" stroke="#000000" stroke-width="1.33333" stroke-miterlimit="8" fill-rule="evenodd" transform="matrix(-1 -8.74228e-08 -8.74228e-08 1 506.5 335.5)"/><rect x="446.5" y="411.5" width="155" height="90" stroke="#000000" stroke-width="1.33333" stroke-miterlimit="8" fill="none"/><text font-family="Yu Gothic,Yu Gothic_MSFontService,sans-serif" font-weight="400" font-size="14" transform="translate(451.864 496)">Microcomputer<tspan font-size="16" x="120.416" y="-33">5V</tspan><tspan font-size="16" x="103.416" y="-4">GND</tspan><tspan font-size="16" x="18.0054" y="-66">Analog IN Port</tspan></text><rect x="644.5" y="410.5" width="155" height="90" stroke="#000000" stroke-width="1.33333" stroke-miterlimit="8" fill="none"/><text font-family="Yu Gothic,Yu Gothic_MSFontService,sans-serif" font-weight="400" font-size="16" transform="translate(667.516 429)">Analog IN Port</text><path d="M0 0 14.6876 0 14.6876 120.022" stroke="#000000" stroke-width="1.33333" stroke-miterlimit="8" fill="none" fill-rule="evenodd" transform="matrix(1 0 0 -1 601.5 458.522)"/><path d="M0 0 28.0353 0 28.0353 170.903" stroke="#000000" stroke-width="1.33333" stroke-miterlimit="8" fill="none" fill-rule="evenodd" transform="matrix(1 0 0 -1 601.5 486.403)"/><path d="M0 3.5C-7.6388e-16 1.567 1.34315 0 3 0 4.65685 -8.91193e-16 6 1.567 6 3.5 6 5.433 4.65685 7 3 7 1.34315 7-1.14582e-15 5.433 0 3.5Z" stroke="#000000" stroke-width="1.33333" stroke-miterlimit="8" fill-rule="evenodd" transform="matrix(-1 -8.74228e-08 -8.74228e-08 1 632.5 312.5)"/><path d="M0 3.5C-8.91193e-16 1.567 1.567 0 3.5 0 5.433 -8.91193e-16 7 1.567 7 3.5 7 5.433 5.433 7 3.5 7 1.567 7-1.33679e-15 5.433 0 3.5Z" stroke="#000000" stroke-width="1.33333" stroke-miterlimit="8" fill-rule="evenodd" transform="matrix(-1 -8.74228e-08 -8.74228e-08 1 619.5 334.5)"/><path d="M0 0 30.1914 0 30.1914 176.234" stroke="#000000" stroke-width="1.33333" stroke-miterlimit="8" fill="none" fill-rule="evenodd" transform="matrix(-1 -8.74228e-08 -8.74228e-08 1 591.691 235.5)"/><path d="M0 0 24.4762 0 24.4762 174.531" stroke="#000000" stroke-width="1.33333" stroke-miterlimit="8" fill="none" fill-rule="evenodd" transform="matrix(-1 -8.74228e-08 -8.74228e-08 1 765.976 235.5)"/><path d="M0 0 27.1676 0 27.1676 175.855" stroke="#000000" stroke-width="1.33333" stroke-miterlimit="8" fill="none" fill-rule="evenodd" transform="matrix(-1 -8.74228e-08 -8.74228e-08 1 499.668 235.5)"/><path d="M0 0 24.8817 0 24.8817 174.152" stroke="#000000" stroke-width="1.33333" stroke-miterlimit="8" fill="none" fill-rule="evenodd" transform="matrix(-1 -8.74228e-08 -8.74228e-08 1 677.382 235.5)"/><text font-family="Yu Gothic,Yu Gothic_MSFontService,sans-serif" font-weight="400" font-size="24" transform="translate(662.111 391)">・・・<tspan font-size="16" x="-146.572" y="-222">・・・</tspan><tspan x="-181.283" y="8">・・・</tspan></text><path d="M436.5 163C436.5 146.708 519.551 133.5 622 133.5 724.449 133.5 807.5 146.708 807.5 163 807.5 179.292 724.449 192.5 622 192.5 519.551 192.5 436.5 179.292 436.5 163Z" stroke="#FF0000" stroke-width="1.33333" stroke-miterlimit="8" stroke-dasharray="5.33333 4" fill="none" fill-rule="evenodd"/><text fill="#FF0000" font-family="Yu Gothic,Yu Gothic_MSFontService,sans-serif" font-weight="400" font-size="24" transform="translate(818.441 183)">Helmet</text><path d="M744.5 77.5001 784.833 77.5001 784.833 77.5001 845.333 77.5001 986.5 77.5001 986.5 100.25 986.5 100.25 986.5 110 986.5 116.5 845.333 116.5 775.955 138.512 784.833 116.5 744.5 116.5 744.5 110 744.5 100.25 744.5 100.25Z" stroke="#000000" stroke-width="1.33333" stroke-miterlimit="8" fill="none" fill-rule="evenodd"/><text font-family="Yu Gothic,Yu Gothic_MSFontService,sans-serif" font-weight="400" font-size="24" transform="translate(753.997 103)">32 pressure sensors<tspan font-size="16" x="-149.423" y="67">・・・</tspan><tspan font-size="16" x="-62.7172" y="67">・・・</tspan><tspan font-size="14" x="-104.523" y="393">Microcomputer</tspan></text></g></svg>