<svg width="1183" height="430" xmlns="http://www.w3.org/2000/svg" xmlns:xlink="http://www.w3.org/1999/xlink" overflow="hidden"><defs><clipPath id="clip0"><path d="M75 160 1258 160 1258 590 75 590Z" fill-rule="evenodd" clip-rule="evenodd"/></clipPath></defs><g clip-path="url(#clip0)" transform="translate(-75 -160)"><path d="M344.5 437.333C344.5 446.63 289.431 454.167 221.5 454.167 153.569 454.167 98.5001 446.63 98.5001 437.333" stroke="#000000" stroke-width="1.33333" stroke-miterlimit="8" fill="none" fill-rule="evenodd"/><path d="M98.5001 437.333C98.5001 428.037 153.569 420.5 221.5 420.5 289.431 420.5 344.5 428.037 344.5 437.333L344.5 504.667C344.5 513.964 289.431 521.5 221.5 521.5 153.569 521.5 98.5001 513.964 98.5001 504.667Z" stroke="#000000" stroke-width="1.33333" stroke-miterlimit="8" fill="none" fill-rule="evenodd"/><text font-family="Yu Gothic,Yu Gothic_MSFontService,sans-serif" font-weight="400" font-size="24" transform="translate(111.922 481)">Training data set of <tspan x="42.7467" y="29">the wearers</tspan></text><path d="M80.5001 214C80.5001 185.005 143.628 161.5 221.5 161.5 299.372 161.5 362.5 185.005 362.5 214 362.5 242.995 299.372 266.5 221.5 266.5 143.628 266.5 80.5001 242.995 80.5001 214Z" stroke="#000000" stroke-width="1.33333" stroke-miterlimit="8" fill="none" fill-rule="evenodd"/><text font-family="Yu Gothic,Yu Gothic_MSFontService,sans-serif" font-weight="400" font-size="24" transform="translate(95.1717 214)">32 pressure sensors in <tspan x="65.5" y="29">the helmet</tspan></text><rect x="80.5001" y="408.5" width="282" height="159" stroke="#FF0000" stroke-width="1.33333" stroke-miterlimit="8" stroke-dasharray="5.33333 4" fill="none"/><rect x="478.5" y="390.5" width="777" height="192" stroke="#000000" stroke-width="1.33333" stroke-miterlimit="8" stroke-dasharray="5.33333 4" fill="none"/><path d="M362.5 212.833 509.218 212.833 509.218 214.167 362.5 214.167ZM507.885 209.5 515.885 213.5 507.885 217.5Z"/><text font-family="Yu Gothic,Yu Gothic_MSFontService,sans-serif" font-weight="400" font-size="24" transform="translate(1046.55 522)">Rejection</text><rect x="1034.5" y="495.5" width="129" height="40" stroke="#000000" stroke-width="1.33333" stroke-miterlimit="8" fill="none"/><rect x="1034.5" y="416.5" width="184" height="40" stroke="#000000" stroke-width="1.33333" stroke-miterlimit="8" fill="none"/><text font-family="Yu Gothic,Yu Gothic_MSFontService,sans-serif" font-weight="400" font-size="24" transform="translate(1045.27 443)">Authentication</text><path d="M0.232256-0.624901 99.9332 36.4308 99.4687 37.6806-0.232256 0.624901ZM99.8448 32.8418 105.95 39.3783 97.0578 40.3406Z" transform="matrix(1 0 0 -1 928.5 475.878)"/><path d="M928.734 474.876 1028.44 512.276 1027.97 513.525 928.266 476.124ZM1028.36 508.687 1034.45 515.242 1025.55 516.178Z"/><path d="M720.5 474.833 799.787 474.869 799.787 476.202 720.5 476.167ZM798.456 471.535 806.454 475.538 798.452 479.535Z"/><path d="M344.5 474.833 509.041 474.833 509.041 476.167 344.5 476.167ZM507.708 471.5 515.708 475.5 507.708 479.5Z"/><path d="M0.666666-0.000945638 0.930806 186.215-0.402526 186.217-0.666666 0.000945638ZM4.26224 184.877 0.273596 192.882-3.73775 184.888Z" transform="matrix(-1 -8.74228e-08 -8.74228e-08 1 618.774 234.5)"/><text font-family="Yu Gothic,Yu Gothic_MSFontService,sans-serif" font-weight="400" font-size="24" transform="translate(555.738 454)">Calculating<tspan x="-30.5" y="29">the </tspan><tspan x="12.1667" y="29">Mahalanobis</tspan><tspan x="13.08" y="58">Distance</tspan><tspan font-size="21" x="491.766" y="117">Identification Phase</tspan><tspan x="-30.2264" y="-233">32 sensor values</tspan></text><path d="M516.5 214C516.5 202.678 525.678 193.5 537 193.5L700 193.5C711.322 193.5 720.5 202.678 720.5 214L720.5 214C720.5 225.322 711.322 234.5 700 234.5L537 234.5C525.678 234.5 516.5 225.322 516.5 214Z" stroke="#000000" stroke-width="1.33333" stroke-miterlimit="8" fill="none" fill-rule="evenodd"/><text fill="#FF0000" font-family="Yu Gothic,Yu Gothic_MSFontService,sans-serif" font-weight="400" font-size="21" transform="translate(197.889 557)">Learning Phase</text><rect x="806.5" y="455.5" width="122" height="40" stroke="#000000" stroke-width="1.33333" stroke-miterlimit="8" fill="none"/><text font-family="Yu Gothic,Yu Gothic_MSFontService,sans-serif" font-weight="400" font-size="24" transform="translate(817.303 483)">Identifier</text></g></svg>