<svg width="888" height="416" xmlns="http://www.w3.org/2000/svg" xmlns:xlink="http://www.w3.org/1999/xlink" overflow="hidden"><defs><clipPath id="clip0"><path d="M126 160 1014 160 1014 576 126 576Z" fill-rule="evenodd" clip-rule="evenodd"/></clipPath></defs><g clip-path="url(#clip0)" transform="translate(-126 -160)"><text fill="#FF0000" font-family="Yu Gothic,Yu Gothic_MSFontService,sans-serif" font-weight="400" font-size="21" transform="translate(248.863 557)">Learning Phase</text><path d="M395.5 437.333C395.5 446.63 340.431 454.167 272.5 454.167 204.569 454.167 149.5 446.63 149.5 437.333" stroke="#000000" stroke-width="1.33333" stroke-miterlimit="8" fill="none" fill-rule="evenodd"/><path d="M149.5 437.333C149.5 428.037 204.569 420.5 272.5 420.5 340.431 420.5 395.5 428.037 395.5 437.333L395.5 504.667C395.5 513.964 340.431 521.5 272.5 521.5 204.569 521.5 149.5 513.964 149.5 504.667Z" stroke="#000000" stroke-width="1.33333" stroke-miterlimit="8" fill="none" fill-rule="evenodd"/><text font-family="Yu Gothic,Yu Gothic_MSFontService,sans-serif" font-weight="400" font-size="24" transform="translate(162.895 481)">Training data set of <tspan x="42.7467" y="29">the wearers</tspan></text><path d="M131.5 214C131.5 185.005 194.628 161.5 272.5 161.5 350.372 161.5 413.5 185.005 413.5 214 413.5 242.995 350.372 266.5 272.5 266.5 194.628 266.5 131.5 242.995 131.5 214Z" stroke="#000000" stroke-width="1.33333" stroke-miterlimit="8" fill="none" fill-rule="evenodd"/><text font-family="Yu Gothic,Yu Gothic_MSFontService,sans-serif" font-weight="400" font-size="24" transform="translate(146.145 214)">32 pressure sensors in <tspan x="65.5" y="29">the helmet</tspan></text><rect x="131.5" y="408.5" width="282" height="159" stroke="#FF0000" stroke-width="1.33333" stroke-miterlimit="8" stroke-dasharray="5.33333 4" fill="none"/><rect x="529.5" y="390.5" width="482" height="177" stroke="#000000" stroke-width="1.33333" stroke-miterlimit="8" stroke-dasharray="5.33333 4" fill="none"/><path d="M413.5 212.833 560.218 212.833 560.218 214.167 413.5 214.167ZM558.885 209.5 566.885 213.5 558.885 217.5Z"/><rect x="829.5" y="455.5" width="116" height="39" stroke="#000000" stroke-width="1.33333" stroke-miterlimit="8" fill="none"/><text font-family="Yu Gothic,Yu Gothic_MSFontService,sans-serif" font-weight="400" font-size="24" transform="translate(852.221 482)">Result</text><path d="M730.502 473.833 822.862 474.155 822.858 475.489 730.498 475.167ZM821.541 470.818 829.527 474.845 821.513 478.817Z"/><path d="M395.5 474.833 601.065 474.833 601.065 476.167 395.5 476.167ZM599.732 471.5 607.732 475.5 599.732 479.5Z"/><path d="M0.666667-0.000284331 0.757891 213.893-0.575442 213.894-0.666667 0.000284331ZM4.09066 212.558 0.0940682 220.56-3.90934 212.562Z" transform="matrix(-1 -8.74228e-08 -8.74228e-08 1 669.594 234.5)"/><text font-family="Yu Gothic,Yu Gothic_MSFontService,sans-serif" font-weight="400" font-size="24" transform="translate(576.485 221)">32 sensor values</text><path d="M567.5 214C567.5 202.678 576.678 193.5 588 193.5L751 193.5C762.322 193.5 771.5 202.678 771.5 214L771.5 214C771.5 225.322 762.322 234.5 751 234.5L588 234.5C576.678 234.5 567.5 225.322 567.5 214Z" stroke="#000000" stroke-width="1.33333" stroke-miterlimit="8" fill="none" fill-rule="evenodd"/><rect x="608.5" y="454.5" width="122" height="39" stroke="#000000" stroke-width="1.33333" stroke-miterlimit="8" fill="none"/><text font-family="Yu Gothic,Yu Gothic_MSFontService,sans-serif" font-weight="400" font-size="24" transform="translate(619.058 481)">Identifier<tspan font-size="21" x="184.648" y="76">Identification Phase</tspan></text></g></svg>