<?xml version="1.0" encoding="utf-8" standalone="no"?>
<!DOCTYPE svg PUBLIC "-//W3C//DTD SVG 1.1//EN"
  "http://www.w3.org/Graphics/SVG/1.1/DTD/svg11.dtd">
<!-- Created with matplotlib (https://matplotlib.org/) -->
<svg height="345.6pt" version="1.1" viewBox="0 0 460.8 345.6" width="460.8pt" xmlns="http://www.w3.org/2000/svg" xmlns:xlink="http://www.w3.org/1999/xlink">
 <defs>
  <style type="text/css">
*{stroke-linecap:butt;stroke-linejoin:round;}
  </style>
 </defs>
 <g id="figure_1">
  <g id="patch_1">
   <path d="M 0 345.6 
L 460.8 345.6 
L 460.8 0 
L 0 0 
z
" style="fill:#ffffff;"/>
  </g>
  <g id="axes_1">
   <g id="patch_2">
    <path d="M 57.6 307.584 
L 359.424 307.584 
L 359.424 41.472 
L 57.6 41.472 
z
" style="fill:#ffffff;"/>
   </g>
   <g id="PathCollection_1">
    <defs>
     <path d="M 0 3 
C 0.795609 3 1.55874 2.683901 2.12132 2.12132 
C 2.683901 1.55874 3 0.795609 3 0 
C 3 -0.795609 2.683901 -1.55874 2.12132 -2.12132 
C 1.55874 -2.683901 0.795609 -3 0 -3 
C -0.795609 -3 -1.55874 -2.683901 -2.12132 -2.12132 
C -2.683901 -1.55874 -3 -0.795609 -3 0 
C -3 0.795609 -2.683901 1.55874 -2.12132 2.12132 
C -1.55874 2.683901 -0.795609 3 0 3 
z
" id="mc80f87037c" style="stroke:#1f77b4;"/>
    </defs>
    <g clip-path="url(#p8107b7a7ff)">
     <use style="fill:#1f77b4;stroke:#1f77b4;" x="306.868306" xlink:href="#mc80f87037c" y="110.225238"/>
     <use style="fill:#1f77b4;stroke:#1f77b4;" x="295.370616" xlink:href="#mc80f87037c" y="120.533712"/>
     <use style="fill:#1f77b4;stroke:#1f77b4;" x="292.490139" xlink:href="#mc80f87037c" y="104.340558"/>
     <use style="fill:#1f77b4;stroke:#1f77b4;" x="291.827947" xlink:href="#mc80f87037c" y="126.336059"/>
     <use style="fill:#1f77b4;stroke:#1f77b4;" x="268.94013" xlink:href="#mc80f87037c" y="81.968181"/>
     <use style="fill:#1f77b4;stroke:#1f77b4;" x="294.64222" xlink:href="#mc80f87037c" y="109.777354"/>
     <use style="fill:#1f77b4;stroke:#1f77b4;" x="315.345124" xlink:href="#mc80f87037c" y="129.510008"/>
     <use style="fill:#1f77b4;stroke:#1f77b4;" x="306.575197" xlink:href="#mc80f87037c" y="118.547027"/>
     <use style="fill:#1f77b4;stroke:#1f77b4;" x="307.2671" xlink:href="#mc80f87037c" y="137.232214"/>
     <use style="fill:#1f77b4;stroke:#1f77b4;" x="305.55957" xlink:href="#mc80f87037c" y="126.347577"/>
     <use style="fill:#1f77b4;stroke:#1f77b4;" x="300.58443" xlink:href="#mc80f87037c" y="116.270943"/>
     <use style="fill:#1f77b4;stroke:#1f77b4;" x="300.366599" xlink:href="#mc80f87037c" y="138.745959"/>
     <use style="fill:#1f77b4;stroke:#1f77b4;" x="302.040657" xlink:href="#mc80f87037c" y="124.233499"/>
     <use style="fill:#1f77b4;stroke:#1f77b4;" x="292.926515" xlink:href="#mc80f87037c" y="103.671829"/>
     <use style="fill:#1f77b4;stroke:#1f77b4;" x="295.006789" xlink:href="#mc80f87037c" y="88.394464"/>
     <use style="fill:#1f77b4;stroke:#1f77b4;" x="280.117197" xlink:href="#mc80f87037c" y="88.194561"/>
     <use style="fill:#1f77b4;stroke:#1f77b4;" x="302.741739" xlink:href="#mc80f87037c" y="117.981706"/>
     <use style="fill:#1f77b4;stroke:#1f77b4;" x="297.903502" xlink:href="#mc80f87037c" y="110.890735"/>
     <use style="fill:#1f77b4;stroke:#1f77b4;" x="300.726544" xlink:href="#mc80f87037c" y="123.976042"/>
     <use style="fill:#1f77b4;stroke:#1f77b4;" x="308.073492" xlink:href="#mc80f87037c" y="124.32268"/>
    </g>
   </g>
   <g id="PathCollection_2">
    <defs>
     <path d="M -2.99994 2.99994 
L 3.00006 2.99994 
L 3.00006 -3.00006 
L -2.99994 -3.00006 
z
" id="m1c07353ea4" style="stroke:#ff7f0e;"/>
    </defs>
    <g clip-path="url(#p8107b7a7ff)">
     <use style="fill:#ff7f0e;stroke:#ff7f0e;" x="111.177453" xlink:href="#m1c07353ea4" y="195.86477"/>
     <use style="fill:#ff7f0e;stroke:#ff7f0e;" x="111.25598" xlink:href="#m1c07353ea4" y="197.376295"/>
     <use style="fill:#ff7f0e;stroke:#ff7f0e;" x="130.684641" xlink:href="#m1c07353ea4" y="209.193834"/>
     <use style="fill:#ff7f0e;stroke:#ff7f0e;" x="151.413064" xlink:href="#m1c07353ea4" y="226.082813"/>
     <use style="fill:#ff7f0e;stroke:#ff7f0e;" x="108.406235" xlink:href="#m1c07353ea4" y="191.053227"/>
     <use style="fill:#ff7f0e;stroke:#ff7f0e;" x="111.338537" xlink:href="#m1c07353ea4" y="198.799653"/>
     <use style="fill:#ff7f0e;stroke:#ff7f0e;" x="117.49568" xlink:href="#m1c07353ea4" y="212.267396"/>
     <use style="fill:#ff7f0e;stroke:#ff7f0e;" x="118.764433" xlink:href="#m1c07353ea4" y="210.155232"/>
     <use style="fill:#ff7f0e;stroke:#ff7f0e;" x="118.236776" xlink:href="#m1c07353ea4" y="218.978436"/>
     <use style="fill:#ff7f0e;stroke:#ff7f0e;" x="120.836929" xlink:href="#m1c07353ea4" y="207.434854"/>
     <use style="fill:#ff7f0e;stroke:#ff7f0e;" x="126.892732" xlink:href="#m1c07353ea4" y="208.990122"/>
     <use style="fill:#ff7f0e;stroke:#ff7f0e;" x="121.34053" xlink:href="#m1c07353ea4" y="205.623568"/>
     <use style="fill:#ff7f0e;stroke:#ff7f0e;" x="124.199574" xlink:href="#m1c07353ea4" y="205.338779"/>
     <use style="fill:#ff7f0e;stroke:#ff7f0e;" x="108.226344" xlink:href="#m1c07353ea4" y="201.132464"/>
     <use style="fill:#ff7f0e;stroke:#ff7f0e;" x="112.677984" xlink:href="#m1c07353ea4" y="205.950453"/>
     <use style="fill:#ff7f0e;stroke:#ff7f0e;" x="117.634039" xlink:href="#m1c07353ea4" y="204.439833"/>
     <use style="fill:#ff7f0e;stroke:#ff7f0e;" x="158.822947" xlink:href="#m1c07353ea4" y="227.49463"/>
     <use style="fill:#ff7f0e;stroke:#ff7f0e;" x="136.533426" xlink:href="#m1c07353ea4" y="212.206062"/>
     <use style="fill:#ff7f0e;stroke:#ff7f0e;" x="131.072572" xlink:href="#m1c07353ea4" y="210.017151"/>
     <use style="fill:#ff7f0e;stroke:#ff7f0e;" x="128.61606" xlink:href="#m1c07353ea4" y="208.342851"/>
    </g>
   </g>
   <g id="PathCollection_3">
    <defs>
     <path d="M 0 -3 
L -3 3 
L 3 3 
z
" id="m8d1cba88d1" style="stroke:#2ca02c;"/>
    </defs>
    <g clip-path="url(#p8107b7a7ff)">
     <use style="fill:#2ca02c;stroke:#2ca02c;" x="255.258209" xlink:href="#m8d1cba88d1" y="274.732863"/>
     <use style="fill:#2ca02c;stroke:#2ca02c;" x="213.47533" xlink:href="#m8d1cba88d1" y="279.46848"/>
     <use style="fill:#2ca02c;stroke:#2ca02c;" x="112.891028" xlink:href="#m8d1cba88d1" y="258.268387"/>
     <use style="fill:#2ca02c;stroke:#2ca02c;" x="168.360051" xlink:href="#m8d1cba88d1" y="294.18169"/>
     <use style="fill:#2ca02c;stroke:#2ca02c;" x="140.911195" xlink:href="#m8d1cba88d1" y="287.446469"/>
     <use style="fill:#2ca02c;stroke:#2ca02c;" x="149.841629" xlink:href="#m8d1cba88d1" y="288.937707"/>
     <use style="fill:#2ca02c;stroke:#2ca02c;" x="204.027225" xlink:href="#m8d1cba88d1" y="291.354931"/>
     <use style="fill:#2ca02c;stroke:#2ca02c;" x="186.275566" xlink:href="#m8d1cba88d1" y="288.995357"/>
     <use style="fill:#2ca02c;stroke:#2ca02c;" x="196.308761" xlink:href="#m8d1cba88d1" y="285.232527"/>
     <use style="fill:#2ca02c;stroke:#2ca02c;" x="147.932546" xlink:href="#m8d1cba88d1" y="273.734996"/>
     <use style="fill:#2ca02c;stroke:#2ca02c;" x="158.712977" xlink:href="#m8d1cba88d1" y="282.245571"/>
     <use style="fill:#2ca02c;stroke:#2ca02c;" x="186.35958" xlink:href="#m8d1cba88d1" y="282.931003"/>
     <use style="fill:#2ca02c;stroke:#2ca02c;" x="197.66937" xlink:href="#m8d1cba88d1" y="274.930279"/>
     <use style="fill:#2ca02c;stroke:#2ca02c;" x="195.546964" xlink:href="#m8d1cba88d1" y="264.480758"/>
     <use style="fill:#2ca02c;stroke:#2ca02c;" x="210.039355" xlink:href="#m8d1cba88d1" y="271.437769"/>
     <use style="fill:#2ca02c;stroke:#2ca02c;" x="210.469784" xlink:href="#m8d1cba88d1" y="284.491634"/>
     <use style="fill:#2ca02c;stroke:#2ca02c;" x="185.685343" xlink:href="#m8d1cba88d1" y="279.687149"/>
     <use style="fill:#2ca02c;stroke:#2ca02c;" x="196.332548" xlink:href="#m8d1cba88d1" y="275.290513"/>
     <use style="fill:#2ca02c;stroke:#2ca02c;" x="227.164408" xlink:href="#m8d1cba88d1" y="276.145468"/>
     <use style="fill:#2ca02c;stroke:#2ca02c;" x="228.245702" xlink:href="#m8d1cba88d1" y="267.112917"/>
    </g>
   </g>
   <g id="PathCollection_4">
    <defs>
     <path d="M 0 -3 
L -0.673542 -0.927051 
L -2.85317 -0.927051 
L -1.089814 0.354102 
L -1.763356 2.427051 
L -0 1.145898 
L 1.763356 2.427051 
L 1.089814 0.354102 
L 2.85317 -0.927051 
L 0.673542 -0.927051 
z
" id="m6cb8e66d0a" style="stroke:#d62728;"/>
    </defs>
    <g clip-path="url(#p8107b7a7ff)">
     <use style="fill:#d62728;stroke:#d62728;" x="115.798321" xlink:href="#m6cb8e66d0a" y="154.590994"/>
     <use style="fill:#d62728;stroke:#d62728;" x="111.442527" xlink:href="#m6cb8e66d0a" y="153.2468"/>
     <use style="fill:#d62728;stroke:#d62728;" x="123.832328" xlink:href="#m6cb8e66d0a" y="143.994928"/>
     <use style="fill:#d62728;stroke:#d62728;" x="124.009184" xlink:href="#m6cb8e66d0a" y="147.249904"/>
     <use style="fill:#d62728;stroke:#d62728;" x="118.219352" xlink:href="#m6cb8e66d0a" y="148.678358"/>
     <use style="fill:#d62728;stroke:#d62728;" x="131.920651" xlink:href="#m6cb8e66d0a" y="135.995848"/>
     <use style="fill:#d62728;stroke:#d62728;" x="128.696338" xlink:href="#m6cb8e66d0a" y="143.49243"/>
     <use style="fill:#d62728;stroke:#d62728;" x="124.764665" xlink:href="#m6cb8e66d0a" y="143.006445"/>
     <use style="fill:#d62728;stroke:#d62728;" x="120.699424" xlink:href="#m6cb8e66d0a" y="134.860873"/>
     <use style="fill:#d62728;stroke:#d62728;" x="148.450325" xlink:href="#m6cb8e66d0a" y="150.840867"/>
     <use style="fill:#d62728;stroke:#d62728;" x="127.694362" xlink:href="#m6cb8e66d0a" y="140.272108"/>
     <use style="fill:#d62728;stroke:#d62728;" x="122.607534" xlink:href="#m6cb8e66d0a" y="143.844441"/>
     <use style="fill:#d62728;stroke:#d62728;" x="147.467856" xlink:href="#m6cb8e66d0a" y="149.568561"/>
     <use style="fill:#d62728;stroke:#d62728;" x="139.228546" xlink:href="#m6cb8e66d0a" y="145.138468"/>
     <use style="fill:#d62728;stroke:#d62728;" x="151.763997" xlink:href="#m6cb8e66d0a" y="146.593142"/>
     <use style="fill:#d62728;stroke:#d62728;" x="123.23682" xlink:href="#m6cb8e66d0a" y="141.169999"/>
     <use style="fill:#d62728;stroke:#d62728;" x="125.392835" xlink:href="#m6cb8e66d0a" y="143.372216"/>
     <use style="fill:#d62728;stroke:#d62728;" x="128.064459" xlink:href="#m6cb8e66d0a" y="153.205659"/>
     <use style="fill:#d62728;stroke:#d62728;" x="112.864546" xlink:href="#m6cb8e66d0a" y="136.191337"/>
     <use style="fill:#d62728;stroke:#d62728;" x="147.034439" xlink:href="#m6cb8e66d0a" y="147.170472"/>
    </g>
   </g>
   <g id="PathCollection_5">
    <defs>
     <path d="M -0 3 
L 3 -3 
L -3 -3 
z
" id="maa7d4984ab" style="stroke:#9467bd;"/>
    </defs>
    <g clip-path="url(#p8107b7a7ff)">
     <use style="fill:#9467bd;stroke:#9467bd;" x="338.904844" xlink:href="#maa7d4984ab" y="176.792945"/>
     <use style="fill:#9467bd;stroke:#9467bd;" x="340.050947" xlink:href="#maa7d4984ab" y="170.230441"/>
     <use style="fill:#9467bd;stroke:#9467bd;" x="339.141698" xlink:href="#maa7d4984ab" y="173.218556"/>
     <use style="fill:#9467bd;stroke:#9467bd;" x="339.245759" xlink:href="#maa7d4984ab" y="186.812077"/>
     <use style="fill:#9467bd;stroke:#9467bd;" x="334.234389" xlink:href="#maa7d4984ab" y="173.336692"/>
     <use style="fill:#9467bd;stroke:#9467bd;" x="338.680776" xlink:href="#maa7d4984ab" y="158.923318"/>
     <use style="fill:#9467bd;stroke:#9467bd;" x="328.625469" xlink:href="#maa7d4984ab" y="173.301883"/>
     <use style="fill:#9467bd;stroke:#9467bd;" x="337.678103" xlink:href="#maa7d4984ab" y="189.683596"/>
     <use style="fill:#9467bd;stroke:#9467bd;" x="333.985174" xlink:href="#maa7d4984ab" y="185.156697"/>
     <use style="fill:#9467bd;stroke:#9467bd;" x="337.442616" xlink:href="#maa7d4984ab" y="187.738136"/>
     <use style="fill:#9467bd;stroke:#9467bd;" x="334.997573" xlink:href="#maa7d4984ab" y="183.150624"/>
     <use style="fill:#9467bd;stroke:#9467bd;" x="337.319511" xlink:href="#maa7d4984ab" y="179.093862"/>
     <use style="fill:#9467bd;stroke:#9467bd;" x="339.517824" xlink:href="#maa7d4984ab" y="176.413766"/>
     <use style="fill:#9467bd;stroke:#9467bd;" x="343.71147" xlink:href="#maa7d4984ab" y="183.393044"/>
     <use style="fill:#9467bd;stroke:#9467bd;" x="331.739299" xlink:href="#maa7d4984ab" y="165.747682"/>
     <use style="fill:#9467bd;stroke:#9467bd;" x="342.123706" xlink:href="#maa7d4984ab" y="183.671651"/>
     <use style="fill:#9467bd;stroke:#9467bd;" x="335.401055" xlink:href="#maa7d4984ab" y="169.215029"/>
     <use style="fill:#9467bd;stroke:#9467bd;" x="344.323447" xlink:href="#maa7d4984ab" y="181.58587"/>
     <use style="fill:#9467bd;stroke:#9467bd;" x="335.056842" xlink:href="#maa7d4984ab" y="160.586898"/>
     <use style="fill:#9467bd;stroke:#9467bd;" x="341.934279" xlink:href="#maa7d4984ab" y="187.969275"/>
    </g>
   </g>
   <g id="PathCollection_6">
    <defs>
     <path d="M 0 0 
L 0 3 
M 0 0 
L 2.4 -1.5 
M 0 0 
L -2.4 -1.5 
" id="ma60cd3ad18" style="stroke:#8c564b;stroke-width:1.5;"/>
    </defs>
    <g clip-path="url(#p8107b7a7ff)">
     <use style="fill:#8c564b;stroke:#8c564b;stroke-width:1.5;" x="263.903892" xlink:href="#ma60cd3ad18" y="228.099218"/>
     <use style="fill:#8c564b;stroke:#8c564b;stroke-width:1.5;" x="215.759397" xlink:href="#ma60cd3ad18" y="199.766828"/>
     <use style="fill:#8c564b;stroke:#8c564b;stroke-width:1.5;" x="240.034973" xlink:href="#ma60cd3ad18" y="206.239899"/>
     <use style="fill:#8c564b;stroke:#8c564b;stroke-width:1.5;" x="237.255748" xlink:href="#ma60cd3ad18" y="196.084375"/>
     <use style="fill:#8c564b;stroke:#8c564b;stroke-width:1.5;" x="238.425972" xlink:href="#ma60cd3ad18" y="199.107402"/>
     <use style="fill:#8c564b;stroke:#8c564b;stroke-width:1.5;" x="217.083945" xlink:href="#ma60cd3ad18" y="200.453567"/>
     <use style="fill:#8c564b;stroke:#8c564b;stroke-width:1.5;" x="225.133875" xlink:href="#ma60cd3ad18" y="223.773498"/>
     <use style="fill:#8c564b;stroke:#8c564b;stroke-width:1.5;" x="215.733154" xlink:href="#ma60cd3ad18" y="205.936028"/>
     <use style="fill:#8c564b;stroke:#8c564b;stroke-width:1.5;" x="174.116308" xlink:href="#ma60cd3ad18" y="206.65174"/>
     <use style="fill:#8c564b;stroke:#8c564b;stroke-width:1.5;" x="166.822564" xlink:href="#ma60cd3ad18" y="202.451349"/>
     <use style="fill:#8c564b;stroke:#8c564b;stroke-width:1.5;" x="207.608667" xlink:href="#ma60cd3ad18" y="216.465655"/>
     <use style="fill:#8c564b;stroke:#8c564b;stroke-width:1.5;" x="209.58983" xlink:href="#ma60cd3ad18" y="211.684935"/>
     <use style="fill:#8c564b;stroke:#8c564b;stroke-width:1.5;" x="197.458263" xlink:href="#ma60cd3ad18" y="203.988556"/>
     <use style="fill:#8c564b;stroke:#8c564b;stroke-width:1.5;" x="172.227428" xlink:href="#ma60cd3ad18" y="200.717234"/>
     <use style="fill:#8c564b;stroke:#8c564b;stroke-width:1.5;" x="197.125867" xlink:href="#ma60cd3ad18" y="239.99793"/>
     <use style="fill:#8c564b;stroke:#8c564b;stroke-width:1.5;" x="178.373092" xlink:href="#ma60cd3ad18" y="216.509621"/>
     <use style="fill:#8c564b;stroke:#8c564b;stroke-width:1.5;" x="181.406633" xlink:href="#ma60cd3ad18" y="211.710429"/>
     <use style="fill:#8c564b;stroke:#8c564b;stroke-width:1.5;" x="189.470035" xlink:href="#ma60cd3ad18" y="215.904061"/>
     <use style="fill:#8c564b;stroke:#8c564b;stroke-width:1.5;" x="195.718222" xlink:href="#ma60cd3ad18" y="230.188643"/>
     <use style="fill:#8c564b;stroke:#8c564b;stroke-width:1.5;" x="189.077921" xlink:href="#ma60cd3ad18" y="221.454574"/>
    </g>
   </g>
   <g id="PathCollection_7">
    <defs>
     <path d="M 0 -3 
L -2.85317 -0.927051 
L -1.763356 2.427051 
L 1.763356 2.427051 
L 2.85317 -0.927051 
z
" id="m22c8b2c85a" style="stroke:#e377c2;"/>
    </defs>
    <g clip-path="url(#p8107b7a7ff)">
     <use style="fill:#e377c2;stroke:#e377c2;" x="72.823908" xlink:href="#m22c8b2c85a" y="63.4099"/>
     <use style="fill:#e377c2;stroke:#e377c2;" x="77.660388" xlink:href="#m22c8b2c85a" y="61.391386"/>
     <use style="fill:#e377c2;stroke:#e377c2;" x="79.683594" xlink:href="#m22c8b2c85a" y="62.040575"/>
     <use style="fill:#e377c2;stroke:#e377c2;" x="79.75387" xlink:href="#m22c8b2c85a" y="55.476825"/>
     <use style="fill:#e377c2;stroke:#e377c2;" x="87.693969" xlink:href="#m22c8b2c85a" y="60.35385"/>
     <use style="fill:#e377c2;stroke:#e377c2;" x="76.156072" xlink:href="#m22c8b2c85a" y="57.667152"/>
     <use style="fill:#e377c2;stroke:#e377c2;" x="100.988847" xlink:href="#m22c8b2c85a" y="73.716939"/>
     <use style="fill:#e377c2;stroke:#e377c2;" x="78.797051" xlink:href="#m22c8b2c85a" y="56.183004"/>
     <use style="fill:#e377c2;stroke:#e377c2;" x="101.031132" xlink:href="#m22c8b2c85a" y="70.135132"/>
     <use style="fill:#e377c2;stroke:#e377c2;" x="125.827213" xlink:href="#m22c8b2c85a" y="89.779956"/>
     <use style="fill:#e377c2;stroke:#e377c2;" x="137.859902" xlink:href="#m22c8b2c85a" y="117.100947"/>
     <use style="fill:#e377c2;stroke:#e377c2;" x="122.07861" xlink:href="#m22c8b2c85a" y="104.431113"/>
     <use style="fill:#e377c2;stroke:#e377c2;" x="107.394543" xlink:href="#m22c8b2c85a" y="90.252015"/>
     <use style="fill:#e377c2;stroke:#e377c2;" x="115.44808" xlink:href="#m22c8b2c85a" y="89.898685"/>
     <use style="fill:#e377c2;stroke:#e377c2;" x="102.890483" xlink:href="#m22c8b2c85a" y="89.273965"/>
     <use style="fill:#e377c2;stroke:#e377c2;" x="97.491255" xlink:href="#m22c8b2c85a" y="89.004139"/>
     <use style="fill:#e377c2;stroke:#e377c2;" x="114.586648" xlink:href="#m22c8b2c85a" y="93.909558"/>
     <use style="fill:#e377c2;stroke:#e377c2;" x="121.671416" xlink:href="#m22c8b2c85a" y="100.750878"/>
     <use style="fill:#e377c2;stroke:#e377c2;" x="107.691957" xlink:href="#m22c8b2c85a" y="92.188643"/>
     <use style="fill:#e377c2;stroke:#e377c2;" x="109.973393" xlink:href="#m22c8b2c85a" y="95.316384"/>
    </g>
   </g>
   <g id="PathCollection_8">
    <defs>
     <path d="M 0 4.242641 
L 4.242641 0 
L 0 -4.242641 
L -4.242641 0 
z
" id="m40ccff271d" style="stroke:#7f7f7f;"/>
    </defs>
    <g clip-path="url(#p8107b7a7ff)">
     <use style="fill:#7f7f7f;stroke:#7f7f7f;" x="158.394663" xlink:href="#m40ccff271d" y="148.975387"/>
     <use style="fill:#7f7f7f;stroke:#7f7f7f;" x="159.448541" xlink:href="#m40ccff271d" y="174.239139"/>
     <use style="fill:#7f7f7f;stroke:#7f7f7f;" x="154.750088" xlink:href="#m40ccff271d" y="140.023688"/>
     <use style="fill:#7f7f7f;stroke:#7f7f7f;" x="161.147279" xlink:href="#m40ccff271d" y="151.286562"/>
     <use style="fill:#7f7f7f;stroke:#7f7f7f;" x="137.499625" xlink:href="#m40ccff271d" y="148.978446"/>
     <use style="fill:#7f7f7f;stroke:#7f7f7f;" x="148.91873" xlink:href="#m40ccff271d" y="149.245896"/>
     <use style="fill:#7f7f7f;stroke:#7f7f7f;" x="182.733285" xlink:href="#m40ccff271d" y="147.088994"/>
     <use style="fill:#7f7f7f;stroke:#7f7f7f;" x="168.42605" xlink:href="#m40ccff271d" y="148.719248"/>
     <use style="fill:#7f7f7f;stroke:#7f7f7f;" x="173.333082" xlink:href="#m40ccff271d" y="162.804858"/>
     <use style="fill:#7f7f7f;stroke:#7f7f7f;" x="141.639594" xlink:href="#m40ccff271d" y="156.73889"/>
     <use style="fill:#7f7f7f;stroke:#7f7f7f;" x="150.985785" xlink:href="#m40ccff271d" y="155.760213"/>
     <use style="fill:#7f7f7f;stroke:#7f7f7f;" x="150.076575" xlink:href="#m40ccff271d" y="145.551645"/>
     <use style="fill:#7f7f7f;stroke:#7f7f7f;" x="137.284652" xlink:href="#m40ccff271d" y="150.949805"/>
     <use style="fill:#7f7f7f;stroke:#7f7f7f;" x="138.913648" xlink:href="#m40ccff271d" y="166.350272"/>
     <use style="fill:#7f7f7f;stroke:#7f7f7f;" x="122.796583" xlink:href="#m40ccff271d" y="152.51988"/>
     <use style="fill:#7f7f7f;stroke:#7f7f7f;" x="149.565632" xlink:href="#m40ccff271d" y="150.172428"/>
     <use style="fill:#7f7f7f;stroke:#7f7f7f;" x="168.726953" xlink:href="#m40ccff271d" y="156.107863"/>
     <use style="fill:#7f7f7f;stroke:#7f7f7f;" x="145.377132" xlink:href="#m40ccff271d" y="156.191326"/>
     <use style="fill:#7f7f7f;stroke:#7f7f7f;" x="166.745544" xlink:href="#m40ccff271d" y="151.656891"/>
     <use style="fill:#7f7f7f;stroke:#7f7f7f;" x="144.441102" xlink:href="#m40ccff271d" y="149.381944"/>
    </g>
   </g>
   <g id="PathCollection_9">
    <defs>
     <path d="M -3 3 
L 3 -3 
M -3 -3 
L 3 3 
" id="mcbd038ffea" style="stroke:#bcbd22;stroke-width:1.5;"/>
    </defs>
    <g clip-path="url(#p8107b7a7ff)">
     <use style="fill:#bcbd22;stroke:#bcbd22;stroke-width:1.5;" x="107.277162" xlink:href="#mcbd038ffea" y="250.538523"/>
     <use style="fill:#bcbd22;stroke:#bcbd22;stroke-width:1.5;" x="115.19783" xlink:href="#mcbd038ffea" y="243.067508"/>
     <use style="fill:#bcbd22;stroke:#bcbd22;stroke-width:1.5;" x="100.244438" xlink:href="#mcbd038ffea" y="227.38285"/>
     <use style="fill:#bcbd22;stroke:#bcbd22;stroke-width:1.5;" x="96.924231" xlink:href="#mcbd038ffea" y="208.425546"/>
     <use style="fill:#bcbd22;stroke:#bcbd22;stroke-width:1.5;" x="95.376158" xlink:href="#mcbd038ffea" y="215.751566"/>
     <use style="fill:#bcbd22;stroke:#bcbd22;stroke-width:1.5;" x="87.024619" xlink:href="#mcbd038ffea" y="216.539307"/>
     <use style="fill:#bcbd22;stroke:#bcbd22;stroke-width:1.5;" x="102.346455" xlink:href="#mcbd038ffea" y="222.91066"/>
     <use style="fill:#bcbd22;stroke:#bcbd22;stroke-width:1.5;" x="96.936138" xlink:href="#mcbd038ffea" y="224.138377"/>
     <use style="fill:#bcbd22;stroke:#bcbd22;stroke-width:1.5;" x="100.272975" xlink:href="#mcbd038ffea" y="233.767768"/>
     <use style="fill:#bcbd22;stroke:#bcbd22;stroke-width:1.5;" x="104.106032" xlink:href="#mcbd038ffea" y="197.254682"/>
     <use style="fill:#bcbd22;stroke:#bcbd22;stroke-width:1.5;" x="110.030822" xlink:href="#mcbd038ffea" y="242.212169"/>
     <use style="fill:#bcbd22;stroke:#bcbd22;stroke-width:1.5;" x="112.518624" xlink:href="#mcbd038ffea" y="232.230671"/>
     <use style="fill:#bcbd22;stroke:#bcbd22;stroke-width:1.5;" x="103.753752" xlink:href="#mcbd038ffea" y="203.123314"/>
     <use style="fill:#bcbd22;stroke:#bcbd22;stroke-width:1.5;" x="95.930268" xlink:href="#mcbd038ffea" y="208.865951"/>
     <use style="fill:#bcbd22;stroke:#bcbd22;stroke-width:1.5;" x="111.296539" xlink:href="#mcbd038ffea" y="235.830581"/>
     <use style="fill:#bcbd22;stroke:#bcbd22;stroke-width:1.5;" x="119.749697" xlink:href="#mcbd038ffea" y="220.469005"/>
     <use style="fill:#bcbd22;stroke:#bcbd22;stroke-width:1.5;" x="112.53347" xlink:href="#mcbd038ffea" y="190.210818"/>
     <use style="fill:#bcbd22;stroke:#bcbd22;stroke-width:1.5;" x="105.135481" xlink:href="#mcbd038ffea" y="205.683659"/>
     <use style="fill:#bcbd22;stroke:#bcbd22;stroke-width:1.5;" x="98.253365" xlink:href="#mcbd038ffea" y="211.130797"/>
     <use style="fill:#bcbd22;stroke:#bcbd22;stroke-width:1.5;" x="103.149559" xlink:href="#mcbd038ffea" y="198.825269"/>
    </g>
   </g>
   <g id="matplotlib.axis_1">
    <g id="xtick_1">
     <g id="line2d_1">
      <defs>
       <path d="M 0 0 
L 0 3.5 
" id="m0d37a551b5" style="stroke:#000000;stroke-width:0.8;"/>
      </defs>
      <g>
       <use style="stroke:#000000;stroke-width:0.8;" x="62.71003" xlink:href="#m0d37a551b5" y="307.584"/>
      </g>
     </g>
     <g id="text_1">
      <!-- −4 -->
      <defs>
       <path d="M 10.59375 35.5 
L 73.1875 35.5 
L 73.1875 27.203125 
L 10.59375 27.203125 
z
" id="DejaVuSans-8722"/>
       <path d="M 37.796875 64.3125 
L 12.890625 25.390625 
L 37.796875 25.390625 
z
M 35.203125 72.90625 
L 47.609375 72.90625 
L 47.609375 25.390625 
L 58.015625 25.390625 
L 58.015625 17.1875 
L 47.609375 17.1875 
L 47.609375 0 
L 37.796875 0 
L 37.796875 17.1875 
L 4.890625 17.1875 
L 4.890625 26.703125 
z
" id="DejaVuSans-52"/>
      </defs>
      <g transform="translate(52.390499 325.221812)scale(0.14 -0.14)">
       <use xlink:href="#DejaVuSans-8722"/>
       <use x="83.789062" xlink:href="#DejaVuSans-52"/>
      </g>
     </g>
    </g>
    <g id="xtick_2">
     <g id="line2d_2">
      <g>
       <use style="stroke:#000000;stroke-width:0.8;" x="122.463073" xlink:href="#m0d37a551b5" y="307.584"/>
      </g>
     </g>
     <g id="text_2">
      <!-- −2 -->
      <defs>
       <path d="M 19.1875 8.296875 
L 53.609375 8.296875 
L 53.609375 0 
L 7.328125 0 
L 7.328125 8.296875 
Q 12.9375 14.109375 22.625 23.890625 
Q 32.328125 33.6875 34.8125 36.53125 
Q 39.546875 41.84375 41.421875 45.53125 
Q 43.3125 49.21875 43.3125 52.78125 
Q 43.3125 58.59375 39.234375 62.25 
Q 35.15625 65.921875 28.609375 65.921875 
Q 23.96875 65.921875 18.8125 64.3125 
Q 13.671875 62.703125 7.8125 59.421875 
L 7.8125 69.390625 
Q 13.765625 71.78125 18.9375 73 
Q 24.125 74.21875 28.421875 74.21875 
Q 39.75 74.21875 46.484375 68.546875 
Q 53.21875 62.890625 53.21875 53.421875 
Q 53.21875 48.921875 51.53125 44.890625 
Q 49.859375 40.875 45.40625 35.40625 
Q 44.1875 33.984375 37.640625 27.21875 
Q 31.109375 20.453125 19.1875 8.296875 
z
" id="DejaVuSans-50"/>
      </defs>
      <g transform="translate(112.143542 325.221812)scale(0.14 -0.14)">
       <use xlink:href="#DejaVuSans-8722"/>
       <use x="83.789062" xlink:href="#DejaVuSans-50"/>
      </g>
     </g>
    </g>
    <g id="xtick_3">
     <g id="line2d_3">
      <g>
       <use style="stroke:#000000;stroke-width:0.8;" x="182.216116" xlink:href="#m0d37a551b5" y="307.584"/>
      </g>
     </g>
     <g id="text_3">
      <!-- 0 -->
      <defs>
       <path d="M 31.78125 66.40625 
Q 24.171875 66.40625 20.328125 58.90625 
Q 16.5 51.421875 16.5 36.375 
Q 16.5 21.390625 20.328125 13.890625 
Q 24.171875 6.390625 31.78125 6.390625 
Q 39.453125 6.390625 43.28125 13.890625 
Q 47.125 21.390625 47.125 36.375 
Q 47.125 51.421875 43.28125 58.90625 
Q 39.453125 66.40625 31.78125 66.40625 
z
M 31.78125 74.21875 
Q 44.046875 74.21875 50.515625 64.515625 
Q 56.984375 54.828125 56.984375 36.375 
Q 56.984375 17.96875 50.515625 8.265625 
Q 44.046875 -1.421875 31.78125 -1.421875 
Q 19.53125 -1.421875 13.0625 8.265625 
Q 6.59375 17.96875 6.59375 36.375 
Q 6.59375 54.828125 13.0625 64.515625 
Q 19.53125 74.21875 31.78125 74.21875 
z
" id="DejaVuSans-48"/>
      </defs>
      <g transform="translate(177.762366 325.221812)scale(0.14 -0.14)">
       <use xlink:href="#DejaVuSans-48"/>
      </g>
     </g>
    </g>
    <g id="xtick_4">
     <g id="line2d_4">
      <g>
       <use style="stroke:#000000;stroke-width:0.8;" x="241.969159" xlink:href="#m0d37a551b5" y="307.584"/>
      </g>
     </g>
     <g id="text_4">
      <!-- 2 -->
      <g transform="translate(237.515409 325.221812)scale(0.14 -0.14)">
       <use xlink:href="#DejaVuSans-50"/>
      </g>
     </g>
    </g>
    <g id="xtick_5">
     <g id="line2d_5">
      <g>
       <use style="stroke:#000000;stroke-width:0.8;" x="301.722202" xlink:href="#m0d37a551b5" y="307.584"/>
      </g>
     </g>
     <g id="text_5">
      <!-- 4 -->
      <g transform="translate(297.268452 325.221812)scale(0.14 -0.14)">
       <use xlink:href="#DejaVuSans-52"/>
      </g>
     </g>
    </g>
    <g id="text_6">
     <!-- First component -->
     <defs>
      <path d="M 9.8125 72.90625 
L 51.703125 72.90625 
L 51.703125 64.59375 
L 19.671875 64.59375 
L 19.671875 43.109375 
L 48.578125 43.109375 
L 48.578125 34.8125 
L 19.671875 34.8125 
L 19.671875 0 
L 9.8125 0 
z
" id="DejaVuSans-70"/>
      <path d="M 9.421875 54.6875 
L 18.40625 54.6875 
L 18.40625 0 
L 9.421875 0 
z
M 9.421875 75.984375 
L 18.40625 75.984375 
L 18.40625 64.59375 
L 9.421875 64.59375 
z
" id="DejaVuSans-105"/>
      <path d="M 41.109375 46.296875 
Q 39.59375 47.171875 37.8125 47.578125 
Q 36.03125 48 33.890625 48 
Q 26.265625 48 22.1875 43.046875 
Q 18.109375 38.09375 18.109375 28.8125 
L 18.109375 0 
L 9.078125 0 
L 9.078125 54.6875 
L 18.109375 54.6875 
L 18.109375 46.1875 
Q 20.953125 51.171875 25.484375 53.578125 
Q 30.03125 56 36.53125 56 
Q 37.453125 56 38.578125 55.875 
Q 39.703125 55.765625 41.0625 55.515625 
z
" id="DejaVuSans-114"/>
      <path d="M 44.28125 53.078125 
L 44.28125 44.578125 
Q 40.484375 46.53125 36.375 47.5 
Q 32.28125 48.484375 27.875 48.484375 
Q 21.1875 48.484375 17.84375 46.4375 
Q 14.5 44.390625 14.5 40.28125 
Q 14.5 37.15625 16.890625 35.375 
Q 19.28125 33.59375 26.515625 31.984375 
L 29.59375 31.296875 
Q 39.15625 29.25 43.1875 25.515625 
Q 47.21875 21.78125 47.21875 15.09375 
Q 47.21875 7.46875 41.1875 3.015625 
Q 35.15625 -1.421875 24.609375 -1.421875 
Q 20.21875 -1.421875 15.453125 -0.5625 
Q 10.6875 0.296875 5.421875 2 
L 5.421875 11.28125 
Q 10.40625 8.6875 15.234375 7.390625 
Q 20.0625 6.109375 24.8125 6.109375 
Q 31.15625 6.109375 34.5625 8.28125 
Q 37.984375 10.453125 37.984375 14.40625 
Q 37.984375 18.0625 35.515625 20.015625 
Q 33.0625 21.96875 24.703125 23.78125 
L 21.578125 24.515625 
Q 13.234375 26.265625 9.515625 29.90625 
Q 5.8125 33.546875 5.8125 39.890625 
Q 5.8125 47.609375 11.28125 51.796875 
Q 16.75 56 26.8125 56 
Q 31.78125 56 36.171875 55.265625 
Q 40.578125 54.546875 44.28125 53.078125 
z
" id="DejaVuSans-115"/>
      <path d="M 18.3125 70.21875 
L 18.3125 54.6875 
L 36.8125 54.6875 
L 36.8125 47.703125 
L 18.3125 47.703125 
L 18.3125 18.015625 
Q 18.3125 11.328125 20.140625 9.421875 
Q 21.96875 7.515625 27.59375 7.515625 
L 36.8125 7.515625 
L 36.8125 0 
L 27.59375 0 
Q 17.1875 0 13.234375 3.875 
Q 9.28125 7.765625 9.28125 18.015625 
L 9.28125 47.703125 
L 2.6875 47.703125 
L 2.6875 54.6875 
L 9.28125 54.6875 
L 9.28125 70.21875 
z
" id="DejaVuSans-116"/>
      <path id="DejaVuSans-32"/>
      <path d="M 48.78125 52.59375 
L 48.78125 44.1875 
Q 44.96875 46.296875 41.140625 47.34375 
Q 37.3125 48.390625 33.40625 48.390625 
Q 24.65625 48.390625 19.8125 42.84375 
Q 14.984375 37.3125 14.984375 27.296875 
Q 14.984375 17.28125 19.8125 11.734375 
Q 24.65625 6.203125 33.40625 6.203125 
Q 37.3125 6.203125 41.140625 7.25 
Q 44.96875 8.296875 48.78125 10.40625 
L 48.78125 2.09375 
Q 45.015625 0.34375 40.984375 -0.53125 
Q 36.96875 -1.421875 32.421875 -1.421875 
Q 20.0625 -1.421875 12.78125 6.34375 
Q 5.515625 14.109375 5.515625 27.296875 
Q 5.515625 40.671875 12.859375 48.328125 
Q 20.21875 56 33.015625 56 
Q 37.15625 56 41.109375 55.140625 
Q 45.0625 54.296875 48.78125 52.59375 
z
" id="DejaVuSans-99"/>
      <path d="M 30.609375 48.390625 
Q 23.390625 48.390625 19.1875 42.75 
Q 14.984375 37.109375 14.984375 27.296875 
Q 14.984375 17.484375 19.15625 11.84375 
Q 23.34375 6.203125 30.609375 6.203125 
Q 37.796875 6.203125 41.984375 11.859375 
Q 46.1875 17.53125 46.1875 27.296875 
Q 46.1875 37.015625 41.984375 42.703125 
Q 37.796875 48.390625 30.609375 48.390625 
z
M 30.609375 56 
Q 42.328125 56 49.015625 48.375 
Q 55.71875 40.765625 55.71875 27.296875 
Q 55.71875 13.875 49.015625 6.21875 
Q 42.328125 -1.421875 30.609375 -1.421875 
Q 18.84375 -1.421875 12.171875 6.21875 
Q 5.515625 13.875 5.515625 27.296875 
Q 5.515625 40.765625 12.171875 48.375 
Q 18.84375 56 30.609375 56 
z
" id="DejaVuSans-111"/>
      <path d="M 52 44.1875 
Q 55.375 50.25 60.0625 53.125 
Q 64.75 56 71.09375 56 
Q 79.640625 56 84.28125 50.015625 
Q 88.921875 44.046875 88.921875 33.015625 
L 88.921875 0 
L 79.890625 0 
L 79.890625 32.71875 
Q 79.890625 40.578125 77.09375 44.375 
Q 74.3125 48.1875 68.609375 48.1875 
Q 61.625 48.1875 57.5625 43.546875 
Q 53.515625 38.921875 53.515625 30.90625 
L 53.515625 0 
L 44.484375 0 
L 44.484375 32.71875 
Q 44.484375 40.625 41.703125 44.40625 
Q 38.921875 48.1875 33.109375 48.1875 
Q 26.21875 48.1875 22.15625 43.53125 
Q 18.109375 38.875 18.109375 30.90625 
L 18.109375 0 
L 9.078125 0 
L 9.078125 54.6875 
L 18.109375 54.6875 
L 18.109375 46.1875 
Q 21.1875 51.21875 25.484375 53.609375 
Q 29.78125 56 35.6875 56 
Q 41.65625 56 45.828125 52.96875 
Q 50 49.953125 52 44.1875 
z
" id="DejaVuSans-109"/>
      <path d="M 18.109375 8.203125 
L 18.109375 -20.796875 
L 9.078125 -20.796875 
L 9.078125 54.6875 
L 18.109375 54.6875 
L 18.109375 46.390625 
Q 20.953125 51.265625 25.265625 53.625 
Q 29.59375 56 35.59375 56 
Q 45.5625 56 51.78125 48.09375 
Q 58.015625 40.1875 58.015625 27.296875 
Q 58.015625 14.40625 51.78125 6.484375 
Q 45.5625 -1.421875 35.59375 -1.421875 
Q 29.59375 -1.421875 25.265625 0.953125 
Q 20.953125 3.328125 18.109375 8.203125 
z
M 48.6875 27.296875 
Q 48.6875 37.203125 44.609375 42.84375 
Q 40.53125 48.484375 33.40625 48.484375 
Q 26.265625 48.484375 22.1875 42.84375 
Q 18.109375 37.203125 18.109375 27.296875 
Q 18.109375 17.390625 22.1875 11.75 
Q 26.265625 6.109375 33.40625 6.109375 
Q 40.53125 6.109375 44.609375 11.75 
Q 48.6875 17.390625 48.6875 27.296875 
z
" id="DejaVuSans-112"/>
      <path d="M 54.890625 33.015625 
L 54.890625 0 
L 45.90625 0 
L 45.90625 32.71875 
Q 45.90625 40.484375 42.875 44.328125 
Q 39.84375 48.1875 33.796875 48.1875 
Q 26.515625 48.1875 22.3125 43.546875 
Q 18.109375 38.921875 18.109375 30.90625 
L 18.109375 0 
L 9.078125 0 
L 9.078125 54.6875 
L 18.109375 54.6875 
L 18.109375 46.1875 
Q 21.34375 51.125 25.703125 53.5625 
Q 30.078125 56 35.796875 56 
Q 45.21875 56 50.046875 50.171875 
Q 54.890625 44.34375 54.890625 33.015625 
z
" id="DejaVuSans-110"/>
      <path d="M 56.203125 29.59375 
L 56.203125 25.203125 
L 14.890625 25.203125 
Q 15.484375 15.921875 20.484375 11.0625 
Q 25.484375 6.203125 34.421875 6.203125 
Q 39.59375 6.203125 44.453125 7.46875 
Q 49.3125 8.734375 54.109375 11.28125 
L 54.109375 2.78125 
Q 49.265625 0.734375 44.1875 -0.34375 
Q 39.109375 -1.421875 33.890625 -1.421875 
Q 20.796875 -1.421875 13.15625 6.1875 
Q 5.515625 13.8125 5.515625 26.8125 
Q 5.515625 40.234375 12.765625 48.109375 
Q 20.015625 56 32.328125 56 
Q 43.359375 56 49.78125 48.890625 
Q 56.203125 41.796875 56.203125 29.59375 
z
M 47.21875 32.234375 
Q 47.125 39.59375 43.09375 43.984375 
Q 39.0625 48.390625 32.421875 48.390625 
Q 24.90625 48.390625 20.390625 44.140625 
Q 15.875 39.890625 15.1875 32.171875 
z
" id="DejaVuSans-101"/>
     </defs>
     <g transform="translate(151.454344 342.771187)scale(0.14 -0.14)">
      <use xlink:href="#DejaVuSans-70"/>
      <use x="57.410156" xlink:href="#DejaVuSans-105"/>
      <use x="85.193359" xlink:href="#DejaVuSans-114"/>
      <use x="126.306641" xlink:href="#DejaVuSans-115"/>
      <use x="178.40625" xlink:href="#DejaVuSans-116"/>
      <use x="217.615234" xlink:href="#DejaVuSans-32"/>
      <use x="249.402344" xlink:href="#DejaVuSans-99"/>
      <use x="304.382812" xlink:href="#DejaVuSans-111"/>
      <use x="365.564453" xlink:href="#DejaVuSans-109"/>
      <use x="462.976562" xlink:href="#DejaVuSans-112"/>
      <use x="526.453125" xlink:href="#DejaVuSans-111"/>
      <use x="587.634766" xlink:href="#DejaVuSans-110"/>
      <use x="651.013672" xlink:href="#DejaVuSans-101"/>
      <use x="712.537109" xlink:href="#DejaVuSans-110"/>
      <use x="775.916016" xlink:href="#DejaVuSans-116"/>
     </g>
    </g>
   </g>
   <g id="matplotlib.axis_2">
    <g id="ytick_1">
     <g id="line2d_6">
      <defs>
       <path d="M 0 0 
L -3.5 0 
" id="m7da10991a5" style="stroke:#000000;stroke-width:0.8;"/>
      </defs>
      <g>
       <use style="stroke:#000000;stroke-width:0.8;" x="57.6" xlink:href="#m7da10991a5" y="275.85209"/>
      </g>
     </g>
     <g id="text_7">
      <!-- −3 -->
      <defs>
       <path d="M 40.578125 39.3125 
Q 47.65625 37.796875 51.625 33 
Q 55.609375 28.21875 55.609375 21.1875 
Q 55.609375 10.40625 48.1875 4.484375 
Q 40.765625 -1.421875 27.09375 -1.421875 
Q 22.515625 -1.421875 17.65625 -0.515625 
Q 12.796875 0.390625 7.625 2.203125 
L 7.625 11.71875 
Q 11.71875 9.328125 16.59375 8.109375 
Q 21.484375 6.890625 26.8125 6.890625 
Q 36.078125 6.890625 40.9375 10.546875 
Q 45.796875 14.203125 45.796875 21.1875 
Q 45.796875 27.640625 41.28125 31.265625 
Q 36.765625 34.90625 28.71875 34.90625 
L 20.21875 34.90625 
L 20.21875 43.015625 
L 29.109375 43.015625 
Q 36.375 43.015625 40.234375 45.921875 
Q 44.09375 48.828125 44.09375 54.296875 
Q 44.09375 59.90625 40.109375 62.90625 
Q 36.140625 65.921875 28.71875 65.921875 
Q 24.65625 65.921875 20.015625 65.03125 
Q 15.375 64.15625 9.8125 62.3125 
L 9.8125 71.09375 
Q 15.4375 72.65625 20.34375 73.4375 
Q 25.25 74.21875 29.59375 74.21875 
Q 40.828125 74.21875 47.359375 69.109375 
Q 53.90625 64.015625 53.90625 55.328125 
Q 53.90625 49.265625 50.4375 45.09375 
Q 46.96875 40.921875 40.578125 39.3125 
z
" id="DejaVuSans-51"/>
      </defs>
      <g transform="translate(29.960938 281.170996)scale(0.14 -0.14)">
       <use xlink:href="#DejaVuSans-8722"/>
       <use x="83.789062" xlink:href="#DejaVuSans-51"/>
      </g>
     </g>
    </g>
    <g id="ytick_2">
     <g id="line2d_7">
      <g>
       <use style="stroke:#000000;stroke-width:0.8;" x="57.6" xlink:href="#m7da10991a5" y="242.768845"/>
      </g>
     </g>
     <g id="text_8">
      <!-- −2 -->
      <g transform="translate(29.960938 248.087752)scale(0.14 -0.14)">
       <use xlink:href="#DejaVuSans-8722"/>
       <use x="83.789062" xlink:href="#DejaVuSans-50"/>
      </g>
     </g>
    </g>
    <g id="ytick_3">
     <g id="line2d_8">
      <g>
       <use style="stroke:#000000;stroke-width:0.8;" x="57.6" xlink:href="#m7da10991a5" y="209.685601"/>
      </g>
     </g>
     <g id="text_9">
      <!-- −1 -->
      <defs>
       <path d="M 12.40625 8.296875 
L 28.515625 8.296875 
L 28.515625 63.921875 
L 10.984375 60.40625 
L 10.984375 69.390625 
L 28.421875 72.90625 
L 38.28125 72.90625 
L 38.28125 8.296875 
L 54.390625 8.296875 
L 54.390625 0 
L 12.40625 0 
z
" id="DejaVuSans-49"/>
      </defs>
      <g transform="translate(29.960938 215.004507)scale(0.14 -0.14)">
       <use xlink:href="#DejaVuSans-8722"/>
       <use x="83.789062" xlink:href="#DejaVuSans-49"/>
      </g>
     </g>
    </g>
    <g id="ytick_4">
     <g id="line2d_9">
      <g>
       <use style="stroke:#000000;stroke-width:0.8;" x="57.6" xlink:href="#m7da10991a5" y="176.602356"/>
      </g>
     </g>
     <g id="text_10">
      <!-- 0 -->
      <g transform="translate(41.6925 181.921262)scale(0.14 -0.14)">
       <use xlink:href="#DejaVuSans-48"/>
      </g>
     </g>
    </g>
    <g id="ytick_5">
     <g id="line2d_10">
      <g>
       <use style="stroke:#000000;stroke-width:0.8;" x="57.6" xlink:href="#m7da10991a5" y="143.519112"/>
      </g>
     </g>
     <g id="text_11">
      <!-- 1 -->
      <g transform="translate(41.6925 148.838018)scale(0.14 -0.14)">
       <use xlink:href="#DejaVuSans-49"/>
      </g>
     </g>
    </g>
    <g id="ytick_6">
     <g id="line2d_11">
      <g>
       <use style="stroke:#000000;stroke-width:0.8;" x="57.6" xlink:href="#m7da10991a5" y="110.435867"/>
      </g>
     </g>
     <g id="text_12">
      <!-- 2 -->
      <g transform="translate(41.6925 115.754773)scale(0.14 -0.14)">
       <use xlink:href="#DejaVuSans-50"/>
      </g>
     </g>
    </g>
    <g id="ytick_7">
     <g id="line2d_12">
      <g>
       <use style="stroke:#000000;stroke-width:0.8;" x="57.6" xlink:href="#m7da10991a5" y="77.352622"/>
      </g>
     </g>
     <g id="text_13">
      <!-- 3 -->
      <g transform="translate(41.6925 82.671529)scale(0.14 -0.14)">
       <use xlink:href="#DejaVuSans-51"/>
      </g>
     </g>
    </g>
    <g id="ytick_8">
     <g id="line2d_13">
      <g>
       <use style="stroke:#000000;stroke-width:0.8;" x="57.6" xlink:href="#m7da10991a5" y="44.269378"/>
      </g>
     </g>
     <g id="text_14">
      <!-- 4 -->
      <g transform="translate(41.6925 49.588284)scale(0.14 -0.14)">
       <use xlink:href="#DejaVuSans-52"/>
      </g>
     </g>
    </g>
    <g id="text_15">
     <!-- Second component -->
     <defs>
      <path d="M 53.515625 70.515625 
L 53.515625 60.890625 
Q 47.90625 63.578125 42.921875 64.890625 
Q 37.9375 66.21875 33.296875 66.21875 
Q 25.25 66.21875 20.875 63.09375 
Q 16.5 59.96875 16.5 54.203125 
Q 16.5 49.359375 19.40625 46.890625 
Q 22.3125 44.4375 30.421875 42.921875 
L 36.375 41.703125 
Q 47.40625 39.59375 52.65625 34.296875 
Q 57.90625 29 57.90625 20.125 
Q 57.90625 9.515625 50.796875 4.046875 
Q 43.703125 -1.421875 29.984375 -1.421875 
Q 24.8125 -1.421875 18.96875 -0.25 
Q 13.140625 0.921875 6.890625 3.21875 
L 6.890625 13.375 
Q 12.890625 10.015625 18.65625 8.296875 
Q 24.421875 6.59375 29.984375 6.59375 
Q 38.421875 6.59375 43.015625 9.90625 
Q 47.609375 13.234375 47.609375 19.390625 
Q 47.609375 24.75 44.3125 27.78125 
Q 41.015625 30.8125 33.5 32.328125 
L 27.484375 33.5 
Q 16.453125 35.6875 11.515625 40.375 
Q 6.59375 45.0625 6.59375 53.421875 
Q 6.59375 63.09375 13.40625 68.65625 
Q 20.21875 74.21875 32.171875 74.21875 
Q 37.3125 74.21875 42.625 73.28125 
Q 47.953125 72.359375 53.515625 70.515625 
z
" id="DejaVuSans-83"/>
      <path d="M 45.40625 46.390625 
L 45.40625 75.984375 
L 54.390625 75.984375 
L 54.390625 0 
L 45.40625 0 
L 45.40625 8.203125 
Q 42.578125 3.328125 38.25 0.953125 
Q 33.9375 -1.421875 27.875 -1.421875 
Q 17.96875 -1.421875 11.734375 6.484375 
Q 5.515625 14.40625 5.515625 27.296875 
Q 5.515625 40.1875 11.734375 48.09375 
Q 17.96875 56 27.875 56 
Q 33.9375 56 38.25 53.625 
Q 42.578125 51.265625 45.40625 46.390625 
z
M 14.796875 27.296875 
Q 14.796875 17.390625 18.875 11.75 
Q 22.953125 6.109375 30.078125 6.109375 
Q 37.203125 6.109375 41.296875 11.75 
Q 45.40625 17.390625 45.40625 27.296875 
Q 45.40625 37.203125 41.296875 42.84375 
Q 37.203125 48.484375 30.078125 48.484375 
Q 22.953125 48.484375 18.875 42.84375 
Q 14.796875 37.203125 14.796875 27.296875 
z
" id="DejaVuSans-100"/>
     </defs>
     <g transform="translate(23.049375 242.117375)rotate(-90)scale(0.14 -0.14)">
      <use xlink:href="#DejaVuSans-83"/>
      <use x="63.476562" xlink:href="#DejaVuSans-101"/>
      <use x="125" xlink:href="#DejaVuSans-99"/>
      <use x="179.980469" xlink:href="#DejaVuSans-111"/>
      <use x="241.162109" xlink:href="#DejaVuSans-110"/>
      <use x="304.541016" xlink:href="#DejaVuSans-100"/>
      <use x="368.017578" xlink:href="#DejaVuSans-32"/>
      <use x="399.804688" xlink:href="#DejaVuSans-99"/>
      <use x="454.785156" xlink:href="#DejaVuSans-111"/>
      <use x="515.966797" xlink:href="#DejaVuSans-109"/>
      <use x="613.378906" xlink:href="#DejaVuSans-112"/>
      <use x="676.855469" xlink:href="#DejaVuSans-111"/>
      <use x="738.037109" xlink:href="#DejaVuSans-110"/>
      <use x="801.416016" xlink:href="#DejaVuSans-101"/>
      <use x="862.939453" xlink:href="#DejaVuSans-110"/>
      <use x="926.318359" xlink:href="#DejaVuSans-116"/>
     </g>
    </g>
   </g>
   <g id="patch_3">
    <path d="M 57.6 307.584 
L 57.6 41.472 
" style="fill:none;stroke:#000000;stroke-linecap:square;stroke-linejoin:miter;stroke-width:0.8;"/>
   </g>
   <g id="patch_4">
    <path d="M 359.424 307.584 
L 359.424 41.472 
" style="fill:none;stroke:#000000;stroke-linecap:square;stroke-linejoin:miter;stroke-width:0.8;"/>
   </g>
   <g id="patch_5">
    <path d="M 57.6 307.584 
L 359.424 307.584 
" style="fill:none;stroke:#000000;stroke-linecap:square;stroke-linejoin:miter;stroke-width:0.8;"/>
   </g>
   <g id="patch_6">
    <path d="M 57.6 41.472 
L 359.424 41.472 
" style="fill:none;stroke:#000000;stroke-linecap:square;stroke-linejoin:miter;stroke-width:0.8;"/>
   </g>
   <g id="legend_1">
    <g id="patch_7">
     <path d="M 367.46048 176.575125 
L 447.771417 176.575125 
Q 449.771417 176.575125 449.771417 174.575125 
L 449.771417 43.472 
Q 449.771417 41.472 447.771417 41.472 
L 367.46048 41.472 
Q 365.46048 41.472 365.46048 43.472 
L 365.46048 174.575125 
Q 365.46048 176.575125 367.46048 176.575125 
z
" style="fill:#ffffff;opacity:0.8;stroke:#cccccc;stroke-linejoin:miter;"/>
    </g>
    <g id="PathCollection_10">
     <g>
      <use style="fill:#1f77b4;stroke:#1f77b4;" x="379.46048" xlink:href="#mc80f87037c" y="50.445438"/>
     </g>
    </g>
    <g id="text_16">
     <!-- Subject A -->
     <defs>
      <path d="M 8.5 21.578125 
L 8.5 54.6875 
L 17.484375 54.6875 
L 17.484375 21.921875 
Q 17.484375 14.15625 20.5 10.265625 
Q 23.53125 6.390625 29.59375 6.390625 
Q 36.859375 6.390625 41.078125 11.03125 
Q 45.3125 15.671875 45.3125 23.6875 
L 45.3125 54.6875 
L 54.296875 54.6875 
L 54.296875 0 
L 45.3125 0 
L 45.3125 8.40625 
Q 42.046875 3.421875 37.71875 1 
Q 33.40625 -1.421875 27.6875 -1.421875 
Q 18.265625 -1.421875 13.375 4.4375 
Q 8.5 10.296875 8.5 21.578125 
z
M 31.109375 56 
z
" id="DejaVuSans-117"/>
      <path d="M 48.6875 27.296875 
Q 48.6875 37.203125 44.609375 42.84375 
Q 40.53125 48.484375 33.40625 48.484375 
Q 26.265625 48.484375 22.1875 42.84375 
Q 18.109375 37.203125 18.109375 27.296875 
Q 18.109375 17.390625 22.1875 11.75 
Q 26.265625 6.109375 33.40625 6.109375 
Q 40.53125 6.109375 44.609375 11.75 
Q 48.6875 17.390625 48.6875 27.296875 
z
M 18.109375 46.390625 
Q 20.953125 51.265625 25.265625 53.625 
Q 29.59375 56 35.59375 56 
Q 45.5625 56 51.78125 48.09375 
Q 58.015625 40.1875 58.015625 27.296875 
Q 58.015625 14.40625 51.78125 6.484375 
Q 45.5625 -1.421875 35.59375 -1.421875 
Q 29.59375 -1.421875 25.265625 0.953125 
Q 20.953125 3.328125 18.109375 8.203125 
L 18.109375 0 
L 9.078125 0 
L 9.078125 75.984375 
L 18.109375 75.984375 
z
" id="DejaVuSans-98"/>
      <path d="M 9.421875 54.6875 
L 18.40625 54.6875 
L 18.40625 -0.984375 
Q 18.40625 -11.421875 14.421875 -16.109375 
Q 10.453125 -20.796875 1.609375 -20.796875 
L -1.8125 -20.796875 
L -1.8125 -13.1875 
L 0.59375 -13.1875 
Q 5.71875 -13.1875 7.5625 -10.8125 
Q 9.421875 -8.453125 9.421875 -0.984375 
z
M 9.421875 75.984375 
L 18.40625 75.984375 
L 18.40625 64.59375 
L 9.421875 64.59375 
z
" id="DejaVuSans-106"/>
      <path d="M 34.1875 63.1875 
L 20.796875 26.90625 
L 47.609375 26.90625 
z
M 28.609375 72.90625 
L 39.796875 72.90625 
L 67.578125 0 
L 57.328125 0 
L 50.6875 18.703125 
L 17.828125 18.703125 
L 11.1875 0 
L 0.78125 0 
z
" id="DejaVuSans-65"/>
     </defs>
     <g transform="translate(397.46048 53.070438)scale(0.1 -0.1)">
      <use xlink:href="#DejaVuSans-83"/>
      <use x="63.476562" xlink:href="#DejaVuSans-117"/>
      <use x="126.855469" xlink:href="#DejaVuSans-98"/>
      <use x="190.332031" xlink:href="#DejaVuSans-106"/>
      <use x="218.115234" xlink:href="#DejaVuSans-101"/>
      <use x="279.638672" xlink:href="#DejaVuSans-99"/>
      <use x="334.619141" xlink:href="#DejaVuSans-116"/>
      <use x="373.828125" xlink:href="#DejaVuSans-32"/>
      <use x="405.615234" xlink:href="#DejaVuSans-65"/>
     </g>
    </g>
    <g id="PathCollection_11">
     <g>
      <use style="fill:#ff7f0e;stroke:#ff7f0e;" x="379.46048" xlink:href="#m1c07353ea4" y="65.123563"/>
     </g>
    </g>
    <g id="text_17">
     <!-- Subject B -->
     <defs>
      <path d="M 19.671875 34.8125 
L 19.671875 8.109375 
L 35.5 8.109375 
Q 43.453125 8.109375 47.28125 11.40625 
Q 51.125 14.703125 51.125 21.484375 
Q 51.125 28.328125 47.28125 31.5625 
Q 43.453125 34.8125 35.5 34.8125 
z
M 19.671875 64.796875 
L 19.671875 42.828125 
L 34.28125 42.828125 
Q 41.5 42.828125 45.03125 45.53125 
Q 48.578125 48.25 48.578125 53.8125 
Q 48.578125 59.328125 45.03125 62.0625 
Q 41.5 64.796875 34.28125 64.796875 
z
M 9.8125 72.90625 
L 35.015625 72.90625 
Q 46.296875 72.90625 52.390625 68.21875 
Q 58.5 63.53125 58.5 54.890625 
Q 58.5 48.1875 55.375 44.234375 
Q 52.25 40.28125 46.1875 39.3125 
Q 53.46875 37.75 57.5 32.78125 
Q 61.53125 27.828125 61.53125 20.40625 
Q 61.53125 10.640625 54.890625 5.3125 
Q 48.25 0 35.984375 0 
L 9.8125 0 
z
" id="DejaVuSans-66"/>
     </defs>
     <g transform="translate(397.46048 67.748563)scale(0.1 -0.1)">
      <use xlink:href="#DejaVuSans-83"/>
      <use x="63.476562" xlink:href="#DejaVuSans-117"/>
      <use x="126.855469" xlink:href="#DejaVuSans-98"/>
      <use x="190.332031" xlink:href="#DejaVuSans-106"/>
      <use x="218.115234" xlink:href="#DejaVuSans-101"/>
      <use x="279.638672" xlink:href="#DejaVuSans-99"/>
      <use x="334.619141" xlink:href="#DejaVuSans-116"/>
      <use x="373.828125" xlink:href="#DejaVuSans-32"/>
      <use x="405.615234" xlink:href="#DejaVuSans-66"/>
     </g>
    </g>
    <g id="PathCollection_12">
     <g>
      <use style="fill:#2ca02c;stroke:#2ca02c;" x="379.46048" xlink:href="#m8d1cba88d1" y="79.801688"/>
     </g>
    </g>
    <g id="text_18">
     <!-- Subject C -->
     <defs>
      <path d="M 64.40625 67.28125 
L 64.40625 56.890625 
Q 59.421875 61.53125 53.78125 63.8125 
Q 48.140625 66.109375 41.796875 66.109375 
Q 29.296875 66.109375 22.65625 58.46875 
Q 16.015625 50.828125 16.015625 36.375 
Q 16.015625 21.96875 22.65625 14.328125 
Q 29.296875 6.6875 41.796875 6.6875 
Q 48.140625 6.6875 53.78125 8.984375 
Q 59.421875 11.28125 64.40625 15.921875 
L 64.40625 5.609375 
Q 59.234375 2.09375 53.4375 0.328125 
Q 47.65625 -1.421875 41.21875 -1.421875 
Q 24.65625 -1.421875 15.125 8.703125 
Q 5.609375 18.84375 5.609375 36.375 
Q 5.609375 53.953125 15.125 64.078125 
Q 24.65625 74.21875 41.21875 74.21875 
Q 47.75 74.21875 53.53125 72.484375 
Q 59.328125 70.75 64.40625 67.28125 
z
" id="DejaVuSans-67"/>
     </defs>
     <g transform="translate(397.46048 82.426688)scale(0.1 -0.1)">
      <use xlink:href="#DejaVuSans-83"/>
      <use x="63.476562" xlink:href="#DejaVuSans-117"/>
      <use x="126.855469" xlink:href="#DejaVuSans-98"/>
      <use x="190.332031" xlink:href="#DejaVuSans-106"/>
      <use x="218.115234" xlink:href="#DejaVuSans-101"/>
      <use x="279.638672" xlink:href="#DejaVuSans-99"/>
      <use x="334.619141" xlink:href="#DejaVuSans-116"/>
      <use x="373.828125" xlink:href="#DejaVuSans-32"/>
      <use x="405.615234" xlink:href="#DejaVuSans-67"/>
     </g>
    </g>
    <g id="PathCollection_13">
     <g>
      <use style="fill:#d62728;stroke:#d62728;" x="379.46048" xlink:href="#m6cb8e66d0a" y="94.479813"/>
     </g>
    </g>
    <g id="text_19">
     <!-- Subject D -->
     <defs>
      <path d="M 19.671875 64.796875 
L 19.671875 8.109375 
L 31.59375 8.109375 
Q 46.6875 8.109375 53.6875 14.9375 
Q 60.6875 21.78125 60.6875 36.53125 
Q 60.6875 51.171875 53.6875 57.984375 
Q 46.6875 64.796875 31.59375 64.796875 
z
M 9.8125 72.90625 
L 30.078125 72.90625 
Q 51.265625 72.90625 61.171875 64.09375 
Q 71.09375 55.28125 71.09375 36.53125 
Q 71.09375 17.671875 61.125 8.828125 
Q 51.171875 0 30.078125 0 
L 9.8125 0 
z
" id="DejaVuSans-68"/>
     </defs>
     <g transform="translate(397.46048 97.104813)scale(0.1 -0.1)">
      <use xlink:href="#DejaVuSans-83"/>
      <use x="63.476562" xlink:href="#DejaVuSans-117"/>
      <use x="126.855469" xlink:href="#DejaVuSans-98"/>
      <use x="190.332031" xlink:href="#DejaVuSans-106"/>
      <use x="218.115234" xlink:href="#DejaVuSans-101"/>
      <use x="279.638672" xlink:href="#DejaVuSans-99"/>
      <use x="334.619141" xlink:href="#DejaVuSans-116"/>
      <use x="373.828125" xlink:href="#DejaVuSans-32"/>
      <use x="405.615234" xlink:href="#DejaVuSans-68"/>
     </g>
    </g>
    <g id="PathCollection_14">
     <g>
      <use style="fill:#9467bd;stroke:#9467bd;" x="379.46048" xlink:href="#maa7d4984ab" y="109.157938"/>
     </g>
    </g>
    <g id="text_20">
     <!-- Subject E -->
     <defs>
      <path d="M 9.8125 72.90625 
L 55.90625 72.90625 
L 55.90625 64.59375 
L 19.671875 64.59375 
L 19.671875 43.015625 
L 54.390625 43.015625 
L 54.390625 34.71875 
L 19.671875 34.71875 
L 19.671875 8.296875 
L 56.78125 8.296875 
L 56.78125 0 
L 9.8125 0 
z
" id="DejaVuSans-69"/>
     </defs>
     <g transform="translate(397.46048 111.782938)scale(0.1 -0.1)">
      <use xlink:href="#DejaVuSans-83"/>
      <use x="63.476562" xlink:href="#DejaVuSans-117"/>
      <use x="126.855469" xlink:href="#DejaVuSans-98"/>
      <use x="190.332031" xlink:href="#DejaVuSans-106"/>
      <use x="218.115234" xlink:href="#DejaVuSans-101"/>
      <use x="279.638672" xlink:href="#DejaVuSans-99"/>
      <use x="334.619141" xlink:href="#DejaVuSans-116"/>
      <use x="373.828125" xlink:href="#DejaVuSans-32"/>
      <use x="405.615234" xlink:href="#DejaVuSans-69"/>
     </g>
    </g>
    <g id="PathCollection_15">
     <g>
      <use style="fill:#8c564b;stroke:#8c564b;stroke-width:1.5;" x="379.46048" xlink:href="#ma60cd3ad18" y="123.836063"/>
     </g>
    </g>
    <g id="text_21">
     <!-- Subject F -->
     <g transform="translate(397.46048 126.461063)scale(0.1 -0.1)">
      <use xlink:href="#DejaVuSans-83"/>
      <use x="63.476562" xlink:href="#DejaVuSans-117"/>
      <use x="126.855469" xlink:href="#DejaVuSans-98"/>
      <use x="190.332031" xlink:href="#DejaVuSans-106"/>
      <use x="218.115234" xlink:href="#DejaVuSans-101"/>
      <use x="279.638672" xlink:href="#DejaVuSans-99"/>
      <use x="334.619141" xlink:href="#DejaVuSans-116"/>
      <use x="373.828125" xlink:href="#DejaVuSans-32"/>
      <use x="405.615234" xlink:href="#DejaVuSans-70"/>
     </g>
    </g>
    <g id="PathCollection_16">
     <g>
      <use style="fill:#e377c2;stroke:#e377c2;" x="379.46048" xlink:href="#m22c8b2c85a" y="138.514188"/>
     </g>
    </g>
    <g id="text_22">
     <!-- Subject G -->
     <defs>
      <path d="M 59.515625 10.40625 
L 59.515625 29.984375 
L 43.40625 29.984375 
L 43.40625 38.09375 
L 69.28125 38.09375 
L 69.28125 6.78125 
Q 63.578125 2.734375 56.6875 0.65625 
Q 49.8125 -1.421875 42 -1.421875 
Q 24.90625 -1.421875 15.25 8.5625 
Q 5.609375 18.5625 5.609375 36.375 
Q 5.609375 54.25 15.25 64.234375 
Q 24.90625 74.21875 42 74.21875 
Q 49.125 74.21875 55.546875 72.453125 
Q 61.96875 70.703125 67.390625 67.28125 
L 67.390625 56.78125 
Q 61.921875 61.421875 55.765625 63.765625 
Q 49.609375 66.109375 42.828125 66.109375 
Q 29.4375 66.109375 22.71875 58.640625 
Q 16.015625 51.171875 16.015625 36.375 
Q 16.015625 21.625 22.71875 14.15625 
Q 29.4375 6.6875 42.828125 6.6875 
Q 48.046875 6.6875 52.140625 7.59375 
Q 56.25 8.5 59.515625 10.40625 
z
" id="DejaVuSans-71"/>
     </defs>
     <g transform="translate(397.46048 141.139188)scale(0.1 -0.1)">
      <use xlink:href="#DejaVuSans-83"/>
      <use x="63.476562" xlink:href="#DejaVuSans-117"/>
      <use x="126.855469" xlink:href="#DejaVuSans-98"/>
      <use x="190.332031" xlink:href="#DejaVuSans-106"/>
      <use x="218.115234" xlink:href="#DejaVuSans-101"/>
      <use x="279.638672" xlink:href="#DejaVuSans-99"/>
      <use x="334.619141" xlink:href="#DejaVuSans-116"/>
      <use x="373.828125" xlink:href="#DejaVuSans-32"/>
      <use x="405.615234" xlink:href="#DejaVuSans-71"/>
     </g>
    </g>
    <g id="PathCollection_17">
     <g>
      <use style="fill:#7f7f7f;stroke:#7f7f7f;" x="379.46048" xlink:href="#m40ccff271d" y="153.192313"/>
     </g>
    </g>
    <g id="text_23">
     <!-- Subject H -->
     <defs>
      <path d="M 9.8125 72.90625 
L 19.671875 72.90625 
L 19.671875 43.015625 
L 55.515625 43.015625 
L 55.515625 72.90625 
L 65.375 72.90625 
L 65.375 0 
L 55.515625 0 
L 55.515625 34.71875 
L 19.671875 34.71875 
L 19.671875 0 
L 9.8125 0 
z
" id="DejaVuSans-72"/>
     </defs>
     <g transform="translate(397.46048 155.817313)scale(0.1 -0.1)">
      <use xlink:href="#DejaVuSans-83"/>
      <use x="63.476562" xlink:href="#DejaVuSans-117"/>
      <use x="126.855469" xlink:href="#DejaVuSans-98"/>
      <use x="190.332031" xlink:href="#DejaVuSans-106"/>
      <use x="218.115234" xlink:href="#DejaVuSans-101"/>
      <use x="279.638672" xlink:href="#DejaVuSans-99"/>
      <use x="334.619141" xlink:href="#DejaVuSans-116"/>
      <use x="373.828125" xlink:href="#DejaVuSans-32"/>
      <use x="405.615234" xlink:href="#DejaVuSans-72"/>
     </g>
    </g>
    <g id="PathCollection_18">
     <g>
      <use style="fill:#bcbd22;stroke:#bcbd22;stroke-width:1.5;" x="379.46048" xlink:href="#mcbd038ffea" y="167.870438"/>
     </g>
    </g>
    <g id="text_24">
     <!-- Subject I -->
     <defs>
      <path d="M 9.8125 72.90625 
L 19.671875 72.90625 
L 19.671875 0 
L 9.8125 0 
z
" id="DejaVuSans-73"/>
     </defs>
     <g transform="translate(397.46048 170.495438)scale(0.1 -0.1)">
      <use xlink:href="#DejaVuSans-83"/>
      <use x="63.476562" xlink:href="#DejaVuSans-117"/>
      <use x="126.855469" xlink:href="#DejaVuSans-98"/>
      <use x="190.332031" xlink:href="#DejaVuSans-106"/>
      <use x="218.115234" xlink:href="#DejaVuSans-101"/>
      <use x="279.638672" xlink:href="#DejaVuSans-99"/>
      <use x="334.619141" xlink:href="#DejaVuSans-116"/>
      <use x="373.828125" xlink:href="#DejaVuSans-32"/>
      <use x="405.615234" xlink:href="#DejaVuSans-73"/>
     </g>
    </g>
   </g>
  </g>
 </g>
 <defs>
  <clipPath id="p8107b7a7ff">
   <rect height="266.112" width="301.824" x="57.6" y="41.472"/>
  </clipPath>
 </defs>
</svg>
