<?xml version="1.0" encoding="utf-8" standalone="no"?>
<!DOCTYPE svg PUBLIC "-//W3C//DTD SVG 1.1//EN"
  "http://www.w3.org/Graphics/SVG/1.1/DTD/svg11.dtd">
<!-- Created with matplotlib (https://matplotlib.org/) -->
<svg height="282.790125pt" version="1.1" viewBox="0 0 373.798125 282.790125" width="373.798125pt" xmlns="http://www.w3.org/2000/svg" xmlns:xlink="http://www.w3.org/1999/xlink">
 <metadata>
  <rdf:RDF xmlns:cc="http://creativecommons.org/ns#" xmlns:dc="http://purl.org/dc/elements/1.1/" xmlns:rdf="http://www.w3.org/1999/02/22-rdf-syntax-ns#">
   <cc:Work>
    <dc:type rdf:resource="http://purl.org/dc/dcmitype/StillImage"/>
    <dc:date>2022-02-01T08:46:53.902911</dc:date>
    <dc:format>image/svg+xml</dc:format>
    <dc:creator>
     <cc:Agent>
      <dc:title>Matplotlib v3.3.4, https://matplotlib.org/</dc:title>
     </cc:Agent>
    </dc:creator>
   </cc:Work>
  </rdf:RDF>
 </metadata>
 <defs>
  <style type="text/css">*{stroke-linecap:butt;stroke-linejoin:round;}</style>
 </defs>
 <g id="figure_1">
  <g id="patch_1">
   <path d="M 0 282.790125 
L 373.798125 282.790125 
L 373.798125 0 
L 0 0 
z
" style="fill:#ffffff;"/>
  </g>
  <g id="axes_1">
   <g id="patch_2">
    <path d="M 16.678125 266.112 
L 373.798125 266.112 
L 373.798125 0 
L 16.678125 0 
z
" style="fill:#ffffff;"/>
   </g>
   <g id="QuadMesh_1">
    <path clip-path="url(#pe15e186118)" d="M 16.678125 0 
L 88.102125 0 
L 88.102125 53.2224 
L 16.678125 53.2224 
L 16.678125 0 
" style="fill:#1c6ab0;"/>
    <path clip-path="url(#pe15e186118)" d="M 88.102125 0 
L 159.526125 0 
L 159.526125 53.2224 
L 88.102125 53.2224 
L 88.102125 0 
" style="fill:#e1edf8;"/>
    <path clip-path="url(#pe15e186118)" d="M 159.526125 0 
L 230.950125 0 
L 230.950125 53.2224 
L 159.526125 53.2224 
L 159.526125 0 
" style="fill:#d0e1f2;"/>
    <path clip-path="url(#pe15e186118)" d="M 230.950125 0 
L 302.374125 0 
L 302.374125 53.2224 
L 230.950125 53.2224 
L 230.950125 0 
" style="fill:#e0ecf8;"/>
    <path clip-path="url(#pe15e186118)" d="M 302.374125 0 
L 373.798125 0 
L 373.798125 53.2224 
L 302.374125 53.2224 
L 302.374125 0 
" style="fill:#e8f1fa;"/>
    <path clip-path="url(#pe15e186118)" d="M 16.678125 53.2224 
L 88.102125 53.2224 
L 88.102125 106.4448 
L 16.678125 106.4448 
L 16.678125 53.2224 
" style="fill:#e1edf8;"/>
    <path clip-path="url(#pe15e186118)" d="M 88.102125 53.2224 
L 159.526125 53.2224 
L 159.526125 106.4448 
L 88.102125 106.4448 
L 88.102125 53.2224 
" style="fill:#0d57a1;"/>
    <path clip-path="url(#pe15e186118)" d="M 159.526125 53.2224 
L 230.950125 53.2224 
L 230.950125 106.4448 
L 159.526125 106.4448 
L 159.526125 53.2224 
" style="fill:#e9f2fa;"/>
    <path clip-path="url(#pe15e186118)" d="M 230.950125 53.2224 
L 302.374125 53.2224 
L 302.374125 106.4448 
L 230.950125 106.4448 
L 230.950125 53.2224 
" style="fill:#d8e7f5;"/>
    <path clip-path="url(#pe15e186118)" d="M 302.374125 53.2224 
L 373.798125 53.2224 
L 373.798125 106.4448 
L 302.374125 106.4448 
L 302.374125 53.2224 
" style="fill:#e7f0fa;"/>
    <path clip-path="url(#pe15e186118)" d="M 16.678125 106.4448 
L 88.102125 106.4448 
L 88.102125 159.6672 
L 16.678125 159.6672 
L 16.678125 106.4448 
" style="fill:#e1edf8;"/>
    <path clip-path="url(#pe15e186118)" d="M 88.102125 106.4448 
L 159.526125 106.4448 
L 159.526125 159.6672 
L 88.102125 159.6672 
L 88.102125 106.4448 
" style="fill:#e3eef9;"/>
    <path clip-path="url(#pe15e186118)" d="M 159.526125 106.4448 
L 230.950125 106.4448 
L 230.950125 159.6672 
L 159.526125 159.6672 
L 159.526125 106.4448 
" style="fill:#2474b7;"/>
    <path clip-path="url(#pe15e186118)" d="M 230.950125 106.4448 
L 302.374125 106.4448 
L 302.374125 159.6672 
L 230.950125 159.6672 
L 230.950125 106.4448 
" style="fill:#d8e7f5;"/>
    <path clip-path="url(#pe15e186118)" d="M 302.374125 106.4448 
L 373.798125 106.4448 
L 373.798125 159.6672 
L 302.374125 159.6672 
L 302.374125 106.4448 
" style="fill:#d5e5f4;"/>
    <path clip-path="url(#pe15e186118)" d="M 16.678125 159.6672 
L 88.102125 159.6672 
L 88.102125 212.8896 
L 16.678125 212.8896 
L 16.678125 159.6672 
" style="fill:#ecf4fb;"/>
    <path clip-path="url(#pe15e186118)" d="M 88.102125 159.6672 
L 159.526125 159.6672 
L 159.526125 212.8896 
L 88.102125 212.8896 
L 88.102125 159.6672 
" style="fill:#d1e2f3;"/>
    <path clip-path="url(#pe15e186118)" d="M 159.526125 159.6672 
L 230.950125 159.6672 
L 230.950125 212.8896 
L 159.526125 212.8896 
L 159.526125 159.6672 
" style="fill:#eaf2fb;"/>
    <path clip-path="url(#pe15e186118)" d="M 230.950125 159.6672 
L 302.374125 159.6672 
L 302.374125 212.8896 
L 230.950125 212.8896 
L 230.950125 159.6672 
" style="fill:#084f99;"/>
    <path clip-path="url(#pe15e186118)" d="M 302.374125 159.6672 
L 373.798125 159.6672 
L 373.798125 212.8896 
L 302.374125 212.8896 
L 302.374125 159.6672 
" style="fill:#e7f1fa;"/>
    <path clip-path="url(#pe15e186118)" d="M 16.678125 212.8896 
L 88.102125 212.8896 
L 88.102125 266.112 
L 16.678125 266.112 
L 16.678125 212.8896 
" style="fill:#eaf3fb;"/>
    <path clip-path="url(#pe15e186118)" d="M 88.102125 212.8896 
L 159.526125 212.8896 
L 159.526125 266.112 
L 88.102125 266.112 
L 88.102125 212.8896 
" style="fill:#f7fbff;"/>
    <path clip-path="url(#pe15e186118)" d="M 159.526125 212.8896 
L 230.950125 212.8896 
L 230.950125 266.112 
L 159.526125 266.112 
L 159.526125 212.8896 
" style="fill:#e7f1fa;"/>
    <path clip-path="url(#pe15e186118)" d="M 230.950125 212.8896 
L 302.374125 212.8896 
L 302.374125 266.112 
L 230.950125 266.112 
L 230.950125 212.8896 
" style="fill:#dceaf6;"/>
    <path clip-path="url(#pe15e186118)" d="M 302.374125 212.8896 
L 373.798125 212.8896 
L 373.798125 266.112 
L 302.374125 266.112 
L 302.374125 212.8896 
" style="fill:#08306b;"/>
   </g>
   <g id="matplotlib.axis_1">
    <g id="xtick_1">
     <g id="line2d_1">
      <defs>
       <path d="M 0 0 
L 0 3.5 
" id="mb669d0529c" style="stroke:#000000;stroke-width:0.8;"/>
      </defs>
      <g>
       <use style="stroke:#000000;stroke-width:0.8;" x="52.390125" xlink:href="#mb669d0529c" y="266.112"/>
      </g>
     </g>
     <g id="text_1">
      <!-- Bottle A -->
      <g transform="translate(32.504969 280.710438)scale(0.1 -0.1)">
       <defs>
        <path d="M 19.671875 34.8125 
L 19.671875 8.109375 
L 35.5 8.109375 
Q 43.453125 8.109375 47.28125 11.40625 
Q 51.125 14.703125 51.125 21.484375 
Q 51.125 28.328125 47.28125 31.5625 
Q 43.453125 34.8125 35.5 34.8125 
z
M 19.671875 64.796875 
L 19.671875 42.828125 
L 34.28125 42.828125 
Q 41.5 42.828125 45.03125 45.53125 
Q 48.578125 48.25 48.578125 53.8125 
Q 48.578125 59.328125 45.03125 62.0625 
Q 41.5 64.796875 34.28125 64.796875 
z
M 9.8125 72.90625 
L 35.015625 72.90625 
Q 46.296875 72.90625 52.390625 68.21875 
Q 58.5 63.53125 58.5 54.890625 
Q 58.5 48.1875 55.375 44.234375 
Q 52.25 40.28125 46.1875 39.3125 
Q 53.46875 37.75 57.5 32.78125 
Q 61.53125 27.828125 61.53125 20.40625 
Q 61.53125 10.640625 54.890625 5.3125 
Q 48.25 0 35.984375 0 
L 9.8125 0 
z
" id="DejaVuSans-66"/>
        <path d="M 30.609375 48.390625 
Q 23.390625 48.390625 19.1875 42.75 
Q 14.984375 37.109375 14.984375 27.296875 
Q 14.984375 17.484375 19.15625 11.84375 
Q 23.34375 6.203125 30.609375 6.203125 
Q 37.796875 6.203125 41.984375 11.859375 
Q 46.1875 17.53125 46.1875 27.296875 
Q 46.1875 37.015625 41.984375 42.703125 
Q 37.796875 48.390625 30.609375 48.390625 
z
M 30.609375 56 
Q 42.328125 56 49.015625 48.375 
Q 55.71875 40.765625 55.71875 27.296875 
Q 55.71875 13.875 49.015625 6.21875 
Q 42.328125 -1.421875 30.609375 -1.421875 
Q 18.84375 -1.421875 12.171875 6.21875 
Q 5.515625 13.875 5.515625 27.296875 
Q 5.515625 40.765625 12.171875 48.375 
Q 18.84375 56 30.609375 56 
z
" id="DejaVuSans-111"/>
        <path d="M 18.3125 70.21875 
L 18.3125 54.6875 
L 36.8125 54.6875 
L 36.8125 47.703125 
L 18.3125 47.703125 
L 18.3125 18.015625 
Q 18.3125 11.328125 20.140625 9.421875 
Q 21.96875 7.515625 27.59375 7.515625 
L 36.8125 7.515625 
L 36.8125 0 
L 27.59375 0 
Q 17.1875 0 13.234375 3.875 
Q 9.28125 7.765625 9.28125 18.015625 
L 9.28125 47.703125 
L 2.6875 47.703125 
L 2.6875 54.6875 
L 9.28125 54.6875 
L 9.28125 70.21875 
z
" id="DejaVuSans-116"/>
        <path d="M 9.421875 75.984375 
L 18.40625 75.984375 
L 18.40625 0 
L 9.421875 0 
z
" id="DejaVuSans-108"/>
        <path d="M 56.203125 29.59375 
L 56.203125 25.203125 
L 14.890625 25.203125 
Q 15.484375 15.921875 20.484375 11.0625 
Q 25.484375 6.203125 34.421875 6.203125 
Q 39.59375 6.203125 44.453125 7.46875 
Q 49.3125 8.734375 54.109375 11.28125 
L 54.109375 2.78125 
Q 49.265625 0.734375 44.1875 -0.34375 
Q 39.109375 -1.421875 33.890625 -1.421875 
Q 20.796875 -1.421875 13.15625 6.1875 
Q 5.515625 13.8125 5.515625 26.8125 
Q 5.515625 40.234375 12.765625 48.109375 
Q 20.015625 56 32.328125 56 
Q 43.359375 56 49.78125 48.890625 
Q 56.203125 41.796875 56.203125 29.59375 
z
M 47.21875 32.234375 
Q 47.125 39.59375 43.09375 43.984375 
Q 39.0625 48.390625 32.421875 48.390625 
Q 24.90625 48.390625 20.390625 44.140625 
Q 15.875 39.890625 15.1875 32.171875 
z
" id="DejaVuSans-101"/>
        <path id="DejaVuSans-32"/>
        <path d="M 34.1875 63.1875 
L 20.796875 26.90625 
L 47.609375 26.90625 
z
M 28.609375 72.90625 
L 39.796875 72.90625 
L 67.578125 0 
L 57.328125 0 
L 50.6875 18.703125 
L 17.828125 18.703125 
L 11.1875 0 
L 0.78125 0 
z
" id="DejaVuSans-65"/>
       </defs>
       <use xlink:href="#DejaVuSans-66"/>
       <use x="68.603516" xlink:href="#DejaVuSans-111"/>
       <use x="129.785156" xlink:href="#DejaVuSans-116"/>
       <use x="168.994141" xlink:href="#DejaVuSans-116"/>
       <use x="208.203125" xlink:href="#DejaVuSans-108"/>
       <use x="235.986328" xlink:href="#DejaVuSans-101"/>
       <use x="297.509766" xlink:href="#DejaVuSans-32"/>
       <use x="329.296875" xlink:href="#DejaVuSans-65"/>
      </g>
     </g>
    </g>
    <g id="xtick_2">
     <g id="line2d_2">
      <g>
       <use style="stroke:#000000;stroke-width:0.8;" x="123.814125" xlink:href="#mb669d0529c" y="266.112"/>
      </g>
     </g>
     <g id="text_2">
      <!-- Bottle B -->
      <g transform="translate(103.918813 280.710438)scale(0.1 -0.1)">
       <use xlink:href="#DejaVuSans-66"/>
       <use x="68.603516" xlink:href="#DejaVuSans-111"/>
       <use x="129.785156" xlink:href="#DejaVuSans-116"/>
       <use x="168.994141" xlink:href="#DejaVuSans-116"/>
       <use x="208.203125" xlink:href="#DejaVuSans-108"/>
       <use x="235.986328" xlink:href="#DejaVuSans-101"/>
       <use x="297.509766" xlink:href="#DejaVuSans-32"/>
       <use x="329.296875" xlink:href="#DejaVuSans-66"/>
      </g>
     </g>
    </g>
    <g id="xtick_3">
     <g id="line2d_3">
      <g>
       <use style="stroke:#000000;stroke-width:0.8;" x="195.238125" xlink:href="#mb669d0529c" y="266.112"/>
      </g>
     </g>
     <g id="text_3">
      <!-- Bottle C -->
      <g transform="translate(175.281875 280.710438)scale(0.1 -0.1)">
       <defs>
        <path d="M 64.40625 67.28125 
L 64.40625 56.890625 
Q 59.421875 61.53125 53.78125 63.8125 
Q 48.140625 66.109375 41.796875 66.109375 
Q 29.296875 66.109375 22.65625 58.46875 
Q 16.015625 50.828125 16.015625 36.375 
Q 16.015625 21.96875 22.65625 14.328125 
Q 29.296875 6.6875 41.796875 6.6875 
Q 48.140625 6.6875 53.78125 8.984375 
Q 59.421875 11.28125 64.40625 15.921875 
L 64.40625 5.609375 
Q 59.234375 2.09375 53.4375 0.328125 
Q 47.65625 -1.421875 41.21875 -1.421875 
Q 24.65625 -1.421875 15.125 8.703125 
Q 5.609375 18.84375 5.609375 36.375 
Q 5.609375 53.953125 15.125 64.078125 
Q 24.65625 74.21875 41.21875 74.21875 
Q 47.75 74.21875 53.53125 72.484375 
Q 59.328125 70.75 64.40625 67.28125 
z
" id="DejaVuSans-67"/>
       </defs>
       <use xlink:href="#DejaVuSans-66"/>
       <use x="68.603516" xlink:href="#DejaVuSans-111"/>
       <use x="129.785156" xlink:href="#DejaVuSans-116"/>
       <use x="168.994141" xlink:href="#DejaVuSans-116"/>
       <use x="208.203125" xlink:href="#DejaVuSans-108"/>
       <use x="235.986328" xlink:href="#DejaVuSans-101"/>
       <use x="297.509766" xlink:href="#DejaVuSans-32"/>
       <use x="329.296875" xlink:href="#DejaVuSans-67"/>
      </g>
     </g>
    </g>
    <g id="xtick_4">
     <g id="line2d_4">
      <g>
       <use style="stroke:#000000;stroke-width:0.8;" x="266.662125" xlink:href="#mb669d0529c" y="266.112"/>
      </g>
     </g>
     <g id="text_4">
      <!-- Bottle D -->
      <g transform="translate(246.347281 280.710438)scale(0.1 -0.1)">
       <defs>
        <path d="M 19.671875 64.796875 
L 19.671875 8.109375 
L 31.59375 8.109375 
Q 46.6875 8.109375 53.6875 14.9375 
Q 60.6875 21.78125 60.6875 36.53125 
Q 60.6875 51.171875 53.6875 57.984375 
Q 46.6875 64.796875 31.59375 64.796875 
z
M 9.8125 72.90625 
L 30.078125 72.90625 
Q 51.265625 72.90625 61.171875 64.09375 
Q 71.09375 55.28125 71.09375 36.53125 
Q 71.09375 17.671875 61.125 8.828125 
Q 51.171875 0 30.078125 0 
L 9.8125 0 
z
" id="DejaVuSans-68"/>
       </defs>
       <use xlink:href="#DejaVuSans-66"/>
       <use x="68.603516" xlink:href="#DejaVuSans-111"/>
       <use x="129.785156" xlink:href="#DejaVuSans-116"/>
       <use x="168.994141" xlink:href="#DejaVuSans-116"/>
       <use x="208.203125" xlink:href="#DejaVuSans-108"/>
       <use x="235.986328" xlink:href="#DejaVuSans-101"/>
       <use x="297.509766" xlink:href="#DejaVuSans-32"/>
       <use x="329.296875" xlink:href="#DejaVuSans-68"/>
      </g>
     </g>
    </g>
    <g id="xtick_5">
     <g id="line2d_5">
      <g>
       <use style="stroke:#000000;stroke-width:0.8;" x="338.086125" xlink:href="#mb669d0529c" y="266.112"/>
      </g>
     </g>
     <g id="text_5">
      <!-- Bottle E -->
      <g transform="translate(318.461906 280.710438)scale(0.1 -0.1)">
       <defs>
        <path d="M 9.8125 72.90625 
L 55.90625 72.90625 
L 55.90625 64.59375 
L 19.671875 64.59375 
L 19.671875 43.015625 
L 54.390625 43.015625 
L 54.390625 34.71875 
L 19.671875 34.71875 
L 19.671875 8.296875 
L 56.78125 8.296875 
L 56.78125 0 
L 9.8125 0 
z
" id="DejaVuSans-69"/>
       </defs>
       <use xlink:href="#DejaVuSans-66"/>
       <use x="68.603516" xlink:href="#DejaVuSans-111"/>
       <use x="129.785156" xlink:href="#DejaVuSans-116"/>
       <use x="168.994141" xlink:href="#DejaVuSans-116"/>
       <use x="208.203125" xlink:href="#DejaVuSans-108"/>
       <use x="235.986328" xlink:href="#DejaVuSans-101"/>
       <use x="297.509766" xlink:href="#DejaVuSans-32"/>
       <use x="329.296875" xlink:href="#DejaVuSans-69"/>
      </g>
     </g>
    </g>
   </g>
   <g id="matplotlib.axis_2">
    <g id="ytick_1">
     <g id="line2d_6">
      <defs>
       <path d="M 0 0 
L -3.5 0 
" id="ma77f98797a" style="stroke:#000000;stroke-width:0.8;"/>
      </defs>
      <g>
       <use style="stroke:#000000;stroke-width:0.8;" x="16.678125" xlink:href="#ma77f98797a" y="26.6112"/>
      </g>
     </g>
     <g id="text_6">
      <!-- Bottle A -->
      <g transform="translate(7.598437 62.582294)rotate(-90)scale(0.1 -0.1)">
       <use xlink:href="#DejaVuSans-66"/>
       <use x="68.603516" xlink:href="#DejaVuSans-111"/>
       <use x="129.785156" xlink:href="#DejaVuSans-116"/>
       <use x="168.994141" xlink:href="#DejaVuSans-116"/>
       <use x="208.203125" xlink:href="#DejaVuSans-108"/>
       <use x="235.986328" xlink:href="#DejaVuSans-101"/>
       <use x="297.509766" xlink:href="#DejaVuSans-32"/>
       <use x="329.296875" xlink:href="#DejaVuSans-65"/>
      </g>
     </g>
    </g>
    <g id="ytick_2">
     <g id="line2d_7">
      <g>
       <use style="stroke:#000000;stroke-width:0.8;" x="16.678125" xlink:href="#ma77f98797a" y="79.8336"/>
      </g>
     </g>
     <g id="text_7">
      <!-- Bottle B -->
      <g transform="translate(7.598437 115.825006)rotate(-90)scale(0.1 -0.1)">
       <use xlink:href="#DejaVuSans-66"/>
       <use x="68.603516" xlink:href="#DejaVuSans-111"/>
       <use x="129.785156" xlink:href="#DejaVuSans-116"/>
       <use x="168.994141" xlink:href="#DejaVuSans-116"/>
       <use x="208.203125" xlink:href="#DejaVuSans-108"/>
       <use x="235.986328" xlink:href="#DejaVuSans-101"/>
       <use x="297.509766" xlink:href="#DejaVuSans-32"/>
       <use x="329.296875" xlink:href="#DejaVuSans-66"/>
      </g>
     </g>
    </g>
    <g id="ytick_3">
     <g id="line2d_8">
      <g>
       <use style="stroke:#000000;stroke-width:0.8;" x="16.678125" xlink:href="#ma77f98797a" y="133.056"/>
      </g>
     </g>
     <g id="text_8">
      <!-- Bottle C -->
      <g transform="translate(7.598437 169.169281)rotate(-90)scale(0.1 -0.1)">
       <use xlink:href="#DejaVuSans-66"/>
       <use x="68.603516" xlink:href="#DejaVuSans-111"/>
       <use x="129.785156" xlink:href="#DejaVuSans-116"/>
       <use x="168.994141" xlink:href="#DejaVuSans-116"/>
       <use x="208.203125" xlink:href="#DejaVuSans-108"/>
       <use x="235.986328" xlink:href="#DejaVuSans-101"/>
       <use x="297.509766" xlink:href="#DejaVuSans-32"/>
       <use x="329.296875" xlink:href="#DejaVuSans-67"/>
      </g>
     </g>
    </g>
    <g id="ytick_4">
     <g id="line2d_9">
      <g>
       <use style="stroke:#000000;stroke-width:0.8;" x="16.678125" xlink:href="#ma77f98797a" y="186.2784"/>
      </g>
     </g>
     <g id="text_9">
      <!-- Bottle D -->
      <g transform="translate(7.598437 223.108869)rotate(-90)scale(0.1 -0.1)">
       <use xlink:href="#DejaVuSans-66"/>
       <use x="68.603516" xlink:href="#DejaVuSans-111"/>
       <use x="129.785156" xlink:href="#DejaVuSans-116"/>
       <use x="168.994141" xlink:href="#DejaVuSans-116"/>
       <use x="208.203125" xlink:href="#DejaVuSans-108"/>
       <use x="235.986328" xlink:href="#DejaVuSans-101"/>
       <use x="297.509766" xlink:href="#DejaVuSans-32"/>
       <use x="329.296875" xlink:href="#DejaVuSans-68"/>
      </g>
     </g>
    </g>
    <g id="ytick_5">
     <g id="line2d_10">
      <g>
       <use style="stroke:#000000;stroke-width:0.8;" x="16.678125" xlink:href="#ma77f98797a" y="239.5008"/>
      </g>
     </g>
     <g id="text_10">
      <!-- Bottle E -->
      <g transform="translate(7.598437 274.950019)rotate(-90)scale(0.1 -0.1)">
       <use xlink:href="#DejaVuSans-66"/>
       <use x="68.603516" xlink:href="#DejaVuSans-111"/>
       <use x="129.785156" xlink:href="#DejaVuSans-116"/>
       <use x="168.994141" xlink:href="#DejaVuSans-116"/>
       <use x="208.203125" xlink:href="#DejaVuSans-108"/>
       <use x="235.986328" xlink:href="#DejaVuSans-101"/>
       <use x="297.509766" xlink:href="#DejaVuSans-32"/>
       <use x="329.296875" xlink:href="#DejaVuSans-69"/>
      </g>
     </g>
    </g>
   </g>
   <g id="text_11">
    <!-- 587 -->
    <g style="fill:#ffffff;" transform="translate(42.846375 29.370575)scale(0.1 -0.1)">
     <defs>
      <path d="M 10.796875 72.90625 
L 49.515625 72.90625 
L 49.515625 64.59375 
L 19.828125 64.59375 
L 19.828125 46.734375 
Q 21.96875 47.46875 24.109375 47.828125 
Q 26.265625 48.1875 28.421875 48.1875 
Q 40.625 48.1875 47.75 41.5 
Q 54.890625 34.8125 54.890625 23.390625 
Q 54.890625 11.625 47.5625 5.09375 
Q 40.234375 -1.421875 26.90625 -1.421875 
Q 22.3125 -1.421875 17.546875 -0.640625 
Q 12.796875 0.140625 7.71875 1.703125 
L 7.71875 11.625 
Q 12.109375 9.234375 16.796875 8.0625 
Q 21.484375 6.890625 26.703125 6.890625 
Q 35.15625 6.890625 40.078125 11.328125 
Q 45.015625 15.765625 45.015625 23.390625 
Q 45.015625 31 40.078125 35.4375 
Q 35.15625 39.890625 26.703125 39.890625 
Q 22.75 39.890625 18.8125 39.015625 
Q 14.890625 38.140625 10.796875 36.28125 
z
" id="DejaVuSans-53"/>
      <path d="M 31.78125 34.625 
Q 24.75 34.625 20.71875 30.859375 
Q 16.703125 27.09375 16.703125 20.515625 
Q 16.703125 13.921875 20.71875 10.15625 
Q 24.75 6.390625 31.78125 6.390625 
Q 38.8125 6.390625 42.859375 10.171875 
Q 46.921875 13.96875 46.921875 20.515625 
Q 46.921875 27.09375 42.890625 30.859375 
Q 38.875 34.625 31.78125 34.625 
z
M 21.921875 38.8125 
Q 15.578125 40.375 12.03125 44.71875 
Q 8.5 49.078125 8.5 55.328125 
Q 8.5 64.0625 14.71875 69.140625 
Q 20.953125 74.21875 31.78125 74.21875 
Q 42.671875 74.21875 48.875 69.140625 
Q 55.078125 64.0625 55.078125 55.328125 
Q 55.078125 49.078125 51.53125 44.71875 
Q 48 40.375 41.703125 38.8125 
Q 48.828125 37.15625 52.796875 32.3125 
Q 56.78125 27.484375 56.78125 20.515625 
Q 56.78125 9.90625 50.3125 4.234375 
Q 43.84375 -1.421875 31.78125 -1.421875 
Q 19.734375 -1.421875 13.25 4.234375 
Q 6.78125 9.90625 6.78125 20.515625 
Q 6.78125 27.484375 10.78125 32.3125 
Q 14.796875 37.15625 21.921875 38.8125 
z
M 18.3125 54.390625 
Q 18.3125 48.734375 21.84375 45.5625 
Q 25.390625 42.390625 31.78125 42.390625 
Q 38.140625 42.390625 41.71875 45.5625 
Q 45.3125 48.734375 45.3125 54.390625 
Q 45.3125 60.0625 41.71875 63.234375 
Q 38.140625 66.40625 31.78125 66.40625 
Q 25.390625 66.40625 21.84375 63.234375 
Q 18.3125 60.0625 18.3125 54.390625 
z
" id="DejaVuSans-56"/>
      <path d="M 8.203125 72.90625 
L 55.078125 72.90625 
L 55.078125 68.703125 
L 28.609375 0 
L 18.3125 0 
L 43.21875 64.59375 
L 8.203125 64.59375 
z
" id="DejaVuSans-55"/>
     </defs>
     <use xlink:href="#DejaVuSans-53"/>
     <use x="63.623047" xlink:href="#DejaVuSans-56"/>
     <use x="127.246094" xlink:href="#DejaVuSans-55"/>
    </g>
   </g>
   <g id="text_12">
    <!-- 92 -->
    <g style="fill:#262626;" transform="translate(117.451625 29.370575)scale(0.1 -0.1)">
     <defs>
      <path d="M 10.984375 1.515625 
L 10.984375 10.5 
Q 14.703125 8.734375 18.5 7.8125 
Q 22.3125 6.890625 25.984375 6.890625 
Q 35.75 6.890625 40.890625 13.453125 
Q 46.046875 20.015625 46.78125 33.40625 
Q 43.953125 29.203125 39.59375 26.953125 
Q 35.25 24.703125 29.984375 24.703125 
Q 19.046875 24.703125 12.671875 31.3125 
Q 6.296875 37.9375 6.296875 49.421875 
Q 6.296875 60.640625 12.9375 67.421875 
Q 19.578125 74.21875 30.609375 74.21875 
Q 43.265625 74.21875 49.921875 64.515625 
Q 56.59375 54.828125 56.59375 36.375 
Q 56.59375 19.140625 48.40625 8.859375 
Q 40.234375 -1.421875 26.421875 -1.421875 
Q 22.703125 -1.421875 18.890625 -0.6875 
Q 15.09375 0.046875 10.984375 1.515625 
z
M 30.609375 32.421875 
Q 37.25 32.421875 41.125 36.953125 
Q 45.015625 41.5 45.015625 49.421875 
Q 45.015625 57.28125 41.125 61.84375 
Q 37.25 66.40625 30.609375 66.40625 
Q 23.96875 66.40625 20.09375 61.84375 
Q 16.21875 57.28125 16.21875 49.421875 
Q 16.21875 41.5 20.09375 36.953125 
Q 23.96875 32.421875 30.609375 32.421875 
z
" id="DejaVuSans-57"/>
      <path d="M 19.1875 8.296875 
L 53.609375 8.296875 
L 53.609375 0 
L 7.328125 0 
L 7.328125 8.296875 
Q 12.9375 14.109375 22.625 23.890625 
Q 32.328125 33.6875 34.8125 36.53125 
Q 39.546875 41.84375 41.421875 45.53125 
Q 43.3125 49.21875 43.3125 52.78125 
Q 43.3125 58.59375 39.234375 62.25 
Q 35.15625 65.921875 28.609375 65.921875 
Q 23.96875 65.921875 18.8125 64.3125 
Q 13.671875 62.703125 7.8125 59.421875 
L 7.8125 69.390625 
Q 13.765625 71.78125 18.9375 73 
Q 24.125 74.21875 28.421875 74.21875 
Q 39.75 74.21875 46.484375 68.546875 
Q 53.21875 62.890625 53.21875 53.421875 
Q 53.21875 48.921875 51.53125 44.890625 
Q 49.859375 40.875 45.40625 35.40625 
Q 44.1875 33.984375 37.640625 27.21875 
Q 31.109375 20.453125 19.1875 8.296875 
z
" id="DejaVuSans-50"/>
     </defs>
     <use xlink:href="#DejaVuSans-57"/>
     <use x="63.623047" xlink:href="#DejaVuSans-50"/>
    </g>
   </g>
   <g id="text_13">
    <!-- 160 -->
    <g style="fill:#262626;" transform="translate(185.694375 29.370575)scale(0.1 -0.1)">
     <defs>
      <path d="M 12.40625 8.296875 
L 28.515625 8.296875 
L 28.515625 63.921875 
L 10.984375 60.40625 
L 10.984375 69.390625 
L 28.421875 72.90625 
L 38.28125 72.90625 
L 38.28125 8.296875 
L 54.390625 8.296875 
L 54.390625 0 
L 12.40625 0 
z
" id="DejaVuSans-49"/>
      <path d="M 33.015625 40.375 
Q 26.375 40.375 22.484375 35.828125 
Q 18.609375 31.296875 18.609375 23.390625 
Q 18.609375 15.53125 22.484375 10.953125 
Q 26.375 6.390625 33.015625 6.390625 
Q 39.65625 6.390625 43.53125 10.953125 
Q 47.40625 15.53125 47.40625 23.390625 
Q 47.40625 31.296875 43.53125 35.828125 
Q 39.65625 40.375 33.015625 40.375 
z
M 52.59375 71.296875 
L 52.59375 62.3125 
Q 48.875 64.0625 45.09375 64.984375 
Q 41.3125 65.921875 37.59375 65.921875 
Q 27.828125 65.921875 22.671875 59.328125 
Q 17.53125 52.734375 16.796875 39.40625 
Q 19.671875 43.65625 24.015625 45.921875 
Q 28.375 48.1875 33.59375 48.1875 
Q 44.578125 48.1875 50.953125 41.515625 
Q 57.328125 34.859375 57.328125 23.390625 
Q 57.328125 12.15625 50.6875 5.359375 
Q 44.046875 -1.421875 33.015625 -1.421875 
Q 20.359375 -1.421875 13.671875 8.265625 
Q 6.984375 17.96875 6.984375 36.375 
Q 6.984375 53.65625 15.1875 63.9375 
Q 23.390625 74.21875 37.203125 74.21875 
Q 40.921875 74.21875 44.703125 73.484375 
Q 48.484375 72.75 52.59375 71.296875 
z
" id="DejaVuSans-54"/>
      <path d="M 31.78125 66.40625 
Q 24.171875 66.40625 20.328125 58.90625 
Q 16.5 51.421875 16.5 36.375 
Q 16.5 21.390625 20.328125 13.890625 
Q 24.171875 6.390625 31.78125 6.390625 
Q 39.453125 6.390625 43.28125 13.890625 
Q 47.125 21.390625 47.125 36.375 
Q 47.125 51.421875 43.28125 58.90625 
Q 39.453125 66.40625 31.78125 66.40625 
z
M 31.78125 74.21875 
Q 44.046875 74.21875 50.515625 64.515625 
Q 56.984375 54.828125 56.984375 36.375 
Q 56.984375 17.96875 50.515625 8.265625 
Q 44.046875 -1.421875 31.78125 -1.421875 
Q 19.53125 -1.421875 13.0625 8.265625 
Q 6.59375 17.96875 6.59375 36.375 
Q 6.59375 54.828125 13.0625 64.515625 
Q 19.53125 74.21875 31.78125 74.21875 
z
" id="DejaVuSans-48"/>
     </defs>
     <use xlink:href="#DejaVuSans-49"/>
     <use x="63.623047" xlink:href="#DejaVuSans-54"/>
     <use x="127.246094" xlink:href="#DejaVuSans-48"/>
    </g>
   </g>
   <g id="text_14">
    <!-- 94 -->
    <g style="fill:#262626;" transform="translate(260.299625 29.370575)scale(0.1 -0.1)">
     <defs>
      <path d="M 37.796875 64.3125 
L 12.890625 25.390625 
L 37.796875 25.390625 
z
M 35.203125 72.90625 
L 47.609375 72.90625 
L 47.609375 25.390625 
L 58.015625 25.390625 
L 58.015625 17.1875 
L 47.609375 17.1875 
L 47.609375 0 
L 37.796875 0 
L 37.796875 17.1875 
L 4.890625 17.1875 
L 4.890625 26.703125 
z
" id="DejaVuSans-52"/>
     </defs>
     <use xlink:href="#DejaVuSans-57"/>
     <use x="63.623047" xlink:href="#DejaVuSans-52"/>
    </g>
   </g>
   <g id="text_15">
    <!-- 67 -->
    <g style="fill:#262626;" transform="translate(331.723625 29.370575)scale(0.1 -0.1)">
     <use xlink:href="#DejaVuSans-54"/>
     <use x="63.623047" xlink:href="#DejaVuSans-55"/>
    </g>
   </g>
   <g id="text_16">
    <!-- 93 -->
    <g style="fill:#262626;" transform="translate(46.027625 82.592975)scale(0.1 -0.1)">
     <defs>
      <path d="M 40.578125 39.3125 
Q 47.65625 37.796875 51.625 33 
Q 55.609375 28.21875 55.609375 21.1875 
Q 55.609375 10.40625 48.1875 4.484375 
Q 40.765625 -1.421875 27.09375 -1.421875 
Q 22.515625 -1.421875 17.65625 -0.515625 
Q 12.796875 0.390625 7.625 2.203125 
L 7.625 11.71875 
Q 11.71875 9.328125 16.59375 8.109375 
Q 21.484375 6.890625 26.8125 6.890625 
Q 36.078125 6.890625 40.9375 10.546875 
Q 45.796875 14.203125 45.796875 21.1875 
Q 45.796875 27.640625 41.28125 31.265625 
Q 36.765625 34.90625 28.71875 34.90625 
L 20.21875 34.90625 
L 20.21875 43.015625 
L 29.109375 43.015625 
Q 36.375 43.015625 40.234375 45.921875 
Q 44.09375 48.828125 44.09375 54.296875 
Q 44.09375 59.90625 40.109375 62.90625 
Q 36.140625 65.921875 28.71875 65.921875 
Q 24.65625 65.921875 20.015625 65.03125 
Q 15.375 64.15625 9.8125 62.3125 
L 9.8125 71.09375 
Q 15.4375 72.65625 20.34375 73.4375 
Q 25.25 74.21875 29.59375 74.21875 
Q 40.828125 74.21875 47.359375 69.109375 
Q 53.90625 64.015625 53.90625 55.328125 
Q 53.90625 49.265625 50.4375 45.09375 
Q 46.96875 40.921875 40.578125 39.3125 
z
" id="DejaVuSans-51"/>
     </defs>
     <use xlink:href="#DejaVuSans-57"/>
     <use x="63.623047" xlink:href="#DejaVuSans-51"/>
    </g>
   </g>
   <g id="text_17">
    <!-- 643 -->
    <g style="fill:#ffffff;" transform="translate(114.270375 82.592975)scale(0.1 -0.1)">
     <use xlink:href="#DejaVuSans-54"/>
     <use x="63.623047" xlink:href="#DejaVuSans-52"/>
     <use x="127.246094" xlink:href="#DejaVuSans-51"/>
    </g>
   </g>
   <g id="text_18">
    <!-- 64 -->
    <g style="fill:#262626;" transform="translate(188.875625 82.592975)scale(0.1 -0.1)">
     <use xlink:href="#DejaVuSans-54"/>
     <use x="63.623047" xlink:href="#DejaVuSans-52"/>
    </g>
   </g>
   <g id="text_19">
    <!-- 127 -->
    <g style="fill:#262626;" transform="translate(257.118375 82.592975)scale(0.1 -0.1)">
     <use xlink:href="#DejaVuSans-49"/>
     <use x="63.623047" xlink:href="#DejaVuSans-50"/>
     <use x="127.246094" xlink:href="#DejaVuSans-55"/>
    </g>
   </g>
   <g id="text_20">
    <!-- 73 -->
    <g style="fill:#262626;" transform="translate(331.723625 82.592975)scale(0.1 -0.1)">
     <use xlink:href="#DejaVuSans-55"/>
     <use x="63.623047" xlink:href="#DejaVuSans-51"/>
    </g>
   </g>
   <g id="text_21">
    <!-- 92 -->
    <g style="fill:#262626;" transform="translate(46.027625 135.815375)scale(0.1 -0.1)">
     <use xlink:href="#DejaVuSans-57"/>
     <use x="63.623047" xlink:href="#DejaVuSans-50"/>
    </g>
   </g>
   <g id="text_22">
    <!-- 83 -->
    <g style="fill:#262626;" transform="translate(117.451625 135.815375)scale(0.1 -0.1)">
     <use xlink:href="#DejaVuSans-56"/>
     <use x="63.623047" xlink:href="#DejaVuSans-51"/>
    </g>
   </g>
   <g id="text_23">
    <!-- 559 -->
    <g style="fill:#ffffff;" transform="translate(185.694375 135.815375)scale(0.1 -0.1)">
     <use xlink:href="#DejaVuSans-53"/>
     <use x="63.623047" xlink:href="#DejaVuSans-53"/>
     <use x="127.246094" xlink:href="#DejaVuSans-57"/>
    </g>
   </g>
   <g id="text_24">
    <!-- 128 -->
    <g style="fill:#262626;" transform="translate(257.118375 135.815375)scale(0.1 -0.1)">
     <use xlink:href="#DejaVuSans-49"/>
     <use x="63.623047" xlink:href="#DejaVuSans-50"/>
     <use x="127.246094" xlink:href="#DejaVuSans-56"/>
    </g>
   </g>
   <g id="text_25">
    <!-- 138 -->
    <g style="fill:#262626;" transform="translate(328.542375 135.815375)scale(0.1 -0.1)">
     <use xlink:href="#DejaVuSans-49"/>
     <use x="63.623047" xlink:href="#DejaVuSans-51"/>
     <use x="127.246094" xlink:href="#DejaVuSans-56"/>
    </g>
   </g>
   <g id="text_26">
    <!-- 51 -->
    <g style="fill:#262626;" transform="translate(46.027625 189.037775)scale(0.1 -0.1)">
     <use xlink:href="#DejaVuSans-53"/>
     <use x="63.623047" xlink:href="#DejaVuSans-49"/>
    </g>
   </g>
   <g id="text_27">
    <!-- 154 -->
    <g style="fill:#262626;" transform="translate(114.270375 189.037775)scale(0.1 -0.1)">
     <use xlink:href="#DejaVuSans-49"/>
     <use x="63.623047" xlink:href="#DejaVuSans-53"/>
     <use x="127.246094" xlink:href="#DejaVuSans-52"/>
    </g>
   </g>
   <g id="text_28">
    <!-- 59 -->
    <g style="fill:#262626;" transform="translate(188.875625 189.037775)scale(0.1 -0.1)">
     <use xlink:href="#DejaVuSans-53"/>
     <use x="63.623047" xlink:href="#DejaVuSans-57"/>
    </g>
   </g>
   <g id="text_29">
    <!-- 666 -->
    <g style="fill:#ffffff;" transform="translate(257.118375 189.037775)scale(0.1 -0.1)">
     <use xlink:href="#DejaVuSans-54"/>
     <use x="63.623047" xlink:href="#DejaVuSans-54"/>
     <use x="127.246094" xlink:href="#DejaVuSans-54"/>
    </g>
   </g>
   <g id="text_30">
    <!-- 70 -->
    <g style="fill:#262626;" transform="translate(331.723625 189.037775)scale(0.1 -0.1)">
     <use xlink:href="#DejaVuSans-55"/>
     <use x="63.623047" xlink:href="#DejaVuSans-48"/>
    </g>
   </g>
   <g id="text_31">
    <!-- 58 -->
    <g style="fill:#262626;" transform="translate(46.027625 242.260175)scale(0.1 -0.1)">
     <use xlink:href="#DejaVuSans-53"/>
     <use x="63.623047" xlink:href="#DejaVuSans-56"/>
    </g>
   </g>
   <g id="text_32">
    <!-- 9 -->
    <g style="fill:#262626;" transform="translate(120.632875 242.260175)scale(0.1 -0.1)">
     <use xlink:href="#DejaVuSans-57"/>
    </g>
   </g>
   <g id="text_33">
    <!-- 69 -->
    <g style="fill:#262626;" transform="translate(188.875625 242.260175)scale(0.1 -0.1)">
     <use xlink:href="#DejaVuSans-54"/>
     <use x="63.623047" xlink:href="#DejaVuSans-57"/>
    </g>
   </g>
   <g id="text_34">
    <!-- 109 -->
    <g style="fill:#262626;" transform="translate(257.118375 242.260175)scale(0.1 -0.1)">
     <use xlink:href="#DejaVuSans-49"/>
     <use x="63.623047" xlink:href="#DejaVuSans-48"/>
     <use x="127.246094" xlink:href="#DejaVuSans-57"/>
    </g>
   </g>
   <g id="text_35">
    <!-- 755 -->
    <g style="fill:#ffffff;" transform="translate(328.542375 242.260175)scale(0.1 -0.1)">
     <use xlink:href="#DejaVuSans-55"/>
     <use x="63.623047" xlink:href="#DejaVuSans-53"/>
     <use x="127.246094" xlink:href="#DejaVuSans-53"/>
    </g>
   </g>
  </g>
 </g>
 <defs>
  <clipPath id="pe15e186118">
   <rect height="266.112" width="357.12" x="16.678125" y="0"/>
  </clipPath>
 </defs>
</svg>
