<?xml version="1.0" encoding="utf-8" standalone="no"?>
<!DOCTYPE svg PUBLIC "-//W3C//DTD SVG 1.1//EN"
  "http://www.w3.org/Graphics/SVG/1.1/DTD/svg11.dtd">
<!-- Created with matplotlib (https://matplotlib.org/) -->
<svg height="492.905749pt" version="1.1" viewBox="0 0 665.71625 492.905749" width="665.71625pt" xmlns="http://www.w3.org/2000/svg" xmlns:xlink="http://www.w3.org/1999/xlink">
 <defs>
  <style type="text/css">
*{stroke-linecap:butt;stroke-linejoin:round;}
  </style>
 </defs>
 <g id="figure_1">
  <g id="patch_1">
   <path d="M 0 492.905749 
L 665.71625 492.905749 
L 665.71625 0 
L 0 0 
z
" style="fill:#ffffff;"/>
  </g>
  <g id="axes_1">
   <g id="patch_2">
    <path d="M 54.956563 447.064499 
L 504.956563 447.064499 
L 504.956563 3.544499 
L 54.956563 3.544499 
z
" style="fill:#ffffff;"/>
   </g>
   <g id="PathCollection_1">
    <defs>
     <path d="M 0 3 
C 0.795609 3 1.55874 2.683901 2.12132 2.12132 
C 2.683901 1.55874 3 0.795609 3 0 
C 3 -0.795609 2.683901 -1.55874 2.12132 -2.12132 
C 1.55874 -2.683901 0.795609 -3 0 -3 
C -0.795609 -3 -1.55874 -2.683901 -2.12132 -2.12132 
C -2.683901 -1.55874 -3 -0.795609 -3 0 
C -3 0.795609 -2.683901 1.55874 -2.12132 2.12132 
C -1.55874 2.683901 -0.795609 3 0 3 
z
" id="m1bc2c3c384" style="stroke:#1f77b4;"/>
    </defs>
    <g clip-path="url(#pcdaf0202ac)">
     <use style="fill:#1f77b4;stroke:#1f77b4;" x="427.124013" xlink:href="#m1bc2c3c384" y="117.354847"/>
     <use style="fill:#1f77b4;stroke:#1f77b4;" x="409.916346" xlink:href="#m1bc2c3c384" y="134.627822"/>
     <use style="fill:#1f77b4;stroke:#1f77b4;" x="405.605368" xlink:href="#m1bc2c3c384" y="107.494423"/>
     <use style="fill:#1f77b4;stroke:#1f77b4;" x="404.614319" xlink:href="#m1bc2c3c384" y="144.350289"/>
     <use style="fill:#1f77b4;stroke:#1f77b4;" x="370.359966" xlink:href="#m1bc2c3c384" y="70.00706"/>
     <use style="fill:#1f77b4;stroke:#1f77b4;" x="408.826216" xlink:href="#m1bc2c3c384" y="116.604368"/>
     <use style="fill:#1f77b4;stroke:#1f77b4;" x="439.810586" xlink:href="#m1bc2c3c384" y="149.668588"/>
     <use style="fill:#1f77b4;stroke:#1f77b4;" x="426.685341" xlink:href="#m1bc2c3c384" y="131.298915"/>
     <use style="fill:#1f77b4;stroke:#1f77b4;" x="427.720857" xlink:href="#m1bc2c3c384" y="162.607988"/>
     <use style="fill:#1f77b4;stroke:#1f77b4;" x="425.165334" xlink:href="#m1bc2c3c384" y="144.369589"/>
     <use style="fill:#1f77b4;stroke:#1f77b4;" x="417.719442" xlink:href="#m1bc2c3c384" y="127.485087"/>
     <use style="fill:#1f77b4;stroke:#1f77b4;" x="417.393432" xlink:href="#m1bc2c3c384" y="165.144432"/>
     <use style="fill:#1f77b4;stroke:#1f77b4;" x="419.89886" xlink:href="#m1bc2c3c384" y="140.82722"/>
     <use style="fill:#1f77b4;stroke:#1f77b4;" x="406.258457" xlink:href="#m1bc2c3c384" y="106.373893"/>
     <use style="fill:#1f77b4;stroke:#1f77b4;" x="409.371836" xlink:href="#m1bc2c3c384" y="80.774999"/>
     <use style="fill:#1f77b4;stroke:#1f77b4;" x="387.087782" xlink:href="#m1bc2c3c384" y="80.440039"/>
     <use style="fill:#1f77b4;stroke:#1f77b4;" x="420.948113" xlink:href="#m1bc2c3c384" y="130.351657"/>
     <use style="fill:#1f77b4;stroke:#1f77b4;" x="413.707113" xlink:href="#m1bc2c3c384" y="118.46996"/>
     <use style="fill:#1f77b4;stroke:#1f77b4;" x="417.932132" xlink:href="#m1bc2c3c384" y="140.395823"/>
     <use style="fill:#1f77b4;stroke:#1f77b4;" x="428.927719" xlink:href="#m1bc2c3c384" y="140.976652"/>
    </g>
   </g>
   <g id="PathCollection_2">
    <defs>
     <path d="M -2.99994 2.99994 
L 3.00006 2.99994 
L 3.00006 -3.00006 
L -2.99994 -3.00006 
z
" id="mcc4febde1d" style="stroke:#ff7f0e;"/>
    </defs>
    <g clip-path="url(#pcdaf0202ac)">
     <use style="fill:#ff7f0e;stroke:#ff7f0e;" x="134.249265" xlink:href="#mcc4febde1d" y="260.853245"/>
     <use style="fill:#ff7f0e;stroke:#ff7f0e;" x="134.36679" xlink:href="#mcc4febde1d" y="263.385969"/>
     <use style="fill:#ff7f0e;stroke:#ff7f0e;" x="163.444103" xlink:href="#mcc4febde1d" y="283.187548"/>
     <use style="fill:#ff7f0e;stroke:#ff7f0e;" x="194.466666" xlink:href="#mcc4febde1d" y="311.486879"/>
     <use style="fill:#ff7f0e;stroke:#ff7f0e;" x="130.101807" xlink:href="#mcc4febde1d" y="252.790978"/>
     <use style="fill:#ff7f0e;stroke:#ff7f0e;" x="134.490347" xlink:href="#mcc4febde1d" y="265.770962"/>
     <use style="fill:#ff7f0e;stroke:#ff7f0e;" x="143.705248" xlink:href="#mcc4febde1d" y="288.337637"/>
     <use style="fill:#ff7f0e;stroke:#ff7f0e;" x="145.604087" xlink:href="#mcc4febde1d" y="284.798476"/>
     <use style="fill:#ff7f0e;stroke:#ff7f0e;" x="144.814386" xlink:href="#mcc4febde1d" y="299.582719"/>
     <use style="fill:#ff7f0e;stroke:#ff7f0e;" x="148.705825" xlink:href="#mcc4febde1d" y="280.240185"/>
     <use style="fill:#ff7f0e;stroke:#ff7f0e;" x="157.769058" xlink:href="#mcc4febde1d" y="282.846207"/>
     <use style="fill:#ff7f0e;stroke:#ff7f0e;" x="149.459525" xlink:href="#mcc4febde1d" y="277.205177"/>
     <use style="fill:#ff7f0e;stroke:#ff7f0e;" x="153.738426" xlink:href="#mcc4febde1d" y="276.727982"/>
     <use style="fill:#ff7f0e;stroke:#ff7f0e;" x="129.832579" xlink:href="#mcc4febde1d" y="269.679842"/>
     <use style="fill:#ff7f0e;stroke:#ff7f0e;" x="136.494989" xlink:href="#mcc4febde1d" y="277.752909"/>
     <use style="fill:#ff7f0e;stroke:#ff7f0e;" x="143.912318" xlink:href="#mcc4febde1d" y="275.221701"/>
     <use style="fill:#ff7f0e;stroke:#ff7f0e;" x="205.556441" xlink:href="#mcc4febde1d" y="313.852533"/>
     <use style="fill:#ff7f0e;stroke:#ff7f0e;" x="172.197509" xlink:href="#mcc4febde1d" y="288.234866"/>
     <use style="fill:#ff7f0e;stroke:#ff7f0e;" x="164.024688" xlink:href="#mcc4febde1d" y="284.567106"/>
     <use style="fill:#ff7f0e;stroke:#ff7f0e;" x="160.348225" xlink:href="#mcc4febde1d" y="281.761634"/>
    </g>
   </g>
   <g id="PathCollection_3">
    <defs>
     <path d="M 0 -3 
L -3 3 
L 3 3 
z
" id="m8c6a31c5f0" style="stroke:#2ca02c;"/>
    </defs>
    <g clip-path="url(#pcdaf0202ac)">
     <use style="fill:#2ca02c;stroke:#2ca02c;" x="349.883336" xlink:href="#m8c6a31c5f0" y="393.005356"/>
     <use style="fill:#2ca02c;stroke:#2ca02c;" x="287.350264" xlink:href="#m8c6a31c5f0" y="400.9404"/>
     <use style="fill:#2ca02c;stroke:#2ca02c;" x="136.813835" xlink:href="#m8c6a31c5f0" y="365.417327"/>
     <use style="fill:#2ca02c;stroke:#2ca02c;" x="219.829856" xlink:href="#m8c6a31c5f0" y="425.593992"/>
     <use style="fill:#2ca02c;stroke:#2ca02c;" x="178.749364" xlink:href="#m8c6a31c5f0" y="414.308392"/>
     <use style="fill:#2ca02c;stroke:#2ca02c;" x="192.114825" xlink:href="#m8c6a31c5f0" y="416.807125"/>
     <use style="fill:#2ca02c;stroke:#2ca02c;" x="273.210045" xlink:href="#m8c6a31c5f0" y="420.857447"/>
     <use style="fill:#2ca02c;stroke:#2ca02c;" x="246.642567" xlink:href="#m8c6a31c5f0" y="416.903723"/>
     <use style="fill:#2ca02c;stroke:#2ca02c;" x="261.658442" xlink:href="#m8c6a31c5f0" y="410.598691"/>
     <use style="fill:#2ca02c;stroke:#2ca02c;" x="189.257654" xlink:href="#m8c6a31c5f0" y="391.333321"/>
     <use style="fill:#2ca02c;stroke:#2ca02c;" x="205.391858" xlink:href="#m8c6a31c5f0" y="405.593719"/>
     <use style="fill:#2ca02c;stroke:#2ca02c;" x="246.768304" xlink:href="#m8c6a31c5f0" y="406.742236"/>
     <use style="fill:#2ca02c;stroke:#2ca02c;" x="263.694756" xlink:href="#m8c6a31c5f0" y="393.336147"/>
     <use style="fill:#2ca02c;stroke:#2ca02c;" x="260.518322" xlink:href="#m8c6a31c5f0" y="375.826833"/>
     <use style="fill:#2ca02c;stroke:#2ca02c;" x="282.207917" xlink:href="#m8c6a31c5f0" y="387.484066"/>
     <use style="fill:#2ca02c;stroke:#2ca02c;" x="282.852106" xlink:href="#m8c6a31c5f0" y="409.357244"/>
     <use style="fill:#2ca02c;stroke:#2ca02c;" x="245.759228" xlink:href="#m8c6a31c5f0" y="401.306803"/>
     <use style="fill:#2ca02c;stroke:#2ca02c;" x="261.694042" xlink:href="#m8c6a31c5f0" y="393.93976"/>
     <use style="fill:#2ca02c;stroke:#2ca02c;" x="307.837605" xlink:href="#m8c6a31c5f0" y="395.37233"/>
     <use style="fill:#2ca02c;stroke:#2ca02c;" x="309.455891" xlink:href="#m8c6a31c5f0" y="380.237304"/>
    </g>
   </g>
   <g id="PathCollection_4">
    <defs>
     <path d="M 0 -3 
L -0.673542 -0.927051 
L -2.85317 -0.927051 
L -1.089814 0.354102 
L -1.763356 2.427051 
L -0 1.145898 
L 1.763356 2.427051 
L 1.089814 0.354102 
L 2.85317 -0.927051 
L 0.673542 -0.927051 
z
" id="mbf87c65f3d" style="stroke:#d62728;"/>
    </defs>
    <g clip-path="url(#pcdaf0202ac)">
     <use style="fill:#d62728;stroke:#d62728;" x="141.164947" xlink:href="#mbf87c65f3d" y="191.694522"/>
     <use style="fill:#d62728;stroke:#d62728;" x="134.645981" xlink:href="#mbf87c65f3d" y="189.442177"/>
     <use style="fill:#d62728;stroke:#d62728;" x="153.188798" xlink:href="#mbf87c65f3d" y="173.939655"/>
     <use style="fill:#d62728;stroke:#d62728;" x="153.453484" xlink:href="#mbf87c65f3d" y="179.393722"/>
     <use style="fill:#d62728;stroke:#d62728;" x="144.788309" xlink:href="#mbf87c65f3d" y="181.787254"/>
     <use style="fill:#d62728;stroke:#d62728;" x="165.293941" xlink:href="#mbf87c65f3d" y="160.536321"/>
     <use style="fill:#d62728;stroke:#d62728;" x="160.46837" xlink:href="#mbf87c65f3d" y="173.097664"/>
     <use style="fill:#d62728;stroke:#d62728;" x="154.584152" xlink:href="#mbf87c65f3d" y="172.283343"/>
     <use style="fill:#d62728;stroke:#d62728;" x="148.500033" xlink:href="#mbf87c65f3d" y="158.634547"/>
     <use style="fill:#d62728;stroke:#d62728;" x="190.032573" xlink:href="#mbf87c65f3d" y="185.410774"/>
     <use style="fill:#d62728;stroke:#d62728;" x="158.968794" xlink:href="#mbf87c65f3d" y="167.701662"/>
     <use style="fill:#d62728;stroke:#d62728;" x="151.355748" xlink:href="#mbf87c65f3d" y="173.687497"/>
     <use style="fill:#d62728;stroke:#d62728;" x="188.562191" xlink:href="#mbf87c65f3d" y="183.278885"/>
     <use style="fill:#d62728;stroke:#d62728;" x="176.231079" xlink:href="#mbf87c65f3d" y="175.85578"/>
     <use style="fill:#d62728;stroke:#d62728;" x="194.99188" xlink:href="#mbf87c65f3d" y="178.293246"/>
     <use style="fill:#d62728;stroke:#d62728;" x="152.29755" xlink:href="#mbf87c65f3d" y="169.206176"/>
     <use style="fill:#d62728;stroke:#d62728;" x="155.524284" xlink:href="#mbf87c65f3d" y="172.896232"/>
     <use style="fill:#d62728;stroke:#d62728;" x="159.522688" xlink:href="#mbf87c65f3d" y="189.373241"/>
     <use style="fill:#d62728;stroke:#d62728;" x="136.774201" xlink:href="#mbf87c65f3d" y="160.863885"/>
     <use style="fill:#d62728;stroke:#d62728;" x="187.91353" xlink:href="#mbf87c65f3d" y="179.260626"/>
    </g>
   </g>
   <g id="PathCollection_5">
    <defs>
     <path d="M -0 3 
L 3 -3 
L -3 -3 
z
" id="m19d018ded6" style="stroke:#9467bd;"/>
    </defs>
    <g clip-path="url(#pcdaf0202ac)">
     <use style="fill:#9467bd;stroke:#9467bd;" x="475.070521" xlink:href="#m19d018ded6" y="228.896317"/>
     <use style="fill:#9467bd;stroke:#9467bd;" x="476.785801" xlink:href="#m19d018ded6" y="217.900125"/>
     <use style="fill:#9467bd;stroke:#9467bd;" x="475.425002" xlink:href="#m19d018ded6" y="222.907038"/>
     <use style="fill:#9467bd;stroke:#9467bd;" x="475.580741" xlink:href="#m19d018ded6" y="245.684469"/>
     <use style="fill:#9467bd;stroke:#9467bd;" x="468.080627" xlink:href="#m19d018ded6" y="223.104987"/>
     <use style="fill:#9467bd;stroke:#9467bd;" x="474.735177" xlink:href="#m19d018ded6" y="198.953803"/>
     <use style="fill:#9467bd;stroke:#9467bd;" x="459.686208" xlink:href="#m19d018ded6" y="223.046662"/>
     <use style="fill:#9467bd;stroke:#9467bd;" x="473.234556" xlink:href="#m19d018ded6" y="250.496012"/>
     <use style="fill:#9467bd;stroke:#9467bd;" x="467.707647" xlink:href="#m19d018ded6" y="242.910698"/>
     <use style="fill:#9467bd;stroke:#9467bd;" x="472.882122" xlink:href="#m19d018ded6" y="247.236181"/>
     <use style="fill:#9467bd;stroke:#9467bd;" x="469.222823" xlink:href="#m19d018ded6" y="239.549304"/>
     <use style="fill:#9467bd;stroke:#9467bd;" x="472.697881" xlink:href="#m19d018ded6" y="232.751756"/>
     <use style="fill:#9467bd;stroke:#9467bd;" x="475.987919" xlink:href="#m19d018ded6" y="228.26096"/>
     <use style="fill:#9467bd;stroke:#9467bd;" x="482.264212" xlink:href="#m19d018ded6" y="239.955504"/>
     <use style="fill:#9467bd;stroke:#9467bd;" x="464.346427" xlink:href="#m19d018ded6" y="210.388772"/>
     <use style="fill:#9467bd;stroke:#9467bd;" x="479.887933" xlink:href="#m19d018ded6" y="240.42234"/>
     <use style="fill:#9467bd;stroke:#9467bd;" x="469.826682" xlink:href="#m19d018ded6" y="216.198691"/>
     <use style="fill:#9467bd;stroke:#9467bd;" x="483.180108" xlink:href="#m19d018ded6" y="236.927387"/>
     <use style="fill:#9467bd;stroke:#9467bd;" x="469.311527" xlink:href="#m19d018ded6" y="201.741315"/>
     <use style="fill:#9467bd;stroke:#9467bd;" x="479.604434" xlink:href="#m19d018ded6" y="247.62348"/>
    </g>
   </g>
   <g id="PathCollection_6">
    <defs>
     <path d="M 0 0 
L 0 3 
M 0 0 
L 2.4 -1.5 
M 0 0 
L -2.4 -1.5 
" id="me61cae676d" style="stroke:#8c564b;stroke-width:1.5;"/>
    </defs>
    <g clip-path="url(#pcdaf0202ac)">
     <use style="fill:#8c564b;stroke:#8c564b;stroke-width:1.5;" x="362.822634" xlink:href="#me61cae676d" y="314.865586"/>
     <use style="fill:#8c564b;stroke:#8c564b;stroke-width:1.5;" x="290.768643" xlink:href="#me61cae676d" y="267.391569"/>
     <use style="fill:#8c564b;stroke:#8c564b;stroke-width:1.5;" x="327.099944" xlink:href="#me61cae676d" y="278.237907"/>
     <use style="fill:#8c564b;stroke:#8c564b;stroke-width:1.5;" x="322.940501" xlink:href="#me61cae676d" y="261.221217"/>
     <use style="fill:#8c564b;stroke:#8c564b;stroke-width:1.5;" x="324.691882" xlink:href="#me61cae676d" y="266.286629"/>
     <use style="fill:#8c564b;stroke:#8c564b;stroke-width:1.5;" x="292.750987" xlink:href="#me61cae676d" y="268.542276"/>
     <use style="fill:#8c564b;stroke:#8c564b;stroke-width:1.5;" x="304.79867" xlink:href="#me61cae676d" y="307.61737"/>
     <use style="fill:#8c564b;stroke:#8c564b;stroke-width:1.5;" x="290.729367" xlink:href="#me61cae676d" y="277.728739"/>
     <use style="fill:#8c564b;stroke:#8c564b;stroke-width:1.5;" x="228.444784" xlink:href="#me61cae676d" y="278.927993"/>
     <use style="fill:#8c564b;stroke:#8c564b;stroke-width:1.5;" x="217.528823" xlink:href="#me61cae676d" y="271.889779"/>
     <use style="fill:#8c564b;stroke:#8c564b;stroke-width:1.5;" x="278.570102" xlink:href="#me61cae676d" y="295.37228"/>
     <use style="fill:#8c564b;stroke:#8c564b;stroke-width:1.5;" x="281.535148" xlink:href="#me61cae676d" y="287.36166"/>
     <use style="fill:#8c564b;stroke:#8c564b;stroke-width:1.5;" x="263.378809" xlink:href="#me61cae676d" y="274.465537"/>
     <use style="fill:#8c564b;stroke:#8c564b;stroke-width:1.5;" x="225.61785" xlink:href="#me61cae676d" y="268.984078"/>
     <use style="fill:#8c564b;stroke:#8c564b;stroke-width:1.5;" x="262.881339" xlink:href="#me61cae676d" y="334.803178"/>
     <use style="fill:#8c564b;stroke:#8c564b;stroke-width:1.5;" x="234.81557" xlink:href="#me61cae676d" y="295.445949"/>
     <use style="fill:#8c564b;stroke:#8c564b;stroke-width:1.5;" x="239.355626" xlink:href="#me61cae676d" y="287.404379"/>
     <use style="fill:#8c564b;stroke:#8c564b;stroke-width:1.5;" x="251.423472" xlink:href="#me61cae676d" y="294.431268"/>
     <use style="fill:#8c564b;stroke:#8c564b;stroke-width:1.5;" x="260.77463" xlink:href="#me61cae676d" y="318.366647"/>
     <use style="fill:#8c564b;stroke:#8c564b;stroke-width:1.5;" x="250.836626" xlink:href="#me61cae676d" y="303.731759"/>
    </g>
   </g>
   <g id="PathCollection_7">
    <defs>
     <path d="M 0 -3 
L -2.85317 -0.927051 
L -1.763356 2.427051 
L 1.763356 2.427051 
L 2.85317 -0.927051 
z
" id="m8702aa6b58" style="stroke:#e377c2;"/>
    </defs>
    <g clip-path="url(#pcdaf0202ac)">
     <use style="fill:#e377c2;stroke:#e377c2;" x="76.848602" xlink:href="#m8702aa6b58" y="38.910632"/>
     <use style="fill:#e377c2;stroke:#e377c2;" x="84.086971" xlink:href="#m8702aa6b58" y="35.52839"/>
     <use style="fill:#e377c2;stroke:#e377c2;" x="87.114942" xlink:href="#m8702aa6b58" y="36.616177"/>
     <use style="fill:#e377c2;stroke:#e377c2;" x="87.220119" xlink:href="#m8702aa6b58" y="25.617896"/>
     <use style="fill:#e377c2;stroke:#e377c2;" x="99.103425" xlink:href="#m8702aa6b58" y="33.789886"/>
     <use style="fill:#e377c2;stroke:#e377c2;" x="81.835583" xlink:href="#m8702aa6b58" y="29.288028"/>
     <use style="fill:#e377c2;stroke:#e377c2;" x="119.000799" xlink:href="#m8702aa6b58" y="56.181202"/>
     <use style="fill:#e377c2;stroke:#e377c2;" x="85.788123" xlink:href="#m8702aa6b58" y="26.801177"/>
     <use style="fill:#e377c2;stroke:#e377c2;" x="119.064084" xlink:href="#m8702aa6b58" y="50.179492"/>
     <use style="fill:#e377c2;stroke:#e377c2;" x="156.174382" xlink:href="#m8702aa6b58" y="83.096543"/>
     <use style="fill:#e377c2;stroke:#e377c2;" x="174.182739" xlink:href="#m8702aa6b58" y="128.87585"/>
     <use style="fill:#e377c2;stroke:#e377c2;" x="150.564149" xlink:href="#m8702aa6b58" y="107.646157"/>
     <use style="fill:#e377c2;stroke:#e377c2;" x="128.587688" xlink:href="#m8702aa6b58" y="83.887528"/>
     <use style="fill:#e377c2;stroke:#e377c2;" x="140.640768" xlink:href="#m8702aa6b58" y="83.295486"/>
     <use style="fill:#e377c2;stroke:#e377c2;" x="121.846825" xlink:href="#m8702aa6b58" y="82.248699"/>
     <use style="fill:#e377c2;stroke:#e377c2;" x="113.766235" xlink:href="#m8702aa6b58" y="81.796577"/>
     <use style="fill:#e377c2;stroke:#e377c2;" x="139.351534" xlink:href="#m8702aa6b58" y="90.016142"/>
     <use style="fill:#e377c2;stroke:#e377c2;" x="149.954736" xlink:href="#m8702aa6b58" y="101.479521"/>
     <use style="fill:#e377c2;stroke:#e377c2;" x="129.032803" xlink:href="#m8702aa6b58" y="87.132561"/>
     <use style="fill:#e377c2;stroke:#e377c2;" x="132.447246" xlink:href="#m8702aa6b58" y="92.373432"/>
    </g>
   </g>
   <g id="PathCollection_8">
    <defs>
     <path d="M 0 4.242641 
L 4.242641 0 
L 0 -4.242641 
L -4.242641 0 
z
" id="md8ac4c4f99" style="stroke:#7f7f7f;"/>
    </defs>
    <g clip-path="url(#pcdaf0202ac)">
     <use style="fill:#7f7f7f;stroke:#7f7f7f;" x="204.915464" xlink:href="#md8ac4c4f99" y="182.284957"/>
     <use style="fill:#7f7f7f;stroke:#7f7f7f;" x="206.492717" xlink:href="#md8ac4c4f99" y="224.617135"/>
     <use style="fill:#7f7f7f;stroke:#7f7f7f;" x="199.460921" xlink:href="#md8ac4c4f99" y="167.285407"/>
     <use style="fill:#7f7f7f;stroke:#7f7f7f;" x="209.035081" xlink:href="#md8ac4c4f99" y="186.157585"/>
     <use style="fill:#7f7f7f;stroke:#7f7f7f;" x="173.643541" xlink:href="#md8ac4c4f99" y="182.290083"/>
     <use style="fill:#7f7f7f;stroke:#7f7f7f;" x="190.733597" xlink:href="#md8ac4c4f99" y="182.738226"/>
     <use style="fill:#7f7f7f;stroke:#7f7f7f;" x="241.34112" xlink:href="#md8ac4c4f99" y="179.1241"/>
     <use style="fill:#7f7f7f;stroke:#7f7f7f;" x="219.928632" xlink:href="#md8ac4c4f99" y="181.85577"/>
     <use style="fill:#7f7f7f;stroke:#7f7f7f;" x="227.272592" xlink:href="#md8ac4c4f99" y="205.457748"/>
     <use style="fill:#7f7f7f;stroke:#7f7f7f;" x="179.8395" xlink:href="#md8ac4c4f99" y="195.293555"/>
     <use style="fill:#7f7f7f;stroke:#7f7f7f;" x="193.827192" xlink:href="#md8ac4c4f99" y="193.653676"/>
     <use style="fill:#7f7f7f;stroke:#7f7f7f;" x="192.46645" xlink:href="#md8ac4c4f99" y="176.548103"/>
     <use style="fill:#7f7f7f;stroke:#7f7f7f;" x="173.321808" xlink:href="#md8ac4c4f99" y="185.593311"/>
     <use style="fill:#7f7f7f;stroke:#7f7f7f;" x="175.759797" xlink:href="#md8ac4c4f99" y="211.398477"/>
     <use style="fill:#7f7f7f;stroke:#7f7f7f;" x="151.638682" xlink:href="#md8ac4c4f99" y="188.224144"/>
     <use style="fill:#7f7f7f;stroke:#7f7f7f;" x="191.701764" xlink:href="#md8ac4c4f99" y="184.290731"/>
     <use style="fill:#7f7f7f;stroke:#7f7f7f;" x="220.37897" xlink:href="#md8ac4c4f99" y="194.236201"/>
     <use style="fill:#7f7f7f;stroke:#7f7f7f;" x="185.433172" xlink:href="#md8ac4c4f99" y="194.376053"/>
     <use style="fill:#7f7f7f;stroke:#7f7f7f;" x="217.413554" xlink:href="#md8ac4c4f99" y="186.778111"/>
     <use style="fill:#7f7f7f;stroke:#7f7f7f;" x="184.032291" xlink:href="#md8ac4c4f99" y="182.966189"/>
    </g>
   </g>
   <g id="PathCollection_9">
    <defs>
     <path d="M -3 3 
L 3 -3 
M -3 -3 
L 3 3 
" id="m5f7aba5171" style="stroke:#bcbd22;stroke-width:1.5;"/>
    </defs>
    <g clip-path="url(#pcdaf0202ac)">
     <use style="fill:#bcbd22;stroke:#bcbd22;stroke-width:1.5;" x="128.412014" xlink:href="#m5f7aba5171" y="352.465094"/>
     <use style="fill:#bcbd22;stroke:#bcbd22;stroke-width:1.5;" x="140.266239" xlink:href="#m5f7aba5171" y="339.946593"/>
     <use style="fill:#bcbd22;stroke:#bcbd22;stroke-width:1.5;" x="117.886702" xlink:href="#m5f7aba5171" y="313.665233"/>
     <use style="fill:#bcbd22;stroke:#bcbd22;stroke-width:1.5;" x="112.917616" xlink:href="#m5f7aba5171" y="281.900197"/>
     <use style="fill:#bcbd22;stroke:#bcbd22;stroke-width:1.5;" x="110.600739" xlink:href="#m5f7aba5171" y="294.175746"/>
     <use style="fill:#bcbd22;stroke:#bcbd22;stroke-width:1.5;" x="98.101663" xlink:href="#m5f7aba5171" y="295.495692"/>
     <use style="fill:#bcbd22;stroke:#bcbd22;stroke-width:1.5;" x="121.032622" xlink:href="#m5f7aba5171" y="306.17159"/>
     <use style="fill:#bcbd22;stroke:#bcbd22;stroke-width:1.5;" x="112.935436" xlink:href="#m5f7aba5171" y="308.228764"/>
     <use style="fill:#bcbd22;stroke:#bcbd22;stroke-width:1.5;" x="117.929411" xlink:href="#m5f7aba5171" y="324.363862"/>
     <use style="fill:#bcbd22;stroke:#bcbd22;stroke-width:1.5;" x="123.666039" xlink:href="#m5f7aba5171" y="263.182195"/>
     <use style="fill:#bcbd22;stroke:#bcbd22;stroke-width:1.5;" x="132.533195" xlink:href="#m5f7aba5171" y="338.513378"/>
     <use style="fill:#bcbd22;stroke:#bcbd22;stroke-width:1.5;" x="136.256488" xlink:href="#m5f7aba5171" y="321.788287"/>
     <use style="fill:#bcbd22;stroke:#bcbd22;stroke-width:1.5;" x="123.13881" xlink:href="#m5f7aba5171" y="273.015728"/>
     <use style="fill:#bcbd22;stroke:#bcbd22;stroke-width:1.5;" x="111.430031" xlink:href="#m5f7aba5171" y="282.638145"/>
     <use style="fill:#bcbd22;stroke:#bcbd22;stroke-width:1.5;" x="134.427492" xlink:href="#m5f7aba5171" y="327.820329"/>
     <use style="fill:#bcbd22;stroke:#bcbd22;stroke-width:1.5;" x="147.078653" xlink:href="#m5f7aba5171" y="302.080331"/>
     <use style="fill:#bcbd22;stroke:#bcbd22;stroke-width:1.5;" x="136.278707" xlink:href="#m5f7aba5171" y="251.37943"/>
     <use style="fill:#bcbd22;stroke:#bcbd22;stroke-width:1.5;" x="125.206733" xlink:href="#m5f7aba5171" y="277.305867"/>
     <use style="fill:#bcbd22;stroke:#bcbd22;stroke-width:1.5;" x="114.906824" xlink:href="#m5f7aba5171" y="286.433142"/>
     <use style="fill:#bcbd22;stroke:#bcbd22;stroke-width:1.5;" x="122.234563" xlink:href="#m5f7aba5171" y="265.813884"/>
    </g>
   </g>
   <g id="matplotlib.axis_1">
    <g id="xtick_1">
     <g id="line2d_1">
      <defs>
       <path d="M 0 0 
L 0 3.5 
" id="m573a14aa4d" style="stroke:#000000;stroke-width:0.8;"/>
      </defs>
      <g>
       <use style="stroke:#000000;stroke-width:0.8;" x="61.711975" xlink:href="#m573a14aa4d" y="447.064499"/>
      </g>
     </g>
     <g id="text_1">
      <!-- −4 -->
      <defs>
       <path d="M 10.59375 35.5 
L 73.1875 35.5 
L 73.1875 27.203125 
L 10.59375 27.203125 
z
" id="DejaVuSans-8722"/>
       <path d="M 37.796875 64.3125 
L 12.890625 25.390625 
L 37.796875 25.390625 
z
M 35.203125 72.90625 
L 47.609375 72.90625 
L 47.609375 25.390625 
L 58.015625 25.390625 
L 58.015625 17.1875 
L 47.609375 17.1875 
L 47.609375 0 
L 37.796875 0 
L 37.796875 17.1875 
L 4.890625 17.1875 
L 4.890625 26.703125 
z
" id="DejaVuSans-52"/>
      </defs>
      <g transform="translate(48.444006 467.741686)scale(0.18 -0.18)">
       <use xlink:href="#DejaVuSans-8722"/>
       <use x="83.789062" xlink:href="#DejaVuSans-52"/>
      </g>
     </g>
    </g>
    <g id="xtick_2">
     <g id="line2d_2">
      <g>
       <use style="stroke:#000000;stroke-width:0.8;" x="151.139545" xlink:href="#m573a14aa4d" y="447.064499"/>
      </g>
     </g>
     <g id="text_2">
      <!-- −2 -->
      <defs>
       <path d="M 19.1875 8.296875 
L 53.609375 8.296875 
L 53.609375 0 
L 7.328125 0 
L 7.328125 8.296875 
Q 12.9375 14.109375 22.625 23.890625 
Q 32.328125 33.6875 34.8125 36.53125 
Q 39.546875 41.84375 41.421875 45.53125 
Q 43.3125 49.21875 43.3125 52.78125 
Q 43.3125 58.59375 39.234375 62.25 
Q 35.15625 65.921875 28.609375 65.921875 
Q 23.96875 65.921875 18.8125 64.3125 
Q 13.671875 62.703125 7.8125 59.421875 
L 7.8125 69.390625 
Q 13.765625 71.78125 18.9375 73 
Q 24.125 74.21875 28.421875 74.21875 
Q 39.75 74.21875 46.484375 68.546875 
Q 53.21875 62.890625 53.21875 53.421875 
Q 53.21875 48.921875 51.53125 44.890625 
Q 49.859375 40.875 45.40625 35.40625 
Q 44.1875 33.984375 37.640625 27.21875 
Q 31.109375 20.453125 19.1875 8.296875 
z
" id="DejaVuSans-50"/>
      </defs>
      <g transform="translate(137.871576 467.741686)scale(0.18 -0.18)">
       <use xlink:href="#DejaVuSans-8722"/>
       <use x="83.789062" xlink:href="#DejaVuSans-50"/>
      </g>
     </g>
    </g>
    <g id="xtick_3">
     <g id="line2d_3">
      <g>
       <use style="stroke:#000000;stroke-width:0.8;" x="240.567114" xlink:href="#m573a14aa4d" y="447.064499"/>
      </g>
     </g>
     <g id="text_3">
      <!-- 0 -->
      <defs>
       <path d="M 31.78125 66.40625 
Q 24.171875 66.40625 20.328125 58.90625 
Q 16.5 51.421875 16.5 36.375 
Q 16.5 21.390625 20.328125 13.890625 
Q 24.171875 6.390625 31.78125 6.390625 
Q 39.453125 6.390625 43.28125 13.890625 
Q 47.125 21.390625 47.125 36.375 
Q 47.125 51.421875 43.28125 58.90625 
Q 39.453125 66.40625 31.78125 66.40625 
z
M 31.78125 74.21875 
Q 44.046875 74.21875 50.515625 64.515625 
Q 56.984375 54.828125 56.984375 36.375 
Q 56.984375 17.96875 50.515625 8.265625 
Q 44.046875 -1.421875 31.78125 -1.421875 
Q 19.53125 -1.421875 13.0625 8.265625 
Q 6.59375 17.96875 6.59375 36.375 
Q 6.59375 54.828125 13.0625 64.515625 
Q 19.53125 74.21875 31.78125 74.21875 
z
" id="DejaVuSans-48"/>
      </defs>
      <g transform="translate(234.840864 467.741686)scale(0.18 -0.18)">
       <use xlink:href="#DejaVuSans-48"/>
      </g>
     </g>
    </g>
    <g id="xtick_4">
     <g id="line2d_4">
      <g>
       <use style="stroke:#000000;stroke-width:0.8;" x="329.994684" xlink:href="#m573a14aa4d" y="447.064499"/>
      </g>
     </g>
     <g id="text_4">
      <!-- 2 -->
      <g transform="translate(324.268434 467.741686)scale(0.18 -0.18)">
       <use xlink:href="#DejaVuSans-50"/>
      </g>
     </g>
    </g>
    <g id="xtick_5">
     <g id="line2d_5">
      <g>
       <use style="stroke:#000000;stroke-width:0.8;" x="419.422254" xlink:href="#m573a14aa4d" y="447.064499"/>
      </g>
     </g>
     <g id="text_5">
      <!-- 4 -->
      <g transform="translate(413.696004 467.741686)scale(0.18 -0.18)">
       <use xlink:href="#DejaVuSans-52"/>
      </g>
     </g>
    </g>
    <g id="text_6">
     <!-- First component -->
     <defs>
      <path d="M 9.8125 72.90625 
L 51.703125 72.90625 
L 51.703125 64.59375 
L 19.671875 64.59375 
L 19.671875 43.109375 
L 48.578125 43.109375 
L 48.578125 34.8125 
L 19.671875 34.8125 
L 19.671875 0 
L 9.8125 0 
z
" id="DejaVuSans-70"/>
      <path d="M 9.421875 54.6875 
L 18.40625 54.6875 
L 18.40625 0 
L 9.421875 0 
z
M 9.421875 75.984375 
L 18.40625 75.984375 
L 18.40625 64.59375 
L 9.421875 64.59375 
z
" id="DejaVuSans-105"/>
      <path d="M 41.109375 46.296875 
Q 39.59375 47.171875 37.8125 47.578125 
Q 36.03125 48 33.890625 48 
Q 26.265625 48 22.1875 43.046875 
Q 18.109375 38.09375 18.109375 28.8125 
L 18.109375 0 
L 9.078125 0 
L 9.078125 54.6875 
L 18.109375 54.6875 
L 18.109375 46.1875 
Q 20.953125 51.171875 25.484375 53.578125 
Q 30.03125 56 36.53125 56 
Q 37.453125 56 38.578125 55.875 
Q 39.703125 55.765625 41.0625 55.515625 
z
" id="DejaVuSans-114"/>
      <path d="M 44.28125 53.078125 
L 44.28125 44.578125 
Q 40.484375 46.53125 36.375 47.5 
Q 32.28125 48.484375 27.875 48.484375 
Q 21.1875 48.484375 17.84375 46.4375 
Q 14.5 44.390625 14.5 40.28125 
Q 14.5 37.15625 16.890625 35.375 
Q 19.28125 33.59375 26.515625 31.984375 
L 29.59375 31.296875 
Q 39.15625 29.25 43.1875 25.515625 
Q 47.21875 21.78125 47.21875 15.09375 
Q 47.21875 7.46875 41.1875 3.015625 
Q 35.15625 -1.421875 24.609375 -1.421875 
Q 20.21875 -1.421875 15.453125 -0.5625 
Q 10.6875 0.296875 5.421875 2 
L 5.421875 11.28125 
Q 10.40625 8.6875 15.234375 7.390625 
Q 20.0625 6.109375 24.8125 6.109375 
Q 31.15625 6.109375 34.5625 8.28125 
Q 37.984375 10.453125 37.984375 14.40625 
Q 37.984375 18.0625 35.515625 20.015625 
Q 33.0625 21.96875 24.703125 23.78125 
L 21.578125 24.515625 
Q 13.234375 26.265625 9.515625 29.90625 
Q 5.8125 33.546875 5.8125 39.890625 
Q 5.8125 47.609375 11.28125 51.796875 
Q 16.75 56 26.8125 56 
Q 31.78125 56 36.171875 55.265625 
Q 40.578125 54.546875 44.28125 53.078125 
z
" id="DejaVuSans-115"/>
      <path d="M 18.3125 70.21875 
L 18.3125 54.6875 
L 36.8125 54.6875 
L 36.8125 47.703125 
L 18.3125 47.703125 
L 18.3125 18.015625 
Q 18.3125 11.328125 20.140625 9.421875 
Q 21.96875 7.515625 27.59375 7.515625 
L 36.8125 7.515625 
L 36.8125 0 
L 27.59375 0 
Q 17.1875 0 13.234375 3.875 
Q 9.28125 7.765625 9.28125 18.015625 
L 9.28125 47.703125 
L 2.6875 47.703125 
L 2.6875 54.6875 
L 9.28125 54.6875 
L 9.28125 70.21875 
z
" id="DejaVuSans-116"/>
      <path id="DejaVuSans-32"/>
      <path d="M 48.78125 52.59375 
L 48.78125 44.1875 
Q 44.96875 46.296875 41.140625 47.34375 
Q 37.3125 48.390625 33.40625 48.390625 
Q 24.65625 48.390625 19.8125 42.84375 
Q 14.984375 37.3125 14.984375 27.296875 
Q 14.984375 17.28125 19.8125 11.734375 
Q 24.65625 6.203125 33.40625 6.203125 
Q 37.3125 6.203125 41.140625 7.25 
Q 44.96875 8.296875 48.78125 10.40625 
L 48.78125 2.09375 
Q 45.015625 0.34375 40.984375 -0.53125 
Q 36.96875 -1.421875 32.421875 -1.421875 
Q 20.0625 -1.421875 12.78125 6.34375 
Q 5.515625 14.109375 5.515625 27.296875 
Q 5.515625 40.671875 12.859375 48.328125 
Q 20.21875 56 33.015625 56 
Q 37.15625 56 41.109375 55.140625 
Q 45.0625 54.296875 48.78125 52.59375 
z
" id="DejaVuSans-99"/>
      <path d="M 30.609375 48.390625 
Q 23.390625 48.390625 19.1875 42.75 
Q 14.984375 37.109375 14.984375 27.296875 
Q 14.984375 17.484375 19.15625 11.84375 
Q 23.34375 6.203125 30.609375 6.203125 
Q 37.796875 6.203125 41.984375 11.859375 
Q 46.1875 17.53125 46.1875 27.296875 
Q 46.1875 37.015625 41.984375 42.703125 
Q 37.796875 48.390625 30.609375 48.390625 
z
M 30.609375 56 
Q 42.328125 56 49.015625 48.375 
Q 55.71875 40.765625 55.71875 27.296875 
Q 55.71875 13.875 49.015625 6.21875 
Q 42.328125 -1.421875 30.609375 -1.421875 
Q 18.84375 -1.421875 12.171875 6.21875 
Q 5.515625 13.875 5.515625 27.296875 
Q 5.515625 40.765625 12.171875 48.375 
Q 18.84375 56 30.609375 56 
z
" id="DejaVuSans-111"/>
      <path d="M 52 44.1875 
Q 55.375 50.25 60.0625 53.125 
Q 64.75 56 71.09375 56 
Q 79.640625 56 84.28125 50.015625 
Q 88.921875 44.046875 88.921875 33.015625 
L 88.921875 0 
L 79.890625 0 
L 79.890625 32.71875 
Q 79.890625 40.578125 77.09375 44.375 
Q 74.3125 48.1875 68.609375 48.1875 
Q 61.625 48.1875 57.5625 43.546875 
Q 53.515625 38.921875 53.515625 30.90625 
L 53.515625 0 
L 44.484375 0 
L 44.484375 32.71875 
Q 44.484375 40.625 41.703125 44.40625 
Q 38.921875 48.1875 33.109375 48.1875 
Q 26.21875 48.1875 22.15625 43.53125 
Q 18.109375 38.875 18.109375 30.90625 
L 18.109375 0 
L 9.078125 0 
L 9.078125 54.6875 
L 18.109375 54.6875 
L 18.109375 46.1875 
Q 21.1875 51.21875 25.484375 53.609375 
Q 29.78125 56 35.6875 56 
Q 41.65625 56 45.828125 52.96875 
Q 50 49.953125 52 44.1875 
z
" id="DejaVuSans-109"/>
      <path d="M 18.109375 8.203125 
L 18.109375 -20.796875 
L 9.078125 -20.796875 
L 9.078125 54.6875 
L 18.109375 54.6875 
L 18.109375 46.390625 
Q 20.953125 51.265625 25.265625 53.625 
Q 29.59375 56 35.59375 56 
Q 45.5625 56 51.78125 48.09375 
Q 58.015625 40.1875 58.015625 27.296875 
Q 58.015625 14.40625 51.78125 6.484375 
Q 45.5625 -1.421875 35.59375 -1.421875 
Q 29.59375 -1.421875 25.265625 0.953125 
Q 20.953125 3.328125 18.109375 8.203125 
z
M 48.6875 27.296875 
Q 48.6875 37.203125 44.609375 42.84375 
Q 40.53125 48.484375 33.40625 48.484375 
Q 26.265625 48.484375 22.1875 42.84375 
Q 18.109375 37.203125 18.109375 27.296875 
Q 18.109375 17.390625 22.1875 11.75 
Q 26.265625 6.109375 33.40625 6.109375 
Q 40.53125 6.109375 44.609375 11.75 
Q 48.6875 17.390625 48.6875 27.296875 
z
" id="DejaVuSans-112"/>
      <path d="M 54.890625 33.015625 
L 54.890625 0 
L 45.90625 0 
L 45.90625 32.71875 
Q 45.90625 40.484375 42.875 44.328125 
Q 39.84375 48.1875 33.796875 48.1875 
Q 26.515625 48.1875 22.3125 43.546875 
Q 18.109375 38.921875 18.109375 30.90625 
L 18.109375 0 
L 9.078125 0 
L 9.078125 54.6875 
L 18.109375 54.6875 
L 18.109375 46.1875 
Q 21.34375 51.125 25.703125 53.5625 
Q 30.078125 56 35.796875 56 
Q 45.21875 56 50.046875 50.171875 
Q 54.890625 44.34375 54.890625 33.015625 
z
" id="DejaVuSans-110"/>
      <path d="M 56.203125 29.59375 
L 56.203125 25.203125 
L 14.890625 25.203125 
Q 15.484375 15.921875 20.484375 11.0625 
Q 25.484375 6.203125 34.421875 6.203125 
Q 39.59375 6.203125 44.453125 7.46875 
Q 49.3125 8.734375 54.109375 11.28125 
L 54.109375 2.78125 
Q 49.265625 0.734375 44.1875 -0.34375 
Q 39.109375 -1.421875 33.890625 -1.421875 
Q 20.796875 -1.421875 13.15625 6.1875 
Q 5.515625 13.8125 5.515625 26.8125 
Q 5.515625 40.234375 12.765625 48.109375 
Q 20.015625 56 32.328125 56 
Q 43.359375 56 49.78125 48.890625 
Q 56.203125 41.796875 56.203125 29.59375 
z
M 47.21875 32.234375 
Q 47.125 39.59375 43.09375 43.984375 
Q 39.0625 48.390625 32.421875 48.390625 
Q 24.90625 48.390625 20.390625 44.140625 
Q 15.875 39.890625 15.1875 32.171875 
z
" id="DejaVuSans-101"/>
     </defs>
     <g transform="translate(206.596719 489.162311)scale(0.18 -0.18)">
      <use xlink:href="#DejaVuSans-70"/>
      <use x="57.410156" xlink:href="#DejaVuSans-105"/>
      <use x="85.193359" xlink:href="#DejaVuSans-114"/>
      <use x="126.306641" xlink:href="#DejaVuSans-115"/>
      <use x="178.40625" xlink:href="#DejaVuSans-116"/>
      <use x="217.615234" xlink:href="#DejaVuSans-32"/>
      <use x="249.402344" xlink:href="#DejaVuSans-99"/>
      <use x="304.382812" xlink:href="#DejaVuSans-111"/>
      <use x="365.564453" xlink:href="#DejaVuSans-109"/>
      <use x="462.976562" xlink:href="#DejaVuSans-112"/>
      <use x="526.453125" xlink:href="#DejaVuSans-111"/>
      <use x="587.634766" xlink:href="#DejaVuSans-110"/>
      <use x="651.013672" xlink:href="#DejaVuSans-101"/>
      <use x="712.537109" xlink:href="#DejaVuSans-110"/>
      <use x="775.916016" xlink:href="#DejaVuSans-116"/>
     </g>
    </g>
   </g>
   <g id="matplotlib.axis_2">
    <g id="ytick_1">
     <g id="line2d_6">
      <defs>
       <path d="M 0 0 
L -3.5 0 
" id="mbb478cb727" style="stroke:#000000;stroke-width:0.8;"/>
      </defs>
      <g>
       <use style="stroke:#000000;stroke-width:0.8;" x="54.956563" xlink:href="#mbb478cb727" y="394.880743"/>
      </g>
     </g>
     <g id="text_7">
      <!-- −3 -->
      <defs>
       <path d="M 40.578125 39.3125 
Q 47.65625 37.796875 51.625 33 
Q 55.609375 28.21875 55.609375 21.1875 
Q 55.609375 10.40625 48.1875 4.484375 
Q 40.765625 -1.421875 27.09375 -1.421875 
Q 22.515625 -1.421875 17.65625 -0.515625 
Q 12.796875 0.390625 7.625 2.203125 
L 7.625 11.71875 
Q 11.71875 9.328125 16.59375 8.109375 
Q 21.484375 6.890625 26.8125 6.890625 
Q 36.078125 6.890625 40.9375 10.546875 
Q 45.796875 14.203125 45.796875 21.1875 
Q 45.796875 27.640625 41.28125 31.265625 
Q 36.765625 34.90625 28.71875 34.90625 
L 20.21875 34.90625 
L 20.21875 43.015625 
L 29.109375 43.015625 
Q 36.375 43.015625 40.234375 45.921875 
Q 44.09375 48.828125 44.09375 54.296875 
Q 44.09375 59.90625 40.109375 62.90625 
Q 36.140625 65.921875 28.71875 65.921875 
Q 24.65625 65.921875 20.015625 65.03125 
Q 15.375 64.15625 9.8125 62.3125 
L 9.8125 71.09375 
Q 15.4375 72.65625 20.34375 73.4375 
Q 25.25 74.21875 29.59375 74.21875 
Q 40.828125 74.21875 47.359375 69.109375 
Q 53.90625 64.015625 53.90625 55.328125 
Q 53.90625 49.265625 50.4375 45.09375 
Q 46.96875 40.921875 40.578125 39.3125 
z
" id="DejaVuSans-51"/>
      </defs>
      <g transform="translate(21.420625 401.719337)scale(0.18 -0.18)">
       <use xlink:href="#DejaVuSans-8722"/>
       <use x="83.789062" xlink:href="#DejaVuSans-51"/>
      </g>
     </g>
    </g>
    <g id="ytick_2">
     <g id="line2d_7">
      <g>
       <use style="stroke:#000000;stroke-width:0.8;" x="54.956563" xlink:href="#mbb478cb727" y="339.44615"/>
      </g>
     </g>
     <g id="text_8">
      <!-- −2 -->
      <g transform="translate(21.420625 346.284744)scale(0.18 -0.18)">
       <use xlink:href="#DejaVuSans-8722"/>
       <use x="83.789062" xlink:href="#DejaVuSans-50"/>
      </g>
     </g>
    </g>
    <g id="ytick_3">
     <g id="line2d_8">
      <g>
       <use style="stroke:#000000;stroke-width:0.8;" x="54.956563" xlink:href="#mbb478cb727" y="284.011558"/>
      </g>
     </g>
     <g id="text_9">
      <!-- −1 -->
      <defs>
       <path d="M 12.40625 8.296875 
L 28.515625 8.296875 
L 28.515625 63.921875 
L 10.984375 60.40625 
L 10.984375 69.390625 
L 28.421875 72.90625 
L 38.28125 72.90625 
L 38.28125 8.296875 
L 54.390625 8.296875 
L 54.390625 0 
L 12.40625 0 
z
" id="DejaVuSans-49"/>
      </defs>
      <g transform="translate(21.420625 290.850151)scale(0.18 -0.18)">
       <use xlink:href="#DejaVuSans-8722"/>
       <use x="83.789062" xlink:href="#DejaVuSans-49"/>
      </g>
     </g>
    </g>
    <g id="ytick_4">
     <g id="line2d_9">
      <g>
       <use style="stroke:#000000;stroke-width:0.8;" x="54.956563" xlink:href="#mbb478cb727" y="228.576965"/>
      </g>
     </g>
     <g id="text_10">
      <!-- 0 -->
      <g transform="translate(36.504063 235.415559)scale(0.18 -0.18)">
       <use xlink:href="#DejaVuSans-48"/>
      </g>
     </g>
    </g>
    <g id="ytick_5">
     <g id="line2d_10">
      <g>
       <use style="stroke:#000000;stroke-width:0.8;" x="54.956563" xlink:href="#mbb478cb727" y="173.142372"/>
      </g>
     </g>
     <g id="text_11">
      <!-- 1 -->
      <g transform="translate(36.504063 179.980966)scale(0.18 -0.18)">
       <use xlink:href="#DejaVuSans-49"/>
      </g>
     </g>
    </g>
    <g id="ytick_6">
     <g id="line2d_11">
      <g>
       <use style="stroke:#000000;stroke-width:0.8;" x="54.956563" xlink:href="#mbb478cb727" y="117.707779"/>
      </g>
     </g>
     <g id="text_12">
      <!-- 2 -->
      <g transform="translate(36.504063 124.546373)scale(0.18 -0.18)">
       <use xlink:href="#DejaVuSans-50"/>
      </g>
     </g>
    </g>
    <g id="ytick_7">
     <g id="line2d_12">
      <g>
       <use style="stroke:#000000;stroke-width:0.8;" x="54.956563" xlink:href="#mbb478cb727" y="62.273187"/>
      </g>
     </g>
     <g id="text_13">
      <!-- 3 -->
      <g transform="translate(36.504063 69.11178)scale(0.18 -0.18)">
       <use xlink:href="#DejaVuSans-51"/>
      </g>
     </g>
    </g>
    <g id="ytick_8">
     <g id="line2d_13">
      <g>
       <use style="stroke:#000000;stroke-width:0.8;" x="54.956563" xlink:href="#mbb478cb727" y="6.838594"/>
      </g>
     </g>
     <g id="text_14">
      <!-- 4 -->
      <g transform="translate(36.504063 13.677187)scale(0.18 -0.18)">
       <use xlink:href="#DejaVuSans-52"/>
      </g>
     </g>
    </g>
    <g id="text_15">
     <!-- Second component -->
     <defs>
      <path d="M 53.515625 70.515625 
L 53.515625 60.890625 
Q 47.90625 63.578125 42.921875 64.890625 
Q 37.9375 66.21875 33.296875 66.21875 
Q 25.25 66.21875 20.875 63.09375 
Q 16.5 59.96875 16.5 54.203125 
Q 16.5 49.359375 19.40625 46.890625 
Q 22.3125 44.4375 30.421875 42.921875 
L 36.375 41.703125 
Q 47.40625 39.59375 52.65625 34.296875 
Q 57.90625 29 57.90625 20.125 
Q 57.90625 9.515625 50.796875 4.046875 
Q 43.703125 -1.421875 29.984375 -1.421875 
Q 24.8125 -1.421875 18.96875 -0.25 
Q 13.140625 0.921875 6.890625 3.21875 
L 6.890625 13.375 
Q 12.890625 10.015625 18.65625 8.296875 
Q 24.421875 6.59375 29.984375 6.59375 
Q 38.421875 6.59375 43.015625 9.90625 
Q 47.609375 13.234375 47.609375 19.390625 
Q 47.609375 24.75 44.3125 27.78125 
Q 41.015625 30.8125 33.5 32.328125 
L 27.484375 33.5 
Q 16.453125 35.6875 11.515625 40.375 
Q 6.59375 45.0625 6.59375 53.421875 
Q 6.59375 63.09375 13.40625 68.65625 
Q 20.21875 74.21875 32.171875 74.21875 
Q 37.3125 74.21875 42.625 73.28125 
Q 47.953125 72.359375 53.515625 70.515625 
z
" id="DejaVuSans-83"/>
      <path d="M 45.40625 46.390625 
L 45.40625 75.984375 
L 54.390625 75.984375 
L 54.390625 0 
L 45.40625 0 
L 45.40625 8.203125 
Q 42.578125 3.328125 38.25 0.953125 
Q 33.9375 -1.421875 27.875 -1.421875 
Q 17.96875 -1.421875 11.734375 6.484375 
Q 5.515625 14.40625 5.515625 27.296875 
Q 5.515625 40.1875 11.734375 48.09375 
Q 17.96875 56 27.875 56 
Q 33.9375 56 38.25 53.625 
Q 42.578125 51.265625 45.40625 46.390625 
z
M 14.796875 27.296875 
Q 14.796875 17.390625 18.875 11.75 
Q 22.953125 6.109375 30.078125 6.109375 
Q 37.203125 6.109375 41.296875 11.75 
Q 45.40625 17.390625 45.40625 27.296875 
Q 45.40625 37.203125 41.296875 42.84375 
Q 37.203125 48.484375 30.078125 48.484375 
Q 22.953125 48.484375 18.875 42.84375 
Q 14.796875 37.203125 14.796875 27.296875 
z
" id="DejaVuSans-100"/>
     </defs>
     <g transform="translate(13.677188 312.205124)rotate(-90)scale(0.18 -0.18)">
      <use xlink:href="#DejaVuSans-83"/>
      <use x="63.476562" xlink:href="#DejaVuSans-101"/>
      <use x="125" xlink:href="#DejaVuSans-99"/>
      <use x="179.980469" xlink:href="#DejaVuSans-111"/>
      <use x="241.162109" xlink:href="#DejaVuSans-110"/>
      <use x="304.541016" xlink:href="#DejaVuSans-100"/>
      <use x="368.017578" xlink:href="#DejaVuSans-32"/>
      <use x="399.804688" xlink:href="#DejaVuSans-99"/>
      <use x="454.785156" xlink:href="#DejaVuSans-111"/>
      <use x="515.966797" xlink:href="#DejaVuSans-109"/>
      <use x="613.378906" xlink:href="#DejaVuSans-112"/>
      <use x="676.855469" xlink:href="#DejaVuSans-111"/>
      <use x="738.037109" xlink:href="#DejaVuSans-110"/>
      <use x="801.416016" xlink:href="#DejaVuSans-101"/>
      <use x="862.939453" xlink:href="#DejaVuSans-110"/>
      <use x="926.318359" xlink:href="#DejaVuSans-116"/>
     </g>
    </g>
   </g>
   <g id="patch_3">
    <path d="M 54.956563 447.064499 
L 54.956563 3.544499 
" style="fill:none;stroke:#000000;stroke-linecap:square;stroke-linejoin:miter;stroke-width:0.8;"/>
   </g>
   <g id="patch_4">
    <path d="M 504.956563 447.064499 
L 504.956563 3.544499 
" style="fill:none;stroke:#000000;stroke-linecap:square;stroke-linejoin:miter;stroke-width:0.8;"/>
   </g>
   <g id="patch_5">
    <path d="M 54.956563 447.064499 
L 504.956562 447.064499 
" style="fill:none;stroke:#000000;stroke-linecap:square;stroke-linejoin:miter;stroke-width:0.8;"/>
   </g>
   <g id="patch_6">
    <path d="M 54.956563 3.544499 
L 504.956562 3.544499 
" style="fill:none;stroke:#000000;stroke-linecap:square;stroke-linejoin:miter;stroke-width:0.8;"/>
   </g>
   <g id="legend_1">
    <g id="patch_7">
     <path d="M 517.556563 246.730124 
L 662.11625 246.730124 
Q 665.71625 246.730124 665.71625 243.130124 
L 665.71625 7.144499 
Q 665.71625 3.544499 662.11625 3.544499 
L 517.556563 3.544499 
Q 513.956563 3.544499 513.956563 7.144499 
L 513.956563 243.130124 
Q 513.956563 246.730124 517.556563 246.730124 
z
" style="fill:#ffffff;opacity:0.8;stroke:#cccccc;stroke-linejoin:miter;"/>
    </g>
    <g id="PathCollection_10">
     <g>
      <use style="fill:#1f77b4;stroke:#1f77b4;" x="539.156563" xlink:href="#m1bc2c3c384" y="19.696686"/>
     </g>
    </g>
    <g id="text_16">
     <!-- Subject A -->
     <defs>
      <path d="M 8.5 21.578125 
L 8.5 54.6875 
L 17.484375 54.6875 
L 17.484375 21.921875 
Q 17.484375 14.15625 20.5 10.265625 
Q 23.53125 6.390625 29.59375 6.390625 
Q 36.859375 6.390625 41.078125 11.03125 
Q 45.3125 15.671875 45.3125 23.6875 
L 45.3125 54.6875 
L 54.296875 54.6875 
L 54.296875 0 
L 45.3125 0 
L 45.3125 8.40625 
Q 42.046875 3.421875 37.71875 1 
Q 33.40625 -1.421875 27.6875 -1.421875 
Q 18.265625 -1.421875 13.375 4.4375 
Q 8.5 10.296875 8.5 21.578125 
z
M 31.109375 56 
z
" id="DejaVuSans-117"/>
      <path d="M 48.6875 27.296875 
Q 48.6875 37.203125 44.609375 42.84375 
Q 40.53125 48.484375 33.40625 48.484375 
Q 26.265625 48.484375 22.1875 42.84375 
Q 18.109375 37.203125 18.109375 27.296875 
Q 18.109375 17.390625 22.1875 11.75 
Q 26.265625 6.109375 33.40625 6.109375 
Q 40.53125 6.109375 44.609375 11.75 
Q 48.6875 17.390625 48.6875 27.296875 
z
M 18.109375 46.390625 
Q 20.953125 51.265625 25.265625 53.625 
Q 29.59375 56 35.59375 56 
Q 45.5625 56 51.78125 48.09375 
Q 58.015625 40.1875 58.015625 27.296875 
Q 58.015625 14.40625 51.78125 6.484375 
Q 45.5625 -1.421875 35.59375 -1.421875 
Q 29.59375 -1.421875 25.265625 0.953125 
Q 20.953125 3.328125 18.109375 8.203125 
L 18.109375 0 
L 9.078125 0 
L 9.078125 75.984375 
L 18.109375 75.984375 
z
" id="DejaVuSans-98"/>
      <path d="M 9.421875 54.6875 
L 18.40625 54.6875 
L 18.40625 -0.984375 
Q 18.40625 -11.421875 14.421875 -16.109375 
Q 10.453125 -20.796875 1.609375 -20.796875 
L -1.8125 -20.796875 
L -1.8125 -13.1875 
L 0.59375 -13.1875 
Q 5.71875 -13.1875 7.5625 -10.8125 
Q 9.421875 -8.453125 9.421875 -0.984375 
z
M 9.421875 75.984375 
L 18.40625 75.984375 
L 18.40625 64.59375 
L 9.421875 64.59375 
z
" id="DejaVuSans-106"/>
      <path d="M 34.1875 63.1875 
L 20.796875 26.90625 
L 47.609375 26.90625 
z
M 28.609375 72.90625 
L 39.796875 72.90625 
L 67.578125 0 
L 57.328125 0 
L 50.6875 18.703125 
L 17.828125 18.703125 
L 11.1875 0 
L 0.78125 0 
z
" id="DejaVuSans-65"/>
     </defs>
     <g transform="translate(571.556563 24.421686)scale(0.18 -0.18)">
      <use xlink:href="#DejaVuSans-83"/>
      <use x="63.476562" xlink:href="#DejaVuSans-117"/>
      <use x="126.855469" xlink:href="#DejaVuSans-98"/>
      <use x="190.332031" xlink:href="#DejaVuSans-106"/>
      <use x="218.115234" xlink:href="#DejaVuSans-101"/>
      <use x="279.638672" xlink:href="#DejaVuSans-99"/>
      <use x="334.619141" xlink:href="#DejaVuSans-116"/>
      <use x="373.828125" xlink:href="#DejaVuSans-32"/>
      <use x="405.615234" xlink:href="#DejaVuSans-65"/>
     </g>
    </g>
    <g id="PathCollection_11">
     <g>
      <use style="fill:#ff7f0e;stroke:#ff7f0e;" x="539.156563" xlink:href="#mcc4febde1d" y="46.117311"/>
     </g>
    </g>
    <g id="text_17">
     <!-- Subject B -->
     <defs>
      <path d="M 19.671875 34.8125 
L 19.671875 8.109375 
L 35.5 8.109375 
Q 43.453125 8.109375 47.28125 11.40625 
Q 51.125 14.703125 51.125 21.484375 
Q 51.125 28.328125 47.28125 31.5625 
Q 43.453125 34.8125 35.5 34.8125 
z
M 19.671875 64.796875 
L 19.671875 42.828125 
L 34.28125 42.828125 
Q 41.5 42.828125 45.03125 45.53125 
Q 48.578125 48.25 48.578125 53.8125 
Q 48.578125 59.328125 45.03125 62.0625 
Q 41.5 64.796875 34.28125 64.796875 
z
M 9.8125 72.90625 
L 35.015625 72.90625 
Q 46.296875 72.90625 52.390625 68.21875 
Q 58.5 63.53125 58.5 54.890625 
Q 58.5 48.1875 55.375 44.234375 
Q 52.25 40.28125 46.1875 39.3125 
Q 53.46875 37.75 57.5 32.78125 
Q 61.53125 27.828125 61.53125 20.40625 
Q 61.53125 10.640625 54.890625 5.3125 
Q 48.25 0 35.984375 0 
L 9.8125 0 
z
" id="DejaVuSans-66"/>
     </defs>
     <g transform="translate(571.556563 50.842311)scale(0.18 -0.18)">
      <use xlink:href="#DejaVuSans-83"/>
      <use x="63.476562" xlink:href="#DejaVuSans-117"/>
      <use x="126.855469" xlink:href="#DejaVuSans-98"/>
      <use x="190.332031" xlink:href="#DejaVuSans-106"/>
      <use x="218.115234" xlink:href="#DejaVuSans-101"/>
      <use x="279.638672" xlink:href="#DejaVuSans-99"/>
      <use x="334.619141" xlink:href="#DejaVuSans-116"/>
      <use x="373.828125" xlink:href="#DejaVuSans-32"/>
      <use x="405.615234" xlink:href="#DejaVuSans-66"/>
     </g>
    </g>
    <g id="PathCollection_12">
     <g>
      <use style="fill:#2ca02c;stroke:#2ca02c;" x="539.156563" xlink:href="#m8c6a31c5f0" y="72.537936"/>
     </g>
    </g>
    <g id="text_18">
     <!-- Subject C -->
     <defs>
      <path d="M 64.40625 67.28125 
L 64.40625 56.890625 
Q 59.421875 61.53125 53.78125 63.8125 
Q 48.140625 66.109375 41.796875 66.109375 
Q 29.296875 66.109375 22.65625 58.46875 
Q 16.015625 50.828125 16.015625 36.375 
Q 16.015625 21.96875 22.65625 14.328125 
Q 29.296875 6.6875 41.796875 6.6875 
Q 48.140625 6.6875 53.78125 8.984375 
Q 59.421875 11.28125 64.40625 15.921875 
L 64.40625 5.609375 
Q 59.234375 2.09375 53.4375 0.328125 
Q 47.65625 -1.421875 41.21875 -1.421875 
Q 24.65625 -1.421875 15.125 8.703125 
Q 5.609375 18.84375 5.609375 36.375 
Q 5.609375 53.953125 15.125 64.078125 
Q 24.65625 74.21875 41.21875 74.21875 
Q 47.75 74.21875 53.53125 72.484375 
Q 59.328125 70.75 64.40625 67.28125 
z
" id="DejaVuSans-67"/>
     </defs>
     <g transform="translate(571.556563 77.262936)scale(0.18 -0.18)">
      <use xlink:href="#DejaVuSans-83"/>
      <use x="63.476562" xlink:href="#DejaVuSans-117"/>
      <use x="126.855469" xlink:href="#DejaVuSans-98"/>
      <use x="190.332031" xlink:href="#DejaVuSans-106"/>
      <use x="218.115234" xlink:href="#DejaVuSans-101"/>
      <use x="279.638672" xlink:href="#DejaVuSans-99"/>
      <use x="334.619141" xlink:href="#DejaVuSans-116"/>
      <use x="373.828125" xlink:href="#DejaVuSans-32"/>
      <use x="405.615234" xlink:href="#DejaVuSans-67"/>
     </g>
    </g>
    <g id="PathCollection_13">
     <g>
      <use style="fill:#d62728;stroke:#d62728;" x="539.156563" xlink:href="#mbf87c65f3d" y="98.958561"/>
     </g>
    </g>
    <g id="text_19">
     <!-- Subject D -->
     <defs>
      <path d="M 19.671875 64.796875 
L 19.671875 8.109375 
L 31.59375 8.109375 
Q 46.6875 8.109375 53.6875 14.9375 
Q 60.6875 21.78125 60.6875 36.53125 
Q 60.6875 51.171875 53.6875 57.984375 
Q 46.6875 64.796875 31.59375 64.796875 
z
M 9.8125 72.90625 
L 30.078125 72.90625 
Q 51.265625 72.90625 61.171875 64.09375 
Q 71.09375 55.28125 71.09375 36.53125 
Q 71.09375 17.671875 61.125 8.828125 
Q 51.171875 0 30.078125 0 
L 9.8125 0 
z
" id="DejaVuSans-68"/>
     </defs>
     <g transform="translate(571.556563 103.683561)scale(0.18 -0.18)">
      <use xlink:href="#DejaVuSans-83"/>
      <use x="63.476562" xlink:href="#DejaVuSans-117"/>
      <use x="126.855469" xlink:href="#DejaVuSans-98"/>
      <use x="190.332031" xlink:href="#DejaVuSans-106"/>
      <use x="218.115234" xlink:href="#DejaVuSans-101"/>
      <use x="279.638672" xlink:href="#DejaVuSans-99"/>
      <use x="334.619141" xlink:href="#DejaVuSans-116"/>
      <use x="373.828125" xlink:href="#DejaVuSans-32"/>
      <use x="405.615234" xlink:href="#DejaVuSans-68"/>
     </g>
    </g>
    <g id="PathCollection_14">
     <g>
      <use style="fill:#9467bd;stroke:#9467bd;" x="539.156563" xlink:href="#m19d018ded6" y="125.379186"/>
     </g>
    </g>
    <g id="text_20">
     <!-- Subject E -->
     <defs>
      <path d="M 9.8125 72.90625 
L 55.90625 72.90625 
L 55.90625 64.59375 
L 19.671875 64.59375 
L 19.671875 43.015625 
L 54.390625 43.015625 
L 54.390625 34.71875 
L 19.671875 34.71875 
L 19.671875 8.296875 
L 56.78125 8.296875 
L 56.78125 0 
L 9.8125 0 
z
" id="DejaVuSans-69"/>
     </defs>
     <g transform="translate(571.556563 130.104186)scale(0.18 -0.18)">
      <use xlink:href="#DejaVuSans-83"/>
      <use x="63.476562" xlink:href="#DejaVuSans-117"/>
      <use x="126.855469" xlink:href="#DejaVuSans-98"/>
      <use x="190.332031" xlink:href="#DejaVuSans-106"/>
      <use x="218.115234" xlink:href="#DejaVuSans-101"/>
      <use x="279.638672" xlink:href="#DejaVuSans-99"/>
      <use x="334.619141" xlink:href="#DejaVuSans-116"/>
      <use x="373.828125" xlink:href="#DejaVuSans-32"/>
      <use x="405.615234" xlink:href="#DejaVuSans-69"/>
     </g>
    </g>
    <g id="PathCollection_15">
     <g>
      <use style="fill:#8c564b;stroke:#8c564b;stroke-width:1.5;" x="539.156563" xlink:href="#me61cae676d" y="151.799811"/>
     </g>
    </g>
    <g id="text_21">
     <!-- Subject F -->
     <g transform="translate(571.556563 156.524811)scale(0.18 -0.18)">
      <use xlink:href="#DejaVuSans-83"/>
      <use x="63.476562" xlink:href="#DejaVuSans-117"/>
      <use x="126.855469" xlink:href="#DejaVuSans-98"/>
      <use x="190.332031" xlink:href="#DejaVuSans-106"/>
      <use x="218.115234" xlink:href="#DejaVuSans-101"/>
      <use x="279.638672" xlink:href="#DejaVuSans-99"/>
      <use x="334.619141" xlink:href="#DejaVuSans-116"/>
      <use x="373.828125" xlink:href="#DejaVuSans-32"/>
      <use x="405.615234" xlink:href="#DejaVuSans-70"/>
     </g>
    </g>
    <g id="PathCollection_16">
     <g>
      <use style="fill:#e377c2;stroke:#e377c2;" x="539.156563" xlink:href="#m8702aa6b58" y="178.220436"/>
     </g>
    </g>
    <g id="text_22">
     <!-- Subject G -->
     <defs>
      <path d="M 59.515625 10.40625 
L 59.515625 29.984375 
L 43.40625 29.984375 
L 43.40625 38.09375 
L 69.28125 38.09375 
L 69.28125 6.78125 
Q 63.578125 2.734375 56.6875 0.65625 
Q 49.8125 -1.421875 42 -1.421875 
Q 24.90625 -1.421875 15.25 8.5625 
Q 5.609375 18.5625 5.609375 36.375 
Q 5.609375 54.25 15.25 64.234375 
Q 24.90625 74.21875 42 74.21875 
Q 49.125 74.21875 55.546875 72.453125 
Q 61.96875 70.703125 67.390625 67.28125 
L 67.390625 56.78125 
Q 61.921875 61.421875 55.765625 63.765625 
Q 49.609375 66.109375 42.828125 66.109375 
Q 29.4375 66.109375 22.71875 58.640625 
Q 16.015625 51.171875 16.015625 36.375 
Q 16.015625 21.625 22.71875 14.15625 
Q 29.4375 6.6875 42.828125 6.6875 
Q 48.046875 6.6875 52.140625 7.59375 
Q 56.25 8.5 59.515625 10.40625 
z
" id="DejaVuSans-71"/>
     </defs>
     <g transform="translate(571.556563 182.945436)scale(0.18 -0.18)">
      <use xlink:href="#DejaVuSans-83"/>
      <use x="63.476562" xlink:href="#DejaVuSans-117"/>
      <use x="126.855469" xlink:href="#DejaVuSans-98"/>
      <use x="190.332031" xlink:href="#DejaVuSans-106"/>
      <use x="218.115234" xlink:href="#DejaVuSans-101"/>
      <use x="279.638672" xlink:href="#DejaVuSans-99"/>
      <use x="334.619141" xlink:href="#DejaVuSans-116"/>
      <use x="373.828125" xlink:href="#DejaVuSans-32"/>
      <use x="405.615234" xlink:href="#DejaVuSans-71"/>
     </g>
    </g>
    <g id="PathCollection_17">
     <g>
      <use style="fill:#7f7f7f;stroke:#7f7f7f;" x="539.156563" xlink:href="#md8ac4c4f99" y="204.641061"/>
     </g>
    </g>
    <g id="text_23">
     <!-- Subject H -->
     <defs>
      <path d="M 9.8125 72.90625 
L 19.671875 72.90625 
L 19.671875 43.015625 
L 55.515625 43.015625 
L 55.515625 72.90625 
L 65.375 72.90625 
L 65.375 0 
L 55.515625 0 
L 55.515625 34.71875 
L 19.671875 34.71875 
L 19.671875 0 
L 9.8125 0 
z
" id="DejaVuSans-72"/>
     </defs>
     <g transform="translate(571.556563 209.366061)scale(0.18 -0.18)">
      <use xlink:href="#DejaVuSans-83"/>
      <use x="63.476562" xlink:href="#DejaVuSans-117"/>
      <use x="126.855469" xlink:href="#DejaVuSans-98"/>
      <use x="190.332031" xlink:href="#DejaVuSans-106"/>
      <use x="218.115234" xlink:href="#DejaVuSans-101"/>
      <use x="279.638672" xlink:href="#DejaVuSans-99"/>
      <use x="334.619141" xlink:href="#DejaVuSans-116"/>
      <use x="373.828125" xlink:href="#DejaVuSans-32"/>
      <use x="405.615234" xlink:href="#DejaVuSans-72"/>
     </g>
    </g>
    <g id="PathCollection_18">
     <g>
      <use style="fill:#bcbd22;stroke:#bcbd22;stroke-width:1.5;" x="539.156563" xlink:href="#m5f7aba5171" y="231.061686"/>
     </g>
    </g>
    <g id="text_24">
     <!-- Subject I -->
     <defs>
      <path d="M 9.8125 72.90625 
L 19.671875 72.90625 
L 19.671875 0 
L 9.8125 0 
z
" id="DejaVuSans-73"/>
     </defs>
     <g transform="translate(571.556563 235.786686)scale(0.18 -0.18)">
      <use xlink:href="#DejaVuSans-83"/>
      <use x="63.476562" xlink:href="#DejaVuSans-117"/>
      <use x="126.855469" xlink:href="#DejaVuSans-98"/>
      <use x="190.332031" xlink:href="#DejaVuSans-106"/>
      <use x="218.115234" xlink:href="#DejaVuSans-101"/>
      <use x="279.638672" xlink:href="#DejaVuSans-99"/>
      <use x="334.619141" xlink:href="#DejaVuSans-116"/>
      <use x="373.828125" xlink:href="#DejaVuSans-32"/>
      <use x="405.615234" xlink:href="#DejaVuSans-73"/>
     </g>
    </g>
   </g>
  </g>
 </g>
 <defs>
  <clipPath id="pcdaf0202ac">
   <rect height="443.52" width="450" x="54.956563" y="3.544499"/>
  </clipPath>
 </defs>
</svg>
