<svg width="888" height="416" xmlns="http://www.w3.org/2000/svg" xmlns:xlink="http://www.w3.org/1999/xlink" overflow="hidden"><defs><clipPath id="clip0"><path d="M124 160 1012 160 1012 576 124 576Z" fill-rule="evenodd" clip-rule="evenodd"/></clipPath></defs><g clip-path="url(#clip0)" transform="translate(-124 -160)"><text fill="#FF0000" font-family="Yu Gothic,Yu Gothic_MSFontService,sans-serif" font-weight="400" font-size="21" transform="translate(271.918 557)">学習フェーズ</text><path d="M395.5 437.333C395.5 446.63 340.431 454.167 272.5 454.167 204.569 454.167 149.5 446.63 149.5 437.333" stroke="#000000" stroke-width="1.33333" stroke-miterlimit="8" fill="none" fill-rule="evenodd"/><path d="M149.5 437.333C149.5 428.037 204.569 420.5 272.5 420.5 340.431 420.5 395.5 428.037 395.5 437.333L395.5 504.667C395.5 513.964 340.431 521.5 272.5 521.5 204.569 521.5 149.5 513.964 149.5 504.667Z" stroke="#000000" stroke-width="1.33333" stroke-miterlimit="8" fill="none" fill-rule="evenodd"/><text font-family="Yu Gothic,Yu Gothic_MSFontService,sans-serif" font-weight="400" font-size="24" transform="translate(151.062 490)">装着者の学習データ群</text><path d="M131.5 214C131.5 185.005 194.628 161.5 272.5 161.5 350.372 161.5 413.5 185.005 413.5 214 413.5 242.995 350.372 266.5 272.5 266.5 194.628 266.5 131.5 242.995 131.5 214Z" stroke="#000000" stroke-width="1.33333" stroke-miterlimit="8" fill="none" fill-rule="evenodd"/><text font-family="Yu Gothic,Yu Gothic_MSFontService,sans-serif" font-weight="400" font-size="24" transform="translate(139.062 208)">ヘルメットに搭載された<tspan x="34.6667" y="29">32</tspan><tspan x="61.3333" y="29">個の圧力センサ</tspan></text><rect x="131.5" y="408.5" width="282" height="159" stroke="#FF0000" stroke-width="1.33333" stroke-miterlimit="8" stroke-dasharray="5.33333 4" fill="none"/><rect x="529.5" y="390.5" width="482" height="177" stroke="#000000" stroke-width="1.33333" stroke-miterlimit="8" stroke-dasharray="5.33333 4" fill="none"/><path d="M413.5 212.833 560.218 212.833 560.218 214.167 413.5 214.167ZM558.885 209.5 566.885 213.5 558.885 217.5Z"/><rect x="829.5" y="455.5" width="116" height="39" stroke="#000000" stroke-width="1.33333" stroke-miterlimit="8" fill="none"/><text font-family="Yu Gothic,Yu Gothic_MSFontService,sans-serif" font-weight="400" font-size="24" transform="translate(839.388 482)">識別結果</text><path d="M6.25878e-07-0.666667 105.162-0.666568 105.162 0.666765-6.25878e-07 0.666667ZM103.829-3.9999 111.829 0.000104987 103.829 4.0001Z" transform="matrix(1 0 0 -1 717.5 474.5)"/><path d="M396.5 474.833 614.342 474.833 614.342 476.167 396.5 476.167ZM613.008 471.5 621.008 475.5 613.008 479.5Z"/><path d="M670.167 234.5 670.167 448.739 668.833 448.739 668.833 234.5ZM673.5 447.405 669.5 455.405 665.5 447.405Z"/><text font-family="Yu Gothic,Yu Gothic_MSFontService,sans-serif" font-weight="400" font-size="21" transform="translate(869.734 557)">識別フェーズ<tspan font-size="24" x="-286.082" y="-336">32</tspan><tspan font-size="24" x="-259.416" y="-336">個のセンサ値</tspan></text><path d="M567.5 214C567.5 202.678 576.678 193.5 588 193.5L751 193.5C762.322 193.5 771.5 202.678 771.5 214L771.5 214C771.5 225.322 762.322 234.5 751 234.5L588 234.5C576.678 234.5 567.5 225.322 567.5 214Z" stroke="#000000" stroke-width="1.33333" stroke-miterlimit="8" fill="none" fill-rule="evenodd"/><rect x="620.5" y="455.5" width="97" height="39" stroke="#000000" stroke-width="1.33333" stroke-miterlimit="8" fill="none"/><text font-family="Yu Gothic,Yu Gothic_MSFontService,sans-serif" font-weight="400" font-size="24" transform="translate(632.985 482)">識別器</text></g></svg>