<svg width="1061" height="430" xmlns="http://www.w3.org/2000/svg" xmlns:xlink="http://www.w3.org/1999/xlink" overflow="hidden"><defs><clipPath id="clip0"><path d="M124 160 1185 160 1185 590 124 590Z" fill-rule="evenodd" clip-rule="evenodd"/></clipPath></defs><g clip-path="url(#clip0)" transform="translate(-124 -160)"><text fill="#FF0000" font-family="Yu Gothic,Yu Gothic_MSFontService,sans-serif" font-weight="400" font-size="21" transform="translate(271.918 557)">学習フェーズ</text><path d="M395.5 437.333C395.5 446.63 340.431 454.167 272.5 454.167 204.569 454.167 149.5 446.63 149.5 437.333" stroke="#000000" stroke-width="1.33333" stroke-miterlimit="8" fill="none" fill-rule="evenodd"/><path d="M149.5 437.333C149.5 428.037 204.569 420.5 272.5 420.5 340.431 420.5 395.5 428.037 395.5 437.333L395.5 504.667C395.5 513.964 340.431 521.5 272.5 521.5 204.569 521.5 149.5 513.964 149.5 504.667Z" stroke="#000000" stroke-width="1.33333" stroke-miterlimit="8" fill="none" fill-rule="evenodd"/><text font-family="Yu Gothic,Yu Gothic_MSFontService,sans-serif" font-weight="400" font-size="24" transform="translate(151.062 490)">装着者の学習データ群</text><path d="M131.5 214C131.5 185.005 194.628 161.5 272.5 161.5 350.372 161.5 413.5 185.005 413.5 214 413.5 242.995 350.372 266.5 272.5 266.5 194.628 266.5 131.5 242.995 131.5 214Z" stroke="#000000" stroke-width="1.33333" stroke-miterlimit="8" fill="none" fill-rule="evenodd"/><text font-family="Yu Gothic,Yu Gothic_MSFontService,sans-serif" font-weight="400" font-size="24" transform="translate(139.062 208)">ヘルメットに搭載された<tspan x="34.6667" y="29">32</tspan><tspan x="61.3333" y="29">個の圧力センサ</tspan></text><rect x="131.5" y="408.5" width="282" height="159" stroke="#FF0000" stroke-width="1.33333" stroke-miterlimit="8" stroke-dasharray="5.33333 4" fill="none"/><rect x="529.5" y="390.5" width="654" height="192" stroke="#000000" stroke-width="1.33333" stroke-miterlimit="8" stroke-dasharray="5.33333 4" fill="none"/><path d="M413.5 212.833 560.218 212.833 560.218 214.167 413.5 214.167ZM558.885 209.5 566.885 213.5 558.885 217.5Z"/><text font-family="Yu Gothic,Yu Gothic_MSFontService,sans-serif" font-weight="400" font-size="24" transform="translate(1104.34 523)">拒否</text><rect x="1085.5" y="495.5" width="86" height="40" stroke="#000000" stroke-width="1.33333" stroke-miterlimit="8" fill="none"/><rect x="1085.5" y="416.5" width="86" height="40" stroke="#000000" stroke-width="1.33333" stroke-miterlimit="8" fill="none"/><text font-family="Yu Gothic,Yu Gothic_MSFontService,sans-serif" font-weight="400" font-size="24" transform="translate(1104.34 443)">認証</text><rect x="882.5" y="456.5" width="97" height="39" stroke="#000000" stroke-width="1.33333" stroke-miterlimit="8" fill="none"/><text font-family="Yu Gothic,Yu Gothic_MSFontService,sans-serif" font-weight="400" font-size="24" transform="translate(895.007 483)">判別器</text><path d="M0.234609-0.624022 99.9446 36.8632 99.4754 38.1112-0.234609 0.624022ZM99.8696 33.2738 105.95 39.8333 97.0543 40.7621Z" transform="matrix(1 0 0 -1 979.5 476.333)"/><path d="M979.734 474.876 1079.44 512.276 1078.97 513.525 979.266 476.124ZM1079.36 508.687 1085.45 515.242 1076.55 516.178Z"/><path d="M776.503 474.833 876.086 475.253 876.081 476.587 776.497 476.167ZM874.767 471.914 882.75 475.948 874.733 479.914Z"/><path d="M0.00031769-0.666667 159.45-0.590683 159.449 0.74265-0.00031769 0.666667ZM158.118-3.92465 166.116 0.0791601 158.114 4.07535Z" transform="matrix(1 0 0 -1 396.5 475.579)"/><path d="M670.167 234.5 670.167 435.256 668.833 435.256 668.833 234.5ZM673.5 433.923 669.5 441.923 665.5 433.923Z"/><text font-family="Yu Gothic,Yu Gothic_MSFontService,sans-serif" font-weight="400" font-size="24" transform="translate(572.985 468)">マハラノビス距離<tspan x="60" y="29">を計算</tspan><tspan font-size="21" x="469.1" y="102">識別フェーズ</tspan><tspan x="10.6666" y="-247">32</tspan><tspan x="37.3333" y="-247">個のセンサ値</tspan></text><path d="M567.5 214C567.5 202.678 576.678 193.5 588 193.5L751 193.5C762.322 193.5 771.5 202.678 771.5 214L771.5 214C771.5 225.322 762.322 234.5 751 234.5L588 234.5C576.678 234.5 567.5 225.322 567.5 214Z" stroke="#000000" stroke-width="1.33333" stroke-miterlimit="8" fill="none" fill-rule="evenodd"/></g></svg>