<?xml version="1.0" encoding="utf-8" standalone="no"?>
<!DOCTYPE svg PUBLIC "-//W3C//DTD SVG 1.1//EN"
  "http://www.w3.org/Graphics/SVG/1.1/DTD/svg11.dtd">
<!-- Created with matplotlib (https://matplotlib.org/) -->
<svg height="282.790125pt" version="1.1" viewBox="0 0 373.798125 282.790125" width="373.798125pt" xmlns="http://www.w3.org/2000/svg" xmlns:xlink="http://www.w3.org/1999/xlink">
 <metadata>
  <rdf:RDF xmlns:cc="http://creativecommons.org/ns#" xmlns:dc="http://purl.org/dc/elements/1.1/" xmlns:rdf="http://www.w3.org/1999/02/22-rdf-syntax-ns#">
   <cc:Work>
    <dc:type rdf:resource="http://purl.org/dc/dcmitype/StillImage"/>
    <dc:date>2022-02-01T04:38:20.851390</dc:date>
    <dc:format>image/svg+xml</dc:format>
    <dc:creator>
     <cc:Agent>
      <dc:title>Matplotlib v3.3.4, https://matplotlib.org/</dc:title>
     </cc:Agent>
    </dc:creator>
   </cc:Work>
  </rdf:RDF>
 </metadata>
 <defs>
  <style type="text/css">*{stroke-linecap:butt;stroke-linejoin:round;}</style>
 </defs>
 <g id="figure_1">
  <g id="patch_1">
   <path d="M 0 282.790125 
L 373.798125 282.790125 
L 373.798125 0 
L 0 0 
z
" style="fill:#ffffff;"/>
  </g>
  <g id="axes_1">
   <g id="patch_2">
    <path d="M 16.678125 266.112 
L 373.798125 266.112 
L 373.798125 0 
L 16.678125 0 
z
" style="fill:#ffffff;"/>
   </g>
   <g id="QuadMesh_1">
    <path clip-path="url(#p9c2244bf63)" d="M 16.678125 0 
L 52.390125 0 
L 52.390125 26.6112 
L 16.678125 26.6112 
L 16.678125 0 
" style="fill:#084b93;"/>
    <path clip-path="url(#p9c2244bf63)" d="M 52.390125 0 
L 88.102125 0 
L 88.102125 26.6112 
L 52.390125 26.6112 
L 52.390125 0 
" style="fill:#d4e4f4;"/>
    <path clip-path="url(#p9c2244bf63)" d="M 88.102125 0 
L 123.814125 0 
L 123.814125 26.6112 
L 88.102125 26.6112 
L 88.102125 0 
" style="fill:#a0cbe2;"/>
    <path clip-path="url(#p9c2244bf63)" d="M 123.814125 0 
L 159.526125 0 
L 159.526125 26.6112 
L 123.814125 26.6112 
L 123.814125 0 
" style="fill:#f5f9fe;"/>
    <path clip-path="url(#p9c2244bf63)" d="M 159.526125 0 
L 195.238125 0 
L 195.238125 26.6112 
L 159.526125 26.6112 
L 159.526125 0 
" style="fill:#f7fbff;"/>
    <path clip-path="url(#p9c2244bf63)" d="M 195.238125 0 
L 230.950125 0 
L 230.950125 26.6112 
L 195.238125 26.6112 
L 195.238125 0 
" style="fill:#f5f9fe;"/>
    <path clip-path="url(#p9c2244bf63)" d="M 230.950125 0 
L 266.662125 0 
L 266.662125 26.6112 
L 230.950125 26.6112 
L 230.950125 0 
" style="fill:#f7fbff;"/>
    <path clip-path="url(#p9c2244bf63)" d="M 266.662125 0 
L 302.374125 0 
L 302.374125 26.6112 
L 266.662125 26.6112 
L 266.662125 0 
" style="fill:#f7fbff;"/>
    <path clip-path="url(#p9c2244bf63)" d="M 302.374125 0 
L 338.086125 0 
L 338.086125 26.6112 
L 302.374125 26.6112 
L 302.374125 0 
" style="fill:#f7fbff;"/>
    <path clip-path="url(#p9c2244bf63)" d="M 338.086125 0 
L 373.798125 0 
L 373.798125 26.6112 
L 338.086125 26.6112 
L 338.086125 0 
" style="fill:#f7fbff;"/>
    <path clip-path="url(#p9c2244bf63)" d="M 16.678125 26.6112 
L 52.390125 26.6112 
L 52.390125 53.2224 
L 16.678125 53.2224 
L 16.678125 26.6112 
" style="fill:#f7fbff;"/>
    <path clip-path="url(#p9c2244bf63)" d="M 52.390125 26.6112 
L 88.102125 26.6112 
L 88.102125 53.2224 
L 52.390125 53.2224 
L 52.390125 26.6112 
" style="fill:#b8d5ea;"/>
    <path clip-path="url(#p9c2244bf63)" d="M 88.102125 26.6112 
L 123.814125 26.6112 
L 123.814125 53.2224 
L 88.102125 53.2224 
L 88.102125 26.6112 
" style="fill:#08306b;"/>
    <path clip-path="url(#p9c2244bf63)" d="M 123.814125 26.6112 
L 159.526125 26.6112 
L 159.526125 53.2224 
L 123.814125 53.2224 
L 123.814125 26.6112 
" style="fill:#d4e4f4;"/>
    <path clip-path="url(#p9c2244bf63)" d="M 159.526125 26.6112 
L 195.238125 26.6112 
L 195.238125 53.2224 
L 159.526125 53.2224 
L 159.526125 26.6112 
" style="fill:#f7fbff;"/>
    <path clip-path="url(#p9c2244bf63)" d="M 195.238125 26.6112 
L 230.950125 26.6112 
L 230.950125 53.2224 
L 195.238125 53.2224 
L 195.238125 26.6112 
" style="fill:#f7fbff;"/>
    <path clip-path="url(#p9c2244bf63)" d="M 230.950125 26.6112 
L 266.662125 26.6112 
L 266.662125 53.2224 
L 230.950125 53.2224 
L 230.950125 26.6112 
" style="fill:#f7fbff;"/>
    <path clip-path="url(#p9c2244bf63)" d="M 266.662125 26.6112 
L 302.374125 26.6112 
L 302.374125 53.2224 
L 266.662125 53.2224 
L 266.662125 26.6112 
" style="fill:#f7fbff;"/>
    <path clip-path="url(#p9c2244bf63)" d="M 302.374125 26.6112 
L 338.086125 26.6112 
L 338.086125 53.2224 
L 302.374125 53.2224 
L 302.374125 26.6112 
" style="fill:#f7fbff;"/>
    <path clip-path="url(#p9c2244bf63)" d="M 338.086125 26.6112 
L 373.798125 26.6112 
L 373.798125 53.2224 
L 338.086125 53.2224 
L 338.086125 26.6112 
" style="fill:#f7fbff;"/>
    <path clip-path="url(#p9c2244bf63)" d="M 16.678125 53.2224 
L 52.390125 53.2224 
L 52.390125 79.8336 
L 16.678125 79.8336 
L 16.678125 53.2224 
" style="fill:#f7fbff;"/>
    <path clip-path="url(#p9c2244bf63)" d="M 52.390125 53.2224 
L 88.102125 53.2224 
L 88.102125 79.8336 
L 52.390125 79.8336 
L 52.390125 53.2224 
" style="fill:#dae8f6;"/>
    <path clip-path="url(#p9c2244bf63)" d="M 88.102125 53.2224 
L 123.814125 53.2224 
L 123.814125 79.8336 
L 88.102125 79.8336 
L 88.102125 53.2224 
" style="fill:#3484bf;"/>
    <path clip-path="url(#p9c2244bf63)" d="M 123.814125 53.2224 
L 159.526125 53.2224 
L 159.526125 79.8336 
L 123.814125 79.8336 
L 123.814125 53.2224 
" style="fill:#6aaed6;"/>
    <path clip-path="url(#p9c2244bf63)" d="M 159.526125 53.2224 
L 195.238125 53.2224 
L 195.238125 79.8336 
L 159.526125 79.8336 
L 159.526125 53.2224 
" style="fill:#e3eef8;"/>
    <path clip-path="url(#p9c2244bf63)" d="M 195.238125 53.2224 
L 230.950125 53.2224 
L 230.950125 79.8336 
L 195.238125 79.8336 
L 195.238125 53.2224 
" style="fill:#f7fbff;"/>
    <path clip-path="url(#p9c2244bf63)" d="M 230.950125 53.2224 
L 266.662125 53.2224 
L 266.662125 79.8336 
L 230.950125 79.8336 
L 230.950125 53.2224 
" style="fill:#f2f7fd;"/>
    <path clip-path="url(#p9c2244bf63)" d="M 266.662125 53.2224 
L 302.374125 53.2224 
L 302.374125 79.8336 
L 266.662125 79.8336 
L 266.662125 53.2224 
" style="fill:#f7fbff;"/>
    <path clip-path="url(#p9c2244bf63)" d="M 302.374125 53.2224 
L 338.086125 53.2224 
L 338.086125 79.8336 
L 302.374125 79.8336 
L 302.374125 53.2224 
" style="fill:#f7fbff;"/>
    <path clip-path="url(#p9c2244bf63)" d="M 338.086125 53.2224 
L 373.798125 53.2224 
L 373.798125 79.8336 
L 338.086125 79.8336 
L 338.086125 53.2224 
" style="fill:#f5f9fe;"/>
    <path clip-path="url(#p9c2244bf63)" d="M 16.678125 79.8336 
L 52.390125 79.8336 
L 52.390125 106.4448 
L 16.678125 106.4448 
L 16.678125 79.8336 
" style="fill:#f7fbff;"/>
    <path clip-path="url(#p9c2244bf63)" d="M 52.390125 79.8336 
L 88.102125 79.8336 
L 88.102125 106.4448 
L 52.390125 106.4448 
L 52.390125 79.8336 
" style="fill:#eef5fc;"/>
    <path clip-path="url(#p9c2244bf63)" d="M 88.102125 79.8336 
L 123.814125 79.8336 
L 123.814125 106.4448 
L 88.102125 106.4448 
L 88.102125 79.8336 
" style="fill:#bdd7ec;"/>
    <path clip-path="url(#p9c2244bf63)" d="M 123.814125 79.8336 
L 159.526125 79.8336 
L 159.526125 106.4448 
L 123.814125 106.4448 
L 123.814125 79.8336 
" style="fill:#3888c1;"/>
    <path clip-path="url(#p9c2244bf63)" d="M 159.526125 79.8336 
L 195.238125 79.8336 
L 195.238125 106.4448 
L 159.526125 106.4448 
L 159.526125 79.8336 
" style="fill:#8fc2de;"/>
    <path clip-path="url(#p9c2244bf63)" d="M 195.238125 79.8336 
L 230.950125 79.8336 
L 230.950125 106.4448 
L 195.238125 106.4448 
L 195.238125 79.8336 
" style="fill:#f2f7fd;"/>
    <path clip-path="url(#p9c2244bf63)" d="M 230.950125 79.8336 
L 266.662125 79.8336 
L 266.662125 106.4448 
L 230.950125 106.4448 
L 230.950125 79.8336 
" style="fill:#f7fbff;"/>
    <path clip-path="url(#p9c2244bf63)" d="M 266.662125 79.8336 
L 302.374125 79.8336 
L 302.374125 106.4448 
L 266.662125 106.4448 
L 266.662125 79.8336 
" style="fill:#f5f9fe;"/>
    <path clip-path="url(#p9c2244bf63)" d="M 302.374125 79.8336 
L 338.086125 79.8336 
L 338.086125 106.4448 
L 302.374125 106.4448 
L 302.374125 79.8336 
" style="fill:#f7fbff;"/>
    <path clip-path="url(#p9c2244bf63)" d="M 338.086125 79.8336 
L 373.798125 79.8336 
L 373.798125 106.4448 
L 338.086125 106.4448 
L 338.086125 79.8336 
" style="fill:#f2f7fd;"/>
    <path clip-path="url(#p9c2244bf63)" d="M 16.678125 106.4448 
L 52.390125 106.4448 
L 52.390125 133.056 
L 16.678125 133.056 
L 16.678125 106.4448 
" style="fill:#f7fbff;"/>
    <path clip-path="url(#p9c2244bf63)" d="M 52.390125 106.4448 
L 88.102125 106.4448 
L 88.102125 133.056 
L 52.390125 133.056 
L 52.390125 106.4448 
" style="fill:#ebf3fb;"/>
    <path clip-path="url(#p9c2244bf63)" d="M 88.102125 106.4448 
L 123.814125 106.4448 
L 123.814125 133.056 
L 88.102125 133.056 
L 88.102125 106.4448 
" style="fill:#e6f0f9;"/>
    <path clip-path="url(#p9c2244bf63)" d="M 123.814125 106.4448 
L 159.526125 106.4448 
L 159.526125 133.056 
L 123.814125 133.056 
L 123.814125 106.4448 
" style="fill:#539ecd;"/>
    <path clip-path="url(#p9c2244bf63)" d="M 159.526125 106.4448 
L 195.238125 106.4448 
L 195.238125 133.056 
L 159.526125 133.056 
L 159.526125 106.4448 
" style="fill:#84bcdb;"/>
    <path clip-path="url(#p9c2244bf63)" d="M 195.238125 106.4448 
L 230.950125 106.4448 
L 230.950125 133.056 
L 195.238125 133.056 
L 195.238125 106.4448 
" style="fill:#cfe1f2;"/>
    <path clip-path="url(#p9c2244bf63)" d="M 230.950125 106.4448 
L 266.662125 106.4448 
L 266.662125 133.056 
L 230.950125 133.056 
L 230.950125 106.4448 
" style="fill:#e6f0f9;"/>
    <path clip-path="url(#p9c2244bf63)" d="M 266.662125 106.4448 
L 302.374125 106.4448 
L 302.374125 133.056 
L 266.662125 133.056 
L 266.662125 106.4448 
" style="fill:#f7fbff;"/>
    <path clip-path="url(#p9c2244bf63)" d="M 302.374125 106.4448 
L 338.086125 106.4448 
L 338.086125 133.056 
L 302.374125 133.056 
L 302.374125 106.4448 
" style="fill:#f7fbff;"/>
    <path clip-path="url(#p9c2244bf63)" d="M 338.086125 106.4448 
L 373.798125 106.4448 
L 373.798125 133.056 
L 338.086125 133.056 
L 338.086125 106.4448 
" style="fill:#f5f9fe;"/>
    <path clip-path="url(#p9c2244bf63)" d="M 16.678125 133.056 
L 52.390125 133.056 
L 52.390125 159.6672 
L 16.678125 159.6672 
L 16.678125 133.056 
" style="fill:#f7fbff;"/>
    <path clip-path="url(#p9c2244bf63)" d="M 52.390125 133.056 
L 88.102125 133.056 
L 88.102125 159.6672 
L 52.390125 159.6672 
L 52.390125 133.056 
" style="fill:#f5f9fe;"/>
    <path clip-path="url(#p9c2244bf63)" d="M 88.102125 133.056 
L 123.814125 133.056 
L 123.814125 159.6672 
L 88.102125 159.6672 
L 88.102125 133.056 
" style="fill:#eef5fc;"/>
    <path clip-path="url(#p9c2244bf63)" d="M 123.814125 133.056 
L 159.526125 133.056 
L 159.526125 159.6672 
L 123.814125 159.6672 
L 123.814125 133.056 
" style="fill:#66abd4;"/>
    <path clip-path="url(#p9c2244bf63)" d="M 159.526125 133.056 
L 195.238125 133.056 
L 195.238125 159.6672 
L 159.526125 159.6672 
L 159.526125 133.056 
" style="fill:#bdd7ec;"/>
    <path clip-path="url(#p9c2244bf63)" d="M 195.238125 133.056 
L 230.950125 133.056 
L 230.950125 159.6672 
L 195.238125 159.6672 
L 195.238125 133.056 
" style="fill:#ccdff1;"/>
    <path clip-path="url(#p9c2244bf63)" d="M 230.950125 133.056 
L 266.662125 133.056 
L 266.662125 159.6672 
L 230.950125 159.6672 
L 230.950125 133.056 
" style="fill:#d2e3f3;"/>
    <path clip-path="url(#p9c2244bf63)" d="M 266.662125 133.056 
L 302.374125 133.056 
L 302.374125 159.6672 
L 266.662125 159.6672 
L 266.662125 133.056 
" style="fill:#d4e4f4;"/>
    <path clip-path="url(#p9c2244bf63)" d="M 302.374125 133.056 
L 338.086125 133.056 
L 338.086125 159.6672 
L 302.374125 159.6672 
L 302.374125 133.056 
" style="fill:#f7fbff;"/>
    <path clip-path="url(#p9c2244bf63)" d="M 338.086125 133.056 
L 373.798125 133.056 
L 373.798125 159.6672 
L 338.086125 159.6672 
L 338.086125 133.056 
" style="fill:#f2f7fd;"/>
    <path clip-path="url(#p9c2244bf63)" d="M 16.678125 159.6672 
L 52.390125 159.6672 
L 52.390125 186.2784 
L 16.678125 186.2784 
L 16.678125 159.6672 
" style="fill:#f5f9fe;"/>
    <path clip-path="url(#p9c2244bf63)" d="M 52.390125 159.6672 
L 88.102125 159.6672 
L 88.102125 186.2784 
L 52.390125 186.2784 
L 52.390125 159.6672 
" style="fill:#f7fbff;"/>
    <path clip-path="url(#p9c2244bf63)" d="M 88.102125 159.6672 
L 123.814125 159.6672 
L 123.814125 186.2784 
L 88.102125 186.2784 
L 88.102125 159.6672 
" style="fill:#f5f9fe;"/>
    <path clip-path="url(#p9c2244bf63)" d="M 123.814125 159.6672 
L 159.526125 159.6672 
L 159.526125 186.2784 
L 123.814125 186.2784 
L 123.814125 159.6672 
" style="fill:#ddeaf7;"/>
    <path clip-path="url(#p9c2244bf63)" d="M 159.526125 159.6672 
L 195.238125 159.6672 
L 195.238125 186.2784 
L 159.526125 186.2784 
L 159.526125 159.6672 
" style="fill:#d7e6f5;"/>
    <path clip-path="url(#p9c2244bf63)" d="M 195.238125 159.6672 
L 230.950125 159.6672 
L 230.950125 186.2784 
L 195.238125 186.2784 
L 195.238125 159.6672 
" style="fill:#c6dbef;"/>
    <path clip-path="url(#p9c2244bf63)" d="M 230.950125 159.6672 
L 266.662125 159.6672 
L 266.662125 186.2784 
L 230.950125 186.2784 
L 230.950125 159.6672 
" style="fill:#8fc2de;"/>
    <path clip-path="url(#p9c2244bf63)" d="M 266.662125 159.6672 
L 302.374125 159.6672 
L 302.374125 186.2784 
L 266.662125 186.2784 
L 266.662125 159.6672 
" style="fill:#b8d5ea;"/>
    <path clip-path="url(#p9c2244bf63)" d="M 302.374125 159.6672 
L 338.086125 159.6672 
L 338.086125 186.2784 
L 302.374125 186.2784 
L 302.374125 159.6672 
" style="fill:#dfecf7;"/>
    <path clip-path="url(#p9c2244bf63)" d="M 338.086125 159.6672 
L 373.798125 159.6672 
L 373.798125 186.2784 
L 338.086125 186.2784 
L 338.086125 159.6672 
" style="fill:#e9f2fa;"/>
    <path clip-path="url(#p9c2244bf63)" d="M 16.678125 186.2784 
L 52.390125 186.2784 
L 52.390125 212.8896 
L 16.678125 212.8896 
L 16.678125 186.2784 
" style="fill:#f7fbff;"/>
    <path clip-path="url(#p9c2244bf63)" d="M 52.390125 186.2784 
L 88.102125 186.2784 
L 88.102125 212.8896 
L 52.390125 212.8896 
L 52.390125 186.2784 
" style="fill:#f7fbff;"/>
    <path clip-path="url(#p9c2244bf63)" d="M 88.102125 186.2784 
L 123.814125 186.2784 
L 123.814125 212.8896 
L 88.102125 212.8896 
L 88.102125 186.2784 
" style="fill:#f7fbff;"/>
    <path clip-path="url(#p9c2244bf63)" d="M 123.814125 186.2784 
L 159.526125 186.2784 
L 159.526125 212.8896 
L 123.814125 212.8896 
L 123.814125 186.2784 
" style="fill:#ddeaf7;"/>
    <path clip-path="url(#p9c2244bf63)" d="M 159.526125 186.2784 
L 195.238125 186.2784 
L 195.238125 212.8896 
L 159.526125 212.8896 
L 159.526125 186.2784 
" style="fill:#e6f0f9;"/>
    <path clip-path="url(#p9c2244bf63)" d="M 195.238125 186.2784 
L 230.950125 186.2784 
L 230.950125 212.8896 
L 195.238125 212.8896 
L 195.238125 186.2784 
" style="fill:#d7e6f5;"/>
    <path clip-path="url(#p9c2244bf63)" d="M 230.950125 186.2784 
L 266.662125 186.2784 
L 266.662125 212.8896 
L 230.950125 212.8896 
L 230.950125 186.2784 
" style="fill:#c2d9ee;"/>
    <path clip-path="url(#p9c2244bf63)" d="M 266.662125 186.2784 
L 302.374125 186.2784 
L 302.374125 212.8896 
L 266.662125 212.8896 
L 266.662125 186.2784 
" style="fill:#9cc9e1;"/>
    <path clip-path="url(#p9c2244bf63)" d="M 302.374125 186.2784 
L 338.086125 186.2784 
L 338.086125 212.8896 
L 302.374125 212.8896 
L 302.374125 186.2784 
" style="fill:#cfe1f2;"/>
    <path clip-path="url(#p9c2244bf63)" d="M 338.086125 186.2784 
L 373.798125 186.2784 
L 373.798125 212.8896 
L 338.086125 212.8896 
L 338.086125 186.2784 
" style="fill:#c9ddf0;"/>
    <path clip-path="url(#p9c2244bf63)" d="M 16.678125 212.8896 
L 52.390125 212.8896 
L 52.390125 239.5008 
L 16.678125 239.5008 
L 16.678125 212.8896 
" style="fill:#f7fbff;"/>
    <path clip-path="url(#p9c2244bf63)" d="M 52.390125 212.8896 
L 88.102125 212.8896 
L 88.102125 239.5008 
L 52.390125 239.5008 
L 52.390125 212.8896 
" style="fill:#f7fbff;"/>
    <path clip-path="url(#p9c2244bf63)" d="M 88.102125 212.8896 
L 123.814125 212.8896 
L 123.814125 239.5008 
L 88.102125 239.5008 
L 88.102125 212.8896 
" style="fill:#f7fbff;"/>
    <path clip-path="url(#p9c2244bf63)" d="M 123.814125 212.8896 
L 159.526125 212.8896 
L 159.526125 239.5008 
L 123.814125 239.5008 
L 123.814125 212.8896 
" style="fill:#e9f2fa;"/>
    <path clip-path="url(#p9c2244bf63)" d="M 159.526125 212.8896 
L 195.238125 212.8896 
L 195.238125 239.5008 
L 159.526125 239.5008 
L 159.526125 212.8896 
" style="fill:#e9f2fa;"/>
    <path clip-path="url(#p9c2244bf63)" d="M 195.238125 212.8896 
L 230.950125 212.8896 
L 230.950125 239.5008 
L 195.238125 239.5008 
L 195.238125 212.8896 
" style="fill:#ccdff1;"/>
    <path clip-path="url(#p9c2244bf63)" d="M 230.950125 212.8896 
L 266.662125 212.8896 
L 266.662125 239.5008 
L 230.950125 239.5008 
L 230.950125 212.8896 
" style="fill:#dfecf7;"/>
    <path clip-path="url(#p9c2244bf63)" d="M 266.662125 212.8896 
L 302.374125 212.8896 
L 302.374125 239.5008 
L 266.662125 239.5008 
L 266.662125 212.8896 
" style="fill:#c9ddf0;"/>
    <path clip-path="url(#p9c2244bf63)" d="M 302.374125 212.8896 
L 338.086125 212.8896 
L 338.086125 239.5008 
L 302.374125 239.5008 
L 302.374125 212.8896 
" style="fill:#cfe1f2;"/>
    <path clip-path="url(#p9c2244bf63)" d="M 338.086125 212.8896 
L 373.798125 212.8896 
L 373.798125 239.5008 
L 338.086125 239.5008 
L 338.086125 212.8896 
" style="fill:#5ca4d0;"/>
    <path clip-path="url(#p9c2244bf63)" d="M 16.678125 239.5008 
L 52.390125 239.5008 
L 52.390125 266.112 
L 16.678125 266.112 
L 16.678125 239.5008 
" style="fill:#f5f9fe;"/>
    <path clip-path="url(#p9c2244bf63)" d="M 52.390125 239.5008 
L 88.102125 239.5008 
L 88.102125 266.112 
L 52.390125 266.112 
L 52.390125 239.5008 
" style="fill:#f2f7fd;"/>
    <path clip-path="url(#p9c2244bf63)" d="M 88.102125 239.5008 
L 123.814125 239.5008 
L 123.814125 266.112 
L 88.102125 266.112 
L 88.102125 239.5008 
" style="fill:#f2f7fd;"/>
    <path clip-path="url(#p9c2244bf63)" d="M 123.814125 239.5008 
L 159.526125 239.5008 
L 159.526125 266.112 
L 123.814125 266.112 
L 123.814125 239.5008 
" style="fill:#f2f7fd;"/>
    <path clip-path="url(#p9c2244bf63)" d="M 159.526125 239.5008 
L 195.238125 239.5008 
L 195.238125 266.112 
L 159.526125 266.112 
L 159.526125 239.5008 
" style="fill:#f7fbff;"/>
    <path clip-path="url(#p9c2244bf63)" d="M 195.238125 239.5008 
L 230.950125 239.5008 
L 230.950125 266.112 
L 195.238125 266.112 
L 195.238125 239.5008 
" style="fill:#dae8f6;"/>
    <path clip-path="url(#p9c2244bf63)" d="M 230.950125 239.5008 
L 266.662125 239.5008 
L 266.662125 266.112 
L 230.950125 266.112 
L 230.950125 239.5008 
" style="fill:#d2e3f3;"/>
    <path clip-path="url(#p9c2244bf63)" d="M 266.662125 239.5008 
L 302.374125 239.5008 
L 302.374125 266.112 
L 266.662125 266.112 
L 266.662125 239.5008 
" style="fill:#e9f2fa;"/>
    <path clip-path="url(#p9c2244bf63)" d="M 302.374125 239.5008 
L 338.086125 239.5008 
L 338.086125 266.112 
L 302.374125 266.112 
L 302.374125 239.5008 
" style="fill:#c6dbef;"/>
    <path clip-path="url(#p9c2244bf63)" d="M 338.086125 239.5008 
L 373.798125 239.5008 
L 373.798125 266.112 
L 338.086125 266.112 
L 338.086125 239.5008 
" style="fill:#2d7dbb;"/>
   </g>
   <g id="matplotlib.axis_1">
    <g id="xtick_1">
     <g id="line2d_1">
      <defs>
       <path d="M 0 0 
L 0 3.5 
" id="meb314dd5c1" style="stroke:#000000;stroke-width:0.8;"/>
      </defs>
      <g>
       <use style="stroke:#000000;stroke-width:0.8;" x="34.534125" xlink:href="#meb314dd5c1" y="266.112"/>
      </g>
     </g>
     <g id="text_1">
      <!-- 10% -->
      <g transform="translate(23.420844 280.710438)scale(0.1 -0.1)">
       <defs>
        <path d="M 12.40625 8.296875 
L 28.515625 8.296875 
L 28.515625 63.921875 
L 10.984375 60.40625 
L 10.984375 69.390625 
L 28.421875 72.90625 
L 38.28125 72.90625 
L 38.28125 8.296875 
L 54.390625 8.296875 
L 54.390625 0 
L 12.40625 0 
z
" id="DejaVuSans-49"/>
        <path d="M 31.78125 66.40625 
Q 24.171875 66.40625 20.328125 58.90625 
Q 16.5 51.421875 16.5 36.375 
Q 16.5 21.390625 20.328125 13.890625 
Q 24.171875 6.390625 31.78125 6.390625 
Q 39.453125 6.390625 43.28125 13.890625 
Q 47.125 21.390625 47.125 36.375 
Q 47.125 51.421875 43.28125 58.90625 
Q 39.453125 66.40625 31.78125 66.40625 
z
M 31.78125 74.21875 
Q 44.046875 74.21875 50.515625 64.515625 
Q 56.984375 54.828125 56.984375 36.375 
Q 56.984375 17.96875 50.515625 8.265625 
Q 44.046875 -1.421875 31.78125 -1.421875 
Q 19.53125 -1.421875 13.0625 8.265625 
Q 6.59375 17.96875 6.59375 36.375 
Q 6.59375 54.828125 13.0625 64.515625 
Q 19.53125 74.21875 31.78125 74.21875 
z
" id="DejaVuSans-48"/>
        <path d="M 72.703125 32.078125 
Q 68.453125 32.078125 66.03125 28.46875 
Q 63.625 24.859375 63.625 18.40625 
Q 63.625 12.0625 66.03125 8.421875 
Q 68.453125 4.78125 72.703125 4.78125 
Q 76.859375 4.78125 79.265625 8.421875 
Q 81.6875 12.0625 81.6875 18.40625 
Q 81.6875 24.8125 79.265625 28.4375 
Q 76.859375 32.078125 72.703125 32.078125 
z
M 72.703125 38.28125 
Q 80.421875 38.28125 84.953125 32.90625 
Q 89.5 27.546875 89.5 18.40625 
Q 89.5 9.28125 84.9375 3.921875 
Q 80.375 -1.421875 72.703125 -1.421875 
Q 64.890625 -1.421875 60.34375 3.921875 
Q 55.8125 9.28125 55.8125 18.40625 
Q 55.8125 27.59375 60.375 32.9375 
Q 64.9375 38.28125 72.703125 38.28125 
z
M 22.3125 68.015625 
Q 18.109375 68.015625 15.6875 64.375 
Q 13.28125 60.75 13.28125 54.390625 
Q 13.28125 47.953125 15.671875 44.328125 
Q 18.0625 40.71875 22.3125 40.71875 
Q 26.5625 40.71875 28.96875 44.328125 
Q 31.390625 47.953125 31.390625 54.390625 
Q 31.390625 60.6875 28.953125 64.34375 
Q 26.515625 68.015625 22.3125 68.015625 
z
M 66.40625 74.21875 
L 74.21875 74.21875 
L 28.609375 -1.421875 
L 20.796875 -1.421875 
z
M 22.3125 74.21875 
Q 30.03125 74.21875 34.609375 68.875 
Q 39.203125 63.53125 39.203125 54.390625 
Q 39.203125 45.171875 34.640625 39.84375 
Q 30.078125 34.515625 22.3125 34.515625 
Q 14.546875 34.515625 10.03125 39.859375 
Q 5.515625 45.21875 5.515625 54.390625 
Q 5.515625 63.484375 10.046875 68.84375 
Q 14.59375 74.21875 22.3125 74.21875 
z
" id="DejaVuSans-37"/>
       </defs>
       <use xlink:href="#DejaVuSans-49"/>
       <use x="63.623047" xlink:href="#DejaVuSans-48"/>
       <use x="127.246094" xlink:href="#DejaVuSans-37"/>
      </g>
     </g>
    </g>
    <g id="xtick_2">
     <g id="line2d_2">
      <g>
       <use style="stroke:#000000;stroke-width:0.8;" x="70.246125" xlink:href="#meb314dd5c1" y="266.112"/>
      </g>
     </g>
     <g id="text_2">
      <!-- 20% -->
      <g transform="translate(59.132844 280.710438)scale(0.1 -0.1)">
       <defs>
        <path d="M 19.1875 8.296875 
L 53.609375 8.296875 
L 53.609375 0 
L 7.328125 0 
L 7.328125 8.296875 
Q 12.9375 14.109375 22.625 23.890625 
Q 32.328125 33.6875 34.8125 36.53125 
Q 39.546875 41.84375 41.421875 45.53125 
Q 43.3125 49.21875 43.3125 52.78125 
Q 43.3125 58.59375 39.234375 62.25 
Q 35.15625 65.921875 28.609375 65.921875 
Q 23.96875 65.921875 18.8125 64.3125 
Q 13.671875 62.703125 7.8125 59.421875 
L 7.8125 69.390625 
Q 13.765625 71.78125 18.9375 73 
Q 24.125 74.21875 28.421875 74.21875 
Q 39.75 74.21875 46.484375 68.546875 
Q 53.21875 62.890625 53.21875 53.421875 
Q 53.21875 48.921875 51.53125 44.890625 
Q 49.859375 40.875 45.40625 35.40625 
Q 44.1875 33.984375 37.640625 27.21875 
Q 31.109375 20.453125 19.1875 8.296875 
z
" id="DejaVuSans-50"/>
       </defs>
       <use xlink:href="#DejaVuSans-50"/>
       <use x="63.623047" xlink:href="#DejaVuSans-48"/>
       <use x="127.246094" xlink:href="#DejaVuSans-37"/>
      </g>
     </g>
    </g>
    <g id="xtick_3">
     <g id="line2d_3">
      <g>
       <use style="stroke:#000000;stroke-width:0.8;" x="105.958125" xlink:href="#meb314dd5c1" y="266.112"/>
      </g>
     </g>
     <g id="text_3">
      <!-- 30% -->
      <g transform="translate(94.844844 280.710438)scale(0.1 -0.1)">
       <defs>
        <path d="M 40.578125 39.3125 
Q 47.65625 37.796875 51.625 33 
Q 55.609375 28.21875 55.609375 21.1875 
Q 55.609375 10.40625 48.1875 4.484375 
Q 40.765625 -1.421875 27.09375 -1.421875 
Q 22.515625 -1.421875 17.65625 -0.515625 
Q 12.796875 0.390625 7.625 2.203125 
L 7.625 11.71875 
Q 11.71875 9.328125 16.59375 8.109375 
Q 21.484375 6.890625 26.8125 6.890625 
Q 36.078125 6.890625 40.9375 10.546875 
Q 45.796875 14.203125 45.796875 21.1875 
Q 45.796875 27.640625 41.28125 31.265625 
Q 36.765625 34.90625 28.71875 34.90625 
L 20.21875 34.90625 
L 20.21875 43.015625 
L 29.109375 43.015625 
Q 36.375 43.015625 40.234375 45.921875 
Q 44.09375 48.828125 44.09375 54.296875 
Q 44.09375 59.90625 40.109375 62.90625 
Q 36.140625 65.921875 28.71875 65.921875 
Q 24.65625 65.921875 20.015625 65.03125 
Q 15.375 64.15625 9.8125 62.3125 
L 9.8125 71.09375 
Q 15.4375 72.65625 20.34375 73.4375 
Q 25.25 74.21875 29.59375 74.21875 
Q 40.828125 74.21875 47.359375 69.109375 
Q 53.90625 64.015625 53.90625 55.328125 
Q 53.90625 49.265625 50.4375 45.09375 
Q 46.96875 40.921875 40.578125 39.3125 
z
" id="DejaVuSans-51"/>
       </defs>
       <use xlink:href="#DejaVuSans-51"/>
       <use x="63.623047" xlink:href="#DejaVuSans-48"/>
       <use x="127.246094" xlink:href="#DejaVuSans-37"/>
      </g>
     </g>
    </g>
    <g id="xtick_4">
     <g id="line2d_4">
      <g>
       <use style="stroke:#000000;stroke-width:0.8;" x="141.670125" xlink:href="#meb314dd5c1" y="266.112"/>
      </g>
     </g>
     <g id="text_4">
      <!-- 40% -->
      <g transform="translate(130.556844 280.710438)scale(0.1 -0.1)">
       <defs>
        <path d="M 37.796875 64.3125 
L 12.890625 25.390625 
L 37.796875 25.390625 
z
M 35.203125 72.90625 
L 47.609375 72.90625 
L 47.609375 25.390625 
L 58.015625 25.390625 
L 58.015625 17.1875 
L 47.609375 17.1875 
L 47.609375 0 
L 37.796875 0 
L 37.796875 17.1875 
L 4.890625 17.1875 
L 4.890625 26.703125 
z
" id="DejaVuSans-52"/>
       </defs>
       <use xlink:href="#DejaVuSans-52"/>
       <use x="63.623047" xlink:href="#DejaVuSans-48"/>
       <use x="127.246094" xlink:href="#DejaVuSans-37"/>
      </g>
     </g>
    </g>
    <g id="xtick_5">
     <g id="line2d_5">
      <g>
       <use style="stroke:#000000;stroke-width:0.8;" x="177.382125" xlink:href="#meb314dd5c1" y="266.112"/>
      </g>
     </g>
     <g id="text_5">
      <!-- 50% -->
      <g transform="translate(166.268844 280.710438)scale(0.1 -0.1)">
       <defs>
        <path d="M 10.796875 72.90625 
L 49.515625 72.90625 
L 49.515625 64.59375 
L 19.828125 64.59375 
L 19.828125 46.734375 
Q 21.96875 47.46875 24.109375 47.828125 
Q 26.265625 48.1875 28.421875 48.1875 
Q 40.625 48.1875 47.75 41.5 
Q 54.890625 34.8125 54.890625 23.390625 
Q 54.890625 11.625 47.5625 5.09375 
Q 40.234375 -1.421875 26.90625 -1.421875 
Q 22.3125 -1.421875 17.546875 -0.640625 
Q 12.796875 0.140625 7.71875 1.703125 
L 7.71875 11.625 
Q 12.109375 9.234375 16.796875 8.0625 
Q 21.484375 6.890625 26.703125 6.890625 
Q 35.15625 6.890625 40.078125 11.328125 
Q 45.015625 15.765625 45.015625 23.390625 
Q 45.015625 31 40.078125 35.4375 
Q 35.15625 39.890625 26.703125 39.890625 
Q 22.75 39.890625 18.8125 39.015625 
Q 14.890625 38.140625 10.796875 36.28125 
z
" id="DejaVuSans-53"/>
       </defs>
       <use xlink:href="#DejaVuSans-53"/>
       <use x="63.623047" xlink:href="#DejaVuSans-48"/>
       <use x="127.246094" xlink:href="#DejaVuSans-37"/>
      </g>
     </g>
    </g>
    <g id="xtick_6">
     <g id="line2d_6">
      <g>
       <use style="stroke:#000000;stroke-width:0.8;" x="213.094125" xlink:href="#meb314dd5c1" y="266.112"/>
      </g>
     </g>
     <g id="text_6">
      <!-- 60% -->
      <g transform="translate(201.980844 280.710438)scale(0.1 -0.1)">
       <defs>
        <path d="M 33.015625 40.375 
Q 26.375 40.375 22.484375 35.828125 
Q 18.609375 31.296875 18.609375 23.390625 
Q 18.609375 15.53125 22.484375 10.953125 
Q 26.375 6.390625 33.015625 6.390625 
Q 39.65625 6.390625 43.53125 10.953125 
Q 47.40625 15.53125 47.40625 23.390625 
Q 47.40625 31.296875 43.53125 35.828125 
Q 39.65625 40.375 33.015625 40.375 
z
M 52.59375 71.296875 
L 52.59375 62.3125 
Q 48.875 64.0625 45.09375 64.984375 
Q 41.3125 65.921875 37.59375 65.921875 
Q 27.828125 65.921875 22.671875 59.328125 
Q 17.53125 52.734375 16.796875 39.40625 
Q 19.671875 43.65625 24.015625 45.921875 
Q 28.375 48.1875 33.59375 48.1875 
Q 44.578125 48.1875 50.953125 41.515625 
Q 57.328125 34.859375 57.328125 23.390625 
Q 57.328125 12.15625 50.6875 5.359375 
Q 44.046875 -1.421875 33.015625 -1.421875 
Q 20.359375 -1.421875 13.671875 8.265625 
Q 6.984375 17.96875 6.984375 36.375 
Q 6.984375 53.65625 15.1875 63.9375 
Q 23.390625 74.21875 37.203125 74.21875 
Q 40.921875 74.21875 44.703125 73.484375 
Q 48.484375 72.75 52.59375 71.296875 
z
" id="DejaVuSans-54"/>
       </defs>
       <use xlink:href="#DejaVuSans-54"/>
       <use x="63.623047" xlink:href="#DejaVuSans-48"/>
       <use x="127.246094" xlink:href="#DejaVuSans-37"/>
      </g>
     </g>
    </g>
    <g id="xtick_7">
     <g id="line2d_7">
      <g>
       <use style="stroke:#000000;stroke-width:0.8;" x="248.806125" xlink:href="#meb314dd5c1" y="266.112"/>
      </g>
     </g>
     <g id="text_7">
      <!-- 70% -->
      <g transform="translate(237.692844 280.710438)scale(0.1 -0.1)">
       <defs>
        <path d="M 8.203125 72.90625 
L 55.078125 72.90625 
L 55.078125 68.703125 
L 28.609375 0 
L 18.3125 0 
L 43.21875 64.59375 
L 8.203125 64.59375 
z
" id="DejaVuSans-55"/>
       </defs>
       <use xlink:href="#DejaVuSans-55"/>
       <use x="63.623047" xlink:href="#DejaVuSans-48"/>
       <use x="127.246094" xlink:href="#DejaVuSans-37"/>
      </g>
     </g>
    </g>
    <g id="xtick_8">
     <g id="line2d_8">
      <g>
       <use style="stroke:#000000;stroke-width:0.8;" x="284.518125" xlink:href="#meb314dd5c1" y="266.112"/>
      </g>
     </g>
     <g id="text_8">
      <!-- 80% -->
      <g transform="translate(273.404844 280.710438)scale(0.1 -0.1)">
       <defs>
        <path d="M 31.78125 34.625 
Q 24.75 34.625 20.71875 30.859375 
Q 16.703125 27.09375 16.703125 20.515625 
Q 16.703125 13.921875 20.71875 10.15625 
Q 24.75 6.390625 31.78125 6.390625 
Q 38.8125 6.390625 42.859375 10.171875 
Q 46.921875 13.96875 46.921875 20.515625 
Q 46.921875 27.09375 42.890625 30.859375 
Q 38.875 34.625 31.78125 34.625 
z
M 21.921875 38.8125 
Q 15.578125 40.375 12.03125 44.71875 
Q 8.5 49.078125 8.5 55.328125 
Q 8.5 64.0625 14.71875 69.140625 
Q 20.953125 74.21875 31.78125 74.21875 
Q 42.671875 74.21875 48.875 69.140625 
Q 55.078125 64.0625 55.078125 55.328125 
Q 55.078125 49.078125 51.53125 44.71875 
Q 48 40.375 41.703125 38.8125 
Q 48.828125 37.15625 52.796875 32.3125 
Q 56.78125 27.484375 56.78125 20.515625 
Q 56.78125 9.90625 50.3125 4.234375 
Q 43.84375 -1.421875 31.78125 -1.421875 
Q 19.734375 -1.421875 13.25 4.234375 
Q 6.78125 9.90625 6.78125 20.515625 
Q 6.78125 27.484375 10.78125 32.3125 
Q 14.796875 37.15625 21.921875 38.8125 
z
M 18.3125 54.390625 
Q 18.3125 48.734375 21.84375 45.5625 
Q 25.390625 42.390625 31.78125 42.390625 
Q 38.140625 42.390625 41.71875 45.5625 
Q 45.3125 48.734375 45.3125 54.390625 
Q 45.3125 60.0625 41.71875 63.234375 
Q 38.140625 66.40625 31.78125 66.40625 
Q 25.390625 66.40625 21.84375 63.234375 
Q 18.3125 60.0625 18.3125 54.390625 
z
" id="DejaVuSans-56"/>
       </defs>
       <use xlink:href="#DejaVuSans-56"/>
       <use x="63.623047" xlink:href="#DejaVuSans-48"/>
       <use x="127.246094" xlink:href="#DejaVuSans-37"/>
      </g>
     </g>
    </g>
    <g id="xtick_9">
     <g id="line2d_9">
      <g>
       <use style="stroke:#000000;stroke-width:0.8;" x="320.230125" xlink:href="#meb314dd5c1" y="266.112"/>
      </g>
     </g>
     <g id="text_9">
      <!-- 90% -->
      <g transform="translate(309.116844 280.710438)scale(0.1 -0.1)">
       <defs>
        <path d="M 10.984375 1.515625 
L 10.984375 10.5 
Q 14.703125 8.734375 18.5 7.8125 
Q 22.3125 6.890625 25.984375 6.890625 
Q 35.75 6.890625 40.890625 13.453125 
Q 46.046875 20.015625 46.78125 33.40625 
Q 43.953125 29.203125 39.59375 26.953125 
Q 35.25 24.703125 29.984375 24.703125 
Q 19.046875 24.703125 12.671875 31.3125 
Q 6.296875 37.9375 6.296875 49.421875 
Q 6.296875 60.640625 12.9375 67.421875 
Q 19.578125 74.21875 30.609375 74.21875 
Q 43.265625 74.21875 49.921875 64.515625 
Q 56.59375 54.828125 56.59375 36.375 
Q 56.59375 19.140625 48.40625 8.859375 
Q 40.234375 -1.421875 26.421875 -1.421875 
Q 22.703125 -1.421875 18.890625 -0.6875 
Q 15.09375 0.046875 10.984375 1.515625 
z
M 30.609375 32.421875 
Q 37.25 32.421875 41.125 36.953125 
Q 45.015625 41.5 45.015625 49.421875 
Q 45.015625 57.28125 41.125 61.84375 
Q 37.25 66.40625 30.609375 66.40625 
Q 23.96875 66.40625 20.09375 61.84375 
Q 16.21875 57.28125 16.21875 49.421875 
Q 16.21875 41.5 20.09375 36.953125 
Q 23.96875 32.421875 30.609375 32.421875 
z
" id="DejaVuSans-57"/>
       </defs>
       <use xlink:href="#DejaVuSans-57"/>
       <use x="63.623047" xlink:href="#DejaVuSans-48"/>
       <use x="127.246094" xlink:href="#DejaVuSans-37"/>
      </g>
     </g>
    </g>
    <g id="xtick_10">
     <g id="line2d_10">
      <g>
       <use style="stroke:#000000;stroke-width:0.8;" x="355.942125" xlink:href="#meb314dd5c1" y="266.112"/>
      </g>
     </g>
     <g id="text_10">
      <!-- 100% -->
      <g transform="translate(341.647594 280.710438)scale(0.1 -0.1)">
       <use xlink:href="#DejaVuSans-49"/>
       <use x="63.623047" xlink:href="#DejaVuSans-48"/>
       <use x="127.246094" xlink:href="#DejaVuSans-48"/>
       <use x="190.869141" xlink:href="#DejaVuSans-37"/>
      </g>
     </g>
    </g>
   </g>
   <g id="matplotlib.axis_2">
    <g id="ytick_1">
     <g id="line2d_11">
      <defs>
       <path d="M 0 0 
L -3.5 0 
" id="m904038f8c7" style="stroke:#000000;stroke-width:0.8;"/>
      </defs>
      <g>
       <use style="stroke:#000000;stroke-width:0.8;" x="16.678125" xlink:href="#m904038f8c7" y="13.3056"/>
      </g>
     </g>
     <g id="text_11">
      <!-- 10% -->
      <g transform="translate(7.598437 31.732944)rotate(-90)scale(0.1 -0.1)">
       <use xlink:href="#DejaVuSans-49"/>
       <use x="63.623047" xlink:href="#DejaVuSans-48"/>
       <use x="127.246094" xlink:href="#DejaVuSans-37"/>
      </g>
     </g>
    </g>
    <g id="ytick_2">
     <g id="line2d_12">
      <g>
       <use style="stroke:#000000;stroke-width:0.8;" x="16.678125" xlink:href="#m904038f8c7" y="39.9168"/>
      </g>
     </g>
     <g id="text_12">
      <!-- 20% -->
      <g transform="translate(7.598437 58.344144)rotate(-90)scale(0.1 -0.1)">
       <use xlink:href="#DejaVuSans-50"/>
       <use x="63.623047" xlink:href="#DejaVuSans-48"/>
       <use x="127.246094" xlink:href="#DejaVuSans-37"/>
      </g>
     </g>
    </g>
    <g id="ytick_3">
     <g id="line2d_13">
      <g>
       <use style="stroke:#000000;stroke-width:0.8;" x="16.678125" xlink:href="#m904038f8c7" y="66.528"/>
      </g>
     </g>
     <g id="text_13">
      <!-- 30% -->
      <g transform="translate(7.598437 84.955344)rotate(-90)scale(0.1 -0.1)">
       <use xlink:href="#DejaVuSans-51"/>
       <use x="63.623047" xlink:href="#DejaVuSans-48"/>
       <use x="127.246094" xlink:href="#DejaVuSans-37"/>
      </g>
     </g>
    </g>
    <g id="ytick_4">
     <g id="line2d_14">
      <g>
       <use style="stroke:#000000;stroke-width:0.8;" x="16.678125" xlink:href="#m904038f8c7" y="93.1392"/>
      </g>
     </g>
     <g id="text_14">
      <!-- 40% -->
      <g transform="translate(7.598437 111.566544)rotate(-90)scale(0.1 -0.1)">
       <use xlink:href="#DejaVuSans-52"/>
       <use x="63.623047" xlink:href="#DejaVuSans-48"/>
       <use x="127.246094" xlink:href="#DejaVuSans-37"/>
      </g>
     </g>
    </g>
    <g id="ytick_5">
     <g id="line2d_15">
      <g>
       <use style="stroke:#000000;stroke-width:0.8;" x="16.678125" xlink:href="#m904038f8c7" y="119.7504"/>
      </g>
     </g>
     <g id="text_15">
      <!-- 50% -->
      <g transform="translate(7.598437 138.177744)rotate(-90)scale(0.1 -0.1)">
       <use xlink:href="#DejaVuSans-53"/>
       <use x="63.623047" xlink:href="#DejaVuSans-48"/>
       <use x="127.246094" xlink:href="#DejaVuSans-37"/>
      </g>
     </g>
    </g>
    <g id="ytick_6">
     <g id="line2d_16">
      <g>
       <use style="stroke:#000000;stroke-width:0.8;" x="16.678125" xlink:href="#m904038f8c7" y="146.3616"/>
      </g>
     </g>
     <g id="text_16">
      <!-- 60% -->
      <g transform="translate(7.598437 164.788944)rotate(-90)scale(0.1 -0.1)">
       <use xlink:href="#DejaVuSans-54"/>
       <use x="63.623047" xlink:href="#DejaVuSans-48"/>
       <use x="127.246094" xlink:href="#DejaVuSans-37"/>
      </g>
     </g>
    </g>
    <g id="ytick_7">
     <g id="line2d_17">
      <g>
       <use style="stroke:#000000;stroke-width:0.8;" x="16.678125" xlink:href="#m904038f8c7" y="172.9728"/>
      </g>
     </g>
     <g id="text_17">
      <!-- 70% -->
      <g transform="translate(7.598437 191.400144)rotate(-90)scale(0.1 -0.1)">
       <use xlink:href="#DejaVuSans-55"/>
       <use x="63.623047" xlink:href="#DejaVuSans-48"/>
       <use x="127.246094" xlink:href="#DejaVuSans-37"/>
      </g>
     </g>
    </g>
    <g id="ytick_8">
     <g id="line2d_18">
      <g>
       <use style="stroke:#000000;stroke-width:0.8;" x="16.678125" xlink:href="#m904038f8c7" y="199.584"/>
      </g>
     </g>
     <g id="text_18">
      <!-- 80% -->
      <g transform="translate(7.598437 218.011344)rotate(-90)scale(0.1 -0.1)">
       <use xlink:href="#DejaVuSans-56"/>
       <use x="63.623047" xlink:href="#DejaVuSans-48"/>
       <use x="127.246094" xlink:href="#DejaVuSans-37"/>
      </g>
     </g>
    </g>
    <g id="ytick_9">
     <g id="line2d_19">
      <g>
       <use style="stroke:#000000;stroke-width:0.8;" x="16.678125" xlink:href="#m904038f8c7" y="226.1952"/>
      </g>
     </g>
     <g id="text_19">
      <!-- 90% -->
      <g transform="translate(7.598437 244.622544)rotate(-90)scale(0.1 -0.1)">
       <use xlink:href="#DejaVuSans-57"/>
       <use x="63.623047" xlink:href="#DejaVuSans-48"/>
       <use x="127.246094" xlink:href="#DejaVuSans-37"/>
      </g>
     </g>
    </g>
    <g id="ytick_10">
     <g id="line2d_20">
      <g>
       <use style="stroke:#000000;stroke-width:0.8;" x="16.678125" xlink:href="#m904038f8c7" y="252.8064"/>
      </g>
     </g>
     <g id="text_20">
      <!-- 100% -->
      <g transform="translate(7.598437 277.596244)rotate(-90)scale(0.1 -0.1)">
       <use xlink:href="#DejaVuSans-49"/>
       <use x="63.623047" xlink:href="#DejaVuSans-48"/>
       <use x="127.246094" xlink:href="#DejaVuSans-48"/>
       <use x="190.869141" xlink:href="#DejaVuSans-37"/>
      </g>
     </g>
    </g>
   </g>
   <g id="text_21">
    <!-- 61 -->
    <g style="fill:#ffffff;" transform="translate(28.171625 16.064975)scale(0.1 -0.1)">
     <use xlink:href="#DejaVuSans-54"/>
     <use x="63.623047" xlink:href="#DejaVuSans-49"/>
    </g>
   </g>
   <g id="text_22">
    <!-- 12 -->
    <g style="fill:#262626;" transform="translate(63.883625 16.064975)scale(0.1 -0.1)">
     <use xlink:href="#DejaVuSans-49"/>
     <use x="63.623047" xlink:href="#DejaVuSans-50"/>
    </g>
   </g>
   <g id="text_23">
    <!-- 25 -->
    <g style="fill:#262626;" transform="translate(99.595625 16.064975)scale(0.1 -0.1)">
     <use xlink:href="#DejaVuSans-50"/>
     <use x="63.623047" xlink:href="#DejaVuSans-53"/>
    </g>
   </g>
   <g id="text_24">
    <!-- 1 -->
    <g style="fill:#262626;" transform="translate(138.488875 16.064975)scale(0.1 -0.1)">
     <use xlink:href="#DejaVuSans-49"/>
    </g>
   </g>
   <g id="text_25">
    <!-- 0 -->
    <g style="fill:#262626;" transform="translate(174.200875 16.064975)scale(0.1 -0.1)">
     <use xlink:href="#DejaVuSans-48"/>
    </g>
   </g>
   <g id="text_26">
    <!-- 1 -->
    <g style="fill:#262626;" transform="translate(209.912875 16.064975)scale(0.1 -0.1)">
     <use xlink:href="#DejaVuSans-49"/>
    </g>
   </g>
   <g id="text_27">
    <!-- 0 -->
    <g style="fill:#262626;" transform="translate(245.624875 16.064975)scale(0.1 -0.1)">
     <use xlink:href="#DejaVuSans-48"/>
    </g>
   </g>
   <g id="text_28">
    <!-- 0 -->
    <g style="fill:#262626;" transform="translate(281.336875 16.064975)scale(0.1 -0.1)">
     <use xlink:href="#DejaVuSans-48"/>
    </g>
   </g>
   <g id="text_29">
    <!-- 0 -->
    <g style="fill:#262626;" transform="translate(317.048875 16.064975)scale(0.1 -0.1)">
     <use xlink:href="#DejaVuSans-48"/>
    </g>
   </g>
   <g id="text_30">
    <!-- 0 -->
    <g style="fill:#262626;" transform="translate(352.760875 16.064975)scale(0.1 -0.1)">
     <use xlink:href="#DejaVuSans-48"/>
    </g>
   </g>
   <g id="text_31">
    <!-- 0 -->
    <g style="fill:#262626;" transform="translate(31.352875 42.676175)scale(0.1 -0.1)">
     <use xlink:href="#DejaVuSans-48"/>
    </g>
   </g>
   <g id="text_32">
    <!-- 20 -->
    <g style="fill:#262626;" transform="translate(63.883625 42.676175)scale(0.1 -0.1)">
     <use xlink:href="#DejaVuSans-50"/>
     <use x="63.623047" xlink:href="#DejaVuSans-48"/>
    </g>
   </g>
   <g id="text_33">
    <!-- 68 -->
    <g style="fill:#ffffff;" transform="translate(99.595625 42.676175)scale(0.1 -0.1)">
     <use xlink:href="#DejaVuSans-54"/>
     <use x="63.623047" xlink:href="#DejaVuSans-56"/>
    </g>
   </g>
   <g id="text_34">
    <!-- 12 -->
    <g style="fill:#262626;" transform="translate(135.307625 42.676175)scale(0.1 -0.1)">
     <use xlink:href="#DejaVuSans-49"/>
     <use x="63.623047" xlink:href="#DejaVuSans-50"/>
    </g>
   </g>
   <g id="text_35">
    <!-- 0 -->
    <g style="fill:#262626;" transform="translate(174.200875 42.676175)scale(0.1 -0.1)">
     <use xlink:href="#DejaVuSans-48"/>
    </g>
   </g>
   <g id="text_36">
    <!-- 0 -->
    <g style="fill:#262626;" transform="translate(209.912875 42.676175)scale(0.1 -0.1)">
     <use xlink:href="#DejaVuSans-48"/>
    </g>
   </g>
   <g id="text_37">
    <!-- 0 -->
    <g style="fill:#262626;" transform="translate(245.624875 42.676175)scale(0.1 -0.1)">
     <use xlink:href="#DejaVuSans-48"/>
    </g>
   </g>
   <g id="text_38">
    <!-- 0 -->
    <g style="fill:#262626;" transform="translate(281.336875 42.676175)scale(0.1 -0.1)">
     <use xlink:href="#DejaVuSans-48"/>
    </g>
   </g>
   <g id="text_39">
    <!-- 0 -->
    <g style="fill:#262626;" transform="translate(317.048875 42.676175)scale(0.1 -0.1)">
     <use xlink:href="#DejaVuSans-48"/>
    </g>
   </g>
   <g id="text_40">
    <!-- 0 -->
    <g style="fill:#262626;" transform="translate(352.760875 42.676175)scale(0.1 -0.1)">
     <use xlink:href="#DejaVuSans-48"/>
    </g>
   </g>
   <g id="text_41">
    <!-- 0 -->
    <g style="fill:#262626;" transform="translate(31.352875 69.287375)scale(0.1 -0.1)">
     <use xlink:href="#DejaVuSans-48"/>
    </g>
   </g>
   <g id="text_42">
    <!-- 10 -->
    <g style="fill:#262626;" transform="translate(63.883625 69.287375)scale(0.1 -0.1)">
     <use xlink:href="#DejaVuSans-49"/>
     <use x="63.623047" xlink:href="#DejaVuSans-48"/>
    </g>
   </g>
   <g id="text_43">
    <!-- 46 -->
    <g style="fill:#ffffff;" transform="translate(99.595625 69.287375)scale(0.1 -0.1)">
     <use xlink:href="#DejaVuSans-52"/>
     <use x="63.623047" xlink:href="#DejaVuSans-54"/>
    </g>
   </g>
   <g id="text_44">
    <!-- 34 -->
    <g style="fill:#ffffff;" transform="translate(135.307625 69.287375)scale(0.1 -0.1)">
     <use xlink:href="#DejaVuSans-51"/>
     <use x="63.623047" xlink:href="#DejaVuSans-52"/>
    </g>
   </g>
   <g id="text_45">
    <!-- 7 -->
    <g style="fill:#262626;" transform="translate(174.200875 69.287375)scale(0.1 -0.1)">
     <use xlink:href="#DejaVuSans-55"/>
    </g>
   </g>
   <g id="text_46">
    <!-- 0 -->
    <g style="fill:#262626;" transform="translate(209.912875 69.287375)scale(0.1 -0.1)">
     <use xlink:href="#DejaVuSans-48"/>
    </g>
   </g>
   <g id="text_47">
    <!-- 2 -->
    <g style="fill:#262626;" transform="translate(245.624875 69.287375)scale(0.1 -0.1)">
     <use xlink:href="#DejaVuSans-50"/>
    </g>
   </g>
   <g id="text_48">
    <!-- 0 -->
    <g style="fill:#262626;" transform="translate(281.336875 69.287375)scale(0.1 -0.1)">
     <use xlink:href="#DejaVuSans-48"/>
    </g>
   </g>
   <g id="text_49">
    <!-- 0 -->
    <g style="fill:#262626;" transform="translate(317.048875 69.287375)scale(0.1 -0.1)">
     <use xlink:href="#DejaVuSans-48"/>
    </g>
   </g>
   <g id="text_50">
    <!-- 1 -->
    <g style="fill:#262626;" transform="translate(352.760875 69.287375)scale(0.1 -0.1)">
     <use xlink:href="#DejaVuSans-49"/>
    </g>
   </g>
   <g id="text_51">
    <!-- 0 -->
    <g style="fill:#262626;" transform="translate(31.352875 95.898575)scale(0.1 -0.1)">
     <use xlink:href="#DejaVuSans-48"/>
    </g>
   </g>
   <g id="text_52">
    <!-- 3 -->
    <g style="fill:#262626;" transform="translate(67.064875 95.898575)scale(0.1 -0.1)">
     <use xlink:href="#DejaVuSans-51"/>
    </g>
   </g>
   <g id="text_53">
    <!-- 19 -->
    <g style="fill:#262626;" transform="translate(99.595625 95.898575)scale(0.1 -0.1)">
     <use xlink:href="#DejaVuSans-49"/>
     <use x="63.623047" xlink:href="#DejaVuSans-57"/>
    </g>
   </g>
   <g id="text_54">
    <!-- 45 -->
    <g style="fill:#ffffff;" transform="translate(135.307625 95.898575)scale(0.1 -0.1)">
     <use xlink:href="#DejaVuSans-52"/>
     <use x="63.623047" xlink:href="#DejaVuSans-53"/>
    </g>
   </g>
   <g id="text_55">
    <!-- 28 -->
    <g style="fill:#262626;" transform="translate(171.019625 95.898575)scale(0.1 -0.1)">
     <use xlink:href="#DejaVuSans-50"/>
     <use x="63.623047" xlink:href="#DejaVuSans-56"/>
    </g>
   </g>
   <g id="text_56">
    <!-- 2 -->
    <g style="fill:#262626;" transform="translate(209.912875 95.898575)scale(0.1 -0.1)">
     <use xlink:href="#DejaVuSans-50"/>
    </g>
   </g>
   <g id="text_57">
    <!-- 0 -->
    <g style="fill:#262626;" transform="translate(245.624875 95.898575)scale(0.1 -0.1)">
     <use xlink:href="#DejaVuSans-48"/>
    </g>
   </g>
   <g id="text_58">
    <!-- 1 -->
    <g style="fill:#262626;" transform="translate(281.336875 95.898575)scale(0.1 -0.1)">
     <use xlink:href="#DejaVuSans-49"/>
    </g>
   </g>
   <g id="text_59">
    <!-- 0 -->
    <g style="fill:#262626;" transform="translate(317.048875 95.898575)scale(0.1 -0.1)">
     <use xlink:href="#DejaVuSans-48"/>
    </g>
   </g>
   <g id="text_60">
    <!-- 2 -->
    <g style="fill:#262626;" transform="translate(352.760875 95.898575)scale(0.1 -0.1)">
     <use xlink:href="#DejaVuSans-50"/>
    </g>
   </g>
   <g id="text_61">
    <!-- 0 -->
    <g style="fill:#262626;" transform="translate(31.352875 122.509775)scale(0.1 -0.1)">
     <use xlink:href="#DejaVuSans-48"/>
    </g>
   </g>
   <g id="text_62">
    <!-- 4 -->
    <g style="fill:#262626;" transform="translate(67.064875 122.509775)scale(0.1 -0.1)">
     <use xlink:href="#DejaVuSans-52"/>
    </g>
   </g>
   <g id="text_63">
    <!-- 6 -->
    <g style="fill:#262626;" transform="translate(102.776875 122.509775)scale(0.1 -0.1)">
     <use xlink:href="#DejaVuSans-54"/>
    </g>
   </g>
   <g id="text_64">
    <!-- 39 -->
    <g style="fill:#ffffff;" transform="translate(135.307625 122.509775)scale(0.1 -0.1)">
     <use xlink:href="#DejaVuSans-51"/>
     <use x="63.623047" xlink:href="#DejaVuSans-57"/>
    </g>
   </g>
   <g id="text_65">
    <!-- 30 -->
    <g style="fill:#262626;" transform="translate(171.019625 122.509775)scale(0.1 -0.1)">
     <use xlink:href="#DejaVuSans-51"/>
     <use x="63.623047" xlink:href="#DejaVuSans-48"/>
    </g>
   </g>
   <g id="text_66">
    <!-- 14 -->
    <g style="fill:#262626;" transform="translate(206.731625 122.509775)scale(0.1 -0.1)">
     <use xlink:href="#DejaVuSans-49"/>
     <use x="63.623047" xlink:href="#DejaVuSans-52"/>
    </g>
   </g>
   <g id="text_67">
    <!-- 6 -->
    <g style="fill:#262626;" transform="translate(245.624875 122.509775)scale(0.1 -0.1)">
     <use xlink:href="#DejaVuSans-54"/>
    </g>
   </g>
   <g id="text_68">
    <!-- 0 -->
    <g style="fill:#262626;" transform="translate(281.336875 122.509775)scale(0.1 -0.1)">
     <use xlink:href="#DejaVuSans-48"/>
    </g>
   </g>
   <g id="text_69">
    <!-- 0 -->
    <g style="fill:#262626;" transform="translate(317.048875 122.509775)scale(0.1 -0.1)">
     <use xlink:href="#DejaVuSans-48"/>
    </g>
   </g>
   <g id="text_70">
    <!-- 1 -->
    <g style="fill:#262626;" transform="translate(352.760875 122.509775)scale(0.1 -0.1)">
     <use xlink:href="#DejaVuSans-49"/>
    </g>
   </g>
   <g id="text_71">
    <!-- 0 -->
    <g style="fill:#262626;" transform="translate(31.352875 149.120975)scale(0.1 -0.1)">
     <use xlink:href="#DejaVuSans-48"/>
    </g>
   </g>
   <g id="text_72">
    <!-- 1 -->
    <g style="fill:#262626;" transform="translate(67.064875 149.120975)scale(0.1 -0.1)">
     <use xlink:href="#DejaVuSans-49"/>
    </g>
   </g>
   <g id="text_73">
    <!-- 3 -->
    <g style="fill:#262626;" transform="translate(102.776875 149.120975)scale(0.1 -0.1)">
     <use xlink:href="#DejaVuSans-51"/>
    </g>
   </g>
   <g id="text_74">
    <!-- 35 -->
    <g style="fill:#ffffff;" transform="translate(135.307625 149.120975)scale(0.1 -0.1)">
     <use xlink:href="#DejaVuSans-51"/>
     <use x="63.623047" xlink:href="#DejaVuSans-53"/>
    </g>
   </g>
   <g id="text_75">
    <!-- 19 -->
    <g style="fill:#262626;" transform="translate(171.019625 149.120975)scale(0.1 -0.1)">
     <use xlink:href="#DejaVuSans-49"/>
     <use x="63.623047" xlink:href="#DejaVuSans-57"/>
    </g>
   </g>
   <g id="text_76">
    <!-- 15 -->
    <g style="fill:#262626;" transform="translate(206.731625 149.120975)scale(0.1 -0.1)">
     <use xlink:href="#DejaVuSans-49"/>
     <use x="63.623047" xlink:href="#DejaVuSans-53"/>
    </g>
   </g>
   <g id="text_77">
    <!-- 13 -->
    <g style="fill:#262626;" transform="translate(242.443625 149.120975)scale(0.1 -0.1)">
     <use xlink:href="#DejaVuSans-49"/>
     <use x="63.623047" xlink:href="#DejaVuSans-51"/>
    </g>
   </g>
   <g id="text_78">
    <!-- 12 -->
    <g style="fill:#262626;" transform="translate(278.155625 149.120975)scale(0.1 -0.1)">
     <use xlink:href="#DejaVuSans-49"/>
     <use x="63.623047" xlink:href="#DejaVuSans-50"/>
    </g>
   </g>
   <g id="text_79">
    <!-- 0 -->
    <g style="fill:#262626;" transform="translate(317.048875 149.120975)scale(0.1 -0.1)">
     <use xlink:href="#DejaVuSans-48"/>
    </g>
   </g>
   <g id="text_80">
    <!-- 2 -->
    <g style="fill:#262626;" transform="translate(352.760875 149.120975)scale(0.1 -0.1)">
     <use xlink:href="#DejaVuSans-50"/>
    </g>
   </g>
   <g id="text_81">
    <!-- 1 -->
    <g style="fill:#262626;" transform="translate(31.352875 175.732175)scale(0.1 -0.1)">
     <use xlink:href="#DejaVuSans-49"/>
    </g>
   </g>
   <g id="text_82">
    <!-- 0 -->
    <g style="fill:#262626;" transform="translate(67.064875 175.732175)scale(0.1 -0.1)">
     <use xlink:href="#DejaVuSans-48"/>
    </g>
   </g>
   <g id="text_83">
    <!-- 1 -->
    <g style="fill:#262626;" transform="translate(102.776875 175.732175)scale(0.1 -0.1)">
     <use xlink:href="#DejaVuSans-49"/>
    </g>
   </g>
   <g id="text_84">
    <!-- 9 -->
    <g style="fill:#262626;" transform="translate(138.488875 175.732175)scale(0.1 -0.1)">
     <use xlink:href="#DejaVuSans-57"/>
    </g>
   </g>
   <g id="text_85">
    <!-- 11 -->
    <g style="fill:#262626;" transform="translate(171.019625 175.732175)scale(0.1 -0.1)">
     <use xlink:href="#DejaVuSans-49"/>
     <use x="63.623047" xlink:href="#DejaVuSans-49"/>
    </g>
   </g>
   <g id="text_86">
    <!-- 17 -->
    <g style="fill:#262626;" transform="translate(206.731625 175.732175)scale(0.1 -0.1)">
     <use xlink:href="#DejaVuSans-49"/>
     <use x="63.623047" xlink:href="#DejaVuSans-55"/>
    </g>
   </g>
   <g id="text_87">
    <!-- 28 -->
    <g style="fill:#262626;" transform="translate(242.443625 175.732175)scale(0.1 -0.1)">
     <use xlink:href="#DejaVuSans-50"/>
     <use x="63.623047" xlink:href="#DejaVuSans-56"/>
    </g>
   </g>
   <g id="text_88">
    <!-- 20 -->
    <g style="fill:#262626;" transform="translate(278.155625 175.732175)scale(0.1 -0.1)">
     <use xlink:href="#DejaVuSans-50"/>
     <use x="63.623047" xlink:href="#DejaVuSans-48"/>
    </g>
   </g>
   <g id="text_89">
    <!-- 8 -->
    <g style="fill:#262626;" transform="translate(317.048875 175.732175)scale(0.1 -0.1)">
     <use xlink:href="#DejaVuSans-56"/>
    </g>
   </g>
   <g id="text_90">
    <!-- 5 -->
    <g style="fill:#262626;" transform="translate(352.760875 175.732175)scale(0.1 -0.1)">
     <use xlink:href="#DejaVuSans-53"/>
    </g>
   </g>
   <g id="text_91">
    <!-- 0 -->
    <g style="fill:#262626;" transform="translate(31.352875 202.343375)scale(0.1 -0.1)">
     <use xlink:href="#DejaVuSans-48"/>
    </g>
   </g>
   <g id="text_92">
    <!-- 0 -->
    <g style="fill:#262626;" transform="translate(67.064875 202.343375)scale(0.1 -0.1)">
     <use xlink:href="#DejaVuSans-48"/>
    </g>
   </g>
   <g id="text_93">
    <!-- 0 -->
    <g style="fill:#262626;" transform="translate(102.776875 202.343375)scale(0.1 -0.1)">
     <use xlink:href="#DejaVuSans-48"/>
    </g>
   </g>
   <g id="text_94">
    <!-- 9 -->
    <g style="fill:#262626;" transform="translate(138.488875 202.343375)scale(0.1 -0.1)">
     <use xlink:href="#DejaVuSans-57"/>
    </g>
   </g>
   <g id="text_95">
    <!-- 6 -->
    <g style="fill:#262626;" transform="translate(174.200875 202.343375)scale(0.1 -0.1)">
     <use xlink:href="#DejaVuSans-54"/>
    </g>
   </g>
   <g id="text_96">
    <!-- 11 -->
    <g style="fill:#262626;" transform="translate(206.731625 202.343375)scale(0.1 -0.1)">
     <use xlink:href="#DejaVuSans-49"/>
     <use x="63.623047" xlink:href="#DejaVuSans-49"/>
    </g>
   </g>
   <g id="text_97">
    <!-- 18 -->
    <g style="fill:#262626;" transform="translate(242.443625 202.343375)scale(0.1 -0.1)">
     <use xlink:href="#DejaVuSans-49"/>
     <use x="63.623047" xlink:href="#DejaVuSans-56"/>
    </g>
   </g>
   <g id="text_98">
    <!-- 26 -->
    <g style="fill:#262626;" transform="translate(278.155625 202.343375)scale(0.1 -0.1)">
     <use xlink:href="#DejaVuSans-50"/>
     <use x="63.623047" xlink:href="#DejaVuSans-54"/>
    </g>
   </g>
   <g id="text_99">
    <!-- 14 -->
    <g style="fill:#262626;" transform="translate(313.867625 202.343375)scale(0.1 -0.1)">
     <use xlink:href="#DejaVuSans-49"/>
     <use x="63.623047" xlink:href="#DejaVuSans-52"/>
    </g>
   </g>
   <g id="text_100">
    <!-- 16 -->
    <g style="fill:#262626;" transform="translate(349.579625 202.343375)scale(0.1 -0.1)">
     <use xlink:href="#DejaVuSans-49"/>
     <use x="63.623047" xlink:href="#DejaVuSans-54"/>
    </g>
   </g>
   <g id="text_101">
    <!-- 0 -->
    <g style="fill:#262626;" transform="translate(31.352875 228.954575)scale(0.1 -0.1)">
     <use xlink:href="#DejaVuSans-48"/>
    </g>
   </g>
   <g id="text_102">
    <!-- 0 -->
    <g style="fill:#262626;" transform="translate(67.064875 228.954575)scale(0.1 -0.1)">
     <use xlink:href="#DejaVuSans-48"/>
    </g>
   </g>
   <g id="text_103">
    <!-- 0 -->
    <g style="fill:#262626;" transform="translate(102.776875 228.954575)scale(0.1 -0.1)">
     <use xlink:href="#DejaVuSans-48"/>
    </g>
   </g>
   <g id="text_104">
    <!-- 5 -->
    <g style="fill:#262626;" transform="translate(138.488875 228.954575)scale(0.1 -0.1)">
     <use xlink:href="#DejaVuSans-53"/>
    </g>
   </g>
   <g id="text_105">
    <!-- 5 -->
    <g style="fill:#262626;" transform="translate(174.200875 228.954575)scale(0.1 -0.1)">
     <use xlink:href="#DejaVuSans-53"/>
    </g>
   </g>
   <g id="text_106">
    <!-- 15 -->
    <g style="fill:#262626;" transform="translate(206.731625 228.954575)scale(0.1 -0.1)">
     <use xlink:href="#DejaVuSans-49"/>
     <use x="63.623047" xlink:href="#DejaVuSans-53"/>
    </g>
   </g>
   <g id="text_107">
    <!-- 8 -->
    <g style="fill:#262626;" transform="translate(245.624875 228.954575)scale(0.1 -0.1)">
     <use xlink:href="#DejaVuSans-56"/>
    </g>
   </g>
   <g id="text_108">
    <!-- 16 -->
    <g style="fill:#262626;" transform="translate(278.155625 228.954575)scale(0.1 -0.1)">
     <use xlink:href="#DejaVuSans-49"/>
     <use x="63.623047" xlink:href="#DejaVuSans-54"/>
    </g>
   </g>
   <g id="text_109">
    <!-- 14 -->
    <g style="fill:#262626;" transform="translate(313.867625 228.954575)scale(0.1 -0.1)">
     <use xlink:href="#DejaVuSans-49"/>
     <use x="63.623047" xlink:href="#DejaVuSans-52"/>
    </g>
   </g>
   <g id="text_110">
    <!-- 37 -->
    <g style="fill:#ffffff;" transform="translate(349.579625 228.954575)scale(0.1 -0.1)">
     <use xlink:href="#DejaVuSans-51"/>
     <use x="63.623047" xlink:href="#DejaVuSans-55"/>
    </g>
   </g>
   <g id="text_111">
    <!-- 1 -->
    <g style="fill:#262626;" transform="translate(31.352875 255.565775)scale(0.1 -0.1)">
     <use xlink:href="#DejaVuSans-49"/>
    </g>
   </g>
   <g id="text_112">
    <!-- 2 -->
    <g style="fill:#262626;" transform="translate(67.064875 255.565775)scale(0.1 -0.1)">
     <use xlink:href="#DejaVuSans-50"/>
    </g>
   </g>
   <g id="text_113">
    <!-- 2 -->
    <g style="fill:#262626;" transform="translate(102.776875 255.565775)scale(0.1 -0.1)">
     <use xlink:href="#DejaVuSans-50"/>
    </g>
   </g>
   <g id="text_114">
    <!-- 2 -->
    <g style="fill:#262626;" transform="translate(138.488875 255.565775)scale(0.1 -0.1)">
     <use xlink:href="#DejaVuSans-50"/>
    </g>
   </g>
   <g id="text_115">
    <!-- 0 -->
    <g style="fill:#262626;" transform="translate(174.200875 255.565775)scale(0.1 -0.1)">
     <use xlink:href="#DejaVuSans-48"/>
    </g>
   </g>
   <g id="text_116">
    <!-- 10 -->
    <g style="fill:#262626;" transform="translate(206.731625 255.565775)scale(0.1 -0.1)">
     <use xlink:href="#DejaVuSans-49"/>
     <use x="63.623047" xlink:href="#DejaVuSans-48"/>
    </g>
   </g>
   <g id="text_117">
    <!-- 13 -->
    <g style="fill:#262626;" transform="translate(242.443625 255.565775)scale(0.1 -0.1)">
     <use xlink:href="#DejaVuSans-49"/>
     <use x="63.623047" xlink:href="#DejaVuSans-51"/>
    </g>
   </g>
   <g id="text_118">
    <!-- 5 -->
    <g style="fill:#262626;" transform="translate(281.336875 255.565775)scale(0.1 -0.1)">
     <use xlink:href="#DejaVuSans-53"/>
    </g>
   </g>
   <g id="text_119">
    <!-- 17 -->
    <g style="fill:#262626;" transform="translate(313.867625 255.565775)scale(0.1 -0.1)">
     <use xlink:href="#DejaVuSans-49"/>
     <use x="63.623047" xlink:href="#DejaVuSans-55"/>
    </g>
   </g>
   <g id="text_120">
    <!-- 48 -->
    <g style="fill:#ffffff;" transform="translate(349.579625 255.565775)scale(0.1 -0.1)">
     <use xlink:href="#DejaVuSans-52"/>
     <use x="63.623047" xlink:href="#DejaVuSans-56"/>
    </g>
   </g>
  </g>
 </g>
 <defs>
  <clipPath id="p9c2244bf63">
   <rect height="266.112" width="357.12" x="16.678125" y="0"/>
  </clipPath>
 </defs>
</svg>
