<?xml version="1.0" encoding="utf-8" standalone="no"?>
<!DOCTYPE svg PUBLIC "-//W3C//DTD SVG 1.1//EN"
  "http://www.w3.org/Graphics/SVG/1.1/DTD/svg11.dtd">
<!-- Created with matplotlib (https://matplotlib.org/) -->
<svg height="345.818125pt" version="1.1" viewBox="0 0 540.896217 345.818125" width="540.896217pt" xmlns="http://www.w3.org/2000/svg" xmlns:xlink="http://www.w3.org/1999/xlink">
 <metadata>
  <rdf:RDF xmlns:cc="http://creativecommons.org/ns#" xmlns:dc="http://purl.org/dc/elements/1.1/" xmlns:rdf="http://www.w3.org/1999/02/22-rdf-syntax-ns#">
   <cc:Work>
    <dc:type rdf:resource="http://purl.org/dc/dcmitype/StillImage"/>
    <dc:date>2021-08-20T15:48:02.359513</dc:date>
    <dc:format>image/svg+xml</dc:format>
    <dc:creator>
     <cc:Agent>
      <dc:title>Matplotlib v3.3.4, https://matplotlib.org/</dc:title>
     </cc:Agent>
    </dc:creator>
   </cc:Work>
  </rdf:RDF>
 </metadata>
 <defs>
  <style type="text/css">*{stroke-linecap:butt;stroke-linejoin:round;}</style>
 </defs>
 <g id="figure_1">
  <g id="patch_1">
   <path d="M -0 345.818125 
L 540.896217 345.818125 
L 540.896217 0 
L -0 0 
z
" style="fill:#ffffff;"/>
  </g>
  <g id="axes_1">
   <g id="patch_2">
    <path d="M 30.967188 332.64 
L 533.167188 332.64 
L 533.167188 0 
L 30.967188 0 
z
" style="fill:#ffffff;"/>
   </g>
   <g id="matplotlib.axis_1">
    <g id="xtick_1">
     <g id="line2d_1"/>
     <g id="text_1">
      <!-- 0 -->
      <g style="opacity:0;" transform="translate(50.61321 343.738438)scale(0.1 -0.1)">
       <defs>
        <path d="M 31.78125 66.40625 
Q 24.171875 66.40625 20.328125 58.90625 
Q 16.5 51.421875 16.5 36.375 
Q 16.5 21.390625 20.328125 13.890625 
Q 24.171875 6.390625 31.78125 6.390625 
Q 39.453125 6.390625 43.28125 13.890625 
Q 47.125 21.390625 47.125 36.375 
Q 47.125 51.421875 43.28125 58.90625 
Q 39.453125 66.40625 31.78125 66.40625 
z
M 31.78125 74.21875 
Q 44.046875 74.21875 50.515625 64.515625 
Q 56.984375 54.828125 56.984375 36.375 
Q 56.984375 17.96875 50.515625 8.265625 
Q 44.046875 -1.421875 31.78125 -1.421875 
Q 19.53125 -1.421875 13.0625 8.265625 
Q 6.59375 17.96875 6.59375 36.375 
Q 6.59375 54.828125 13.0625 64.515625 
Q 19.53125 74.21875 31.78125 74.21875 
z
" id="DejaVuSans-48"/>
       </defs>
       <use xlink:href="#DejaVuSans-48"/>
      </g>
     </g>
    </g>
    <g id="xtick_2">
     <g id="line2d_2"/>
     <g id="text_2">
      <!-- 50 -->
      <g style="opacity:0;" transform="translate(142.943562 343.738438)scale(0.1 -0.1)">
       <defs>
        <path d="M 10.796875 72.90625 
L 49.515625 72.90625 
L 49.515625 64.59375 
L 19.828125 64.59375 
L 19.828125 46.734375 
Q 21.96875 47.46875 24.109375 47.828125 
Q 26.265625 48.1875 28.421875 48.1875 
Q 40.625 48.1875 47.75 41.5 
Q 54.890625 34.8125 54.890625 23.390625 
Q 54.890625 11.625 47.5625 5.09375 
Q 40.234375 -1.421875 26.90625 -1.421875 
Q 22.3125 -1.421875 17.546875 -0.640625 
Q 12.796875 0.140625 7.71875 1.703125 
L 7.71875 11.625 
Q 12.109375 9.234375 16.796875 8.0625 
Q 21.484375 6.890625 26.703125 6.890625 
Q 35.15625 6.890625 40.078125 11.328125 
Q 45.015625 15.765625 45.015625 23.390625 
Q 45.015625 31 40.078125 35.4375 
Q 35.15625 39.890625 26.703125 39.890625 
Q 22.75 39.890625 18.8125 39.015625 
Q 14.890625 38.140625 10.796875 36.28125 
z
" id="DejaVuSans-53"/>
       </defs>
       <use xlink:href="#DejaVuSans-53"/>
       <use x="63.623047" xlink:href="#DejaVuSans-48"/>
      </g>
     </g>
    </g>
    <g id="xtick_3">
     <g id="line2d_3"/>
     <g id="text_3">
      <!-- 100 -->
      <g style="opacity:0;" transform="translate(235.273913 343.738438)scale(0.1 -0.1)">
       <defs>
        <path d="M 12.40625 8.296875 
L 28.515625 8.296875 
L 28.515625 63.921875 
L 10.984375 60.40625 
L 10.984375 69.390625 
L 28.421875 72.90625 
L 38.28125 72.90625 
L 38.28125 8.296875 
L 54.390625 8.296875 
L 54.390625 0 
L 12.40625 0 
z
" id="DejaVuSans-49"/>
       </defs>
       <use xlink:href="#DejaVuSans-49"/>
       <use x="63.623047" xlink:href="#DejaVuSans-48"/>
       <use x="127.246094" xlink:href="#DejaVuSans-48"/>
      </g>
     </g>
    </g>
    <g id="xtick_4">
     <g id="line2d_4"/>
     <g id="text_4">
      <!-- 150 -->
      <g style="opacity:0;" transform="translate(330.785514 343.738438)scale(0.1 -0.1)">
       <use xlink:href="#DejaVuSans-49"/>
       <use x="63.623047" xlink:href="#DejaVuSans-53"/>
       <use x="127.246094" xlink:href="#DejaVuSans-48"/>
      </g>
     </g>
    </g>
    <g id="xtick_5">
     <g id="line2d_5"/>
     <g id="text_5">
      <!-- 200 -->
      <g style="opacity:0;" transform="translate(426.297116 343.738438)scale(0.1 -0.1)">
       <defs>
        <path d="M 19.1875 8.296875 
L 53.609375 8.296875 
L 53.609375 0 
L 7.328125 0 
L 7.328125 8.296875 
Q 12.9375 14.109375 22.625 23.890625 
Q 32.328125 33.6875 34.8125 36.53125 
Q 39.546875 41.84375 41.421875 45.53125 
Q 43.3125 49.21875 43.3125 52.78125 
Q 43.3125 58.59375 39.234375 62.25 
Q 35.15625 65.921875 28.609375 65.921875 
Q 23.96875 65.921875 18.8125 64.3125 
Q 13.671875 62.703125 7.8125 59.421875 
L 7.8125 69.390625 
Q 13.765625 71.78125 18.9375 73 
Q 24.125 74.21875 28.421875 74.21875 
Q 39.75 74.21875 46.484375 68.546875 
Q 53.21875 62.890625 53.21875 53.421875 
Q 53.21875 48.921875 51.53125 44.890625 
Q 49.859375 40.875 45.40625 35.40625 
Q 44.1875 33.984375 37.640625 27.21875 
Q 31.109375 20.453125 19.1875 8.296875 
z
" id="DejaVuSans-50"/>
       </defs>
       <use xlink:href="#DejaVuSans-50"/>
       <use x="63.623047" xlink:href="#DejaVuSans-48"/>
       <use x="127.246094" xlink:href="#DejaVuSans-48"/>
      </g>
     </g>
    </g>
    <g id="xtick_6">
     <g id="line2d_6"/>
     <g id="text_6">
      <!-- 250 -->
      <g style="opacity:0;" transform="translate(521.808717 343.738438)scale(0.1 -0.1)">
       <use xlink:href="#DejaVuSans-50"/>
       <use x="63.623047" xlink:href="#DejaVuSans-53"/>
       <use x="127.246094" xlink:href="#DejaVuSans-48"/>
      </g>
     </g>
    </g>
   </g>
   <g id="matplotlib.axis_2">
    <g id="ytick_1">
     <g id="line2d_7"/>
     <g id="text_7">
      <!-- −200 -->
      <g style="opacity:0;" transform="translate(0 335.257073)scale(0.1 -0.1)">
       <defs>
        <path d="M 10.59375 35.5 
L 73.1875 35.5 
L 73.1875 27.203125 
L 10.59375 27.203125 
z
" id="DejaVuSans-8722"/>
       </defs>
       <use xlink:href="#DejaVuSans-8722"/>
       <use x="83.789062" xlink:href="#DejaVuSans-50"/>
       <use x="147.412109" xlink:href="#DejaVuSans-48"/>
       <use x="211.035156" xlink:href="#DejaVuSans-48"/>
      </g>
     </g>
    </g>
    <g id="ytick_2">
     <g id="line2d_8"/>
     <g id="text_8">
      <!-- −100 -->
      <g style="opacity:0;" transform="translate(0 284.375993)scale(0.1 -0.1)">
       <use xlink:href="#DejaVuSans-8722"/>
       <use x="83.789062" xlink:href="#DejaVuSans-49"/>
       <use x="147.412109" xlink:href="#DejaVuSans-48"/>
       <use x="211.035156" xlink:href="#DejaVuSans-48"/>
      </g>
     </g>
    </g>
    <g id="ytick_3">
     <g id="line2d_9"/>
     <g id="text_9">
      <!-- 0 -->
      <g style="opacity:0;" transform="translate(21.104688 233.494912)scale(0.1 -0.1)">
       <use xlink:href="#DejaVuSans-48"/>
      </g>
     </g>
    </g>
    <g id="ytick_4">
     <g id="line2d_10"/>
     <g id="text_10">
      <!-- 100 -->
      <g style="opacity:0;" transform="translate(8.379688 182.613831)scale(0.1 -0.1)">
       <use xlink:href="#DejaVuSans-49"/>
       <use x="63.623047" xlink:href="#DejaVuSans-48"/>
       <use x="127.246094" xlink:href="#DejaVuSans-48"/>
      </g>
     </g>
    </g>
    <g id="ytick_5">
     <g id="line2d_11"/>
     <g id="text_11">
      <!-- 200 -->
      <g style="opacity:0;" transform="translate(8.379688 131.732751)scale(0.1 -0.1)">
       <use xlink:href="#DejaVuSans-50"/>
       <use x="63.623047" xlink:href="#DejaVuSans-48"/>
       <use x="127.246094" xlink:href="#DejaVuSans-48"/>
      </g>
     </g>
    </g>
    <g id="ytick_6">
     <g id="line2d_12"/>
     <g id="text_12">
      <!-- 300 -->
      <g style="opacity:0;" transform="translate(8.379688 80.85167)scale(0.1 -0.1)">
       <defs>
        <path d="M 40.578125 39.3125 
Q 47.65625 37.796875 51.625 33 
Q 55.609375 28.21875 55.609375 21.1875 
Q 55.609375 10.40625 48.1875 4.484375 
Q 40.765625 -1.421875 27.09375 -1.421875 
Q 22.515625 -1.421875 17.65625 -0.515625 
Q 12.796875 0.390625 7.625 2.203125 
L 7.625 11.71875 
Q 11.71875 9.328125 16.59375 8.109375 
Q 21.484375 6.890625 26.8125 6.890625 
Q 36.078125 6.890625 40.9375 10.546875 
Q 45.796875 14.203125 45.796875 21.1875 
Q 45.796875 27.640625 41.28125 31.265625 
Q 36.765625 34.90625 28.71875 34.90625 
L 20.21875 34.90625 
L 20.21875 43.015625 
L 29.109375 43.015625 
Q 36.375 43.015625 40.234375 45.921875 
Q 44.09375 48.828125 44.09375 54.296875 
Q 44.09375 59.90625 40.109375 62.90625 
Q 36.140625 65.921875 28.71875 65.921875 
Q 24.65625 65.921875 20.015625 65.03125 
Q 15.375 64.15625 9.8125 62.3125 
L 9.8125 71.09375 
Q 15.4375 72.65625 20.34375 73.4375 
Q 25.25 74.21875 29.59375 74.21875 
Q 40.828125 74.21875 47.359375 69.109375 
Q 53.90625 64.015625 53.90625 55.328125 
Q 53.90625 49.265625 50.4375 45.09375 
Q 46.96875 40.921875 40.578125 39.3125 
z
" id="DejaVuSans-51"/>
       </defs>
       <use xlink:href="#DejaVuSans-51"/>
       <use x="63.623047" xlink:href="#DejaVuSans-48"/>
       <use x="127.246094" xlink:href="#DejaVuSans-48"/>
      </g>
     </g>
    </g>
    <g id="ytick_7">
     <g id="line2d_13"/>
     <g id="text_13">
      <!-- 400 -->
      <g style="opacity:0;" transform="translate(8.379688 29.970589)scale(0.1 -0.1)">
       <defs>
        <path d="M 37.796875 64.3125 
L 12.890625 25.390625 
L 37.796875 25.390625 
z
M 35.203125 72.90625 
L 47.609375 72.90625 
L 47.609375 25.390625 
L 58.015625 25.390625 
L 58.015625 17.1875 
L 47.609375 17.1875 
L 47.609375 0 
L 37.796875 0 
L 37.796875 17.1875 
L 4.890625 17.1875 
L 4.890625 26.703125 
z
" id="DejaVuSans-52"/>
       </defs>
       <use xlink:href="#DejaVuSans-52"/>
       <use x="63.623047" xlink:href="#DejaVuSans-48"/>
       <use x="127.246094" xlink:href="#DejaVuSans-48"/>
      </g>
     </g>
    </g>
   </g>
   <g id="line2d_14">
    <path clip-path="url(#p9c11097501)" d="M 53.79446 221.70024 
L 55.704692 220.778275 
L 57.614924 220.195687 
L 59.525156 221.734839 
L 61.435388 219.9077 
L 63.34562 222.065058 
L 65.255852 221.638165 
L 67.166084 220.352909 
L 69.076316 221.572529 
L 70.986548 220.317801 
L 72.896781 221.53335 
L 74.807013 222.311831 
L 78.627477 222.892893 
L 80.537709 223.049098 
L 84.358173 222.160205 
L 86.268405 221.413271 
L 88.178637 221.730769 
L 90.088869 220.300502 
L 91.999101 220.731464 
L 93.909333 221.400042 
L 95.819565 222.763655 
L 97.729797 223.97666 
L 99.640029 222.003491 
L 101.550261 222.913245 
L 103.460493 223.110155 
L 105.370725 223.542644 
L 107.280957 223.845387 
L 109.191189 224.0194 
L 111.101421 222.860329 
L 113.011653 224.588759 
L 114.921885 225.361134 
L 116.832117 221.873745 
L 118.742349 224.317054 
L 120.652581 222.966161 
L 122.562813 222.607959 
L 124.473045 223.095399 
L 126.383277 223.878968 
L 128.293509 224.07486 
L 130.203741 224.619288 
L 132.113973 226.555313 
L 134.024205 226.878917 
L 135.934437 228.716741 
L 137.844669 227.273754 
L 139.754901 228.666369 
L 141.665133 228.854629 
L 143.575366 227.878221 
L 145.485598 227.628904 
L 147.39583 229.253537 
L 149.306062 228.086833 
L 151.216294 228.004406 
L 153.126526 228.303587 
L 155.036758 229.777612 
L 156.94699 230.057458 
L 158.857222 229.566455 
L 160.767454 228.508638 
L 162.677686 229.21792 
L 164.587918 229.095296 
L 166.49815 230.157693 
L 168.408382 229.298821 
L 170.318614 230.176519 
L 172.228846 230.290493 
L 174.139078 231.55845 
L 176.04931 229.339526 
L 177.959542 230.016753 
L 179.869774 229.834599 
L 181.780006 229.980627 
L 185.60047 229.636671 
L 187.510702 229.894129 
L 189.420934 230.268105 
L 191.331166 232.037749 
L 193.241398 231.581346 
L 195.15163 232.425972 
L 197.061862 232.047926 
L 198.972094 231.520289 
L 200.882326 231.752815 
L 202.792558 231.213476 
L 204.70279 231.117819 
L 206.613022 231.37426 
L 208.523254 231.90495 
L 210.433486 230.225874 
L 212.343719 232.089648 
L 214.253951 230.363253 
L 216.164183 229.971469 
L 218.074415 228.615997 
L 219.984647 229.063241 
L 221.894879 228.769149 
L 223.805111 229.172636 
L 225.715343 229.130913 
L 227.625575 228.389576 
L 229.535807 228.07971 
L 231.446039 227.133831 
L 233.356271 225.563641 
L 235.266503 222.86847 
L 237.176735 222.107798 
L 239.086967 222.343886 
L 240.997199 220.987905 
L 242.907431 222.72295 
L 244.817663 221.665641 
L 248.638127 222.180049 
L 250.548359 220.090363 
L 252.458591 219.072232 
L 254.368823 216.143009 
L 256.279055 215.468834 
L 258.189287 215.113175 
L 260.099519 213.439188 
L 262.009751 210.936856 
L 265.830215 206.615526 
L 267.740447 208.088025 
L 269.650679 205.36894 
L 271.560911 204.772105 
L 275.381375 210.881905 
L 277.291607 211.949899 
L 279.201839 212.356947 
L 281.112071 212.624073 
L 283.022304 213.728192 
L 284.932536 213.238208 
L 286.842768 212.547751 
L 288.753 211.373416 
L 290.663232 212.675972 
L 292.573464 212.158002 
L 294.483696 215.928799 
L 298.30416 222.347956 
L 300.214392 228.0156 
L 302.124624 226.123333 
L 304.034856 230.80541 
L 305.945088 223.064871 
L 307.85532 231.092379 
L 309.765552 224.641675 
L 311.675784 221.701258 
L 313.586016 221.461608 
L 315.496248 218.518137 
L 317.40648 212.867793 
L 319.316712 210.864605 
L 321.226944 208.556131 
L 323.137176 209.98131 
L 325.047408 213.186818 
L 326.95764 198.486765 
L 328.867872 240.441777 
L 330.778104 222.247212 
L 332.688336 208.254406 
L 334.598568 224.338424 
L 336.5088 223.980221 
L 338.419032 222.306234 
L 342.239496 224.286525 
L 344.149728 228.887193 
L 346.05996 228.300025 
L 347.970192 230.34748 
L 349.880424 229.869706 
L 351.790656 232.670201 
L 353.700889 233.641012 
L 355.611121 238.213186 
L 357.521353 243.132878 
L 359.431585 245.708987 
L 361.341817 247.343287 
L 363.252049 248.699777 
L 365.162281 248.022041 
L 367.072513 246.398934 
L 368.982745 242.409349 
L 370.892977 237.692164 
L 372.803209 237.040377 
L 374.713441 231.684126 
L 376.623673 230.543372 
L 378.533905 227.247804 
L 380.444137 229.665165 
L 382.354369 229.618863 
L 384.264601 225.553973 
L 386.174833 231.903932 
L 388.085065 229.263713 
L 391.905529 228.88821 
L 393.815761 225.841451 
L 395.725993 225.21307 
L 397.636225 221.020978 
L 399.546457 219.726563 
L 401.456689 215.5304 
L 403.366921 213.000084 
L 405.277153 223.825034 
L 407.187385 203.694952 
L 409.097617 211.428876 
L 411.007849 213.074879 
L 412.918081 213.310968 
L 414.828313 217.298518 
L 416.738545 218.907378 
L 418.648777 221.4092 
L 420.559009 223.110155 
L 422.469242 223.785347 
L 424.379474 227.084985 
L 426.289706 228.482179 
L 428.199938 231.106626 
L 430.11017 233.26093 
L 432.020402 235.890974 
L 433.930634 235.144039 
L 435.840866 239.608345 
L 437.751098 238.97742 
L 439.66133 237.029692 
L 441.571562 238.581056 
L 443.481794 238.851744 
L 445.392026 241.743824 
L 447.302258 241.170394 
L 449.21249 240.312539 
L 451.122722 240.834579 
L 453.032954 237.490166 
L 454.943186 237.937411 
L 456.853418 238.905169 
L 458.76365 233.319444 
L 460.673882 231.70804 
L 462.584114 230.610535 
L 464.494346 226.991364 
L 466.404578 228.315798 
L 468.31481 224.881834 
L 470.225042 223.12491 
L 472.135274 222.311831 
L 474.045506 218.299349 
L 475.955738 215.08977 
L 477.86597 215.587896 
L 479.776202 218.505926 
L 481.686434 200.401929 
L 483.596666 203.757536 
L 485.506898 203.030954 
L 487.41713 204.543649 
L 489.327362 201.805229 
L 491.237594 196.834656 
L 493.147827 200.257935 
L 495.058059 196.742561 
L 496.968291 207.215414 
L 498.878523 188.624994 
L 500.788755 198.253221 
L 502.698987 202.699718 
L 504.609219 201.531997 
L 506.519451 202.317093 
L 508.429683 204.984279 
L 510.339915 204.176796 
L 510.339915 204.176796 
" style="fill:none;stroke:#1f77b4;stroke-linecap:square;stroke-width:1.5;"/>
   </g>
   <g id="line2d_15">
    <path clip-path="url(#p9c11097501)" d="M 53.79446 231.055744 
L 55.704692 230.596288 
L 57.614924 230.689401 
L 59.525156 231.956848 
L 61.435388 230.440592 
L 63.34562 230.801339 
L 65.255852 230.689401 
L 67.166084 231.410386 
L 69.076316 231.235863 
L 70.986548 229.819843 
L 72.896781 229.763874 
L 74.807013 229.515574 
L 76.717245 228.801204 
L 78.627477 229.46622 
L 80.537709 229.695693 
L 82.447941 230.180081 
L 84.358173 228.496935 
L 86.268405 229.757768 
L 88.178637 229.496748 
L 90.088869 228.509655 
L 91.999101 228.62719 
L 93.909333 228.94418 
L 95.819565 228.919248 
L 97.729797 229.031186 
L 99.640029 228.950285 
L 101.550261 229.447394 
L 103.460493 228.105659 
L 105.370725 228.664842 
L 109.191189 228.994043 
L 111.101421 228.689265 
L 113.011653 229.602581 
L 114.921885 230.894451 
L 120.652581 229.863092 
L 122.562813 229.105981 
L 124.473045 228.919248 
L 126.383277 230.48435 
L 128.293509 230.633431 
L 130.203741 229.161442 
L 132.113973 230.310845 
L 134.024205 229.13651 
L 135.934437 228.94418 
L 137.844669 228.994043 
L 139.754901 228.639911 
L 141.665133 229.52168 
L 143.575366 230.602394 
L 145.485598 230.024894 
L 147.39583 230.16787 
L 149.306062 230.689401 
L 151.216294 230.434995 
L 153.126526 231.260795 
L 155.036758 230.509282 
L 156.94699 230.708227 
L 158.857222 230.565251 
L 160.767454 230.546425 
L 162.677686 229.161442 
L 164.587918 229.230131 
L 166.49815 229.96231 
L 168.408382 229.851389 
L 170.318614 230.1119 
L 172.228846 231.509095 
L 177.959542 232.54656 
L 179.869774 232.875761 
L 181.780006 232.192428 
L 185.60047 231.266901 
L 187.510702 231.453635 
L 189.420934 232.484485 
L 191.331166 231.658176 
L 193.241398 232.155285 
L 195.15163 232.025029 
L 198.972094 231.534535 
L 204.70279 231.621033 
L 206.613022 232.726679 
L 208.523254 232.105421 
L 210.433486 232.664604 
L 212.343719 232.534349 
L 214.253951 233.26093 
L 216.164183 233.173924 
L 218.074415 234.204775 
L 219.984647 235.875709 
L 221.894879 237.751186 
L 223.805111 240.223498 
L 225.715343 240.161423 
L 227.625575 242.689195 
L 229.535807 243.000078 
L 231.446039 242.894245 
L 233.356271 243.564858 
L 235.266503 241.5403 
L 237.176735 244.142358 
L 239.086967 242.50297 
L 240.997199 246.291575 
L 242.907431 246.590247 
L 244.817663 247.068021 
L 246.727895 248.769484 
L 248.638127 249.173988 
L 250.548359 247.446576 
L 252.458591 247.148921 
L 254.368823 249.782526 
L 256.279055 250.701439 
L 258.189287 250.304057 
L 260.099519 250.769619 
L 262.009751 254.440689 
L 263.919983 254.546013 
L 265.830215 253.304006 
L 267.740447 251.589822 
L 269.650679 251.48399 
L 271.560911 251.037254 
L 273.471143 251.788258 
L 275.381375 253.086744 
L 277.291607 255.229346 
L 279.201839 258.341233 
L 281.112071 266.887219 
L 283.022304 267.776112 
L 284.932536 271.222796 
L 286.842768 271.570823 
L 288.753 269.210449 
L 290.663232 276.893492 
L 292.573464 274.396758 
L 294.483696 280.930906 
L 296.393928 283.315702 
L 298.30416 290.912248 
L 300.214392 297.340563 
L 302.124624 283.92424 
L 304.034856 296.651125 
L 305.945088 277.290874 
L 307.85532 295.632486 
L 309.765552 286.465241 
L 311.675784 287.905685 
L 313.586016 291.700904 
L 315.496248 296.756449 
L 317.40648 302.135596 
L 319.316712 300.89308 
L 321.226944 298.476738 
L 323.137176 297.831566 
L 325.047408 301.147486 
L 326.95764 305.172688 
L 328.867872 298.328165 
L 330.778104 306.228471 
L 332.688336 313.296361 
L 334.598568 312.886769 
L 336.5088 315.514268 
L 338.419032 317.52 
L 340.329264 307.166718 
L 342.239496 314.520051 
L 344.149728 310.632228 
L 346.05996 305.38995 
L 347.970192 305.905376 
L 349.880424 283.198167 
L 351.790656 281.278424 
L 353.700889 275.229172 
L 355.611121 261.918682 
L 357.521353 247.217102 
L 359.431585 251.043359 
L 361.341817 257.639074 
L 363.252049 248.80103 
L 365.162281 247.763565 
L 367.072513 245.782256 
L 368.982745 251.434635 
L 370.892977 242.720232 
L 372.803209 247.148921 
L 374.713441 245.856542 
L 376.623673 243.925605 
L 378.533905 243.216832 
L 380.444137 241.260963 
L 382.354369 237.614825 
L 384.264601 237.484569 
L 386.174833 238.204536 
L 389.995297 236.291916 
L 391.905529 235.931678 
L 393.815761 235.751559 
L 395.725993 233.919332 
L 397.636225 233.682735 
L 399.546457 231.857121 
L 401.456689 231.230267 
L 403.366921 230.720438 
L 405.277153 233.788567 
L 407.187385 227.229996 
L 409.097617 222.913245 
L 411.007849 226.70185 
L 412.918081 226.919621 
L 414.828313 231.981271 
L 416.738545 225.938125 
L 418.648777 225.559061 
L 420.559009 226.11163 
L 422.469242 220.670916 
L 424.379474 223.894741 
L 426.289706 226.049555 
L 428.199938 231.931917 
L 430.11017 227.509333 
L 432.020402 227.838534 
L 433.930634 223.49736 
L 435.840866 234.173737 
L 437.751098 229.620898 
L 439.66133 229.224026 
L 441.571562 224.478347 
L 443.481794 231.173789 
L 445.392026 237.403668 
L 447.302258 231.96906 
L 449.21249 233.422224 
L 451.122722 234.08673 
L 453.032954 227.304791 
L 454.943186 235.359775 
L 456.853418 241.006049 
L 458.76365 236.198804 
L 460.673882 237.1803 
L 462.584114 236.931492 
L 464.494346 231.925302 
L 466.404578 242.447001 
L 468.31481 230.528108 
L 470.225042 237.508992 
L 472.135274 238.590215 
L 474.045506 238.502699 
L 475.955738 240.664637 
L 477.86597 249.738768 
L 479.776202 241.813531 
L 481.686434 246.589738 
L 483.596666 239.260828 
L 485.506898 246.626882 
L 487.41713 247.59006 
L 489.327362 255.763597 
L 491.237594 249.483854 
L 493.147827 248.55273 
L 495.058059 248.944006 
L 496.968291 254.856388 
L 498.878523 243.000078 
L 500.788755 247.82564 
L 504.609219 249.856813 
L 506.519451 247.720316 
L 508.429683 250.502493 
L 510.339915 251.577611 
L 510.339915 251.577611 
" style="fill:none;stroke:#ff7f0e;stroke-linecap:square;stroke-width:1.5;"/>
   </g>
   <g id="line2d_16">
    <path clip-path="url(#p9c11097501)" d="M 53.79446 227.876186 
L 55.704692 228.842926 
L 57.614924 228.319869 
L 59.525156 226.371123 
L 63.34562 226.480009 
L 65.255852 226.290731 
L 67.166084 227.422326 
L 69.076316 228.780851 
L 70.986548 228.638384 
L 74.807013 227.73321 
L 76.717245 228.41756 
L 78.627477 228.000336 
L 80.537709 229.459605 
L 82.447941 228.537131 
L 84.358173 229.56849 
L 86.268405 230.217224 
L 88.178637 230.107321 
L 90.088869 229.186374 
L 91.999101 230.529634 
L 93.909333 229.599528 
L 95.819565 231.453126 
L 97.729797 229.48759 
L 99.640029 230.316951 
L 101.550261 231.652071 
L 103.460493 230.419222 
L 105.370725 231.275042 
L 107.280957 230.267088 
L 109.191189 232.063699 
L 111.101421 232.313525 
L 113.011653 230.728579 
L 116.832117 232.103895 
L 118.742349 231.945655 
L 120.652581 232.08863 
L 122.562813 230.370885 
L 124.473045 232.635093 
L 126.383277 232.31556 
L 128.293509 233.057406 
L 130.203741 234.035341 
L 132.113973 232.591844 
L 134.024205 232.67071 
L 135.934437 233.863362 
L 137.844669 232.49975 
L 139.754901 232.813686 
L 143.575366 233.963089 
L 145.485598 233.091496 
L 147.39583 231.284201 
L 149.306062 231.799626 
L 151.216294 231.897318 
L 153.126526 233.636942 
L 155.036758 232.577598 
L 156.94699 231.731445 
L 158.857222 232.209219 
L 160.767454 231.874421 
L 162.677686 232.656972 
L 164.587918 233.295021 
L 166.49815 232.754664 
L 168.408382 232.616267 
L 170.318614 234.48462 
L 172.228846 233.931543 
L 174.139078 234.94713 
L 176.04931 232.573018 
L 177.959542 235.428465 
L 179.869774 233.839957 
L 181.780006 234.743605 
L 183.690238 234.635228 
L 187.510702 233.437997 
L 189.420934 234.897266 
L 191.331166 234.164578 
L 193.241398 234.889634 
L 195.15163 233.753459 
L 197.061862 234.680004 
L 200.882326 234.329433 
L 202.792558 234.023129 
L 204.70279 234.739026 
L 206.613022 233.711228 
L 208.523254 233.170871 
L 210.433486 233.861327 
L 212.343719 234.178825 
L 214.253951 233.618116 
L 216.164183 233.526021 
L 218.074415 235.20357 
L 219.984647 233.597763 
L 221.894879 234.939497 
L 223.805111 235.99528 
L 225.715343 235.499698 
L 227.625575 234.478515 
L 229.535807 234.303993 
L 231.446039 231.484672 
L 235.266503 231.518762 
L 237.176735 228.501514 
L 239.086967 230.024894 
L 240.997199 231.020128 
L 242.907431 228.72997 
L 244.817663 227.687926 
L 246.727895 224.731226 
L 248.638127 223.075047 
L 250.548359 221.866621 
L 252.458591 218.253047 
L 254.368823 218.095316 
L 256.279055 216.692524 
L 258.189287 212.657146 
L 260.099519 213.544003 
L 262.009751 210.776581 
L 263.919983 212.522311 
L 265.830215 200.33273 
L 267.740447 193.933926 
L 269.650679 193.284683 
L 271.560911 190.328492 
L 273.471143 184.678148 
L 275.381375 181.28031 
L 277.291607 172.841174 
L 279.201839 168.973194 
L 281.112071 158.482533 
L 283.022304 151.251314 
L 288.753 137.270719 
L 290.663232 129.442665 
L 292.573464 128.883991 
L 294.483696 120.2627 
L 296.393928 112.570498 
L 298.30416 107.54243 
L 300.214392 99.336329 
L 302.124624 95.182398 
L 304.034856 88.965239 
L 305.945088 88.645706 
L 307.85532 83.811494 
L 309.765552 81.016596 
L 311.675784 83.386128 
L 313.586016 75.875572 
L 315.496248 76.5182 
L 317.40648 77.622319 
L 319.316712 75.943753 
L 321.226944 77.316524 
L 323.137176 76.076043 
L 325.047408 77.246308 
L 326.95764 75.006014 
L 328.867872 74.263659 
L 330.778104 86.715277 
L 332.688336 61.771845 
L 334.598568 58.746965 
L 336.5088 50.937737 
L 340.329264 41.511508 
L 342.239496 40.478113 
L 344.149728 23.41209 
L 346.05996 56.705107 
L 347.970192 36.298741 
L 349.880424 32.134125 
L 351.790656 31.518972 
L 353.700889 33.696174 
L 355.611121 15.12 
L 357.521353 50.256439 
L 359.431585 38.863656 
L 361.341817 42.441105 
L 363.252049 38.376216 
L 365.162281 79.580732 
L 367.072513 75.794671 
L 368.982745 87.679474 
L 370.892977 83.014188 
L 372.803209 125.887604 
L 374.713441 108.895358 
L 376.623673 137.962193 
L 378.533905 135.92695 
L 380.444137 147.108576 
L 382.354369 149.815958 
L 384.264601 146.043635 
L 388.085065 186.021918 
L 389.995297 180.219948 
L 391.905529 180.52727 
L 393.815761 216.067196 
L 395.725993 187.36874 
L 397.636225 243.157301 
L 399.546457 225.892332 
L 401.456689 226.094839 
L 403.366921 254.605035 
L 405.277153 234.197651 
L 407.187385 267.982689 
L 409.097617 260.575421 
L 411.007849 262.723111 
L 414.828313 270.46365 
L 416.738545 272.202766 
L 418.648777 295.376554 
L 420.559009 257.393827 
L 422.469242 274.453236 
L 424.379474 293.962568 
L 426.289706 270.518602 
L 428.199938 277.427235 
L 430.11017 276.057007 
L 432.020402 274.910148 
L 433.930634 273.322149 
L 435.840866 263.697484 
L 437.751098 243.186303 
L 439.66133 270.673789 
L 441.571562 263.549929 
L 443.481794 261.488736 
L 445.392026 278.021526 
L 447.302258 238.912801 
L 449.21249 256.01902 
L 451.122722 254.040255 
L 453.032954 267.254072 
L 454.943186 226.330927 
L 456.853418 248.928233 
L 458.76365 256.404699 
L 460.673882 247.339726 
L 462.584114 244.888275 
L 464.494346 258.424678 
L 466.404578 237.459637 
L 468.31481 241.563705 
L 470.225042 240.925148 
L 472.135274 225.428806 
L 474.045506 254.283467 
L 475.955738 231.641386 
L 477.86597 238.706224 
L 481.686434 238.229468 
L 483.596666 238.121091 
L 485.506898 238.646184 
L 487.41713 237.737448 
L 489.327362 246.797842 
L 491.237594 237.44997 
L 493.147827 236.839906 
L 495.058059 235.917941 
L 496.968291 237.653494 
L 498.878523 236.870943 
L 500.788755 236.78241 
L 502.698987 229.143125 
L 504.609219 246.16132 
L 506.519451 240.27794 
L 508.429683 240.200092 
L 510.339915 243.845722 
L 510.339915 243.845722 
" style="fill:none;stroke:#2ca02c;stroke-linecap:square;stroke-width:1.5;"/>
   </g>
   <g id="patch_3">
    <path d="M 30.967188 332.64 
L 30.967188 0 
" style="fill:none;stroke:#000000;stroke-linecap:square;stroke-linejoin:miter;stroke-width:0.8;"/>
   </g>
   <g id="patch_4">
    <path d="M 533.167188 332.64 
L 533.167188 0 
" style="fill:none;stroke:#000000;stroke-linecap:square;stroke-linejoin:miter;stroke-width:0.8;"/>
   </g>
   <g id="patch_5">
    <path d="M 30.967188 332.64 
L 533.167188 332.64 
" style="fill:none;stroke:#000000;stroke-linecap:square;stroke-linejoin:miter;stroke-width:0.8;"/>
   </g>
   <g id="patch_6">
    <path d="M 30.967188 0 
L 533.167188 0 
" style="fill:none;stroke:#000000;stroke-linecap:square;stroke-linejoin:miter;stroke-width:0.8;"/>
   </g>
  </g>
 </g>
 <defs>
  <clipPath id="p9c11097501">
   <rect height="332.64" width="502.2" x="30.967188" y="0"/>
  </clipPath>
 </defs>
</svg>
