<?xml version="1.0" encoding="utf-8" standalone="no"?>
<!DOCTYPE svg PUBLIC "-//W3C//DTD SVG 1.1//EN"
  "http://www.w3.org/Graphics/SVG/1.1/DTD/svg11.dtd">
<!-- Created with matplotlib (https://matplotlib.org/) -->
<svg height="345.818125pt" version="1.1" viewBox="0 0 540.896217 345.818125" width="540.896217pt" xmlns="http://www.w3.org/2000/svg" xmlns:xlink="http://www.w3.org/1999/xlink">
 <metadata>
  <rdf:RDF xmlns:cc="http://creativecommons.org/ns#" xmlns:dc="http://purl.org/dc/elements/1.1/" xmlns:rdf="http://www.w3.org/1999/02/22-rdf-syntax-ns#">
   <cc:Work>
    <dc:type rdf:resource="http://purl.org/dc/dcmitype/StillImage"/>
    <dc:date>2021-08-20T15:47:25.384842</dc:date>
    <dc:format>image/svg+xml</dc:format>
    <dc:creator>
     <cc:Agent>
      <dc:title>Matplotlib v3.3.4, https://matplotlib.org/</dc:title>
     </cc:Agent>
    </dc:creator>
   </cc:Work>
  </rdf:RDF>
 </metadata>
 <defs>
  <style type="text/css">*{stroke-linecap:butt;stroke-linejoin:round;}</style>
 </defs>
 <g id="figure_1">
  <g id="patch_1">
   <path d="M -0 345.818125 
L 540.896217 345.818125 
L 540.896217 0 
L -0 0 
z
" style="fill:#ffffff;"/>
  </g>
  <g id="axes_1">
   <g id="patch_2">
    <path d="M 30.967188 332.64 
L 533.167188 332.64 
L 533.167188 0 
L 30.967188 0 
z
" style="fill:#ffffff;"/>
   </g>
   <g id="matplotlib.axis_1">
    <g id="xtick_1">
     <g id="line2d_1"/>
     <g id="text_1">
      <!-- 0 -->
      <g style="opacity:0;" transform="translate(50.61321 343.738438)scale(0.1 -0.1)">
       <defs>
        <path d="M 31.78125 66.40625 
Q 24.171875 66.40625 20.328125 58.90625 
Q 16.5 51.421875 16.5 36.375 
Q 16.5 21.390625 20.328125 13.890625 
Q 24.171875 6.390625 31.78125 6.390625 
Q 39.453125 6.390625 43.28125 13.890625 
Q 47.125 21.390625 47.125 36.375 
Q 47.125 51.421875 43.28125 58.90625 
Q 39.453125 66.40625 31.78125 66.40625 
z
M 31.78125 74.21875 
Q 44.046875 74.21875 50.515625 64.515625 
Q 56.984375 54.828125 56.984375 36.375 
Q 56.984375 17.96875 50.515625 8.265625 
Q 44.046875 -1.421875 31.78125 -1.421875 
Q 19.53125 -1.421875 13.0625 8.265625 
Q 6.59375 17.96875 6.59375 36.375 
Q 6.59375 54.828125 13.0625 64.515625 
Q 19.53125 74.21875 31.78125 74.21875 
z
" id="DejaVuSans-48"/>
       </defs>
       <use xlink:href="#DejaVuSans-48"/>
      </g>
     </g>
    </g>
    <g id="xtick_2">
     <g id="line2d_2"/>
     <g id="text_2">
      <!-- 50 -->
      <g style="opacity:0;" transform="translate(142.943562 343.738438)scale(0.1 -0.1)">
       <defs>
        <path d="M 10.796875 72.90625 
L 49.515625 72.90625 
L 49.515625 64.59375 
L 19.828125 64.59375 
L 19.828125 46.734375 
Q 21.96875 47.46875 24.109375 47.828125 
Q 26.265625 48.1875 28.421875 48.1875 
Q 40.625 48.1875 47.75 41.5 
Q 54.890625 34.8125 54.890625 23.390625 
Q 54.890625 11.625 47.5625 5.09375 
Q 40.234375 -1.421875 26.90625 -1.421875 
Q 22.3125 -1.421875 17.546875 -0.640625 
Q 12.796875 0.140625 7.71875 1.703125 
L 7.71875 11.625 
Q 12.109375 9.234375 16.796875 8.0625 
Q 21.484375 6.890625 26.703125 6.890625 
Q 35.15625 6.890625 40.078125 11.328125 
Q 45.015625 15.765625 45.015625 23.390625 
Q 45.015625 31 40.078125 35.4375 
Q 35.15625 39.890625 26.703125 39.890625 
Q 22.75 39.890625 18.8125 39.015625 
Q 14.890625 38.140625 10.796875 36.28125 
z
" id="DejaVuSans-53"/>
       </defs>
       <use xlink:href="#DejaVuSans-53"/>
       <use x="63.623047" xlink:href="#DejaVuSans-48"/>
      </g>
     </g>
    </g>
    <g id="xtick_3">
     <g id="line2d_3"/>
     <g id="text_3">
      <!-- 100 -->
      <g style="opacity:0;" transform="translate(235.273913 343.738438)scale(0.1 -0.1)">
       <defs>
        <path d="M 12.40625 8.296875 
L 28.515625 8.296875 
L 28.515625 63.921875 
L 10.984375 60.40625 
L 10.984375 69.390625 
L 28.421875 72.90625 
L 38.28125 72.90625 
L 38.28125 8.296875 
L 54.390625 8.296875 
L 54.390625 0 
L 12.40625 0 
z
" id="DejaVuSans-49"/>
       </defs>
       <use xlink:href="#DejaVuSans-49"/>
       <use x="63.623047" xlink:href="#DejaVuSans-48"/>
       <use x="127.246094" xlink:href="#DejaVuSans-48"/>
      </g>
     </g>
    </g>
    <g id="xtick_4">
     <g id="line2d_4"/>
     <g id="text_4">
      <!-- 150 -->
      <g style="opacity:0;" transform="translate(330.785514 343.738438)scale(0.1 -0.1)">
       <use xlink:href="#DejaVuSans-49"/>
       <use x="63.623047" xlink:href="#DejaVuSans-53"/>
       <use x="127.246094" xlink:href="#DejaVuSans-48"/>
      </g>
     </g>
    </g>
    <g id="xtick_5">
     <g id="line2d_5"/>
     <g id="text_5">
      <!-- 200 -->
      <g style="opacity:0;" transform="translate(426.297116 343.738438)scale(0.1 -0.1)">
       <defs>
        <path d="M 19.1875 8.296875 
L 53.609375 8.296875 
L 53.609375 0 
L 7.328125 0 
L 7.328125 8.296875 
Q 12.9375 14.109375 22.625 23.890625 
Q 32.328125 33.6875 34.8125 36.53125 
Q 39.546875 41.84375 41.421875 45.53125 
Q 43.3125 49.21875 43.3125 52.78125 
Q 43.3125 58.59375 39.234375 62.25 
Q 35.15625 65.921875 28.609375 65.921875 
Q 23.96875 65.921875 18.8125 64.3125 
Q 13.671875 62.703125 7.8125 59.421875 
L 7.8125 69.390625 
Q 13.765625 71.78125 18.9375 73 
Q 24.125 74.21875 28.421875 74.21875 
Q 39.75 74.21875 46.484375 68.546875 
Q 53.21875 62.890625 53.21875 53.421875 
Q 53.21875 48.921875 51.53125 44.890625 
Q 49.859375 40.875 45.40625 35.40625 
Q 44.1875 33.984375 37.640625 27.21875 
Q 31.109375 20.453125 19.1875 8.296875 
z
" id="DejaVuSans-50"/>
       </defs>
       <use xlink:href="#DejaVuSans-50"/>
       <use x="63.623047" xlink:href="#DejaVuSans-48"/>
       <use x="127.246094" xlink:href="#DejaVuSans-48"/>
      </g>
     </g>
    </g>
    <g id="xtick_6">
     <g id="line2d_6"/>
     <g id="text_6">
      <!-- 250 -->
      <g style="opacity:0;" transform="translate(521.808717 343.738438)scale(0.1 -0.1)">
       <use xlink:href="#DejaVuSans-50"/>
       <use x="63.623047" xlink:href="#DejaVuSans-53"/>
       <use x="127.246094" xlink:href="#DejaVuSans-48"/>
      </g>
     </g>
    </g>
   </g>
   <g id="matplotlib.axis_2">
    <g id="ytick_1">
     <g id="line2d_7"/>
     <g id="text_7">
      <!-- −100 -->
      <g style="opacity:0;" transform="translate(0 313.060185)scale(0.1 -0.1)">
       <defs>
        <path d="M 10.59375 35.5 
L 73.1875 35.5 
L 73.1875 27.203125 
L 10.59375 27.203125 
z
" id="DejaVuSans-8722"/>
       </defs>
       <use xlink:href="#DejaVuSans-8722"/>
       <use x="83.789062" xlink:href="#DejaVuSans-49"/>
       <use x="147.412109" xlink:href="#DejaVuSans-48"/>
       <use x="211.035156" xlink:href="#DejaVuSans-48"/>
      </g>
     </g>
    </g>
    <g id="ytick_2">
     <g id="line2d_8"/>
     <g id="text_8">
      <!-- −50 -->
      <g style="opacity:0;" transform="translate(6.3625 245.540291)scale(0.1 -0.1)">
       <use xlink:href="#DejaVuSans-8722"/>
       <use x="83.789062" xlink:href="#DejaVuSans-53"/>
       <use x="147.412109" xlink:href="#DejaVuSans-48"/>
      </g>
     </g>
    </g>
    <g id="ytick_3">
     <g id="line2d_9"/>
     <g id="text_9">
      <!-- 0 -->
      <g style="opacity:0;" transform="translate(21.104688 178.020397)scale(0.1 -0.1)">
       <use xlink:href="#DejaVuSans-48"/>
      </g>
     </g>
    </g>
    <g id="ytick_4">
     <g id="line2d_10"/>
     <g id="text_10">
      <!-- 50 -->
      <g style="opacity:0;" transform="translate(14.742188 110.500503)scale(0.1 -0.1)">
       <use xlink:href="#DejaVuSans-53"/>
       <use x="63.623047" xlink:href="#DejaVuSans-48"/>
      </g>
     </g>
    </g>
    <g id="ytick_5">
     <g id="line2d_11"/>
     <g id="text_11">
      <!-- 100 -->
      <g style="opacity:0;" transform="translate(8.379688 42.980608)scale(0.1 -0.1)">
       <use xlink:href="#DejaVuSans-49"/>
       <use x="63.623047" xlink:href="#DejaVuSans-48"/>
       <use x="127.246094" xlink:href="#DejaVuSans-48"/>
      </g>
     </g>
    </g>
   </g>
   <g id="line2d_12">
    <path clip-path="url(#p9dbddc5d93)" d="M 53.79446 160.441718 
L 55.704692 156.270339 
L 57.614924 162.029786 
L 59.525156 156.287894 
L 61.435388 162.090554 
L 63.34562 152.57565 
L 65.255852 154.263648 
L 67.166084 158.281081 
L 69.076316 156.233878 
L 70.986548 157.098133 
L 72.896781 154.749791 
L 74.807013 151.99768 
L 76.717245 154.174521 
L 78.627477 153.095554 
L 80.537709 153.465563 
L 82.447941 150.188147 
L 84.358173 153.800461 
L 86.268405 148.181456 
L 88.178637 153.28866 
L 90.088869 158.958981 
L 93.909333 144.131612 
L 95.819565 150.797176 
L 97.729797 156.922581 
L 99.640029 150.64053 
L 101.550261 146.353017 
L 103.460493 151.641175 
L 105.370725 150.138182 
L 107.280957 154.244742 
L 109.191189 153.323771 
L 111.101421 149.504846 
L 114.921885 159.392459 
L 116.832117 149.950477 
L 118.742349 157.19131 
L 120.652581 153.204936 
L 122.562813 159.897508 
L 124.473045 155.580286 
L 126.383277 155.623498 
L 128.293509 155.897629 
L 130.203741 156.435087 
L 132.113973 159.054859 
L 134.024205 159.892106 
L 135.934437 161.307323 
L 137.844669 164.190423 
L 139.754901 163.047986 
L 141.665133 165.262638 
L 143.575366 161.928506 
L 145.485598 163.295109 
L 147.39583 163.088498 
L 149.306062 158.453932 
L 151.216294 161.94336 
L 153.126526 163.192478 
L 155.036758 164.175568 
L 156.94699 159.238513 
L 158.857222 163.023679 
L 160.767454 164.233635 
L 162.677686 166.107988 
L 164.587918 166.899321 
L 166.49815 165.927034 
L 168.408382 166.550918 
L 170.318614 166.31865 
L 172.228846 165.84331 
L 174.139078 167.401669 
L 176.04931 166.182259 
L 177.959542 166.026964 
L 179.869774 164.646857 
L 181.780006 170.059252 
L 183.690238 167.621784 
L 185.60047 172.807311 
L 187.510702 168.42392 
L 189.420934 169.417813 
L 191.331166 166.55902 
L 193.241398 165.493556 
L 195.15163 165.702868 
L 197.061862 166.803442 
L 198.972094 167.240971 
L 200.882326 167.457035 
L 202.792558 170.327981 
L 206.613022 171.756702 
L 208.523254 172.047037 
L 210.433486 167.13564 
L 212.343719 168.548157 
L 214.253951 170.440064 
L 216.164183 174.789696 
L 218.074415 171.34213 
L 219.984647 178.74096 
L 221.894879 173.574337 
L 223.805111 174.665459 
L 225.715343 166.482048 
L 227.625575 168.468483 
L 229.535807 164.035127 
L 231.446039 165.528667 
L 233.356271 168.748015 
L 235.266503 169.502888 
L 237.176735 171.44341 
L 239.086967 175.680958 
L 240.997199 177.025954 
L 242.907431 171.508229 
L 244.817663 169.602817 
L 246.727895 173.425794 
L 248.638127 174.604691 
L 250.548359 188.917558 
L 252.458591 198.161032 
L 254.368823 208.040543 
L 256.279055 208.826474 
L 258.189287 218.310319 
L 260.099519 220.628952 
L 262.009751 214.016053 
L 263.919983 209.679926 
L 265.830215 213.162602 
L 267.740447 214.811438 
L 269.650679 223.038062 
L 271.560911 236.038342 
L 273.471143 238.458255 
L 275.381375 249.619294 
L 277.291607 248.868472 
L 279.201839 245.288568 
L 281.112071 217.410954 
L 283.022304 218.167176 
L 284.932536 205.958229 
L 286.842768 202.069083 
L 288.753 208.626615 
L 290.663232 212.57923 
L 292.573464 213.051869 
L 294.483696 200.782154 
L 296.393928 214.927572 
L 298.30416 188.862192 
L 300.214392 194.751277 
L 302.124624 162.498374 
L 304.034856 156.790242 
L 305.945088 143.374039 
L 307.85532 140.952776 
L 309.765552 143.31057 
L 311.675784 149.3509 
L 313.586016 144.993166 
L 315.496248 140.008848 
L 317.40648 127.201674 
L 319.316712 125.631161 
L 321.226944 119.571926 
L 323.137176 92.595027 
L 325.047408 83.011254 
L 326.95764 76.356493 
L 328.867872 70.715881 
L 330.778104 69.119711 
L 332.688336 69.543736 
L 334.598568 76.780518 
L 336.5088 66.906408 
L 338.419032 75.439573 
L 340.329264 63.210369 
L 342.239496 60.913343 
L 344.149728 62.473052 
L 346.05996 52.369375 
L 347.970192 66.133981 
L 349.880424 56.931019 
L 351.790656 39.513587 
L 353.700889 30.374095 
L 355.611121 16.914679 
L 357.521353 15.12 
L 359.431585 23.000922 
L 361.341817 35.342208 
L 363.252049 60.864728 
L 365.162281 77.728497 
L 368.982745 116.729338 
L 370.892977 128.54532 
L 372.803209 131.505392 
L 374.713441 139.717162 
L 376.623673 143.384842 
L 378.533905 145.052584 
L 380.444137 150.841739 
L 382.354369 153.880135 
L 384.264601 159.481585 
L 386.174833 163.154667 
L 388.085065 162.673926 
L 389.995297 160.981877 
L 391.905529 157.76793 
L 393.815761 151.8964 
L 395.725993 144.058691 
L 397.636225 137.829305 
L 399.546457 127.127402 
L 401.456689 123.185591 
L 403.366921 115.630115 
L 405.277153 113.532947 
L 407.187385 117.493664 
L 409.097617 118.418686 
L 411.007849 131.282576 
L 412.918081 135.836118 
L 416.738545 161.962266 
L 418.648777 171.61491 
L 422.469242 185.710363 
L 424.379474 189.394249 
L 426.289706 195.268479 
L 428.199938 197.245462 
L 430.11017 201.862472 
L 432.020402 201.027926 
L 433.930634 206.12973 
L 435.840866 198.713344 
L 437.751098 202.506612 
L 439.66133 202.349966 
L 441.571562 199.664025 
L 443.481794 203.148051 
L 445.392026 200.539082 
L 447.302258 203.469446 
L 449.21249 203.511308 
L 451.122722 203.407328 
L 453.032954 205.098026 
L 454.943186 212.179512 
L 456.853418 208.525336 
L 458.76365 209.9311 
L 460.673882 210.282203 
L 462.584114 209.259952 
L 464.494346 209.339625 
L 466.404578 211.860818 
L 468.31481 208.195838 
L 470.225042 205.318141 
L 472.135274 205.844796 
L 474.045506 203.102138 
L 475.955738 202.740231 
L 477.86597 197.47638 
L 479.776202 196.308286 
L 481.686434 191.26455 
L 483.596666 192.363774 
L 485.506898 192.199025 
L 487.41713 191.376633 
L 489.327362 189.460418 
L 491.237594 187.039155 
L 493.147827 191.864126 
L 496.968291 186.939225 
L 498.878523 188.161335 
L 500.788755 190.292263 
L 502.698987 193.681762 
L 504.609219 197.700546 
L 506.519451 197.657333 
L 508.429683 206.3701 
L 510.339915 200.493169 
L 510.339915 200.493169 
" style="fill:none;stroke:#1f77b4;stroke-linecap:square;stroke-width:1.5;"/>
   </g>
   <g id="line2d_13">
    <path clip-path="url(#p9dbddc5d93)" d="M 53.79446 175.309599 
L 55.704692 176.677552 
L 57.614924 178.720704 
L 59.525156 181.194633 
L 61.435388 175.836254 
L 63.34562 189.815573 
L 65.255852 179.75916 
L 67.166084 180.419504 
L 69.076316 175.984798 
L 70.986548 176.858505 
L 72.896781 176.050967 
L 74.807013 177.436475 
L 76.717245 174.385927 
L 78.627477 176.776131 
L 80.537709 174.896377 
L 82.447941 174.007815 
L 84.358173 178.127879 
L 86.268405 172.80326 
L 88.178637 175.440587 
L 90.088869 169.95257 
L 91.999101 179.379698 
L 93.909333 182.283053 
L 95.819565 175.671505 
L 97.729797 174.106394 
L 99.640029 174.468301 
L 101.550261 174.237383 
L 103.460493 173.660763 
L 105.370725 175.506757 
L 107.280957 175.770084 
L 109.191189 176.727517 
L 111.101421 174.105044 
L 113.011653 173.496014 
L 114.921885 172.425149 
L 116.832117 172.654716 
L 118.742349 173.41364 
L 120.652581 171.369138 
L 122.562813 173.578389 
L 124.473045 173.578389 
L 126.383277 175.358213 
L 128.293509 172.738441 
L 130.203741 175.572926 
L 132.113973 174.912582 
L 134.024205 177.45268 
L 135.934437 177.320341 
L 137.844669 181.836072 
L 139.754901 181.029884 
L 141.665133 181.984615 
L 143.575366 180.650422 
L 145.485598 177.765972 
L 147.39583 179.479627 
L 149.306062 175.639096 
L 151.216294 177.171797 
L 153.126526 177.533704 
L 155.036758 178.392557 
L 156.94699 178.885452 
L 158.857222 178.127879 
L 160.767454 176.578973 
L 162.677686 177.270376 
L 164.587918 175.853809 
L 166.49815 173.396085 
L 168.408382 173.644558 
L 170.318614 176.479043 
L 172.228846 174.303552 
L 174.139078 171.814769 
L 176.04931 175.078681 
L 177.959542 176.545213 
L 179.869774 176.199511 
L 181.780006 178.244013 
L 183.690238 176.659997 
L 185.60047 178.770669 
L 187.510702 176.529008 
L 189.420934 178.507341 
L 191.331166 175.705265 
L 193.241398 179.083961 
L 195.15163 175.621541 
L 197.061862 175.293394 
L 198.972094 179.198745 
L 200.882326 180.766557 
L 202.792558 177.929371 
L 204.70279 179.925259 
L 206.613022 177.517499 
L 208.523254 181.144668 
L 210.433486 175.836254 
L 212.343719 178.458727 
L 214.253951 179.562002 
L 216.164183 184.30865 
L 218.074415 185.183708 
L 219.984647 189.683234 
L 221.894879 193.623695 
L 223.805111 192.402935 
L 225.715343 193.953192 
L 227.625575 195.650642 
L 229.535807 204.222968 
L 231.446039 209.613756 
L 233.356271 213.635241 
L 235.266503 220.705924 
L 237.176735 220.032076 
L 239.086967 220.558731 
L 240.997199 222.025263 
L 242.907431 221.300099 
L 244.817663 231.027015 
L 246.727895 238.427196 
L 248.638127 249.785392 
L 254.368823 263.023343 
L 256.279055 264.092858 
L 258.189287 255.439508 
L 260.099519 254.270064 
L 262.009751 249.966346 
L 263.919983 256.082298 
L 265.830215 270.127786 
L 267.740447 263.186741 
L 269.650679 265.429752 
L 271.560911 264.966566 
L 273.471143 252.538854 
L 275.381375 256.626508 
L 277.291607 245.384446 
L 279.201839 249.158808 
L 281.112071 243.059061 
L 283.022304 270.424874 
L 284.932536 275.599598 
L 286.842768 284.830918 
L 288.753 288.111035 
L 290.663232 284.452807 
L 292.573464 288.556666 
L 294.483696 285.226585 
L 296.393928 307.793084 
L 298.30416 253.643479 
L 300.214392 317.52 
L 302.124624 300.160635 
L 304.034856 291.820578 
L 305.945088 301.234202 
L 307.85532 290.616023 
L 309.765552 295.859618 
L 311.675784 289.018502 
L 313.586016 289.85845 
L 315.496248 276.704224 
L 317.40648 268.231828 
L 319.316712 261.770174 
L 321.226944 259.099087 
L 323.137176 256.839871 
L 325.047408 251.318094 
L 326.95764 253.527345 
L 328.867872 262.182045 
L 330.778104 265.990167 
L 332.688336 267.736232 
L 334.598568 269.023161 
L 336.5088 281.74796 
L 338.419032 283.282012 
L 340.329264 280.462381 
L 342.239496 274.034487 
L 344.149728 288.028661 
L 346.05996 257.58259 
L 347.970192 263.616168 
L 349.880424 263.582408 
L 351.790656 261.571665 
L 353.700889 268.396576 
L 355.611121 260.006554 
L 357.521353 260.927525 
L 359.431585 250.08248 
L 361.341817 236.81212 
L 363.252049 221.482403 
L 365.162281 240.125996 
L 367.072513 197.842338 
L 368.982745 103.322588 
L 370.892977 203.92588 
L 372.803209 152.577001 
L 374.713441 177.023254 
L 376.623673 174.963897 
L 378.533905 177.45133 
L 380.444137 262.479133 
L 382.354369 179.528242 
L 386.174833 185.314697 
L 388.085065 195.025408 
L 389.995297 199.31022 
L 391.905529 205.458582 
L 393.815761 209.547587 
L 395.725993 208.294417 
L 397.636225 206.480833 
L 399.546457 205.392412 
L 401.456689 198.898349 
L 403.366921 196.096273 
L 405.277153 190.68928 
L 407.187385 181.771253 
L 409.097617 174.880172 
L 411.007849 172.441354 
L 412.918081 168.83039 
L 414.828313 160.868444 
L 416.738545 160.737455 
L 418.648777 154.308211 
L 420.559009 154.571538 
L 422.469242 155.362872 
L 424.379474 155.214328 
L 426.289706 158.859052 
L 428.199938 164.033776 
L 430.11017 165.994554 
L 432.020402 164.298454 
L 433.930634 165.33556 
L 435.840866 169.243611 
L 437.751098 164.857519 
L 439.66133 167.363858 
L 441.571562 165.895975 
L 443.481794 165.94594 
L 445.392026 162.633414 
L 447.302258 162.467315 
L 449.21249 157.736871 
L 451.122722 155.083339 
L 453.032954 159.137234 
L 454.943186 160.588911 
L 456.853418 157.176456 
L 458.76365 163.077695 
L 460.673882 162.418701 
L 462.584114 172.588547 
L 466.404578 177.633633 
L 468.31481 177.780827 
L 470.225042 184.689462 
L 472.135274 183.683416 
L 474.045506 187.606322 
L 475.955738 192.535274 
L 477.86597 191.480613 
L 479.776202 192.600093 
L 481.686434 188.662333 
L 483.596666 189.798018 
L 485.506898 188.134327 
L 487.41713 183.205375 
L 489.327362 177.649838 
L 491.237594 175.770084 
L 493.147827 172.013277 
L 495.058059 166.307846 
L 496.968291 163.539531 
L 498.878523 161.858285 
L 500.788755 157.407374 
L 502.698987 155.955696 
L 504.609219 158.331046 
L 506.519451 152.626965 
L 508.429683 164.230934 
L 510.339915 157.93538 
L 510.339915 157.93538 
" style="fill:none;stroke:#ff7f0e;stroke-linecap:square;stroke-width:1.5;"/>
   </g>
   <g id="line2d_14">
    <path clip-path="url(#p9dbddc5d93)" d="M 53.79446 173.026076 
L 55.704692 172.209085 
L 57.614924 168.107927 
L 59.525156 171.911998 
L 61.435388 171.98762 
L 63.34562 169.656833 
L 65.255852 174.538522 
L 67.166084 169.019445 
L 69.076316 173.098997 
L 70.986548 173.202978 
L 72.896781 172.385987 
L 74.807013 170.210496 
L 76.717245 174.377824 
L 78.627477 170.791167 
L 80.537709 172.862678 
L 82.447941 161.538241 
L 84.358173 175.603985 
L 86.268405 170.485977 
L 88.178637 184.434237 
L 90.088869 164.424041 
L 91.999101 174.93959 
L 93.909333 171.487973 
L 95.819565 176.376413 
L 99.640029 172.797859 
L 103.460493 174.959846 
L 105.370725 176.164401 
L 107.280957 177.508046 
L 109.191189 173.555432 
L 111.101421 174.338663 
L 113.011653 174.060481 
L 114.921885 175.814648 
L 116.832117 177.328444 
L 118.742349 173.868724 
L 120.652581 176.651894 
L 122.562813 179.160933 
L 124.473045 177.355452 
L 126.383277 177.047561 
L 128.293509 179.859089 
L 130.203741 180.125118 
L 132.113973 179.198745 
L 134.024205 184.134449 
L 135.934437 179.270316 
L 137.844669 179.675435 
L 139.754901 193.103792 
L 141.665133 179.07991 
L 143.575366 173.551381 
L 145.485598 178.081966 
L 147.39583 178.010394 
L 149.306062 190.868883 
L 151.216294 177.243368 
L 153.126526 180.770608 
L 155.036758 177.948276 
L 156.94699 178.618074 
L 158.857222 178.323687 
L 160.767454 178.229159 
L 162.677686 180.091358 
L 164.587918 181.713185 
L 166.49815 179.032646 
L 168.408382 183.733381 
L 170.318614 182.088596 
L 172.228846 184.620592 
L 174.139078 182.798905 
L 176.04931 185.469992 
L 177.959542 184.080433 
L 179.869774 185.744123 
L 181.780006 176.53711 
L 183.690238 185.113487 
L 185.60047 185.168854 
L 187.510702 189.05935 
L 189.420934 185.694158 
L 191.331166 188.089764 
L 193.241398 184.565226 
L 195.15163 184.721872 
L 197.061862 186.580019 
L 200.882326 184.381572 
L 202.792558 186.289684 
L 204.70279 184.766435 
L 206.613022 187.555007 
L 208.523254 189.463119 
L 210.433486 195.018656 
L 212.343719 187.575263 
L 214.253951 192.104497 
L 216.164183 187.750814 
L 218.074415 195.082125 
L 219.984647 192.292203 
L 221.894879 193.593986 
L 223.805111 199.073901 
L 225.715343 198.373044 
L 227.625575 190.059995 
L 229.535807 199.943557 
L 231.446039 200.418897 
L 233.356271 199.600556 
L 235.266503 205.638185 
L 237.176735 208.749502 
L 239.086967 207.242458 
L 240.997199 211.520518 
L 242.907431 207.686738 
L 244.817663 211.15456 
L 246.727895 209.505724 
L 248.638127 202.83746 
L 250.548359 212.325355 
L 252.458591 214.556212 
L 254.368823 212.810148 
L 256.279055 219.559437 
L 258.189287 216.630424 
L 260.099519 217.072004 
L 262.009751 214.172699 
L 263.919983 208.139122 
L 265.830215 223.765926 
L 267.740447 216.340088 
L 269.650679 217.550045 
L 271.560911 218.286011 
L 273.471143 226.877243 
L 277.291607 218.660072 
L 279.201839 216.968023 
L 281.112071 209.817666 
L 283.022304 210.523924 
L 284.932536 206.244513 
L 286.842768 206.983181 
L 288.753 204.715863 
L 290.663232 205.565263 
L 292.573464 203.476198 
L 294.483696 207.235706 
L 296.393928 200.466161 
L 298.30416 199.221094 
L 300.214392 191.765547 
L 302.124624 187.785925 
L 304.034856 182.482912 
L 305.945088 181.101455 
L 307.85532 176.404771 
L 309.765552 177.131285 
L 311.675784 176.947631 
L 313.586016 177.150191 
L 315.496248 180.350634 
L 317.40648 181.778005 
L 319.316712 182.578791 
L 321.226944 183.609144 
L 323.137176 177.318991 
L 325.047408 172.411645 
L 326.95764 168.318589 
L 328.867872 163.524676 
L 330.778104 165.512462 
L 332.688336 159.026501 
L 334.598568 163.107403 
L 336.5088 164.877775 
L 338.419032 161.355937 
L 340.329264 177.455381 
L 342.239496 165.976999 
L 344.149728 174.993606 
L 347.970192 166.603584 
L 349.880424 172.132112 
L 351.790656 174.796448 
L 353.700889 165.203221 
L 357.521353 162.599654 
L 359.431585 158.44718 
L 361.341817 154.822712 
L 363.252049 156.938786 
L 365.162281 165.693415 
L 367.072513 166.993849 
L 368.982745 176.778832 
L 370.892977 180.767907 
L 372.803209 187.572562 
L 374.713441 187.749464 
L 376.623673 196.080069 
L 378.533905 198.217748 
L 380.444137 196.174596 
L 382.354369 197.144182 
L 386.174833 202.53497 
L 388.085065 204.260779 
L 389.995297 207.48823 
L 391.905529 209.571894 
L 393.815761 207.674585 
L 395.725993 206.312033 
L 399.546457 210.826413 
L 401.456689 207.584108 
L 403.366921 209.069546 
L 405.277153 206.433569 
L 407.187385 203.122394 
L 409.097617 198.66338 
L 411.007849 199.705887 
L 412.918081 197.294076 
L 414.828313 194.350209 
L 416.738545 208.058098 
L 418.648777 206.671239 
L 420.559009 212.531966 
L 422.469242 208.465918 
L 424.379474 217.072004 
L 426.289706 206.895405 
L 428.199938 192.231435 
L 430.11017 207.576006 
L 432.020402 216.269867 
L 433.930634 197.411561 
L 435.840866 206.858945 
L 437.751098 207.381548 
L 439.66133 207.274867 
L 441.571562 209.065495 
L 443.481794 206.733358 
L 445.392026 217.914652 
L 447.302258 208.831876 
L 449.21249 211.859468 
L 451.122722 203.95829 
L 453.032954 230.900078 
L 454.943186 218.95986 
L 456.853418 224.76387 
L 458.76365 223.693005 
L 460.673882 227.197287 
L 462.584114 233.924969 
L 464.494346 238.706728 
L 466.404578 236.286815 
L 468.31481 240.577029 
L 470.225042 239.106446 
L 472.135274 247.206133 
L 474.045506 246.171728 
L 475.955738 252.18505 
L 477.86597 254.49288 
L 479.776202 261.550059 
L 483.596666 269.753726 
L 485.506898 275.351125 
L 487.41713 274.288362 
L 489.327362 280.277377 
L 491.237594 286.930787 
L 493.147827 286.761987 
L 495.058059 290.349995 
L 496.968291 295.107446 
L 498.878523 297.975691 
L 500.788755 302.414449 
L 502.698987 302.394193 
L 504.609219 304.700673 
L 506.519451 305.182765 
L 508.429683 314.061631 
L 510.339915 310.724798 
L 510.339915 310.724798 
" style="fill:none;stroke:#2ca02c;stroke-linecap:square;stroke-width:1.5;"/>
   </g>
   <g id="patch_3">
    <path d="M 30.967188 332.64 
L 30.967188 0 
" style="fill:none;stroke:#000000;stroke-linecap:square;stroke-linejoin:miter;stroke-width:0.8;"/>
   </g>
   <g id="patch_4">
    <path d="M 533.167188 332.64 
L 533.167188 0 
" style="fill:none;stroke:#000000;stroke-linecap:square;stroke-linejoin:miter;stroke-width:0.8;"/>
   </g>
   <g id="patch_5">
    <path d="M 30.967188 332.64 
L 533.167188 332.64 
" style="fill:none;stroke:#000000;stroke-linecap:square;stroke-linejoin:miter;stroke-width:0.8;"/>
   </g>
   <g id="patch_6">
    <path d="M 30.967188 0 
L 533.167188 0 
" style="fill:none;stroke:#000000;stroke-linecap:square;stroke-linejoin:miter;stroke-width:0.8;"/>
   </g>
  </g>
 </g>
 <defs>
  <clipPath id="p9dbddc5d93">
   <rect height="332.64" width="502.2" x="30.967188" y="0"/>
  </clipPath>
 </defs>
</svg>
