<?xml version="1.0" encoding="utf-8" standalone="no"?>
<!DOCTYPE svg PUBLIC "-//W3C//DTD SVG 1.1//EN"
  "http://www.w3.org/Graphics/SVG/1.1/DTD/svg11.dtd">
<!-- Created with matplotlib (https://matplotlib.org/) -->
<svg height="179.498125pt" version="1.1" viewBox="0 0 920.582812 179.498125" width="920.582812pt" xmlns="http://www.w3.org/2000/svg" xmlns:xlink="http://www.w3.org/1999/xlink">
 <metadata>
  <rdf:RDF xmlns:cc="http://creativecommons.org/ns#" xmlns:dc="http://purl.org/dc/elements/1.1/" xmlns:rdf="http://www.w3.org/1999/02/22-rdf-syntax-ns#">
   <cc:Work>
    <dc:type rdf:resource="http://purl.org/dc/dcmitype/StillImage"/>
    <dc:date>2021-09-06T23:30:20.819407</dc:date>
    <dc:format>image/svg+xml</dc:format>
    <dc:creator>
     <cc:Agent>
      <dc:title>Matplotlib v3.3.4, https://matplotlib.org/</dc:title>
     </cc:Agent>
    </dc:creator>
   </cc:Work>
  </rdf:RDF>
 </metadata>
 <defs>
  <style type="text/css">*{stroke-linecap:butt;stroke-linejoin:round;}</style>
 </defs>
 <g id="figure_1">
  <g id="patch_1">
   <path d="M 0 179.498125 
L 920.582812 179.498125 
L 920.582812 0 
L 0 0 
z
" style="fill:#ffffff;"/>
  </g>
  <g id="axes_1">
   <g id="patch_2">
    <path d="M 27.782813 166.32 
L 920.582812 166.32 
L 920.582812 0 
L 27.782813 0 
z
" style="fill:#ffffff;"/>
   </g>
   <g id="matplotlib.axis_1">
    <g id="xtick_1">
     <g id="line2d_1"/>
     <g id="text_1">
      <!-- 0 -->
      <g style="opacity:0;" transform="translate(65.183381 177.418438)scale(0.1 -0.1)">
       <defs>
        <path d="M 31.78125 66.40625 
Q 24.171875 66.40625 20.328125 58.90625 
Q 16.5 51.421875 16.5 36.375 
Q 16.5 21.390625 20.328125 13.890625 
Q 24.171875 6.390625 31.78125 6.390625 
Q 39.453125 6.390625 43.28125 13.890625 
Q 47.125 21.390625 47.125 36.375 
Q 47.125 51.421875 43.28125 58.90625 
Q 39.453125 66.40625 31.78125 66.40625 
z
M 31.78125 74.21875 
Q 44.046875 74.21875 50.515625 64.515625 
Q 56.984375 54.828125 56.984375 36.375 
Q 56.984375 17.96875 50.515625 8.265625 
Q 44.046875 -1.421875 31.78125 -1.421875 
Q 19.53125 -1.421875 13.0625 8.265625 
Q 6.59375 17.96875 6.59375 36.375 
Q 6.59375 54.828125 13.0625 64.515625 
Q 19.53125 74.21875 31.78125 74.21875 
z
" id="DejaVuSans-48"/>
       </defs>
       <use xlink:href="#DejaVuSans-48"/>
      </g>
     </g>
    </g>
    <g id="xtick_2">
     <g id="line2d_2"/>
     <g id="text_2">
      <!-- 5 -->
      <g style="opacity:0;" transform="translate(194.35932 177.418438)scale(0.1 -0.1)">
       <defs>
        <path d="M 10.796875 72.90625 
L 49.515625 72.90625 
L 49.515625 64.59375 
L 19.828125 64.59375 
L 19.828125 46.734375 
Q 21.96875 47.46875 24.109375 47.828125 
Q 26.265625 48.1875 28.421875 48.1875 
Q 40.625 48.1875 47.75 41.5 
Q 54.890625 34.8125 54.890625 23.390625 
Q 54.890625 11.625 47.5625 5.09375 
Q 40.234375 -1.421875 26.90625 -1.421875 
Q 22.3125 -1.421875 17.546875 -0.640625 
Q 12.796875 0.140625 7.71875 1.703125 
L 7.71875 11.625 
Q 12.109375 9.234375 16.796875 8.0625 
Q 21.484375 6.890625 26.703125 6.890625 
Q 35.15625 6.890625 40.078125 11.328125 
Q 45.015625 15.765625 45.015625 23.390625 
Q 45.015625 31 40.078125 35.4375 
Q 35.15625 39.890625 26.703125 39.890625 
Q 22.75 39.890625 18.8125 39.015625 
Q 14.890625 38.140625 10.796875 36.28125 
z
" id="DejaVuSans-53"/>
       </defs>
       <use xlink:href="#DejaVuSans-53"/>
      </g>
     </g>
    </g>
    <g id="xtick_3">
     <g id="line2d_3"/>
     <g id="text_3">
      <!-- 10 -->
      <g style="opacity:0;" transform="translate(320.354009 177.418438)scale(0.1 -0.1)">
       <defs>
        <path d="M 12.40625 8.296875 
L 28.515625 8.296875 
L 28.515625 63.921875 
L 10.984375 60.40625 
L 10.984375 69.390625 
L 28.421875 72.90625 
L 38.28125 72.90625 
L 38.28125 8.296875 
L 54.390625 8.296875 
L 54.390625 0 
L 12.40625 0 
z
" id="DejaVuSans-49"/>
       </defs>
       <use xlink:href="#DejaVuSans-49"/>
       <use x="63.623047" xlink:href="#DejaVuSans-48"/>
      </g>
     </g>
    </g>
    <g id="xtick_4">
     <g id="line2d_4"/>
     <g id="text_4">
      <!-- 15 -->
      <g style="opacity:0;" transform="translate(449.529948 177.418438)scale(0.1 -0.1)">
       <use xlink:href="#DejaVuSans-49"/>
       <use x="63.623047" xlink:href="#DejaVuSans-53"/>
      </g>
     </g>
    </g>
    <g id="xtick_5">
     <g id="line2d_5"/>
     <g id="text_5">
      <!-- 20 -->
      <g style="opacity:0;" transform="translate(578.705888 177.418438)scale(0.1 -0.1)">
       <defs>
        <path d="M 19.1875 8.296875 
L 53.609375 8.296875 
L 53.609375 0 
L 7.328125 0 
L 7.328125 8.296875 
Q 12.9375 14.109375 22.625 23.890625 
Q 32.328125 33.6875 34.8125 36.53125 
Q 39.546875 41.84375 41.421875 45.53125 
Q 43.3125 49.21875 43.3125 52.78125 
Q 43.3125 58.59375 39.234375 62.25 
Q 35.15625 65.921875 28.609375 65.921875 
Q 23.96875 65.921875 18.8125 64.3125 
Q 13.671875 62.703125 7.8125 59.421875 
L 7.8125 69.390625 
Q 13.765625 71.78125 18.9375 73 
Q 24.125 74.21875 28.421875 74.21875 
Q 39.75 74.21875 46.484375 68.546875 
Q 53.21875 62.890625 53.21875 53.421875 
Q 53.21875 48.921875 51.53125 44.890625 
Q 49.859375 40.875 45.40625 35.40625 
Q 44.1875 33.984375 37.640625 27.21875 
Q 31.109375 20.453125 19.1875 8.296875 
z
" id="DejaVuSans-50"/>
       </defs>
       <use xlink:href="#DejaVuSans-50"/>
       <use x="63.623047" xlink:href="#DejaVuSans-48"/>
      </g>
     </g>
    </g>
    <g id="xtick_6">
     <g id="line2d_6"/>
     <g id="text_6">
      <!-- 25 -->
      <g style="opacity:0;" transform="translate(707.881827 177.418438)scale(0.1 -0.1)">
       <use xlink:href="#DejaVuSans-50"/>
       <use x="63.623047" xlink:href="#DejaVuSans-53"/>
      </g>
     </g>
    </g>
    <g id="xtick_7">
     <g id="line2d_7"/>
     <g id="text_7">
      <!-- 30 -->
      <g style="opacity:0;" transform="translate(837.057766 177.418438)scale(0.1 -0.1)">
       <defs>
        <path d="M 40.578125 39.3125 
Q 47.65625 37.796875 51.625 33 
Q 55.609375 28.21875 55.609375 21.1875 
Q 55.609375 10.40625 48.1875 4.484375 
Q 40.765625 -1.421875 27.09375 -1.421875 
Q 22.515625 -1.421875 17.65625 -0.515625 
Q 12.796875 0.390625 7.625 2.203125 
L 7.625 11.71875 
Q 11.71875 9.328125 16.59375 8.109375 
Q 21.484375 6.890625 26.8125 6.890625 
Q 36.078125 6.890625 40.9375 10.546875 
Q 45.796875 14.203125 45.796875 21.1875 
Q 45.796875 27.640625 41.28125 31.265625 
Q 36.765625 34.90625 28.71875 34.90625 
L 20.21875 34.90625 
L 20.21875 43.015625 
L 29.109375 43.015625 
Q 36.375 43.015625 40.234375 45.921875 
Q 44.09375 48.828125 44.09375 54.296875 
Q 44.09375 59.90625 40.109375 62.90625 
Q 36.140625 65.921875 28.71875 65.921875 
Q 24.65625 65.921875 20.015625 65.03125 
Q 15.375 64.15625 9.8125 62.3125 
L 9.8125 71.09375 
Q 15.4375 72.65625 20.34375 73.4375 
Q 25.25 74.21875 29.59375 74.21875 
Q 40.828125 74.21875 47.359375 69.109375 
Q 53.90625 64.015625 53.90625 55.328125 
Q 53.90625 49.265625 50.4375 45.09375 
Q 46.96875 40.921875 40.578125 39.3125 
z
" id="DejaVuSans-51"/>
       </defs>
       <use xlink:href="#DejaVuSans-51"/>
       <use x="63.623047" xlink:href="#DejaVuSans-48"/>
      </g>
     </g>
    </g>
   </g>
   <g id="matplotlib.axis_2">
    <g id="ytick_1">
     <g id="line2d_8"/>
     <g id="text_8">
      <!-- −1.0 -->
      <g style="opacity:0;" transform="translate(0 162.559593)scale(0.1 -0.1)">
       <defs>
        <path d="M 10.59375 35.5 
L 73.1875 35.5 
L 73.1875 27.203125 
L 10.59375 27.203125 
z
" id="DejaVuSans-8722"/>
        <path d="M 10.6875 12.40625 
L 21 12.40625 
L 21 0 
L 10.6875 0 
z
" id="DejaVuSans-46"/>
       </defs>
       <use xlink:href="#DejaVuSans-8722"/>
       <use x="83.789062" xlink:href="#DejaVuSans-49"/>
       <use x="147.412109" xlink:href="#DejaVuSans-46"/>
       <use x="179.199219" xlink:href="#DejaVuSans-48"/>
      </g>
     </g>
    </g>
    <g id="ytick_2">
     <g id="line2d_9"/>
     <g id="text_9">
      <!-- −0.5 -->
      <g style="opacity:0;" transform="translate(0 124.759406)scale(0.1 -0.1)">
       <use xlink:href="#DejaVuSans-8722"/>
       <use x="83.789062" xlink:href="#DejaVuSans-48"/>
       <use x="147.412109" xlink:href="#DejaVuSans-46"/>
       <use x="179.199219" xlink:href="#DejaVuSans-53"/>
      </g>
     </g>
    </g>
    <g id="ytick_3">
     <g id="line2d_10"/>
     <g id="text_10">
      <!-- 0.0 -->
      <g style="opacity:0;" transform="translate(8.379688 86.959219)scale(0.1 -0.1)">
       <use xlink:href="#DejaVuSans-48"/>
       <use x="63.623047" xlink:href="#DejaVuSans-46"/>
       <use x="95.410156" xlink:href="#DejaVuSans-48"/>
      </g>
     </g>
    </g>
    <g id="ytick_4">
     <g id="line2d_11"/>
     <g id="text_11">
      <!-- 0.5 -->
      <g style="opacity:0;" transform="translate(8.379688 49.159031)scale(0.1 -0.1)">
       <use xlink:href="#DejaVuSans-48"/>
       <use x="63.623047" xlink:href="#DejaVuSans-46"/>
       <use x="95.410156" xlink:href="#DejaVuSans-53"/>
      </g>
     </g>
    </g>
    <g id="ytick_5">
     <g id="line2d_12"/>
     <g id="text_12">
      <!-- 1.0 -->
      <g style="opacity:0;" transform="translate(8.379688 11.358844)scale(0.1 -0.1)">
       <use xlink:href="#DejaVuSans-49"/>
       <use x="63.623047" xlink:href="#DejaVuSans-46"/>
       <use x="95.410156" xlink:href="#DejaVuSans-48"/>
      </g>
     </g>
    </g>
   </g>
   <g id="line2d_13">
    <path clip-path="url(#pf90e1edada)" d="M 68.364631 83.16 
L 74.870734 64.322073 
L 79.750311 50.910646 
L 83.003363 42.578983 
L 86.256414 34.889872 
L 89.509466 27.96506 
L 92.762517 21.914192 
L 94.389043 19.247011 
L 96.015569 16.833078 
L 97.642095 14.681956 
L 99.26862 12.802169 
L 100.895146 11.201167 
L 102.521672 9.885292 
L 104.148198 8.859759 
L 105.774724 8.128631 
L 107.401249 7.694805 
L 109.027775 7.56 
L 110.654301 7.724751 
L 112.280827 8.188404 
L 113.907352 8.949122 
L 115.533878 10.003891 
L 117.160404 11.348532 
L 118.78693 12.977717 
L 120.413456 14.88499 
L 122.039981 17.062794 
L 123.666507 19.5025 
L 125.293033 22.19444 
L 126.919559 25.127949 
L 130.17261 31.672265 
L 133.425662 39.031827 
L 136.678713 47.090105 
L 139.931765 55.719506 
L 144.811342 69.433628 
L 159.450074 111.485302 
L 162.703126 120.063607 
L 165.956177 128.057587 
L 169.209229 135.340669 
L 172.462281 141.797534 
L 174.088806 144.683629 
L 175.715332 147.325944 
L 177.341858 149.71401 
L 178.968384 151.838364 
L 180.594909 153.69059 
L 182.221435 155.263346 
L 183.847961 156.550403 
L 185.474487 157.546659 
L 187.101013 158.248168 
L 188.727538 158.65215 
L 190.354064 158.757003 
L 191.98059 158.562314 
L 193.607116 158.068852 
L 195.233641 157.278574 
L 196.860167 156.19461 
L 198.486693 154.821256 
L 200.113219 153.163953 
L 201.739745 151.229269 
L 203.36627 149.024869 
L 204.992796 146.559488 
L 206.619322 143.842895 
L 209.872373 137.700081 
L 213.125425 130.69369 
L 216.378477 122.934662 
L 219.631528 114.54585 
L 224.511105 101.074558 
L 231.017209 82.208099 
L 237.523312 63.40169 
L 242.402889 50.052254 
L 245.655941 41.779062 
L 248.908992 34.161087 
L 252.162044 27.318951 
L 255.415095 21.360989 
L 257.041621 18.743644 
L 258.668147 16.38154 
L 260.294673 14.284038 
L 261.921198 12.459447 
L 263.547724 10.914998 
L 265.17425 9.656811 
L 266.800776 8.689871 
L 268.427301 8.018009 
L 270.053827 7.643888 
L 271.680353 7.568989 
L 273.306879 7.793611 
L 274.933405 8.316862 
L 276.55993 9.136669 
L 278.186456 10.249784 
L 279.812982 11.651796 
L 281.439508 13.337151 
L 283.066033 15.299169 
L 284.692559 17.530078 
L 286.319085 20.021036 
L 287.945611 22.762175 
L 291.198662 28.950599 
L 294.451714 35.997362 
L 297.704765 43.790889 
L 300.957817 52.207777 
L 305.837394 65.708201 
L 313.970023 89.340614 
L 320.476126 107.920532 
L 323.729178 116.694982 
L 326.98223 124.938446 
L 330.235281 132.520399 
L 333.488333 139.32079 
L 336.741384 145.231943 
L 338.36791 147.824215 
L 339.994436 150.160262 
L 341.620962 152.23083 
L 343.247487 154.027714 
L 344.874013 155.543793 
L 346.500539 156.773061 
L 348.127065 157.710647 
L 349.75359 158.352835 
L 351.380116 158.697081 
L 353.006642 158.742021 
L 354.633168 158.487478 
L 356.259694 157.934458 
L 357.886219 157.085155 
L 359.512745 155.942933 
L 361.139271 154.512317 
L 362.765797 152.798977 
L 364.392322 150.809702 
L 366.018848 148.552374 
L 367.645374 146.035936 
L 369.2719 143.270361 
L 372.524951 137.036574 
L 375.778003 129.949716 
L 379.031054 122.122001 
L 382.284106 113.677369 
L 387.163683 100.148348 
L 395.296312 76.505141 
L 400.17589 62.48444 
L 405.055467 49.199111 
L 408.308518 40.985702 
L 411.56157 33.440071 
L 414.814622 26.681695 
L 418.067673 20.817585 
L 419.694199 18.25049 
L 421.320725 15.94059 
L 422.94725 13.897039 
L 424.573776 12.127934 
L 426.200302 10.640284 
L 427.826828 9.439984 
L 429.453354 8.53179 
L 431.079879 7.919301 
L 432.706405 7.604944 
L 434.332931 7.589964 
L 435.959457 7.87442 
L 437.585982 8.457186 
L 439.212508 9.335952 
L 440.839034 10.507236 
L 442.46556 11.966397 
L 444.092086 13.707655 
L 445.718611 15.724108 
L 447.345137 18.007767 
L 448.971663 20.549583 
L 450.598189 23.339486 
L 453.85124 29.61839 
L 457.104292 36.74506 
L 460.357343 44.606655 
L 463.610395 53.078695 
L 468.489972 66.635776 
L 484.75523 113.241305 
L 488.008282 121.713345 
L 491.261333 129.57494 
L 494.514385 136.70161 
L 497.767436 142.980514 
L 499.393962 145.770417 
L 501.020488 148.312233 
L 502.647014 150.595892 
L 504.273539 152.612345 
L 505.900065 154.353603 
L 507.526591 155.812764 
L 509.153117 156.984048 
L 510.779643 157.862814 
L 512.406168 158.44558 
L 514.032694 158.730036 
L 515.65922 158.715056 
L 517.285746 158.400699 
L 518.912271 157.78821 
L 520.538797 156.880016 
L 522.165323 155.679716 
L 523.791849 154.192066 
L 525.418375 152.422961 
L 527.0449 150.37941 
L 528.671426 148.06951 
L 530.297952 145.502415 
L 531.924478 142.688297 
L 535.177529 136.364525 
L 538.430581 129.198324 
L 541.683632 121.303162 
L 544.936684 112.80405 
L 549.816261 99.219445 
L 566.081519 52.642631 
L 569.334571 44.197999 
L 572.587622 36.370284 
L 575.840674 29.283426 
L 579.093725 23.049639 
L 580.720251 20.284064 
L 582.346777 17.767626 
L 583.973303 15.510298 
L 585.599828 13.521023 
L 587.226354 11.807683 
L 588.85288 10.377067 
L 590.479406 9.234845 
L 592.105931 8.385542 
L 593.732457 7.832522 
L 595.358983 7.577979 
L 596.985509 7.622919 
L 598.612035 7.967165 
L 600.23856 8.609353 
L 601.865086 9.546939 
L 603.491612 10.776207 
L 605.118138 12.292286 
L 606.744663 14.08917 
L 608.371189 16.159738 
L 609.997715 18.495785 
L 611.624241 21.088057 
L 613.250767 23.92628 
L 616.503818 30.294669 
L 619.75687 37.500117 
L 623.009921 45.428533 
L 626.262973 53.954381 
L 631.14255 67.56597 
L 647.407808 114.112223 
L 650.66086 122.529111 
L 653.913911 130.322638 
L 657.166963 137.369401 
L 660.420014 143.557825 
L 662.04654 146.298964 
L 663.673066 148.789922 
L 665.299592 151.020831 
L 666.926117 152.982849 
L 668.552643 154.668204 
L 670.179169 156.070216 
L 671.805695 157.183331 
L 673.43222 158.003138 
L 675.058746 158.526389 
L 676.685272 158.751011 
L 678.311798 158.676112 
L 679.938324 158.301991 
L 681.564849 157.630129 
L 683.191375 156.663189 
L 684.817901 155.405002 
L 686.444427 153.860553 
L 688.070952 152.035962 
L 689.697478 149.93846 
L 691.324004 147.576356 
L 692.95053 144.959011 
L 694.577056 142.096795 
L 697.830107 135.684041 
L 701.083159 128.439633 
L 704.33621 120.478276 
L 707.589262 111.926031 
L 712.468839 98.287996 
L 727.107571 56.16355 
L 730.360623 47.509113 
L 733.613674 39.419165 
L 736.866726 32.0218 
L 740.119777 25.434147 
L 741.746303 22.477105 
L 743.372829 19.760512 
L 744.999355 17.295131 
L 746.62588 15.090731 
L 748.252406 13.156047 
L 749.878932 11.498744 
L 751.505458 10.12539 
L 753.131984 9.041426 
L 754.758509 8.251148 
L 756.385035 7.757686 
L 758.011561 7.562997 
L 759.638087 7.66785 
L 761.264612 8.071832 
L 762.891138 8.773341 
L 764.517664 9.769597 
L 766.14419 11.056654 
L 767.770716 12.62941 
L 769.397241 14.481636 
L 771.023767 16.60599 
L 772.650293 18.994056 
L 774.276819 21.636371 
L 775.903344 24.522466 
L 779.156396 30.979331 
L 782.409448 38.262413 
L 785.662499 46.256393 
L 788.915551 54.834698 
L 793.795128 68.498637 
L 808.43386 110.600494 
L 811.686912 119.229895 
L 814.939963 127.288173 
L 818.193015 134.647735 
L 821.446066 141.192051 
L 823.072592 144.12556 
L 824.699118 146.8175 
L 826.325644 149.257206 
L 827.952169 151.43501 
L 829.578695 153.342283 
L 831.205221 154.971468 
L 832.831747 156.316109 
L 834.458273 157.370878 
L 836.084798 158.131596 
L 837.711324 158.595249 
L 839.33785 158.76 
L 840.964376 158.625195 
L 842.590901 158.191369 
L 844.217427 157.460241 
L 845.843953 156.434708 
L 847.470479 155.118833 
L 849.097005 153.517831 
L 850.72353 151.638044 
L 852.350056 149.486922 
L 853.976582 147.072989 
L 855.603108 144.405808 
L 857.229633 141.495948 
L 860.482685 134.995229 
L 863.735737 127.673762 
L 866.988788 119.647474 
L 870.24184 111.043451 
L 875.121417 97.354149 
L 880.000994 83.16 
L 880.000994 83.16 
" style="fill:none;stroke:#0000ff;stroke-linecap:square;stroke-width:1.5;"/>
   </g>
   <g id="patch_3">
    <path d="M 27.782813 166.32 
L 27.782813 0 
" style="fill:none;stroke:#000000;stroke-linecap:square;stroke-linejoin:miter;stroke-width:0.8;"/>
   </g>
   <g id="patch_4">
    <path d="M 920.582812 166.32 
L 920.582812 0 
" style="fill:none;stroke:#000000;stroke-linecap:square;stroke-linejoin:miter;stroke-width:0.8;"/>
   </g>
   <g id="patch_5">
    <path d="M 27.782812 166.32 
L 920.582812 166.32 
" style="fill:none;stroke:#000000;stroke-linecap:square;stroke-linejoin:miter;stroke-width:0.8;"/>
   </g>
   <g id="patch_6">
    <path d="M 27.782812 0 
L 920.582812 0 
" style="fill:none;stroke:#000000;stroke-linecap:square;stroke-linejoin:miter;stroke-width:0.8;"/>
   </g>
  </g>
 </g>
 <defs>
  <clipPath id="pf90e1edada">
   <rect height="166.32" width="892.8" x="27.782813" y="0"/>
  </clipPath>
 </defs>
</svg>
