<?xml version="1.0" encoding="utf-8" standalone="no"?>
<!DOCTYPE svg PUBLIC "-//W3C//DTD SVG 1.1//EN"
  "http://www.w3.org/Graphics/SVG/1.1/DTD/svg11.dtd">
<svg xmlns:xlink="http://www.w3.org/1999/xlink" width="970.31125pt" height="560.28625pt" viewBox="0 0 970.31125 560.28625" xmlns="http://www.w3.org/2000/svg" version="1.1">
 <metadata>
  <rdf:RDF xmlns:dc="http://purl.org/dc/elements/1.1/" xmlns:cc="http://creativecommons.org/ns#" xmlns:rdf="http://www.w3.org/1999/02/22-rdf-syntax-ns#">
   <cc:Work>
    <dc:type rdf:resource="http://purl.org/dc/dcmitype/StillImage"/>
    <dc:date>2024-07-09T23:55:37.940939</dc:date>
    <dc:format>image/svg+xml</dc:format>
    <dc:creator>
     <cc:Agent>
      <dc:title>Matplotlib v3.8.0, https://matplotlib.org/</dc:title>
     </cc:Agent>
    </dc:creator>
   </cc:Work>
  </rdf:RDF>
 </metadata>
 <defs>
  <style type="text/css">*{stroke-linejoin: round; stroke-linecap: butt}</style>
 </defs>
 <g id="figure_1">
  <g id="patch_1">
   <path d="M 0 560.28625 
L 970.31125 560.28625 
L 970.31125 0 
L 0 0 
z
" style="fill: #ffffff"/>
  </g>
  <g id="axes_1">
   <g id="patch_2">
    <path d="M 77.51125 498.96 
L 970.31125 498.96 
L 970.31125 0 
L 77.51125 0 
z
" style="fill: #ffffff"/>
   </g>
   <g id="matplotlib.axis_1">
    <g id="xtick_1">
     <g id="line2d_1">
      <defs>
       <path id="m7953b419e3" d="M 0 0 
L 0 3.5 
" style="stroke: #000000; stroke-width: 0.8"/>
      </defs>
      <g>
       <use xlink:href="#m7953b419e3" x="118.093068" y="498.96" style="stroke: #000000; stroke-width: 0.8"/>
      </g>
     </g>
     <g id="text_1">
      <!-- 0 -->
      <g transform="translate(109.821818 525.715937) scale(0.26 -0.26)">
       <defs>
        <path id="DejaVuSans-30" d="M 2034 4250 
Q 1547 4250 1301 3770 
Q 1056 3291 1056 2328 
Q 1056 1369 1301 889 
Q 1547 409 2034 409 
Q 2525 409 2770 889 
Q 3016 1369 3016 2328 
Q 3016 3291 2770 3770 
Q 2525 4250 2034 4250 
z
M 2034 4750 
Q 2819 4750 3233 4129 
Q 3647 3509 3647 2328 
Q 3647 1150 3233 529 
Q 2819 -91 2034 -91 
Q 1250 -91 836 529 
Q 422 1150 422 2328 
Q 422 3509 836 4129 
Q 1250 4750 2034 4750 
z
" transform="scale(0.015625)"/>
       </defs>
       <use xlink:href="#DejaVuSans-30"/>
      </g>
     </g>
    </g>
    <g id="xtick_2">
     <g id="line2d_2">
      <g>
       <use xlink:href="#m7953b419e3" x="280.582831" y="498.96" style="stroke: #000000; stroke-width: 0.8"/>
      </g>
     </g>
     <g id="text_2">
      <!-- 200 -->
      <g transform="translate(255.769081 525.715937) scale(0.26 -0.26)">
       <defs>
        <path id="DejaVuSans-32" d="M 1228 531 
L 3431 531 
L 3431 0 
L 469 0 
L 469 531 
Q 828 903 1448 1529 
Q 2069 2156 2228 2338 
Q 2531 2678 2651 2914 
Q 2772 3150 2772 3378 
Q 2772 3750 2511 3984 
Q 2250 4219 1831 4219 
Q 1534 4219 1204 4116 
Q 875 4013 500 3803 
L 500 4441 
Q 881 4594 1212 4672 
Q 1544 4750 1819 4750 
Q 2544 4750 2975 4387 
Q 3406 4025 3406 3419 
Q 3406 3131 3298 2873 
Q 3191 2616 2906 2266 
Q 2828 2175 2409 1742 
Q 1991 1309 1228 531 
z
" transform="scale(0.015625)"/>
       </defs>
       <use xlink:href="#DejaVuSans-32"/>
       <use xlink:href="#DejaVuSans-30" x="63.623047"/>
       <use xlink:href="#DejaVuSans-30" x="127.246094"/>
      </g>
     </g>
    </g>
    <g id="xtick_3">
     <g id="line2d_3">
      <g>
       <use xlink:href="#m7953b419e3" x="443.072593" y="498.96" style="stroke: #000000; stroke-width: 0.8"/>
      </g>
     </g>
     <g id="text_3">
      <!-- 400 -->
      <g transform="translate(418.258843 525.715937) scale(0.26 -0.26)">
       <defs>
        <path id="DejaVuSans-34" d="M 2419 4116 
L 825 1625 
L 2419 1625 
L 2419 4116 
z
M 2253 4666 
L 3047 4666 
L 3047 1625 
L 3713 1625 
L 3713 1100 
L 3047 1100 
L 3047 0 
L 2419 0 
L 2419 1100 
L 313 1100 
L 313 1709 
L 2253 4666 
z
" transform="scale(0.015625)"/>
       </defs>
       <use xlink:href="#DejaVuSans-34"/>
       <use xlink:href="#DejaVuSans-30" x="63.623047"/>
       <use xlink:href="#DejaVuSans-30" x="127.246094"/>
      </g>
     </g>
    </g>
    <g id="xtick_4">
     <g id="line2d_4">
      <g>
       <use xlink:href="#m7953b419e3" x="605.562356" y="498.96" style="stroke: #000000; stroke-width: 0.8"/>
      </g>
     </g>
     <g id="text_4">
      <!-- 600 -->
      <g transform="translate(580.748606 525.715937) scale(0.26 -0.26)">
       <defs>
        <path id="DejaVuSans-36" d="M 2113 2584 
Q 1688 2584 1439 2293 
Q 1191 2003 1191 1497 
Q 1191 994 1439 701 
Q 1688 409 2113 409 
Q 2538 409 2786 701 
Q 3034 994 3034 1497 
Q 3034 2003 2786 2293 
Q 2538 2584 2113 2584 
z
M 3366 4563 
L 3366 3988 
Q 3128 4100 2886 4159 
Q 2644 4219 2406 4219 
Q 1781 4219 1451 3797 
Q 1122 3375 1075 2522 
Q 1259 2794 1537 2939 
Q 1816 3084 2150 3084 
Q 2853 3084 3261 2657 
Q 3669 2231 3669 1497 
Q 3669 778 3244 343 
Q 2819 -91 2113 -91 
Q 1303 -91 875 529 
Q 447 1150 447 2328 
Q 447 3434 972 4092 
Q 1497 4750 2381 4750 
Q 2619 4750 2861 4703 
Q 3103 4656 3366 4563 
z
" transform="scale(0.015625)"/>
       </defs>
       <use xlink:href="#DejaVuSans-36"/>
       <use xlink:href="#DejaVuSans-30" x="63.623047"/>
       <use xlink:href="#DejaVuSans-30" x="127.246094"/>
      </g>
     </g>
    </g>
    <g id="xtick_5">
     <g id="line2d_5">
      <g>
       <use xlink:href="#m7953b419e3" x="768.052118" y="498.96" style="stroke: #000000; stroke-width: 0.8"/>
      </g>
     </g>
     <g id="text_5">
      <!-- 800 -->
      <g transform="translate(743.238368 525.715937) scale(0.26 -0.26)">
       <defs>
        <path id="DejaVuSans-38" d="M 2034 2216 
Q 1584 2216 1326 1975 
Q 1069 1734 1069 1313 
Q 1069 891 1326 650 
Q 1584 409 2034 409 
Q 2484 409 2743 651 
Q 3003 894 3003 1313 
Q 3003 1734 2745 1975 
Q 2488 2216 2034 2216 
z
M 1403 2484 
Q 997 2584 770 2862 
Q 544 3141 544 3541 
Q 544 4100 942 4425 
Q 1341 4750 2034 4750 
Q 2731 4750 3128 4425 
Q 3525 4100 3525 3541 
Q 3525 3141 3298 2862 
Q 3072 2584 2669 2484 
Q 3125 2378 3379 2068 
Q 3634 1759 3634 1313 
Q 3634 634 3220 271 
Q 2806 -91 2034 -91 
Q 1263 -91 848 271 
Q 434 634 434 1313 
Q 434 1759 690 2068 
Q 947 2378 1403 2484 
z
M 1172 3481 
Q 1172 3119 1398 2916 
Q 1625 2713 2034 2713 
Q 2441 2713 2670 2916 
Q 2900 3119 2900 3481 
Q 2900 3844 2670 4047 
Q 2441 4250 2034 4250 
Q 1625 4250 1398 4047 
Q 1172 3844 1172 3481 
z
" transform="scale(0.015625)"/>
       </defs>
       <use xlink:href="#DejaVuSans-38"/>
       <use xlink:href="#DejaVuSans-30" x="63.623047"/>
       <use xlink:href="#DejaVuSans-30" x="127.246094"/>
      </g>
     </g>
    </g>
    <g id="xtick_6">
     <g id="line2d_6">
      <g>
       <use xlink:href="#m7953b419e3" x="930.541881" y="498.96" style="stroke: #000000; stroke-width: 0.8"/>
      </g>
     </g>
     <g id="text_6">
      <!-- 1000 -->
      <g transform="translate(897.456881 525.715937) scale(0.26 -0.26)">
       <defs>
        <path id="DejaVuSans-31" d="M 794 531 
L 1825 531 
L 1825 4091 
L 703 3866 
L 703 4441 
L 1819 4666 
L 2450 4666 
L 2450 531 
L 3481 531 
L 3481 0 
L 794 0 
L 794 531 
z
" transform="scale(0.015625)"/>
       </defs>
       <use xlink:href="#DejaVuSans-31"/>
       <use xlink:href="#DejaVuSans-30" x="63.623047"/>
       <use xlink:href="#DejaVuSans-30" x="127.246094"/>
       <use xlink:href="#DejaVuSans-30" x="190.869141"/>
      </g>
     </g>
    </g>
    <g id="text_7">
     <!-- Epoch -->
     <g transform="translate(484.102812 554.879063) scale(0.26 -0.26)">
      <defs>
       <path id="DejaVuSans-45" d="M 628 4666 
L 3578 4666 
L 3578 4134 
L 1259 4134 
L 1259 2753 
L 3481 2753 
L 3481 2222 
L 1259 2222 
L 1259 531 
L 3634 531 
L 3634 0 
L 628 0 
L 628 4666 
z
" transform="scale(0.015625)"/>
       <path id="DejaVuSans-70" d="M 1159 525 
L 1159 -1331 
L 581 -1331 
L 581 3500 
L 1159 3500 
L 1159 2969 
Q 1341 3281 1617 3432 
Q 1894 3584 2278 3584 
Q 2916 3584 3314 3078 
Q 3713 2572 3713 1747 
Q 3713 922 3314 415 
Q 2916 -91 2278 -91 
Q 1894 -91 1617 61 
Q 1341 213 1159 525 
z
M 3116 1747 
Q 3116 2381 2855 2742 
Q 2594 3103 2138 3103 
Q 1681 3103 1420 2742 
Q 1159 2381 1159 1747 
Q 1159 1113 1420 752 
Q 1681 391 2138 391 
Q 2594 391 2855 752 
Q 3116 1113 3116 1747 
z
" transform="scale(0.015625)"/>
       <path id="DejaVuSans-6f" d="M 1959 3097 
Q 1497 3097 1228 2736 
Q 959 2375 959 1747 
Q 959 1119 1226 758 
Q 1494 397 1959 397 
Q 2419 397 2687 759 
Q 2956 1122 2956 1747 
Q 2956 2369 2687 2733 
Q 2419 3097 1959 3097 
z
M 1959 3584 
Q 2709 3584 3137 3096 
Q 3566 2609 3566 1747 
Q 3566 888 3137 398 
Q 2709 -91 1959 -91 
Q 1206 -91 779 398 
Q 353 888 353 1747 
Q 353 2609 779 3096 
Q 1206 3584 1959 3584 
z
" transform="scale(0.015625)"/>
       <path id="DejaVuSans-63" d="M 3122 3366 
L 3122 2828 
Q 2878 2963 2633 3030 
Q 2388 3097 2138 3097 
Q 1578 3097 1268 2742 
Q 959 2388 959 1747 
Q 959 1106 1268 751 
Q 1578 397 2138 397 
Q 2388 397 2633 464 
Q 2878 531 3122 666 
L 3122 134 
Q 2881 22 2623 -34 
Q 2366 -91 2075 -91 
Q 1284 -91 818 406 
Q 353 903 353 1747 
Q 353 2603 823 3093 
Q 1294 3584 2113 3584 
Q 2378 3584 2631 3529 
Q 2884 3475 3122 3366 
z
" transform="scale(0.015625)"/>
       <path id="DejaVuSans-68" d="M 3513 2113 
L 3513 0 
L 2938 0 
L 2938 2094 
Q 2938 2591 2744 2837 
Q 2550 3084 2163 3084 
Q 1697 3084 1428 2787 
Q 1159 2491 1159 1978 
L 1159 0 
L 581 0 
L 581 4863 
L 1159 4863 
L 1159 2956 
Q 1366 3272 1645 3428 
Q 1925 3584 2291 3584 
Q 2894 3584 3203 3211 
Q 3513 2838 3513 2113 
z
" transform="scale(0.015625)"/>
      </defs>
      <use xlink:href="#DejaVuSans-45"/>
      <use xlink:href="#DejaVuSans-70" x="63.183594"/>
      <use xlink:href="#DejaVuSans-6f" x="126.660156"/>
      <use xlink:href="#DejaVuSans-63" x="187.841797"/>
      <use xlink:href="#DejaVuSans-68" x="242.822266"/>
     </g>
    </g>
   </g>
   <g id="matplotlib.axis_2">
    <g id="ytick_1">
     <g id="line2d_7">
      <defs>
       <path id="me367e55423" d="M 0 0 
L -3.5 0 
" style="stroke: #000000; stroke-width: 0.8"/>
      </defs>
      <g>
       <use xlink:href="#me367e55423" x="77.51125" y="424.554939" style="stroke: #000000; stroke-width: 0.8"/>
      </g>
     </g>
     <g id="text_8">
      <!-- 0.2 -->
      <g transform="translate(29.163125 434.432908) scale(0.26 -0.26)">
       <defs>
        <path id="DejaVuSans-2e" d="M 684 794 
L 1344 794 
L 1344 0 
L 684 0 
L 684 794 
z
" transform="scale(0.015625)"/>
       </defs>
       <use xlink:href="#DejaVuSans-30"/>
       <use xlink:href="#DejaVuSans-2e" x="63.623047"/>
       <use xlink:href="#DejaVuSans-32" x="95.410156"/>
      </g>
     </g>
    </g>
    <g id="ytick_2">
     <g id="line2d_8">
      <g>
       <use xlink:href="#me367e55423" x="77.51125" y="344.132685" style="stroke: #000000; stroke-width: 0.8"/>
      </g>
     </g>
     <g id="text_9">
      <!-- 0.3 -->
      <g transform="translate(29.163125 354.010654) scale(0.26 -0.26)">
       <defs>
        <path id="DejaVuSans-33" d="M 2597 2516 
Q 3050 2419 3304 2112 
Q 3559 1806 3559 1356 
Q 3559 666 3084 287 
Q 2609 -91 1734 -91 
Q 1441 -91 1130 -33 
Q 819 25 488 141 
L 488 750 
Q 750 597 1062 519 
Q 1375 441 1716 441 
Q 2309 441 2620 675 
Q 2931 909 2931 1356 
Q 2931 1769 2642 2001 
Q 2353 2234 1838 2234 
L 1294 2234 
L 1294 2753 
L 1863 2753 
Q 2328 2753 2575 2939 
Q 2822 3125 2822 3475 
Q 2822 3834 2567 4026 
Q 2313 4219 1838 4219 
Q 1578 4219 1281 4162 
Q 984 4106 628 3988 
L 628 4550 
Q 988 4650 1302 4700 
Q 1616 4750 1894 4750 
Q 2613 4750 3031 4423 
Q 3450 4097 3450 3541 
Q 3450 3153 3228 2886 
Q 3006 2619 2597 2516 
z
" transform="scale(0.015625)"/>
       </defs>
       <use xlink:href="#DejaVuSans-30"/>
       <use xlink:href="#DejaVuSans-2e" x="63.623047"/>
       <use xlink:href="#DejaVuSans-33" x="95.410156"/>
      </g>
     </g>
    </g>
    <g id="ytick_3">
     <g id="line2d_9">
      <g>
       <use xlink:href="#me367e55423" x="77.51125" y="263.710431" style="stroke: #000000; stroke-width: 0.8"/>
      </g>
     </g>
     <g id="text_10">
      <!-- 0.4 -->
      <g transform="translate(29.163125 273.5884) scale(0.26 -0.26)">
       <use xlink:href="#DejaVuSans-30"/>
       <use xlink:href="#DejaVuSans-2e" x="63.623047"/>
       <use xlink:href="#DejaVuSans-34" x="95.410156"/>
      </g>
     </g>
    </g>
    <g id="ytick_4">
     <g id="line2d_10">
      <g>
       <use xlink:href="#me367e55423" x="77.51125" y="183.288177" style="stroke: #000000; stroke-width: 0.8"/>
      </g>
     </g>
     <g id="text_11">
      <!-- 0.5 -->
      <g transform="translate(29.163125 193.166146) scale(0.26 -0.26)">
       <defs>
        <path id="DejaVuSans-35" d="M 691 4666 
L 3169 4666 
L 3169 4134 
L 1269 4134 
L 1269 2991 
Q 1406 3038 1543 3061 
Q 1681 3084 1819 3084 
Q 2600 3084 3056 2656 
Q 3513 2228 3513 1497 
Q 3513 744 3044 326 
Q 2575 -91 1722 -91 
Q 1428 -91 1123 -41 
Q 819 9 494 109 
L 494 744 
Q 775 591 1075 516 
Q 1375 441 1709 441 
Q 2250 441 2565 725 
Q 2881 1009 2881 1497 
Q 2881 1984 2565 2268 
Q 2250 2553 1709 2553 
Q 1456 2553 1204 2497 
Q 953 2441 691 2322 
L 691 4666 
z
" transform="scale(0.015625)"/>
       </defs>
       <use xlink:href="#DejaVuSans-30"/>
       <use xlink:href="#DejaVuSans-2e" x="63.623047"/>
       <use xlink:href="#DejaVuSans-35" x="95.410156"/>
      </g>
     </g>
    </g>
    <g id="ytick_5">
     <g id="line2d_11">
      <g>
       <use xlink:href="#me367e55423" x="77.51125" y="102.865923" style="stroke: #000000; stroke-width: 0.8"/>
      </g>
     </g>
     <g id="text_12">
      <!-- 0.6 -->
      <g transform="translate(29.163125 112.743892) scale(0.26 -0.26)">
       <use xlink:href="#DejaVuSans-30"/>
       <use xlink:href="#DejaVuSans-2e" x="63.623047"/>
       <use xlink:href="#DejaVuSans-36" x="95.410156"/>
      </g>
     </g>
    </g>
    <g id="ytick_6">
     <g id="line2d_12">
      <g>
       <use xlink:href="#me367e55423" x="77.51125" y="22.443669" style="stroke: #000000; stroke-width: 0.8"/>
      </g>
     </g>
     <g id="text_13">
      <!-- 0.7 -->
      <g transform="translate(29.163125 32.321638) scale(0.26 -0.26)">
       <defs>
        <path id="DejaVuSans-37" d="M 525 4666 
L 3525 4666 
L 3525 4397 
L 1831 0 
L 1172 0 
L 2766 4134 
L 525 4134 
L 525 4666 
z
" transform="scale(0.015625)"/>
       </defs>
       <use xlink:href="#DejaVuSans-30"/>
       <use xlink:href="#DejaVuSans-2e" x="63.623047"/>
       <use xlink:href="#DejaVuSans-37" x="95.410156"/>
      </g>
     </g>
    </g>
    <g id="text_14">
     <!-- Loss -->
     <g transform="translate(19.755938 277.994687) rotate(-90) scale(0.26 -0.26)">
      <defs>
       <path id="DejaVuSans-4c" d="M 628 4666 
L 1259 4666 
L 1259 531 
L 3531 531 
L 3531 0 
L 628 0 
L 628 4666 
z
" transform="scale(0.015625)"/>
       <path id="DejaVuSans-73" d="M 2834 3397 
L 2834 2853 
Q 2591 2978 2328 3040 
Q 2066 3103 1784 3103 
Q 1356 3103 1142 2972 
Q 928 2841 928 2578 
Q 928 2378 1081 2264 
Q 1234 2150 1697 2047 
L 1894 2003 
Q 2506 1872 2764 1633 
Q 3022 1394 3022 966 
Q 3022 478 2636 193 
Q 2250 -91 1575 -91 
Q 1294 -91 989 -36 
Q 684 19 347 128 
L 347 722 
Q 666 556 975 473 
Q 1284 391 1588 391 
Q 1994 391 2212 530 
Q 2431 669 2431 922 
Q 2431 1156 2273 1281 
Q 2116 1406 1581 1522 
L 1381 1569 
Q 847 1681 609 1914 
Q 372 2147 372 2553 
Q 372 3047 722 3315 
Q 1072 3584 1716 3584 
Q 2034 3584 2315 3537 
Q 2597 3491 2834 3397 
z
" transform="scale(0.015625)"/>
      </defs>
      <use xlink:href="#DejaVuSans-4c"/>
      <use xlink:href="#DejaVuSans-6f" x="53.962891"/>
      <use xlink:href="#DejaVuSans-73" x="115.144531"/>
      <use xlink:href="#DejaVuSans-73" x="167.244141"/>
     </g>
    </g>
   </g>
   <g id="line2d_13">
    <path d="M 118.093068 22.68 
L 118.905517 26.679826 
L 119.717966 26.558693 
L 120.530415 32.02074 
L 121.342863 30.243103 
L 122.155312 31.948166 
L 122.967761 35.146559 
L 123.78021 33.173346 
L 125.405107 31.795971 
L 126.217556 34.563569 
L 127.030005 36.674883 
L 127.842454 37.022655 
L 128.654903 37.814596 
L 129.467352 36.268391 
L 130.2798 37.546828 
L 131.904698 41.177072 
L 132.717147 41.574696 
L 133.529596 32.817714 
L 134.342044 30.932702 
L 135.154493 31.292985 
L 135.966942 31.095491 
L 136.779391 28.83016 
L 137.59184 27.666336 
L 138.404288 28.902207 
L 139.216737 30.564894 
L 140.841635 36.522113 
L 141.654084 37.562887 
L 142.466533 42.781853 
L 143.278981 38.754417 
L 144.09143 41.281763 
L 144.903879 45.028346 
L 145.716328 45.735728 
L 146.528777 50.365138 
L 147.341225 50.089509 
L 148.153674 50.472513 
L 148.966123 52.615657 
L 149.778572 52.693743 
L 150.591021 48.359616 
L 151.403469 42.732528 
L 152.215918 43.549395 
L 153.028367 40.56719 
L 153.840816 41.142511 
L 154.653265 46.650144 
L 156.278162 53.163271 
L 157.090611 54.937264 
L 157.90306 54.902031 
L 158.715509 56.605607 
L 160.340406 58.934549 
L 161.965304 60.511863 
L 162.777753 63.004839 
L 163.590202 70.281673 
L 164.40265 72.692296 
L 165.215099 71.963342 
L 166.027548 73.274519 
L 166.839997 74.928626 
L 167.652446 76.325176 
L 168.464895 83.717773 
L 169.277343 85.722288 
L 170.089792 90.328448 
L 170.902241 94.12939 
L 171.71469 95.778847 
L 172.527139 97.018792 
L 173.339587 100.918193 
L 174.152036 103.363425 
L 174.964485 103.813011 
L 175.776934 106.444377 
L 176.589383 108.643557 
L 177.401831 111.313176 
L 178.21428 113.076815 
L 179.026729 114.024881 
L 179.839178 117.278832 
L 180.651627 118.451284 
L 181.464076 120.072123 
L 182.276524 121.082697 
L 183.088973 120.432022 
L 183.901422 123.444331 
L 184.713871 127.723716 
L 185.52632 129.967284 
L 186.338768 132.619166 
L 187.963666 139.203764 
L 188.776115 137.426943 
L 189.588564 138.849282 
L 190.401012 138.216966 
L 191.213461 141.593296 
L 192.02591 142.136692 
L 192.838359 138.223006 
L 193.650808 135.209212 
L 194.463257 137.1946 
L 196.088154 140.651461 
L 196.900603 147.791007 
L 197.713052 146.220883 
L 198.525501 149.10717 
L 199.337949 151.215992 
L 200.150398 154.729896 
L 200.962847 152.175131 
L 201.775296 150.631803 
L 202.587745 149.979115 
L 203.400193 147.414331 
L 204.212642 149.31334 
L 205.025091 144.729517 
L 205.83754 143.728818 
L 206.649989 138.326786 
L 207.462438 144.273987 
L 208.274886 139.775202 
L 209.087335 144.0241 
L 209.899784 142.595242 
L 210.712233 143.83581 
L 211.524682 148.028431 
L 212.33713 149.676882 
L 213.149579 153.425047 
L 213.962028 152.731182 
L 214.774477 153.516603 
L 215.586926 158.51291 
L 216.399374 158.702303 
L 217.211823 157.826858 
L 218.024272 160.21222 
L 218.836721 159.562216 
L 220.461619 165.040225 
L 221.274067 163.84951 
L 222.086516 164.405656 
L 222.898965 158.015724 
L 223.711414 152.576159 
L 224.523863 148.172621 
L 225.336311 151.640843 
L 226.14876 158.281621 
L 226.961209 158.586634 
L 227.773658 161.347522 
L 228.586107 161.678084 
L 229.398555 159.811384 
L 230.211004 160.823971 
L 231.023453 161.02089 
L 231.835902 164.73363 
L 232.648351 165.034808 
L 233.4608 167.060798 
L 234.273248 160.955746 
L 235.085697 161.017439 
L 235.898146 168.248781 
L 236.710595 167.149814 
L 237.523044 169.195985 
L 238.335492 168.167483 
L 239.147941 168.216089 
L 239.96039 170.137196 
L 240.772839 174.209979 
L 241.585288 175.842947 
L 242.397736 175.117636 
L 243.210185 168.638208 
L 244.022634 169.925274 
L 244.835083 171.691837 
L 245.647532 169.271291 
L 246.459981 169.268031 
L 247.272429 173.737624 
L 248.084878 175.566455 
L 248.897327 176.764744 
L 251.334673 179.607218 
L 252.147122 180.110875 
L 256.209366 184.963591 
L 257.021815 186.274888 
L 258.646713 188.230916 
L 259.459162 191.445128 
L 261.896508 194.296134 
L 262.708957 193.37599 
L 266.771201 197.918468 
L 269.208547 200.439223 
L 270.020996 202.920791 
L 272.458343 205.464746 
L 273.270791 201.319461 
L 278.145484 205.907094 
L 278.957933 206.652849 
L 279.770382 208.450355 
L 284.645075 213.167509 
L 285.457524 207.348032 
L 286.269972 208.135898 
L 287.082421 203.945649 
L 295.206909 211.650809 
L 296.019358 215.855151 
L 300.894051 220.307559 
L 301.7065 220.251882 
L 307.393641 225.331548 
L 308.20609 227.105398 
L 309.018539 227.827832 
L 309.830988 225.754243 
L 310.643437 226.470182 
L 311.455886 229.636626 
L 312.268334 225.403092 
L 314.705681 227.649656 
L 315.51813 225.125642 
L 321.205271 230.593633 
L 322.01772 229.999186 
L 322.830169 230.778136 
L 323.642618 232.67796 
L 331.767106 240.315914 
L 334.204452 242.443167 
L 335.016901 244.800055 
L 337.454248 246.998684 
L 338.266696 251.220067 
L 341.516492 254.168094 
L 342.32894 258.7018 
L 343.953838 260.165316 
L 344.766287 267.563186 
L 347.203633 269.725144 
L 348.016082 266.653803 
L 348.828531 267.371708 
L 349.64098 269.514109 
L 352.078326 271.650973 
L 352.890775 273.30019 
L 356.953019 276.816156 
L 357.765468 277.240432 
L 362.640161 281.363044 
L 363.45261 285.117704 
L 364.265058 285.80064 
L 365.077507 282.522218 
L 365.889956 283.215819 
L 366.702405 283.146025 
L 367.514854 287.331624 
L 368.327302 287.882953 
L 369.9522 289.387142 
L 370.764649 289.031318 
L 371.577098 290.384151 
L 372.389546 292.557925 
L 373.201995 294.044929 
L 374.014444 297.976974 
L 374.826893 297.413421 
L 375.639342 295.874336 
L 376.451791 296.133283 
L 377.264239 296.879349 
L 378.076688 295.960236 
L 379.701586 297.391467 
L 380.514035 298.043317 
L 381.326483 296.109459 
L 382.951381 297.35204 
L 383.76383 297.88465 
L 384.576279 301.915394 
L 385.388727 299.020623 
L 387.013625 300.821293 
L 387.826074 304.20733 
L 388.638523 293.20129 
L 389.450972 293.813976 
L 391.075869 287.744133 
L 394.325664 290.595929 
L 395.138113 282.857862 
L 395.950562 283.584874 
L 396.763011 295.334847 
L 397.57546 296.048988 
L 398.387908 294.600596 
L 401.637704 297.593203 
L 403.262601 299.175479 
L 404.07505 308.385499 
L 404.887499 306.940894 
L 405.699948 303.831228 
L 407.324845 304.978802 
L 408.137294 307.817177 
L 420.324026 317.293526 
L 421.136475 317.867192 
L 421.948924 313.249408 
L 422.761373 307.915061 
L 427.636066 311.674131 
L 428.448515 313.37356 
L 433.323207 317.226752 
L 434.135656 318.203196 
L 434.948105 318.882368 
L 435.760554 318.421661 
L 436.573003 314.64555 
L 438.1979 316.077716 
L 439.822798 317.374321 
L 440.635247 315.17677 
L 442.260144 316.460864 
L 443.072593 312.564027 
L 443.885042 305.145449 
L 444.697491 305.767387 
L 446.322388 307.380677 
L 447.134837 302.735162 
L 447.947286 301.599069 
L 453.634428 306.364734 
L 454.446877 310.352048 
L 455.259325 305.443488 
L 456.884223 307.143421 
L 458.509121 309.296295 
L 459.321569 310.546666 
L 460.134018 311.463071 
L 460.946467 313.153058 
L 461.758916 312.165397 
L 462.571365 316.549496 
L 463.383813 319.256792 
L 464.196262 324.568178 
L 465.008711 324.577238 
L 465.82116 328.905325 
L 466.633609 333.908726 
L 468.258506 337.528759 
L 469.070955 342.705327 
L 469.883404 340.719795 
L 470.695853 353.948742 
L 471.508302 354.414051 
L 472.32075 356.343211 
L 473.133199 366.881497 
L 473.945648 369.15584 
L 474.758097 370.245795 
L 475.570546 373.360302 
L 476.382994 365.455946 
L 477.195443 367.492602 
L 478.820341 356.770963 
L 479.63279 359.104698 
L 480.445239 365.778911 
L 481.257687 366.599134 
L 482.070136 366.838787 
L 482.882585 368.175082 
L 485.319931 370.497744 
L 486.13238 368.342496 
L 486.944829 369.48391 
L 487.757278 364.544527 
L 488.569727 364.703289 
L 489.382175 365.115893 
L 490.194624 363.556554 
L 494.256868 367.297193 
L 496.694215 369.53465 
L 497.506664 376.142089 
L 500.756459 378.971116 
L 501.568908 377.694884 
L 502.381356 381.242487 
L 504.006254 382.658523 
L 504.818703 383.855925 
L 505.631152 388.340018 
L 508.880947 390.52157 
L 511.318293 392.248503 
L 513.75564 393.750702 
L 514.568089 394.633481 
L 515.380537 392.607851 
L 516.192986 393.174123 
L 517.005435 391.278111 
L 517.817884 393.395825 
L 520.25523 394.804562 
L 521.067679 401.056848 
L 521.880128 401.537005 
L 522.692577 402.650604 
L 523.505026 402.506115 
L 524.317474 402.499943 
L 525.129923 402.967757 
L 525.942372 403.840553 
L 526.754821 399.811678 
L 527.56727 400.284237 
L 528.379718 394.960748 
L 531.629514 396.953458 
L 532.441963 400.672083 
L 533.254411 400.112533 
L 534.06686 400.023912 
L 534.879309 402.41318 
L 542.191348 406.504658 
L 554.37808 412.814503 
L 555.190529 409.484514 
L 556.002978 409.867614 
L 556.815427 412.336299 
L 564.939915 416.047793 
L 565.752364 416.640634 
L 566.564813 417.001612 
L 567.377261 418.837885 
L 575.50175 422.256015 
L 585.251135 426.107408 
L 590.938277 428.245039 
L 591.750726 426.537413 
L 592.563175 426.83309 
L 593.375623 425.936602 
L 597.437868 427.389752 
L 598.250316 424.62189 
L 613.686844 430.064439 
L 614.499293 431.173089 
L 616.12419 431.719805 
L 616.936639 421.334756 
L 622.623781 423.375342 
L 623.43623 424.08354 
L 638.872757 429.622918 
L 642.122552 430.735487 
L 642.935001 430.242555 
L 647.809694 431.874348 
L 648.622143 421.557859 
L 658.371528 425.223348 
L 659.183977 422.918614 
L 659.996426 422.8902 
L 671.370709 427.070994 
L 672.183158 427.358654 
L 672.995607 417.968792 
L 674.620505 418.539439 
L 675.432954 418.073795 
L 685.182339 421.413083 
L 685.994788 422.450944 
L 693.306827 424.857912 
L 694.119276 423.218545 
L 703.056213 426.061342 
L 703.868662 428.502776 
L 704.681111 424.772431 
L 721.742536 429.790009 
L 728.242126 431.619356 
L 729.054575 431.144172 
L 734.741717 432.740829 
L 735.554166 432.323072 
L 742.053756 434.126545 
L 742.866205 438.871778 
L 749.365795 440.48182 
L 750.178244 439.555541 
L 755.052937 440.788595 
L 755.865386 447.28033 
L 763.989874 449.360079 
L 764.802323 449.362104 
L 778.613953 452.848889 
L 779.426402 458.767737 
L 780.23885 459.101535 
L 781.863748 459.47784 
L 782.676197 452.527075 
L 803.799866 457.295077 
L 809.487008 458.518748 
L 810.299456 457.118316 
L 826.548433 460.578808 
L 827.360881 463.359648 
L 841.172511 466.066213 
L 841.98496 466.820896 
L 861.483732 470.441025 
L 867.170873 471.448987 
L 867.983322 470.806628 
L 871.233117 471.383663 
L 872.045566 473.759089 
L 873.670464 474.038864 
L 874.482913 466.238768 
L 887.482094 468.715087 
L 905.355967 472.055417 
L 923.229841 475.193892 
L 929.729432 476.28 
L 929.729432 476.28 
" clip-path="url(#pea35ab2b4b)" style="fill: none; stroke: #1f77b4; stroke-width: 1.5; stroke-linecap: square"/>
   </g>
   <g id="patch_3">
    <path d="M 77.51125 498.96 
L 77.51125 0 
" style="fill: none; stroke: #000000; stroke-width: 0.8; stroke-linejoin: miter; stroke-linecap: square"/>
   </g>
   <g id="patch_4">
    <path d="M 970.31125 498.96 
L 970.31125 0 
" style="fill: none; stroke: #000000; stroke-width: 0.8; stroke-linejoin: miter; stroke-linecap: square"/>
   </g>
   <g id="patch_5">
    <path d="M 77.51125 498.96 
L 970.31125 498.96 
" style="fill: none; stroke: #000000; stroke-width: 0.8; stroke-linejoin: miter; stroke-linecap: square"/>
   </g>
   <g id="patch_6">
    <path d="M 77.51125 0 
L 970.31125 0 
" style="fill: none; stroke: #000000; stroke-width: 0.8; stroke-linejoin: miter; stroke-linecap: square"/>
   </g>
   <g id="legend_1">
    <g id="patch_7">
     <path d="M 941.71125 33.8 
L 952.11125 33.8 
Q 957.31125 33.8 957.31125 28.6 
L 957.31125 18.2 
Q 957.31125 13 952.11125 13 
L 941.71125 13 
Q 936.51125 13 936.51125 18.2 
L 936.51125 28.6 
Q 936.51125 33.8 941.71125 33.8 
z
" style="fill: #ffffff; opacity: 0.8; stroke: #cccccc; stroke-linejoin: miter"/>
    </g>
   </g>
  </g>
 </g>
 <defs>
  <clipPath id="pea35ab2b4b">
   <rect x="77.51125" y="0" width="892.8" height="498.96"/>
  </clipPath>
 </defs>
</svg>
