<?xml version="1.0" encoding="utf-8" standalone="no"?>
<!DOCTYPE svg PUBLIC "-//W3C//DTD SVG 1.1//EN"
  "http://www.w3.org/Graphics/SVG/1.1/DTD/svg11.dtd">
<!-- Created with matplotlib (https://matplotlib.org/) -->
<svg height="345.6pt" version="1.1" viewBox="0 0 460.8 345.6" width="460.8pt" xmlns="http://www.w3.org/2000/svg" xmlns:xlink="http://www.w3.org/1999/xlink">
 <defs>
  <style type="text/css">
*{stroke-linecap:butt;stroke-linejoin:round;}
  </style>
 </defs>
 <g id="figure_1">
  <g id="patch_1">
   <path d="M 0 345.6 
L 460.8 345.6 
L 460.8 0 
L 0 0 
z
" style="fill:#ffffff;"/>
  </g>
  <g id="axes_1">
   <g id="patch_2">
    <path d="M 57.6 307.584 
L 414.72 307.584 
L 414.72 41.472 
L 57.6 41.472 
z
" style="fill:#ffffff;"/>
   </g>
   <g id="PathCollection_1">
    <defs>
     <path d="M 0 3 
C 0.795609 3 1.55874 2.683901 2.12132 2.12132 
C 2.683901 1.55874 3 0.795609 3 0 
C 3 -0.795609 2.683901 -1.55874 2.12132 -2.12132 
C 1.55874 -2.683901 0.795609 -3 0 -3 
C -0.795609 -3 -1.55874 -2.683901 -2.12132 -2.12132 
C -2.683901 -1.55874 -3 -0.795609 -3 0 
C -3 0.795609 -2.683901 1.55874 -2.12132 2.12132 
C -1.55874 2.683901 -0.795609 3 0 3 
z
" id="mef351c6282" style="stroke:#1f77b4;"/>
    </defs>
    <g clip-path="url(#p25d6dc864f)">
     <use style="fill:#1f77b4;stroke:#1f77b4;" x="352.707673" xlink:href="#mef351c6282" y="112.178096"/>
     <use style="fill:#1f77b4;stroke:#1f77b4;" x="338.898383" xlink:href="#mef351c6282" y="122.420797"/>
     <use style="fill:#1f77b4;stroke:#1f77b4;" x="335.990293" xlink:href="#mef351c6282" y="106.731435"/>
     <use style="fill:#1f77b4;stroke:#1f77b4;" x="334.742249" xlink:href="#mef351c6282" y="128.578602"/>
     <use style="fill:#1f77b4;stroke:#1f77b4;" x="308.207442" xlink:href="#mef351c6282" y="83.486181"/>
     <use style="fill:#1f77b4;stroke:#1f77b4;" x="338.508848" xlink:href="#mef351c6282" y="112.187364"/>
     <use style="fill:#1f77b4;stroke:#1f77b4;" x="363.010623" xlink:href="#mef351c6282" y="132.869089"/>
     <use style="fill:#1f77b4;stroke:#1f77b4;" x="352.192649" xlink:href="#mef351c6282" y="120.393157"/>
     <use style="fill:#1f77b4;stroke:#1f77b4;" x="352.943931" xlink:href="#mef351c6282" y="139.786521"/>
     <use style="fill:#1f77b4;stroke:#1f77b4;" x="350.954767" xlink:href="#mef351c6282" y="128.485582"/>
     <use style="fill:#1f77b4;stroke:#1f77b4;" x="345.099607" xlink:href="#mef351c6282" y="118.046156"/>
     <use style="fill:#1f77b4;stroke:#1f77b4;" x="344.637796" xlink:href="#mef351c6282" y="141.019242"/>
     <use style="fill:#1f77b4;stroke:#1f77b4;" x="346.718963" xlink:href="#mef351c6282" y="126.162919"/>
     <use style="fill:#1f77b4;stroke:#1f77b4;" x="336.056388" xlink:href="#mef351c6282" y="104.917046"/>
     <use style="fill:#1f77b4;stroke:#1f77b4;" x="339.061114" xlink:href="#mef351c6282" y="90.200284"/>
     <use style="fill:#1f77b4;stroke:#1f77b4;" x="321.546101" xlink:href="#mef351c6282" y="90.237631"/>
     <use style="fill:#1f77b4;stroke:#1f77b4;" x="347.703506" xlink:href="#mef351c6282" y="120.049195"/>
     <use style="fill:#1f77b4;stroke:#1f77b4;" x="341.912661" xlink:href="#mef351c6282" y="112.459919"/>
     <use style="fill:#1f77b4;stroke:#1f77b4;" x="345.137973" xlink:href="#mef351c6282" y="125.947809"/>
     <use style="fill:#1f77b4;stroke:#1f77b4;" x="353.702263" xlink:href="#mef351c6282" y="125.98687"/>
    </g>
   </g>
   <g id="PathCollection_2">
    <defs>
     <path d="M -2.99994 2.99994 
L 3.00006 2.99994 
L 3.00006 -3.00006 
L -2.99994 -3.00006 
z
" id="md8ceece45e" style="stroke:#ff7f0e;"/>
    </defs>
    <g clip-path="url(#p25d6dc864f)">
     <use style="fill:#ff7f0e;stroke:#ff7f0e;" x="119.916072" xlink:href="#md8ceece45e" y="199.181406"/>
     <use style="fill:#ff7f0e;stroke:#ff7f0e;" x="119.810109" xlink:href="#md8ceece45e" y="200.333176"/>
     <use style="fill:#ff7f0e;stroke:#ff7f0e;" x="142.963169" xlink:href="#md8ceece45e" y="213.040661"/>
     <use style="fill:#ff7f0e;stroke:#ff7f0e;" x="167.389812" xlink:href="#md8ceece45e" y="230.455503"/>
     <use style="fill:#ff7f0e;stroke:#ff7f0e;" x="116.766715" xlink:href="#md8ceece45e" y="194.434509"/>
     <use style="fill:#ff7f0e;stroke:#ff7f0e;" x="119.923425" xlink:href="#md8ceece45e" y="201.648843"/>
     <use style="fill:#ff7f0e;stroke:#ff7f0e;" x="127.033381" xlink:href="#md8ceece45e" y="215.48075"/>
     <use style="fill:#ff7f0e;stroke:#ff7f0e;" x="128.779422" xlink:href="#md8ceece45e" y="214.010016"/>
     <use style="fill:#ff7f0e;stroke:#ff7f0e;" x="127.741906" xlink:href="#md8ceece45e" y="222.096366"/>
     <use style="fill:#ff7f0e;stroke:#ff7f0e;" x="131.201882" xlink:href="#md8ceece45e" y="211.00721"/>
     <use style="fill:#ff7f0e;stroke:#ff7f0e;" x="138.537371" xlink:href="#md8ceece45e" y="213.023402"/>
     <use style="fill:#ff7f0e;stroke:#ff7f0e;" x="132.032662" xlink:href="#md8ceece45e" y="209.664437"/>
     <use style="fill:#ff7f0e;stroke:#ff7f0e;" x="135.375652" xlink:href="#md8ceece45e" y="209.25148"/>
     <use style="fill:#ff7f0e;stroke:#ff7f0e;" x="116.389985" xlink:href="#md8ceece45e" y="204.644885"/>
     <use style="fill:#ff7f0e;stroke:#ff7f0e;" x="121.501882" xlink:href="#md8ceece45e" y="209.273114"/>
     <use style="fill:#ff7f0e;stroke:#ff7f0e;" x="127.495844" xlink:href="#md8ceece45e" y="207.98005"/>
     <use style="fill:#ff7f0e;stroke:#ff7f0e;" x="176.173392" xlink:href="#md8ceece45e" y="232.09557"/>
     <use style="fill:#ff7f0e;stroke:#ff7f0e;" x="149.888005" xlink:href="#md8ceece45e" y="216.204681"/>
     <use style="fill:#ff7f0e;stroke:#ff7f0e;" x="143.342231" xlink:href="#md8ceece45e" y="213.62723"/>
     <use style="fill:#ff7f0e;stroke:#ff7f0e;" x="140.446736" xlink:href="#md8ceece45e" y="211.969526"/>
    </g>
   </g>
   <g id="PathCollection_3">
    <defs>
     <path d="M 0 -3 
L -3 3 
L 3 3 
z
" id="m20bfb606bc" style="stroke:#2ca02c;"/>
    </defs>
    <g clip-path="url(#p25d6dc864f)">
     <use style="fill:#2ca02c;stroke:#2ca02c;" x="288.678894" xlink:href="#m20bfb606bc" y="276.966361"/>
     <use style="fill:#2ca02c;stroke:#2ca02c;" x="238.34184" xlink:href="#m20bfb606bc" y="279.880149"/>
     <use style="fill:#2ca02c;stroke:#2ca02c;" x="118.879444" xlink:href="#m20bfb606bc" y="256.731542"/>
     <use style="fill:#2ca02c;stroke:#2ca02c;" x="184.577587" xlink:href="#m20bfb606bc" y="294.154107"/>
     <use style="fill:#2ca02c;stroke:#2ca02c;" x="151.649432" xlink:href="#m20bfb606bc" y="285.978609"/>
     <use style="fill:#2ca02c;stroke:#2ca02c;" x="162.243654" xlink:href="#m20bfb606bc" y="287.665752"/>
     <use style="fill:#2ca02c;stroke:#2ca02c;" x="227.372876" xlink:href="#m20bfb606bc" y="292.557608"/>
     <use style="fill:#2ca02c;stroke:#2ca02c;" x="206.238396" xlink:href="#m20bfb606bc" y="289.750975"/>
     <use style="fill:#2ca02c;stroke:#2ca02c;" x="218.379928" xlink:href="#m20bfb606bc" y="286.561433"/>
     <use style="fill:#2ca02c;stroke:#2ca02c;" x="160.042037" xlink:href="#m20bfb606bc" y="272.017768"/>
     <use style="fill:#2ca02c;stroke:#2ca02c;" x="173.46787" xlink:href="#m20bfb606bc" y="282.486831"/>
     <use style="fill:#2ca02c;stroke:#2ca02c;" x="206.356744" xlink:href="#m20bfb606bc" y="283.633553"/>
     <use style="fill:#2ca02c;stroke:#2ca02c;" x="219.871879" xlink:href="#m20bfb606bc" y="275.692293"/>
     <use style="fill:#2ca02c;stroke:#2ca02c;" x="217.096785" xlink:href="#m20bfb606bc" y="264.316804"/>
     <use style="fill:#2ca02c;stroke:#2ca02c;" x="234.607573" xlink:href="#m20bfb606bc" y="272.347379"/>
     <use style="fill:#2ca02c;stroke:#2ca02c;" x="235.46276" xlink:href="#m20bfb606bc" y="286.40967"/>
     <use style="fill:#2ca02c;stroke:#2ca02c;" x="205.311354" xlink:href="#m20bfb606bc" y="279.785164"/>
     <use style="fill:#2ca02c;stroke:#2ca02c;" x="218.653659" xlink:href="#m20bfb606bc" y="276.722"/>
     <use style="fill:#2ca02c;stroke:#2ca02c;" x="255.239842" xlink:href="#m20bfb606bc" y="278.029223"/>
     <use style="fill:#2ca02c;stroke:#2ca02c;" x="256.29363" xlink:href="#m20bfb606bc" y="268.155332"/>
    </g>
   </g>
   <g id="PathCollection_4">
    <defs>
     <path d="M 0 -3 
L -0.673542 -0.927051 
L -2.85317 -0.927051 
L -1.089814 0.354102 
L -1.763356 2.427051 
L -0 1.145898 
L 1.763356 2.427051 
L 1.089814 0.354102 
L 2.85317 -0.927051 
L 0.673542 -0.927051 
z
" id="m5f2c974300" style="stroke:#d62728;"/>
    </defs>
    <g clip-path="url(#p25d6dc864f)">
     <use style="fill:#d62728;stroke:#d62728;" x="125.134367" xlink:href="#m5f2c974300" y="155.056119"/>
     <use style="fill:#d62728;stroke:#d62728;" x="119.752353" xlink:href="#m5f2c974300" y="153.177603"/>
     <use style="fill:#d62728;stroke:#d62728;" x="135.440812" xlink:href="#m5f2c974300" y="145.933832"/>
     <use style="fill:#d62728;stroke:#d62728;" x="135.093322" xlink:href="#m5f2c974300" y="148.019039"/>
     <use style="fill:#d62728;stroke:#d62728;" x="128.609624" xlink:href="#m5f2c974300" y="150.424105"/>
     <use style="fill:#d62728;stroke:#d62728;" x="144.985327" xlink:href="#m5f2c974300" y="137.482313"/>
     <use style="fill:#d62728;stroke:#d62728;" x="140.508378" xlink:href="#m5f2c974300" y="143.770801"/>
     <use style="fill:#d62728;stroke:#d62728;" x="136.009208" xlink:href="#m5f2c974300" y="143.681787"/>
     <use style="fill:#d62728;stroke:#d62728;" x="131.346697" xlink:href="#m5f2c974300" y="135.569134"/>
     <use style="fill:#d62728;stroke:#d62728;" x="164.331832" xlink:href="#m5f2c974300" y="152.588762"/>
     <use style="fill:#d62728;stroke:#d62728;" x="139.066621" xlink:href="#m5f2c974300" y="139.690595"/>
     <use style="fill:#d62728;stroke:#d62728;" x="133.444242" xlink:href="#m5f2c974300" y="144.469125"/>
     <use style="fill:#d62728;stroke:#d62728;" x="162.572173" xlink:href="#m5f2c974300" y="149.841309"/>
     <use style="fill:#d62728;stroke:#d62728;" x="153.051931" xlink:href="#m5f2c974300" y="145.662077"/>
     <use style="fill:#d62728;stroke:#d62728;" x="167.732841" xlink:href="#m5f2c974300" y="146.927471"/>
     <use style="fill:#d62728;stroke:#d62728;" x="134.183829" xlink:href="#m5f2c974300" y="141.66457"/>
     <use style="fill:#d62728;stroke:#d62728;" x="136.658837" xlink:href="#m5f2c974300" y="143.723312"/>
     <use style="fill:#d62728;stroke:#d62728;" x="139.654223" xlink:href="#m5f2c974300" y="153.640353"/>
     <use style="fill:#d62728;stroke:#d62728;" x="121.724766" xlink:href="#m5f2c974300" y="135.977915"/>
     <use style="fill:#d62728;stroke:#d62728;" x="162.762128" xlink:href="#m5f2c974300" y="148.917644"/>
    </g>
   </g>
   <g id="PathCollection_5">
    <defs>
     <path d="M 0 3 
C 0.795609 3 1.55874 2.683901 2.12132 2.12132 
C 2.683901 1.55874 3 0.795609 3 0 
C 3 -0.795609 2.683901 -1.55874 2.12132 -2.12132 
C 1.55874 -2.683901 0.795609 -3 0 -3 
C -0.795609 -3 -1.55874 -2.683901 -2.12132 -2.12132 
C -2.683901 -1.55874 -3 -0.795609 -3 0 
C -3 0.795609 -2.683901 1.55874 -2.12132 2.12132 
C -1.55874 2.683901 -0.795609 3 0 3 
z
" id="mca90f6b776" style="stroke:#9467bd;"/>
    </defs>
    <g clip-path="url(#p25d6dc864f)">
     <use style="fill:#9467bd;stroke:#9467bd;" x="390.684873" xlink:href="#mca90f6b776" y="182.196039"/>
     <use style="fill:#9467bd;stroke:#9467bd;" x="391.789557" xlink:href="#mca90f6b776" y="174.7972"/>
     <use style="fill:#9467bd;stroke:#9467bd;" x="390.700432" xlink:href="#mca90f6b776" y="177.892134"/>
     <use style="fill:#9467bd;stroke:#9467bd;" x="390.510924" xlink:href="#mca90f6b776" y="191.378686"/>
     <use style="fill:#9467bd;stroke:#9467bd;" x="385.019448" xlink:href="#mca90f6b776" y="178.235011"/>
     <use style="fill:#9467bd;stroke:#9467bd;" x="390.228472" xlink:href="#mca90f6b776" y="163.087029"/>
     <use style="fill:#9467bd;stroke:#9467bd;" x="378.401704" xlink:href="#mca90f6b776" y="178.155119"/>
     <use style="fill:#9467bd;stroke:#9467bd;" x="388.7382" xlink:href="#mca90f6b776" y="194.505083"/>
     <use style="fill:#9467bd;stroke:#9467bd;" x="384.674292" xlink:href="#mca90f6b776" y="190.438104"/>
     <use style="fill:#9467bd;stroke:#9467bd;" x="388.436929" xlink:href="#mca90f6b776" y="192.40787"/>
     <use style="fill:#9467bd;stroke:#9467bd;" x="386.02216" xlink:href="#mca90f6b776" y="188.67355"/>
     <use style="fill:#9467bd;stroke:#9467bd;" x="388.563129" xlink:href="#mca90f6b776" y="184.036905"/>
     <use style="fill:#9467bd;stroke:#9467bd;" x="391.072271" xlink:href="#mca90f6b776" y="181.040293"/>
     <use style="fill:#9467bd;stroke:#9467bd;" x="396.12163" xlink:href="#mca90f6b776" y="188.516848"/>
     <use style="fill:#9467bd;stroke:#9467bd;" x="382.204818" xlink:href="#mca90f6b776" y="170.596917"/>
     <use style="fill:#9467bd;stroke:#9467bd;" x="394.07877" xlink:href="#mca90f6b776" y="188.476478"/>
     <use style="fill:#9467bd;stroke:#9467bd;" x="386.388539" xlink:href="#mca90f6b776" y="173.909829"/>
     <use style="fill:#9467bd;stroke:#9467bd;" x="396.842572" xlink:href="#mca90f6b776" y="186.663678"/>
     <use style="fill:#9467bd;stroke:#9467bd;" x="386.052392" xlink:href="#mca90f6b776" y="165.027931"/>
     <use style="fill:#9467bd;stroke:#9467bd;" x="393.821247" xlink:href="#mca90f6b776" y="192.837178"/>
    </g>
   </g>
   <g id="PathCollection_6">
    <defs>
     <path d="M -2.99994 2.99994 
L 3.00006 2.99994 
L 3.00006 -3.00006 
L -2.99994 -3.00006 
z
" id="me2d264c38b" style="stroke:#8c564b;"/>
    </defs>
    <g clip-path="url(#p25d6dc864f)">
     <use style="fill:#8c564b;stroke:#8c564b;" x="300.523181" xlink:href="#me2d264c38b" y="232.201986"/>
     <use style="fill:#8c564b;stroke:#8c564b;" x="242.501245" xlink:href="#me2d264c38b" y="200.428344"/>
     <use style="fill:#8c564b;stroke:#8c564b;" x="272.046934" xlink:href="#me2d264c38b" y="208.983088"/>
     <use style="fill:#8c564b;stroke:#8c564b;" x="268.267457" xlink:href="#me2d264c38b" y="197.436273"/>
     <use style="fill:#8c564b;stroke:#8c564b;" x="270.274411" xlink:href="#me2d264c38b" y="201.691232"/>
     <use style="fill:#8c564b;stroke:#8c564b;" x="244.622465" xlink:href="#me2d264c38b" y="202.043804"/>
     <use style="fill:#8c564b;stroke:#8c564b;" x="253.317844" xlink:href="#me2d264c38b" y="224.491693"/>
     <use style="fill:#8c564b;stroke:#8c564b;" x="242.701417" xlink:href="#me2d264c38b" y="207.140955"/>
     <use style="fill:#8c564b;stroke:#8c564b;" x="193.598287" xlink:href="#me2d264c38b" y="208.037373"/>
     <use style="fill:#8c564b;stroke:#8c564b;" x="184.745745" xlink:href="#me2d264c38b" y="203.265104"/>
     <use style="fill:#8c564b;stroke:#8c564b;" x="232.813543" xlink:href="#me2d264c38b" y="217.50911"/>
     <use style="fill:#8c564b;stroke:#8c564b;" x="235.367102" xlink:href="#me2d264c38b" y="213.110913"/>
     <use style="fill:#8c564b;stroke:#8c564b;" x="220.894725" xlink:href="#me2d264c38b" y="204.640719"/>
     <use style="fill:#8c564b;stroke:#8c564b;" x="191.071651" xlink:href="#me2d264c38b" y="201.315593"/>
     <use style="fill:#8c564b;stroke:#8c564b;" x="221.170936" xlink:href="#me2d264c38b" y="243.588649"/>
     <use style="fill:#8c564b;stroke:#8c564b;" x="198.328944" xlink:href="#me2d264c38b" y="217.663229"/>
     <use style="fill:#8c564b;stroke:#8c564b;" x="201.992025" xlink:href="#me2d264c38b" y="212.74966"/>
     <use style="fill:#8c564b;stroke:#8c564b;" x="211.993017" xlink:href="#me2d264c38b" y="218.010279"/>
     <use style="fill:#8c564b;stroke:#8c564b;" x="218.759013" xlink:href="#me2d264c38b" y="231.804105"/>
     <use style="fill:#8c564b;stroke:#8c564b;" x="210.78896" xlink:href="#me2d264c38b" y="222.365777"/>
    </g>
   </g>
   <g id="PathCollection_7">
    <defs>
     <path d="M 0 -3 
L -3 3 
L 3 3 
z
" id="m908b72931d" style="stroke:#e377c2;"/>
    </defs>
    <g clip-path="url(#p25d6dc864f)">
     <use style="fill:#e377c2;stroke:#e377c2;" x="75.712029" xlink:href="#m908b72931d" y="63.317769"/>
     <use style="fill:#e377c2;stroke:#e377c2;" x="81.105097" xlink:href="#m908b72931d" y="60.390422"/>
     <use style="fill:#e377c2;stroke:#e377c2;" x="84.342139" xlink:href="#m908b72931d" y="63.126258"/>
     <use style="fill:#e377c2;stroke:#e377c2;" x="84.116372" xlink:href="#m908b72931d" y="55.463267"/>
     <use style="fill:#e377c2;stroke:#e377c2;" x="93.277009" xlink:href="#m908b72931d" y="59.922506"/>
     <use style="fill:#e377c2;stroke:#e377c2;" x="79.467213" xlink:href="#m908b72931d" y="56.762802"/>
     <use style="fill:#e377c2;stroke:#e377c2;" x="109.21394" xlink:href="#m908b72931d" y="74.464942"/>
     <use style="fill:#e377c2;stroke:#e377c2;" x="83.031331" xlink:href="#m908b72931d" y="56.326319"/>
     <use style="fill:#e377c2;stroke:#e377c2;" x="108.823632" xlink:href="#m908b72931d" y="69.567394"/>
     <use style="fill:#e377c2;stroke:#e377c2;" x="138.341757" xlink:href="#m908b72931d" y="90.540589"/>
     <use style="fill:#e377c2;stroke:#e377c2;" x="152.520774" xlink:href="#m908b72931d" y="118.976895"/>
     <use style="fill:#e377c2;stroke:#e377c2;" x="133.782397" xlink:href="#m908b72931d" y="105.592673"/>
     <use style="fill:#e377c2;stroke:#e377c2;" x="116.100285" xlink:href="#m908b72931d" y="90.032207"/>
     <use style="fill:#e377c2;stroke:#e377c2;" x="126.24655" xlink:href="#m908b72931d" y="91.135234"/>
     <use style="fill:#e377c2;stroke:#e377c2;" x="109.531483" xlink:href="#m908b72931d" y="86.083278"/>
     <use style="fill:#e377c2;stroke:#e377c2;" x="102.715785" xlink:href="#m908b72931d" y="84.78842"/>
     <use style="fill:#e377c2;stroke:#e377c2;" x="123.13583" xlink:href="#m908b72931d" y="90.379916"/>
     <use style="fill:#e377c2;stroke:#e377c2;" x="131.472081" xlink:href="#m908b72931d" y="97.445169"/>
     <use style="fill:#e377c2;stroke:#e377c2;" x="114.979835" xlink:href="#m908b72931d" y="88.618591"/>
     <use style="fill:#e377c2;stroke:#e377c2;" x="117.08852" xlink:href="#m908b72931d" y="90.420474"/>
    </g>
   </g>
   <g id="PathCollection_8">
    <defs>
     <path d="M 0 -3 
L -0.673542 -0.927051 
L -2.85317 -0.927051 
L -1.089814 0.354102 
L -1.763356 2.427051 
L -0 1.145898 
L 1.763356 2.427051 
L 1.089814 0.354102 
L 2.85317 -0.927051 
L 0.673542 -0.927051 
z
" id="mf88ac9f57f" style="stroke:#7f7f7f;"/>
    </defs>
    <g clip-path="url(#p25d6dc864f)">
     <use style="fill:#7f7f7f;stroke:#7f7f7f;" x="111.028503" xlink:href="#mf88ac9f57f" y="245.361113"/>
     <use style="fill:#7f7f7f;stroke:#7f7f7f;" x="120.701802" xlink:href="#mf88ac9f57f" y="238.24297"/>
     <use style="fill:#7f7f7f;stroke:#7f7f7f;" x="103.419515" xlink:href="#mf88ac9f57f" y="223.099057"/>
     <use style="fill:#7f7f7f;stroke:#7f7f7f;" x="99.586104" xlink:href="#mf88ac9f57f" y="203.495474"/>
     <use style="fill:#7f7f7f;stroke:#7f7f7f;" x="97.992093" xlink:href="#mf88ac9f57f" y="211.752215"/>
     <use style="fill:#7f7f7f;stroke:#7f7f7f;" x="87.255154" xlink:href="#mf88ac9f57f" y="210.552355"/>
     <use style="fill:#7f7f7f;stroke:#7f7f7f;" x="105.366789" xlink:href="#mf88ac9f57f" y="217.209059"/>
     <use style="fill:#7f7f7f;stroke:#7f7f7f;" x="99.556433" xlink:href="#mf88ac9f57f" y="219.716336"/>
     <use style="fill:#7f7f7f;stroke:#7f7f7f;" x="103.901697" xlink:href="#mf88ac9f57f" y="230.833367"/>
     <use style="fill:#7f7f7f;stroke:#7f7f7f;" x="108.786589" xlink:href="#mf88ac9f57f" y="193.665705"/>
     <use style="fill:#7f7f7f;stroke:#7f7f7f;" x="115.064333" xlink:href="#mf88ac9f57f" y="238.48889"/>
     <use style="fill:#7f7f7f;stroke:#7f7f7f;" x="117.439533" xlink:href="#mf88ac9f57f" y="226.87799"/>
     <use style="fill:#7f7f7f;stroke:#7f7f7f;" x="107.93706" xlink:href="#mf88ac9f57f" y="198.827565"/>
     <use style="fill:#7f7f7f;stroke:#7f7f7f;" x="98.457918" xlink:href="#mf88ac9f57f" y="203.959575"/>
     <use style="fill:#7f7f7f;stroke:#7f7f7f;" x="115.908625" xlink:href="#mf88ac9f57f" y="230.517518"/>
     <use style="fill:#7f7f7f;stroke:#7f7f7f;" x="127.083427" xlink:href="#mf88ac9f57f" y="216.988783"/>
     <use style="fill:#7f7f7f;stroke:#7f7f7f;" x="119.550372" xlink:href="#mf88ac9f57f" y="188.155908"/>
     <use style="fill:#7f7f7f;stroke:#7f7f7f;" x="109.440033" xlink:href="#mf88ac9f57f" y="200.941974"/>
     <use style="fill:#7f7f7f;stroke:#7f7f7f;" x="100.78742" xlink:href="#mf88ac9f57f" y="205.675158"/>
     <use style="fill:#7f7f7f;stroke:#7f7f7f;" x="107.336595" xlink:href="#mf88ac9f57f" y="194.435456"/>
    </g>
   </g>
   <g id="matplotlib.axis_1">
    <g id="xtick_1">
     <g id="line2d_1">
      <defs>
       <path d="M 0 0 
L 0 3.5 
" id="mee7dd27d95" style="stroke:#000000;stroke-width:0.8;"/>
      </defs>
      <g>
       <use style="stroke:#000000;stroke-width:0.8;" x="65.331309" xlink:href="#mee7dd27d95" y="307.584"/>
      </g>
     </g>
     <g id="text_1">
      <!-- −4 -->
      <defs>
       <path d="M 10.59375 35.5 
L 73.1875 35.5 
L 73.1875 27.203125 
L 10.59375 27.203125 
z
" id="DejaVuSans-8722"/>
       <path d="M 37.796875 64.3125 
L 12.890625 25.390625 
L 37.796875 25.390625 
z
M 35.203125 72.90625 
L 47.609375 72.90625 
L 47.609375 25.390625 
L 58.015625 25.390625 
L 58.015625 17.1875 
L 47.609375 17.1875 
L 47.609375 0 
L 37.796875 0 
L 37.796875 17.1875 
L 4.890625 17.1875 
L 4.890625 26.703125 
z
" id="DejaVuSans-52"/>
      </defs>
      <g transform="translate(55.011778 325.221812)scale(0.14 -0.14)">
       <use xlink:href="#DejaVuSans-8722"/>
       <use x="83.789062" xlink:href="#DejaVuSans-52"/>
      </g>
     </g>
    </g>
    <g id="xtick_2">
     <g id="line2d_2">
      <g>
       <use style="stroke:#000000;stroke-width:0.8;" x="136.543804" xlink:href="#mee7dd27d95" y="307.584"/>
      </g>
     </g>
     <g id="text_2">
      <!-- −2 -->
      <defs>
       <path d="M 19.1875 8.296875 
L 53.609375 8.296875 
L 53.609375 0 
L 7.328125 0 
L 7.328125 8.296875 
Q 12.9375 14.109375 22.625 23.890625 
Q 32.328125 33.6875 34.8125 36.53125 
Q 39.546875 41.84375 41.421875 45.53125 
Q 43.3125 49.21875 43.3125 52.78125 
Q 43.3125 58.59375 39.234375 62.25 
Q 35.15625 65.921875 28.609375 65.921875 
Q 23.96875 65.921875 18.8125 64.3125 
Q 13.671875 62.703125 7.8125 59.421875 
L 7.8125 69.390625 
Q 13.765625 71.78125 18.9375 73 
Q 24.125 74.21875 28.421875 74.21875 
Q 39.75 74.21875 46.484375 68.546875 
Q 53.21875 62.890625 53.21875 53.421875 
Q 53.21875 48.921875 51.53125 44.890625 
Q 49.859375 40.875 45.40625 35.40625 
Q 44.1875 33.984375 37.640625 27.21875 
Q 31.109375 20.453125 19.1875 8.296875 
z
" id="DejaVuSans-50"/>
      </defs>
      <g transform="translate(126.224273 325.221812)scale(0.14 -0.14)">
       <use xlink:href="#DejaVuSans-8722"/>
       <use x="83.789062" xlink:href="#DejaVuSans-50"/>
      </g>
     </g>
    </g>
    <g id="xtick_3">
     <g id="line2d_3">
      <g>
       <use style="stroke:#000000;stroke-width:0.8;" x="207.756299" xlink:href="#mee7dd27d95" y="307.584"/>
      </g>
     </g>
     <g id="text_3">
      <!-- 0 -->
      <defs>
       <path d="M 31.78125 66.40625 
Q 24.171875 66.40625 20.328125 58.90625 
Q 16.5 51.421875 16.5 36.375 
Q 16.5 21.390625 20.328125 13.890625 
Q 24.171875 6.390625 31.78125 6.390625 
Q 39.453125 6.390625 43.28125 13.890625 
Q 47.125 21.390625 47.125 36.375 
Q 47.125 51.421875 43.28125 58.90625 
Q 39.453125 66.40625 31.78125 66.40625 
z
M 31.78125 74.21875 
Q 44.046875 74.21875 50.515625 64.515625 
Q 56.984375 54.828125 56.984375 36.375 
Q 56.984375 17.96875 50.515625 8.265625 
Q 44.046875 -1.421875 31.78125 -1.421875 
Q 19.53125 -1.421875 13.0625 8.265625 
Q 6.59375 17.96875 6.59375 36.375 
Q 6.59375 54.828125 13.0625 64.515625 
Q 19.53125 74.21875 31.78125 74.21875 
z
" id="DejaVuSans-48"/>
      </defs>
      <g transform="translate(203.302549 325.221812)scale(0.14 -0.14)">
       <use xlink:href="#DejaVuSans-48"/>
      </g>
     </g>
    </g>
    <g id="xtick_4">
     <g id="line2d_4">
      <g>
       <use style="stroke:#000000;stroke-width:0.8;" x="278.968795" xlink:href="#mee7dd27d95" y="307.584"/>
      </g>
     </g>
     <g id="text_4">
      <!-- 2 -->
      <g transform="translate(274.515045 325.221812)scale(0.14 -0.14)">
       <use xlink:href="#DejaVuSans-50"/>
      </g>
     </g>
    </g>
    <g id="xtick_5">
     <g id="line2d_5">
      <g>
       <use style="stroke:#000000;stroke-width:0.8;" x="350.18129" xlink:href="#mee7dd27d95" y="307.584"/>
      </g>
     </g>
     <g id="text_5">
      <!-- 4 -->
      <g transform="translate(345.72754 325.221812)scale(0.14 -0.14)">
       <use xlink:href="#DejaVuSans-52"/>
      </g>
     </g>
    </g>
    <g id="text_6">
     <!-- First component -->
     <defs>
      <path d="M 9.8125 72.90625 
L 51.703125 72.90625 
L 51.703125 64.59375 
L 19.671875 64.59375 
L 19.671875 43.109375 
L 48.578125 43.109375 
L 48.578125 34.8125 
L 19.671875 34.8125 
L 19.671875 0 
L 9.8125 0 
z
" id="DejaVuSans-70"/>
      <path d="M 9.421875 54.6875 
L 18.40625 54.6875 
L 18.40625 0 
L 9.421875 0 
z
M 9.421875 75.984375 
L 18.40625 75.984375 
L 18.40625 64.59375 
L 9.421875 64.59375 
z
" id="DejaVuSans-105"/>
      <path d="M 41.109375 46.296875 
Q 39.59375 47.171875 37.8125 47.578125 
Q 36.03125 48 33.890625 48 
Q 26.265625 48 22.1875 43.046875 
Q 18.109375 38.09375 18.109375 28.8125 
L 18.109375 0 
L 9.078125 0 
L 9.078125 54.6875 
L 18.109375 54.6875 
L 18.109375 46.1875 
Q 20.953125 51.171875 25.484375 53.578125 
Q 30.03125 56 36.53125 56 
Q 37.453125 56 38.578125 55.875 
Q 39.703125 55.765625 41.0625 55.515625 
z
" id="DejaVuSans-114"/>
      <path d="M 44.28125 53.078125 
L 44.28125 44.578125 
Q 40.484375 46.53125 36.375 47.5 
Q 32.28125 48.484375 27.875 48.484375 
Q 21.1875 48.484375 17.84375 46.4375 
Q 14.5 44.390625 14.5 40.28125 
Q 14.5 37.15625 16.890625 35.375 
Q 19.28125 33.59375 26.515625 31.984375 
L 29.59375 31.296875 
Q 39.15625 29.25 43.1875 25.515625 
Q 47.21875 21.78125 47.21875 15.09375 
Q 47.21875 7.46875 41.1875 3.015625 
Q 35.15625 -1.421875 24.609375 -1.421875 
Q 20.21875 -1.421875 15.453125 -0.5625 
Q 10.6875 0.296875 5.421875 2 
L 5.421875 11.28125 
Q 10.40625 8.6875 15.234375 7.390625 
Q 20.0625 6.109375 24.8125 6.109375 
Q 31.15625 6.109375 34.5625 8.28125 
Q 37.984375 10.453125 37.984375 14.40625 
Q 37.984375 18.0625 35.515625 20.015625 
Q 33.0625 21.96875 24.703125 23.78125 
L 21.578125 24.515625 
Q 13.234375 26.265625 9.515625 29.90625 
Q 5.8125 33.546875 5.8125 39.890625 
Q 5.8125 47.609375 11.28125 51.796875 
Q 16.75 56 26.8125 56 
Q 31.78125 56 36.171875 55.265625 
Q 40.578125 54.546875 44.28125 53.078125 
z
" id="DejaVuSans-115"/>
      <path d="M 18.3125 70.21875 
L 18.3125 54.6875 
L 36.8125 54.6875 
L 36.8125 47.703125 
L 18.3125 47.703125 
L 18.3125 18.015625 
Q 18.3125 11.328125 20.140625 9.421875 
Q 21.96875 7.515625 27.59375 7.515625 
L 36.8125 7.515625 
L 36.8125 0 
L 27.59375 0 
Q 17.1875 0 13.234375 3.875 
Q 9.28125 7.765625 9.28125 18.015625 
L 9.28125 47.703125 
L 2.6875 47.703125 
L 2.6875 54.6875 
L 9.28125 54.6875 
L 9.28125 70.21875 
z
" id="DejaVuSans-116"/>
      <path id="DejaVuSans-32"/>
      <path d="M 48.78125 52.59375 
L 48.78125 44.1875 
Q 44.96875 46.296875 41.140625 47.34375 
Q 37.3125 48.390625 33.40625 48.390625 
Q 24.65625 48.390625 19.8125 42.84375 
Q 14.984375 37.3125 14.984375 27.296875 
Q 14.984375 17.28125 19.8125 11.734375 
Q 24.65625 6.203125 33.40625 6.203125 
Q 37.3125 6.203125 41.140625 7.25 
Q 44.96875 8.296875 48.78125 10.40625 
L 48.78125 2.09375 
Q 45.015625 0.34375 40.984375 -0.53125 
Q 36.96875 -1.421875 32.421875 -1.421875 
Q 20.0625 -1.421875 12.78125 6.34375 
Q 5.515625 14.109375 5.515625 27.296875 
Q 5.515625 40.671875 12.859375 48.328125 
Q 20.21875 56 33.015625 56 
Q 37.15625 56 41.109375 55.140625 
Q 45.0625 54.296875 48.78125 52.59375 
z
" id="DejaVuSans-99"/>
      <path d="M 30.609375 48.390625 
Q 23.390625 48.390625 19.1875 42.75 
Q 14.984375 37.109375 14.984375 27.296875 
Q 14.984375 17.484375 19.15625 11.84375 
Q 23.34375 6.203125 30.609375 6.203125 
Q 37.796875 6.203125 41.984375 11.859375 
Q 46.1875 17.53125 46.1875 27.296875 
Q 46.1875 37.015625 41.984375 42.703125 
Q 37.796875 48.390625 30.609375 48.390625 
z
M 30.609375 56 
Q 42.328125 56 49.015625 48.375 
Q 55.71875 40.765625 55.71875 27.296875 
Q 55.71875 13.875 49.015625 6.21875 
Q 42.328125 -1.421875 30.609375 -1.421875 
Q 18.84375 -1.421875 12.171875 6.21875 
Q 5.515625 13.875 5.515625 27.296875 
Q 5.515625 40.765625 12.171875 48.375 
Q 18.84375 56 30.609375 56 
z
" id="DejaVuSans-111"/>
      <path d="M 52 44.1875 
Q 55.375 50.25 60.0625 53.125 
Q 64.75 56 71.09375 56 
Q 79.640625 56 84.28125 50.015625 
Q 88.921875 44.046875 88.921875 33.015625 
L 88.921875 0 
L 79.890625 0 
L 79.890625 32.71875 
Q 79.890625 40.578125 77.09375 44.375 
Q 74.3125 48.1875 68.609375 48.1875 
Q 61.625 48.1875 57.5625 43.546875 
Q 53.515625 38.921875 53.515625 30.90625 
L 53.515625 0 
L 44.484375 0 
L 44.484375 32.71875 
Q 44.484375 40.625 41.703125 44.40625 
Q 38.921875 48.1875 33.109375 48.1875 
Q 26.21875 48.1875 22.15625 43.53125 
Q 18.109375 38.875 18.109375 30.90625 
L 18.109375 0 
L 9.078125 0 
L 9.078125 54.6875 
L 18.109375 54.6875 
L 18.109375 46.1875 
Q 21.1875 51.21875 25.484375 53.609375 
Q 29.78125 56 35.6875 56 
Q 41.65625 56 45.828125 52.96875 
Q 50 49.953125 52 44.1875 
z
" id="DejaVuSans-109"/>
      <path d="M 18.109375 8.203125 
L 18.109375 -20.796875 
L 9.078125 -20.796875 
L 9.078125 54.6875 
L 18.109375 54.6875 
L 18.109375 46.390625 
Q 20.953125 51.265625 25.265625 53.625 
Q 29.59375 56 35.59375 56 
Q 45.5625 56 51.78125 48.09375 
Q 58.015625 40.1875 58.015625 27.296875 
Q 58.015625 14.40625 51.78125 6.484375 
Q 45.5625 -1.421875 35.59375 -1.421875 
Q 29.59375 -1.421875 25.265625 0.953125 
Q 20.953125 3.328125 18.109375 8.203125 
z
M 48.6875 27.296875 
Q 48.6875 37.203125 44.609375 42.84375 
Q 40.53125 48.484375 33.40625 48.484375 
Q 26.265625 48.484375 22.1875 42.84375 
Q 18.109375 37.203125 18.109375 27.296875 
Q 18.109375 17.390625 22.1875 11.75 
Q 26.265625 6.109375 33.40625 6.109375 
Q 40.53125 6.109375 44.609375 11.75 
Q 48.6875 17.390625 48.6875 27.296875 
z
" id="DejaVuSans-112"/>
      <path d="M 54.890625 33.015625 
L 54.890625 0 
L 45.90625 0 
L 45.90625 32.71875 
Q 45.90625 40.484375 42.875 44.328125 
Q 39.84375 48.1875 33.796875 48.1875 
Q 26.515625 48.1875 22.3125 43.546875 
Q 18.109375 38.921875 18.109375 30.90625 
L 18.109375 0 
L 9.078125 0 
L 9.078125 54.6875 
L 18.109375 54.6875 
L 18.109375 46.1875 
Q 21.34375 51.125 25.703125 53.5625 
Q 30.078125 56 35.796875 56 
Q 45.21875 56 50.046875 50.171875 
Q 54.890625 44.34375 54.890625 33.015625 
z
" id="DejaVuSans-110"/>
      <path d="M 56.203125 29.59375 
L 56.203125 25.203125 
L 14.890625 25.203125 
Q 15.484375 15.921875 20.484375 11.0625 
Q 25.484375 6.203125 34.421875 6.203125 
Q 39.59375 6.203125 44.453125 7.46875 
Q 49.3125 8.734375 54.109375 11.28125 
L 54.109375 2.78125 
Q 49.265625 0.734375 44.1875 -0.34375 
Q 39.109375 -1.421875 33.890625 -1.421875 
Q 20.796875 -1.421875 13.15625 6.1875 
Q 5.515625 13.8125 5.515625 26.8125 
Q 5.515625 40.234375 12.765625 48.109375 
Q 20.015625 56 32.328125 56 
Q 43.359375 56 49.78125 48.890625 
Q 56.203125 41.796875 56.203125 29.59375 
z
M 47.21875 32.234375 
Q 47.125 39.59375 43.09375 43.984375 
Q 39.0625 48.390625 32.421875 48.390625 
Q 24.90625 48.390625 20.390625 44.140625 
Q 15.875 39.890625 15.1875 32.171875 
z
" id="DejaVuSans-101"/>
     </defs>
     <g transform="translate(179.102344 342.771187)scale(0.14 -0.14)">
      <use xlink:href="#DejaVuSans-70"/>
      <use x="57.410156" xlink:href="#DejaVuSans-105"/>
      <use x="85.193359" xlink:href="#DejaVuSans-114"/>
      <use x="126.306641" xlink:href="#DejaVuSans-115"/>
      <use x="178.40625" xlink:href="#DejaVuSans-116"/>
      <use x="217.615234" xlink:href="#DejaVuSans-32"/>
      <use x="249.402344" xlink:href="#DejaVuSans-99"/>
      <use x="304.382812" xlink:href="#DejaVuSans-111"/>
      <use x="365.564453" xlink:href="#DejaVuSans-109"/>
      <use x="462.976562" xlink:href="#DejaVuSans-112"/>
      <use x="526.453125" xlink:href="#DejaVuSans-111"/>
      <use x="587.634766" xlink:href="#DejaVuSans-110"/>
      <use x="651.013672" xlink:href="#DejaVuSans-101"/>
      <use x="712.537109" xlink:href="#DejaVuSans-110"/>
      <use x="775.916016" xlink:href="#DejaVuSans-116"/>
     </g>
    </g>
   </g>
   <g id="matplotlib.axis_2">
    <g id="ytick_1">
     <g id="line2d_6">
      <defs>
       <path d="M 0 0 
L -3.5 0 
" id="m506a163c3b" style="stroke:#000000;stroke-width:0.8;"/>
      </defs>
      <g>
       <use style="stroke:#000000;stroke-width:0.8;" x="57.6" xlink:href="#m506a163c3b" y="279.602363"/>
      </g>
     </g>
     <g id="text_7">
      <!-- −3 -->
      <defs>
       <path d="M 40.578125 39.3125 
Q 47.65625 37.796875 51.625 33 
Q 55.609375 28.21875 55.609375 21.1875 
Q 55.609375 10.40625 48.1875 4.484375 
Q 40.765625 -1.421875 27.09375 -1.421875 
Q 22.515625 -1.421875 17.65625 -0.515625 
Q 12.796875 0.390625 7.625 2.203125 
L 7.625 11.71875 
Q 11.71875 9.328125 16.59375 8.109375 
Q 21.484375 6.890625 26.8125 6.890625 
Q 36.078125 6.890625 40.9375 10.546875 
Q 45.796875 14.203125 45.796875 21.1875 
Q 45.796875 27.640625 41.28125 31.265625 
Q 36.765625 34.90625 28.71875 34.90625 
L 20.21875 34.90625 
L 20.21875 43.015625 
L 29.109375 43.015625 
Q 36.375 43.015625 40.234375 45.921875 
Q 44.09375 48.828125 44.09375 54.296875 
Q 44.09375 59.90625 40.109375 62.90625 
Q 36.140625 65.921875 28.71875 65.921875 
Q 24.65625 65.921875 20.015625 65.03125 
Q 15.375 64.15625 9.8125 62.3125 
L 9.8125 71.09375 
Q 15.4375 72.65625 20.34375 73.4375 
Q 25.25 74.21875 29.59375 74.21875 
Q 40.828125 74.21875 47.359375 69.109375 
Q 53.90625 64.015625 53.90625 55.328125 
Q 53.90625 49.265625 50.4375 45.09375 
Q 46.96875 40.921875 40.578125 39.3125 
z
" id="DejaVuSans-51"/>
      </defs>
      <g transform="translate(29.960938 284.921269)scale(0.14 -0.14)">
       <use xlink:href="#DejaVuSans-8722"/>
       <use x="83.789062" xlink:href="#DejaVuSans-51"/>
      </g>
     </g>
    </g>
    <g id="ytick_2">
     <g id="line2d_7">
      <g>
       <use style="stroke:#000000;stroke-width:0.8;" x="57.6" xlink:href="#m506a163c3b" y="246.570593"/>
      </g>
     </g>
     <g id="text_8">
      <!-- −2 -->
      <g transform="translate(29.960938 251.889499)scale(0.14 -0.14)">
       <use xlink:href="#DejaVuSans-8722"/>
       <use x="83.789062" xlink:href="#DejaVuSans-50"/>
      </g>
     </g>
    </g>
    <g id="ytick_3">
     <g id="line2d_8">
      <g>
       <use style="stroke:#000000;stroke-width:0.8;" x="57.6" xlink:href="#m506a163c3b" y="213.538823"/>
      </g>
     </g>
     <g id="text_9">
      <!-- −1 -->
      <defs>
       <path d="M 12.40625 8.296875 
L 28.515625 8.296875 
L 28.515625 63.921875 
L 10.984375 60.40625 
L 10.984375 69.390625 
L 28.421875 72.90625 
L 38.28125 72.90625 
L 38.28125 8.296875 
L 54.390625 8.296875 
L 54.390625 0 
L 12.40625 0 
z
" id="DejaVuSans-49"/>
      </defs>
      <g transform="translate(29.960938 218.857729)scale(0.14 -0.14)">
       <use xlink:href="#DejaVuSans-8722"/>
       <use x="83.789062" xlink:href="#DejaVuSans-49"/>
      </g>
     </g>
    </g>
    <g id="ytick_4">
     <g id="line2d_9">
      <g>
       <use style="stroke:#000000;stroke-width:0.8;" x="57.6" xlink:href="#m506a163c3b" y="180.507053"/>
      </g>
     </g>
     <g id="text_10">
      <!-- 0 -->
      <g transform="translate(41.6925 185.825959)scale(0.14 -0.14)">
       <use xlink:href="#DejaVuSans-48"/>
      </g>
     </g>
    </g>
    <g id="ytick_5">
     <g id="line2d_10">
      <g>
       <use style="stroke:#000000;stroke-width:0.8;" x="57.6" xlink:href="#m506a163c3b" y="147.475283"/>
      </g>
     </g>
     <g id="text_11">
      <!-- 1 -->
      <g transform="translate(41.6925 152.794189)scale(0.14 -0.14)">
       <use xlink:href="#DejaVuSans-49"/>
      </g>
     </g>
    </g>
    <g id="ytick_6">
     <g id="line2d_11">
      <g>
       <use style="stroke:#000000;stroke-width:0.8;" x="57.6" xlink:href="#m506a163c3b" y="114.443513"/>
      </g>
     </g>
     <g id="text_12">
      <!-- 2 -->
      <g transform="translate(41.6925 119.762419)scale(0.14 -0.14)">
       <use xlink:href="#DejaVuSans-50"/>
      </g>
     </g>
    </g>
    <g id="ytick_7">
     <g id="line2d_12">
      <g>
       <use style="stroke:#000000;stroke-width:0.8;" x="57.6" xlink:href="#m506a163c3b" y="81.411743"/>
      </g>
     </g>
     <g id="text_13">
      <!-- 3 -->
      <g transform="translate(41.6925 86.730649)scale(0.14 -0.14)">
       <use xlink:href="#DejaVuSans-51"/>
      </g>
     </g>
    </g>
    <g id="ytick_8">
     <g id="line2d_13">
      <g>
       <use style="stroke:#000000;stroke-width:0.8;" x="57.6" xlink:href="#m506a163c3b" y="48.379973"/>
      </g>
     </g>
     <g id="text_14">
      <!-- 4 -->
      <g transform="translate(41.6925 53.69888)scale(0.14 -0.14)">
       <use xlink:href="#DejaVuSans-52"/>
      </g>
     </g>
    </g>
    <g id="text_15">
     <!-- Second component -->
     <defs>
      <path d="M 53.515625 70.515625 
L 53.515625 60.890625 
Q 47.90625 63.578125 42.921875 64.890625 
Q 37.9375 66.21875 33.296875 66.21875 
Q 25.25 66.21875 20.875 63.09375 
Q 16.5 59.96875 16.5 54.203125 
Q 16.5 49.359375 19.40625 46.890625 
Q 22.3125 44.4375 30.421875 42.921875 
L 36.375 41.703125 
Q 47.40625 39.59375 52.65625 34.296875 
Q 57.90625 29 57.90625 20.125 
Q 57.90625 9.515625 50.796875 4.046875 
Q 43.703125 -1.421875 29.984375 -1.421875 
Q 24.8125 -1.421875 18.96875 -0.25 
Q 13.140625 0.921875 6.890625 3.21875 
L 6.890625 13.375 
Q 12.890625 10.015625 18.65625 8.296875 
Q 24.421875 6.59375 29.984375 6.59375 
Q 38.421875 6.59375 43.015625 9.90625 
Q 47.609375 13.234375 47.609375 19.390625 
Q 47.609375 24.75 44.3125 27.78125 
Q 41.015625 30.8125 33.5 32.328125 
L 27.484375 33.5 
Q 16.453125 35.6875 11.515625 40.375 
Q 6.59375 45.0625 6.59375 53.421875 
Q 6.59375 63.09375 13.40625 68.65625 
Q 20.21875 74.21875 32.171875 74.21875 
Q 37.3125 74.21875 42.625 73.28125 
Q 47.953125 72.359375 53.515625 70.515625 
z
" id="DejaVuSans-83"/>
      <path d="M 45.40625 46.390625 
L 45.40625 75.984375 
L 54.390625 75.984375 
L 54.390625 0 
L 45.40625 0 
L 45.40625 8.203125 
Q 42.578125 3.328125 38.25 0.953125 
Q 33.9375 -1.421875 27.875 -1.421875 
Q 17.96875 -1.421875 11.734375 6.484375 
Q 5.515625 14.40625 5.515625 27.296875 
Q 5.515625 40.1875 11.734375 48.09375 
Q 17.96875 56 27.875 56 
Q 33.9375 56 38.25 53.625 
Q 42.578125 51.265625 45.40625 46.390625 
z
M 14.796875 27.296875 
Q 14.796875 17.390625 18.875 11.75 
Q 22.953125 6.109375 30.078125 6.109375 
Q 37.203125 6.109375 41.296875 11.75 
Q 45.40625 17.390625 45.40625 27.296875 
Q 45.40625 37.203125 41.296875 42.84375 
Q 37.203125 48.484375 30.078125 48.484375 
Q 22.953125 48.484375 18.875 42.84375 
Q 14.796875 37.203125 14.796875 27.296875 
z
" id="DejaVuSans-100"/>
     </defs>
     <g transform="translate(23.049375 242.117375)rotate(-90)scale(0.14 -0.14)">
      <use xlink:href="#DejaVuSans-83"/>
      <use x="63.476562" xlink:href="#DejaVuSans-101"/>
      <use x="125" xlink:href="#DejaVuSans-99"/>
      <use x="179.980469" xlink:href="#DejaVuSans-111"/>
      <use x="241.162109" xlink:href="#DejaVuSans-110"/>
      <use x="304.541016" xlink:href="#DejaVuSans-100"/>
      <use x="368.017578" xlink:href="#DejaVuSans-32"/>
      <use x="399.804688" xlink:href="#DejaVuSans-99"/>
      <use x="454.785156" xlink:href="#DejaVuSans-111"/>
      <use x="515.966797" xlink:href="#DejaVuSans-109"/>
      <use x="613.378906" xlink:href="#DejaVuSans-112"/>
      <use x="676.855469" xlink:href="#DejaVuSans-111"/>
      <use x="738.037109" xlink:href="#DejaVuSans-110"/>
      <use x="801.416016" xlink:href="#DejaVuSans-101"/>
      <use x="862.939453" xlink:href="#DejaVuSans-110"/>
      <use x="926.318359" xlink:href="#DejaVuSans-116"/>
     </g>
    </g>
   </g>
   <g id="patch_3">
    <path d="M 57.6 307.584 
L 57.6 41.472 
" style="fill:none;stroke:#000000;stroke-linecap:square;stroke-linejoin:miter;stroke-width:0.8;"/>
   </g>
   <g id="patch_4">
    <path d="M 414.72 307.584 
L 414.72 41.472 
" style="fill:none;stroke:#000000;stroke-linecap:square;stroke-linejoin:miter;stroke-width:0.8;"/>
   </g>
   <g id="patch_5">
    <path d="M 57.6 307.584 
L 414.72 307.584 
" style="fill:none;stroke:#000000;stroke-linecap:square;stroke-linejoin:miter;stroke-width:0.8;"/>
   </g>
   <g id="patch_6">
    <path d="M 57.6 41.472 
L 414.72 41.472 
" style="fill:none;stroke:#000000;stroke-linecap:square;stroke-linejoin:miter;stroke-width:0.8;"/>
   </g>
   <g id="legend_1">
    <g id="patch_7">
     <path d="M 196.004531 166.897 
L 276.315469 166.897 
Q 278.315469 166.897 278.315469 164.897 
L 278.315469 48.472 
Q 278.315469 46.472 276.315469 46.472 
L 196.004531 46.472 
Q 194.004531 46.472 194.004531 48.472 
L 194.004531 164.897 
Q 194.004531 166.897 196.004531 166.897 
z
" style="fill:#ffffff;opacity:0.8;stroke:#cccccc;stroke-linejoin:miter;"/>
    </g>
    <g id="PathCollection_9">
     <g>
      <use style="fill:#1f77b4;stroke:#1f77b4;" x="208.004531" xlink:href="#mef351c6282" y="55.445438"/>
     </g>
    </g>
    <g id="text_16">
     <!-- Subject A -->
     <defs>
      <path d="M 8.5 21.578125 
L 8.5 54.6875 
L 17.484375 54.6875 
L 17.484375 21.921875 
Q 17.484375 14.15625 20.5 10.265625 
Q 23.53125 6.390625 29.59375 6.390625 
Q 36.859375 6.390625 41.078125 11.03125 
Q 45.3125 15.671875 45.3125 23.6875 
L 45.3125 54.6875 
L 54.296875 54.6875 
L 54.296875 0 
L 45.3125 0 
L 45.3125 8.40625 
Q 42.046875 3.421875 37.71875 1 
Q 33.40625 -1.421875 27.6875 -1.421875 
Q 18.265625 -1.421875 13.375 4.4375 
Q 8.5 10.296875 8.5 21.578125 
z
M 31.109375 56 
z
" id="DejaVuSans-117"/>
      <path d="M 48.6875 27.296875 
Q 48.6875 37.203125 44.609375 42.84375 
Q 40.53125 48.484375 33.40625 48.484375 
Q 26.265625 48.484375 22.1875 42.84375 
Q 18.109375 37.203125 18.109375 27.296875 
Q 18.109375 17.390625 22.1875 11.75 
Q 26.265625 6.109375 33.40625 6.109375 
Q 40.53125 6.109375 44.609375 11.75 
Q 48.6875 17.390625 48.6875 27.296875 
z
M 18.109375 46.390625 
Q 20.953125 51.265625 25.265625 53.625 
Q 29.59375 56 35.59375 56 
Q 45.5625 56 51.78125 48.09375 
Q 58.015625 40.1875 58.015625 27.296875 
Q 58.015625 14.40625 51.78125 6.484375 
Q 45.5625 -1.421875 35.59375 -1.421875 
Q 29.59375 -1.421875 25.265625 0.953125 
Q 20.953125 3.328125 18.109375 8.203125 
L 18.109375 0 
L 9.078125 0 
L 9.078125 75.984375 
L 18.109375 75.984375 
z
" id="DejaVuSans-98"/>
      <path d="M 9.421875 54.6875 
L 18.40625 54.6875 
L 18.40625 -0.984375 
Q 18.40625 -11.421875 14.421875 -16.109375 
Q 10.453125 -20.796875 1.609375 -20.796875 
L -1.8125 -20.796875 
L -1.8125 -13.1875 
L 0.59375 -13.1875 
Q 5.71875 -13.1875 7.5625 -10.8125 
Q 9.421875 -8.453125 9.421875 -0.984375 
z
M 9.421875 75.984375 
L 18.40625 75.984375 
L 18.40625 64.59375 
L 9.421875 64.59375 
z
" id="DejaVuSans-106"/>
      <path d="M 34.1875 63.1875 
L 20.796875 26.90625 
L 47.609375 26.90625 
z
M 28.609375 72.90625 
L 39.796875 72.90625 
L 67.578125 0 
L 57.328125 0 
L 50.6875 18.703125 
L 17.828125 18.703125 
L 11.1875 0 
L 0.78125 0 
z
" id="DejaVuSans-65"/>
     </defs>
     <g transform="translate(226.004531 58.070438)scale(0.1 -0.1)">
      <use xlink:href="#DejaVuSans-83"/>
      <use x="63.476562" xlink:href="#DejaVuSans-117"/>
      <use x="126.855469" xlink:href="#DejaVuSans-98"/>
      <use x="190.332031" xlink:href="#DejaVuSans-106"/>
      <use x="218.115234" xlink:href="#DejaVuSans-101"/>
      <use x="279.638672" xlink:href="#DejaVuSans-99"/>
      <use x="334.619141" xlink:href="#DejaVuSans-116"/>
      <use x="373.828125" xlink:href="#DejaVuSans-32"/>
      <use x="405.615234" xlink:href="#DejaVuSans-65"/>
     </g>
    </g>
    <g id="PathCollection_10">
     <g>
      <use style="fill:#ff7f0e;stroke:#ff7f0e;" x="208.004531" xlink:href="#md8ceece45e" y="70.123563"/>
     </g>
    </g>
    <g id="text_17">
     <!-- Subject B -->
     <defs>
      <path d="M 19.671875 34.8125 
L 19.671875 8.109375 
L 35.5 8.109375 
Q 43.453125 8.109375 47.28125 11.40625 
Q 51.125 14.703125 51.125 21.484375 
Q 51.125 28.328125 47.28125 31.5625 
Q 43.453125 34.8125 35.5 34.8125 
z
M 19.671875 64.796875 
L 19.671875 42.828125 
L 34.28125 42.828125 
Q 41.5 42.828125 45.03125 45.53125 
Q 48.578125 48.25 48.578125 53.8125 
Q 48.578125 59.328125 45.03125 62.0625 
Q 41.5 64.796875 34.28125 64.796875 
z
M 9.8125 72.90625 
L 35.015625 72.90625 
Q 46.296875 72.90625 52.390625 68.21875 
Q 58.5 63.53125 58.5 54.890625 
Q 58.5 48.1875 55.375 44.234375 
Q 52.25 40.28125 46.1875 39.3125 
Q 53.46875 37.75 57.5 32.78125 
Q 61.53125 27.828125 61.53125 20.40625 
Q 61.53125 10.640625 54.890625 5.3125 
Q 48.25 0 35.984375 0 
L 9.8125 0 
z
" id="DejaVuSans-66"/>
     </defs>
     <g transform="translate(226.004531 72.748563)scale(0.1 -0.1)">
      <use xlink:href="#DejaVuSans-83"/>
      <use x="63.476562" xlink:href="#DejaVuSans-117"/>
      <use x="126.855469" xlink:href="#DejaVuSans-98"/>
      <use x="190.332031" xlink:href="#DejaVuSans-106"/>
      <use x="218.115234" xlink:href="#DejaVuSans-101"/>
      <use x="279.638672" xlink:href="#DejaVuSans-99"/>
      <use x="334.619141" xlink:href="#DejaVuSans-116"/>
      <use x="373.828125" xlink:href="#DejaVuSans-32"/>
      <use x="405.615234" xlink:href="#DejaVuSans-66"/>
     </g>
    </g>
    <g id="PathCollection_11">
     <g>
      <use style="fill:#2ca02c;stroke:#2ca02c;" x="208.004531" xlink:href="#m20bfb606bc" y="84.801688"/>
     </g>
    </g>
    <g id="text_18">
     <!-- Subject C -->
     <defs>
      <path d="M 64.40625 67.28125 
L 64.40625 56.890625 
Q 59.421875 61.53125 53.78125 63.8125 
Q 48.140625 66.109375 41.796875 66.109375 
Q 29.296875 66.109375 22.65625 58.46875 
Q 16.015625 50.828125 16.015625 36.375 
Q 16.015625 21.96875 22.65625 14.328125 
Q 29.296875 6.6875 41.796875 6.6875 
Q 48.140625 6.6875 53.78125 8.984375 
Q 59.421875 11.28125 64.40625 15.921875 
L 64.40625 5.609375 
Q 59.234375 2.09375 53.4375 0.328125 
Q 47.65625 -1.421875 41.21875 -1.421875 
Q 24.65625 -1.421875 15.125 8.703125 
Q 5.609375 18.84375 5.609375 36.375 
Q 5.609375 53.953125 15.125 64.078125 
Q 24.65625 74.21875 41.21875 74.21875 
Q 47.75 74.21875 53.53125 72.484375 
Q 59.328125 70.75 64.40625 67.28125 
z
" id="DejaVuSans-67"/>
     </defs>
     <g transform="translate(226.004531 87.426688)scale(0.1 -0.1)">
      <use xlink:href="#DejaVuSans-83"/>
      <use x="63.476562" xlink:href="#DejaVuSans-117"/>
      <use x="126.855469" xlink:href="#DejaVuSans-98"/>
      <use x="190.332031" xlink:href="#DejaVuSans-106"/>
      <use x="218.115234" xlink:href="#DejaVuSans-101"/>
      <use x="279.638672" xlink:href="#DejaVuSans-99"/>
      <use x="334.619141" xlink:href="#DejaVuSans-116"/>
      <use x="373.828125" xlink:href="#DejaVuSans-32"/>
      <use x="405.615234" xlink:href="#DejaVuSans-67"/>
     </g>
    </g>
    <g id="PathCollection_12">
     <g>
      <use style="fill:#d62728;stroke:#d62728;" x="208.004531" xlink:href="#m5f2c974300" y="99.479813"/>
     </g>
    </g>
    <g id="text_19">
     <!-- Subject D -->
     <defs>
      <path d="M 19.671875 64.796875 
L 19.671875 8.109375 
L 31.59375 8.109375 
Q 46.6875 8.109375 53.6875 14.9375 
Q 60.6875 21.78125 60.6875 36.53125 
Q 60.6875 51.171875 53.6875 57.984375 
Q 46.6875 64.796875 31.59375 64.796875 
z
M 9.8125 72.90625 
L 30.078125 72.90625 
Q 51.265625 72.90625 61.171875 64.09375 
Q 71.09375 55.28125 71.09375 36.53125 
Q 71.09375 17.671875 61.125 8.828125 
Q 51.171875 0 30.078125 0 
L 9.8125 0 
z
" id="DejaVuSans-68"/>
     </defs>
     <g transform="translate(226.004531 102.104813)scale(0.1 -0.1)">
      <use xlink:href="#DejaVuSans-83"/>
      <use x="63.476562" xlink:href="#DejaVuSans-117"/>
      <use x="126.855469" xlink:href="#DejaVuSans-98"/>
      <use x="190.332031" xlink:href="#DejaVuSans-106"/>
      <use x="218.115234" xlink:href="#DejaVuSans-101"/>
      <use x="279.638672" xlink:href="#DejaVuSans-99"/>
      <use x="334.619141" xlink:href="#DejaVuSans-116"/>
      <use x="373.828125" xlink:href="#DejaVuSans-32"/>
      <use x="405.615234" xlink:href="#DejaVuSans-68"/>
     </g>
    </g>
    <g id="PathCollection_13">
     <g>
      <use style="fill:#9467bd;stroke:#9467bd;" x="208.004531" xlink:href="#mca90f6b776" y="114.157938"/>
     </g>
    </g>
    <g id="text_20">
     <!-- Subject E -->
     <defs>
      <path d="M 9.8125 72.90625 
L 55.90625 72.90625 
L 55.90625 64.59375 
L 19.671875 64.59375 
L 19.671875 43.015625 
L 54.390625 43.015625 
L 54.390625 34.71875 
L 19.671875 34.71875 
L 19.671875 8.296875 
L 56.78125 8.296875 
L 56.78125 0 
L 9.8125 0 
z
" id="DejaVuSans-69"/>
     </defs>
     <g transform="translate(226.004531 116.782938)scale(0.1 -0.1)">
      <use xlink:href="#DejaVuSans-83"/>
      <use x="63.476562" xlink:href="#DejaVuSans-117"/>
      <use x="126.855469" xlink:href="#DejaVuSans-98"/>
      <use x="190.332031" xlink:href="#DejaVuSans-106"/>
      <use x="218.115234" xlink:href="#DejaVuSans-101"/>
      <use x="279.638672" xlink:href="#DejaVuSans-99"/>
      <use x="334.619141" xlink:href="#DejaVuSans-116"/>
      <use x="373.828125" xlink:href="#DejaVuSans-32"/>
      <use x="405.615234" xlink:href="#DejaVuSans-69"/>
     </g>
    </g>
    <g id="PathCollection_14">
     <g>
      <use style="fill:#8c564b;stroke:#8c564b;" x="208.004531" xlink:href="#me2d264c38b" y="128.836063"/>
     </g>
    </g>
    <g id="text_21">
     <!-- Subject F -->
     <g transform="translate(226.004531 131.461063)scale(0.1 -0.1)">
      <use xlink:href="#DejaVuSans-83"/>
      <use x="63.476562" xlink:href="#DejaVuSans-117"/>
      <use x="126.855469" xlink:href="#DejaVuSans-98"/>
      <use x="190.332031" xlink:href="#DejaVuSans-106"/>
      <use x="218.115234" xlink:href="#DejaVuSans-101"/>
      <use x="279.638672" xlink:href="#DejaVuSans-99"/>
      <use x="334.619141" xlink:href="#DejaVuSans-116"/>
      <use x="373.828125" xlink:href="#DejaVuSans-32"/>
      <use x="405.615234" xlink:href="#DejaVuSans-70"/>
     </g>
    </g>
    <g id="PathCollection_15">
     <g>
      <use style="fill:#e377c2;stroke:#e377c2;" x="208.004531" xlink:href="#m908b72931d" y="143.514188"/>
     </g>
    </g>
    <g id="text_22">
     <!-- Subject G -->
     <defs>
      <path d="M 59.515625 10.40625 
L 59.515625 29.984375 
L 43.40625 29.984375 
L 43.40625 38.09375 
L 69.28125 38.09375 
L 69.28125 6.78125 
Q 63.578125 2.734375 56.6875 0.65625 
Q 49.8125 -1.421875 42 -1.421875 
Q 24.90625 -1.421875 15.25 8.5625 
Q 5.609375 18.5625 5.609375 36.375 
Q 5.609375 54.25 15.25 64.234375 
Q 24.90625 74.21875 42 74.21875 
Q 49.125 74.21875 55.546875 72.453125 
Q 61.96875 70.703125 67.390625 67.28125 
L 67.390625 56.78125 
Q 61.921875 61.421875 55.765625 63.765625 
Q 49.609375 66.109375 42.828125 66.109375 
Q 29.4375 66.109375 22.71875 58.640625 
Q 16.015625 51.171875 16.015625 36.375 
Q 16.015625 21.625 22.71875 14.15625 
Q 29.4375 6.6875 42.828125 6.6875 
Q 48.046875 6.6875 52.140625 7.59375 
Q 56.25 8.5 59.515625 10.40625 
z
" id="DejaVuSans-71"/>
     </defs>
     <g transform="translate(226.004531 146.139188)scale(0.1 -0.1)">
      <use xlink:href="#DejaVuSans-83"/>
      <use x="63.476562" xlink:href="#DejaVuSans-117"/>
      <use x="126.855469" xlink:href="#DejaVuSans-98"/>
      <use x="190.332031" xlink:href="#DejaVuSans-106"/>
      <use x="218.115234" xlink:href="#DejaVuSans-101"/>
      <use x="279.638672" xlink:href="#DejaVuSans-99"/>
      <use x="334.619141" xlink:href="#DejaVuSans-116"/>
      <use x="373.828125" xlink:href="#DejaVuSans-32"/>
      <use x="405.615234" xlink:href="#DejaVuSans-71"/>
     </g>
    </g>
    <g id="PathCollection_16">
     <g>
      <use style="fill:#7f7f7f;stroke:#7f7f7f;" x="208.004531" xlink:href="#mf88ac9f57f" y="158.192313"/>
     </g>
    </g>
    <g id="text_23">
     <!-- Subject H -->
     <defs>
      <path d="M 9.8125 72.90625 
L 19.671875 72.90625 
L 19.671875 43.015625 
L 55.515625 43.015625 
L 55.515625 72.90625 
L 65.375 72.90625 
L 65.375 0 
L 55.515625 0 
L 55.515625 34.71875 
L 19.671875 34.71875 
L 19.671875 0 
L 9.8125 0 
z
" id="DejaVuSans-72"/>
     </defs>
     <g transform="translate(226.004531 160.817313)scale(0.1 -0.1)">
      <use xlink:href="#DejaVuSans-83"/>
      <use x="63.476562" xlink:href="#DejaVuSans-117"/>
      <use x="126.855469" xlink:href="#DejaVuSans-98"/>
      <use x="190.332031" xlink:href="#DejaVuSans-106"/>
      <use x="218.115234" xlink:href="#DejaVuSans-101"/>
      <use x="279.638672" xlink:href="#DejaVuSans-99"/>
      <use x="334.619141" xlink:href="#DejaVuSans-116"/>
      <use x="373.828125" xlink:href="#DejaVuSans-32"/>
      <use x="405.615234" xlink:href="#DejaVuSans-72"/>
     </g>
    </g>
   </g>
  </g>
 </g>
 <defs>
  <clipPath id="p25d6dc864f">
   <rect height="266.112" width="357.12" x="57.6" y="41.472"/>
  </clipPath>
 </defs>
</svg>
